<?xml version="1.0" encoding="UTF-8" standalone="no"?>
<!DOCTYPE svg PUBLIC "-//W3C//DTD SVG 1.1//EN"
 "http://www.w3.org/Graphics/SVG/1.1/DTD/svg11.dtd">
<!-- Generated by graphviz version 2.43.0 (0)
 -->
<!-- Title: ar_interaction.hpp Pages: 1 -->
<svg width="885pt" height="364pt"
 viewBox="0.00 0.00 885.00 364.00" xmlns="http://www.w3.org/2000/svg" xmlns:xlink="http://www.w3.org/1999/xlink">
<g id="graph0" class="graph" transform="scale(1 1) rotate(0) translate(4 360)">
<title>ar_interaction.hpp</title>
<polygon fill="white" stroke="transparent" points="-4,4 -4,-360 881,-360 881,4 -4,4"/>
<!-- Node1 -->
<g id="node1" class="node">
<title>Node1</title>
<g id="a_node1"><a xlink:title=" ">
<polygon fill="#bfbfbf" stroke="black" points="227.5,-336.5 227.5,-355.5 332.5,-355.5 332.5,-336.5 227.5,-336.5"/>
<text text-anchor="middle" x="280" y="-343.5" font-family="Helvetica,sans-Serif" font-size="10.00">ar_interaction.hpp</text>
</a>
</g>
</g>
<!-- Node2 -->
<g id="node2" class="node">
<title>Node2</title>
<g id="a_node2"><a xlink:title=" ">
<polygon fill="white" stroke="#bfbfbf" points="46.5,-280.5 46.5,-299.5 93.5,-299.5 93.5,-280.5 46.5,-280.5"/>
<text text-anchor="middle" x="70" y="-287.5" font-family="Helvetica,sans-Serif" font-size="10.00">cmath</text>
</a>
</g>
</g>
<!-- Node1&#45;&gt;Node2 -->
<g id="edge1" class="edge">
<title>Node1&#45;&gt;Node2</title>
<path fill="none" stroke="midnightblue" d="M246.72,-336.44C207.55,-326.37 142.86,-309.74 103.56,-299.63"/>
<polygon fill="midnightblue" stroke="midnightblue" points="104.23,-296.19 93.67,-297.09 102.48,-302.97 104.23,-296.19"/>
</g>
<!-- Node3 -->
<g id="node3" class="node">
<title>Node3</title>
<g id="a_node3"><a xlink:title=" ">
<polygon fill="white" stroke="#bfbfbf" points="121,-56.5 121,-75.5 219,-75.5 219,-56.5 121,-56.5"/>
<text text-anchor="middle" x="170" y="-63.5" font-family="Helvetica,sans-Serif" font-size="10.00">Common/Float.h</text>
</a>
</g>
</g>
<!-- Node1&#45;&gt;Node3 -->
<g id="edge2" class="edge">
<title>Node1&#45;&gt;Node3</title>
<path fill="none" stroke="midnightblue" d="M242.56,-336.5C195.83,-323.42 122,-293.49 122,-235 122,-235 122,-235 122,-177 122,-141.58 143.16,-104.71 157.38,-83.92"/>
<polygon fill="midnightblue" stroke="midnightblue" points="160.38,-85.74 163.33,-75.56 154.68,-81.68 160.38,-85.74"/>
</g>
<!-- Node4 -->
<g id="node4" class="node">
<title>Node4</title>
<g id="a_node4"><a xlink:title=" ">
<polygon fill="white" stroke="#bfbfbf" points="517,-0.5 517,-19.5 645,-19.5 645,-0.5 517,-0.5"/>
<text text-anchor="middle" x="581" y="-7.5" font-family="Helvetica,sans-Serif" font-size="10.00">Common/binary_tree.h</text>
</a>
</g>
</g>
<!-- Node1&#45;&gt;Node4 -->
<g id="edge3" class="edge">
<title>Node1&#45;&gt;Node4</title>
<path fill="none" stroke="midnightblue" d="M332.72,-340.83C478.61,-328.58 877,-290.1 877,-235 877,-235 877,-235 877,-121 877,-71.76 731.25,-37.46 644.3,-21.38"/>
<polygon fill="midnightblue" stroke="midnightblue" points="644.73,-17.9 634.26,-19.56 643.47,-24.79 644.73,-17.9"/>
</g>
<!-- Node5 -->
<g id="node5" class="node">
<title>Node5</title>
<g id="a_node5"><a xlink:href="changeover_8hpp.html" target="_top" xlink:title=" ">
<polygon fill="white" stroke="black" points="0,-112.5 0,-131.5 94,-131.5 94,-112.5 0,-112.5"/>
<text text-anchor="middle" x="47" y="-119.5" font-family="Helvetica,sans-Serif" font-size="10.00">changeover.hpp</text>
</a>
</g>
</g>
<!-- Node1&#45;&gt;Node5 -->
<g id="edge4" class="edge">
<title>Node1&#45;&gt;Node5</title>
<path fill="none" stroke="midnightblue" d="M268.78,-336.34C257.48,-327.5 239.65,-313.22 225,-300 162.33,-243.45 92.6,-171.15 62.36,-139.3"/>
<polygon fill="midnightblue" stroke="midnightblue" points="64.65,-136.63 55.24,-131.77 59.57,-141.44 64.65,-136.63"/>
</g>
<!-- Node8 -->
<g id="node8" class="node">
<title>Node8</title>
<g id="a_node8"><a xlink:title=" ">
<polygon fill="white" stroke="#bfbfbf" points="246.5,-280.5 246.5,-299.5 313.5,-299.5 313.5,-280.5 246.5,-280.5"/>
<text text-anchor="middle" x="280" y="-287.5" font-family="Helvetica,sans-Serif" font-size="10.00">AR/force.h</text>
</a>
</g>
</g>
<!-- Node1&#45;&gt;Node8 -->
<g id="edge8" class="edge">
<title>Node1&#45;&gt;Node8</title>
<path fill="none" stroke="midnightblue" d="M280,-336.08C280,-329.01 280,-318.86 280,-309.99"/>
<polygon fill="midnightblue" stroke="midnightblue" points="283.5,-309.75 280,-299.75 276.5,-309.75 283.5,-309.75"/>
</g>
<!-- Node9 -->
<g id="node9" class="node">
<title>Node9</title>
<g id="a_node9"><a xlink:href="hard__ptcl_8hpp.html" target="_top" xlink:title=" ">
<polygon fill="white" stroke="black" points="325.5,-224.5 325.5,-243.5 408.5,-243.5 408.5,-224.5 325.5,-224.5"/>
<text text-anchor="middle" x="367" y="-231.5" font-family="Helvetica,sans-Serif" font-size="10.00">hard_ptcl.hpp</text>
</a>
</g>
</g>
<!-- Node1&#45;&gt;Node9 -->
<g id="edge9" class="edge">
<title>Node1&#45;&gt;Node9</title>
<path fill="none" stroke="midnightblue" d="M289.03,-336.44C298.06,-327.67 312.14,-313.46 323,-300 335.39,-284.64 347.85,-265.85 356.33,-252.43"/>
<polygon fill="midnightblue" stroke="midnightblue" points="359.43,-254.08 361.74,-243.74 353.48,-250.38 359.43,-254.08"/>
</g>
<!-- Node16 -->
<g id="node16" class="node">
<title>Node16</title>
<g id="a_node16"><a xlink:title=" ">
<polygon fill="white" stroke="#bfbfbf" points="464.5,-224.5 464.5,-243.5 613.5,-243.5 613.5,-224.5 464.5,-224.5"/>
<text text-anchor="middle" x="539" y="-231.5" font-family="Helvetica,sans-Serif" font-size="10.00">Hermite/hermite_particle.h</text>
</a>
</g>
</g>
<!-- Node1&#45;&gt;Node16 -->
<g id="edge20" class="edge">
<title>Node1&#45;&gt;Node16</title>
<path fill="none" stroke="midnightblue" d="M300.32,-336.37C345.9,-317.01 456.44,-270.06 509.55,-247.51"/>
<polygon fill="midnightblue" stroke="midnightblue" points="510.94,-250.72 518.77,-243.59 508.2,-244.28 510.94,-250.72"/>
</g>
<!-- Node17 -->
<g id="node17" class="node">
<title>Node17</title>
<g id="a_node17"><a xlink:href="ar__perturber_8hpp.html" target="_top" xlink:title=" ">
<polygon fill="white" stroke="black" points="568.5,-280.5 568.5,-299.5 665.5,-299.5 665.5,-280.5 568.5,-280.5"/>
<text text-anchor="middle" x="617" y="-287.5" font-family="Helvetica,sans-Serif" font-size="10.00">ar_perturber.hpp</text>
</a>
</g>
</g>
<!-- Node1&#45;&gt;Node17 -->
<g id="edge21" class="edge">
<title>Node1&#45;&gt;Node17</title>
<path fill="none" stroke="midnightblue" d="M332.66,-336.56C393.89,-326.75 494.7,-310.6 558.38,-300.39"/>
<polygon fill="midnightblue" stroke="midnightblue" points="558.95,-303.85 568.27,-298.81 557.84,-296.94 558.95,-303.85"/>
</g>
<!-- Node19 -->
<g id="node19" class="node">
<title>Node19</title>
<g id="a_node19"><a xlink:href="two__body__tide_8hpp.html" target="_top" xlink:title=" ">
<polygon fill="white" stroke="black" points="150.5,-112.5 150.5,-131.5 259.5,-131.5 259.5,-112.5 150.5,-112.5"/>
<text text-anchor="middle" x="205" y="-119.5" font-family="Helvetica,sans-Serif" font-size="10.00">two_body_tide.hpp</text>
</a>
</g>
</g>
<!-- Node1&#45;&gt;Node19 -->
<g id="edge27" class="edge">
<title>Node1&#45;&gt;Node19</title>
<path fill="none" stroke="midnightblue" d="M268.84,-336.26C259.11,-327.99 245.42,-314.69 238,-300 211.28,-247.09 206.04,-175.44 205.12,-141.85"/>
<polygon fill="midnightblue" stroke="midnightblue" points="208.61,-141.59 204.94,-131.65 201.61,-141.7 208.61,-141.59"/>
</g>
<!-- Node5&#45;&gt;Node3 -->
<g id="edge7" class="edge">
<title>Node5&#45;&gt;Node3</title>
<path fill="none" stroke="midnightblue" d="M66.49,-112.44C86.64,-103.6 118.32,-89.69 141.33,-79.59"/>
<polygon fill="midnightblue" stroke="midnightblue" points="142.85,-82.74 150.6,-75.52 140.04,-76.33 142.85,-82.74"/>
</g>
<!-- Node6 -->
<g id="node6" class="node">
<title>Node6</title>
<g id="a_node6"><a xlink:title=" ">
<polygon fill="white" stroke="#bfbfbf" points="214,-0.5 214,-19.5 274,-19.5 274,-0.5 214,-0.5"/>
<text text-anchor="middle" x="244" y="-7.5" font-family="Helvetica,sans-Serif" font-size="10.00">iostream</text>
</a>
</g>
</g>
<!-- Node5&#45;&gt;Node6 -->
<g id="edge5" class="edge">
<title>Node5&#45;&gt;Node6</title>
<path fill="none" stroke="midnightblue" d="M42.15,-112.34C35.25,-98.76 24.85,-72.33 38,-56 58.39,-30.67 149.69,-18.83 203.66,-13.95"/>
<polygon fill="midnightblue" stroke="midnightblue" points="204.26,-17.41 213.92,-13.06 203.66,-10.43 204.26,-17.41"/>
</g>
<!-- Node7 -->
<g id="node7" class="node">
<title>Node7</title>
<g id="a_node7"><a xlink:title=" ">
<polygon fill="white" stroke="#bfbfbf" points="47,-56.5 47,-75.5 103,-75.5 103,-56.5 47,-56.5"/>
<text text-anchor="middle" x="75" y="-63.5" font-family="Helvetica,sans-Serif" font-size="10.00">iomanip</text>
</a>
</g>
</g>
<!-- Node5&#45;&gt;Node7 -->
<g id="edge6" class="edge">
<title>Node5&#45;&gt;Node7</title>
<path fill="none" stroke="midnightblue" d="M51.62,-112.08C55.46,-104.69 61.02,-93.95 65.76,-84.81"/>
<polygon fill="midnightblue" stroke="midnightblue" points="68.97,-86.24 70.46,-75.75 62.75,-83.02 68.97,-86.24"/>
</g>
<!-- Node10 -->
<g id="node10" class="node">
<title>Node10</title>
<g id="a_node10"><a xlink:href="ptcl_8hpp.html" target="_top" xlink:title=" ">
<polygon fill="white" stroke="black" points="339,-168.5 339,-187.5 395,-187.5 395,-168.5 339,-168.5"/>
<text text-anchor="middle" x="367" y="-175.5" font-family="Helvetica,sans-Serif" font-size="10.00">ptcl.hpp</text>
</a>
</g>
</g>
<!-- Node9&#45;&gt;Node10 -->
<g id="edge10" class="edge">
<title>Node9&#45;&gt;Node10</title>
<path fill="none" stroke="midnightblue" d="M367,-224.08C367,-217.01 367,-206.86 367,-197.99"/>
<polygon fill="midnightblue" stroke="midnightblue" points="370.5,-197.75 367,-187.75 363.5,-197.75 370.5,-197.75"/>
</g>
<!-- Node10&#45;&gt;Node5 -->
<g id="edge13" class="edge">
<title>Node10&#45;&gt;Node5</title>
<path fill="none" stroke="midnightblue" d="M338.88,-172.26C286.59,-163.43 173.42,-144.33 104.37,-132.68"/>
<polygon fill="midnightblue" stroke="midnightblue" points="104.55,-129.16 94.1,-130.95 103.38,-136.06 104.55,-129.16"/>
</g>
<!-- Node11 -->
<g id="node11" class="node">
<title>Node11</title>
<g id="a_node11"><a xlink:title=" ">
<polygon fill="white" stroke="#bfbfbf" points="277.5,-112.5 277.5,-131.5 402.5,-131.5 402.5,-112.5 277.5,-112.5"/>
<text text-anchor="middle" x="340" y="-119.5" font-family="Helvetica,sans-Serif" font-size="10.00">particle_simulator.hpp</text>
</a>
</g>
</g>
<!-- Node10&#45;&gt;Node11 -->
<g id="edge11" class="edge">
<title>Node10&#45;&gt;Node11</title>
<path fill="none" stroke="midnightblue" d="M362.54,-168.08C358.85,-160.69 353.48,-149.95 348.91,-140.81"/>
<polygon fill="midnightblue" stroke="midnightblue" points="351.98,-139.13 344.38,-131.75 345.72,-142.26 351.98,-139.13"/>
</g>
<!-- Node12 -->
<g id="node12" class="node">
<title>Node12</title>
<g id="a_node12"><a xlink:href="particle__base_8hpp.html" target="_top" xlink:title=" ">
<polygon fill="white" stroke="black" points="420.5,-112.5 420.5,-131.5 523.5,-131.5 523.5,-112.5 420.5,-112.5"/>
<text text-anchor="middle" x="472" y="-119.5" font-family="Helvetica,sans-Serif" font-size="10.00">particle_base.hpp</text>
</a>
</g>
</g>
<!-- Node10&#45;&gt;Node12 -->
<g id="edge12" class="edge">
<title>Node10&#45;&gt;Node12</title>
<path fill="none" stroke="midnightblue" d="M383.87,-168.32C400.71,-159.66 426.81,-146.24 446.24,-136.25"/>
<polygon fill="midnightblue" stroke="midnightblue" points="447.88,-139.34 455.17,-131.65 444.68,-133.12 447.88,-139.34"/>
</g>
<!-- Node13 -->
<g id="node13" class="node">
<title>Node13</title>
<g id="a_node13"><a xlink:href="artificial__particles_8hpp.html" target="_top" xlink:title=" ">
<polygon fill="white" stroke="black" points="541.5,-112.5 541.5,-131.5 666.5,-131.5 666.5,-112.5 541.5,-112.5"/>
<text text-anchor="middle" x="604" y="-119.5" font-family="Helvetica,sans-Serif" font-size="10.00">artificial_particles.hpp</text>
</a>
</g>
</g>
<!-- Node10&#45;&gt;Node13 -->
<g id="edge14" class="edge">
<title>Node10&#45;&gt;Node13</title>
<path fill="none" stroke="midnightblue" d="M395.12,-170.59C434.95,-161.52 508.34,-144.8 556.66,-133.79"/>
<polygon fill="midnightblue" stroke="midnightblue" points="557.6,-137.16 566.57,-131.53 556.04,-130.34 557.6,-137.16"/>
</g>
<!-- Node13&#45;&gt;Node4 -->
<g id="edge15" class="edge">
<title>Node13&#45;&gt;Node4</title>
<path fill="none" stroke="midnightblue" d="M602.2,-112.37C598.48,-94.62 589.92,-53.67 584.89,-29.6"/>
<polygon fill="midnightblue" stroke="midnightblue" points="588.27,-28.66 582.8,-19.59 581.42,-30.1 588.27,-28.66"/>
</g>
<!-- Node14 -->
<g id="node14" class="node">
<title>Node14</title>
<g id="a_node14"><a xlink:href="tidal__tensor_8hpp.html" target="_top" xlink:title=" ">
<polygon fill="white" stroke="black" points="609.5,-56.5 609.5,-75.5 704.5,-75.5 704.5,-56.5 609.5,-56.5"/>
<text text-anchor="middle" x="657" y="-63.5" font-family="Helvetica,sans-Serif" font-size="10.00">tidal_tensor.hpp</text>
</a>
</g>
</g>
<!-- Node13&#45;&gt;Node14 -->
<g id="edge16" class="edge">
<title>Node13&#45;&gt;Node14</title>
<path fill="none" stroke="midnightblue" d="M612.75,-112.08C620.47,-104.22 631.9,-92.57 641.22,-83.08"/>
<polygon fill="midnightblue" stroke="midnightblue" points="643.9,-85.34 648.41,-75.75 638.91,-80.44 643.9,-85.34"/>
</g>
<!-- Node15 -->
<g id="node15" class="node">
<title>Node15</title>
<g id="a_node15"><a xlink:href="pseudoparticle__multipole_8hpp.html" target="_top" xlink:title=" ">
<polygon fill="white" stroke="black" points="391.5,-56.5 391.5,-75.5 552.5,-75.5 552.5,-56.5 391.5,-56.5"/>
<text text-anchor="middle" x="472" y="-63.5" font-family="Helvetica,sans-Serif" font-size="10.00">pseudoparticle_multipole.hpp</text>
</a>
</g>
</g>
<!-- Node13&#45;&gt;Node15 -->
<g id="edge17" class="edge">
<title>Node13&#45;&gt;Node15</title>
<path fill="none" stroke="midnightblue" d="M583.08,-112.44C561.26,-103.52 526.85,-89.44 502.11,-79.32"/>
<polygon fill="midnightblue" stroke="midnightblue" points="503.4,-76.06 492.82,-75.52 500.75,-82.54 503.4,-76.06"/>
</g>
<!-- Node15&#45;&gt;Node4 -->
<g id="edge18" class="edge">
<title>Node15&#45;&gt;Node4</title>
<path fill="none" stroke="midnightblue" d="M489.51,-56.32C507.07,-47.62 534.33,-34.12 554.53,-24.11"/>
<polygon fill="midnightblue" stroke="midnightblue" points="556.12,-27.23 563.53,-19.65 553.02,-20.96 556.12,-27.23"/>
</g>
<!-- Node15&#45;&gt;Node6 -->
<g id="edge19" class="edge">
<title>Node15&#45;&gt;Node6</title>
<path fill="none" stroke="midnightblue" d="M435.87,-56.44C394.49,-46.64 326.88,-30.63 283.95,-20.46"/>
<polygon fill="midnightblue" stroke="midnightblue" points="284.67,-17.04 274.13,-18.14 283.06,-23.85 284.67,-17.04"/>
</g>
<!-- Node17&#45;&gt;Node4 -->
<g id="edge25" class="edge">
<title>Node17&#45;&gt;Node4</title>
<path fill="none" stroke="midnightblue" d="M638.28,-280.4C671.76,-265.3 733,-230.62 733,-179 733,-179 733,-179 733,-121 733,-90.9 734.83,-77.72 714,-56 697.98,-39.3 675.55,-28.79 653.66,-22.19"/>
<polygon fill="midnightblue" stroke="midnightblue" points="654.58,-18.81 644.01,-19.5 652.7,-25.55 654.58,-18.81"/>
</g>
<!-- Node17&#45;&gt;Node9 -->
<g id="edge24" class="edge">
<title>Node17&#45;&gt;Node9</title>
<path fill="none" stroke="midnightblue" d="M577.39,-280.44C533.77,-271.02 463.6,-255.87 416.42,-245.68"/>
<polygon fill="midnightblue" stroke="midnightblue" points="416.94,-242.21 406.43,-243.52 415.46,-249.05 416.94,-242.21"/>
</g>
<!-- Node17&#45;&gt;Node14 -->
<g id="edge26" class="edge">
<title>Node17&#45;&gt;Node14</title>
<path fill="none" stroke="midnightblue" d="M621.47,-280.46C633.3,-257.35 665.22,-191.3 676,-132 677.59,-123.25 677.76,-120.71 676,-112 674.11,-102.65 670.21,-92.83 666.43,-84.75"/>
<polygon fill="midnightblue" stroke="midnightblue" points="669.47,-83.01 661.88,-75.63 663.21,-86.14 669.47,-83.01"/>
</g>
<!-- Node17&#45;&gt;Node16 -->
<g id="edge23" class="edge">
<title>Node17&#45;&gt;Node16</title>
<path fill="none" stroke="midnightblue" d="M604.47,-280.32C592.41,-271.98 573.97,-259.21 559.73,-249.35"/>
<polygon fill="midnightblue" stroke="midnightblue" points="561.72,-246.47 551.5,-243.65 557.73,-252.22 561.72,-246.47"/>
</g>
<!-- Node18 -->
<g id="node18" class="node">
<title>Node18</title>
<g id="a_node18"><a xlink:title=" ">
<polygon fill="white" stroke="#bfbfbf" points="761,-224.5 761,-243.5 849,-243.5 849,-224.5 761,-224.5"/>
<text text-anchor="middle" x="805" y="-231.5" font-family="Helvetica,sans-Serif" font-size="10.00">Common/list.h</text>
</a>
</g>
</g>
<!-- Node17&#45;&gt;Node18 -->
<g id="edge22" class="edge">
<title>Node17&#45;&gt;Node18</title>
<path fill="none" stroke="midnightblue" d="M646.79,-280.44C678.83,-271.24 729.93,-256.56 765.35,-246.39"/>
<polygon fill="midnightblue" stroke="midnightblue" points="766.71,-249.64 775.35,-243.52 764.77,-242.91 766.71,-249.64"/>
</g>
<!-- Node19&#45;&gt;Node3 -->
<g id="edge28" class="edge">
<title>Node19&#45;&gt;Node3</title>
<path fill="none" stroke="midnightblue" d="M199.22,-112.08C194.33,-104.53 187.17,-93.49 181.17,-84.23"/>
<polygon fill="midnightblue" stroke="midnightblue" points="184.05,-82.24 175.67,-75.75 178.17,-86.05 184.05,-82.24"/>
</g>
<!-- Node19&#45;&gt;Node4 -->
<g id="edge29" class="edge">
<title>Node19&#45;&gt;Node4</title>
<path fill="none" stroke="midnightblue" d="M225.81,-112.42C258.75,-99.07 325.1,-73.08 383,-56 430.85,-41.89 486.3,-29.63 526.32,-21.48"/>
<polygon fill="midnightblue" stroke="midnightblue" points="527.04,-24.91 536.15,-19.5 525.66,-18.05 527.04,-24.91"/>
</g>
</g>
</svg>
