<?xml version="1.0" encoding="UTF-8" standalone="no"?>
<!DOCTYPE svg PUBLIC "-//W3C//DTD SVG 1.1//EN"
 "http://www.w3.org/Graphics/SVG/1.1/DTD/svg11.dtd">
<!-- Generated by graphviz version 2.43.0 (0)
 -->
<!-- Title: ar_perturber.hpp Pages: 1 -->
<!--zoomable 308 -->
<svg id="main" version="1.1" xmlns="http://www.w3.org/2000/svg" xmlns:xlink="http://www.w3.org/1999/xlink" xml:space="preserve" onload="init(evt)">
<style type="text/css"><![CDATA[
.edge:hover path { stroke: red; }
.edge:hover polygon { stroke: red; fill: red; }
]]></style>
<script type="text/javascript"><![CDATA[
var edges = document.getElementsByTagName('g');
if (edges && edges.length) {
  for (var i=0;i<edges.length;i++) {
    if (edges[i].id.substr(0,4)=='edge') {
      edges[i].setAttribute('class','edge');
    }
  }
}
]]></script>
        <defs>
                <circle id="rim" cx="0" cy="0" r="7"/>
                <circle id="rim2" cx="0" cy="0" r="3.5"/>
                <g id="zoomPlus">
                        <use xlink:href="#rim" fill="#404040">
                                <set attributeName="fill" to="#808080" begin="zoomplus.mouseover" end="zoomplus.mouseout"/>
                        </use>
                        <path d="M-4,0h8M0,-4v8" fill="none" stroke="white" stroke-width="1.5" pointer-events="none"/>
                </g>
                <g id="zoomMin">
                        <use xlink:href="#rim" fill="#404040">
                                <set attributeName="fill" to="#808080" begin="zoomminus.mouseover" end="zoomminus.mouseout"/>
                        </use>
                        <path d="M-4,0h8" fill="none" stroke="white" stroke-width="1.5" pointer-events="none"/>
                </g>
                <g id="dirArrow">
                        <path fill="none" stroke="white" stroke-width="1.5" d="M0,-3.0v7 M-2.5,-0.5L0,-3.0L2.5,-0.5"/>
                </g>
               <g id="resetDef">
                       <use xlink:href="#rim2" fill="#404040">
                               <set attributeName="fill" to="#808080" begin="reset.mouseover" end="reset.mouseout"/>
                       </use>
               </g>
        </defs>

<script type="text/javascript">
var viewWidth = 652;
var viewHeight = 308;
var sectionId = 'dynsection-0';
</script>
<script xlink:href="svgpan.js"/>
<svg id="graph" class="graph">
<g id="viewport">
<title>ar_perturber.hpp</title>
<polygon fill="white" stroke="transparent" points="-4,4 -4,-304 647.58,-304 647.58,4 -4,4"/>
<!-- Node1 -->
<g id="node1" class="node">
<title>Node1</title>
<g id="a_node1"><a xlink:title=" ">
<polygon fill="#bfbfbf" stroke="black" points="487.08,-280.5 487.08,-299.5 584.08,-299.5 584.08,-280.5 487.08,-280.5"/>
<text text-anchor="middle" x="535.58" y="-287.5" font-family="Helvetica,sans-Serif" font-size="10.00">ar_perturber.hpp</text>
</a>
</g>
</g>
<!-- Node2 -->
<g id="node2" class="node">
<title>Node2</title>
<g id="a_node2"><a xlink:title=" ">
<polygon fill="white" stroke="#bfbfbf" points="221.58,-224.5 221.58,-243.5 309.58,-243.5 309.58,-224.5 221.58,-224.5"/>
<text text-anchor="middle" x="265.58" y="-231.5" font-family="Helvetica,sans-Serif" font-size="10.00">Common/list.h</text>
</a>
</g>
</g>
<!-- Node1&#45;&gt;Node2 -->
<g id="edge1" class="edge">
<title>Node1&#45;&gt;Node2</title>
<path fill="none" stroke="midnightblue" d="M492.8,-280.44C445.4,-270.96 368.96,-255.67 318,-245.48"/>
<polygon fill="midnightblue" stroke="midnightblue" points="318.66,-242.05 308.17,-243.52 317.29,-248.91 318.66,-242.05"/>
</g>
<!-- Node3 -->
<g id="node3" class="node">
<title>Node3</title>
<g id="a_node3"><a xlink:title=" ">
<polygon fill="white" stroke="#bfbfbf" points="327.08,-224.5 327.08,-243.5 476.08,-243.5 476.08,-224.5 327.08,-224.5"/>
<text text-anchor="middle" x="401.58" y="-231.5" font-family="Helvetica,sans-Serif" font-size="10.00">Hermite/hermite_particle.h</text>
</a>
</g>
</g>
<!-- Node1&#45;&gt;Node3 -->
<g id="edge2" class="edge">
<title>Node1&#45;&gt;Node3</title>
<path fill="none" stroke="midnightblue" d="M514.35,-280.44C492.2,-271.52 457.26,-257.44 432.15,-247.32"/>
<polygon fill="midnightblue" stroke="midnightblue" points="433.3,-244.01 422.72,-243.52 430.68,-250.5 433.3,-244.01"/>
</g>
<!-- Node4 -->
<g id="node4" class="node">
<title>Node4</title>
<g id="a_node4"><a xlink:href="hard__ptcl_8hpp.html" target="_top" xlink:title=" ">
<polygon fill="white" stroke="black" points="494.08,-224.5 494.08,-243.5 577.08,-243.5 577.08,-224.5 494.08,-224.5"/>
<text text-anchor="middle" x="535.58" y="-231.5" font-family="Helvetica,sans-Serif" font-size="10.00">hard_ptcl.hpp</text>
</a>
</g>
</g>
<!-- Node1&#45;&gt;Node4 -->
<g id="edge3" class="edge">
<title>Node1&#45;&gt;Node4</title>
<path fill="none" stroke="midnightblue" d="M535.58,-280.08C535.58,-273.01 535.58,-262.86 535.58,-253.99"/>
<polygon fill="midnightblue" stroke="midnightblue" points="539.08,-253.75 535.58,-243.75 532.08,-253.75 539.08,-253.75"/>
</g>
<!-- Node13 -->
<g id="node13" class="node">
<title>Node13</title>
<g id="a_node13"><a xlink:title=" ">
<polygon fill="white" stroke="#bfbfbf" points="329.58,-0.5 329.58,-19.5 457.58,-19.5 457.58,-0.5 329.58,-0.5"/>
<text text-anchor="middle" x="393.58" y="-7.5" font-family="Helvetica,sans-Serif" font-size="10.00">Common/binary_tree.h</text>
</a>
</g>
</g>
<!-- Node1&#45;&gt;Node13 -->
<g id="edge17" class="edge">
<title>Node1&#45;&gt;Node13</title>
<path fill="none" stroke="midnightblue" d="M554.4,-280.49C585.34,-265.05 643.58,-229.31 643.58,-179 643.58,-179 643.58,-179 643.58,-121 643.58,-43.44 541.54,-20.09 467.84,-13.33"/>
<polygon fill="midnightblue" stroke="midnightblue" points="467.9,-9.83 457.64,-12.49 467.32,-16.8 467.9,-9.83"/>
</g>
<!-- Node14 -->
<g id="node14" class="node">
<title>Node14</title>
<g id="a_node14"><a xlink:href="tidal__tensor_8hpp.html" target="_top" xlink:title=" ">
<polygon fill="white" stroke="black" points="471.08,-56.5 471.08,-75.5 566.08,-75.5 566.08,-56.5 471.08,-56.5"/>
<text text-anchor="middle" x="518.58" y="-63.5" font-family="Helvetica,sans-Serif" font-size="10.00">tidal_tensor.hpp</text>
</a>
</g>
</g>
<!-- Node1&#45;&gt;Node14 -->
<g id="edge18" class="edge">
<title>Node1&#45;&gt;Node14</title>
<path fill="none" stroke="midnightblue" d="M550.54,-280.47C562.52,-272.7 578.46,-260 585.58,-244 609.45,-190.41 613.18,-163.77 585.58,-112 578.03,-97.83 563.82,-87.33 550.43,-80.06"/>
<polygon fill="midnightblue" stroke="midnightblue" points="551.88,-76.87 541.37,-75.53 548.75,-83.13 551.88,-76.87"/>
</g>
<!-- Node5 -->
<g id="node5" class="node">
<title>Node5</title>
<g id="a_node5"><a xlink:href="ptcl_8hpp.html" target="_top" xlink:title=" ">
<polygon fill="white" stroke="black" points="365.58,-168.5 365.58,-187.5 421.58,-187.5 421.58,-168.5 365.58,-168.5"/>
<text text-anchor="middle" x="393.58" y="-175.5" font-family="Helvetica,sans-Serif" font-size="10.00">ptcl.hpp</text>
</a>
</g>
</g>
<!-- Node4&#45;&gt;Node5 -->
<g id="edge4" class="edge">
<title>Node4&#45;&gt;Node5</title>
<path fill="none" stroke="midnightblue" d="M513.08,-224.44C489.51,-215.48 452.26,-201.31 425.62,-191.18"/>
<polygon fill="midnightblue" stroke="midnightblue" points="426.57,-187.8 415.98,-187.52 424.08,-194.34 426.57,-187.8"/>
</g>
<!-- Node6 -->
<g id="node6" class="node">
<title>Node6</title>
<g id="a_node6"><a xlink:title=" ">
<polygon fill="white" stroke="#bfbfbf" points="331.08,-112.5 331.08,-131.5 456.08,-131.5 456.08,-112.5 331.08,-112.5"/>
<text text-anchor="middle" x="393.58" y="-119.5" font-family="Helvetica,sans-Serif" font-size="10.00">particle_simulator.hpp</text>
</a>
</g>
</g>
<!-- Node5&#45;&gt;Node6 -->
<g id="edge5" class="edge">
<title>Node5&#45;&gt;Node6</title>
<path fill="none" stroke="midnightblue" d="M393.58,-168.08C393.58,-161.01 393.58,-150.86 393.58,-141.99"/>
<polygon fill="midnightblue" stroke="midnightblue" points="397.08,-141.75 393.58,-131.75 390.08,-141.75 397.08,-141.75"/>
</g>
<!-- Node7 -->
<g id="node7" class="node">
<title>Node7</title>
<g id="a_node7"><a xlink:href="particle__base_8hpp.html" target="_top" xlink:title=" ">
<polygon fill="white" stroke="black" points="474.08,-112.5 474.08,-131.5 577.08,-131.5 577.08,-112.5 474.08,-112.5"/>
<text text-anchor="middle" x="525.58" y="-119.5" font-family="Helvetica,sans-Serif" font-size="10.00">particle_base.hpp</text>
</a>
</g>
</g>
<!-- Node5&#45;&gt;Node7 -->
<g id="edge6" class="edge">
<title>Node5&#45;&gt;Node7</title>
<path fill="none" stroke="midnightblue" d="M414.5,-168.44C436.32,-159.52 470.73,-145.44 495.48,-135.32"/>
<polygon fill="midnightblue" stroke="midnightblue" points="496.84,-138.54 504.77,-131.52 494.18,-132.06 496.84,-138.54"/>
</g>
<!-- Node8 -->
<g id="node8" class="node">
<title>Node8</title>
<g id="a_node8"><a xlink:href="changeover_8hpp.html" target="_top" xlink:title=" ">
<polygon fill="white" stroke="black" points="41.58,-112.5 41.58,-131.5 135.58,-131.5 135.58,-112.5 41.58,-112.5"/>
<text text-anchor="middle" x="88.58" y="-119.5" font-family="Helvetica,sans-Serif" font-size="10.00">changeover.hpp</text>
</a>
</g>
</g>
<!-- Node5&#45;&gt;Node8 -->
<g id="edge7" class="edge">
<title>Node5&#45;&gt;Node8</title>
<path fill="none" stroke="midnightblue" d="M365.44,-172.02C315.67,-163.21 211.25,-144.72 145.83,-133.13"/>
<polygon fill="midnightblue" stroke="midnightblue" points="146.13,-129.63 135.68,-131.34 144.91,-136.53 146.13,-129.63"/>
</g>
<!-- Node12 -->
<g id="node12" class="node">
<title>Node12</title>
<g id="a_node12"><a xlink:href="artificial__particles_8hpp.html" target="_top" xlink:title=" ">
<polygon fill="white" stroke="black" points="188.08,-112.5 188.08,-131.5 313.08,-131.5 313.08,-112.5 188.08,-112.5"/>
<text text-anchor="middle" x="250.58" y="-119.5" font-family="Helvetica,sans-Serif" font-size="10.00">artificial_particles.hpp</text>
</a>
</g>
</g>
<!-- Node5&#45;&gt;Node12 -->
<g id="edge11" class="edge">
<title>Node5&#45;&gt;Node12</title>
<path fill="none" stroke="midnightblue" d="M370.92,-168.44C347.18,-159.48 309.67,-145.31 282.85,-135.18"/>
<polygon fill="midnightblue" stroke="midnightblue" points="283.73,-131.77 273.14,-131.52 281.25,-138.32 283.73,-131.77"/>
</g>
<!-- Node9 -->
<g id="node9" class="node">
<title>Node9</title>
<g id="a_node9"><a xlink:title=" ">
<polygon fill="white" stroke="#bfbfbf" points="103.58,-0.5 103.58,-19.5 163.58,-19.5 163.58,-0.5 103.58,-0.5"/>
<text text-anchor="middle" x="133.58" y="-7.5" font-family="Helvetica,sans-Serif" font-size="10.00">iostream</text>
</a>
</g>
</g>
<!-- Node8&#45;&gt;Node9 -->
<g id="edge8" class="edge">
<title>Node8&#45;&gt;Node9</title>
<path fill="none" stroke="midnightblue" d="M60.09,-112.48C29.18,-101.72 -13.52,-81.48 4.58,-56 24.55,-27.89 63.43,-17.19 93.31,-13.2"/>
<polygon fill="midnightblue" stroke="midnightblue" points="93.92,-16.65 103.46,-12.05 93.13,-9.7 93.92,-16.65"/>
</g>
<!-- Node10 -->
<g id="node10" class="node">
<title>Node10</title>
<g id="a_node10"><a xlink:title=" ">
<polygon fill="white" stroke="#bfbfbf" points="13.58,-56.5 13.58,-75.5 69.58,-75.5 69.58,-56.5 13.58,-56.5"/>
<text text-anchor="middle" x="41.58" y="-63.5" font-family="Helvetica,sans-Serif" font-size="10.00">iomanip</text>
</a>
</g>
</g>
<!-- Node8&#45;&gt;Node10 -->
<g id="edge9" class="edge">
<title>Node8&#45;&gt;Node10</title>
<path fill="none" stroke="midnightblue" d="M80.82,-112.08C74.05,-104.3 64.04,-92.8 55.83,-83.37"/>
<polygon fill="midnightblue" stroke="midnightblue" points="58.41,-81 49.2,-75.75 53.13,-85.59 58.41,-81"/>
</g>
<!-- Node11 -->
<g id="node11" class="node">
<title>Node11</title>
<g id="a_node11"><a xlink:title=" ">
<polygon fill="white" stroke="#bfbfbf" points="87.58,-56.5 87.58,-75.5 185.58,-75.5 185.58,-56.5 87.58,-56.5"/>
<text text-anchor="middle" x="136.58" y="-63.5" font-family="Helvetica,sans-Serif" font-size="10.00">Common/Float.h</text>
</a>
</g>
</g>
<!-- Node8&#45;&gt;Node11 -->
<g id="edge10" class="edge">
<title>Node8&#45;&gt;Node11</title>
<path fill="none" stroke="midnightblue" d="M96.51,-112.08C103.43,-104.3 113.65,-92.8 122.04,-83.37"/>
<polygon fill="midnightblue" stroke="midnightblue" points="124.78,-85.55 128.8,-75.75 119.55,-80.9 124.78,-85.55"/>
</g>
<!-- Node12&#45;&gt;Node13 -->
<g id="edge12" class="edge">
<title>Node12&#45;&gt;Node13</title>
<path fill="none" stroke="midnightblue" d="M304.73,-112.43C328.7,-106.07 355.5,-95.05 373.58,-76 385.38,-63.57 390.23,-44.33 392.22,-30"/>
<polygon fill="midnightblue" stroke="midnightblue" points="395.73,-30.1 393.28,-19.79 388.76,-29.38 395.73,-30.1"/>
</g>
<!-- Node12&#45;&gt;Node14 -->
<g id="edge13" class="edge">
<title>Node12&#45;&gt;Node14</title>
<path fill="none" stroke="midnightblue" d="M293.05,-112.44C340,-102.98 415.66,-87.74 466.24,-77.55"/>
<polygon fill="midnightblue" stroke="midnightblue" points="467.21,-80.92 476.32,-75.52 465.82,-74.06 467.21,-80.92"/>
</g>
<!-- Node15 -->
<g id="node15" class="node">
<title>Node15</title>
<g id="a_node15"><a xlink:href="pseudoparticle__multipole_8hpp.html" target="_top" xlink:title=" ">
<polygon fill="white" stroke="black" points="204.08,-56.5 204.08,-75.5 365.08,-75.5 365.08,-56.5 204.08,-56.5"/>
<text text-anchor="middle" x="284.58" y="-63.5" font-family="Helvetica,sans-Serif" font-size="10.00">pseudoparticle_multipole.hpp</text>
</a>
</g>
</g>
<!-- Node12&#45;&gt;Node15 -->
<g id="edge14" class="edge">
<title>Node12&#45;&gt;Node15</title>
<path fill="none" stroke="midnightblue" d="M256.2,-112.08C260.95,-104.53 267.9,-93.49 273.74,-84.23"/>
<polygon fill="midnightblue" stroke="midnightblue" points="276.71,-86.08 279.07,-75.75 270.78,-82.35 276.71,-86.08"/>
</g>
<!-- Node15&#45;&gt;Node9 -->
<g id="edge16" class="edge">
<title>Node15&#45;&gt;Node9</title>
<path fill="none" stroke="midnightblue" d="M260.66,-56.44C235.36,-47.4 195.28,-33.06 166.9,-22.92"/>
<polygon fill="midnightblue" stroke="midnightblue" points="167.99,-19.59 157.4,-19.52 165.64,-26.18 167.99,-19.59"/>
</g>
<!-- Node15&#45;&gt;Node13 -->
<g id="edge15" class="edge">
<title>Node15&#45;&gt;Node13</title>
<path fill="none" stroke="midnightblue" d="M302.1,-56.32C319.66,-47.62 346.91,-34.12 367.11,-24.11"/>
<polygon fill="midnightblue" stroke="midnightblue" points="368.71,-27.23 376.11,-19.65 365.6,-20.96 368.71,-27.23"/>
</g>
</g>
</svg>
        <g id="navigator" transform="translate(0 0)" fill="#404254">
                <rect fill="#f2f5e9" fill-opacity="0.5" stroke="#606060" stroke-width=".5" x="0" y="0" width="60" height="60"/>
                <use id="zoomplus" xlink:href="#zoomPlus" x="17" y="9" onmousedown="handleZoom(evt,'in')"/>
                <use id="zoomminus" xlink:href="#zoomMin" x="42" y="9" onmousedown="handleZoom(evt,'out')"/>
                <use id="reset" xlink:href="#resetDef" x="30" y="36" onmousedown="handleReset()"/>
                <g id="arrowUp" xlink:href="#dirArrow" transform="translate(30 24)" onmousedown="handlePan(0,-1)">
                  <use xlink:href="#rim" fill="#404040">
                        <set attributeName="fill" to="#808080" begin="arrowUp.mouseover" end="arrowUp.mouseout"/>
                  </use>
                  <path fill="none" stroke="white" stroke-width="1.5" d="M0,-3.0v7 M-2.5,-0.5L0,-3.0L2.5,-0.5"/>
                </g>
                <g id="arrowRight" xlink:href="#dirArrow" transform="rotate(90) translate(36 -43)" onmousedown="handlePan(1,0)">
                  <use xlink:href="#rim" fill="#404040">
                        <set attributeName="fill" to="#808080" begin="arrowRight.mouseover" end="arrowRight.mouseout"/>
                  </use>
                  <path fill="none" stroke="white" stroke-width="1.5" d="M0,-3.0v7 M-2.5,-0.5L0,-3.0L2.5,-0.5"/>
                </g>
                <g id="arrowDown" xlink:href="#dirArrow" transform="rotate(180) translate(-30 -48)" onmousedown="handlePan(0,1)">
                  <use xlink:href="#rim" fill="#404040">
                        <set attributeName="fill" to="#808080" begin="arrowDown.mouseover" end="arrowDown.mouseout"/>
                  </use>
                  <path fill="none" stroke="white" stroke-width="1.5" d="M0,-3.0v7 M-2.5,-0.5L0,-3.0L2.5,-0.5"/>
                </g>
                <g id="arrowLeft" xlink:href="#dirArrow" transform="rotate(270) translate(-36 17)" onmousedown="handlePan(-1,0)">
                  <use xlink:href="#rim" fill="#404040">
                        <set attributeName="fill" to="#808080" begin="arrowLeft.mouseover" end="arrowLeft.mouseout"/>
                  </use>
                  <path fill="none" stroke="white" stroke-width="1.5" d="M0,-3.0v7 M-2.5,-0.5L0,-3.0L2.5,-0.5"/>
                </g>
        </g>
        <svg viewBox="0 0 15 15" width="100%" height="30px" preserveAspectRatio="xMaxYMin meet">
         <g id="arrow_out" transform="scale(0.3 0.3)">
          <a xlink:href="ar__perturber_8hpp__incl_org.svg" target="_base">
           <rect id="button" ry="5" rx="5" y="6" x="6" height="38" width="38"
                fill="#f2f5e9" fill-opacity="0.5" stroke="#606060" stroke-width="1.0"/>
           <path id="arrow"
             d="M 11.500037,31.436501 C 11.940474,20.09759 22.043105,11.32322 32.158766,21.979434 L 37.068811,17.246167 C 37.068811,17.246167 37.088388,32 37.088388,32 L 22.160133,31.978069 C 22.160133,31.978069 26.997745,27.140456 26.997745,27.140456 C 18.528582,18.264221 13.291696,25.230495 11.500037,31.436501 z"
             style="fill:#404040;"/>
          </a>
         </g>
        </svg>
</svg>
