<?xml version="1.0" encoding="UTF-8" standalone="no"?>
<!DOCTYPE svg PUBLIC "-//W3C//DTD SVG 1.1//EN"
 "http://www.w3.org/Graphics/SVG/1.1/DTD/svg11.dtd">
<!-- Generated by graphviz version 2.43.0 (0)
 -->
<!-- Title: artificial_particles.hpp Pages: 1 -->
<!--zoomable 420 -->
<svg id="main" version="1.1" xmlns="http://www.w3.org/2000/svg" xmlns:xlink="http://www.w3.org/1999/xlink" xml:space="preserve" onload="init(evt)">
<style type="text/css"><![CDATA[
.edge:hover path { stroke: red; }
.edge:hover polygon { stroke: red; fill: red; }
]]></style>
<script type="text/javascript"><![CDATA[
var edges = document.getElementsByTagName('g');
if (edges && edges.length) {
  for (var i=0;i<edges.length;i++) {
    if (edges[i].id.substr(0,4)=='edge') {
      edges[i].setAttribute('class','edge');
    }
  }
}
]]></script>
        <defs>
                <circle id="rim" cx="0" cy="0" r="7"/>
                <circle id="rim2" cx="0" cy="0" r="3.5"/>
                <g id="zoomPlus">
                        <use xlink:href="#rim" fill="#404040">
                                <set attributeName="fill" to="#808080" begin="zoomplus.mouseover" end="zoomplus.mouseout"/>
                        </use>
                        <path d="M-4,0h8M0,-4v8" fill="none" stroke="white" stroke-width="1.5" pointer-events="none"/>
                </g>
                <g id="zoomMin">
                        <use xlink:href="#rim" fill="#404040">
                                <set attributeName="fill" to="#808080" begin="zoomminus.mouseover" end="zoomminus.mouseout"/>
                        </use>
                        <path d="M-4,0h8" fill="none" stroke="white" stroke-width="1.5" pointer-events="none"/>
                </g>
                <g id="dirArrow">
                        <path fill="none" stroke="white" stroke-width="1.5" d="M0,-3.0v7 M-2.5,-0.5L0,-3.0L2.5,-0.5"/>
                </g>
               <g id="resetDef">
                       <use xlink:href="#rim2" fill="#404040">
                               <set attributeName="fill" to="#808080" begin="reset.mouseover" end="reset.mouseout"/>
                       </use>
               </g>
        </defs>

<script type="text/javascript">
var viewWidth = 936;
var viewHeight = 420;
var sectionId = 'dynsection-1';
</script>
<script xlink:href="svgpan.js"/>
<svg id="graph" class="graph">
<g id="viewport">
<title>artificial_particles.hpp</title>
<polygon fill="white" stroke="transparent" points="-4,4 -4,-416 932.47,-416 932.47,4 -4,4"/>
<!-- Node1 -->
<g id="node1" class="node">
<title>Node1</title>
<g id="a_node1"><a xlink:title=" ">
<polygon fill="#bfbfbf" stroke="black" points="710.97,-392.5 710.97,-411.5 835.97,-411.5 835.97,-392.5 710.97,-392.5"/>
<text text-anchor="middle" x="773.47" y="-399.5" font-family="Helvetica,sans-Serif" font-size="10.00">artificial_particles.hpp</text>
</a>
</g>
</g>
<!-- Node2 -->
<g id="node2" class="node">
<title>Node2</title>
<g id="a_node2"><a xlink:href="ptcl_8hpp.html" target="_top" xlink:title=" ">
<polygon fill="white" stroke="black" points="645.47,-336.5 645.47,-355.5 701.47,-355.5 701.47,-336.5 645.47,-336.5"/>
<text text-anchor="middle" x="673.47" y="-343.5" font-family="Helvetica,sans-Serif" font-size="10.00">ptcl.hpp</text>
</a>
</g>
</g>
<!-- Node1&#45;&gt;Node2 -->
<g id="edge1" class="edge">
<title>Node1&#45;&gt;Node2</title>
<path fill="none" stroke="midnightblue" d="M748.38,-387.45C729.92,-377.48 705.37,-364.23 689.5,-355.65"/>
<polygon fill="midnightblue" stroke="midnightblue" points="746.94,-390.65 757.4,-392.32 750.27,-384.49 746.94,-390.65"/>
</g>
<!-- Node5 -->
<g id="node5" class="node">
<title>Node5</title>
<g id="a_node5"><a xlink:href="hard_8hpp.html" target="_top" xlink:title=" ">
<polygon fill="white" stroke="black" points="817.97,-112.5 817.97,-131.5 876.97,-131.5 876.97,-112.5 817.97,-112.5"/>
<text text-anchor="middle" x="847.47" y="-119.5" font-family="Helvetica,sans-Serif" font-size="10.00">hard.hpp</text>
</a>
</g>
</g>
<!-- Node1&#45;&gt;Node5 -->
<g id="edge31" class="edge">
<title>Node1&#45;&gt;Node5</title>
<path fill="none" stroke="midnightblue" d="M819.55,-389.43C865.24,-374.86 928.47,-344.95 928.47,-291 928.47,-291 928.47,-291 928.47,-233 928.47,-202.9 926.8,-192.61 909.47,-168 898.06,-151.8 878.93,-139.21 864.93,-131.52"/>
<polygon fill="midnightblue" stroke="midnightblue" points="818.36,-386.13 809.81,-392.39 820.4,-392.83 818.36,-386.13"/>
</g>
<!-- Node3 -->
<g id="node3" class="node">
<title>Node3</title>
<g id="a_node3"><a xlink:href="hard__ptcl_8hpp.html" target="_top" xlink:title=" ">
<polygon fill="white" stroke="black" points="669.97,-280.5 669.97,-299.5 752.97,-299.5 752.97,-280.5 669.97,-280.5"/>
<text text-anchor="middle" x="711.47" y="-287.5" font-family="Helvetica,sans-Serif" font-size="10.00">hard_ptcl.hpp</text>
</a>
</g>
</g>
<!-- Node2&#45;&gt;Node3 -->
<g id="edge2" class="edge">
<title>Node2&#45;&gt;Node3</title>
<path fill="none" stroke="midnightblue" d="M685.53,-327.86C692.11,-318.5 699.98,-307.33 705.31,-299.75"/>
<polygon fill="midnightblue" stroke="midnightblue" points="682.64,-325.89 679.74,-336.08 688.36,-329.92 682.64,-325.89"/>
</g>
<!-- Node12 -->
<g id="node12" class="node">
<title>Node12</title>
<g id="a_node12"><a xlink:href="cluster__list_8hpp.html" target="_top" xlink:title=" ">
<polygon fill="white" stroke="black" points="13.97,-112.5 13.97,-131.5 104.97,-131.5 104.97,-112.5 13.97,-112.5"/>
<text text-anchor="middle" x="59.47" y="-119.5" font-family="Helvetica,sans-Serif" font-size="10.00">cluster_list.hpp</text>
</a>
</g>
</g>
<!-- Node2&#45;&gt;Node12 -->
<g id="edge17" class="edge">
<title>Node2&#45;&gt;Node12</title>
<path fill="none" stroke="midnightblue" d="M640.16,-332.96C529.8,-293.05 177.75,-165.77 83.09,-131.54"/>
<polygon fill="midnightblue" stroke="midnightblue" points="639.18,-336.32 649.78,-336.43 641.56,-329.74 639.18,-336.32"/>
</g>
<!-- Node13 -->
<g id="node13" class="node">
<title>Node13</title>
<g id="a_node13"><a xlink:href="soft__ptcl_8hpp.html" target="_top" xlink:title=" ">
<polygon fill="white" stroke="black" points="526.97,-168.5 526.97,-187.5 605.97,-187.5 605.97,-168.5 526.97,-168.5"/>
<text text-anchor="middle" x="566.47" y="-175.5" font-family="Helvetica,sans-Serif" font-size="10.00">soft_ptcl.hpp</text>
</a>
</g>
</g>
<!-- Node2&#45;&gt;Node13 -->
<g id="edge21" class="edge">
<title>Node2&#45;&gt;Node13</title>
<path fill="none" stroke="midnightblue" d="M662.07,-327.31C639.26,-291.92 588.75,-213.56 571.99,-187.57"/>
<polygon fill="midnightblue" stroke="midnightblue" points="659.36,-329.57 667.72,-336.08 665.24,-325.77 659.36,-329.57"/>
</g>
<!-- Node4 -->
<g id="node4" class="node">
<title>Node4</title>
<g id="a_node4"><a xlink:href="ar__interaction_8hpp.html" target="_top" xlink:title=" ">
<polygon fill="white" stroke="black" points="794.97,-168.5 794.97,-187.5 899.97,-187.5 899.97,-168.5 794.97,-168.5"/>
<text text-anchor="middle" x="847.47" y="-175.5" font-family="Helvetica,sans-Serif" font-size="10.00">ar_interaction.hpp</text>
</a>
</g>
</g>
<!-- Node3&#45;&gt;Node4 -->
<g id="edge3" class="edge">
<title>Node3&#45;&gt;Node4</title>
<path fill="none" stroke="midnightblue" d="M763.19,-285.92C792.65,-281.21 827.4,-270.03 846.47,-244 858.74,-227.25 853.89,-201 850.19,-187.56"/>
<polygon fill="midnightblue" stroke="midnightblue" points="762.44,-282.49 753.02,-287.33 763.41,-289.43 762.44,-282.49"/>
</g>
<!-- Node3&#45;&gt;Node5 -->
<g id="edge12" class="edge">
<title>Node3&#45;&gt;Node5</title>
<path fill="none" stroke="midnightblue" d="M715.21,-270.2C718.35,-256.8 723.61,-238.63 731.47,-224 746.72,-195.63 753.41,-189.41 777.47,-168 794.2,-153.11 816.33,-139.76 831.19,-131.53"/>
<polygon fill="midnightblue" stroke="midnightblue" points="711.75,-269.65 713.05,-280.16 718.59,-271.13 711.75,-269.65"/>
</g>
<!-- Node10 -->
<g id="node10" class="node">
<title>Node10</title>
<g id="a_node10"><a xlink:href="ar__perturber_8hpp.html" target="_top" xlink:title=" ">
<polygon fill="white" stroke="black" points="739.97,-224.5 739.97,-243.5 836.97,-243.5 836.97,-224.5 739.97,-224.5"/>
<text text-anchor="middle" x="788.47" y="-231.5" font-family="Helvetica,sans-Serif" font-size="10.00">ar_perturber.hpp</text>
</a>
</g>
</g>
<!-- Node3&#45;&gt;Node10 -->
<g id="edge9" class="edge">
<title>Node3&#45;&gt;Node10</title>
<path fill="none" stroke="midnightblue" d="M732.37,-274.34C746.38,-264.52 764.35,-251.91 776.13,-243.65"/>
<polygon fill="midnightblue" stroke="midnightblue" points="730.02,-271.72 723.84,-280.32 734.04,-277.45 730.02,-271.72"/>
</g>
<!-- Node11 -->
<g id="node11" class="node">
<title>Node11</title>
<g id="a_node11"><a xlink:href="hard__assert_8hpp.html" target="_top" xlink:title=" ">
<polygon fill="white" stroke="black" points="665.97,-112.5 665.97,-131.5 760.97,-131.5 760.97,-112.5 665.97,-112.5"/>
<text text-anchor="middle" x="713.47" y="-119.5" font-family="Helvetica,sans-Serif" font-size="10.00">hard_assert.hpp</text>
</a>
</g>
</g>
<!-- Node3&#45;&gt;Node11 -->
<g id="edge13" class="edge">
<title>Node3&#45;&gt;Node11</title>
<path fill="none" stroke="midnightblue" d="M704.42,-270.74C701.66,-262.67 698.84,-253 697.47,-244 692.4,-210.61 691.73,-201.29 697.47,-168 699.72,-154.93 705.41,-140.62 709.36,-131.72"/>
<polygon fill="midnightblue" stroke="midnightblue" points="701.16,-272.02 707.87,-280.22 707.74,-269.63 701.16,-272.02"/>
</g>
<!-- Node4&#45;&gt;Node5 -->
<g id="edge4" class="edge">
<title>Node4&#45;&gt;Node5</title>
<path fill="none" stroke="midnightblue" d="M847.47,-157.8C847.47,-148.91 847.47,-138.78 847.47,-131.75"/>
<polygon fill="midnightblue" stroke="midnightblue" points="843.97,-158.08 847.47,-168.08 850.97,-158.08 843.97,-158.08"/>
</g>
<!-- Node6 -->
<g id="node6" class="node">
<title>Node6</title>
<g id="a_node6"><a xlink:href="hard__debug_8cxx.html" target="_top" xlink:title=" ">
<polygon fill="white" stroke="black" points="728.47,-56.5 728.47,-75.5 822.47,-75.5 822.47,-56.5 728.47,-56.5"/>
<text text-anchor="middle" x="775.47" y="-63.5" font-family="Helvetica,sans-Serif" font-size="10.00">hard_debug.cxx</text>
</a>
</g>
</g>
<!-- Node5&#45;&gt;Node6 -->
<g id="edge5" class="edge">
<title>Node5&#45;&gt;Node6</title>
<path fill="none" stroke="midnightblue" d="M827.6,-106.1C814.65,-96.38 798.17,-84.03 787.25,-75.83"/>
<polygon fill="midnightblue" stroke="midnightblue" points="825.8,-109.12 835.9,-112.32 830,-103.52 825.8,-109.12"/>
</g>
<!-- Node7 -->
<g id="node7" class="node">
<title>Node7</title>
<g id="a_node7"><a xlink:href="hard__test_8cxx.html" target="_top" xlink:title=" ">
<polygon fill="white" stroke="black" points="275.97,-56.5 275.97,-75.5 358.97,-75.5 358.97,-56.5 275.97,-56.5"/>
<text text-anchor="middle" x="317.47" y="-63.5" font-family="Helvetica,sans-Serif" font-size="10.00">hard_test.cxx</text>
</a>
</g>
</g>
<!-- Node5&#45;&gt;Node7 -->
<g id="edge6" class="edge">
<title>Node5&#45;&gt;Node7</title>
<path fill="none" stroke="midnightblue" d="M807.72,-116.22C795.75,-114.82 782.58,-113.31 770.47,-112 619.02,-95.63 438.82,-78.4 359.03,-70.89"/>
<polygon fill="midnightblue" stroke="midnightblue" points="807.52,-119.72 817.87,-117.42 808.35,-112.77 807.52,-119.72"/>
</g>
<!-- Node8 -->
<g id="node8" class="node">
<title>Node8</title>
<g id="a_node8"><a xlink:href="petar_8hpp.html" target="_top" xlink:title=" ">
<polygon fill="white" stroke="black" points="620.47,-56.5 620.47,-75.5 682.47,-75.5 682.47,-56.5 620.47,-56.5"/>
<text text-anchor="middle" x="651.47" y="-63.5" font-family="Helvetica,sans-Serif" font-size="10.00">petar.hpp</text>
</a>
</g>
</g>
<!-- Node5&#45;&gt;Node8 -->
<g id="edge7" class="edge">
<title>Node5&#45;&gt;Node8</title>
<path fill="none" stroke="midnightblue" d="M807.76,-110.06C770.78,-99.87 716.39,-84.88 682.49,-75.55"/>
<polygon fill="midnightblue" stroke="midnightblue" points="807.13,-113.52 817.7,-112.8 808.99,-106.77 807.13,-113.52"/>
</g>
<!-- Node9 -->
<g id="node9" class="node">
<title>Node9</title>
<g id="a_node9"><a xlink:href="main_8cc.html" target="_top" xlink:title=" ">
<polygon fill="white" stroke="black" points="623.97,-0.5 623.97,-19.5 678.97,-19.5 678.97,-0.5 623.97,-0.5"/>
<text text-anchor="middle" x="651.47" y="-7.5" font-family="Helvetica,sans-Serif" font-size="10.00">main.cc</text>
</a>
</g>
</g>
<!-- Node8&#45;&gt;Node9 -->
<g id="edge8" class="edge">
<title>Node8&#45;&gt;Node9</title>
<path fill="none" stroke="midnightblue" d="M651.47,-45.8C651.47,-36.91 651.47,-26.78 651.47,-19.75"/>
<polygon fill="midnightblue" stroke="midnightblue" points="647.97,-46.08 651.47,-56.08 654.97,-46.08 647.97,-46.08"/>
</g>
<!-- Node10&#45;&gt;Node4 -->
<g id="edge10" class="edge">
<title>Node10&#45;&gt;Node4</title>
<path fill="none" stroke="midnightblue" d="M805.36,-217.54C815.88,-207.91 829.04,-195.87 837.82,-187.83"/>
<polygon fill="midnightblue" stroke="midnightblue" points="802.96,-214.99 797.95,-224.32 807.69,-220.15 802.96,-214.99"/>
</g>
<!-- Node10&#45;&gt;Node5 -->
<g id="edge11" class="edge">
<title>Node10&#45;&gt;Node5</title>
<path fill="none" stroke="midnightblue" d="M783.34,-214.38C780.65,-200.79 779.23,-182.33 786.47,-168 795.01,-151.08 813.24,-138.96 827.56,-131.59"/>
<polygon fill="midnightblue" stroke="midnightblue" points="780.02,-215.53 785.74,-224.44 786.83,-213.91 780.02,-215.53"/>
</g>
<!-- Node11&#45;&gt;Node6 -->
<g id="edge14" class="edge">
<title>Node11&#45;&gt;Node6</title>
<path fill="none" stroke="midnightblue" d="M731.22,-105.54C742.28,-95.91 756.1,-83.87 765.33,-75.83"/>
<polygon fill="midnightblue" stroke="midnightblue" points="728.67,-103.12 723.43,-112.32 733.27,-108.4 728.67,-103.12"/>
</g>
<!-- Node11&#45;&gt;Node7 -->
<g id="edge15" class="edge">
<title>Node11&#45;&gt;Node7</title>
<path fill="none" stroke="midnightblue" d="M655.7,-113.12C574.91,-102.11 430.13,-82.36 359.09,-72.68"/>
<polygon fill="midnightblue" stroke="midnightblue" points="655.32,-116.6 665.7,-114.49 656.27,-109.67 655.32,-116.6"/>
</g>
<!-- Node11&#45;&gt;Node8 -->
<g id="edge16" class="edge">
<title>Node11&#45;&gt;Node8</title>
<path fill="none" stroke="midnightblue" d="M695.72,-105.54C684.66,-95.91 670.84,-83.87 661.61,-75.83"/>
<polygon fill="midnightblue" stroke="midnightblue" points="693.67,-108.4 703.51,-112.32 698.27,-103.12 693.67,-108.4"/>
</g>
<!-- Node12&#45;&gt;Node6 -->
<g id="edge18" class="edge">
<title>Node12&#45;&gt;Node6</title>
<path fill="none" stroke="midnightblue" d="M115.03,-112.06C371.49,-83.58 438.69,-97.42 691.47,-76 703.45,-74.98 716.38,-73.7 728.41,-72.41"/>
<polygon fill="midnightblue" stroke="midnightblue" points="114.59,-108.59 105.04,-113.18 115.37,-115.55 114.59,-108.59"/>
</g>
<!-- Node12&#45;&gt;Node7 -->
<g id="edge19" class="edge">
<title>Node12&#45;&gt;Node7</title>
<path fill="none" stroke="midnightblue" d="M110.37,-110.35C159.13,-100.14 231.76,-84.94 276.78,-75.52"/>
<polygon fill="midnightblue" stroke="midnightblue" points="109.42,-106.97 100.35,-112.44 110.86,-113.82 109.42,-106.97"/>
</g>
<!-- Node12&#45;&gt;Node8 -->
<g id="edge20" class="edge">
<title>Node12&#45;&gt;Node8</title>
<path fill="none" stroke="midnightblue" d="M115.08,-112.03C313.62,-87.86 538.84,-73.52 620.21,-68.76"/>
<polygon fill="midnightblue" stroke="midnightblue" points="114.55,-108.57 105.05,-113.26 115.4,-115.51 114.55,-108.57"/>
</g>
<!-- Node13&#45;&gt;Node5 -->
<g id="edge24" class="edge">
<title>Node13&#45;&gt;Node5</title>
<path fill="none" stroke="midnightblue" d="M616.46,-167.72C664.45,-158.76 738.97,-144.72 803.47,-132 808.06,-131.09 812.92,-130.12 817.66,-129.16"/>
<polygon fill="midnightblue" stroke="midnightblue" points="615.53,-164.33 606.34,-169.61 616.81,-171.21 615.53,-164.33"/>
</g>
<!-- Node13&#45;&gt;Node6 -->
<g id="edge26" class="edge">
<title>Node13&#45;&gt;Node6</title>
<path fill="none" stroke="midnightblue" d="M616.33,-172.73C670.09,-167.01 750.64,-154.83 770.47,-132 784.13,-116.28 780.73,-89.58 777.75,-75.8"/>
<polygon fill="midnightblue" stroke="midnightblue" points="615.89,-169.26 606.3,-173.76 616.6,-176.22 615.89,-169.26"/>
</g>
<!-- Node13&#45;&gt;Node7 -->
<g id="edge27" class="edge">
<title>Node13&#45;&gt;Node7</title>
<path fill="none" stroke="midnightblue" d="M516.63,-176.78C385.54,-175.68 38.85,-169.24 4.47,-132 -1.56,-125.47 -1.35,-118.72 4.47,-112 39.12,-72.01 199.03,-66.73 275.94,-66.56"/>
<polygon fill="midnightblue" stroke="midnightblue" points="516.76,-180.28 526.79,-176.86 516.82,-173.28 516.76,-180.28"/>
</g>
<!-- Node13&#45;&gt;Node8 -->
<g id="edge28" class="edge">
<title>Node13&#45;&gt;Node8</title>
<path fill="none" stroke="midnightblue" d="M586.49,-162.21C596.61,-154.07 608.59,-143.33 617.47,-132 631.77,-113.76 642.92,-88.6 648.17,-75.58"/>
<polygon fill="midnightblue" stroke="midnightblue" points="584.28,-159.5 578.53,-168.4 588.58,-165.02 584.28,-159.5"/>
</g>
<!-- Node13&#45;&gt;Node11 -->
<g id="edge25" class="edge">
<title>Node13&#45;&gt;Node11</title>
<path fill="none" stroke="midnightblue" d="M599.39,-164.91C627.03,-154.75 665.81,-140.51 690.29,-131.52"/>
<polygon fill="midnightblue" stroke="midnightblue" points="597.94,-161.71 589.76,-168.44 600.36,-168.28 597.94,-161.71"/>
</g>
<!-- Node14 -->
<g id="node14" class="node">
<title>Node14</title>
<g id="a_node14"><a xlink:href="force__gpu__cuda_8hpp.html" target="_top" xlink:title=" ">
<polygon fill="white" stroke="black" points="123.47,-112.5 123.47,-131.5 237.47,-131.5 237.47,-112.5 123.47,-112.5"/>
<text text-anchor="middle" x="180.47" y="-119.5" font-family="Helvetica,sans-Serif" font-size="10.00">force_gpu_cuda.hpp</text>
</a>
</g>
</g>
<!-- Node13&#45;&gt;Node14 -->
<g id="edge22" class="edge">
<title>Node13&#45;&gt;Node14</title>
<path fill="none" stroke="midnightblue" d="M516.48,-170.01C444.75,-159.97 312.98,-141.54 237.53,-130.98"/>
<polygon fill="midnightblue" stroke="midnightblue" points="516.23,-173.51 526.61,-171.42 517.2,-166.57 516.23,-173.51"/>
</g>
<!-- Node15 -->
<g id="node15" class="node">
<title>Node15</title>
<g id="a_node15"><a xlink:href="format__transfer_8cxx.html" target="_top" xlink:title=" ">
<polygon fill="white" stroke="black" points="255.97,-112.5 255.97,-131.5 368.97,-131.5 368.97,-112.5 255.97,-112.5"/>
<text text-anchor="middle" x="312.47" y="-119.5" font-family="Helvetica,sans-Serif" font-size="10.00">format_transfer.cxx</text>
</a>
</g>
</g>
<!-- Node13&#45;&gt;Node15 -->
<g id="edge23" class="edge">
<title>Node13&#45;&gt;Node15</title>
<path fill="none" stroke="midnightblue" d="M516.93,-166.47C469,-156.28 397.24,-141.02 352.72,-131.56"/>
<polygon fill="midnightblue" stroke="midnightblue" points="516.27,-169.91 526.78,-168.56 517.73,-163.06 516.27,-169.91"/>
</g>
<!-- Node16 -->
<g id="node16" class="node">
<title>Node16</title>
<g id="a_node16"><a xlink:href="simd__test_8cxx.html" target="_top" xlink:title=" ">
<polygon fill="white" stroke="black" points="386.97,-112.5 386.97,-131.5 471.97,-131.5 471.97,-112.5 386.97,-112.5"/>
<text text-anchor="middle" x="429.47" y="-119.5" font-family="Helvetica,sans-Serif" font-size="10.00">simd_test.cxx</text>
</a>
</g>
</g>
<!-- Node13&#45;&gt;Node16 -->
<g id="edge29" class="edge">
<title>Node13&#45;&gt;Node16</title>
<path fill="none" stroke="midnightblue" d="M535.45,-164.77C509.71,-154.63 473.78,-140.47 451.08,-131.52"/>
<polygon fill="midnightblue" stroke="midnightblue" points="534.17,-168.03 544.76,-168.44 536.74,-161.52 534.17,-168.03"/>
</g>
<!-- Node17 -->
<g id="node17" class="node">
<title>Node17</title>
<g id="a_node17"><a xlink:href="tidal__tensor__test_8cxx.html" target="_top" xlink:title=" ">
<polygon fill="white" stroke="black" points="489.97,-112.5 489.97,-131.5 608.97,-131.5 608.97,-112.5 489.97,-112.5"/>
<text text-anchor="middle" x="549.47" y="-119.5" font-family="Helvetica,sans-Serif" font-size="10.00">tidal_tensor_test.cxx</text>
</a>
</g>
</g>
<!-- Node13&#45;&gt;Node17 -->
<g id="edge30" class="edge">
<title>Node13&#45;&gt;Node17</title>
<path fill="none" stroke="midnightblue" d="M560.61,-158.4C557.77,-149.36 554.49,-138.94 552.22,-131.75"/>
<polygon fill="midnightblue" stroke="midnightblue" points="557.32,-159.6 563.66,-168.08 564,-157.49 557.32,-159.6"/>
</g>
</g>
</svg>
        <g id="navigator" transform="translate(0 0)" fill="#404254">
                <rect fill="#f2f5e9" fill-opacity="0.5" stroke="#606060" stroke-width=".5" x="0" y="0" width="60" height="60"/>
                <use id="zoomplus" xlink:href="#zoomPlus" x="17" y="9" onmousedown="handleZoom(evt,'in')"/>
                <use id="zoomminus" xlink:href="#zoomMin" x="42" y="9" onmousedown="handleZoom(evt,'out')"/>
                <use id="reset" xlink:href="#resetDef" x="30" y="36" onmousedown="handleReset()"/>
                <g id="arrowUp" xlink:href="#dirArrow" transform="translate(30 24)" onmousedown="handlePan(0,-1)">
                  <use xlink:href="#rim" fill="#404040">
                        <set attributeName="fill" to="#808080" begin="arrowUp.mouseover" end="arrowUp.mouseout"/>
                  </use>
                  <path fill="none" stroke="white" stroke-width="1.5" d="M0,-3.0v7 M-2.5,-0.5L0,-3.0L2.5,-0.5"/>
                </g>
                <g id="arrowRight" xlink:href="#dirArrow" transform="rotate(90) translate(36 -43)" onmousedown="handlePan(1,0)">
                  <use xlink:href="#rim" fill="#404040">
                        <set attributeName="fill" to="#808080" begin="arrowRight.mouseover" end="arrowRight.mouseout"/>
                  </use>
                  <path fill="none" stroke="white" stroke-width="1.5" d="M0,-3.0v7 M-2.5,-0.5L0,-3.0L2.5,-0.5"/>
                </g>
                <g id="arrowDown" xlink:href="#dirArrow" transform="rotate(180) translate(-30 -48)" onmousedown="handlePan(0,1)">
                  <use xlink:href="#rim" fill="#404040">
                        <set attributeName="fill" to="#808080" begin="arrowDown.mouseover" end="arrowDown.mouseout"/>
                  </use>
                  <path fill="none" stroke="white" stroke-width="1.5" d="M0,-3.0v7 M-2.5,-0.5L0,-3.0L2.5,-0.5"/>
                </g>
                <g id="arrowLeft" xlink:href="#dirArrow" transform="rotate(270) translate(-36 17)" onmousedown="handlePan(-1,0)">
                  <use xlink:href="#rim" fill="#404040">
                        <set attributeName="fill" to="#808080" begin="arrowLeft.mouseover" end="arrowLeft.mouseout"/>
                  </use>
                  <path fill="none" stroke="white" stroke-width="1.5" d="M0,-3.0v7 M-2.5,-0.5L0,-3.0L2.5,-0.5"/>
                </g>
        </g>
        <svg viewBox="0 0 15 15" width="100%" height="30px" preserveAspectRatio="xMaxYMin meet">
         <g id="arrow_out" transform="scale(0.3 0.3)">
          <a xlink:href="artificial__particles_8hpp__dep__incl_org.svg" target="_base">
           <rect id="button" ry="5" rx="5" y="6" x="6" height="38" width="38"
                fill="#f2f5e9" fill-opacity="0.5" stroke="#606060" stroke-width="1.0"/>
           <path id="arrow"
             d="M 11.500037,31.436501 C 11.940474,20.09759 22.043105,11.32322 32.158766,21.979434 L 37.068811,17.246167 C 37.068811,17.246167 37.088388,32 37.088388,32 L 22.160133,31.978069 C 22.160133,31.978069 26.997745,27.140456 26.997745,27.140456 C 18.528582,18.264221 13.291696,25.230495 11.500037,31.436501 z"
             style="fill:#404040;"/>
          </a>
         </g>
        </svg>
</svg>
