<?xml version="1.0" encoding="UTF-8" standalone="no"?>
<!DOCTYPE svg PUBLIC "-//W3C//DTD SVG 1.1//EN"
 "http://www.w3.org/Graphics/SVG/1.1/DTD/svg11.dtd">
<!-- Generated by graphviz version 2.43.0 (0)
 -->
<!-- Title: artificial_particles.hpp Pages: 1 -->
<svg width="320pt" height="140pt"
 viewBox="0.00 0.00 319.50 140.00" xmlns="http://www.w3.org/2000/svg" xmlns:xlink="http://www.w3.org/1999/xlink">
<g id="graph0" class="graph" transform="scale(1 1) rotate(0) translate(4 136)">
<title>artificial_particles.hpp</title>
<polygon fill="white" stroke="transparent" points="-4,4 -4,-136 315.5,-136 315.5,4 -4,4"/>
<!-- Node1 -->
<g id="node1" class="node">
<title>Node1</title>
<g id="a_node1"><a xlink:title=" ">
<polygon fill="#bfbfbf" stroke="black" points="22.5,-112.5 22.5,-131.5 147.5,-131.5 147.5,-112.5 22.5,-112.5"/>
<text text-anchor="middle" x="85" y="-119.5" font-family="Helvetica,sans-Serif" font-size="10.00">artificial_particles.hpp</text>
</a>
</g>
</g>
<!-- Node2 -->
<g id="node2" class="node">
<title>Node2</title>
<g id="a_node2"><a xlink:title=" ">
<polygon fill="white" stroke="#bfbfbf" points="0,-0.5 0,-19.5 128,-19.5 128,-0.5 0,-0.5"/>
<text text-anchor="middle" x="64" y="-7.5" font-family="Helvetica,sans-Serif" font-size="10.00">Common/binary_tree.h</text>
</a>
</g>
</g>
<!-- Node1&#45;&gt;Node2 -->
<g id="edge1" class="edge">
<title>Node1&#45;&gt;Node2</title>
<path fill="none" stroke="midnightblue" d="M66.92,-112.39C53.44,-104.87 36.03,-92.57 28,-76 19.63,-58.73 33.15,-39.57 45.94,-26.56"/>
<polygon fill="midnightblue" stroke="midnightblue" points="48.37,-29.09 53.22,-19.67 43.55,-24.01 48.37,-29.09"/>
</g>
<!-- Node3 -->
<g id="node3" class="node">
<title>Node3</title>
<g id="a_node3"><a xlink:href="tidal__tensor_8hpp.html" target="_top" xlink:title=" ">
<polygon fill="white" stroke="black" points="37.5,-56.5 37.5,-75.5 132.5,-75.5 132.5,-56.5 37.5,-56.5"/>
<text text-anchor="middle" x="85" y="-63.5" font-family="Helvetica,sans-Serif" font-size="10.00">tidal_tensor.hpp</text>
</a>
</g>
</g>
<!-- Node1&#45;&gt;Node3 -->
<g id="edge2" class="edge">
<title>Node1&#45;&gt;Node3</title>
<path fill="none" stroke="midnightblue" d="M85,-112.08C85,-105.01 85,-94.86 85,-85.99"/>
<polygon fill="midnightblue" stroke="midnightblue" points="88.5,-85.75 85,-75.75 81.5,-85.75 88.5,-85.75"/>
</g>
<!-- Node4 -->
<g id="node4" class="node">
<title>Node4</title>
<g id="a_node4"><a xlink:href="pseudoparticle__multipole_8hpp.html" target="_top" xlink:title=" ">
<polygon fill="white" stroke="black" points="150.5,-56.5 150.5,-75.5 311.5,-75.5 311.5,-56.5 150.5,-56.5"/>
<text text-anchor="middle" x="231" y="-63.5" font-family="Helvetica,sans-Serif" font-size="10.00">pseudoparticle_multipole.hpp</text>
</a>
</g>
</g>
<!-- Node1&#45;&gt;Node4 -->
<g id="edge3" class="edge">
<title>Node1&#45;&gt;Node4</title>
<path fill="none" stroke="midnightblue" d="M108.13,-112.44C132.48,-103.44 171.01,-89.19 198.42,-79.05"/>
<polygon fill="midnightblue" stroke="midnightblue" points="199.81,-82.27 207.97,-75.52 197.38,-75.7 199.81,-82.27"/>
</g>
<!-- Node4&#45;&gt;Node2 -->
<g id="edge4" class="edge">
<title>Node4&#45;&gt;Node2</title>
<path fill="none" stroke="midnightblue" d="M204.54,-56.44C176.32,-47.32 131.46,-32.81 100.03,-22.65"/>
<polygon fill="midnightblue" stroke="midnightblue" points="100.93,-19.26 90.34,-19.52 98.78,-25.92 100.93,-19.26"/>
</g>
<!-- Node5 -->
<g id="node5" class="node">
<title>Node5</title>
<g id="a_node5"><a xlink:title=" ">
<polygon fill="white" stroke="#bfbfbf" points="201,-0.5 201,-19.5 261,-19.5 261,-0.5 201,-0.5"/>
<text text-anchor="middle" x="231" y="-7.5" font-family="Helvetica,sans-Serif" font-size="10.00">iostream</text>
</a>
</g>
</g>
<!-- Node4&#45;&gt;Node5 -->
<g id="edge5" class="edge">
<title>Node4&#45;&gt;Node5</title>
<path fill="none" stroke="midnightblue" d="M231,-56.08C231,-49.01 231,-38.86 231,-29.99"/>
<polygon fill="midnightblue" stroke="midnightblue" points="234.5,-29.75 231,-19.75 227.5,-29.75 234.5,-29.75"/>
</g>
</g>
</svg>
