<?xml version="1.0" encoding="UTF-8" standalone="no"?>
<!DOCTYPE svg PUBLIC "-//W3C//DTD SVG 1.1//EN"
 "http://www.w3.org/Graphics/SVG/1.1/DTD/svg11.dtd">
<!-- Generated by graphviz version 2.43.0 (0)
 -->
<!-- Title: bse_interface.h Pages: 1 -->
<svg width="469pt" height="140pt"
 viewBox="0.00 0.00 468.50 140.00" xmlns="http://www.w3.org/2000/svg" xmlns:xlink="http://www.w3.org/1999/xlink">
<g id="graph0" class="graph" transform="scale(1 1) rotate(0) translate(4 136)">
<title>bse_interface.h</title>
<polygon fill="white" stroke="transparent" points="-4,4 -4,-136 464.5,-136 464.5,4 -4,4"/>
<!-- Node1 -->
<g id="node1" class="node">
<title>Node1</title>
<g id="a_node1"><a xlink:title=" ">
<polygon fill="#bfbfbf" stroke="black" points="194,-112.5 194,-131.5 286,-131.5 286,-112.5 194,-112.5"/>
<text text-anchor="middle" x="240" y="-119.5" font-family="Helvetica,sans-Serif" font-size="10.00">bse_interface.h</text>
</a>
</g>
</g>
<!-- Node2 -->
<g id="node2" class="node">
<title>Node2</title>
<g id="a_node2"><a xlink:title=" ">
<polygon fill="white" stroke="#bfbfbf" points="0,-0.5 0,-19.5 60,-19.5 60,-0.5 0,-0.5"/>
<text text-anchor="middle" x="30" y="-7.5" font-family="Helvetica,sans-Serif" font-size="10.00">iostream</text>
</a>
</g>
</g>
<!-- Node1&#45;&gt;Node2 -->
<g id="edge1" class="edge">
<title>Node1&#45;&gt;Node2</title>
<path fill="none" stroke="midnightblue" d="M223.52,-112.37C187.03,-93.25 99.16,-47.23 55.51,-24.36"/>
<polygon fill="midnightblue" stroke="midnightblue" points="56.88,-21.13 46.4,-19.59 53.64,-27.33 56.88,-21.13"/>
</g>
<!-- Node3 -->
<g id="node3" class="node">
<title>Node3</title>
<g id="a_node3"><a xlink:title=" ">
<polygon fill="white" stroke="#bfbfbf" points="78,-0.5 78,-19.5 134,-19.5 134,-0.5 78,-0.5"/>
<text text-anchor="middle" x="106" y="-7.5" font-family="Helvetica,sans-Serif" font-size="10.00">iomanip</text>
</a>
</g>
</g>
<!-- Node1&#45;&gt;Node3 -->
<g id="edge2" class="edge">
<title>Node1&#45;&gt;Node3</title>
<path fill="none" stroke="midnightblue" d="M228.32,-112.2C216.51,-103.24 197.81,-88.88 182,-76 161.56,-59.34 138.62,-39.57 123.35,-26.25"/>
<polygon fill="midnightblue" stroke="midnightblue" points="125.54,-23.52 115.71,-19.57 120.93,-28.78 125.54,-23.52"/>
</g>
<!-- Node4 -->
<g id="node4" class="node">
<title>Node4</title>
<g id="a_node4"><a xlink:title=" ">
<polygon fill="white" stroke="#bfbfbf" points="333,-56.5 333,-75.5 385,-75.5 385,-56.5 333,-56.5"/>
<text text-anchor="middle" x="359" y="-63.5" font-family="Helvetica,sans-Serif" font-size="10.00">cassert</text>
</a>
</g>
</g>
<!-- Node1&#45;&gt;Node4 -->
<g id="edge3" class="edge">
<title>Node1&#45;&gt;Node4</title>
<path fill="none" stroke="midnightblue" d="M258.86,-112.44C278.27,-103.64 308.73,-89.81 330.96,-79.72"/>
<polygon fill="midnightblue" stroke="midnightblue" points="332.57,-82.84 340.23,-75.52 329.68,-76.46 332.57,-82.84"/>
</g>
<!-- Node5 -->
<g id="node5" class="node">
<title>Node5</title>
<g id="a_node5"><a xlink:title=" ">
<polygon fill="white" stroke="#bfbfbf" points="152,-0.5 152,-19.5 198,-19.5 198,-0.5 152,-0.5"/>
<text text-anchor="middle" x="175" y="-7.5" font-family="Helvetica,sans-Serif" font-size="10.00">cstdio</text>
</a>
</g>
</g>
<!-- Node1&#45;&gt;Node5 -->
<g id="edge4" class="edge">
<title>Node1&#45;&gt;Node5</title>
<path fill="none" stroke="midnightblue" d="M228.44,-112.2C218.28,-103.9 203.78,-90.58 195,-76 186.34,-61.62 181.13,-43.16 178.21,-29.59"/>
<polygon fill="midnightblue" stroke="midnightblue" points="181.6,-28.69 176.27,-19.54 174.73,-30.02 181.6,-28.69"/>
</g>
<!-- Node6 -->
<g id="node6" class="node">
<title>Node6</title>
<g id="a_node6"><a xlink:title=" ">
<polygon fill="white" stroke="#bfbfbf" points="414,-0.5 414,-19.5 458,-19.5 458,-0.5 414,-0.5"/>
<text text-anchor="middle" x="436" y="-7.5" font-family="Helvetica,sans-Serif" font-size="10.00">string</text>
</a>
</g>
</g>
<!-- Node1&#45;&gt;Node6 -->
<g id="edge5" class="edge">
<title>Node1&#45;&gt;Node6</title>
<path fill="none" stroke="midnightblue" d="M249.21,-112.47C264.05,-99.07 294.56,-72.87 324,-56 349.66,-41.3 381.06,-29.13 404.08,-21.17"/>
<polygon fill="midnightblue" stroke="midnightblue" points="405.35,-24.44 413.7,-17.92 403.11,-17.81 405.35,-24.44"/>
</g>
<!-- Node7 -->
<g id="node7" class="node">
<title>Node7</title>
<g id="a_node7"><a xlink:title=" ">
<polygon fill="white" stroke="#bfbfbf" points="403.5,-56.5 403.5,-75.5 460.5,-75.5 460.5,-56.5 403.5,-56.5"/>
<text text-anchor="middle" x="432" y="-63.5" font-family="Helvetica,sans-Serif" font-size="10.00">getopt.h</text>
</a>
</g>
</g>
<!-- Node1&#45;&gt;Node7 -->
<g id="edge6" class="edge">
<title>Node1&#45;&gt;Node7</title>
<path fill="none" stroke="midnightblue" d="M270.42,-112.44C303.77,-103.07 357.33,-88 393.56,-77.81"/>
<polygon fill="midnightblue" stroke="midnightblue" points="394.61,-81.15 403.29,-75.08 392.71,-74.41 394.61,-81.15"/>
</g>
<!-- Node8 -->
<g id="node8" class="node">
<title>Node8</title>
<g id="a_node8"><a xlink:href="io_8hpp.html" target="_top" xlink:title=" ">
<polygon fill="white" stroke="black" points="203.5,-56.5 203.5,-75.5 276.5,-75.5 276.5,-56.5 203.5,-56.5"/>
<text text-anchor="middle" x="240" y="-63.5" font-family="Helvetica,sans-Serif" font-size="10.00">../src/io.hpp</text>
</a>
</g>
</g>
<!-- Node1&#45;&gt;Node8 -->
<g id="edge7" class="edge">
<title>Node1&#45;&gt;Node8</title>
<path fill="none" stroke="midnightblue" d="M240,-112.08C240,-105.01 240,-94.86 240,-85.99"/>
<polygon fill="midnightblue" stroke="midnightblue" points="243.5,-85.75 240,-75.75 236.5,-85.75 243.5,-85.75"/>
</g>
<!-- Node8&#45;&gt;Node2 -->
<g id="edge8" class="edge">
<title>Node8&#45;&gt;Node2</title>
<path fill="none" stroke="midnightblue" d="M206.72,-56.44C169.59,-46.9 109.54,-31.45 69.91,-21.26"/>
<polygon fill="midnightblue" stroke="midnightblue" points="70.61,-17.83 60.06,-18.73 68.87,-24.61 70.61,-17.83"/>
</g>
<!-- Node8&#45;&gt;Node3 -->
<g id="edge11" class="edge">
<title>Node8&#45;&gt;Node3</title>
<path fill="none" stroke="midnightblue" d="M218.77,-56.44C196.62,-47.52 161.68,-33.44 136.56,-23.32"/>
<polygon fill="midnightblue" stroke="midnightblue" points="137.72,-20.01 127.13,-19.52 135.1,-26.5 137.72,-20.01"/>
</g>
<!-- Node8&#45;&gt;Node5 -->
<g id="edge9" class="edge">
<title>Node8&#45;&gt;Node5</title>
<path fill="none" stroke="midnightblue" d="M229.56,-56.32C219.85,-48.26 205.18,-36.08 193.5,-26.37"/>
<polygon fill="midnightblue" stroke="midnightblue" points="195.56,-23.53 185.63,-19.83 191.09,-28.92 195.56,-23.53"/>
</g>
<!-- Node8&#45;&gt;Node6 -->
<g id="edge13" class="edge">
<title>Node8&#45;&gt;Node6</title>
<path fill="none" stroke="midnightblue" d="M271.98,-56.44C303.31,-48.03 352.63,-34.67 404.32,-20.16"/>
<polygon fill="midnightblue" stroke="midnightblue" points="405.32,-23.51 414,-17.44 403.42,-16.78 405.32,-23.51"/>
</g>
<!-- Node9 -->
<g id="node9" class="node">
<title>Node9</title>
<g id="a_node9"><a xlink:title=" ">
<polygon fill="white" stroke="#bfbfbf" points="216,-0.5 216,-19.5 266,-19.5 266,-0.5 216,-0.5"/>
<text text-anchor="middle" x="241" y="-7.5" font-family="Helvetica,sans-Serif" font-size="10.00">cstring</text>
</a>
</g>
</g>
<!-- Node8&#45;&gt;Node9 -->
<g id="edge10" class="edge">
<title>Node8&#45;&gt;Node9</title>
<path fill="none" stroke="midnightblue" d="M240.17,-56.08C240.3,-49.01 240.48,-38.86 240.65,-29.99"/>
<polygon fill="midnightblue" stroke="midnightblue" points="244.15,-29.81 240.84,-19.75 237.15,-29.68 244.15,-29.81"/>
</g>
<!-- Node10 -->
<g id="node10" class="node">
<title>Node10</title>
<g id="a_node10"><a xlink:title=" ">
<polygon fill="white" stroke="#bfbfbf" points="284.5,-0.5 284.5,-19.5 339.5,-19.5 339.5,-0.5 284.5,-0.5"/>
<text text-anchor="middle" x="312" y="-7.5" font-family="Helvetica,sans-Serif" font-size="10.00">fstream</text>
</a>
</g>
</g>
<!-- Node8&#45;&gt;Node10 -->
<g id="edge12" class="edge">
<title>Node8&#45;&gt;Node10</title>
<path fill="none" stroke="midnightblue" d="M251.57,-56.32C262.42,-48.18 278.88,-35.84 291.88,-26.09"/>
<polygon fill="midnightblue" stroke="midnightblue" points="294.32,-28.63 300.22,-19.83 290.12,-23.03 294.32,-28.63"/>
</g>
<!-- Node11 -->
<g id="node11" class="node">
<title>Node11</title>
<g id="a_node11"><a xlink:title=" ">
<polygon fill="white" stroke="#bfbfbf" points="358,-0.5 358,-19.5 396,-19.5 396,-0.5 358,-0.5"/>
<text text-anchor="middle" x="377" y="-7.5" font-family="Helvetica,sans-Serif" font-size="10.00">map</text>
</a>
</g>
</g>
<!-- Node8&#45;&gt;Node11 -->
<g id="edge14" class="edge">
<title>Node8&#45;&gt;Node11</title>
<path fill="none" stroke="midnightblue" d="M261.71,-56.44C285.02,-47.25 322.18,-32.61 347.99,-22.43"/>
<polygon fill="midnightblue" stroke="midnightblue" points="349.59,-25.57 357.61,-18.64 347.02,-19.05 349.59,-25.57"/>
</g>
</g>
</svg>
