<?xml version="1.0" encoding="UTF-8" standalone="no"?>
<!DOCTYPE svg PUBLIC "-//W3C//DTD SVG 1.1//EN"
 "http://www.w3.org/Graphics/SVG/1.1/DTD/svg11.dtd">
<!-- Generated by graphviz version 2.43.0 (0)
 -->
<!-- Title: changeover.hpp Pages: 1 -->
<svg width="1050pt" height="420pt"
 viewBox="0.00 0.00 1050.41 420.00" xmlns="http://www.w3.org/2000/svg" xmlns:xlink="http://www.w3.org/1999/xlink">
<g id="graph0" class="graph" transform="scale(1 1) rotate(0) translate(4 416)">
<title>changeover.hpp</title>
<polygon fill="white" stroke="transparent" points="-4,4 -4,-416 1046.41,-416 1046.41,4 -4,4"/>
<!-- Node1 -->
<g id="node1" class="node">
<title>Node1</title>
<g id="a_node1"><a xlink:title=" ">
<polygon fill="#bfbfbf" stroke="black" points="137.84,-392.5 137.84,-411.5 231.84,-411.5 231.84,-392.5 137.84,-392.5"/>
<text text-anchor="middle" x="184.84" y="-399.5" font-family="Helvetica,sans-Serif" font-size="10.00">changeover.hpp</text>
</a>
</g>
</g>
<!-- Node2 -->
<g id="node2" class="node">
<title>Node2</title>
<g id="a_node2"><a xlink:href="ar__interaction_8hpp.html" target="_top" xlink:title=" ">
<polygon fill="white" stroke="black" points="170.34,-168.5 170.34,-187.5 275.34,-187.5 275.34,-168.5 170.34,-168.5"/>
<text text-anchor="middle" x="222.84" y="-175.5" font-family="Helvetica,sans-Serif" font-size="10.00">ar_interaction.hpp</text>
</a>
</g>
</g>
<!-- Node1&#45;&gt;Node2 -->
<g id="edge1" class="edge">
<title>Node1&#45;&gt;Node2</title>
<path fill="none" stroke="midnightblue" d="M188.04,-382.3C195.85,-336.64 215.67,-220.85 221.32,-187.88"/>
<polygon fill="midnightblue" stroke="midnightblue" points="184.57,-381.85 186.33,-392.3 191.47,-383.03 184.57,-381.85"/>
</g>
<!-- Node8 -->
<g id="node8" class="node">
<title>Node8</title>
<g id="a_node8"><a xlink:href="ptcl_8hpp.html" target="_top" xlink:title=" ">
<polygon fill="white" stroke="black" points="409.84,-336.5 409.84,-355.5 465.84,-355.5 465.84,-336.5 409.84,-336.5"/>
<text text-anchor="middle" x="437.84" y="-343.5" font-family="Helvetica,sans-Serif" font-size="10.00">ptcl.hpp</text>
</a>
</g>
</g>
<!-- Node1&#45;&gt;Node8 -->
<g id="edge7" class="edge">
<title>Node1&#45;&gt;Node8</title>
<path fill="none" stroke="midnightblue" d="M235,-390.29C287.34,-379.12 367.52,-362.01 409.69,-353.01"/>
<polygon fill="midnightblue" stroke="midnightblue" points="233.98,-386.93 224.93,-392.44 235.44,-393.78 233.98,-386.93"/>
</g>
<!-- Node18 -->
<g id="node18" class="node">
<title>Node18</title>
<g id="a_node18"><a xlink:href="hermite__interaction_8hpp.html" target="_top" xlink:title=" ">
<polygon fill="white" stroke="black" points="15.84,-224.5 15.84,-243.5 149.84,-243.5 149.84,-224.5 15.84,-224.5"/>
<text text-anchor="middle" x="82.84" y="-231.5" font-family="Helvetica,sans-Serif" font-size="10.00">hermite_interaction.hpp</text>
</a>
</g>
</g>
<!-- Node1&#45;&gt;Node18 -->
<g id="edge32" class="edge">
<title>Node1&#45;&gt;Node18</title>
<path fill="none" stroke="midnightblue" d="M173.97,-383.31C152.22,-347.92 104.08,-269.56 88.1,-243.57"/>
<polygon fill="midnightblue" stroke="midnightblue" points="171.14,-385.39 179.35,-392.08 177.1,-381.72 171.14,-385.39"/>
</g>
<!-- Node3 -->
<g id="node3" class="node">
<title>Node3</title>
<g id="a_node3"><a xlink:href="hard_8hpp.html" target="_top" xlink:title=" ">
<polygon fill="white" stroke="black" points="160.34,-112.5 160.34,-131.5 219.34,-131.5 219.34,-112.5 160.34,-112.5"/>
<text text-anchor="middle" x="189.84" y="-119.5" font-family="Helvetica,sans-Serif" font-size="10.00">hard.hpp</text>
</a>
</g>
</g>
<!-- Node2&#45;&gt;Node3 -->
<g id="edge2" class="edge">
<title>Node2&#45;&gt;Node3</title>
<path fill="none" stroke="midnightblue" d="M212.01,-159.27C206.37,-150.05 199.72,-139.17 195.19,-131.75"/>
<polygon fill="midnightblue" stroke="midnightblue" points="209.19,-161.38 217.39,-168.08 215.16,-157.73 209.19,-161.38"/>
</g>
<!-- Node4 -->
<g id="node4" class="node">
<title>Node4</title>
<g id="a_node4"><a xlink:href="hard__debug_8cxx.html" target="_top" xlink:title=" ">
<polygon fill="white" stroke="black" points="803.84,-56.5 803.84,-75.5 897.84,-75.5 897.84,-56.5 803.84,-56.5"/>
<text text-anchor="middle" x="850.84" y="-63.5" font-family="Helvetica,sans-Serif" font-size="10.00">hard_debug.cxx</text>
</a>
</g>
</g>
<!-- Node3&#45;&gt;Node4 -->
<g id="edge3" class="edge">
<title>Node3&#45;&gt;Node4</title>
<path fill="none" stroke="midnightblue" d="M229.58,-116.05C241.54,-114.64 254.72,-113.18 266.84,-112 465.98,-92.7 703.97,-76.48 803.47,-70.01"/>
<polygon fill="midnightblue" stroke="midnightblue" points="228.94,-112.6 219.43,-117.27 229.77,-119.55 228.94,-112.6"/>
</g>
<!-- Node5 -->
<g id="node5" class="node">
<title>Node5</title>
<g id="a_node5"><a xlink:href="hard__test_8cxx.html" target="_top" xlink:title=" ">
<polygon fill="white" stroke="black" points="244.34,-56.5 244.34,-75.5 327.34,-75.5 327.34,-56.5 244.34,-56.5"/>
<text text-anchor="middle" x="285.84" y="-63.5" font-family="Helvetica,sans-Serif" font-size="10.00">hard_test.cxx</text>
</a>
</g>
</g>
<!-- Node3&#45;&gt;Node5 -->
<g id="edge4" class="edge">
<title>Node3&#45;&gt;Node5</title>
<path fill="none" stroke="midnightblue" d="M214.41,-107.18C232.08,-97.24 255.35,-84.15 270.45,-75.65"/>
<polygon fill="midnightblue" stroke="midnightblue" points="212.26,-104.37 205.26,-112.32 215.69,-110.47 212.26,-104.37"/>
</g>
<!-- Node6 -->
<g id="node6" class="node">
<title>Node6</title>
<g id="a_node6"><a xlink:href="petar_8hpp.html" target="_top" xlink:title=" ">
<polygon fill="white" stroke="black" points="597.84,-56.5 597.84,-75.5 659.84,-75.5 659.84,-56.5 597.84,-56.5"/>
<text text-anchor="middle" x="628.84" y="-63.5" font-family="Helvetica,sans-Serif" font-size="10.00">petar.hpp</text>
</a>
</g>
</g>
<!-- Node3&#45;&gt;Node6 -->
<g id="edge5" class="edge">
<title>Node3&#45;&gt;Node6</title>
<path fill="none" stroke="midnightblue" d="M229.62,-116.11C316.14,-105.46 519.89,-80.4 597.8,-70.82"/>
<polygon fill="midnightblue" stroke="midnightblue" points="229.17,-112.64 219.67,-117.33 230.02,-119.58 229.17,-112.64"/>
</g>
<!-- Node7 -->
<g id="node7" class="node">
<title>Node7</title>
<g id="a_node7"><a xlink:href="main_8cc.html" target="_top" xlink:title=" ">
<polygon fill="white" stroke="black" points="601.34,-0.5 601.34,-19.5 656.34,-19.5 656.34,-0.5 601.34,-0.5"/>
<text text-anchor="middle" x="628.84" y="-7.5" font-family="Helvetica,sans-Serif" font-size="10.00">main.cc</text>
</a>
</g>
</g>
<!-- Node6&#45;&gt;Node7 -->
<g id="edge6" class="edge">
<title>Node6&#45;&gt;Node7</title>
<path fill="none" stroke="midnightblue" d="M628.84,-45.8C628.84,-36.91 628.84,-26.78 628.84,-19.75"/>
<polygon fill="midnightblue" stroke="midnightblue" points="625.34,-46.08 628.84,-56.08 632.34,-46.08 625.34,-46.08"/>
</g>
<!-- Node9 -->
<g id="node9" class="node">
<title>Node9</title>
<g id="a_node9"><a xlink:href="hard__ptcl_8hpp.html" target="_top" xlink:title=" ">
<polygon fill="white" stroke="black" points="335.34,-280.5 335.34,-299.5 418.34,-299.5 418.34,-280.5 335.34,-280.5"/>
<text text-anchor="middle" x="376.84" y="-287.5" font-family="Helvetica,sans-Serif" font-size="10.00">hard_ptcl.hpp</text>
</a>
</g>
</g>
<!-- Node8&#45;&gt;Node9 -->
<g id="edge8" class="edge">
<title>Node8&#45;&gt;Node9</title>
<path fill="none" stroke="midnightblue" d="M420.37,-329.54C409.49,-319.91 395.89,-307.87 386.82,-299.83"/>
<polygon fill="midnightblue" stroke="midnightblue" points="418.23,-332.32 428.04,-336.32 422.87,-327.07 418.23,-332.32"/>
</g>
<!-- Node12 -->
<g id="node12" class="node">
<title>Node12</title>
<g id="a_node12"><a xlink:href="cluster__list_8hpp.html" target="_top" xlink:title=" ">
<polygon fill="white" stroke="black" points="932.34,-112.5 932.34,-131.5 1023.34,-131.5 1023.34,-112.5 932.34,-112.5"/>
<text text-anchor="middle" x="977.84" y="-119.5" font-family="Helvetica,sans-Serif" font-size="10.00">cluster_list.hpp</text>
</a>
</g>
</g>
<!-- Node8&#45;&gt;Node12 -->
<g id="edge18" class="edge">
<title>Node8&#45;&gt;Node12</title>
<path fill="none" stroke="midnightblue" d="M468.02,-332.59C566.06,-292.29 874.07,-165.66 957.06,-131.54"/>
<polygon fill="midnightblue" stroke="midnightblue" points="466.59,-329.39 458.68,-336.43 469.26,-335.87 466.59,-329.39"/>
</g>
<!-- Node13 -->
<g id="node13" class="node">
<title>Node13</title>
<g id="a_node13"><a xlink:href="soft__ptcl_8hpp.html" target="_top" xlink:title=" ">
<polygon fill="white" stroke="black" points="507.34,-168.5 507.34,-187.5 586.34,-187.5 586.34,-168.5 507.34,-168.5"/>
<text text-anchor="middle" x="546.84" y="-175.5" font-family="Helvetica,sans-Serif" font-size="10.00">soft_ptcl.hpp</text>
</a>
</g>
</g>
<!-- Node8&#45;&gt;Node13 -->
<g id="edge22" class="edge">
<title>Node8&#45;&gt;Node13</title>
<path fill="none" stroke="midnightblue" d="M449.45,-327.31C472.69,-291.92 524.14,-213.56 541.21,-187.57"/>
<polygon fill="midnightblue" stroke="midnightblue" points="446.26,-325.79 443.7,-336.08 452.11,-329.64 446.26,-325.79"/>
</g>
<!-- Node9&#45;&gt;Node2 -->
<g id="edge9" class="edge">
<title>Node9&#45;&gt;Node2</title>
<path fill="none" stroke="midnightblue" d="M325.07,-283.44C296.96,-277.83 263.59,-266.58 241.84,-244 226.83,-228.42 223.58,-201.66 222.94,-187.84"/>
<polygon fill="midnightblue" stroke="midnightblue" points="324.7,-286.93 335.16,-285.26 325.94,-280.04 324.7,-286.93"/>
</g>
<!-- Node9&#45;&gt;Node3 -->
<g id="edge13" class="edge">
<title>Node9&#45;&gt;Node3</title>
<path fill="none" stroke="midnightblue" d="M373.51,-270.48C370.53,-256.94 365.3,-238.5 356.84,-224 339.57,-194.4 332.23,-187.19 303.84,-168 277.75,-150.36 243.72,-138.08 219.66,-130.85"/>
<polygon fill="midnightblue" stroke="midnightblue" points="370.12,-271.37 375.51,-280.5 376.99,-270.01 370.12,-271.37"/>
</g>
<!-- Node10 -->
<g id="node10" class="node">
<title>Node10</title>
<g id="a_node10"><a xlink:href="ar__perturber_8hpp.html" target="_top" xlink:title=" ">
<polygon fill="white" stroke="black" points="251.34,-224.5 251.34,-243.5 348.34,-243.5 348.34,-224.5 251.34,-224.5"/>
<text text-anchor="middle" x="299.84" y="-231.5" font-family="Helvetica,sans-Serif" font-size="10.00">ar_perturber.hpp</text>
</a>
</g>
</g>
<!-- Node9&#45;&gt;Node10 -->
<g id="edge10" class="edge">
<title>Node9&#45;&gt;Node10</title>
<path fill="none" stroke="midnightblue" d="M355.94,-274.34C341.93,-264.52 323.96,-251.91 312.18,-243.65"/>
<polygon fill="midnightblue" stroke="midnightblue" points="354.27,-277.45 364.47,-280.32 358.29,-271.72 354.27,-277.45"/>
</g>
<!-- Node11 -->
<g id="node11" class="node">
<title>Node11</title>
<g id="a_node11"><a xlink:href="hard__assert_8hpp.html" target="_top" xlink:title=" ">
<polygon fill="white" stroke="black" points="276.34,-112.5 276.34,-131.5 371.34,-131.5 371.34,-112.5 276.34,-112.5"/>
<text text-anchor="middle" x="323.84" y="-119.5" font-family="Helvetica,sans-Serif" font-size="10.00">hard_assert.hpp</text>
</a>
</g>
</g>
<!-- Node9&#45;&gt;Node11 -->
<g id="edge14" class="edge">
<title>Node9&#45;&gt;Node11</title>
<path fill="none" stroke="midnightblue" d="M384.94,-271.24C394.92,-246.55 408.51,-201.15 390.84,-168 381.55,-150.56 362.16,-138.68 346.63,-131.53"/>
<polygon fill="midnightblue" stroke="midnightblue" points="381.71,-269.89 380.99,-280.46 388.14,-272.65 381.71,-269.89"/>
</g>
<!-- Node10&#45;&gt;Node2 -->
<g id="edge11" class="edge">
<title>Node10&#45;&gt;Node2</title>
<path fill="none" stroke="midnightblue" d="M278.94,-218.34C264.93,-208.52 246.96,-195.91 235.18,-187.65"/>
<polygon fill="midnightblue" stroke="midnightblue" points="277.27,-221.45 287.47,-224.32 281.29,-215.72 277.27,-221.45"/>
</g>
<!-- Node10&#45;&gt;Node3 -->
<g id="edge12" class="edge">
<title>Node10&#45;&gt;Node3</title>
<path fill="none" stroke="midnightblue" d="M299.42,-214.36C298.2,-200.24 294.49,-181.09 283.84,-168 267.63,-148.07 240.48,-136.4 219.51,-129.97"/>
<polygon fill="midnightblue" stroke="midnightblue" points="295.93,-214.6 299.96,-224.4 302.92,-214.23 295.93,-214.6"/>
</g>
<!-- Node11&#45;&gt;Node4 -->
<g id="edge15" class="edge">
<title>Node11&#45;&gt;Node4</title>
<path fill="none" stroke="midnightblue" d="M381.49,-111.99C542.64,-91.83 720.66,-77.02 803.7,-70.55"/>
<polygon fill="midnightblue" stroke="midnightblue" points="380.88,-108.54 371.39,-113.27 381.75,-115.49 380.88,-108.54"/>
</g>
<!-- Node11&#45;&gt;Node5 -->
<g id="edge16" class="edge">
<title>Node11&#45;&gt;Node5</title>
<path fill="none" stroke="midnightblue" d="M311.77,-103.86C305.19,-94.5 297.33,-83.33 292,-75.75"/>
<polygon fill="midnightblue" stroke="midnightblue" points="308.95,-105.92 317.56,-112.08 314.67,-101.89 308.95,-105.92"/>
</g>
<!-- Node11&#45;&gt;Node6 -->
<g id="edge17" class="edge">
<title>Node11&#45;&gt;Node6</title>
<path fill="none" stroke="midnightblue" d="M381.46,-110.8C445.65,-99.43 547.04,-81.48 597.77,-72.5"/>
<polygon fill="midnightblue" stroke="midnightblue" points="380.73,-107.37 371.49,-112.56 381.95,-114.27 380.73,-107.37"/>
</g>
<!-- Node12&#45;&gt;Node4 -->
<g id="edge19" class="edge">
<title>Node12&#45;&gt;Node4</title>
<path fill="none" stroke="midnightblue" d="M948.45,-108.5C924.64,-98.38 891.73,-84.39 870.87,-75.52"/>
<polygon fill="midnightblue" stroke="midnightblue" points="947.14,-111.75 957.71,-112.44 949.88,-105.31 947.14,-111.75"/>
</g>
<!-- Node12&#45;&gt;Node5 -->
<g id="edge20" class="edge">
<title>Node12&#45;&gt;Node5</title>
<path fill="none" stroke="midnightblue" d="M921.9,-115.39C909.69,-114.22 896.83,-113.03 884.84,-112 675.73,-94.03 425.21,-76.5 327.62,-69.83"/>
<polygon fill="midnightblue" stroke="midnightblue" points="921.68,-118.89 931.97,-116.36 922.36,-111.92 921.68,-118.89"/>
</g>
<!-- Node12&#45;&gt;Node6 -->
<g id="edge21" class="edge">
<title>Node12&#45;&gt;Node6</title>
<path fill="none" stroke="midnightblue" d="M922.11,-112.38C847.88,-100.89 719.07,-80.96 660.03,-71.83"/>
<polygon fill="midnightblue" stroke="midnightblue" points="921.8,-115.87 932.21,-113.94 922.87,-108.95 921.8,-115.87"/>
</g>
<!-- Node13&#45;&gt;Node3 -->
<g id="edge25" class="edge">
<title>Node13&#45;&gt;Node3</title>
<path fill="none" stroke="midnightblue" d="M496.93,-170.75C435.04,-162.78 326.38,-148.1 233.84,-132 229.23,-131.2 224.36,-130.28 219.62,-129.34"/>
<polygon fill="midnightblue" stroke="midnightblue" points="496.83,-174.26 507.19,-172.06 497.72,-167.32 496.83,-174.26"/>
</g>
<!-- Node13&#45;&gt;Node4 -->
<g id="edge27" class="edge">
<title>Node13&#45;&gt;Node4</title>
<path fill="none" stroke="midnightblue" d="M596.77,-176.1C714.91,-173.47 1003.85,-163.8 1032.84,-132 1073.98,-86.87 964.63,-73.06 897.98,-68.84"/>
<polygon fill="midnightblue" stroke="midnightblue" points="596.48,-172.61 586.55,-176.32 596.63,-179.61 596.48,-172.61"/>
</g>
<!-- Node13&#45;&gt;Node5 -->
<g id="edge28" class="edge">
<title>Node13&#45;&gt;Node5</title>
<path fill="none" stroke="midnightblue" d="M496.75,-172.45C420.25,-165 281.55,-149.27 266.84,-132 252.81,-115.53 268.76,-89.16 278.85,-75.63"/>
<polygon fill="midnightblue" stroke="midnightblue" points="496.82,-175.98 507.11,-173.45 497.49,-169.01 496.82,-175.98"/>
</g>
<!-- Node13&#45;&gt;Node6 -->
<g id="edge29" class="edge">
<title>Node13&#45;&gt;Node6</title>
<path fill="none" stroke="midnightblue" d="M596.61,-173.95C685.99,-167.95 866.15,-153.34 884.84,-132 890.69,-125.31 890.55,-118.81 884.84,-112 856.48,-78.22 722.13,-69.79 660.22,-67.69"/>
<polygon fill="midnightblue" stroke="midnightblue" points="596.19,-170.47 586.44,-174.62 596.65,-177.45 596.19,-170.47"/>
</g>
<!-- Node13&#45;&gt;Node11 -->
<g id="edge26" class="edge">
<title>Node13&#45;&gt;Node11</title>
<path fill="none" stroke="midnightblue" d="M501.78,-166.09C459.65,-155.89 397.6,-140.86 359.01,-131.52"/>
<polygon fill="midnightblue" stroke="midnightblue" points="500.96,-169.49 511.5,-168.44 502.61,-162.69 500.96,-169.49"/>
</g>
<!-- Node14 -->
<g id="node14" class="node">
<title>Node14</title>
<g id="a_node14"><a xlink:href="force__gpu__cuda_8hpp.html" target="_top" xlink:title=" ">
<polygon fill="white" stroke="black" points="389.84,-112.5 389.84,-131.5 503.84,-131.5 503.84,-112.5 389.84,-112.5"/>
<text text-anchor="middle" x="446.84" y="-119.5" font-family="Helvetica,sans-Serif" font-size="10.00">force_gpu_cuda.hpp</text>
</a>
</g>
</g>
<!-- Node13&#45;&gt;Node14 -->
<g id="edge23" class="edge">
<title>Node13&#45;&gt;Node14</title>
<path fill="none" stroke="midnightblue" d="M521.75,-163.45C503.29,-153.48 478.74,-140.23 462.87,-131.65"/>
<polygon fill="midnightblue" stroke="midnightblue" points="520.31,-166.65 530.77,-168.32 523.64,-160.49 520.31,-166.65"/>
</g>
<!-- Node15 -->
<g id="node15" class="node">
<title>Node15</title>
<g id="a_node15"><a xlink:href="format__transfer_8cxx.html" target="_top" xlink:title=" ">
<polygon fill="white" stroke="black" points="522.34,-112.5 522.34,-131.5 635.34,-131.5 635.34,-112.5 522.34,-112.5"/>
<text text-anchor="middle" x="578.84" y="-119.5" font-family="Helvetica,sans-Serif" font-size="10.00">format_transfer.cxx</text>
</a>
</g>
</g>
<!-- Node13&#45;&gt;Node15 -->
<g id="edge24" class="edge">
<title>Node13&#45;&gt;Node15</title>
<path fill="none" stroke="midnightblue" d="M557.34,-159.27C562.81,-150.05 569.26,-139.17 573.65,-131.75"/>
<polygon fill="midnightblue" stroke="midnightblue" points="554.21,-157.7 552.12,-168.08 560.23,-161.26 554.21,-157.7"/>
</g>
<!-- Node16 -->
<g id="node16" class="node">
<title>Node16</title>
<g id="a_node16"><a xlink:href="simd__test_8cxx.html" target="_top" xlink:title=" ">
<polygon fill="white" stroke="black" points="653.34,-112.5 653.34,-131.5 738.34,-131.5 738.34,-112.5 653.34,-112.5"/>
<text text-anchor="middle" x="695.84" y="-119.5" font-family="Helvetica,sans-Serif" font-size="10.00">simd_test.cxx</text>
</a>
</g>
</g>
<!-- Node13&#45;&gt;Node16 -->
<g id="edge30" class="edge">
<title>Node13&#45;&gt;Node16</title>
<path fill="none" stroke="midnightblue" d="M580.21,-164.91C608.22,-154.75 647.53,-140.51 672.34,-131.52"/>
<polygon fill="midnightblue" stroke="midnightblue" points="578.66,-161.75 570.45,-168.44 581.04,-168.33 578.66,-161.75"/>
</g>
<!-- Node17 -->
<g id="node17" class="node">
<title>Node17</title>
<g id="a_node17"><a xlink:href="tidal__tensor__test_8cxx.html" target="_top" xlink:title=" ">
<polygon fill="white" stroke="black" points="756.34,-112.5 756.34,-131.5 875.34,-131.5 875.34,-112.5 756.34,-112.5"/>
<text text-anchor="middle" x="815.84" y="-119.5" font-family="Helvetica,sans-Serif" font-size="10.00">tidal_tensor_test.cxx</text>
</a>
</g>
</g>
<!-- Node13&#45;&gt;Node17 -->
<g id="edge31" class="edge">
<title>Node13&#45;&gt;Node17</title>
<path fill="none" stroke="midnightblue" d="M596.62,-167.01C647.39,-156.81 725.34,-141.17 773.32,-131.54"/>
<polygon fill="midnightblue" stroke="midnightblue" points="595.65,-163.63 586.53,-169.03 597.02,-170.5 595.65,-163.63"/>
</g>
<!-- Node18&#45;&gt;Node3 -->
<g id="edge33" class="edge">
<title>Node18&#45;&gt;Node3</title>
<path fill="none" stroke="midnightblue" d="M47.98,-220.61C20.01,-208.72 -12.02,-189.45 4.84,-168 23.83,-143.83 112.89,-131.03 160.17,-125.83"/>
<polygon fill="midnightblue" stroke="midnightblue" points="47.03,-224 57.62,-224.49 49.65,-217.51 47.03,-224"/>
</g>
<!-- Node19 -->
<g id="node19" class="node">
<title>Node19</title>
<g id="a_node19"><a xlink:href="hermite__information_8hpp.html" target="_top" xlink:title=" ">
<polygon fill="white" stroke="black" points="13.84,-168.5 13.84,-187.5 151.84,-187.5 151.84,-168.5 13.84,-168.5"/>
<text text-anchor="middle" x="82.84" y="-175.5" font-family="Helvetica,sans-Serif" font-size="10.00">hermite_information.hpp</text>
</a>
</g>
</g>
<!-- Node18&#45;&gt;Node19 -->
<g id="edge34" class="edge">
<title>Node18&#45;&gt;Node19</title>
<path fill="none" stroke="midnightblue" d="M82.84,-213.8C82.84,-204.91 82.84,-194.78 82.84,-187.75"/>
<polygon fill="midnightblue" stroke="midnightblue" points="79.34,-214.08 82.84,-224.08 86.34,-214.08 79.34,-214.08"/>
</g>
<!-- Node19&#45;&gt;Node3 -->
<g id="edge35" class="edge">
<title>Node19&#45;&gt;Node3</title>
<path fill="none" stroke="midnightblue" d="M109.14,-163.73C128.95,-153.73 155.55,-140.31 172.69,-131.65"/>
<polygon fill="midnightblue" stroke="midnightblue" points="107.38,-160.69 100.03,-168.32 110.53,-166.94 107.38,-160.69"/>
</g>
</g>
</svg>
