<?xml version="1.0" encoding="UTF-8" standalone="no"?>
<!DOCTYPE svg PUBLIC "-//W3C//DTD SVG 1.1//EN"
 "http://www.w3.org/Graphics/SVG/1.1/DTD/svg11.dtd">
<!-- Generated by graphviz version 2.43.0 (0)
 -->
<!-- Title: FPSoft::readBinary Pages: 1 -->
<svg width="661pt" height="66pt"
 viewBox="0.00 0.00 661.00 66.00" xmlns="http://www.w3.org/2000/svg" xmlns:xlink="http://www.w3.org/1999/xlink">
<g id="graph0" class="graph" transform="scale(1 1) rotate(0) translate(4 62)">
<title>FPSoft::readBinary</title>
<polygon fill="white" stroke="transparent" points="-4,4 -4,-62 657,-62 657,4 -4,4"/>
<!-- Node1 -->
<g id="node1" class="node">
<title>Node1</title>
<g id="a_node1"><a xlink:title=" ">
<polygon fill="#bfbfbf" stroke="black" points="0,-19.5 0,-38.5 107,-38.5 107,-19.5 0,-19.5"/>
<text text-anchor="middle" x="53.5" y="-26.5" font-family="Helvetica,sans-Serif" font-size="10.00">FPSoft::readBinary</text>
</a>
</g>
</g>
<!-- Node2 -->
<g id="node2" class="node">
<title>Node2</title>
<g id="a_node2"><a xlink:href="classPtcl.html#a2fc333332020231cb337a68f79fdbcdc" target="_top" xlink:title="read class data with BINARY format">
<polygon fill="white" stroke="black" points="143,-19.5 143,-38.5 237,-38.5 237,-19.5 143,-19.5"/>
<text text-anchor="middle" x="190" y="-26.5" font-family="Helvetica,sans-Serif" font-size="10.00">Ptcl::readBinary</text>
</a>
</g>
</g>
<!-- Node1&#45;&gt;Node2 -->
<g id="edge1" class="edge">
<title>Node1&#45;&gt;Node2</title>
<path fill="none" stroke="midnightblue" d="M107.27,-29C115.64,-29 124.33,-29 132.78,-29"/>
<polygon fill="midnightblue" stroke="midnightblue" points="132.92,-32.5 142.92,-29 132.92,-25.5 132.92,-32.5"/>
</g>
<!-- Node3 -->
<g id="node3" class="node">
<title>Node3</title>
<g id="a_node3"><a xlink:href="classChangeOver.html#a56998e927c0f7516b225c3690833a23f" target="_top" xlink:title="read class data to file with binary format">
<polygon fill="white" stroke="black" points="273,-38.5 273,-57.5 409,-57.5 409,-38.5 273,-38.5"/>
<text text-anchor="middle" x="341" y="-45.5" font-family="Helvetica,sans-Serif" font-size="10.00">ChangeOver::readBinary</text>
</a>
</g>
</g>
<!-- Node2&#45;&gt;Node3 -->
<g id="edge2" class="edge">
<title>Node2&#45;&gt;Node3</title>
<path fill="none" stroke="midnightblue" d="M237.33,-34.91C245.43,-35.94 254.06,-37.04 262.74,-38.15"/>
<polygon fill="midnightblue" stroke="midnightblue" points="262.55,-41.65 272.92,-39.45 263.44,-34.71 262.55,-41.65"/>
</g>
<!-- Node6 -->
<g id="node6" class="node">
<title>Node6</title>
<g id="a_node6"><a xlink:href="classParticleBase.html#af021a12bf8d0213f9e0441328755119d" target="_top" xlink:title="read class data with BINARY format">
<polygon fill="white" stroke="black" points="273,-0.5 273,-19.5 409,-19.5 409,-0.5 273,-0.5"/>
<text text-anchor="middle" x="341" y="-7.5" font-family="Helvetica,sans-Serif" font-size="10.00">ParticleBase::readBinary</text>
</a>
</g>
</g>
<!-- Node2&#45;&gt;Node6 -->
<g id="edge5" class="edge">
<title>Node2&#45;&gt;Node6</title>
<path fill="none" stroke="midnightblue" d="M237.33,-23.09C245.43,-22.06 254.06,-20.96 262.74,-19.85"/>
<polygon fill="midnightblue" stroke="midnightblue" points="263.44,-23.29 272.92,-18.55 262.55,-16.35 263.44,-23.29"/>
</g>
<!-- Node4 -->
<g id="node4" class="node">
<title>Node4</title>
<g id="a_node4"><a xlink:href="classChangeOver.html#ab8bbff987a930131dcbe86ce435f6087" target="_top" xlink:title="set r_in and r_out for changeover function">
<polygon fill="white" stroke="black" points="445,-38.5 445,-57.5 549,-57.5 549,-38.5 445,-38.5"/>
<text text-anchor="middle" x="497" y="-45.5" font-family="Helvetica,sans-Serif" font-size="10.00">ChangeOver::setR</text>
</a>
</g>
</g>
<!-- Node3&#45;&gt;Node4 -->
<g id="edge3" class="edge">
<title>Node3&#45;&gt;Node4</title>
<path fill="none" stroke="midnightblue" d="M409.1,-48C417.63,-48 426.32,-48 434.75,-48"/>
<polygon fill="midnightblue" stroke="midnightblue" points="434.87,-51.5 444.87,-48 434.87,-44.5 434.87,-51.5"/>
</g>
<!-- Node5 -->
<g id="node5" class="node">
<title>Node5</title>
<g id="a_node5"><a xlink:href="namespacePIKG.html#aede68ae33404ee6199164897b8cbc9ad" target="_top" xlink:title=" ">
<polygon fill="white" stroke="black" points="585,-38.5 585,-57.5 653,-57.5 653,-38.5 585,-38.5"/>
<text text-anchor="middle" x="619" y="-45.5" font-family="Helvetica,sans-Serif" font-size="10.00">PIKG::max</text>
</a>
</g>
</g>
<!-- Node4&#45;&gt;Node5 -->
<g id="edge4" class="edge">
<title>Node4&#45;&gt;Node5</title>
<path fill="none" stroke="midnightblue" d="M549.24,-48C557.75,-48 566.5,-48 574.79,-48"/>
<polygon fill="midnightblue" stroke="midnightblue" points="574.98,-51.5 584.98,-48 574.98,-44.5 574.98,-51.5"/>
</g>
</g>
</svg>
