<?xml version="1.0" encoding="UTF-8" standalone="no"?>
<!DOCTYPE svg PUBLIC "-//W3C//DTD SVG 1.1//EN"
 "http://www.w3.org/Graphics/SVG/1.1/DTD/svg11.dtd">
<!-- Generated by graphviz version 2.43.0 (0)
 -->
<!-- Title: Ptcl::operator= Pages: 1 -->
<svg width="390pt" height="28pt"
 viewBox="0.00 0.00 390.00 28.00" xmlns="http://www.w3.org/2000/svg" xmlns:xlink="http://www.w3.org/1999/xlink">
<g id="graph0" class="graph" transform="scale(1 1) rotate(0) translate(4 24)">
<title>Ptcl::operator=</title>
<polygon fill="white" stroke="transparent" points="-4,4 -4,-24 386,-24 386,4 -4,4"/>
<!-- Node1 -->
<g id="node1" class="node">
<title>Node1</title>
<g id="a_node1"><a xlink:title=" ">
<polygon fill="#bfbfbf" stroke="black" points="0,-0.5 0,-19.5 90,-19.5 90,-0.5 0,-0.5"/>
<text text-anchor="middle" x="45" y="-7.5" font-family="Helvetica,sans-Serif" font-size="10.00">Ptcl::operator=</text>
</a>
</g>
</g>
<!-- Node2 -->
<g id="node2" class="node">
<title>Node2</title>
<g id="a_node2"><a xlink:href="classPtcl.html#adf7eb00fc3ebaebb137eae21493e3eb5" target="_top" xlink:title=" ">
<polygon fill="white" stroke="black" points="126,-0.5 126,-19.5 215,-19.5 215,-0.5 126,-0.5"/>
<text text-anchor="middle" x="170.5" y="-7.5" font-family="Helvetica,sans-Serif" font-size="10.00">Ptcl::DataCopy</text>
</a>
</g>
</g>
<!-- Node1&#45;&gt;Node2 -->
<g id="edge1" class="edge">
<title>Node1&#45;&gt;Node2</title>
<path fill="none" stroke="midnightblue" d="M90.24,-10C98.5,-10 107.23,-10 115.74,-10"/>
<polygon fill="midnightblue" stroke="midnightblue" points="115.99,-13.5 125.99,-10 115.99,-6.5 115.99,-13.5"/>
</g>
<!-- Node3 -->
<g id="node3" class="node">
<title>Node3</title>
<g id="a_node3"><a xlink:href="classParticleBase.html#aeeb3bfd51f0c8eadcf23c0e3b4aeb003" target="_top" xlink:title="Copy from another ParticleBase.">
<polygon fill="white" stroke="black" points="251,-0.5 251,-19.5 382,-19.5 382,-0.5 251,-0.5"/>
<text text-anchor="middle" x="316.5" y="-7.5" font-family="Helvetica,sans-Serif" font-size="10.00">ParticleBase::DataCopy</text>
</a>
</g>
</g>
<!-- Node2&#45;&gt;Node3 -->
<g id="edge2" class="edge">
<title>Node2&#45;&gt;Node3</title>
<path fill="none" stroke="midnightblue" d="M215.1,-10C223.19,-10 231.85,-10 240.57,-10"/>
<polygon fill="midnightblue" stroke="midnightblue" points="240.8,-13.5 250.8,-10 240.8,-6.5 240.8,-13.5"/>
</g>
</g>
</svg>
