<?xml version="1.0" encoding="UTF-8" standalone="no"?>
<!DOCTYPE svg PUBLIC "-//W3C//DTD SVG 1.1//EN"
 "http://www.w3.org/Graphics/SVG/1.1/DTD/svg11.dtd">
<!-- Generated by graphviz version 2.43.0 (0)
 -->
<!-- Title: HardIntegrator::printInterruptBinaryInfo Pages: 1 -->
<svg width="712pt" height="127pt"
 viewBox="0.00 0.00 712.00 126.50" xmlns="http://www.w3.org/2000/svg" xmlns:xlink="http://www.w3.org/1999/xlink">
<g id="graph0" class="graph" transform="scale(1 1) rotate(0) translate(4 122.5)">
<title>HardIntegrator::printInterruptBinaryInfo</title>
<polygon fill="white" stroke="transparent" points="-4,4 -4,-122.5 708,-122.5 708,4 -4,4"/>
<!-- Node1 -->
<g id="node1" class="node">
<title>Node1</title>
<g id="a_node1"><a xlink:title="print interrupt binary information">
<polygon fill="#bfbfbf" stroke="black" points="0,-49.5 0,-79.5 158,-79.5 158,-49.5 0,-49.5"/>
<text text-anchor="start" x="8" y="-67.5" font-family="Helvetica,sans-Serif" font-size="10.00">HardIntegrator::printInterrupt</text>
<text text-anchor="middle" x="79" y="-56.5" font-family="Helvetica,sans-Serif" font-size="10.00">BinaryInfo</text>
</a>
</g>
</g>
<!-- Node2 -->
<g id="node2" class="node">
<title>Node2</title>
<g id="a_node2"><a xlink:href="classPtcl.html#a33959c85b7424220cdd94f3ed9aab0ad" target="_top" xlink:title="print titles of class members using column style">
<polygon fill="white" stroke="black" points="194,-55 194,-74 316,-74 316,-55 194,-55"/>
<text text-anchor="middle" x="255" y="-62" font-family="Helvetica,sans-Serif" font-size="10.00">Ptcl::printColumnTitle</text>
</a>
</g>
</g>
<!-- Node1&#45;&gt;Node2 -->
<g id="edge1" class="edge">
<title>Node1&#45;&gt;Node2</title>
<path fill="none" stroke="midnightblue" d="M158.09,-64.5C166.64,-64.5 175.29,-64.5 183.73,-64.5"/>
<polygon fill="midnightblue" stroke="midnightblue" points="183.9,-68 193.9,-64.5 183.9,-61 183.9,-68"/>
</g>
<!-- Node3 -->
<g id="node3" class="node">
<title>Node3</title>
<g id="a_node3"><a xlink:href="classChangeOver.html#a99477187923811c0fdb3800199cbad48" target="_top" xlink:title="print titles of class members using column style">
<polygon fill="white" stroke="black" points="352,-99 352,-118 516,-118 516,-99 352,-99"/>
<text text-anchor="middle" x="434" y="-106" font-family="Helvetica,sans-Serif" font-size="10.00">ChangeOver::printColumnTitle</text>
</a>
</g>
</g>
<!-- Node2&#45;&gt;Node3 -->
<g id="edge2" class="edge">
<title>Node2&#45;&gt;Node3</title>
<path fill="none" stroke="midnightblue" d="M291.96,-74.09C309.96,-78.83 332.11,-84.58 352,-89.5 361.47,-91.84 371.58,-94.27 381.34,-96.58"/>
<polygon fill="midnightblue" stroke="midnightblue" points="380.79,-100.05 391.33,-98.93 382.4,-93.23 380.79,-100.05"/>
</g>
<!-- Node4 -->
<g id="node4" class="node">
<title>Node4</title>
<g id="a_node4"><a xlink:href="classArtificialParticleInformation.html#ab80264bffa5c899f8a67a24a35a06b85" target="_top" xlink:title="print titles of class members using column style">
<polygon fill="white" stroke="black" points="359,-49.5 359,-79.5 509,-79.5 509,-49.5 359,-49.5"/>
<text text-anchor="start" x="367" y="-67.5" font-family="Helvetica,sans-Serif" font-size="10.00">ArtificialParticleInformation</text>
<text text-anchor="middle" x="434" y="-56.5" font-family="Helvetica,sans-Serif" font-size="10.00">::printColumnTitle</text>
</a>
</g>
</g>
<!-- Node2&#45;&gt;Node4 -->
<g id="edge3" class="edge">
<title>Node2&#45;&gt;Node4</title>
<path fill="none" stroke="midnightblue" d="M316.42,-64.5C326.74,-64.5 337.63,-64.5 348.44,-64.5"/>
<polygon fill="midnightblue" stroke="midnightblue" points="348.76,-68 358.76,-64.5 348.76,-61 348.76,-68"/>
</g>
<!-- Node5 -->
<g id="node5" class="node">
<title>Node5</title>
<g id="a_node5"><a xlink:href="classParticleBase.html#a9797dd76731d696cd5ed651aae200828" target="_top" xlink:title="print titles of class members using column style">
<polygon fill="white" stroke="black" points="362.5,-0.5 362.5,-30.5 505.5,-30.5 505.5,-0.5 362.5,-0.5"/>
<text text-anchor="start" x="370.5" y="-18.5" font-family="Helvetica,sans-Serif" font-size="10.00">ParticleBase::printColumn</text>
<text text-anchor="middle" x="434" y="-7.5" font-family="Helvetica,sans-Serif" font-size="10.00">Title</text>
</a>
</g>
</g>
<!-- Node2&#45;&gt;Node5 -->
<g id="edge4" class="edge">
<title>Node2&#45;&gt;Node5</title>
<path fill="none" stroke="midnightblue" d="M290.55,-54.94C312.76,-48.79 342.31,-40.61 368.73,-33.29"/>
<polygon fill="midnightblue" stroke="midnightblue" points="369.98,-36.58 378.68,-30.54 368.11,-29.83 369.98,-36.58"/>
</g>
<!-- Node6 -->
<g id="node6" class="node">
<title>Node6</title>
<g id="a_node6"><a xlink:href="structStarParameter.html#aea025c8bebdf452c1dbccb99a18c770b" target="_top" xlink:title="print titles of class members using column style">
<polygon fill="white" stroke="black" points="552,-0.5 552,-30.5 704,-30.5 704,-0.5 552,-0.5"/>
<text text-anchor="start" x="560" y="-18.5" font-family="Helvetica,sans-Serif" font-size="10.00">StarParameter::printColumn</text>
<text text-anchor="middle" x="628" y="-7.5" font-family="Helvetica,sans-Serif" font-size="10.00">Title</text>
</a>
</g>
</g>
<!-- Node5&#45;&gt;Node6 -->
<g id="edge5" class="edge">
<title>Node5&#45;&gt;Node6</title>
<path fill="none" stroke="midnightblue" d="M505.68,-15.5C517.45,-15.5 529.78,-15.5 541.87,-15.5"/>
<polygon fill="midnightblue" stroke="midnightblue" points="541.96,-19 551.96,-15.5 541.96,-12 541.96,-19"/>
</g>
</g>
</svg>
