<?xml version="1.0" encoding="UTF-8" standalone="no"?>
<!DOCTYPE svg PUBLIC "-//W3C//DTD SVG 1.1//EN"
 "http://www.w3.org/Graphics/SVG/1.1/DTD/svg11.dtd">
<!-- Generated by graphviz version 2.43.0 (0)
 -->
<!-- Title: GalpyManager::evolveChangingArguments Pages: 1 -->
<svg width="465pt" height="39pt"
 viewBox="0.00 0.00 465.00 39.00" xmlns="http://www.w3.org/2000/svg" xmlns:xlink="http://www.w3.org/1999/xlink">
<g id="graph0" class="graph" transform="scale(1 1) rotate(0) translate(4 35)">
<title>GalpyManager::evolveChangingArguments</title>
<polygon fill="white" stroke="transparent" points="-4,4 -4,-35 461,-35 461,4 -4,4"/>
<!-- Node1 -->
<g id="node1" class="node">
<title>Node1</title>
<g id="a_node1"><a xlink:title="calculate new arguments for changing potentials">
<polygon fill="#bfbfbf" stroke="black" points="284,-0.5 284,-30.5 457,-30.5 457,-0.5 284,-0.5"/>
<text text-anchor="start" x="292" y="-18.5" font-family="Helvetica,sans-Serif" font-size="10.00">GalpyManager::evolveChanging</text>
<text text-anchor="middle" x="370.5" y="-7.5" font-family="Helvetica,sans-Serif" font-size="10.00">Arguments</text>
</a>
</g>
</g>
<!-- Node2 -->
<g id="node2" class="node">
<title>Node2</title>
<g id="a_node2"><a xlink:href="classGalpyManager.html#a2b9c41229c1b4a6d5c06e18017298357" target="_top" xlink:title="Update Potential types and arguments based on time.">
<polygon fill="white" stroke="black" points="77,-6 77,-25 248,-25 248,-6 77,-6"/>
<text text-anchor="middle" x="162.5" y="-13" font-family="Helvetica,sans-Serif" font-size="10.00">GalpyManager::updatePotential</text>
</a>
</g>
</g>
<!-- Node1&#45;&gt;Node2 -->
<g id="edge1" class="edge">
<title>Node1&#45;&gt;Node2</title>
<path fill="none" stroke="midnightblue" d="M273.89,-15.5C265.29,-15.5 256.63,-15.5 248.14,-15.5"/>
<polygon fill="midnightblue" stroke="midnightblue" points="273.93,-19 283.93,-15.5 273.93,-12 273.93,-19"/>
</g>
<!-- Node3 -->
<g id="node3" class="node">
<title>Node3</title>
<g id="a_node3"><a xlink:href="galpy__test_8cxx.html#a3c04138a5bfe5d72780bb7e82a18e627" target="_top" xlink:title=" ">
<polygon fill="white" stroke="black" points="0,-6 0,-25 41,-25 41,-6 0,-6"/>
<text text-anchor="middle" x="20.5" y="-13" font-family="Helvetica,sans-Serif" font-size="10.00">main</text>
</a>
</g>
</g>
<!-- Node2&#45;&gt;Node3 -->
<g id="edge2" class="edge">
<title>Node2&#45;&gt;Node3</title>
<path fill="none" stroke="midnightblue" d="M66.68,-15.5C57.16,-15.5 48.33,-15.5 41.06,-15.5"/>
<polygon fill="midnightblue" stroke="midnightblue" points="66.83,-19 76.83,-15.5 66.83,-12 66.83,-19"/>
</g>
</g>
</svg>
