<?xml version="1.0" encoding="UTF-8" standalone="no"?>
<!DOCTYPE svg PUBLIC "-//W3C//DTD SVG 1.1//EN"
 "http://www.w3.org/Graphics/SVG/1.1/DTD/svg11.dtd">
<!-- Generated by graphviz version 2.43.0 (0)
 -->
<!-- Title: ArtificialParticleManager::getIndexOffsetCM Pages: 1 -->
<!--zoomable 186 -->
<svg id="main" version="1.1" xmlns="http://www.w3.org/2000/svg" xmlns:xlink="http://www.w3.org/1999/xlink" xml:space="preserve" onload="init(evt)">
<style type="text/css"><![CDATA[
.edge:hover path { stroke: red; }
.edge:hover polygon { stroke: red; fill: red; }
]]></style>
<script type="text/javascript"><![CDATA[
var edges = document.getElementsByTagName('g');
if (edges && edges.length) {
  for (var i=0;i<edges.length;i++) {
    if (edges[i].id.substr(0,4)=='edge') {
      edges[i].setAttribute('class','edge');
    }
  }
}
]]></script>
        <defs>
                <circle id="rim" cx="0" cy="0" r="7"/>
                <circle id="rim2" cx="0" cy="0" r="3.5"/>
                <g id="zoomPlus">
                        <use xlink:href="#rim" fill="#404040">
                                <set attributeName="fill" to="#808080" begin="zoomplus.mouseover" end="zoomplus.mouseout"/>
                        </use>
                        <path d="M-4,0h8M0,-4v8" fill="none" stroke="white" stroke-width="1.5" pointer-events="none"/>
                </g>
                <g id="zoomMin">
                        <use xlink:href="#rim" fill="#404040">
                                <set attributeName="fill" to="#808080" begin="zoomminus.mouseover" end="zoomminus.mouseout"/>
                        </use>
                        <path d="M-4,0h8" fill="none" stroke="white" stroke-width="1.5" pointer-events="none"/>
                </g>
                <g id="dirArrow">
                        <path fill="none" stroke="white" stroke-width="1.5" d="M0,-3.0v7 M-2.5,-0.5L0,-3.0L2.5,-0.5"/>
                </g>
               <g id="resetDef">
                       <use xlink:href="#rim2" fill="#404040">
                               <set attributeName="fill" to="#808080" begin="reset.mouseover" end="reset.mouseout"/>
                       </use>
               </g>
        </defs>

<script type="text/javascript">
var viewWidth = 699;
var viewHeight = 186;
var sectionId = 'dynsection-13';
</script>
<script xlink:href="svgpan.js"/>
<svg id="graph" class="graph">
<g id="viewport">
<title>ArtificialParticleManager::getIndexOffsetCM</title>
<polygon fill="white" stroke="transparent" points="-4,4 -4,-182 695,-182 695,4 -4,4"/>
<!-- Node1 -->
<g id="node1" class="node">
<title>Node1</title>
<g id="a_node1"><a xlink:title="CM particle index offset.">
<polygon fill="#bfbfbf" stroke="black" points="555,-73.5 555,-103.5 691,-103.5 691,-73.5 555,-73.5"/>
<text text-anchor="start" x="563" y="-91.5" font-family="Helvetica,sans-Serif" font-size="10.00">ArtificialParticleManager</text>
<text text-anchor="middle" x="623" y="-80.5" font-family="Helvetica,sans-Serif" font-size="10.00">::getIndexOffsetCM</text>
</a>
</g>
</g>
<!-- Node2 -->
<g id="node2" class="node">
<title>Node2</title>
<g id="a_node2"><a xlink:href="classArtificialParticleManager.html#af3f6cdb0c22cffa6a12cc47fa32f79fa" target="_top" xlink:title="create artificial particles">
<polygon fill="white" stroke="black" points="383,-147.5 383,-177.5 519,-177.5 519,-147.5 383,-147.5"/>
<text text-anchor="start" x="391" y="-165.5" font-family="Helvetica,sans-Serif" font-size="10.00">ArtificialParticleManager</text>
<text text-anchor="middle" x="451" y="-154.5" font-family="Helvetica,sans-Serif" font-size="10.00">::createArtificialParticles</text>
</a>
</g>
</g>
<!-- Node1&#45;&gt;Node2 -->
<g id="edge1" class="edge">
<title>Node1&#45;&gt;Node2</title>
<path fill="none" stroke="midnightblue" d="M584.03,-108.15C564.78,-117.8 540.89,-129.3 519,-138.5 511.71,-141.56 503.88,-144.6 496.23,-147.42"/>
<polygon fill="midnightblue" stroke="midnightblue" points="585.73,-111.21 593.08,-103.58 582.58,-104.96 585.73,-111.21"/>
</g>
<!-- Node3 -->
<g id="node3" class="node">
<title>Node3</title>
<g id="a_node3"><a xlink:href="classArtificialParticleManager.html#ae34d1849537dc540ecef80423d9bfe98" target="_top" xlink:title="get center of mass id">
<polygon fill="white" stroke="black" points="383,-98.5 383,-128.5 519,-128.5 519,-98.5 383,-98.5"/>
<text text-anchor="start" x="391" y="-116.5" font-family="Helvetica,sans-Serif" font-size="10.00">ArtificialParticleManager</text>
<text text-anchor="middle" x="451" y="-105.5" font-family="Helvetica,sans-Serif" font-size="10.00">::getCMID</text>
</a>
</g>
</g>
<!-- Node1&#45;&gt;Node3 -->
<g id="edge2" class="edge">
<title>Node1&#45;&gt;Node3</title>
<path fill="none" stroke="midnightblue" d="M544.85,-99.85C536.31,-101.1 527.66,-102.37 519.26,-103.61"/>
<polygon fill="midnightblue" stroke="midnightblue" points="545.43,-103.3 554.81,-98.38 544.41,-96.37 545.43,-103.3"/>
</g>
<!-- Node4 -->
<g id="node4" class="node">
<title>Node4</title>
<g id="a_node4"><a xlink:href="classArtificialParticleManager.html#ac3c6685d320c92bc37b697d6cd791db0" target="_top" xlink:title="get c.m. particle list address from a artificial particle array">
<polygon fill="white" stroke="black" points="383,-49.5 383,-79.5 519,-79.5 519,-49.5 383,-49.5"/>
<text text-anchor="start" x="391" y="-67.5" font-family="Helvetica,sans-Serif" font-size="10.00">ArtificialParticleManager</text>
<text text-anchor="middle" x="451" y="-56.5" font-family="Helvetica,sans-Serif" font-size="10.00">::getCMParticles</text>
</a>
</g>
</g>
<!-- Node1&#45;&gt;Node4 -->
<g id="edge3" class="edge">
<title>Node1&#45;&gt;Node4</title>
<path fill="none" stroke="midnightblue" d="M544.85,-77.61C536.31,-76.4 527.66,-75.18 519.26,-74"/>
<polygon fill="midnightblue" stroke="midnightblue" points="544.42,-81.08 554.81,-79.01 545.4,-74.15 544.42,-81.08"/>
</g>
<!-- Node8 -->
<g id="node8" class="node">
<title>Node8</title>
<g id="a_node8"><a xlink:href="classArtificialParticleManager.html#a19a8664675a9c697bf5331ee598f854f" target="_top" xlink:title="get member number">
<polygon fill="white" stroke="black" points="383,-0.5 383,-30.5 519,-30.5 519,-0.5 383,-0.5"/>
<text text-anchor="start" x="391" y="-18.5" font-family="Helvetica,sans-Serif" font-size="10.00">ArtificialParticleManager</text>
<text text-anchor="middle" x="451" y="-7.5" font-family="Helvetica,sans-Serif" font-size="10.00">::getMemberN</text>
</a>
</g>
</g>
<!-- Node1&#45;&gt;Node8 -->
<g id="edge7" class="edge">
<title>Node1&#45;&gt;Node8</title>
<path fill="none" stroke="midnightblue" d="M581.97,-68.95C563.03,-59.93 540.02,-49.3 519,-40.5 510.98,-37.14 502.34,-33.75 494.02,-30.6"/>
<polygon fill="midnightblue" stroke="midnightblue" points="580.65,-72.2 591.18,-73.36 583.68,-65.89 580.65,-72.2"/>
</g>
<!-- Node5 -->
<g id="node5" class="node">
<title>Node5</title>
<g id="a_node5"><a xlink:href="classArtificialParticleManager.html#abce1a403342631a9f4042213a71b9867" target="_top" xlink:title="correct artificial particles force for furture use">
<polygon fill="white" stroke="black" points="191,-73.5 191,-103.5 347,-103.5 347,-73.5 191,-73.5"/>
<text text-anchor="start" x="199" y="-91.5" font-family="Helvetica,sans-Serif" font-size="10.00">ArtificialParticleManager</text>
<text text-anchor="middle" x="269" y="-80.5" font-family="Helvetica,sans-Serif" font-size="10.00">::correctArtficialParticleForce</text>
</a>
</g>
</g>
<!-- Node4&#45;&gt;Node5 -->
<g id="edge4" class="edge">
<title>Node4&#45;&gt;Node5</title>
<path fill="none" stroke="midnightblue" d="M372.99,-74.77C364.41,-75.91 355.67,-77.08 347.09,-78.22"/>
<polygon fill="midnightblue" stroke="midnightblue" points="373.52,-78.23 382.97,-73.44 372.6,-71.29 373.52,-78.23"/>
</g>
<!-- Node7 -->
<g id="node7" class="node">
<title>Node7</title>
<g id="a_node7"><a xlink:href="classArtificialParticleManager.html#a849acb19588a63ec450f606fd1bead3d" target="_top" xlink:title="correct orbit&#45;samping/pseudo particles force">
<polygon fill="white" stroke="black" points="193,-24.5 193,-54.5 345,-54.5 345,-24.5 193,-24.5"/>
<text text-anchor="start" x="201" y="-42.5" font-family="Helvetica,sans-Serif" font-size="10.00">ArtificialParticleManager</text>
<text text-anchor="middle" x="269" y="-31.5" font-family="Helvetica,sans-Serif" font-size="10.00">::correctOrbitalParticleForce</text>
</a>
</g>
</g>
<!-- Node4&#45;&gt;Node7 -->
<g id="edge6" class="edge">
<title>Node4&#45;&gt;Node7</title>
<path fill="none" stroke="midnightblue" d="M373.07,-53.81C363.85,-52.53 354.45,-51.23 345.26,-49.95"/>
<polygon fill="midnightblue" stroke="midnightblue" points="372.59,-57.28 382.97,-55.19 373.55,-50.35 372.59,-57.28"/>
</g>
<!-- Node6 -->
<g id="node6" class="node">
<title>Node6</title>
<g id="a_node6"><a xlink:href="classSystemHard.html#aaae0c65a7caa9679827b980b9e9f3c89" target="_top" xlink:title="Soft force correction due to different cut&#45;off function.">
<polygon fill="white" stroke="black" points="0,-73.5 0,-103.5 155,-103.5 155,-73.5 0,-73.5"/>
<text text-anchor="start" x="8" y="-91.5" font-family="Helvetica,sans-Serif" font-size="10.00">SystemHard::correctForce</text>
<text text-anchor="middle" x="77.5" y="-80.5" font-family="Helvetica,sans-Serif" font-size="10.00">WithCutoffTreeNeighborOMP</text>
</a>
</g>
</g>
<!-- Node5&#45;&gt;Node6 -->
<g id="edge5" class="edge">
<title>Node5&#45;&gt;Node6</title>
<path fill="none" stroke="midnightblue" d="M180.91,-88.5C172.33,-88.5 163.67,-88.5 155.2,-88.5"/>
<polygon fill="midnightblue" stroke="midnightblue" points="180.92,-92 190.92,-88.5 180.92,-85 180.92,-92"/>
</g>
</g>
</svg>
        <g id="navigator" transform="translate(0 0)" fill="#404254">
                <rect fill="#f2f5e9" fill-opacity="0.5" stroke="#606060" stroke-width=".5" x="0" y="0" width="60" height="60"/>
                <use id="zoomplus" xlink:href="#zoomPlus" x="17" y="9" onmousedown="handleZoom(evt,'in')"/>
                <use id="zoomminus" xlink:href="#zoomMin" x="42" y="9" onmousedown="handleZoom(evt,'out')"/>
                <use id="reset" xlink:href="#resetDef" x="30" y="36" onmousedown="handleReset()"/>
                <g id="arrowUp" xlink:href="#dirArrow" transform="translate(30 24)" onmousedown="handlePan(0,-1)">
                  <use xlink:href="#rim" fill="#404040">
                        <set attributeName="fill" to="#808080" begin="arrowUp.mouseover" end="arrowUp.mouseout"/>
                  </use>
                  <path fill="none" stroke="white" stroke-width="1.5" d="M0,-3.0v7 M-2.5,-0.5L0,-3.0L2.5,-0.5"/>
                </g>
                <g id="arrowRight" xlink:href="#dirArrow" transform="rotate(90) translate(36 -43)" onmousedown="handlePan(1,0)">
                  <use xlink:href="#rim" fill="#404040">
                        <set attributeName="fill" to="#808080" begin="arrowRight.mouseover" end="arrowRight.mouseout"/>
                  </use>
                  <path fill="none" stroke="white" stroke-width="1.5" d="M0,-3.0v7 M-2.5,-0.5L0,-3.0L2.5,-0.5"/>
                </g>
                <g id="arrowDown" xlink:href="#dirArrow" transform="rotate(180) translate(-30 -48)" onmousedown="handlePan(0,1)">
                  <use xlink:href="#rim" fill="#404040">
                        <set attributeName="fill" to="#808080" begin="arrowDown.mouseover" end="arrowDown.mouseout"/>
                  </use>
                  <path fill="none" stroke="white" stroke-width="1.5" d="M0,-3.0v7 M-2.5,-0.5L0,-3.0L2.5,-0.5"/>
                </g>
                <g id="arrowLeft" xlink:href="#dirArrow" transform="rotate(270) translate(-36 17)" onmousedown="handlePan(-1,0)">
                  <use xlink:href="#rim" fill="#404040">
                        <set attributeName="fill" to="#808080" begin="arrowLeft.mouseover" end="arrowLeft.mouseout"/>
                  </use>
                  <path fill="none" stroke="white" stroke-width="1.5" d="M0,-3.0v7 M-2.5,-0.5L0,-3.0L2.5,-0.5"/>
                </g>
        </g>
        <svg viewBox="0 0 15 15" width="100%" height="30px" preserveAspectRatio="xMaxYMin meet">
         <g id="arrow_out" transform="scale(0.3 0.3)">
          <a xlink:href="classArtificialParticleManager_a38ed6b2904a13aa7928ce5a7d694abd0_icgraph_org.svg" target="_base">
           <rect id="button" ry="5" rx="5" y="6" x="6" height="38" width="38"
                fill="#f2f5e9" fill-opacity="0.5" stroke="#606060" stroke-width="1.0"/>
           <path id="arrow"
             d="M 11.500037,31.436501 C 11.940474,20.09759 22.043105,11.32322 32.158766,21.979434 L 37.068811,17.246167 C 37.068811,17.246167 37.088388,32 37.088388,32 L 22.160133,31.978069 C 22.160133,31.978069 26.997745,27.140456 26.997745,27.140456 C 18.528582,18.264221 13.291696,25.230495 11.500037,31.436501 z"
             style="fill:#404040;"/>
          </a>
         </g>
        </svg>
</svg>
