<?xml version="1.0" encoding="UTF-8" standalone="no"?>
<!DOCTYPE svg PUBLIC "-//W3C//DTD SVG 1.1//EN"
 "http://www.w3.org/Graphics/SVG/1.1/DTD/svg11.dtd">
<!-- Generated by graphviz version 2.43.0 (0)
 -->
<!-- Title: ArtificialParticleManager::getIndexOffsetOrb Pages: 1 -->
<svg width="504pt" height="88pt"
 viewBox="0.00 0.00 504.00 88.00" xmlns="http://www.w3.org/2000/svg" xmlns:xlink="http://www.w3.org/1999/xlink">
<g id="graph0" class="graph" transform="scale(1 1) rotate(0) translate(4 84)">
<title>ArtificialParticleManager::getIndexOffsetOrb</title>
<polygon fill="white" stroke="transparent" points="-4,4 -4,-84 500,-84 500,4 -4,4"/>
<!-- Node1 -->
<g id="node1" class="node">
<title>Node1</title>
<g id="a_node1"><a xlink:title="orbital/pseudo particle index offset">
<polygon fill="#bfbfbf" stroke="black" points="360,-24.5 360,-54.5 496,-54.5 496,-24.5 360,-24.5"/>
<text text-anchor="start" x="368" y="-42.5" font-family="Helvetica,sans-Serif" font-size="10.00">ArtificialParticleManager</text>
<text text-anchor="middle" x="428" y="-31.5" font-family="Helvetica,sans-Serif" font-size="10.00">::getIndexOffsetOrb</text>
</a>
</g>
</g>
<!-- Node2 -->
<g id="node2" class="node">
<title>Node2</title>
<g id="a_node2"><a xlink:href="classArtificialParticleManager.html#af3f6cdb0c22cffa6a12cc47fa32f79fa" target="_top" xlink:title="create artificial particles">
<polygon fill="white" stroke="black" points="188,-49.5 188,-79.5 324,-79.5 324,-49.5 188,-49.5"/>
<text text-anchor="start" x="196" y="-67.5" font-family="Helvetica,sans-Serif" font-size="10.00">ArtificialParticleManager</text>
<text text-anchor="middle" x="256" y="-56.5" font-family="Helvetica,sans-Serif" font-size="10.00">::createArtificialParticles</text>
</a>
</g>
</g>
<!-- Node1&#45;&gt;Node2 -->
<g id="edge1" class="edge">
<title>Node1&#45;&gt;Node2</title>
<path fill="none" stroke="midnightblue" d="M349.85,-50.85C341.31,-52.1 332.66,-53.37 324.26,-54.61"/>
<polygon fill="midnightblue" stroke="midnightblue" points="350.43,-54.3 359.81,-49.38 349.41,-47.37 350.43,-54.3"/>
</g>
<!-- Node3 -->
<g id="node3" class="node">
<title>Node3</title>
<g id="a_node3"><a xlink:href="classArtificialParticleManager.html#aed984927e871b5aec2948fdcb3ff44f9" target="_top" xlink:title="get oribit/pseudo particle list address from a artificial particle array">
<polygon fill="white" stroke="black" points="188,-0.5 188,-30.5 324,-30.5 324,-0.5 188,-0.5"/>
<text text-anchor="start" x="196" y="-18.5" font-family="Helvetica,sans-Serif" font-size="10.00">ArtificialParticleManager</text>
<text text-anchor="middle" x="256" y="-7.5" font-family="Helvetica,sans-Serif" font-size="10.00">::getOrbitalParticles</text>
</a>
</g>
</g>
<!-- Node1&#45;&gt;Node3 -->
<g id="edge2" class="edge">
<title>Node1&#45;&gt;Node3</title>
<path fill="none" stroke="midnightblue" d="M349.85,-28.61C341.31,-27.4 332.66,-26.18 324.26,-25"/>
<polygon fill="midnightblue" stroke="midnightblue" points="349.42,-32.08 359.81,-30.01 350.4,-25.15 349.42,-32.08"/>
</g>
<!-- Node4 -->
<g id="node4" class="node">
<title>Node4</title>
<g id="a_node4"><a xlink:href="classArtificialParticleManager.html#a849acb19588a63ec450f606fd1bead3d" target="_top" xlink:title="correct orbit&#45;samping/pseudo particles force">
<polygon fill="white" stroke="black" points="0,-0.5 0,-30.5 152,-30.5 152,-0.5 0,-0.5"/>
<text text-anchor="start" x="8" y="-18.5" font-family="Helvetica,sans-Serif" font-size="10.00">ArtificialParticleManager</text>
<text text-anchor="middle" x="76" y="-7.5" font-family="Helvetica,sans-Serif" font-size="10.00">::correctOrbitalParticleForce</text>
</a>
</g>
</g>
<!-- Node3&#45;&gt;Node4 -->
<g id="edge3" class="edge">
<title>Node3&#45;&gt;Node4</title>
<path fill="none" stroke="midnightblue" d="M177.96,-15.5C169.36,-15.5 160.61,-15.5 152.04,-15.5"/>
<polygon fill="midnightblue" stroke="midnightblue" points="177.96,-19 187.96,-15.5 177.96,-12 177.96,-19"/>
</g>
</g>
</svg>
