<?xml version="1.0" encoding="UTF-8" standalone="no"?>
<!DOCTYPE svg PUBLIC "-//W3C//DTD SVG 1.1//EN"
 "http://www.w3.org/Graphics/SVG/1.1/DTD/svg11.dtd">
<!-- Generated by graphviz version 2.43.0 (0)
 -->
<!-- Title: TwoBodyTide::calcEtidPolynomicalFit Pages: 1 -->
<svg width="462pt" height="39pt"
 viewBox="0.00 0.00 462.00 39.00" xmlns="http://www.w3.org/2000/svg" xmlns:xlink="http://www.w3.org/1999/xlink">
<g id="graph0" class="graph" transform="scale(1 1) rotate(0) translate(4 35)">
<title>TwoBodyTide::calcEtidPolynomicalFit</title>
<polygon fill="white" stroke="transparent" points="-4,4 -4,-35 458,-35 458,4 -4,4"/>
<!-- Node1 -->
<g id="node1" class="node">
<title>Node1</title>
<g id="a_node1"><a xlink:title="Tidal energy based on Polynomical fits from Portegies Zwart et al. 1993.">
<polygon fill="#bfbfbf" stroke="black" points="257,-6 257,-25 454,-25 454,-6 257,-6"/>
<text text-anchor="middle" x="355.5" y="-13" font-family="Helvetica,sans-Serif" font-size="10.00">TwoBodyTide::calcEtidPolynomicalFit</text>
</a>
</g>
</g>
<!-- Node2 -->
<g id="node2" class="node">
<title>Node2</title>
<g id="a_node2"><a xlink:href="classTwoBodyTide.html#a6ae9149abd098b3687ca1d2c2550600d" target="_top" xlink:title="evolve two&#45;body orbit based on dynamical tide implementation from Alessandro Alberto Trani">
<polygon fill="white" stroke="black" points="77,-0.5 77,-30.5 221,-30.5 221,-0.5 77,-0.5"/>
<text text-anchor="start" x="85" y="-18.5" font-family="Helvetica,sans-Serif" font-size="10.00">TwoBodyTide::evolveOrbit</text>
<text text-anchor="middle" x="149" y="-7.5" font-family="Helvetica,sans-Serif" font-size="10.00">DynamicalTide</text>
</a>
</g>
</g>
<!-- Node1&#45;&gt;Node2 -->
<g id="edge1" class="edge">
<title>Node1&#45;&gt;Node2</title>
<path fill="none" stroke="midnightblue" d="M246.6,-15.5C237.97,-15.5 229.39,-15.5 221.11,-15.5"/>
<polygon fill="midnightblue" stroke="midnightblue" points="246.74,-19 256.74,-15.5 246.74,-12 246.74,-19"/>
</g>
<!-- Node3 -->
<g id="node3" class="node">
<title>Node3</title>
<g id="a_node3"><a xlink:href="tide__test_8cxx.html#a3c04138a5bfe5d72780bb7e82a18e627" target="_top" xlink:title=" ">
<polygon fill="white" stroke="black" points="0,-6 0,-25 41,-25 41,-6 0,-6"/>
<text text-anchor="middle" x="20.5" y="-13" font-family="Helvetica,sans-Serif" font-size="10.00">main</text>
</a>
</g>
</g>
<!-- Node2&#45;&gt;Node3 -->
<g id="edge2" class="edge">
<title>Node2&#45;&gt;Node3</title>
<path fill="none" stroke="midnightblue" d="M66.92,-15.5C57.43,-15.5 48.52,-15.5 41.15,-15.5"/>
<polygon fill="midnightblue" stroke="midnightblue" points="66.98,-19 76.98,-15.5 66.98,-12 66.98,-19"/>
</g>
</g>
</svg>
