<?xml version="1.0" encoding="UTF-8" standalone="no"?>
<!DOCTYPE svg PUBLIC "-//W3C//DTD SVG 1.1//EN"
 "http://www.w3.org/Graphics/SVG/1.1/DTD/svg11.dtd">
<!-- Generated by graphviz version 2.43.0 (0)
 -->
<!-- Title: IOParamsHardTest Pages: 1 -->
<!--zoomable 172 -->
<svg id="main" version="1.1" xmlns="http://www.w3.org/2000/svg" xmlns:xlink="http://www.w3.org/1999/xlink" xml:space="preserve" onload="init(evt)">
<style type="text/css"><![CDATA[
.edge:hover path { stroke: red; }
.edge:hover polygon { stroke: red; fill: red; }
]]></style>
<script type="text/javascript"><![CDATA[
var edges = document.getElementsByTagName('g');
if (edges && edges.length) {
  for (var i=0;i<edges.length;i++) {
    if (edges[i].id.substr(0,4)=='edge') {
      edges[i].setAttribute('class','edge');
    }
  }
}
]]></script>
        <defs>
                <circle id="rim" cx="0" cy="0" r="7"/>
                <circle id="rim2" cx="0" cy="0" r="3.5"/>
                <g id="zoomPlus">
                        <use xlink:href="#rim" fill="#404040">
                                <set attributeName="fill" to="#808080" begin="zoomplus.mouseover" end="zoomplus.mouseout"/>
                        </use>
                        <path d="M-4,0h8M0,-4v8" fill="none" stroke="white" stroke-width="1.5" pointer-events="none"/>
                </g>
                <g id="zoomMin">
                        <use xlink:href="#rim" fill="#404040">
                                <set attributeName="fill" to="#808080" begin="zoomminus.mouseover" end="zoomminus.mouseout"/>
                        </use>
                        <path d="M-4,0h8" fill="none" stroke="white" stroke-width="1.5" pointer-events="none"/>
                </g>
                <g id="dirArrow">
                        <path fill="none" stroke="white" stroke-width="1.5" d="M0,-3.0v7 M-2.5,-0.5L0,-3.0L2.5,-0.5"/>
                </g>
               <g id="resetDef">
                       <use xlink:href="#rim2" fill="#404040">
                               <set attributeName="fill" to="#808080" begin="reset.mouseover" end="reset.mouseout"/>
                       </use>
               </g>
        </defs>

<script type="text/javascript">
var viewWidth = 550;
var viewHeight = 172;
var sectionId = 'dynsection-0';
</script>
<script xlink:href="svgpan.js"/>
<svg id="graph" class="graph">
<g id="viewport">
<title>IOParamsHardTest</title>
<polygon fill="white" stroke="transparent" points="-4,4 -4,-168 546,-168 546,4 -4,4"/>
<!-- Node1 -->
<g id="node1" class="node">
<title>Node1</title>
<g id="a_node1"><a xlink:title=" ">
<polygon fill="#bfbfbf" stroke="black" points="215,-0.5 215,-19.5 321,-19.5 321,-0.5 215,-0.5"/>
<text text-anchor="middle" x="268" y="-7.5" font-family="Helvetica,sans-Serif" font-size="10.00">IOParamsHardTest</text>
</a>
</g>
</g>
<!-- Node2 -->
<g id="node2" class="node">
<title>Node2</title>
<g id="a_node2"><a xlink:href="classIOParamsContainer.html" target="_top" xlink:title="IO Params container.">
<polygon fill="white" stroke="black" points="0,-144.5 0,-163.5 110,-163.5 110,-144.5 0,-144.5"/>
<text text-anchor="middle" x="55" y="-151.5" font-family="Helvetica,sans-Serif" font-size="10.00">IOParamsContainer</text>
</a>
</g>
</g>
<!-- Node2&#45;&gt;Node1 -->
<g id="edge1" class="edge">
<title>Node2&#45;&gt;Node1</title>
<path fill="none" stroke="#9a32cd" stroke-dasharray="5,2" d="M60.96,-134.67C70.39,-108.74 91.33,-61.86 126,-38 140.32,-28.15 180.7,-21.05 214.76,-16.62"/>
<polygon fill="#9a32cd" stroke="#9a32cd" points="57.56,-133.78 57.61,-144.37 64.18,-136.06 57.56,-133.78"/>
<text text-anchor="middle" x="165.5" y="-79.5" font-family="Helvetica,sans-Serif" font-size="10.00"> input_par_store</text>
</g>
<!-- Node3 -->
<g id="node3" class="node">
<title>Node3</title>
<g id="a_node3"><a xlink:href="structIOParams.html" target="_top" xlink:title=" ">
<polygon fill="white" stroke="black" points="128,-144.5 128,-163.5 262,-163.5 262,-144.5 128,-144.5"/>
<text text-anchor="middle" x="195" y="-151.5" font-family="Helvetica,sans-Serif" font-size="10.00">IOParams&lt; std::string &gt;</text>
</a>
</g>
</g>
<!-- Node3&#45;&gt;Node1 -->
<g id="edge2" class="edge">
<title>Node3&#45;&gt;Node1</title>
<path fill="none" stroke="#9a32cd" stroke-dasharray="5,2" d="M204.29,-134.92C220.19,-104 252,-42.12 263.62,-19.52"/>
<polygon fill="#9a32cd" stroke="#9a32cd" points="201.03,-133.62 199.57,-144.12 207.25,-136.82 201.03,-133.62"/>
<text text-anchor="middle" x="282.5" y="-79.5" font-family="Helvetica,sans-Serif" font-size="10.00"> fname_inp</text>
</g>
<!-- Node4 -->
<g id="node4" class="node">
<title>Node4</title>
<g id="a_node4"><a xlink:href="structIOParams.html" target="_top" xlink:title=" ">
<polygon fill="white" stroke="black" points="280,-144.5 280,-163.5 402,-163.5 402,-144.5 280,-144.5"/>
<text text-anchor="middle" x="341" y="-151.5" font-family="Helvetica,sans-Serif" font-size="10.00">IOParams&lt; PS::S64 &gt;</text>
</a>
</g>
</g>
<!-- Node4&#45;&gt;Node1 -->
<g id="edge3" class="edge">
<title>Node4&#45;&gt;Node1</title>
<path fill="none" stroke="#9a32cd" stroke-dasharray="5,2" d="M340.99,-134.16C340.06,-109.72 335.22,-66.78 314,-38 308.07,-29.95 298.95,-23.89 290.4,-19.57"/>
<polygon fill="#9a32cd" stroke="#9a32cd" points="337.49,-134.33 341.18,-144.26 344.49,-134.19 337.49,-134.33"/>
<text text-anchor="middle" x="345" y="-79.5" font-family="Helvetica,sans-Serif" font-size="10.00"> n</text>
</g>
<!-- Node5 -->
<g id="node5" class="node">
<title>Node5</title>
<g id="a_node5"><a xlink:href="structIOParams.html" target="_top" xlink:title=" ">
<polygon fill="white" stroke="black" points="420,-144.5 420,-163.5 542,-163.5 542,-144.5 420,-144.5"/>
<text text-anchor="middle" x="481" y="-151.5" font-family="Helvetica,sans-Serif" font-size="10.00">IOParams&lt; PS::F64 &gt;</text>
</a>
</g>
</g>
<!-- Node5&#45;&gt;Node1 -->
<g id="edge4" class="edge">
<title>Node5&#45;&gt;Node1</title>
<path fill="none" stroke="#9a32cd" stroke-dasharray="5,2" d="M467.25,-136.67C445.59,-111.93 401.1,-64.97 354,-38 339.74,-29.84 322.71,-23.83 307.58,-19.58"/>
<polygon fill="#9a32cd" stroke="#9a32cd" points="464.75,-139.13 473.93,-144.43 470.05,-134.56 464.75,-139.13"/>
<text text-anchor="middle" x="476" y="-118" font-family="Helvetica,sans-Serif" font-size="10.00"> rin</text>
<text text-anchor="middle" x="476" y="-107" font-family="Helvetica,sans-Serif" font-size="10.00">eps</text>
<text text-anchor="middle" x="476" y="-96" font-family="Helvetica,sans-Serif" font-size="10.00">rsearch</text>
<text text-anchor="middle" x="476" y="-85" font-family="Helvetica,sans-Serif" font-size="10.00">dt_limit</text>
<text text-anchor="middle" x="476" y="-74" font-family="Helvetica,sans-Serif" font-size="10.00">rbin</text>
<text text-anchor="middle" x="476" y="-63" font-family="Helvetica,sans-Serif" font-size="10.00">rout</text>
<text text-anchor="middle" x="476" y="-52" font-family="Helvetica,sans-Serif" font-size="10.00">eta</text>
<text text-anchor="middle" x="476" y="-41" font-family="Helvetica,sans-Serif" font-size="10.00">time</text>
</g>
</g>
</svg>
        <g id="navigator" transform="translate(0 0)" fill="#404254">
                <rect fill="#f2f5e9" fill-opacity="0.5" stroke="#606060" stroke-width=".5" x="0" y="0" width="60" height="60"/>
                <use id="zoomplus" xlink:href="#zoomPlus" x="17" y="9" onmousedown="handleZoom(evt,'in')"/>
                <use id="zoomminus" xlink:href="#zoomMin" x="42" y="9" onmousedown="handleZoom(evt,'out')"/>
                <use id="reset" xlink:href="#resetDef" x="30" y="36" onmousedown="handleReset()"/>
                <g id="arrowUp" xlink:href="#dirArrow" transform="translate(30 24)" onmousedown="handlePan(0,-1)">
                  <use xlink:href="#rim" fill="#404040">
                        <set attributeName="fill" to="#808080" begin="arrowUp.mouseover" end="arrowUp.mouseout"/>
                  </use>
                  <path fill="none" stroke="white" stroke-width="1.5" d="M0,-3.0v7 M-2.5,-0.5L0,-3.0L2.5,-0.5"/>
                </g>
                <g id="arrowRight" xlink:href="#dirArrow" transform="rotate(90) translate(36 -43)" onmousedown="handlePan(1,0)">
                  <use xlink:href="#rim" fill="#404040">
                        <set attributeName="fill" to="#808080" begin="arrowRight.mouseover" end="arrowRight.mouseout"/>
                  </use>
                  <path fill="none" stroke="white" stroke-width="1.5" d="M0,-3.0v7 M-2.5,-0.5L0,-3.0L2.5,-0.5"/>
                </g>
                <g id="arrowDown" xlink:href="#dirArrow" transform="rotate(180) translate(-30 -48)" onmousedown="handlePan(0,1)">
                  <use xlink:href="#rim" fill="#404040">
                        <set attributeName="fill" to="#808080" begin="arrowDown.mouseover" end="arrowDown.mouseout"/>
                  </use>
                  <path fill="none" stroke="white" stroke-width="1.5" d="M0,-3.0v7 M-2.5,-0.5L0,-3.0L2.5,-0.5"/>
                </g>
                <g id="arrowLeft" xlink:href="#dirArrow" transform="rotate(270) translate(-36 17)" onmousedown="handlePan(-1,0)">
                  <use xlink:href="#rim" fill="#404040">
                        <set attributeName="fill" to="#808080" begin="arrowLeft.mouseover" end="arrowLeft.mouseout"/>
                  </use>
                  <path fill="none" stroke="white" stroke-width="1.5" d="M0,-3.0v7 M-2.5,-0.5L0,-3.0L2.5,-0.5"/>
                </g>
        </g>
        <svg viewBox="0 0 15 15" width="100%" height="30px" preserveAspectRatio="xMaxYMin meet">
         <g id="arrow_out" transform="scale(0.3 0.3)">
          <a xlink:href="classIOParamsHardTest__coll__graph_org.svg" target="_base">
           <rect id="button" ry="5" rx="5" y="6" x="6" height="38" width="38"
                fill="#f2f5e9" fill-opacity="0.5" stroke="#606060" stroke-width="1.0"/>
           <path id="arrow"
             d="M 11.500037,31.436501 C 11.940474,20.09759 22.043105,11.32322 32.158766,21.979434 L 37.068811,17.246167 C 37.068811,17.246167 37.088388,32 37.088388,32 L 22.160133,31.978069 C 22.160133,31.978069 26.997745,27.140456 26.997745,27.140456 C 18.528582,18.264221 13.291696,25.230495 11.500037,31.436501 z"
             style="fill:#404040;"/>
          </a>
         </g>
        </svg>
</svg>
