<?xml version="1.0" encoding="UTF-8" standalone="no"?>
<!DOCTYPE svg PUBLIC "-//W3C//DTD SVG 1.1//EN"
 "http://www.w3.org/Graphics/SVG/1.1/DTD/svg11.dtd">
<!-- Generated by graphviz version 2.43.0 (0)
 -->
<!-- Title: FRWModel::getDensity Pages: 1 -->
<svg width="348pt" height="142pt"
 viewBox="0.00 0.00 348.00 142.00" xmlns="http://www.w3.org/2000/svg" xmlns:xlink="http://www.w3.org/1999/xlink">
<g id="graph0" class="graph" transform="scale(1 1) rotate(0) translate(4 138)">
<title>FRWModel::getDensity</title>
<polygon fill="white" stroke="transparent" points="-4,4 -4,-138 344,-138 344,4 -4,4"/>
<!-- Node1 -->
<g id="node1" class="node">
<title>Node1</title>
<g id="a_node1"><a xlink:title=" ">
<polygon fill="#bfbfbf" stroke="black" points="0,-57.5 0,-76.5 128,-76.5 128,-57.5 0,-57.5"/>
<text text-anchor="middle" x="64" y="-64.5" font-family="Helvetica,sans-Serif" font-size="10.00">FRWModel::getDensity</text>
</a>
</g>
</g>
<!-- Node2 -->
<g id="node2" class="node">
<title>Node2</title>
<g id="a_node2"><a xlink:href="classFRWModel.html#ac639a14eba5f454ecd905f1e907c8ee4" target="_top" xlink:title=" ">
<polygon fill="white" stroke="black" points="164,-114.5 164,-133.5 340,-133.5 340,-114.5 164,-114.5"/>
<text text-anchor="middle" x="252" y="-121.5" font-family="Helvetica,sans-Serif" font-size="10.00">FRWModel::getCurvatureDensity</text>
</a>
</g>
</g>
<!-- Node1&#45;&gt;Node2 -->
<g id="edge1" class="edge">
<title>Node1&#45;&gt;Node2</title>
<path fill="none" stroke="midnightblue" d="M87.08,-76.58C106.92,-84.93 137.01,-96.93 164,-105 172.7,-107.6 181.99,-110.01 191.14,-112.18"/>
<polygon fill="midnightblue" stroke="midnightblue" points="190.45,-115.61 200.98,-114.43 192.01,-108.79 190.45,-115.61"/>
</g>
<!-- Node3 -->
<g id="node3" class="node">
<title>Node3</title>
<g id="a_node3"><a xlink:href="classFRWModel.html#a747610082f8b89bc7494512925f3d28a" target="_top" xlink:title=" ">
<polygon fill="white" stroke="black" points="171,-76.5 171,-95.5 333,-95.5 333,-76.5 171,-76.5"/>
<text text-anchor="middle" x="252" y="-83.5" font-family="Helvetica,sans-Serif" font-size="10.00">FRWModel::getEnergyDensity</text>
</a>
</g>
</g>
<!-- Node1&#45;&gt;Node3 -->
<g id="edge2" class="edge">
<title>Node1&#45;&gt;Node3</title>
<path fill="none" stroke="midnightblue" d="M128.23,-73.46C138.71,-74.53 149.76,-75.66 160.75,-76.78"/>
<polygon fill="midnightblue" stroke="midnightblue" points="160.52,-80.28 170.82,-77.81 161.23,-73.31 160.52,-80.28"/>
</g>
<!-- Node4 -->
<g id="node4" class="node">
<title>Node4</title>
<g id="a_node4"><a xlink:href="classFRWModel.html#a4e998f4739ff1df966beca89c1e393ed" target="_top" xlink:title=" ">
<polygon fill="white" stroke="black" points="171.5,-38.5 171.5,-57.5 332.5,-57.5 332.5,-38.5 171.5,-38.5"/>
<text text-anchor="middle" x="252" y="-45.5" font-family="Helvetica,sans-Serif" font-size="10.00">FRWModel::getMatterDensity</text>
</a>
</g>
</g>
<!-- Node1&#45;&gt;Node4 -->
<g id="edge3" class="edge">
<title>Node1&#45;&gt;Node4</title>
<path fill="none" stroke="midnightblue" d="M128.23,-60.54C138.87,-59.45 150.1,-58.31 161.26,-57.17"/>
<polygon fill="midnightblue" stroke="midnightblue" points="161.88,-60.62 171.48,-56.12 161.17,-53.66 161.88,-60.62"/>
</g>
<!-- Node5 -->
<g id="node5" class="node">
<title>Node5</title>
<g id="a_node5"><a xlink:href="classFRWModel.html#a80544a319035cb9fe253f2dee3d63d52" target="_top" xlink:title=" ">
<polygon fill="white" stroke="black" points="164.5,-0.5 164.5,-19.5 339.5,-19.5 339.5,-0.5 164.5,-0.5"/>
<text text-anchor="middle" x="252" y="-7.5" font-family="Helvetica,sans-Serif" font-size="10.00">FRWModel::getRadiationDensity</text>
</a>
</g>
</g>
<!-- Node1&#45;&gt;Node5 -->
<g id="edge4" class="edge">
<title>Node1&#45;&gt;Node5</title>
<path fill="none" stroke="midnightblue" d="M87.08,-57.42C106.92,-49.07 137.01,-37.07 164,-29 172.7,-26.4 181.99,-23.99 191.14,-21.82"/>
<polygon fill="midnightblue" stroke="midnightblue" points="192.01,-25.21 200.98,-19.57 190.45,-18.39 192.01,-25.21"/>
</g>
</g>
</svg>
