<?xml version="1.0" encoding="UTF-8" standalone="no"?>
<!DOCTYPE svg PUBLIC "-//W3C//DTD SVG 1.1//EN"
 "http://www.w3.org/Graphics/SVG/1.1/DTD/svg11.dtd">
<!-- Generated by graphviz version 2.43.0 (0)
 -->
<!-- Title: MWPotentialEvolve::calcMWPotentialParameters Pages: 1 -->
<svg width="1046pt" height="142pt"
 viewBox="0.00 0.00 1046.00 142.00" xmlns="http://www.w3.org/2000/svg" xmlns:xlink="http://www.w3.org/1999/xlink">
<g id="graph0" class="graph" transform="scale(1 1) rotate(0) translate(4 138)">
<title>MWPotentialEvolve::calcMWPotentialParameters</title>
<polygon fill="white" stroke="transparent" points="-4,4 -4,-138 1042,-138 1042,4 -4,4"/>
<!-- Node1 -->
<g id="node1" class="node">
<title>Node1</title>
<g id="a_node1"><a xlink:title="calculate MW potential based on the input time">
<polygon fill="#bfbfbf" stroke="black" points="0,-52 0,-82 154,-82 154,-52 0,-52"/>
<text text-anchor="start" x="8" y="-70" font-family="Helvetica,sans-Serif" font-size="10.00">MWPotentialEvolve::</text>
<text text-anchor="middle" x="77" y="-59" font-family="Helvetica,sans-Serif" font-size="10.00">calcMWPotentialParameters</text>
</a>
</g>
</g>
<!-- Node2 -->
<g id="node2" class="node">
<title>Node2</title>
<g id="a_node2"><a xlink:href="classFRWModel.html#a361381626bcc60640134c25e6c7357bb" target="_top" xlink:title=" ">
<polygon fill="white" stroke="black" points="698,-57.5 698,-76.5 826,-76.5 826,-57.5 698,-57.5"/>
<text text-anchor="middle" x="762" y="-64.5" font-family="Helvetica,sans-Serif" font-size="10.00">FRWModel::getDensity</text>
</a>
</g>
</g>
<!-- Node1&#45;&gt;Node2 -->
<g id="edge1" class="edge">
<title>Node1&#45;&gt;Node2</title>
<path fill="none" stroke="midnightblue" d="M154.03,-67C286.23,-67 556.79,-67 687.33,-67"/>
<polygon fill="midnightblue" stroke="midnightblue" points="687.62,-70.5 697.62,-67 687.62,-63.5 687.62,-70.5"/>
</g>
<!-- Node5 -->
<g id="node5" class="node">
<title>Node5</title>
<g id="a_node5"><a xlink:href="classFRWModel.html#a4e998f4739ff1df966beca89c1e393ed" target="_top" xlink:title=" ">
<polygon fill="white" stroke="black" points="869.5,-0.5 869.5,-19.5 1030.5,-19.5 1030.5,-0.5 869.5,-0.5"/>
<text text-anchor="middle" x="950" y="-7.5" font-family="Helvetica,sans-Serif" font-size="10.00">FRWModel::getMatterDensity</text>
</a>
</g>
</g>
<!-- Node1&#45;&gt;Node5 -->
<g id="edge9" class="edge">
<title>Node1&#45;&gt;Node5</title>
<path fill="none" stroke="midnightblue" d="M138.46,-51.95C211.7,-35.06 339.09,-10 450,-10 450,-10 450,-10 604.5,-10 691.01,-10 789.73,-10 859.25,-10"/>
<polygon fill="midnightblue" stroke="midnightblue" points="859.29,-13.5 869.29,-10 859.29,-6.5 859.29,-13.5"/>
</g>
<!-- Node7 -->
<g id="node7" class="node">
<title>Node7</title>
<g id="a_node7"><a xlink:href="classFRWModel.html#a262a19eeb8300f0a59c8555e052cbc27" target="_top" xlink:title="get Hubble constant at current a">
<polygon fill="white" stroke="black" points="402,-114.5 402,-133.5 500,-133.5 500,-114.5 402,-114.5"/>
<text text-anchor="middle" x="451" y="-121.5" font-family="Helvetica,sans-Serif" font-size="10.00">FRWModel::getH</text>
</a>
</g>
</g>
<!-- Node1&#45;&gt;Node7 -->
<g id="edge6" class="edge">
<title>Node1&#45;&gt;Node7</title>
<path fill="none" stroke="midnightblue" d="M114.68,-82.08C136.24,-90.28 164.24,-99.78 190,-105 258.2,-118.83 338.26,-122.9 391.34,-123.95"/>
<polygon fill="midnightblue" stroke="midnightblue" points="391.53,-127.45 401.58,-124.12 391.64,-120.45 391.53,-127.45"/>
</g>
<!-- Node9 -->
<g id="node9" class="node">
<title>Node9</title>
<g id="a_node9"><a xlink:href="classFRWModel.html#a904c7a9d484ab006a8bbbc3f557f6e45" target="_top" xlink:title="update scale factor with maximum time step dt_max (first order Euler method)">
<polygon fill="white" stroke="black" points="190,-76.5 190,-95.5 357,-95.5 357,-76.5 190,-76.5"/>
<text text-anchor="middle" x="273.5" y="-83.5" font-family="Helvetica,sans-Serif" font-size="10.00">FRWModel::updateAwithDtmin</text>
</a>
</g>
</g>
<!-- Node1&#45;&gt;Node9 -->
<g id="edge10" class="edge">
<title>Node1&#45;&gt;Node9</title>
<path fill="none" stroke="midnightblue" d="M154.03,-74.43C162.46,-75.25 171.11,-76.1 179.71,-76.94"/>
<polygon fill="midnightblue" stroke="midnightblue" points="179.47,-80.43 189.76,-77.92 180.15,-73.46 179.47,-80.43"/>
</g>
<!-- Node3 -->
<g id="node3" class="node">
<title>Node3</title>
<g id="a_node3"><a xlink:href="classFRWModel.html#ac639a14eba5f454ecd905f1e907c8ee4" target="_top" xlink:title=" ">
<polygon fill="white" stroke="black" points="862,-76.5 862,-95.5 1038,-95.5 1038,-76.5 862,-76.5"/>
<text text-anchor="middle" x="950" y="-83.5" font-family="Helvetica,sans-Serif" font-size="10.00">FRWModel::getCurvatureDensity</text>
</a>
</g>
</g>
<!-- Node2&#45;&gt;Node3 -->
<g id="edge2" class="edge">
<title>Node2&#45;&gt;Node3</title>
<path fill="none" stroke="midnightblue" d="M826.23,-73.46C834.48,-74.3 843.08,-75.18 851.73,-76.06"/>
<polygon fill="midnightblue" stroke="midnightblue" points="851.59,-79.57 861.89,-77.1 852.3,-72.6 851.59,-79.57"/>
</g>
<!-- Node4 -->
<g id="node4" class="node">
<title>Node4</title>
<g id="a_node4"><a xlink:href="classFRWModel.html#a747610082f8b89bc7494512925f3d28a" target="_top" xlink:title=" ">
<polygon fill="white" stroke="black" points="869,-38.5 869,-57.5 1031,-57.5 1031,-38.5 869,-38.5"/>
<text text-anchor="middle" x="950" y="-45.5" font-family="Helvetica,sans-Serif" font-size="10.00">FRWModel::getEnergyDensity</text>
</a>
</g>
</g>
<!-- Node2&#45;&gt;Node4 -->
<g id="edge3" class="edge">
<title>Node2&#45;&gt;Node4</title>
<path fill="none" stroke="midnightblue" d="M826.23,-60.54C836.71,-59.47 847.76,-58.34 858.75,-57.22"/>
<polygon fill="midnightblue" stroke="midnightblue" points="859.23,-60.69 868.82,-56.19 858.52,-53.72 859.23,-60.69"/>
</g>
<!-- Node2&#45;&gt;Node5 -->
<g id="edge4" class="edge">
<title>Node2&#45;&gt;Node5</title>
<path fill="none" stroke="midnightblue" d="M785.08,-57.42C804.92,-49.07 835.01,-37.07 862,-29 870.7,-26.4 879.99,-23.99 889.14,-21.82"/>
<polygon fill="midnightblue" stroke="midnightblue" points="890.01,-25.21 898.98,-19.57 888.45,-18.39 890.01,-25.21"/>
</g>
<!-- Node6 -->
<g id="node6" class="node">
<title>Node6</title>
<g id="a_node6"><a xlink:href="classFRWModel.html#a80544a319035cb9fe253f2dee3d63d52" target="_top" xlink:title=" ">
<polygon fill="white" stroke="black" points="862.5,-114.5 862.5,-133.5 1037.5,-133.5 1037.5,-114.5 862.5,-114.5"/>
<text text-anchor="middle" x="950" y="-121.5" font-family="Helvetica,sans-Serif" font-size="10.00">FRWModel::getRadiationDensity</text>
</a>
</g>
</g>
<!-- Node2&#45;&gt;Node6 -->
<g id="edge5" class="edge">
<title>Node2&#45;&gt;Node6</title>
<path fill="none" stroke="midnightblue" d="M785.08,-76.58C804.92,-84.93 835.01,-96.93 862,-105 870.7,-107.6 879.99,-110.01 889.14,-112.18"/>
<polygon fill="midnightblue" stroke="midnightblue" points="888.45,-115.61 898.98,-114.43 890.01,-108.79 888.45,-115.61"/>
</g>
<!-- Node8 -->
<g id="node8" class="node">
<title>Node8</title>
<g id="a_node8"><a xlink:href="classFRWModel.html#abb7a4dcaa3256b6365ef1cc5e9f5dba4" target="_top" xlink:title="calculate da/dt">
<polygon fill="white" stroke="black" points="545,-76.5 545,-95.5 662,-95.5 662,-76.5 545,-76.5"/>
<text text-anchor="middle" x="603.5" y="-83.5" font-family="Helvetica,sans-Serif" font-size="10.00">FRWModel::calcAdot</text>
</a>
</g>
</g>
<!-- Node7&#45;&gt;Node8 -->
<g id="edge7" class="edge">
<title>Node7&#45;&gt;Node8</title>
<path fill="none" stroke="midnightblue" d="M489.98,-114.41C509.66,-109.44 533.89,-103.32 554.82,-98.04"/>
<polygon fill="midnightblue" stroke="midnightblue" points="555.96,-101.36 564.8,-95.52 554.24,-94.57 555.96,-101.36"/>
</g>
<!-- Node8&#45;&gt;Node2 -->
<g id="edge8" class="edge">
<title>Node8&#45;&gt;Node2</title>
<path fill="none" stroke="midnightblue" d="M662.33,-78.98C670.65,-77.97 679.31,-76.92 687.88,-75.88"/>
<polygon fill="midnightblue" stroke="midnightblue" points="688.38,-79.34 697.88,-74.66 687.53,-72.39 688.38,-79.34"/>
</g>
<!-- Node10 -->
<g id="node10" class="node">
<title>Node10</title>
<g id="a_node10"><a xlink:href="classFRWModel.html#a348b0ad06e5e83855a039ab5179806bc" target="_top" xlink:title="update scale factor by time step _dt (first order Euler method)">
<polygon fill="white" stroke="black" points="393,-76.5 393,-95.5 509,-95.5 509,-76.5 393,-76.5"/>
<text text-anchor="middle" x="451" y="-83.5" font-family="Helvetica,sans-Serif" font-size="10.00">FRWModel::updateA</text>
</a>
</g>
</g>
<!-- Node9&#45;&gt;Node10 -->
<g id="edge11" class="edge">
<title>Node9&#45;&gt;Node10</title>
<path fill="none" stroke="midnightblue" d="M357.11,-86C365.71,-86 374.37,-86 382.77,-86"/>
<polygon fill="midnightblue" stroke="midnightblue" points="382.85,-89.5 392.85,-86 382.85,-82.5 382.85,-89.5"/>
</g>
<!-- Node10&#45;&gt;Node8 -->
<g id="edge12" class="edge">
<title>Node10&#45;&gt;Node8</title>
<path fill="none" stroke="midnightblue" d="M509.33,-86C517.59,-86 526.17,-86 534.62,-86"/>
<polygon fill="midnightblue" stroke="midnightblue" points="534.83,-89.5 544.83,-86 534.83,-82.5 534.83,-89.5"/>
</g>
</g>
</svg>
