<?xml version="1.0" encoding="UTF-8" standalone="no"?>
<!DOCTYPE svg PUBLIC "-//W3C//DTD SVG 1.1//EN"
 "http://www.w3.org/Graphics/SVG/1.1/DTD/svg11.dtd">
<!-- Generated by graphviz version 2.43.0 (0)
 -->
<!-- Title: Status::calcAndShiftCenterOfMass Pages: 1 -->
<svg width="332pt" height="78pt"
 viewBox="0.00 0.00 332.00 77.50" xmlns="http://www.w3.org/2000/svg" xmlns:xlink="http://www.w3.org/1999/xlink">
<g id="graph0" class="graph" transform="scale(1 1) rotate(0) translate(4 73.5)">
<title>Status::calcAndShiftCenterOfMass</title>
<polygon fill="white" stroke="transparent" points="-4,4 -4,-73.5 328,-73.5 328,4 -4,4"/>
<!-- Node1 -->
<g id="node1" class="node">
<title>Node1</title>
<g id="a_node1"><a xlink:title="calculate the center of system and shift particle systems to center frame">
<polygon fill="#bfbfbf" stroke="black" points="0,-22.5 0,-52.5 146,-52.5 146,-22.5 0,-22.5"/>
<text text-anchor="start" x="8" y="-40.5" font-family="Helvetica,sans-Serif" font-size="10.00">Status::calcAndShiftCenter</text>
<text text-anchor="middle" x="73" y="-29.5" font-family="Helvetica,sans-Serif" font-size="10.00">OfMass</text>
</a>
</g>
</g>
<!-- Node2 -->
<g id="node2" class="node">
<title>Node2</title>
<g id="a_node2"><a xlink:href="classStatus.html#a95226a9e5aceeea5c44e89b8a3bccb0c" target="_top" xlink:title="calculate the center of system">
<polygon fill="white" stroke="black" points="182,-50 182,-69 324,-69 324,-50 182,-50"/>
<text text-anchor="middle" x="253" y="-57" font-family="Helvetica,sans-Serif" font-size="10.00">Status::calcCenterOfMass</text>
</a>
</g>
</g>
<!-- Node1&#45;&gt;Node2 -->
<g id="edge1" class="edge">
<title>Node1&#45;&gt;Node2</title>
<path fill="none" stroke="midnightblue" d="M146.14,-46.42C154.59,-47.46 163.25,-48.53 171.81,-49.59"/>
<polygon fill="midnightblue" stroke="midnightblue" points="171.42,-53.07 181.77,-50.82 172.28,-46.12 171.42,-53.07"/>
</g>
<!-- Node3 -->
<g id="node3" class="node">
<title>Node3</title>
<g id="a_node3"><a xlink:href="structStatus_1_1ParticleCM.html#a4916cbce05134ef49629f43b49ecc7fe" target="_top" xlink:title=" ">
<polygon fill="white" stroke="black" points="200.5,-0.5 200.5,-30.5 305.5,-30.5 305.5,-0.5 200.5,-0.5"/>
<text text-anchor="start" x="208.5" y="-18.5" font-family="Helvetica,sans-Serif" font-size="10.00">Status::ParticleCM</text>
<text text-anchor="middle" x="253" y="-7.5" font-family="Helvetica,sans-Serif" font-size="10.00">::clear</text>
</a>
</g>
</g>
<!-- Node1&#45;&gt;Node3 -->
<g id="edge2" class="edge">
<title>Node1&#45;&gt;Node3</title>
<path fill="none" stroke="midnightblue" d="M146.14,-28.58C160.72,-26.78 175.93,-24.9 190.12,-23.15"/>
<polygon fill="midnightblue" stroke="midnightblue" points="190.75,-26.6 200.24,-21.9 189.89,-19.65 190.75,-26.6"/>
</g>
</g>
</svg>
