<?xml version="1.0" encoding="UTF-8" standalone="no"?>
<!DOCTYPE svg PUBLIC "-//W3C//DTD SVG 1.1//EN"
 "http://www.w3.org/Graphics/SVG/1.1/DTD/svg11.dtd">
<!-- Generated by graphviz version 2.43.0 (0)
 -->
<!-- Title: ParticleBase::writeBinary Pages: 1 -->
<svg width="426pt" height="28pt"
 viewBox="0.00 0.00 426.00 28.00" xmlns="http://www.w3.org/2000/svg" xmlns:xlink="http://www.w3.org/1999/xlink">
<g id="graph0" class="graph" transform="scale(1 1) rotate(0) translate(4 24)">
<title>ParticleBase::writeBinary</title>
<polygon fill="white" stroke="transparent" points="-4,4 -4,-24 422,-24 422,4 -4,4"/>
<!-- Node1 -->
<g id="node1" class="node">
<title>Node1</title>
<g id="a_node1"><a xlink:title="write class data with BINARY format">
<polygon fill="#bfbfbf" stroke="black" points="279,-0.5 279,-19.5 418,-19.5 418,-0.5 279,-0.5"/>
<text text-anchor="middle" x="348.5" y="-7.5" font-family="Helvetica,sans-Serif" font-size="10.00">ParticleBase::writeBinary</text>
</a>
</g>
</g>
<!-- Node2 -->
<g id="node2" class="node">
<title>Node2</title>
<g id="a_node2"><a xlink:href="classPtcl.html#aaa9a81b92b0ace9629935cd5bc55974c" target="_top" xlink:title="write class data with BINARY format">
<polygon fill="white" stroke="black" points="146,-0.5 146,-19.5 243,-19.5 243,-0.5 146,-0.5"/>
<text text-anchor="middle" x="194.5" y="-7.5" font-family="Helvetica,sans-Serif" font-size="10.00">Ptcl::writeBinary</text>
</a>
</g>
</g>
<!-- Node1&#45;&gt;Node2 -->
<g id="edge1" class="edge">
<title>Node1&#45;&gt;Node2</title>
<path fill="none" stroke="midnightblue" d="M268.51,-10C259.9,-10 251.34,-10 243.28,-10"/>
<polygon fill="midnightblue" stroke="midnightblue" points="268.62,-13.5 278.62,-10 268.62,-6.5 268.62,-13.5"/>
</g>
<!-- Node3 -->
<g id="node3" class="node">
<title>Node3</title>
<g id="a_node3"><a xlink:href="classFPSoft.html#ab6fa608d3f64dd4d6c3b010e131c021e" target="_top" xlink:title=" ">
<polygon fill="white" stroke="black" points="0,-0.5 0,-19.5 110,-19.5 110,-0.5 0,-0.5"/>
<text text-anchor="middle" x="55" y="-7.5" font-family="Helvetica,sans-Serif" font-size="10.00">FPSoft::writeBinary</text>
</a>
</g>
</g>
<!-- Node2&#45;&gt;Node3 -->
<g id="edge2" class="edge">
<title>Node2&#45;&gt;Node3</title>
<path fill="none" stroke="midnightblue" d="M135.66,-10C127.23,-10 118.57,-10 110.22,-10"/>
<polygon fill="midnightblue" stroke="midnightblue" points="135.8,-13.5 145.8,-10 135.8,-6.5 135.8,-13.5"/>
</g>
</g>
</svg>
