<?xml version="1.0" encoding="UTF-8" standalone="no"?>
<!DOCTYPE svg PUBLIC "-//W3C//DTD SVG 1.1//EN"
 "http://www.w3.org/Graphics/SVG/1.1/DTD/svg11.dtd">
<!-- Generated by graphviz version 2.43.0 (0)
 -->
<!-- Title: SystemHard::writeBackPtclForMultiCluster Pages: 1 -->
<svg width="569pt" height="39pt"
 viewBox="0.00 0.00 569.00 39.00" xmlns="http://www.w3.org/2000/svg" xmlns:xlink="http://www.w3.org/1999/xlink">
<g id="graph0" class="graph" transform="scale(1 1) rotate(0) translate(4 35)">
<title>SystemHard::writeBackPtclForMultiCluster</title>
<polygon fill="white" stroke="transparent" points="-4,4 -4,-35 565,-35 565,4 -4,4"/>
<!-- Node1 -->
<g id="node1" class="node">
<title>Node1</title>
<g id="a_node1"><a xlink:title="write back hard particles to global system, check mass modification and update time of write back">
<polygon fill="#bfbfbf" stroke="black" points="0,-0.5 0,-30.5 149,-30.5 149,-0.5 0,-0.5"/>
<text text-anchor="start" x="8" y="-18.5" font-family="Helvetica,sans-Serif" font-size="10.00">SystemHard::writeBackPtcl</text>
<text text-anchor="middle" x="74.5" y="-7.5" font-family="Helvetica,sans-Serif" font-size="10.00">ForMultiCluster</text>
</a>
</g>
</g>
<!-- Node2 -->
<g id="node2" class="node">
<title>Node2</title>
<g id="a_node2"><a xlink:href="classSystemHard.html#a3aa3d047d228450630934f7aaa7d3f98" target="_top" xlink:title="write back hard particles to global system, check mass modification and update time of write back">
<polygon fill="white" stroke="black" points="185,-0.5 185,-30.5 334,-30.5 334,-0.5 185,-0.5"/>
<text text-anchor="start" x="193" y="-18.5" font-family="Helvetica,sans-Serif" font-size="10.00">SystemHard::writeBackPtcl</text>
<text text-anchor="middle" x="259.5" y="-7.5" font-family="Helvetica,sans-Serif" font-size="10.00">ForOneCluster</text>
</a>
</g>
</g>
<!-- Node1&#45;&gt;Node2 -->
<g id="edge1" class="edge">
<title>Node1&#45;&gt;Node2</title>
<path fill="none" stroke="midnightblue" d="M149.14,-15.5C157.47,-15.5 166.01,-15.5 174.46,-15.5"/>
<polygon fill="midnightblue" stroke="midnightblue" points="174.71,-19 184.71,-15.5 174.71,-12 174.71,-19"/>
</g>
<!-- Node3 -->
<g id="node3" class="node">
<title>Node3</title>
<g id="a_node3"><a xlink:href="classSystemHard.html#a0aefe9e642d174f1d8ab04825a3bce3c" target="_top" xlink:title=" ">
<polygon fill="white" stroke="black" points="370,-6 370,-25 561,-25 561,-6 370,-6"/>
<text text-anchor="middle" x="465.5" y="-13" font-family="Helvetica,sans-Serif" font-size="10.00">SystemHard::updateTimeWriteBack</text>
</a>
</g>
</g>
<!-- Node2&#45;&gt;Node3 -->
<g id="edge2" class="edge">
<title>Node2&#45;&gt;Node3</title>
<path fill="none" stroke="midnightblue" d="M334.15,-15.5C342.43,-15.5 350.99,-15.5 359.57,-15.5"/>
<polygon fill="midnightblue" stroke="midnightblue" points="359.65,-19 369.65,-15.5 359.65,-12 359.65,-19"/>
</g>
</g>
</svg>
