<?xml version="1.0" encoding="UTF-8" standalone="no"?>
<!DOCTYPE svg PUBLIC "-//W3C//DTD SVG 1.1//EN"
 "http://www.w3.org/Graphics/SVG/1.1/DTD/svg11.dtd">
<!-- Generated by graphviz version 2.43.0 (0)
 -->
<!-- Title: ParticleBase::printColumnWithOffset Pages: 1 -->
<svg width="540pt" height="39pt"
 viewBox="0.00 0.00 540.00 39.00" xmlns="http://www.w3.org/2000/svg" xmlns:xlink="http://www.w3.org/1999/xlink">
<g id="graph0" class="graph" transform="scale(1 1) rotate(0) translate(4 35)">
<title>ParticleBase::printColumnWithOffset</title>
<polygon fill="white" stroke="transparent" points="-4,4 -4,-35 536,-35 536,4 -4,4"/>
<!-- Node1 -->
<g id="node1" class="node">
<title>Node1</title>
<g id="a_node1"><a xlink:title="print data of class members with pos and vel offset using column style">
<polygon fill="#bfbfbf" stroke="black" points="389,-0.5 389,-30.5 532,-30.5 532,-0.5 389,-0.5"/>
<text text-anchor="start" x="397" y="-18.5" font-family="Helvetica,sans-Serif" font-size="10.00">ParticleBase::printColumn</text>
<text text-anchor="middle" x="460.5" y="-7.5" font-family="Helvetica,sans-Serif" font-size="10.00">WithOffset</text>
</a>
</g>
</g>
<!-- Node2 -->
<g id="node2" class="node">
<title>Node2</title>
<g id="a_node2"><a xlink:href="classPtcl.html#ac152a9401ef2c14532f37f909f15264d" target="_top" xlink:title="print data of class members with pos and vel offset using column style">
<polygon fill="white" stroke="black" points="201,-6 201,-25 353,-25 353,-6 201,-6"/>
<text text-anchor="middle" x="277" y="-13" font-family="Helvetica,sans-Serif" font-size="10.00">Ptcl::printColumnWithOffset</text>
</a>
</g>
</g>
<!-- Node1&#45;&gt;Node2 -->
<g id="edge1" class="edge">
<title>Node1&#45;&gt;Node2</title>
<path fill="none" stroke="midnightblue" d="M378.61,-15.5C370.19,-15.5 361.66,-15.5 353.3,-15.5"/>
<polygon fill="midnightblue" stroke="midnightblue" points="378.81,-19 388.81,-15.5 378.81,-12 378.81,-19"/>
</g>
<!-- Node3 -->
<g id="node3" class="node">
<title>Node3</title>
<g id="a_node3"><a xlink:href="classFPSoft.html#a14150e7eefede550b3bc977271319cae" target="_top" xlink:title="print data of class members with pos and vel offset using column style">
<polygon fill="white" stroke="black" points="0,-6 0,-25 165,-25 165,-6 0,-6"/>
<text text-anchor="middle" x="82.5" y="-13" font-family="Helvetica,sans-Serif" font-size="10.00">FPSoft::printColumnWithOffset</text>
</a>
</g>
</g>
<!-- Node2&#45;&gt;Node3 -->
<g id="edge2" class="edge">
<title>Node2&#45;&gt;Node3</title>
<path fill="none" stroke="midnightblue" d="M190.51,-15.5C182.05,-15.5 173.48,-15.5 165.06,-15.5"/>
<polygon fill="midnightblue" stroke="midnightblue" points="190.75,-19 200.75,-15.5 190.75,-12 190.75,-19"/>
</g>
</g>
</svg>
