<?xml version="1.0" encoding="UTF-8" standalone="no"?>
<!DOCTYPE svg PUBLIC "-//W3C//DTD SVG 1.1//EN"
 "http://www.w3.org/Graphics/SVG/1.1/DTD/svg11.dtd">
<!-- Generated by graphviz version 2.43.0 (0)
 -->
<!-- Title: ArtificialParticleManager::getCMParticles Pages: 1 -->
<svg width="527pt" height="88pt"
 viewBox="0.00 0.00 527.00 88.00" xmlns="http://www.w3.org/2000/svg" xmlns:xlink="http://www.w3.org/1999/xlink">
<g id="graph0" class="graph" transform="scale(1 1) rotate(0) translate(4 84)">
<title>ArtificialParticleManager::getCMParticles</title>
<polygon fill="white" stroke="transparent" points="-4,4 -4,-84 523,-84 523,4 -4,4"/>
<!-- Node1 -->
<g id="node1" class="node">
<title>Node1</title>
<g id="a_node1"><a xlink:title="get c.m. particle list address from a artificial particle array">
<polygon fill="#bfbfbf" stroke="black" points="383,-24.5 383,-54.5 519,-54.5 519,-24.5 383,-24.5"/>
<text text-anchor="start" x="391" y="-42.5" font-family="Helvetica,sans-Serif" font-size="10.00">ArtificialParticleManager</text>
<text text-anchor="middle" x="451" y="-31.5" font-family="Helvetica,sans-Serif" font-size="10.00">::getCMParticles</text>
</a>
</g>
</g>
<!-- Node2 -->
<g id="node2" class="node">
<title>Node2</title>
<g id="a_node2"><a xlink:href="classArtificialParticleManager.html#abce1a403342631a9f4042213a71b9867" target="_top" xlink:title="correct artificial particles force for furture use">
<polygon fill="white" stroke="black" points="191,-49.5 191,-79.5 347,-79.5 347,-49.5 191,-49.5"/>
<text text-anchor="start" x="199" y="-67.5" font-family="Helvetica,sans-Serif" font-size="10.00">ArtificialParticleManager</text>
<text text-anchor="middle" x="269" y="-56.5" font-family="Helvetica,sans-Serif" font-size="10.00">::correctArtficialParticleForce</text>
</a>
</g>
</g>
<!-- Node1&#45;&gt;Node2 -->
<g id="edge1" class="edge">
<title>Node1&#45;&gt;Node2</title>
<path fill="none" stroke="midnightblue" d="M372.99,-50.2C364.41,-51.39 355.67,-52.6 347.09,-53.79"/>
<polygon fill="midnightblue" stroke="midnightblue" points="373.55,-53.65 382.97,-48.81 372.59,-46.72 373.55,-53.65"/>
</g>
<!-- Node4 -->
<g id="node4" class="node">
<title>Node4</title>
<g id="a_node4"><a xlink:href="classArtificialParticleManager.html#a849acb19588a63ec450f606fd1bead3d" target="_top" xlink:title="correct orbit&#45;samping/pseudo particles force">
<polygon fill="white" stroke="black" points="193,-0.5 193,-30.5 345,-30.5 345,-0.5 193,-0.5"/>
<text text-anchor="start" x="201" y="-18.5" font-family="Helvetica,sans-Serif" font-size="10.00">ArtificialParticleManager</text>
<text text-anchor="middle" x="269" y="-7.5" font-family="Helvetica,sans-Serif" font-size="10.00">::correctOrbitalParticleForce</text>
</a>
</g>
</g>
<!-- Node1&#45;&gt;Node4 -->
<g id="edge3" class="edge">
<title>Node1&#45;&gt;Node4</title>
<path fill="none" stroke="midnightblue" d="M372.77,-29.2C363.65,-27.99 354.35,-26.75 345.26,-25.53"/>
<polygon fill="midnightblue" stroke="midnightblue" points="372.6,-32.71 382.97,-30.56 373.52,-25.77 372.6,-32.71"/>
</g>
<!-- Node3 -->
<g id="node3" class="node">
<title>Node3</title>
<g id="a_node3"><a xlink:href="classSystemHard.html#aaae0c65a7caa9679827b980b9e9f3c89" target="_top" xlink:title="Soft force correction due to different cut&#45;off function.">
<polygon fill="white" stroke="black" points="0,-49.5 0,-79.5 155,-79.5 155,-49.5 0,-49.5"/>
<text text-anchor="start" x="8" y="-67.5" font-family="Helvetica,sans-Serif" font-size="10.00">SystemHard::correctForce</text>
<text text-anchor="middle" x="77.5" y="-56.5" font-family="Helvetica,sans-Serif" font-size="10.00">WithCutoffTreeNeighborOMP</text>
</a>
</g>
</g>
<!-- Node2&#45;&gt;Node3 -->
<g id="edge2" class="edge">
<title>Node2&#45;&gt;Node3</title>
<path fill="none" stroke="midnightblue" d="M180.91,-64.5C172.33,-64.5 163.67,-64.5 155.2,-64.5"/>
<polygon fill="midnightblue" stroke="midnightblue" points="180.92,-68 190.92,-64.5 180.92,-61 180.92,-68"/>
</g>
</g>
</svg>
