<?xml version="1.0" encoding="UTF-8" standalone="no"?>
<!DOCTYPE svg PUBLIC "-//W3C//DTD SVG 1.1//EN"
 "http://www.w3.org/Graphics/SVG/1.1/DTD/svg11.dtd">
<!-- Generated by graphviz version 2.43.0 (0)
 -->
<!-- Title: GalpyManager::initial Pages: 1 -->
<svg width="1455pt" height="351pt"
 viewBox="0.00 0.00 1455.00 350.50" xmlns="http://www.w3.org/2000/svg" xmlns:xlink="http://www.w3.org/1999/xlink">
<g id="graph0" class="graph" transform="scale(1 1) rotate(0) translate(4 346.5)">
<title>GalpyManager::initial</title>
<polygon fill="white" stroke="transparent" points="-4,4 -4,-346.5 1451,-346.5 1451,4 -4,4"/>
<!-- Node1 -->
<g id="node1" class="node">
<title>Node1</title>
<g id="a_node1"><a xlink:title="initialization function">
<polygon fill="#bfbfbf" stroke="black" points="0,-156.5 0,-175.5 122,-175.5 122,-156.5 0,-156.5"/>
<text text-anchor="middle" x="61" y="-163.5" font-family="Helvetica,sans-Serif" font-size="10.00">GalpyManager::initial</text>
</a>
</g>
</g>
<!-- Node2 -->
<g id="node2" class="node">
<title>Node2</title>
<g id="a_node2"><a xlink:href="classGalpyManager.html#a0731140835f4392b060760a608e5e96d" target="_top" xlink:title="Update types and arguments from type&#45;args string.">
<polygon fill="white" stroke="black" points="175.5,-312 175.5,-342 330.5,-342 330.5,-312 175.5,-312"/>
<text text-anchor="start" x="183.5" y="-330" font-family="Helvetica,sans-Serif" font-size="10.00">GalpyManager::addPotential</text>
<text text-anchor="middle" x="253" y="-319" font-family="Helvetica,sans-Serif" font-size="10.00">FromString</text>
</a>
</g>
</g>
<!-- Node1&#45;&gt;Node2 -->
<g id="edge1" class="edge">
<title>Node1&#45;&gt;Node2</title>
<path fill="none" stroke="midnightblue" d="M65.92,-175.74C76.61,-201 108.78,-268.98 158,-303 160.55,-304.76 163.22,-306.4 165.98,-307.91"/>
<polygon fill="midnightblue" stroke="midnightblue" points="164.53,-311.1 175.05,-312.35 167.61,-304.81 164.53,-311.1"/>
</g>
<!-- Node3 -->
<g id="node3" class="node">
<title>Node3</title>
<g id="a_node3"><a xlink:href="classMWPotentialEvolve.html#a45a7e51221c2de3937fcb72cd90fd11e" target="_top" xlink:title="initial potential parameter from a file">
<polygon fill="white" stroke="black" points="194,-263 194,-293 312,-293 312,-263 194,-263"/>
<text text-anchor="start" x="202" y="-281" font-family="Helvetica,sans-Serif" font-size="10.00">MWPotentialEvolve::</text>
<text text-anchor="middle" x="253" y="-270" font-family="Helvetica,sans-Serif" font-size="10.00">initialFromFile</text>
</a>
</g>
</g>
<!-- Node1&#45;&gt;Node3 -->
<g id="edge2" class="edge">
<title>Node1&#45;&gt;Node3</title>
<path fill="none" stroke="midnightblue" d="M69.61,-175.59C84.55,-193.76 119.62,-233.23 158,-254 166.05,-258.36 174.92,-261.94 183.89,-264.89"/>
<polygon fill="midnightblue" stroke="midnightblue" points="183.06,-268.3 193.64,-267.85 185.09,-261.6 183.06,-268.3"/>
</g>
<!-- Node5 -->
<g id="node5" class="node">
<title>Node5</title>
<g id="a_node5"><a xlink:href="classGalpyManager.html#a8aebb589a95e4f322c638ee740fbb9f3" target="_top" xlink:title="print current potential data">
<polygon fill="white" stroke="black" points="403.5,-156.5 403.5,-175.5 543.5,-175.5 543.5,-156.5 403.5,-156.5"/>
<text text-anchor="middle" x="473.5" y="-163.5" font-family="Helvetica,sans-Serif" font-size="10.00">GalpyManager::printData</text>
</a>
</g>
</g>
<!-- Node1&#45;&gt;Node5 -->
<g id="edge4" class="edge">
<title>Node1&#45;&gt;Node5</title>
<path fill="none" stroke="midnightblue" d="M122.13,-166C193.74,-166 313.6,-166 392.86,-166"/>
<polygon fill="midnightblue" stroke="midnightblue" points="393.29,-169.5 403.28,-166 393.28,-162.5 393.29,-169.5"/>
</g>
<!-- Node6 -->
<g id="node6" class="node">
<title>Node6</title>
<g id="a_node6"><a xlink:href="classMWPotentialEvolve.html#a61d78d2224231b9d052d48cdd2d38eaf" target="_top" xlink:title="read potential parameter from a file">
<polygon fill="white" stroke="black" points="194,-214 194,-244 312,-244 312,-214 194,-214"/>
<text text-anchor="start" x="202" y="-232" font-family="Helvetica,sans-Serif" font-size="10.00">MWPotentialEvolve::</text>
<text text-anchor="middle" x="253" y="-221" font-family="Helvetica,sans-Serif" font-size="10.00">readDataFromFile</text>
</a>
</g>
</g>
<!-- Node1&#45;&gt;Node6 -->
<g id="edge5" class="edge">
<title>Node1&#45;&gt;Node6</title>
<path fill="none" stroke="midnightblue" d="M89.26,-175.55C108.44,-182.23 134.75,-191.29 158,-199 169.8,-202.91 182.47,-207.02 194.57,-210.89"/>
<polygon fill="midnightblue" stroke="midnightblue" points="193.52,-214.23 204.11,-213.94 195.65,-207.57 193.52,-214.23"/>
</g>
<!-- Node7 -->
<g id="node7" class="node">
<title>Node7</title>
<g id="a_node7"><a xlink:href="classGalpyManager.html#a75135e141ff8b0e37237aa2bd540d84a" target="_top" xlink:title="read configure data for restart">
<polygon fill="white" stroke="black" points="162.5,-137.5 162.5,-156.5 343.5,-156.5 343.5,-137.5 162.5,-137.5"/>
<text text-anchor="middle" x="253" y="-144.5" font-family="Helvetica,sans-Serif" font-size="10.00">GalpyManager::readDataFromFile</text>
</a>
</g>
</g>
<!-- Node1&#45;&gt;Node7 -->
<g id="edge7" class="edge">
<title>Node1&#45;&gt;Node7</title>
<path fill="none" stroke="midnightblue" d="M122.12,-159.99C131.74,-159.03 141.91,-158.01 152.17,-156.98"/>
<polygon fill="midnightblue" stroke="midnightblue" points="152.82,-160.44 162.42,-155.96 152.13,-153.47 152.82,-160.44"/>
</g>
<!-- Node8 -->
<g id="node8" class="node">
<title>Node8</title>
<g id="a_node8"><a xlink:href="classGalpyManager.html#a3cf2c36189aa2bd879faf8748e1ef871" target="_top" xlink:title="Update MWpotential evolve (Gomez et al. 2010)">
<polygon fill="white" stroke="black" points="158,-88 158,-118 348,-118 348,-88 158,-88"/>
<text text-anchor="start" x="166" y="-106" font-family="Helvetica,sans-Serif" font-size="10.00">GalpyManager::updateMWPotential</text>
<text text-anchor="middle" x="253" y="-95" font-family="Helvetica,sans-Serif" font-size="10.00">Evolve</text>
</a>
</g>
</g>
<!-- Node1&#45;&gt;Node8 -->
<g id="edge9" class="edge">
<title>Node1&#45;&gt;Node8</title>
<path fill="none" stroke="midnightblue" d="M84.23,-156.34C103.51,-148.17 132.29,-136.47 158,-128 165.58,-125.5 173.57,-123.07 181.55,-120.77"/>
<polygon fill="midnightblue" stroke="midnightblue" points="182.59,-124.12 191.27,-118.04 180.69,-117.38 182.59,-124.12"/>
</g>
<!-- Node19 -->
<g id="node19" class="node">
<title>Node19</title>
<g id="a_node19"><a xlink:href="classGalpyManager.html#a912e9c5fc587218525f51a8b71e55735" target="_top" xlink:title="Update types and arguments from configure file if update_time &lt;= particle system time.">
<polygon fill="white" stroke="black" points="167.5,-39 167.5,-69 338.5,-69 338.5,-39 167.5,-39"/>
<text text-anchor="start" x="175.5" y="-57" font-family="Helvetica,sans-Serif" font-size="10.00">GalpyManager::updatePotential</text>
<text text-anchor="middle" x="253" y="-46" font-family="Helvetica,sans-Serif" font-size="10.00">FromFile</text>
</a>
</g>
</g>
<!-- Node1&#45;&gt;Node19 -->
<g id="edge23" class="edge">
<title>Node1&#45;&gt;Node19</title>
<path fill="none" stroke="midnightblue" d="M69.61,-156.41C84.55,-138.24 119.62,-98.77 158,-78 161.48,-76.12 165.12,-74.37 168.85,-72.77"/>
<polygon fill="midnightblue" stroke="midnightblue" points="170.28,-75.97 178.29,-69.04 167.71,-69.46 170.28,-75.97"/>
</g>
<!-- Node20 -->
<g id="node20" class="node">
<title>Node20</title>
<g id="a_node20"><a xlink:href="classGalpyManager.html#a7e35973fb12c11ca65ca0d0462c6c4dd" target="_top" xlink:title="generate potentail args">
<polygon fill="white" stroke="black" points="159.5,-0.5 159.5,-19.5 346.5,-19.5 346.5,-0.5 159.5,-0.5"/>
<text text-anchor="middle" x="253" y="-7.5" font-family="Helvetica,sans-Serif" font-size="10.00">GalpyManager::updatePotentialSet</text>
</a>
</g>
</g>
<!-- Node1&#45;&gt;Node20 -->
<g id="edge24" class="edge">
<title>Node1&#45;&gt;Node20</title>
<path fill="none" stroke="midnightblue" d="M65.68,-156.48C75.98,-131.18 107.7,-61.92 158,-29 161.11,-26.97 164.39,-25.14 167.79,-23.51"/>
<polygon fill="midnightblue" stroke="midnightblue" points="169.18,-26.72 177.03,-19.61 166.45,-20.27 169.18,-26.72"/>
</g>
<!-- Node4 -->
<g id="node4" class="node">
<title>Node4</title>
<g id="a_node4"><a xlink:href="classFRWModel.html#aed682fc0d41e7c4263e2512c36cab14c" target="_top" xlink:title=" ">
<polygon fill="white" stroke="black" points="410,-243.5 410,-262.5 537,-262.5 537,-243.5 410,-243.5"/>
<text text-anchor="middle" x="473.5" y="-250.5" font-family="Helvetica,sans-Serif" font-size="10.00">FRWModel::calcH0Myr</text>
</a>
</g>
</g>
<!-- Node3&#45;&gt;Node4 -->
<g id="edge3" class="edge">
<title>Node3&#45;&gt;Node4</title>
<path fill="none" stroke="midnightblue" d="M312.27,-271.33C339.06,-268.27 371.14,-264.6 399.52,-261.35"/>
<polygon fill="midnightblue" stroke="midnightblue" points="400.26,-264.79 409.8,-260.17 399.47,-257.83 400.26,-264.79"/>
</g>
<!-- Node6&#45;&gt;Node4 -->
<g id="edge6" class="edge">
<title>Node6&#45;&gt;Node4</title>
<path fill="none" stroke="midnightblue" d="M312.27,-235.4C339.06,-238.34 371.14,-241.87 399.52,-244.98"/>
<polygon fill="midnightblue" stroke="midnightblue" points="399.48,-248.5 409.8,-246.11 400.24,-241.54 399.48,-248.5"/>
</g>
<!-- Node7&#45;&gt;Node5 -->
<g id="edge8" class="edge">
<title>Node7&#45;&gt;Node5</title>
<path fill="none" stroke="midnightblue" d="M343.5,-154.78C359.84,-156.2 376.79,-157.68 392.82,-159.07"/>
<polygon fill="midnightblue" stroke="midnightblue" points="392.94,-162.59 403.2,-159.97 393.55,-155.62 392.94,-162.59"/>
</g>
<!-- Node9 -->
<g id="node9" class="node">
<title>Node9</title>
<g id="a_node9"><a xlink:href="classMWPotentialEvolve.html#a499debe349e3789cd6fbab95bc56dabb" target="_top" xlink:title="calculate MW potential based on the input time">
<polygon fill="white" stroke="black" points="396.5,-88 396.5,-118 550.5,-118 550.5,-88 396.5,-88"/>
<text text-anchor="start" x="404.5" y="-106" font-family="Helvetica,sans-Serif" font-size="10.00">MWPotentialEvolve::</text>
<text text-anchor="middle" x="473.5" y="-95" font-family="Helvetica,sans-Serif" font-size="10.00">calcMWPotentialParameters</text>
</a>
</g>
</g>
<!-- Node8&#45;&gt;Node9 -->
<g id="edge10" class="edge">
<title>Node8&#45;&gt;Node9</title>
<path fill="none" stroke="midnightblue" d="M348.25,-103C360.79,-103 373.6,-103 386.01,-103"/>
<polygon fill="midnightblue" stroke="midnightblue" points="386.31,-106.5 396.31,-103 386.31,-99.5 386.31,-106.5"/>
</g>
<!-- Node10 -->
<g id="node10" class="node">
<title>Node10</title>
<g id="a_node10"><a xlink:href="classFRWModel.html#a361381626bcc60640134c25e6c7357bb" target="_top" xlink:title=" ">
<polygon fill="white" stroke="black" points="1107,-104.5 1107,-123.5 1235,-123.5 1235,-104.5 1107,-104.5"/>
<text text-anchor="middle" x="1171" y="-111.5" font-family="Helvetica,sans-Serif" font-size="10.00">FRWModel::getDensity</text>
</a>
</g>
</g>
<!-- Node9&#45;&gt;Node10 -->
<g id="edge11" class="edge">
<title>Node9&#45;&gt;Node10</title>
<path fill="none" stroke="midnightblue" d="M550.59,-104.2C685.25,-106.33 963.83,-110.74 1096.57,-112.84"/>
<polygon fill="midnightblue" stroke="midnightblue" points="1096.59,-116.34 1106.64,-113 1096.7,-109.34 1096.59,-116.34"/>
</g>
<!-- Node13 -->
<g id="node13" class="node">
<title>Node13</title>
<g id="a_node13"><a xlink:href="classFRWModel.html#a4e998f4739ff1df966beca89c1e393ed" target="_top" xlink:title=" ">
<polygon fill="white" stroke="black" points="1278.5,-47.5 1278.5,-66.5 1439.5,-66.5 1439.5,-47.5 1278.5,-47.5"/>
<text text-anchor="middle" x="1359" y="-54.5" font-family="Helvetica,sans-Serif" font-size="10.00">FRWModel::getMatterDensity</text>
</a>
</g>
</g>
<!-- Node9&#45;&gt;Node13 -->
<g id="edge19" class="edge">
<title>Node9&#45;&gt;Node13</title>
<path fill="none" stroke="midnightblue" d="M550.78,-88.45C628.13,-74.97 751.43,-57 859,-57 859,-57 859,-57 1013.5,-57 1100.01,-57 1198.73,-57 1268.25,-57"/>
<polygon fill="midnightblue" stroke="midnightblue" points="1268.29,-60.5 1278.29,-57 1268.29,-53.5 1268.29,-60.5"/>
</g>
<!-- Node15 -->
<g id="node15" class="node">
<title>Node15</title>
<g id="a_node15"><a xlink:href="classFRWModel.html#a262a19eeb8300f0a59c8555e052cbc27" target="_top" xlink:title="get Hubble constant at current a">
<polygon fill="white" stroke="black" points="811,-123.5 811,-142.5 909,-142.5 909,-123.5 811,-123.5"/>
<text text-anchor="middle" x="860" y="-130.5" font-family="Helvetica,sans-Serif" font-size="10.00">FRWModel::getH</text>
</a>
</g>
</g>
<!-- Node9&#45;&gt;Node15 -->
<g id="edge16" class="edge">
<title>Node9&#45;&gt;Node15</title>
<path fill="none" stroke="midnightblue" d="M550.92,-108.96C624.41,-114.7 733.9,-123.24 800.63,-128.45"/>
<polygon fill="midnightblue" stroke="midnightblue" points="800.72,-131.96 810.97,-129.25 801.27,-124.98 800.72,-131.96"/>
</g>
<!-- Node17 -->
<g id="node17" class="node">
<title>Node17</title>
<g id="a_node17"><a xlink:href="classFRWModel.html#a904c7a9d484ab006a8bbbc3f557f6e45" target="_top" xlink:title="update scale factor with maximum time step dt_max (first order Euler method)">
<polygon fill="white" stroke="black" points="599,-161.5 599,-180.5 766,-180.5 766,-161.5 599,-161.5"/>
<text text-anchor="middle" x="682.5" y="-168.5" font-family="Helvetica,sans-Serif" font-size="10.00">FRWModel::updateAwithDtmin</text>
</a>
</g>
</g>
<!-- Node9&#45;&gt;Node17 -->
<g id="edge20" class="edge">
<title>Node9&#45;&gt;Node17</title>
<path fill="none" stroke="midnightblue" d="M515.24,-118.05C539.46,-126.84 570.85,-137.94 599,-147 611.32,-150.97 624.78,-155 637.17,-158.6"/>
<polygon fill="midnightblue" stroke="midnightblue" points="636.27,-161.99 646.85,-161.39 638.21,-155.26 636.27,-161.99"/>
</g>
<!-- Node11 -->
<g id="node11" class="node">
<title>Node11</title>
<g id="a_node11"><a xlink:href="classFRWModel.html#ac639a14eba5f454ecd905f1e907c8ee4" target="_top" xlink:title=" ">
<polygon fill="white" stroke="black" points="1271,-123.5 1271,-142.5 1447,-142.5 1447,-123.5 1271,-123.5"/>
<text text-anchor="middle" x="1359" y="-130.5" font-family="Helvetica,sans-Serif" font-size="10.00">FRWModel::getCurvatureDensity</text>
</a>
</g>
</g>
<!-- Node10&#45;&gt;Node11 -->
<g id="edge12" class="edge">
<title>Node10&#45;&gt;Node11</title>
<path fill="none" stroke="midnightblue" d="M1235.23,-120.46C1243.48,-121.3 1252.08,-122.18 1260.73,-123.06"/>
<polygon fill="midnightblue" stroke="midnightblue" points="1260.59,-126.57 1270.89,-124.1 1261.3,-119.6 1260.59,-126.57"/>
</g>
<!-- Node12 -->
<g id="node12" class="node">
<title>Node12</title>
<g id="a_node12"><a xlink:href="classFRWModel.html#a747610082f8b89bc7494512925f3d28a" target="_top" xlink:title=" ">
<polygon fill="white" stroke="black" points="1278,-85.5 1278,-104.5 1440,-104.5 1440,-85.5 1278,-85.5"/>
<text text-anchor="middle" x="1359" y="-92.5" font-family="Helvetica,sans-Serif" font-size="10.00">FRWModel::getEnergyDensity</text>
</a>
</g>
</g>
<!-- Node10&#45;&gt;Node12 -->
<g id="edge13" class="edge">
<title>Node10&#45;&gt;Node12</title>
<path fill="none" stroke="midnightblue" d="M1235.23,-107.54C1245.71,-106.47 1256.76,-105.34 1267.75,-104.22"/>
<polygon fill="midnightblue" stroke="midnightblue" points="1268.23,-107.69 1277.82,-103.19 1267.52,-100.72 1268.23,-107.69"/>
</g>
<!-- Node10&#45;&gt;Node13 -->
<g id="edge14" class="edge">
<title>Node10&#45;&gt;Node13</title>
<path fill="none" stroke="midnightblue" d="M1194.08,-104.42C1213.92,-96.07 1244.01,-84.07 1271,-76 1279.7,-73.4 1288.99,-70.99 1298.14,-68.82"/>
<polygon fill="midnightblue" stroke="midnightblue" points="1299.01,-72.21 1307.98,-66.57 1297.45,-65.39 1299.01,-72.21"/>
</g>
<!-- Node14 -->
<g id="node14" class="node">
<title>Node14</title>
<g id="a_node14"><a xlink:href="classFRWModel.html#a80544a319035cb9fe253f2dee3d63d52" target="_top" xlink:title=" ">
<polygon fill="white" stroke="black" points="1271.5,-161.5 1271.5,-180.5 1446.5,-180.5 1446.5,-161.5 1271.5,-161.5"/>
<text text-anchor="middle" x="1359" y="-168.5" font-family="Helvetica,sans-Serif" font-size="10.00">FRWModel::getRadiationDensity</text>
</a>
</g>
</g>
<!-- Node10&#45;&gt;Node14 -->
<g id="edge15" class="edge">
<title>Node10&#45;&gt;Node14</title>
<path fill="none" stroke="midnightblue" d="M1194.08,-123.58C1213.92,-131.93 1244.01,-143.93 1271,-152 1279.7,-154.6 1288.99,-157.01 1298.14,-159.18"/>
<polygon fill="midnightblue" stroke="midnightblue" points="1297.45,-162.61 1307.98,-161.43 1299.01,-155.79 1297.45,-162.61"/>
</g>
<!-- Node16 -->
<g id="node16" class="node">
<title>Node16</title>
<g id="a_node16"><a xlink:href="classFRWModel.html#abb7a4dcaa3256b6365ef1cc5e9f5dba4" target="_top" xlink:title="calculate da/dt">
<polygon fill="white" stroke="black" points="954,-123.5 954,-142.5 1071,-142.5 1071,-123.5 954,-123.5"/>
<text text-anchor="middle" x="1012.5" y="-130.5" font-family="Helvetica,sans-Serif" font-size="10.00">FRWModel::calcAdot</text>
</a>
</g>
</g>
<!-- Node15&#45;&gt;Node16 -->
<g id="edge17" class="edge">
<title>Node15&#45;&gt;Node16</title>
<path fill="none" stroke="midnightblue" d="M909.03,-133C920.08,-133 932.03,-133 943.73,-133"/>
<polygon fill="midnightblue" stroke="midnightblue" points="943.93,-136.5 953.93,-133 943.93,-129.5 943.93,-136.5"/>
</g>
<!-- Node16&#45;&gt;Node10 -->
<g id="edge18" class="edge">
<title>Node16&#45;&gt;Node10</title>
<path fill="none" stroke="midnightblue" d="M1071.33,-125.98C1079.65,-124.97 1088.31,-123.92 1096.88,-122.88"/>
<polygon fill="midnightblue" stroke="midnightblue" points="1097.38,-126.34 1106.88,-121.66 1096.53,-119.39 1097.38,-126.34"/>
</g>
<!-- Node18 -->
<g id="node18" class="node">
<title>Node18</title>
<g id="a_node18"><a xlink:href="classFRWModel.html#a348b0ad06e5e83855a039ab5179806bc" target="_top" xlink:title="update scale factor by time step _dt (first order Euler method)">
<polygon fill="white" stroke="black" points="802,-161.5 802,-180.5 918,-180.5 918,-161.5 802,-161.5"/>
<text text-anchor="middle" x="860" y="-168.5" font-family="Helvetica,sans-Serif" font-size="10.00">FRWModel::updateA</text>
</a>
</g>
</g>
<!-- Node17&#45;&gt;Node18 -->
<g id="edge21" class="edge">
<title>Node17&#45;&gt;Node18</title>
<path fill="none" stroke="midnightblue" d="M766.11,-171C774.71,-171 783.37,-171 791.77,-171"/>
<polygon fill="midnightblue" stroke="midnightblue" points="791.85,-174.5 801.85,-171 791.85,-167.5 791.85,-174.5"/>
</g>
<!-- Node18&#45;&gt;Node16 -->
<g id="edge22" class="edge">
<title>Node18&#45;&gt;Node16</title>
<path fill="none" stroke="midnightblue" d="M898.98,-161.41C918.66,-156.44 942.89,-150.32 963.82,-145.04"/>
<polygon fill="midnightblue" stroke="midnightblue" points="964.96,-148.36 973.8,-142.52 963.24,-141.57 964.96,-148.36"/>
</g>
<!-- Node21 -->
<g id="node21" class="node">
<title>Node21</title>
<g id="a_node21"><a xlink:href="classGalpyManager.html#a5bc0d4b2e49875e6706fb03c4a11e9a2" target="_top" xlink:title=" ">
<polygon fill="white" stroke="black" points="384,-0.5 384,-19.5 563,-19.5 563,-0.5 384,-0.5"/>
<text text-anchor="middle" x="473.5" y="-7.5" font-family="Helvetica,sans-Serif" font-size="10.00">GalpyManager::freePotentialArgs</text>
</a>
</g>
</g>
<!-- Node20&#45;&gt;Node21 -->
<g id="edge25" class="edge">
<title>Node20&#45;&gt;Node21</title>
<path fill="none" stroke="midnightblue" d="M346.66,-10C355.62,-10 364.73,-10 373.75,-10"/>
<polygon fill="midnightblue" stroke="midnightblue" points="373.87,-13.5 383.87,-10 373.87,-6.5 373.87,-13.5"/>
</g>
<!-- Node22 -->
<g id="node22" class="node">
<title>Node22</title>
<g id="a_node22"><a xlink:href="classGalpyManager.html#a1b462774660dccb211b5845458c07eca" target="_top" xlink:title=" ">
<polygon fill="white" stroke="black" points="623.5,-0.5 623.5,-19.5 741.5,-19.5 741.5,-0.5 623.5,-0.5"/>
<text text-anchor="middle" x="682.5" y="-7.5" font-family="Helvetica,sans-Serif" font-size="10.00">GalpyManager::clear</text>
</a>
</g>
</g>
<!-- Node21&#45;&gt;Node22 -->
<g id="edge26" class="edge">
<title>Node21&#45;&gt;Node22</title>
<path fill="none" stroke="midnightblue" d="M563.19,-3.31C579.84,-3.17 597.02,-3.27 612.94,-3.6"/>
<polygon fill="midnightblue" stroke="midnightblue" points="613.12,-7.11 623.21,-3.86 613.3,-0.11 613.12,-7.11"/>
</g>
<!-- Node22&#45;&gt;Node21 -->
<g id="edge27" class="edge">
<title>Node22&#45;&gt;Node21</title>
<path fill="none" stroke="midnightblue" d="M623.21,-16.14C607.62,-16.59 590.34,-16.79 573.23,-16.74"/>
<polygon fill="midnightblue" stroke="midnightblue" points="573.21,-13.24 563.19,-16.69 573.17,-20.24 573.21,-13.24"/>
</g>
</g>
</svg>
