<?xml version="1.0" encoding="UTF-8" standalone="no"?>
<!DOCTYPE svg PUBLIC "-//W3C//DTD SVG 1.1//EN"
 "http://www.w3.org/Graphics/SVG/1.1/DTD/svg11.dtd">
<!-- Generated by graphviz version 2.43.0 (0)
 -->
<!-- Title: PtclHard::print Pages: 1 -->
<svg width="530pt" height="116pt"
 viewBox="0.00 0.00 530.00 115.50" xmlns="http://www.w3.org/2000/svg" xmlns:xlink="http://www.w3.org/1999/xlink">
<g id="graph0" class="graph" transform="scale(1 1) rotate(0) translate(4 111.5)">
<title>PtclHard::print</title>
<polygon fill="white" stroke="transparent" points="-4,4 -4,-111.5 526,-111.5 526,4 -4,4"/>
<!-- Node1 -->
<g id="node1" class="node">
<title>Node1</title>
<g id="a_node1"><a xlink:title=" ">
<polygon fill="#bfbfbf" stroke="black" points="0,-50 0,-69 86,-69 86,-50 0,-50"/>
<text text-anchor="middle" x="43" y="-57" font-family="Helvetica,sans-Serif" font-size="10.00">PtclHard::print</text>
</a>
</g>
</g>
<!-- Node2 -->
<g id="node2" class="node">
<title>Node2</title>
<g id="a_node2"><a xlink:href="classPtcl.html#af1253dfc7cd8025affd01d3ff4726f63" target="_top" xlink:title=" ">
<polygon fill="white" stroke="black" points="122,-50 122,-69 185,-69 185,-50 122,-50"/>
<text text-anchor="middle" x="153.5" y="-57" font-family="Helvetica,sans-Serif" font-size="10.00">Ptcl::print</text>
</a>
</g>
</g>
<!-- Node1&#45;&gt;Node2 -->
<g id="edge1" class="edge">
<title>Node1&#45;&gt;Node2</title>
<path fill="none" stroke="midnightblue" d="M86.26,-59.5C94.63,-59.5 103.4,-59.5 111.71,-59.5"/>
<polygon fill="midnightblue" stroke="midnightblue" points="111.94,-63 121.94,-59.5 111.94,-56 111.94,-63"/>
</g>
<!-- Node3 -->
<g id="node3" class="node">
<title>Node3</title>
<g id="a_node3"><a xlink:href="classChangeOver.html#a7cb94f25c0be6f295cc0214926799149" target="_top" xlink:title=" ">
<polygon fill="white" stroke="black" points="243.5,-88 243.5,-107 348.5,-107 348.5,-88 243.5,-88"/>
<text text-anchor="middle" x="296" y="-95" font-family="Helvetica,sans-Serif" font-size="10.00">ChangeOver::print</text>
</a>
</g>
</g>
<!-- Node2&#45;&gt;Node3 -->
<g id="edge2" class="edge">
<title>Node2&#45;&gt;Node3</title>
<path fill="none" stroke="midnightblue" d="M185.24,-68.47C196.48,-71.7 209.3,-75.33 221,-78.5 229.46,-80.8 238.49,-83.17 247.23,-85.44"/>
<polygon fill="midnightblue" stroke="midnightblue" points="246.37,-88.83 256.92,-87.93 248.11,-82.05 246.37,-88.83"/>
</g>
<!-- Node4 -->
<g id="node4" class="node">
<title>Node4</title>
<g id="a_node4"><a xlink:href="classParticleBase.html#aaa2eb35e8a36bc9c08c441944913dda0" target="_top" xlink:title="for print debugging">
<polygon fill="white" stroke="black" points="243.5,-50 243.5,-69 348.5,-69 348.5,-50 243.5,-50"/>
<text text-anchor="middle" x="296" y="-57" font-family="Helvetica,sans-Serif" font-size="10.00">ParticleBase::print</text>
</a>
</g>
</g>
<!-- Node2&#45;&gt;Node4 -->
<g id="edge3" class="edge">
<title>Node2&#45;&gt;Node4</title>
<path fill="none" stroke="midnightblue" d="M185.33,-59.5C199.38,-59.5 216.54,-59.5 233.07,-59.5"/>
<polygon fill="midnightblue" stroke="midnightblue" points="233.25,-63 243.25,-59.5 233.25,-56 233.25,-63"/>
</g>
<!-- Node6 -->
<g id="node6" class="node">
<title>Node6</title>
<g id="a_node6"><a xlink:href="classArtificialParticleInformation.html#aec5f6e1c055868a70cdb44584f0f6e9c" target="_top" xlink:title="print parameters">
<polygon fill="white" stroke="black" points="221,-0.5 221,-30.5 371,-30.5 371,-0.5 221,-0.5"/>
<text text-anchor="start" x="229" y="-18.5" font-family="Helvetica,sans-Serif" font-size="10.00">ArtificialParticleInformation</text>
<text text-anchor="middle" x="296" y="-7.5" font-family="Helvetica,sans-Serif" font-size="10.00">::print</text>
</a>
</g>
</g>
<!-- Node2&#45;&gt;Node6 -->
<g id="edge5" class="edge">
<title>Node2&#45;&gt;Node6</title>
<path fill="none" stroke="midnightblue" d="M184.99,-49.95C200.24,-45.18 219.22,-39.23 237.1,-33.63"/>
<polygon fill="midnightblue" stroke="midnightblue" points="238.4,-36.89 246.89,-30.57 236.3,-30.21 238.4,-36.89"/>
</g>
<!-- Node5 -->
<g id="node5" class="node">
<title>Node5</title>
<g id="a_node5"><a xlink:href="structStarParameter.html#a6a6c1a6c2f12ef90a555f92ae0dd80f4" target="_top" xlink:title="for print in one line">
<polygon fill="white" stroke="black" points="407,-50 407,-69 522,-69 522,-50 407,-50"/>
<text text-anchor="middle" x="464.5" y="-57" font-family="Helvetica,sans-Serif" font-size="10.00">StarParameter::print</text>
</a>
</g>
</g>
<!-- Node4&#45;&gt;Node5 -->
<g id="edge4" class="edge">
<title>Node4&#45;&gt;Node5</title>
<path fill="none" stroke="midnightblue" d="M348.77,-59.5C363.88,-59.5 380.62,-59.5 396.53,-59.5"/>
<polygon fill="midnightblue" stroke="midnightblue" points="396.84,-63 406.84,-59.5 396.84,-56 396.84,-63"/>
</g>
</g>
</svg>
