<?xml version="1.0" encoding="UTF-8" standalone="no"?>
<!DOCTYPE svg PUBLIC "-//W3C//DTD SVG 1.1//EN"
 "http://www.w3.org/Graphics/SVG/1.1/DTD/svg11.dtd">
<!-- Generated by graphviz version 2.43.0 (0)
 -->
<!-- Title: FRWModel::updateA Pages: 1 -->
<svg width="1027pt" height="66pt"
 viewBox="0.00 0.00 1027.00 66.00" xmlns="http://www.w3.org/2000/svg" xmlns:xlink="http://www.w3.org/1999/xlink">
<g id="graph0" class="graph" transform="scale(1 1) rotate(0) translate(4 62)">
<title>FRWModel::updateA</title>
<polygon fill="white" stroke="transparent" points="-4,4 -4,-62 1023,-62 1023,4 -4,4"/>
<!-- Node1 -->
<g id="node1" class="node">
<title>Node1</title>
<g id="a_node1"><a xlink:title="update scale factor by time step _dt (first order Euler method)">
<polygon fill="#bfbfbf" stroke="black" points="903,-19.5 903,-38.5 1019,-38.5 1019,-19.5 903,-19.5"/>
<text text-anchor="middle" x="961" y="-26.5" font-family="Helvetica,sans-Serif" font-size="10.00">FRWModel::updateA</text>
</a>
</g>
</g>
<!-- Node2 -->
<g id="node2" class="node">
<title>Node2</title>
<g id="a_node2"><a xlink:href="classFRWModel.html#a904c7a9d484ab006a8bbbc3f557f6e45" target="_top" xlink:title="update scale factor with maximum time step dt_max (first order Euler method)">
<polygon fill="white" stroke="black" points="700,-19.5 700,-38.5 867,-38.5 867,-19.5 700,-19.5"/>
<text text-anchor="middle" x="783.5" y="-26.5" font-family="Helvetica,sans-Serif" font-size="10.00">FRWModel::updateAwithDtmin</text>
</a>
</g>
</g>
<!-- Node1&#45;&gt;Node2 -->
<g id="edge1" class="edge">
<title>Node1&#45;&gt;Node2</title>
<path fill="none" stroke="midnightblue" d="M892.3,-29C884.09,-29 875.64,-29 867.24,-29"/>
<polygon fill="midnightblue" stroke="midnightblue" points="892.53,-32.5 902.53,-29 892.53,-25.5 892.53,-32.5"/>
</g>
<!-- Node3 -->
<g id="node3" class="node">
<title>Node3</title>
<g id="a_node3"><a xlink:href="classMWPotentialEvolve.html#a499debe349e3789cd6fbab95bc56dabb" target="_top" xlink:title="calculate MW potential based on the input time">
<polygon fill="white" stroke="black" points="510,-14 510,-44 664,-44 664,-14 510,-14"/>
<text text-anchor="start" x="518" y="-32" font-family="Helvetica,sans-Serif" font-size="10.00">MWPotentialEvolve::</text>
<text text-anchor="middle" x="587" y="-21" font-family="Helvetica,sans-Serif" font-size="10.00">calcMWPotentialParameters</text>
</a>
</g>
</g>
<!-- Node2&#45;&gt;Node3 -->
<g id="edge2" class="edge">
<title>Node2&#45;&gt;Node3</title>
<path fill="none" stroke="midnightblue" d="M689.46,-29C681,-29 672.5,-29 664.21,-29"/>
<polygon fill="midnightblue" stroke="midnightblue" points="689.73,-32.5 699.73,-29 689.73,-25.5 689.73,-32.5"/>
</g>
<!-- Node4 -->
<g id="node4" class="node">
<title>Node4</title>
<g id="a_node4"><a xlink:href="classGalpyManager.html#a3cf2c36189aa2bd879faf8748e1ef871" target="_top" xlink:title="Update MWpotential evolve (Gomez et al. 2010)">
<polygon fill="white" stroke="black" points="284,-14 284,-44 474,-44 474,-14 284,-14"/>
<text text-anchor="start" x="292" y="-32" font-family="Helvetica,sans-Serif" font-size="10.00">GalpyManager::updateMWPotential</text>
<text text-anchor="middle" x="379" y="-21" font-family="Helvetica,sans-Serif" font-size="10.00">Evolve</text>
</a>
</g>
</g>
<!-- Node3&#45;&gt;Node4 -->
<g id="edge3" class="edge">
<title>Node3&#45;&gt;Node4</title>
<path fill="none" stroke="midnightblue" d="M499.73,-29C491.34,-29 482.8,-29 474.33,-29"/>
<polygon fill="midnightblue" stroke="midnightblue" points="499.88,-32.5 509.88,-29 499.88,-25.5 499.88,-32.5"/>
</g>
<!-- Node5 -->
<g id="node5" class="node">
<title>Node5</title>
<g id="a_node5"><a xlink:href="classGalpyManager.html#ac6ce59845e4b863a3fce47c18e09631a" target="_top" xlink:title="initialization function">
<polygon fill="white" stroke="black" points="101.5,-38.5 101.5,-57.5 223.5,-57.5 223.5,-38.5 101.5,-38.5"/>
<text text-anchor="middle" x="162.5" y="-45.5" font-family="Helvetica,sans-Serif" font-size="10.00">GalpyManager::initial</text>
</a>
</g>
</g>
<!-- Node4&#45;&gt;Node5 -->
<g id="edge4" class="edge">
<title>Node4&#45;&gt;Node5</title>
<path fill="none" stroke="midnightblue" d="M273.79,-38.23C256.56,-39.76 239.22,-41.29 223.56,-42.68"/>
<polygon fill="midnightblue" stroke="midnightblue" points="274.27,-41.7 283.92,-37.33 273.65,-34.73 274.27,-41.7"/>
</g>
<!-- Node7 -->
<g id="node7" class="node">
<title>Node7</title>
<g id="a_node7"><a xlink:href="classGalpyManager.html#a2b9c41229c1b4a6d5c06e18017298357" target="_top" xlink:title="Update Potential types and arguments based on time.">
<polygon fill="white" stroke="black" points="77,-0.5 77,-19.5 248,-19.5 248,-0.5 77,-0.5"/>
<text text-anchor="middle" x="162.5" y="-7.5" font-family="Helvetica,sans-Serif" font-size="10.00">GalpyManager::updatePotential</text>
</a>
</g>
</g>
<!-- Node4&#45;&gt;Node7 -->
<g id="edge6" class="edge">
<title>Node4&#45;&gt;Node7</title>
<path fill="none" stroke="midnightblue" d="M273.81,-19.77C265.18,-19.01 256.52,-18.24 248.06,-17.49"/>
<polygon fill="midnightblue" stroke="midnightblue" points="273.65,-23.27 283.92,-20.67 274.27,-16.3 273.65,-23.27"/>
</g>
<!-- Node6 -->
<g id="node6" class="node">
<title>Node6</title>
<g id="a_node6"><a xlink:href="galpy__test_8cxx.html#a3c04138a5bfe5d72780bb7e82a18e627" target="_top" xlink:title=" ">
<polygon fill="white" stroke="black" points="0,-19.5 0,-38.5 41,-38.5 41,-19.5 0,-19.5"/>
<text text-anchor="middle" x="20.5" y="-26.5" font-family="Helvetica,sans-Serif" font-size="10.00">main</text>
</a>
</g>
</g>
<!-- Node5&#45;&gt;Node6 -->
<g id="edge5" class="edge">
<title>Node5&#45;&gt;Node6</title>
<path fill="none" stroke="midnightblue" d="M91.37,-38.48C72.86,-35.97 54.37,-33.46 41.06,-31.65"/>
<polygon fill="midnightblue" stroke="midnightblue" points="90.94,-41.96 101.31,-39.83 91.88,-35.02 90.94,-41.96"/>
</g>
<!-- Node7&#45;&gt;Node6 -->
<g id="edge7" class="edge">
<title>Node7&#45;&gt;Node6</title>
<path fill="none" stroke="midnightblue" d="M80.79,-20.95C66,-22.96 51.88,-24.88 41.12,-26.34"/>
<polygon fill="midnightblue" stroke="midnightblue" points="81.65,-24.37 91.09,-19.56 80.71,-17.43 81.65,-24.37"/>
</g>
</g>
</svg>
