<?xml version="1.0" encoding="UTF-8" standalone="no"?>
<!DOCTYPE svg PUBLIC "-//W3C//DTD SVG 1.1//EN"
 "http://www.w3.org/Graphics/SVG/1.1/DTD/svg11.dtd">
<!-- Generated by graphviz version 2.43.0 (0)
 -->
<!-- Title: GalpyManager::writePotentialPars Pages: 1 -->
<svg width="396pt" height="78pt"
 viewBox="0.00 0.00 396.00 77.50" xmlns="http://www.w3.org/2000/svg" xmlns:xlink="http://www.w3.org/1999/xlink">
<g id="graph0" class="graph" transform="scale(1 1) rotate(0) translate(4 73.5)">
<title>GalpyManager::writePotentialPars</title>
<polygon fill="white" stroke="transparent" points="-4,4 -4,-73.5 392,-73.5 392,4 -4,4"/>
<!-- Node1 -->
<g id="node1" class="node">
<title>Node1</title>
<g id="a_node1"><a xlink:title="write potential parameters for restart">
<polygon fill="#bfbfbf" stroke="black" points="0,-22.5 0,-41.5 182,-41.5 182,-22.5 0,-22.5"/>
<text text-anchor="middle" x="91" y="-29.5" font-family="Helvetica,sans-Serif" font-size="10.00">GalpyManager::writePotentialPars</text>
</a>
</g>
</g>
<!-- Node2 -->
<g id="node2" class="node">
<title>Node2</title>
<g id="a_node2"><a xlink:href="classMWPotentialEvolve.html#a92e616d63b989428e6424e0d0180de7c" target="_top" xlink:title="write data for restart">
<polygon fill="white" stroke="black" points="244,-39 244,-69 362,-69 362,-39 244,-39"/>
<text text-anchor="start" x="252" y="-57" font-family="Helvetica,sans-Serif" font-size="10.00">MWPotentialEvolve::</text>
<text text-anchor="middle" x="303" y="-46" font-family="Helvetica,sans-Serif" font-size="10.00">writeDataToFile</text>
</a>
</g>
</g>
<!-- Node1&#45;&gt;Node2 -->
<g id="edge1" class="edge">
<title>Node1&#45;&gt;Node2</title>
<path fill="none" stroke="midnightblue" d="M182.28,-41.46C199.58,-43.27 217.44,-45.14 233.9,-46.87"/>
<polygon fill="midnightblue" stroke="midnightblue" points="233.65,-50.36 243.96,-47.92 234.38,-43.4 233.65,-50.36"/>
</g>
<!-- Node3 -->
<g id="node3" class="node">
<title>Node3</title>
<g id="a_node3"><a xlink:href="classGalpyManager.html#aa1e9c6eb40673066e5a7ee87d5a2e641" target="_top" xlink:title="write data for restart">
<polygon fill="white" stroke="black" points="218,-0.5 218,-19.5 388,-19.5 388,-0.5 218,-0.5"/>
<text text-anchor="middle" x="303" y="-7.5" font-family="Helvetica,sans-Serif" font-size="10.00">GalpyManager::writeDataToFile</text>
</a>
</g>
</g>
<!-- Node1&#45;&gt;Node3 -->
<g id="edge2" class="edge">
<title>Node1&#45;&gt;Node3</title>
<path fill="none" stroke="midnightblue" d="M182.28,-22.54C190.66,-21.66 199.16,-20.77 207.57,-19.89"/>
<polygon fill="midnightblue" stroke="midnightblue" points="208.2,-23.35 217.78,-18.82 207.47,-16.38 208.2,-23.35"/>
</g>
</g>
</svg>
