<?xml version="1.0" encoding="UTF-8" standalone="no"?>
<!DOCTYPE svg PUBLIC "-//W3C//DTD SVG 1.1//EN"
 "http://www.w3.org/Graphics/SVG/1.1/DTD/svg11.dtd">
<!-- Generated by graphviz version 2.43.0 (0)
 -->
<!-- Title: SystemHard::findGroupsAndCreateArtificialParticlesOneCluster Pages: 1 -->
<svg width="606pt" height="176pt"
 viewBox="0.00 0.00 606.00 175.50" xmlns="http://www.w3.org/2000/svg" xmlns:xlink="http://www.w3.org/1999/xlink">
<g id="graph0" class="graph" transform="scale(1 1) rotate(0) translate(4 171.5)">
<title>SystemHard::findGroupsAndCreateArtificialParticlesOneCluster</title>
<polygon fill="white" stroke="transparent" points="-4,4 -4,-171.5 602,-171.5 602,4 -4,4"/>
<!-- Node1 -->
<g id="node1" class="node">
<title>Node1</title>
<g id="a_node1"><a xlink:title="generate artificial particles,">
<polygon fill="#bfbfbf" stroke="black" points="0,-73.5 0,-103.5 185,-103.5 185,-73.5 0,-73.5"/>
<text text-anchor="start" x="8" y="-91.5" font-family="Helvetica,sans-Serif" font-size="10.00">SystemHard::findGroupsAnd</text>
<text text-anchor="middle" x="92.5" y="-80.5" font-family="Helvetica,sans-Serif" font-size="10.00">CreateArtificialParticlesOneCluster</text>
</a>
</g>
</g>
<!-- Node2 -->
<g id="node2" class="node">
<title>Node2</title>
<g id="a_node2"><a xlink:href="classStability.html#aa14561ced4c6f52711990b4d4065e519" target="_top" xlink:title="Check binary tree and collect closed systems subtree root.">
<polygon fill="white" stroke="black" points="236,-148 236,-167 370,-167 370,-148 236,-148"/>
<text text-anchor="middle" x="303" y="-155" font-family="Helvetica,sans-Serif" font-size="10.00">Stability::findClosedTree</text>
</a>
</g>
</g>
<!-- Node1&#45;&gt;Node2 -->
<g id="edge1" class="edge">
<title>Node1&#45;&gt;Node2</title>
<path fill="none" stroke="midnightblue" d="M127.93,-103.55C153.31,-114.27 188.88,-128.49 221,-138.5 229.13,-141.03 237.81,-143.41 246.35,-145.56"/>
<polygon fill="midnightblue" stroke="midnightblue" points="245.74,-149.01 256.28,-147.98 247.39,-142.21 245.74,-149.01"/>
</g>
<!-- Node4 -->
<g id="node4" class="node">
<title>Node4</title>
<g id="a_node4"><a xlink:href="classSearchGroupCandidate.html#aaf78ad50bf7c53a67bdc2e10b937fdac" target="_top" xlink:title=" ">
<polygon fill="white" stroke="black" points="239,-98.5 239,-128.5 367,-128.5 367,-98.5 239,-98.5"/>
<text text-anchor="start" x="247" y="-116.5" font-family="Helvetica,sans-Serif" font-size="10.00">SearchGroupCandidate</text>
<text text-anchor="middle" x="303" y="-105.5" font-family="Helvetica,sans-Serif" font-size="10.00">::getMemberList</text>
</a>
</g>
</g>
<!-- Node1&#45;&gt;Node4 -->
<g id="edge3" class="edge">
<title>Node1&#45;&gt;Node4</title>
<path fill="none" stroke="midnightblue" d="M185.25,-99.5C199.85,-101.25 214.77,-103.04 228.86,-104.73"/>
<polygon fill="midnightblue" stroke="midnightblue" points="228.61,-108.23 238.96,-105.94 229.45,-101.28 228.61,-108.23"/>
</g>
<!-- Node5 -->
<g id="node5" class="node">
<title>Node5</title>
<g id="a_node5"><a xlink:href="classSearchGroupCandidate.html#af2319845b77573bbee67d82c9ee2b415" target="_top" xlink:title=" ">
<polygon fill="white" stroke="black" points="221,-49.5 221,-79.5 385,-79.5 385,-49.5 221,-49.5"/>
<text text-anchor="start" x="229" y="-67.5" font-family="Helvetica,sans-Serif" font-size="10.00">SearchGroupCandidate</text>
<text text-anchor="middle" x="303" y="-56.5" font-family="Helvetica,sans-Serif" font-size="10.00">::getNumberOfGroupMembers</text>
</a>
</g>
</g>
<!-- Node1&#45;&gt;Node5 -->
<g id="edge4" class="edge">
<title>Node1&#45;&gt;Node5</title>
<path fill="none" stroke="midnightblue" d="M185.25,-77.94C193.64,-76.97 202.14,-75.99 210.53,-75.03"/>
<polygon fill="midnightblue" stroke="midnightblue" points="211.15,-78.48 220.69,-73.86 210.35,-71.53 211.15,-78.48"/>
</g>
<!-- Node6 -->
<g id="node6" class="node">
<title>Node6</title>
<g id="a_node6"><a xlink:href="classSearchGroupCandidate.html#a24fa3d099f4cc0af771b1cc7272f093c" target="_top" xlink:title=" ">
<polygon fill="white" stroke="black" points="239,-0.5 239,-30.5 367,-30.5 367,-0.5 239,-0.5"/>
<text text-anchor="start" x="247" y="-18.5" font-family="Helvetica,sans-Serif" font-size="10.00">SearchGroupCandidate</text>
<text text-anchor="middle" x="303" y="-7.5" font-family="Helvetica,sans-Serif" font-size="10.00">::getNumberOfGroups</text>
</a>
</g>
</g>
<!-- Node1&#45;&gt;Node6 -->
<g id="edge5" class="edge">
<title>Node1&#45;&gt;Node6</title>
<path fill="none" stroke="midnightblue" d="M131.78,-73.4C156.99,-63.62 190.79,-50.84 221,-40.5 227.55,-38.26 234.43,-36 241.29,-33.8"/>
<polygon fill="midnightblue" stroke="midnightblue" points="242.82,-36.99 251.29,-30.63 240.7,-30.31 242.82,-36.99"/>
</g>
<!-- Node3 -->
<g id="node3" class="node">
<title>Node3</title>
<g id="a_node3"><a xlink:href="classStability.html#af7837504b63ebe02eae8c808806014e4" target="_top" xlink:title="Closed system check iteration function for BinaryTree.">
<polygon fill="white" stroke="black" points="421,-148 421,-167 598,-167 598,-148 421,-148"/>
<text text-anchor="middle" x="509.5" y="-155" font-family="Helvetica,sans-Serif" font-size="10.00">Stability::closedSystemCheckIter</text>
</a>
</g>
</g>
<!-- Node2&#45;&gt;Node3 -->
<g id="edge2" class="edge">
<title>Node2&#45;&gt;Node3</title>
<path fill="none" stroke="midnightblue" d="M370.11,-157.5C382.95,-157.5 396.65,-157.5 410.26,-157.5"/>
<polygon fill="midnightblue" stroke="midnightblue" points="410.63,-161 420.63,-157.5 410.63,-154 410.63,-161"/>
</g>
</g>
</svg>
