<?xml version="1.0" encoding="UTF-8" standalone="no"?>
<!DOCTYPE svg PUBLIC "-//W3C//DTD SVG 1.1//EN"
 "http://www.w3.org/Graphics/SVG/1.1/DTD/svg11.dtd">
<!-- Generated by graphviz version 2.43.0 (0)
 -->
<!-- Title: Stability::stable2check Pages: 1 -->
<svg width="487pt" height="28pt"
 viewBox="0.00 0.00 487.00 28.00" xmlns="http://www.w3.org/2000/svg" xmlns:xlink="http://www.w3.org/1999/xlink">
<g id="graph0" class="graph" transform="scale(1 1) rotate(0) translate(4 24)">
<title>Stability::stable2check</title>
<polygon fill="white" stroke="transparent" points="-4,4 -4,-24 483,-24 483,4 -4,4"/>
<!-- Node1 -->
<g id="node1" class="node">
<title>Node1</title>
<g id="a_node1"><a xlink:title="check two&#45;body stability">
<polygon fill="#bfbfbf" stroke="black" points="352,-0.5 352,-19.5 479,-19.5 479,-0.5 352,-0.5"/>
<text text-anchor="middle" x="415.5" y="-7.5" font-family="Helvetica,sans-Serif" font-size="10.00">Stability::stable2check</text>
</a>
</g>
</g>
<!-- Node2 -->
<g id="node2" class="node">
<title>Node2</title>
<g id="a_node2"><a xlink:href="classStability.html#a40355024253599fc1df4d7d1c719412a" target="_top" xlink:title="Stability check iteraction function for BinaryTree.">
<polygon fill="white" stroke="black" points="167,-0.5 167,-19.5 316,-19.5 316,-0.5 167,-0.5"/>
<text text-anchor="middle" x="241.5" y="-7.5" font-family="Helvetica,sans-Serif" font-size="10.00">Stability::stabilityCheckIter</text>
</a>
</g>
</g>
<!-- Node1&#45;&gt;Node2 -->
<g id="edge1" class="edge">
<title>Node1&#45;&gt;Node2</title>
<path fill="none" stroke="midnightblue" d="M341.71,-10C333.25,-10 324.61,-10 316.14,-10"/>
<polygon fill="midnightblue" stroke="midnightblue" points="341.92,-13.5 351.92,-10 341.92,-6.5 341.92,-13.5"/>
</g>
<!-- Node3 -->
<g id="node3" class="node">
<title>Node3</title>
<g id="a_node3"><a xlink:href="classStability.html#a5a905e57057b65f66e778ef3b8070878" target="_top" xlink:title="Check binary tree and collect stable subtree.">
<polygon fill="white" stroke="black" points="0,-0.5 0,-19.5 131,-19.5 131,-0.5 0,-0.5"/>
<text text-anchor="middle" x="65.5" y="-7.5" font-family="Helvetica,sans-Serif" font-size="10.00">Stability::findStableTree</text>
</a>
</g>
</g>
<!-- Node2&#45;&gt;Node3 -->
<g id="edge2" class="edge">
<title>Node2&#45;&gt;Node3</title>
<path fill="none" stroke="midnightblue" d="M156.88,-10C148.26,-10 139.6,-10 131.23,-10"/>
<polygon fill="midnightblue" stroke="midnightblue" points="156.96,-13.5 166.96,-10 156.96,-6.5 156.96,-13.5"/>
</g>
</g>
</svg>
