<?xml version="1.0" encoding="UTF-8" standalone="no"?>
<!DOCTYPE svg PUBLIC "-//W3C//DTD SVG 1.1//EN"
 "http://www.w3.org/Graphics/SVG/1.1/DTD/svg11.dtd">
<!-- Generated by graphviz version 2.43.0 (0)
 -->
<!-- Title: IOParamsPeTar::read Pages: 1 -->
<svg width="890pt" height="171pt"
 viewBox="0.00 0.00 890.00 170.50" xmlns="http://www.w3.org/2000/svg" xmlns:xlink="http://www.w3.org/1999/xlink">
<g id="graph0" class="graph" transform="scale(1 1) rotate(0) translate(4 166.5)">
<title>IOParamsPeTar::read</title>
<polygon fill="white" stroke="transparent" points="-4,4 -4,-166.5 886,-166.5 886,4 -4,4"/>
<!-- Node1 -->
<g id="node1" class="node">
<title>Node1</title>
<g id="a_node1"><a xlink:title="reading parameters from GNU option API">
<polygon fill="#bfbfbf" stroke="black" points="0,-77 0,-96 117,-96 117,-77 0,-77"/>
<text text-anchor="middle" x="58.5" y="-84" font-family="Helvetica,sans-Serif" font-size="10.00">IOParamsPeTar::read</text>
</a>
</g>
</g>
<!-- Node2 -->
<g id="node2" class="node">
<title>Node2</title>
<g id="a_node2"><a xlink:href="structIOParams.html#a14f008160ee20f31bee6973eb7d5416d" target="_top" xlink:title=" ">
<polygon fill="white" stroke="black" points="188,-143 188,-162 280,-162 280,-143 188,-143"/>
<text text-anchor="middle" x="234" y="-150" font-family="Helvetica,sans-Serif" font-size="10.00">IOParams::print</text>
</a>
</g>
</g>
<!-- Node1&#45;&gt;Node2 -->
<g id="edge1" class="edge">
<title>Node1&#45;&gt;Node2</title>
<path fill="none" stroke="midnightblue" d="M75.54,-96.01C93.76,-106.48 124.66,-123.17 153,-133.5 160.9,-136.38 169.41,-138.94 177.82,-141.18"/>
<polygon fill="midnightblue" stroke="midnightblue" points="177.06,-144.6 187.61,-143.65 178.77,-137.81 177.06,-144.6"/>
</g>
<!-- Node3 -->
<g id="node3" class="node">
<title>Node3</title>
<g id="a_node3"><a xlink:href="classIOParamsContainer.html#a8bdebaa655392813c07b0dd4ae6469c2" target="_top" xlink:title=" ">
<polygon fill="white" stroke="black" points="176,-93.5 176,-123.5 292,-123.5 292,-93.5 176,-93.5"/>
<text text-anchor="start" x="184" y="-111.5" font-family="Helvetica,sans-Serif" font-size="10.00">IOParamsContainer::</text>
<text text-anchor="middle" x="234" y="-100.5" font-family="Helvetica,sans-Serif" font-size="10.00">printHelp</text>
</a>
</g>
</g>
<!-- Node1&#45;&gt;Node3 -->
<g id="edge2" class="edge">
<title>Node1&#45;&gt;Node3</title>
<path fill="none" stroke="midnightblue" d="M117.27,-93.83C132.72,-95.78 149.55,-97.92 165.47,-99.94"/>
<polygon fill="midnightblue" stroke="midnightblue" points="165.41,-103.46 175.77,-101.24 166.29,-96.51 165.41,-103.46"/>
</g>
<!-- Node5 -->
<g id="node5" class="node">
<title>Node5</title>
<g id="a_node5"><a xlink:href="classFPSoft.html#aca3236af1ccb822b51a0cb4acb2ab678" target="_top" xlink:title="print column title with meaning (each line for one column)">
<polygon fill="white" stroke="black" points="153,-55 153,-74 315,-74 315,-55 153,-55"/>
<text text-anchor="middle" x="234" y="-62" font-family="Helvetica,sans-Serif" font-size="10.00">FPSoft::printTitleWithMeaning</text>
</a>
</g>
</g>
<!-- Node1&#45;&gt;Node5 -->
<g id="edge4" class="edge">
<title>Node1&#45;&gt;Node5</title>
<path fill="none" stroke="midnightblue" d="M117.27,-79.17C127.13,-77.92 137.56,-76.6 147.95,-75.28"/>
<polygon fill="midnightblue" stroke="midnightblue" points="148.41,-78.75 157.89,-74.02 147.52,-71.81 148.41,-78.75"/>
</g>
<!-- Node11 -->
<g id="node11" class="node">
<title>Node11</title>
<g id="a_node11"><a xlink:href="classIOParamsContainer.html#a972926da32b4043d06456ab6d35d7752" target="_top" xlink:title=" ">
<polygon fill="white" stroke="black" points="176,-5.5 176,-35.5 292,-35.5 292,-5.5 176,-5.5"/>
<text text-anchor="start" x="184" y="-23.5" font-family="Helvetica,sans-Serif" font-size="10.00">IOParamsContainer::</text>
<text text-anchor="middle" x="234" y="-12.5" font-family="Helvetica,sans-Serif" font-size="10.00">readAscii</text>
</a>
</g>
</g>
<!-- Node1&#45;&gt;Node11 -->
<g id="edge10" class="edge">
<title>Node1&#45;&gt;Node11</title>
<path fill="none" stroke="midnightblue" d="M79.66,-76.89C98.42,-68.13 127.27,-55.13 153,-45.5 159.23,-43.17 165.78,-40.88 172.34,-38.68"/>
<polygon fill="midnightblue" stroke="midnightblue" points="173.52,-41.98 181.93,-35.53 171.34,-35.32 173.52,-41.98"/>
</g>
<!-- Node4 -->
<g id="node4" class="node">
<title>Node4</title>
<g id="a_node4"><a xlink:href="structIOParamsPrintHelp.html#a02a0af84b1fabe990b816133cbc345ee" target="_top" xlink:title=" ">
<polygon fill="white" stroke="black" points="351,-93.5 351,-123.5 523,-123.5 523,-93.5 351,-93.5"/>
<text text-anchor="start" x="359" y="-111.5" font-family="Helvetica,sans-Serif" font-size="10.00">IOParamsPrintHelp::</text>
<text text-anchor="middle" x="437" y="-100.5" font-family="Helvetica,sans-Serif" font-size="10.00">printTypeShortNameDescription</text>
</a>
</g>
</g>
<!-- Node3&#45;&gt;Node4 -->
<g id="edge3" class="edge">
<title>Node3&#45;&gt;Node4</title>
<path fill="none" stroke="midnightblue" d="M292.06,-108.5C307.15,-108.5 323.86,-108.5 340.39,-108.5"/>
<polygon fill="midnightblue" stroke="midnightblue" points="340.64,-112 350.64,-108.5 340.64,-105 340.64,-112"/>
</g>
<!-- Node6 -->
<g id="node6" class="node">
<title>Node6</title>
<g id="a_node6"><a xlink:href="classPtcl.html#acd6efea3772cb295b1064d53695eb276" target="_top" xlink:title="print column title with meaning (each line for one column)">
<polygon fill="white" stroke="black" points="362.5,-55 362.5,-74 511.5,-74 511.5,-55 362.5,-55"/>
<text text-anchor="middle" x="437" y="-62" font-family="Helvetica,sans-Serif" font-size="10.00">Ptcl::printTitleWithMeaning</text>
</a>
</g>
</g>
<!-- Node5&#45;&gt;Node6 -->
<g id="edge5" class="edge">
<title>Node5&#45;&gt;Node6</title>
<path fill="none" stroke="midnightblue" d="M315.02,-64.5C327.25,-64.5 339.9,-64.5 352.21,-64.5"/>
<polygon fill="midnightblue" stroke="midnightblue" points="352.45,-68 362.45,-64.5 352.45,-61 352.45,-68"/>
</g>
<!-- Node7 -->
<g id="node7" class="node">
<title>Node7</title>
<g id="a_node7"><a xlink:href="classChangeOver.html#afc18f1457828a89cc303cbf025fffe42" target="_top" xlink:title="print column title with meaning (each line for one column)">
<polygon fill="white" stroke="black" points="559.5,-98.5 559.5,-128.5 708.5,-128.5 708.5,-98.5 559.5,-98.5"/>
<text text-anchor="start" x="567.5" y="-116.5" font-family="Helvetica,sans-Serif" font-size="10.00">ChangeOver::printTitleWith</text>
<text text-anchor="middle" x="634" y="-105.5" font-family="Helvetica,sans-Serif" font-size="10.00">Meaning</text>
</a>
</g>
</g>
<!-- Node6&#45;&gt;Node7 -->
<g id="edge6" class="edge">
<title>Node6&#45;&gt;Node7</title>
<path fill="none" stroke="midnightblue" d="M479.56,-74.04C493.4,-77.28 508.88,-80.98 523,-84.5 537.32,-88.07 552.66,-92.03 567.2,-95.85"/>
<polygon fill="midnightblue" stroke="midnightblue" points="566.55,-99.3 577.11,-98.46 568.34,-92.53 566.55,-99.3"/>
</g>
<!-- Node8 -->
<g id="node8" class="node">
<title>Node8</title>
<g id="a_node8"><a xlink:href="classArtificialParticleInformation.html#a5c43b0ff92a0c281930551c2adcf8ac6" target="_top" xlink:title="print column title with meaning (each line for one column)">
<polygon fill="white" stroke="black" points="559,-49.5 559,-79.5 709,-79.5 709,-49.5 559,-49.5"/>
<text text-anchor="start" x="567" y="-67.5" font-family="Helvetica,sans-Serif" font-size="10.00">ArtificialParticleInformation</text>
<text text-anchor="middle" x="634" y="-56.5" font-family="Helvetica,sans-Serif" font-size="10.00">::printTitleWithMeaning</text>
</a>
</g>
</g>
<!-- Node6&#45;&gt;Node8 -->
<g id="edge7" class="edge">
<title>Node6&#45;&gt;Node8</title>
<path fill="none" stroke="midnightblue" d="M511.72,-64.5C523.77,-64.5 536.34,-64.5 548.62,-64.5"/>
<polygon fill="midnightblue" stroke="midnightblue" points="548.85,-68 558.85,-64.5 548.85,-61 548.85,-68"/>
</g>
<!-- Node9 -->
<g id="node9" class="node">
<title>Node9</title>
<g id="a_node9"><a xlink:href="classParticleBase.html#acbad2a98ca348d62adb2b2f972ad7d5a" target="_top" xlink:title="print column title with meaning (each line for one column)">
<polygon fill="white" stroke="black" points="570.5,-0.5 570.5,-30.5 697.5,-30.5 697.5,-0.5 570.5,-0.5"/>
<text text-anchor="start" x="578.5" y="-18.5" font-family="Helvetica,sans-Serif" font-size="10.00">ParticleBase::printTitle</text>
<text text-anchor="middle" x="634" y="-7.5" font-family="Helvetica,sans-Serif" font-size="10.00">WithMeaning</text>
</a>
</g>
</g>
<!-- Node6&#45;&gt;Node9 -->
<g id="edge8" class="edge">
<title>Node6&#45;&gt;Node9</title>
<path fill="none" stroke="midnightblue" d="M476.06,-54.94C500.86,-48.71 533.95,-40.39 563.35,-33"/>
<polygon fill="midnightblue" stroke="midnightblue" points="564.31,-36.37 573.16,-30.54 562.61,-29.58 564.31,-36.37"/>
</g>
<!-- Node10 -->
<g id="node10" class="node">
<title>Node10</title>
<g id="a_node10"><a xlink:href="structStarParameter.html#acf720b7ca30d8db6a94ecbf7d548ae1c" target="_top" xlink:title="print column title with meaning (each line for one column)">
<polygon fill="white" stroke="black" points="745,-0.5 745,-30.5 882,-30.5 882,-0.5 745,-0.5"/>
<text text-anchor="start" x="753" y="-18.5" font-family="Helvetica,sans-Serif" font-size="10.00">StarParameter::printTitle</text>
<text text-anchor="middle" x="813.5" y="-7.5" font-family="Helvetica,sans-Serif" font-size="10.00">WithMeaning</text>
</a>
</g>
</g>
<!-- Node9&#45;&gt;Node10 -->
<g id="edge9" class="edge">
<title>Node9&#45;&gt;Node10</title>
<path fill="none" stroke="midnightblue" d="M697.58,-15.5C709.51,-15.5 722.13,-15.5 734.48,-15.5"/>
<polygon fill="midnightblue" stroke="midnightblue" points="734.76,-19 744.76,-15.5 734.76,-12 734.76,-19"/>
</g>
</g>
</svg>
