<?xml version="1.0" encoding="UTF-8" standalone="no"?>
<!DOCTYPE svg PUBLIC "-//W3C//DTD SVG 1.1//EN"
 "http://www.w3.org/Graphics/SVG/1.1/DTD/svg11.dtd">
<!-- Generated by graphviz version 2.43.0 (0)
 -->
<!-- Title: GalpyManager::printData Pages: 1 -->
<svg width="649pt" height="80pt"
 viewBox="0.00 0.00 649.00 80.17" xmlns="http://www.w3.org/2000/svg" xmlns:xlink="http://www.w3.org/1999/xlink">
<g id="graph0" class="graph" transform="scale(1 1) rotate(0) translate(4 76.17)">
<title>GalpyManager::printData</title>
<polygon fill="white" stroke="transparent" points="-4,4 -4,-76.17 645,-76.17 645,4 -4,4"/>
<!-- Node1 -->
<g id="node1" class="node">
<title>Node1</title>
<g id="a_node1"><a xlink:title="print current potential data">
<polygon fill="#bfbfbf" stroke="black" points="501,-38.5 501,-57.5 641,-57.5 641,-38.5 501,-38.5"/>
<text text-anchor="middle" x="571" y="-45.5" font-family="Helvetica,sans-Serif" font-size="10.00">GalpyManager::printData</text>
</a>
</g>
</g>
<!-- Node2 -->
<g id="node2" class="node">
<title>Node2</title>
<g id="a_node2"><a xlink:href="classGalpyManager.html#ac6ce59845e4b863a3fce47c18e09631a" target="_top" xlink:title="initialization function">
<polygon fill="white" stroke="black" points="101.5,-38.5 101.5,-57.5 223.5,-57.5 223.5,-38.5 101.5,-38.5"/>
<text text-anchor="middle" x="162.5" y="-45.5" font-family="Helvetica,sans-Serif" font-size="10.00">GalpyManager::initial</text>
</a>
</g>
</g>
<!-- Node1&#45;&gt;Node2 -->
<g id="edge1" class="edge">
<title>Node1&#45;&gt;Node2</title>
<path fill="none" stroke="midnightblue" d="M517.24,-59.45C500.61,-62.55 482.11,-65.46 465,-67 384.88,-74.19 364.2,-73.28 284,-67 260.35,-65.15 234.33,-61.28 212.54,-57.51"/>
<polygon fill="midnightblue" stroke="midnightblue" points="518.16,-62.84 527.32,-57.51 516.84,-55.96 518.16,-62.84"/>
</g>
<!-- Node4 -->
<g id="node4" class="node">
<title>Node4</title>
<g id="a_node4"><a xlink:href="classGalpyManager.html#a75135e141ff8b0e37237aa2bd540d84a" target="_top" xlink:title="read configure data for restart">
<polygon fill="white" stroke="black" points="284,-38.5 284,-57.5 465,-57.5 465,-38.5 284,-38.5"/>
<text text-anchor="middle" x="374.5" y="-45.5" font-family="Helvetica,sans-Serif" font-size="10.00">GalpyManager::readDataFromFile</text>
</a>
</g>
</g>
<!-- Node1&#45;&gt;Node4 -->
<g id="edge3" class="edge">
<title>Node1&#45;&gt;Node4</title>
<path fill="none" stroke="midnightblue" d="M490.71,-48C482.29,-48 473.68,-48 465.15,-48"/>
<polygon fill="midnightblue" stroke="midnightblue" points="490.88,-51.5 500.88,-48 490.88,-44.5 490.88,-51.5"/>
</g>
<!-- Node5 -->
<g id="node5" class="node">
<title>Node5</title>
<g id="a_node5"><a xlink:href="classGalpyManager.html#a2b9c41229c1b4a6d5c06e18017298357" target="_top" xlink:title="Update Potential types and arguments based on time.">
<polygon fill="white" stroke="black" points="77,-0.5 77,-19.5 248,-19.5 248,-0.5 77,-0.5"/>
<text text-anchor="middle" x="162.5" y="-7.5" font-family="Helvetica,sans-Serif" font-size="10.00">GalpyManager::updatePotential</text>
</a>
</g>
</g>
<!-- Node1&#45;&gt;Node5 -->
<g id="edge5" class="edge">
<title>Node1&#45;&gt;Node5</title>
<path fill="none" stroke="midnightblue" d="M513.81,-36.59C498.07,-33.73 480.92,-30.93 465,-29 392.11,-20.14 308.77,-15.29 248.22,-12.71"/>
<polygon fill="midnightblue" stroke="midnightblue" points="513.44,-40.08 523.92,-38.47 514.72,-33.2 513.44,-40.08"/>
</g>
<!-- Node3 -->
<g id="node3" class="node">
<title>Node3</title>
<g id="a_node3"><a xlink:href="galpy__test_8cxx.html#a3c04138a5bfe5d72780bb7e82a18e627" target="_top" xlink:title=" ">
<polygon fill="white" stroke="black" points="0,-19.5 0,-38.5 41,-38.5 41,-19.5 0,-19.5"/>
<text text-anchor="middle" x="20.5" y="-26.5" font-family="Helvetica,sans-Serif" font-size="10.00">main</text>
</a>
</g>
</g>
<!-- Node2&#45;&gt;Node3 -->
<g id="edge2" class="edge">
<title>Node2&#45;&gt;Node3</title>
<path fill="none" stroke="midnightblue" d="M91.37,-38.48C72.86,-35.97 54.37,-33.46 41.06,-31.65"/>
<polygon fill="midnightblue" stroke="midnightblue" points="90.94,-41.96 101.31,-39.83 91.88,-35.02 90.94,-41.96"/>
</g>
<!-- Node4&#45;&gt;Node2 -->
<g id="edge4" class="edge">
<title>Node4&#45;&gt;Node2</title>
<path fill="none" stroke="midnightblue" d="M273.8,-48C256.69,-48 239.4,-48 223.74,-48"/>
<polygon fill="midnightblue" stroke="midnightblue" points="273.83,-51.5 283.83,-48 273.83,-44.5 273.83,-51.5"/>
</g>
<!-- Node5&#45;&gt;Node3 -->
<g id="edge6" class="edge">
<title>Node5&#45;&gt;Node3</title>
<path fill="none" stroke="midnightblue" d="M80.79,-20.95C66,-22.96 51.88,-24.88 41.12,-26.34"/>
<polygon fill="midnightblue" stroke="midnightblue" points="81.65,-24.37 91.09,-19.56 80.71,-17.43 81.65,-24.37"/>
</g>
</g>
</svg>
