<?xml version="1.0" encoding="UTF-8" standalone="no"?>
<!DOCTYPE svg PUBLIC "-//W3C//DTD SVG 1.1//EN"
 "http://www.w3.org/Graphics/SVG/1.1/DTD/svg11.dtd">
<!-- Generated by graphviz version 2.43.0 (0)
 -->
<!-- Title: Status::printColumn Pages: 1 -->
<svg width="463pt" height="112pt"
 viewBox="0.00 0.00 463.00 112.00" xmlns="http://www.w3.org/2000/svg" xmlns:xlink="http://www.w3.org/1999/xlink">
<g id="graph0" class="graph" transform="scale(1 1) rotate(0) translate(4 108)">
<title>Status::printColumn</title>
<polygon fill="white" stroke="transparent" points="-4,4 -4,-108 459,-108 459,4 -4,4"/>
<!-- Node1 -->
<g id="node1" class="node">
<title>Node1</title>
<g id="a_node1"><a xlink:title="print data of class members using column style">
<polygon fill="#bfbfbf" stroke="black" points="0,-54 0,-73 113,-73 113,-54 0,-54"/>
<text text-anchor="middle" x="56.5" y="-61" font-family="Helvetica,sans-Serif" font-size="10.00">Status::printColumn</text>
</a>
</g>
</g>
<!-- Node2 -->
<g id="node2" class="node">
<title>Node2</title>
<g id="a_node2"><a xlink:href="structStatus_1_1ParticleCM.html#a3d661f946d89355f7789576e3919e345" target="_top" xlink:title="print data of class members using column style">
<polygon fill="white" stroke="black" points="164,-73.5 164,-103.5 269,-103.5 269,-73.5 164,-73.5"/>
<text text-anchor="start" x="172" y="-91.5" font-family="Helvetica,sans-Serif" font-size="10.00">Status::ParticleCM</text>
<text text-anchor="middle" x="216.5" y="-80.5" font-family="Helvetica,sans-Serif" font-size="10.00">::printColumn</text>
</a>
</g>
</g>
<!-- Node1&#45;&gt;Node2 -->
<g id="edge1" class="edge">
<title>Node1&#45;&gt;Node2</title>
<path fill="none" stroke="midnightblue" d="M113.2,-72.31C126.37,-74.4 140.49,-76.63 153.9,-78.75"/>
<polygon fill="midnightblue" stroke="midnightblue" points="153.57,-82.24 164,-80.35 154.67,-75.33 153.57,-82.24"/>
</g>
<!-- Node3 -->
<g id="node3" class="node">
<title>Node3</title>
<g id="a_node3"><a xlink:href="classEnergyAndMomemtum.html#a0cb4de153894618f11d0443a12e3f44c" target="_top" xlink:title="print data of class members using column style">
<polygon fill="white" stroke="black" points="149,-24.5 149,-54.5 284,-54.5 284,-24.5 149,-24.5"/>
<text text-anchor="start" x="157" y="-42.5" font-family="Helvetica,sans-Serif" font-size="10.00">EnergyAndMomemtum::</text>
<text text-anchor="middle" x="216.5" y="-31.5" font-family="Helvetica,sans-Serif" font-size="10.00">printColumn</text>
</a>
</g>
</g>
<!-- Node1&#45;&gt;Node3 -->
<g id="edge2" class="edge">
<title>Node1&#45;&gt;Node3</title>
<path fill="none" stroke="midnightblue" d="M113.2,-55.04C121.51,-53.78 130.18,-52.46 138.83,-51.15"/>
<polygon fill="midnightblue" stroke="midnightblue" points="139.57,-54.57 148.93,-49.61 138.52,-47.65 139.57,-54.57"/>
</g>
<!-- Node4 -->
<g id="node4" class="node">
<title>Node4</title>
<g id="a_node4"><a xlink:href="classEnergyAndMomemtum.html#aaab3632eebd2889fdb6b8c4d93f5e1d7" target="_top" xlink:title="get energy error">
<polygon fill="white" stroke="black" points="320,-49.5 320,-79.5 455,-79.5 455,-49.5 320,-49.5"/>
<text text-anchor="start" x="328" y="-67.5" font-family="Helvetica,sans-Serif" font-size="10.00">EnergyAndMomemtum::</text>
<text text-anchor="middle" x="387.5" y="-56.5" font-family="Helvetica,sans-Serif" font-size="10.00">getEnergyError</text>
</a>
</g>
</g>
<!-- Node3&#45;&gt;Node4 -->
<g id="edge3" class="edge">
<title>Node3&#45;&gt;Node4</title>
<path fill="none" stroke="midnightblue" d="M284.29,-49.38C292.72,-50.63 301.38,-51.91 309.94,-53.17"/>
<polygon fill="midnightblue" stroke="midnightblue" points="309.51,-56.65 319.92,-54.65 310.54,-49.72 309.51,-56.65"/>
</g>
<!-- Node5 -->
<g id="node5" class="node">
<title>Node5</title>
<g id="a_node5"><a xlink:href="classEnergyAndMomemtum.html#a80207187dafc5faeccbb0cc8a898f1f1" target="_top" xlink:title="get angular momemtum (value) error">
<polygon fill="white" stroke="black" points="320,-0.5 320,-30.5 455,-30.5 455,-0.5 320,-0.5"/>
<text text-anchor="start" x="328" y="-18.5" font-family="Helvetica,sans-Serif" font-size="10.00">EnergyAndMomemtum::</text>
<text text-anchor="middle" x="387.5" y="-7.5" font-family="Helvetica,sans-Serif" font-size="10.00">getMomentumError</text>
</a>
</g>
</g>
<!-- Node3&#45;&gt;Node5 -->
<g id="edge4" class="edge">
<title>Node3&#45;&gt;Node5</title>
<path fill="none" stroke="midnightblue" d="M284.29,-30.01C292.72,-28.82 301.38,-27.59 309.94,-26.37"/>
<polygon fill="midnightblue" stroke="midnightblue" points="310.51,-29.83 319.92,-24.96 309.52,-22.9 310.51,-29.83"/>
</g>
</g>
</svg>
