<?xml version="1.0" encoding="UTF-8" standalone="no"?>
<!DOCTYPE svg PUBLIC "-//W3C//DTD SVG 1.1//EN"
 "http://www.w3.org/Graphics/SVG/1.1/DTD/svg11.dtd">
<!-- Generated by graphviz version 2.43.0 (0)
 -->
<!-- Title: ArtificialParticleInformation::printColumn Pages: 1 -->
<svg width="547pt" height="66pt"
 viewBox="0.00 0.00 547.00 66.00" xmlns="http://www.w3.org/2000/svg" xmlns:xlink="http://www.w3.org/1999/xlink">
<g id="graph0" class="graph" transform="scale(1 1) rotate(0) translate(4 62)">
<title>ArtificialParticleInformation::printColumn</title>
<polygon fill="white" stroke="transparent" points="-4,4 -4,-62 543,-62 543,4 -4,4"/>
<!-- Node1 -->
<g id="node1" class="node">
<title>Node1</title>
<g id="a_node1"><a xlink:title="print data of class members using column style">
<polygon fill="#bfbfbf" stroke="black" points="389,-14 389,-44 539,-44 539,-14 389,-14"/>
<text text-anchor="start" x="397" y="-32" font-family="Helvetica,sans-Serif" font-size="10.00">ArtificialParticleInformation</text>
<text text-anchor="middle" x="464" y="-21" font-family="Helvetica,sans-Serif" font-size="10.00">::printColumn</text>
</a>
</g>
</g>
<!-- Node2 -->
<g id="node2" class="node">
<title>Node2</title>
<g id="a_node2"><a xlink:href="classPtcl.html#ad3edca90dcee7b42baee6d12cbd25e52" target="_top" xlink:title="print data of class members using column style">
<polygon fill="white" stroke="black" points="226.5,-38.5 226.5,-57.5 327.5,-57.5 327.5,-38.5 226.5,-38.5"/>
<text text-anchor="middle" x="277" y="-45.5" font-family="Helvetica,sans-Serif" font-size="10.00">Ptcl::printColumn</text>
</a>
</g>
</g>
<!-- Node1&#45;&gt;Node2 -->
<g id="edge1" class="edge">
<title>Node1&#45;&gt;Node2</title>
<path fill="none" stroke="midnightblue" d="M378.59,-37.67C361.12,-39.46 343.25,-41.3 327.52,-42.91"/>
<polygon fill="midnightblue" stroke="midnightblue" points="379.23,-41.12 388.82,-36.62 378.51,-34.16 379.23,-41.12"/>
</g>
<!-- Node4 -->
<g id="node4" class="node">
<title>Node4</title>
<g id="a_node4"><a xlink:href="classPtcl.html#ac152a9401ef2c14532f37f909f15264d" target="_top" xlink:title="print data of class members with pos and vel offset using column style">
<polygon fill="white" stroke="black" points="201,-0.5 201,-19.5 353,-19.5 353,-0.5 201,-0.5"/>
<text text-anchor="middle" x="277" y="-7.5" font-family="Helvetica,sans-Serif" font-size="10.00">Ptcl::printColumnWithOffset</text>
</a>
</g>
</g>
<!-- Node1&#45;&gt;Node4 -->
<g id="edge3" class="edge">
<title>Node1&#45;&gt;Node4</title>
<path fill="none" stroke="midnightblue" d="M378.82,-20.35C370.24,-19.47 361.57,-18.58 353.1,-17.71"/>
<polygon fill="midnightblue" stroke="midnightblue" points="378.51,-23.84 388.82,-21.38 379.23,-16.88 378.51,-23.84"/>
</g>
<!-- Node3 -->
<g id="node3" class="node">
<title>Node3</title>
<g id="a_node3"><a xlink:href="classFPSoft.html#a392bb1a4cfb9611095863498bd6f6ff5" target="_top" xlink:title="print data of class members using column style">
<polygon fill="white" stroke="black" points="26,-38.5 26,-57.5 139,-57.5 139,-38.5 26,-38.5"/>
<text text-anchor="middle" x="82.5" y="-45.5" font-family="Helvetica,sans-Serif" font-size="10.00">FPSoft::printColumn</text>
</a>
</g>
</g>
<!-- Node2&#45;&gt;Node3 -->
<g id="edge2" class="edge">
<title>Node2&#45;&gt;Node3</title>
<path fill="none" stroke="midnightblue" d="M216.13,-48C191.51,-48 163.17,-48 139.02,-48"/>
<polygon fill="midnightblue" stroke="midnightblue" points="216.43,-51.5 226.43,-48 216.43,-44.5 216.43,-51.5"/>
</g>
<!-- Node5 -->
<g id="node5" class="node">
<title>Node5</title>
<g id="a_node5"><a xlink:href="classFPSoft.html#a14150e7eefede550b3bc977271319cae" target="_top" xlink:title="print data of class members with pos and vel offset using column style">
<polygon fill="white" stroke="black" points="0,-0.5 0,-19.5 165,-19.5 165,-0.5 0,-0.5"/>
<text text-anchor="middle" x="82.5" y="-7.5" font-family="Helvetica,sans-Serif" font-size="10.00">FPSoft::printColumnWithOffset</text>
</a>
</g>
</g>
<!-- Node4&#45;&gt;Node5 -->
<g id="edge4" class="edge">
<title>Node4&#45;&gt;Node5</title>
<path fill="none" stroke="midnightblue" d="M190.51,-10C182.05,-10 173.48,-10 165.06,-10"/>
<polygon fill="midnightblue" stroke="midnightblue" points="190.75,-13.5 200.75,-10 190.75,-6.5 190.75,-13.5"/>
</g>
</g>
</svg>
