<?xml version="1.0" encoding="UTF-8" standalone="no"?>
<!DOCTYPE svg PUBLIC "-//W3C//DTD SVG 1.1//EN"
 "http://www.w3.org/Graphics/SVG/1.1/DTD/svg11.dtd">
<!-- Generated by graphviz version 2.43.0 (0)
 -->
<!-- Title: ARInteraction::modifyOneParticle Pages: 1 -->
<svg width="463pt" height="408pt"
 viewBox="0.00 0.00 463.00 408.00" xmlns="http://www.w3.org/2000/svg" xmlns:xlink="http://www.w3.org/1999/xlink">
<g id="graph0" class="graph" transform="scale(1 1) rotate(0) translate(4 404)">
<title>ARInteraction::modifyOneParticle</title>
<polygon fill="white" stroke="transparent" points="-4,4 -4,-404 459,-404 459,4 -4,4"/>
<!-- Node1 -->
<g id="node1" class="node">
<title>Node1</title>
<g id="a_node1"><a xlink:title="(Necessary) modify one particle function">
<polygon fill="#bfbfbf" stroke="black" points="0,-185 0,-215 142,-215 142,-185 0,-185"/>
<text text-anchor="start" x="8" y="-203" font-family="Helvetica,sans-Serif" font-size="10.00">ARInteraction::modifyOne</text>
<text text-anchor="middle" x="71" y="-192" font-family="Helvetica,sans-Serif" font-size="10.00">Particle</text>
</a>
</g>
</g>
<!-- Node2 -->
<g id="node2" class="node">
<title>Node2</title>
<g id="a_node2"><a xlink:href="classBSEManager.html#a1cb5015f422a409df16a498cfc3adfa4" target="_top" xlink:title=" ">
<polygon fill="white" stroke="black" points="191.5,-380.5 191.5,-399.5 340.5,-399.5 340.5,-380.5 191.5,-380.5"/>
<text text-anchor="middle" x="266" y="-387.5" font-family="Helvetica,sans-Serif" font-size="10.00">BSEManager::checkParams</text>
</a>
</g>
</g>
<!-- Node1&#45;&gt;Node2 -->
<g id="edge1" class="edge">
<title>Node1&#45;&gt;Node2</title>
<path fill="none" stroke="midnightblue" d="M76.81,-215.18C88.35,-248.99 120.96,-330.67 178,-371 180.71,-372.92 183.59,-374.65 186.57,-376.21"/>
<polygon fill="midnightblue" stroke="midnightblue" points="185.26,-379.46 195.81,-380.4 188.15,-373.08 185.26,-379.46"/>
</g>
<!-- Node3 -->
<g id="node3" class="node">
<title>Node3</title>
<g id="a_node3"><a xlink:href="classBSEManager.html#af97aa6234723181b08aab193127e2028" target="_top" xlink:title="call SSE evolv1 for single star">
<polygon fill="white" stroke="black" points="197.5,-342.5 197.5,-361.5 334.5,-361.5 334.5,-342.5 197.5,-342.5"/>
<text text-anchor="middle" x="266" y="-349.5" font-family="Helvetica,sans-Serif" font-size="10.00">BSEManager::evolveStar</text>
</a>
</g>
</g>
<!-- Node1&#45;&gt;Node3 -->
<g id="edge2" class="edge">
<title>Node1&#45;&gt;Node3</title>
<path fill="none" stroke="midnightblue" d="M79.54,-215.17C94.31,-243.22 129.86,-303.06 178,-333 181.37,-335.1 184.95,-336.97 188.65,-338.63"/>
<polygon fill="midnightblue" stroke="midnightblue" points="187.47,-341.93 198.06,-342.36 190.05,-335.42 187.47,-341.93"/>
</g>
<!-- Node4 -->
<g id="node4" class="node">
<title>Node4</title>
<g id="a_node4"><a xlink:href="classBSEManager.html#acb21cc1e3bbd3599a431f5a429a4b163" target="_top" xlink:title="get the difference of required finishing time and actually evolved time in NB unit">
<polygon fill="white" stroke="black" points="198,-304.5 198,-323.5 334,-323.5 334,-304.5 198,-304.5"/>
<text text-anchor="middle" x="266" y="-311.5" font-family="Helvetica,sans-Serif" font-size="10.00">BSEManager::getDTMiss</text>
</a>
</g>
</g>
<!-- Node1&#45;&gt;Node4 -->
<g id="edge3" class="edge">
<title>Node1&#45;&gt;Node4</title>
<path fill="none" stroke="midnightblue" d="M84.31,-215.15C102.49,-236.43 138.62,-274.85 178,-295 182.61,-297.36 187.51,-299.43 192.54,-301.24"/>
<polygon fill="midnightblue" stroke="midnightblue" points="191.73,-304.66 202.32,-304.42 193.89,-298 191.73,-304.66"/>
</g>
<!-- Node5 -->
<g id="node5" class="node">
<title>Node5</title>
<g id="a_node5"><a xlink:href="classBSEManager.html#a504560964d4ef29df4b525b040b8d232" target="_top" xlink:title="get current mass in NB unit">
<polygon fill="white" stroke="black" points="203.5,-266.5 203.5,-285.5 328.5,-285.5 328.5,-266.5 203.5,-266.5"/>
<text text-anchor="middle" x="266" y="-273.5" font-family="Helvetica,sans-Serif" font-size="10.00">BSEManager::getMass</text>
</a>
</g>
</g>
<!-- Node1&#45;&gt;Node5 -->
<g id="edge4" class="edge">
<title>Node1&#45;&gt;Node5</title>
<path fill="none" stroke="midnightblue" d="M95.52,-215.12C116.43,-227.96 148.21,-245.98 178,-257 185.06,-259.61 192.58,-261.91 200.13,-263.93"/>
<polygon fill="midnightblue" stroke="midnightblue" points="199.48,-267.38 210.03,-266.43 201.19,-260.59 199.48,-267.38"/>
</g>
<!-- Node6 -->
<g id="node6" class="node">
<title>Node6</title>
<g id="a_node6"><a xlink:href="classBSEManager.html#abd0cb52a6d53532019232f4c478ecb05" target="_top" xlink:title="get mass loss in NB unit">
<polygon fill="white" stroke="black" points="192.5,-228.5 192.5,-247.5 339.5,-247.5 339.5,-228.5 192.5,-228.5"/>
<text text-anchor="middle" x="266" y="-235.5" font-family="Helvetica,sans-Serif" font-size="10.00">BSEManager::getMassLoss</text>
</a>
</g>
</g>
<!-- Node1&#45;&gt;Node6 -->
<g id="edge5" class="edge">
<title>Node1&#45;&gt;Node6</title>
<path fill="none" stroke="midnightblue" d="M142.22,-213.83C163.34,-217.98 186.27,-222.5 206.54,-226.49"/>
<polygon fill="midnightblue" stroke="midnightblue" points="206.07,-229.96 216.56,-228.46 207.42,-223.1 206.07,-229.96"/>
</g>
<!-- Node7 -->
<g id="node7" class="node">
<title>Node7</title>
<g id="a_node7"><a xlink:href="classBSEManager.html#af201045fe2f972d083515d8a06908d0d" target="_top" xlink:title="get merger radius in NB unit">
<polygon fill="white" stroke="black" points="182.5,-190.5 182.5,-209.5 349.5,-209.5 349.5,-190.5 182.5,-190.5"/>
<text text-anchor="middle" x="266" y="-197.5" font-family="Helvetica,sans-Serif" font-size="10.00">BSEManager::getMergerRadius</text>
</a>
</g>
</g>
<!-- Node1&#45;&gt;Node7 -->
<g id="edge6" class="edge">
<title>Node1&#45;&gt;Node7</title>
<path fill="none" stroke="midnightblue" d="M142.22,-200C152,-200 162.18,-200 172.29,-200"/>
<polygon fill="midnightblue" stroke="midnightblue" points="172.37,-203.5 182.37,-200 172.37,-196.5 172.37,-203.5"/>
</g>
<!-- Node8 -->
<g id="node8" class="node">
<title>Node8</title>
<g id="a_node8"><a xlink:href="classBSEManager.html#a9acfef87a65d61fd52406121f3f3d35d" target="_top" xlink:title="get next time step to check in Myr">
<polygon fill="white" stroke="black" points="183,-152.5 183,-171.5 349,-171.5 349,-152.5 183,-152.5"/>
<text text-anchor="middle" x="266" y="-159.5" font-family="Helvetica,sans-Serif" font-size="10.00">BSEManager::getTimeStepStar</text>
</a>
</g>
</g>
<!-- Node1&#45;&gt;Node8 -->
<g id="edge7" class="edge">
<title>Node1&#45;&gt;Node8</title>
<path fill="none" stroke="midnightblue" d="M142.22,-186.17C163.34,-182.02 186.27,-177.5 206.54,-173.51"/>
<polygon fill="midnightblue" stroke="midnightblue" points="207.42,-176.9 216.56,-171.54 206.07,-170.04 207.42,-176.9"/>
</g>
<!-- Node9 -->
<g id="node9" class="node">
<title>Node9</title>
<g id="a_node9"><a xlink:href="namespacePIKG.html#aab82f0106f14677daa09a64a269eaadf" target="_top" xlink:title=" ">
<polygon fill="white" stroke="black" points="390,-133.5 390,-152.5 455,-152.5 455,-133.5 390,-133.5"/>
<text text-anchor="middle" x="422.5" y="-140.5" font-family="Helvetica,sans-Serif" font-size="10.00">PIKG::min</text>
</a>
</g>
</g>
<!-- Node1&#45;&gt;Node9 -->
<g id="edge10" class="edge">
<title>Node1&#45;&gt;Node9</title>
<path fill="none" stroke="midnightblue" d="M92.63,-184.88C113.11,-170.88 145.99,-151.06 178,-143 247.08,-125.6 330.73,-131.11 379.83,-136.91"/>
<polygon fill="midnightblue" stroke="midnightblue" points="379.41,-140.38 389.76,-138.14 380.27,-133.43 379.41,-140.38"/>
</g>
<!-- Node10 -->
<g id="node10" class="node">
<title>Node10</title>
<g id="a_node10"><a xlink:href="classBSEManager.html#ae2edc7704f7463912e5ff269ef8a3e23" target="_top" xlink:title="get velocity change in NB unit">
<polygon fill="white" stroke="black" points="178,-76.5 178,-95.5 354,-95.5 354,-76.5 178,-76.5"/>
<text text-anchor="middle" x="266" y="-83.5" font-family="Helvetica,sans-Serif" font-size="10.00">BSEManager::getVelocityChange</text>
</a>
</g>
</g>
<!-- Node1&#45;&gt;Node10 -->
<g id="edge9" class="edge">
<title>Node1&#45;&gt;Node10</title>
<path fill="none" stroke="midnightblue" d="M85.58,-184.95C104.42,-164.96 140.44,-129.87 178,-110 186.73,-105.38 196.43,-101.59 206.09,-98.48"/>
<polygon fill="midnightblue" stroke="midnightblue" points="207.13,-101.83 215.71,-95.61 205.13,-95.12 207.13,-101.83"/>
</g>
<!-- Node11 -->
<g id="node11" class="node">
<title>Node11</title>
<g id="a_node11"><a xlink:href="structStarParameterOut.html#aa51466a037125b67a6c54b0bd164529d" target="_top" xlink:title="for print in one line">
<polygon fill="white" stroke="black" points="200,-38.5 200,-57.5 332,-57.5 332,-38.5 200,-38.5"/>
<text text-anchor="middle" x="266" y="-45.5" font-family="Helvetica,sans-Serif" font-size="10.00">StarParameterOut::print</text>
</a>
</g>
</g>
<!-- Node1&#45;&gt;Node11 -->
<g id="edge11" class="edge">
<title>Node1&#45;&gt;Node11</title>
<path fill="none" stroke="midnightblue" d="M79.54,-184.83C94.31,-156.78 129.86,-96.94 178,-67 181.87,-64.59 186,-62.49 190.29,-60.65"/>
<polygon fill="midnightblue" stroke="midnightblue" points="191.75,-63.84 199.86,-57.03 189.27,-57.29 191.75,-63.84"/>
</g>
<!-- Node12 -->
<g id="node12" class="node">
<title>Node12</title>
<g id="a_node12"><a xlink:href="structStarParameter.html#a139a2ca192579fe938f35764d2e633ac" target="_top" xlink:title="print data of class members using column style">
<polygon fill="white" stroke="black" points="190,-0.5 190,-19.5 342,-19.5 342,-0.5 190,-0.5"/>
<text text-anchor="middle" x="266" y="-7.5" font-family="Helvetica,sans-Serif" font-size="10.00">StarParameter::printColumn</text>
</a>
</g>
</g>
<!-- Node1&#45;&gt;Node12 -->
<g id="edge12" class="edge">
<title>Node1&#45;&gt;Node12</title>
<path fill="none" stroke="midnightblue" d="M76.81,-184.82C88.35,-151.01 120.96,-69.33 178,-29 180.71,-27.08 183.59,-25.35 186.57,-23.79"/>
<polygon fill="midnightblue" stroke="midnightblue" points="188.15,-26.92 195.81,-19.6 185.26,-20.54 188.15,-26.92"/>
</g>
<!-- Node8&#45;&gt;Node9 -->
<g id="edge8" class="edge">
<title>Node8&#45;&gt;Node9</title>
<path fill="none" stroke="midnightblue" d="M344.7,-152.44C356.77,-150.96 368.83,-149.48 379.7,-148.14"/>
<polygon fill="midnightblue" stroke="midnightblue" points="380.21,-151.6 389.71,-146.91 379.35,-144.66 380.21,-151.6"/>
</g>
</g>
</svg>
