<?xml version="1.0" encoding="UTF-8" standalone="no"?>
<!DOCTYPE svg PUBLIC "-//W3C//DTD SVG 1.1//EN"
 "http://www.w3.org/Graphics/SVG/1.1/DTD/svg11.dtd">
<!-- Generated by graphviz version 2.43.0 (0)
 -->
<!-- Title: ChangeOver::readBinary Pages: 1 -->
<svg width="417pt" height="28pt"
 viewBox="0.00 0.00 417.00 28.00" xmlns="http://www.w3.org/2000/svg" xmlns:xlink="http://www.w3.org/1999/xlink">
<g id="graph0" class="graph" transform="scale(1 1) rotate(0) translate(4 24)">
<title>ChangeOver::readBinary</title>
<polygon fill="white" stroke="transparent" points="-4,4 -4,-24 413,-24 413,4 -4,4"/>
<!-- Node1 -->
<g id="node1" class="node">
<title>Node1</title>
<g id="a_node1"><a xlink:title="read class data to file with binary format">
<polygon fill="#bfbfbf" stroke="black" points="273,-0.5 273,-19.5 409,-19.5 409,-0.5 273,-0.5"/>
<text text-anchor="middle" x="341" y="-7.5" font-family="Helvetica,sans-Serif" font-size="10.00">ChangeOver::readBinary</text>
</a>
</g>
</g>
<!-- Node2 -->
<g id="node2" class="node">
<title>Node2</title>
<g id="a_node2"><a xlink:href="classPtcl.html#a2fc333332020231cb337a68f79fdbcdc" target="_top" xlink:title="read class data with BINARY format">
<polygon fill="white" stroke="black" points="143,-0.5 143,-19.5 237,-19.5 237,-0.5 143,-0.5"/>
<text text-anchor="middle" x="190" y="-7.5" font-family="Helvetica,sans-Serif" font-size="10.00">Ptcl::readBinary</text>
</a>
</g>
</g>
<!-- Node1&#45;&gt;Node2 -->
<g id="edge1" class="edge">
<title>Node1&#45;&gt;Node2</title>
<path fill="none" stroke="midnightblue" d="M262.71,-10C254.02,-10 245.37,-10 237.25,-10"/>
<polygon fill="midnightblue" stroke="midnightblue" points="262.91,-13.5 272.91,-10 262.91,-6.5 262.91,-13.5"/>
</g>
<!-- Node3 -->
<g id="node3" class="node">
<title>Node3</title>
<g id="a_node3"><a xlink:href="classFPSoft.html#aaf462c3c8ba17980eb8381a568b92342" target="_top" xlink:title=" ">
<polygon fill="white" stroke="black" points="0,-0.5 0,-19.5 107,-19.5 107,-0.5 0,-0.5"/>
<text text-anchor="middle" x="53.5" y="-7.5" font-family="Helvetica,sans-Serif" font-size="10.00">FPSoft::readBinary</text>
</a>
</g>
</g>
<!-- Node2&#45;&gt;Node3 -->
<g id="edge2" class="edge">
<title>Node2&#45;&gt;Node3</title>
<path fill="none" stroke="midnightblue" d="M132.64,-10C124.26,-10 115.65,-10 107.34,-10"/>
<polygon fill="midnightblue" stroke="midnightblue" points="132.71,-13.5 142.71,-10 132.71,-6.5 132.71,-13.5"/>
</g>
</g>
</svg>
