<?xml version="1.0" encoding="UTF-8" standalone="no"?>
<!DOCTYPE svg PUBLIC "-//W3C//DTD SVG 1.1//EN"
 "http://www.w3.org/Graphics/SVG/1.1/DTD/svg11.dtd">
<!-- Generated by graphviz version 2.43.0 (0)
 -->
<!-- Title: ARInteraction::calcAccPotAndGTKickInv Pages: 1 -->
<svg width="330pt" height="127pt"
 viewBox="0.00 0.00 330.00 126.50" xmlns="http://www.w3.org/2000/svg" xmlns:xlink="http://www.w3.org/1999/xlink">
<g id="graph0" class="graph" transform="scale(1 1) rotate(0) translate(4 122.5)">
<title>ARInteraction::calcAccPotAndGTKickInv</title>
<polygon fill="white" stroke="transparent" points="-4,4 -4,-122.5 326,-122.5 326,4 -4,4"/>
<!-- Node1 -->
<g id="node1" class="node">
<title>Node1</title>
<g id="a_node1"><a xlink:title="(Necessary) calculate acceleration from internal members and perturbers">
<polygon fill="#bfbfbf" stroke="black" points="0,-49.5 0,-79.5 141,-79.5 141,-49.5 0,-49.5"/>
<text text-anchor="start" x="8" y="-67.5" font-family="Helvetica,sans-Serif" font-size="10.00">ARInteraction::calcAccPot</text>
<text text-anchor="middle" x="70.5" y="-56.5" font-family="Helvetica,sans-Serif" font-size="10.00">AndGTKickInv</text>
</a>
</g>
</g>
<!-- Node2 -->
<g id="node2" class="node">
<title>Node2</title>
<g id="a_node2"><a xlink:href="classARInteraction.html#aeb7e4c4758024ca22379caca13b8f9d8" target="_top" xlink:title="(Necessary) calculate acceleration from perturber and the perturbation factor for slowdown calculatio...">
<polygon fill="white" stroke="black" points="177,-99 177,-118 322,-118 322,-99 177,-99"/>
<text text-anchor="middle" x="249.5" y="-106" font-family="Helvetica,sans-Serif" font-size="10.00">ARInteraction::calcAccPert</text>
</a>
</g>
</g>
<!-- Node1&#45;&gt;Node2 -->
<g id="edge1" class="edge">
<title>Node1&#45;&gt;Node2</title>
<path fill="none" stroke="midnightblue" d="M131.92,-79.52C154.31,-85.09 179.38,-91.32 200.51,-96.57"/>
<polygon fill="midnightblue" stroke="midnightblue" points="199.69,-99.97 210.23,-98.99 201.37,-93.18 199.69,-99.97"/>
</g>
<!-- Node3 -->
<g id="node3" class="node">
<title>Node3</title>
<g id="a_node3"><a xlink:href="classARInteraction.html#ac7c6450c4cc7760bde8c475f9cd1aea8" target="_top" xlink:title="calculate inner member acceleration, potential and inverse time transformation function gradient and ...">
<polygon fill="white" stroke="black" points="183,-49.5 183,-79.5 316,-79.5 316,-49.5 183,-49.5"/>
<text text-anchor="start" x="191" y="-67.5" font-family="Helvetica,sans-Serif" font-size="10.00">ARInteraction::calcInner</text>
<text text-anchor="middle" x="249.5" y="-56.5" font-family="Helvetica,sans-Serif" font-size="10.00">AccPotAndGTKickInv</text>
</a>
</g>
</g>
<!-- Node1&#45;&gt;Node3 -->
<g id="edge2" class="edge">
<title>Node1&#45;&gt;Node3</title>
<path fill="none" stroke="midnightblue" d="M141.2,-64.5C151.5,-64.5 162.16,-64.5 172.58,-64.5"/>
<polygon fill="midnightblue" stroke="midnightblue" points="172.91,-68 182.91,-64.5 172.91,-61 172.91,-68"/>
</g>
<!-- Node4 -->
<g id="node4" class="node">
<title>Node4</title>
<g id="a_node4"><a xlink:href="classARInteraction.html#a7d177920969974abaf3fd2badf839d85" target="_top" xlink:title="(Necessary) calculate inner member acceleration, potential and inverse time transformation function g...">
<polygon fill="white" stroke="black" points="181,-0.5 181,-30.5 318,-30.5 318,-0.5 181,-0.5"/>
<text text-anchor="start" x="189" y="-18.5" font-family="Helvetica,sans-Serif" font-size="10.00">ARInteraction::calcInner</text>
<text text-anchor="middle" x="249.5" y="-7.5" font-family="Helvetica,sans-Serif" font-size="10.00">AccPotAndGTKickInvTwo</text>
</a>
</g>
</g>
<!-- Node1&#45;&gt;Node4 -->
<g id="edge3" class="edge">
<title>Node1&#45;&gt;Node4</title>
<path fill="none" stroke="midnightblue" d="M126.05,-49.4C144.47,-44.3 165.21,-38.56 184.31,-33.27"/>
<polygon fill="midnightblue" stroke="midnightblue" points="185.43,-36.59 194.13,-30.55 183.56,-29.85 185.43,-36.59"/>
</g>
</g>
</svg>
