<?xml version="1.0" encoding="UTF-8" standalone="no"?>
<!DOCTYPE svg PUBLIC "-//W3C//DTD SVG 1.1//EN"
 "http://www.w3.org/Graphics/SVG/1.1/DTD/svg11.dtd">
<!-- Generated by graphviz version 2.43.0 (0)
 -->
<!-- Title: ChangeOver::writeAscii Pages: 1 -->
<svg width="401pt" height="28pt"
 viewBox="0.00 0.00 401.00 28.00" xmlns="http://www.w3.org/2000/svg" xmlns:xlink="http://www.w3.org/1999/xlink">
<g id="graph0" class="graph" transform="scale(1 1) rotate(0) translate(4 24)">
<title>ChangeOver::writeAscii</title>
<polygon fill="white" stroke="transparent" points="-4,4 -4,-24 397,-24 397,4 -4,4"/>
<!-- Node1 -->
<g id="node1" class="node">
<title>Node1</title>
<g id="a_node1"><a xlink:title="write class data to file with binary format">
<polygon fill="#bfbfbf" stroke="black" points="262,-0.5 262,-19.5 393,-19.5 393,-0.5 262,-0.5"/>
<text text-anchor="middle" x="327.5" y="-7.5" font-family="Helvetica,sans-Serif" font-size="10.00">ChangeOver::writeAscii</text>
</a>
</g>
</g>
<!-- Node2 -->
<g id="node2" class="node">
<title>Node2</title>
<g id="a_node2"><a xlink:href="classPtcl.html#a74f32fef5cbf6901a3b9ebebab3c6fe3" target="_top" xlink:title="write class data with ASCII format">
<polygon fill="white" stroke="black" points="137,-0.5 137,-19.5 226,-19.5 226,-0.5 137,-0.5"/>
<text text-anchor="middle" x="181.5" y="-7.5" font-family="Helvetica,sans-Serif" font-size="10.00">Ptcl::writeAscii</text>
</a>
</g>
</g>
<!-- Node1&#45;&gt;Node2 -->
<g id="edge1" class="edge">
<title>Node1&#45;&gt;Node2</title>
<path fill="none" stroke="midnightblue" d="M251.55,-10C242.93,-10 234.37,-10 226.36,-10"/>
<polygon fill="midnightblue" stroke="midnightblue" points="251.66,-13.5 261.66,-10 251.66,-6.5 251.66,-13.5"/>
</g>
<!-- Node3 -->
<g id="node3" class="node">
<title>Node3</title>
<g id="a_node3"><a xlink:href="classFPSoft.html#a109884118b2ac644859d3736617b565b" target="_top" xlink:title=" ">
<polygon fill="white" stroke="black" points="0,-0.5 0,-19.5 101,-19.5 101,-0.5 0,-0.5"/>
<text text-anchor="middle" x="50.5" y="-7.5" font-family="Helvetica,sans-Serif" font-size="10.00">FPSoft::writeAscii</text>
</a>
</g>
</g>
<!-- Node2&#45;&gt;Node3 -->
<g id="edge2" class="edge">
<title>Node2&#45;&gt;Node3</title>
<path fill="none" stroke="midnightblue" d="M126.73,-10C118.33,-10 109.67,-10 101.35,-10"/>
<polygon fill="midnightblue" stroke="midnightblue" points="126.83,-13.5 136.83,-10 126.83,-6.5 126.83,-13.5"/>
</g>
</g>
</svg>
