<?xml version="1.0" encoding="UTF-8" standalone="no"?>
<!DOCTYPE svg PUBLIC "-//W3C//DTD SVG 1.1//EN"
 "http://www.w3.org/Graphics/SVG/1.1/DTD/svg11.dtd">
<!-- Generated by graphviz version 2.43.0 (0)
 -->
<!-- Title: ChangeOver::calcAcc1WTwo Pages: 1 -->
<svg width="333pt" height="66pt"
 viewBox="0.00 0.00 333.00 66.00" xmlns="http://www.w3.org/2000/svg" xmlns:xlink="http://www.w3.org/1999/xlink">
<g id="graph0" class="graph" transform="scale(1 1) rotate(0) translate(4 62)">
<title>ChangeOver::calcAcc1WTwo</title>
<polygon fill="white" stroke="transparent" points="-4,4 -4,-62 329,-62 329,4 -4,4"/>
<!-- Node1 -->
<g id="node1" class="node">
<title>Node1</title>
<g id="a_node1"><a xlink:title="calculate changeover function Acc1 by selecting maximum rout">
<polygon fill="#bfbfbf" stroke="black" points="0,-19.5 0,-38.5 154,-38.5 154,-19.5 0,-19.5"/>
<text text-anchor="middle" x="77" y="-26.5" font-family="Helvetica,sans-Serif" font-size="10.00">ChangeOver::calcAcc1WTwo</text>
</a>
</g>
</g>
<!-- Node2 -->
<g id="node2" class="node">
<title>Node2</title>
<g id="a_node2"><a xlink:href="classChangeOver.html#a2865beebed34f9de5d5fbbd6f73564d2" target="_top" xlink:title="changeover function for force derivative">
<polygon fill="white" stroke="black" points="190,-38.5 190,-57.5 325,-57.5 325,-38.5 190,-38.5"/>
<text text-anchor="middle" x="257.5" y="-45.5" font-family="Helvetica,sans-Serif" font-size="10.00">ChangeOver::calcAcc1W</text>
</a>
</g>
</g>
<!-- Node1&#45;&gt;Node2 -->
<g id="edge1" class="edge">
<title>Node1&#45;&gt;Node2</title>
<path fill="none" stroke="midnightblue" d="M154.22,-37.11C162.64,-38.01 171.22,-38.92 179.65,-39.82"/>
<polygon fill="midnightblue" stroke="midnightblue" points="179.52,-43.33 189.83,-40.9 180.26,-36.36 179.52,-43.33"/>
</g>
<!-- Node3 -->
<g id="node3" class="node">
<title>Node3</title>
<g id="a_node3"><a xlink:href="classChangeOver.html#ab1ee26d7f773d67568a55b8efabdbe79" target="_top" xlink:title="get r_out">
<polygon fill="white" stroke="black" points="197,-0.5 197,-19.5 318,-19.5 318,-0.5 197,-0.5"/>
<text text-anchor="middle" x="257.5" y="-7.5" font-family="Helvetica,sans-Serif" font-size="10.00">ChangeOver::getRout</text>
</a>
</g>
</g>
<!-- Node1&#45;&gt;Node3 -->
<g id="edge2" class="edge">
<title>Node1&#45;&gt;Node3</title>
<path fill="none" stroke="midnightblue" d="M154.22,-20.89C165.06,-19.73 176.17,-18.55 186.87,-17.41"/>
<polygon fill="midnightblue" stroke="midnightblue" points="187.43,-20.87 197,-16.33 186.68,-13.91 187.43,-20.87"/>
</g>
</g>
</svg>
