<?xml version="1.0" encoding="UTF-8" standalone="no"?>
<!DOCTYPE svg PUBLIC "-//W3C//DTD SVG 1.1//EN"
 "http://www.w3.org/Graphics/SVG/1.1/DTD/svg11.dtd">
<!-- Generated by graphviz version 2.43.0 (0)
 -->
<!-- Title: ArtificialParticleInformation::isMember Pages: 1 -->
<svg width="526pt" height="215pt"
 viewBox="0.00 0.00 526.00 215.00" xmlns="http://www.w3.org/2000/svg" xmlns:xlink="http://www.w3.org/1999/xlink">
<g id="graph0" class="graph" transform="scale(1 1) rotate(0) translate(4 211)">
<title>ArtificialParticleInformation::isMember</title>
<polygon fill="white" stroke="transparent" points="-4,4 -4,-211 522,-211 522,4 -4,4"/>
<!-- Node1 -->
<g id="node1" class="node">
<title>Node1</title>
<g id="a_node1"><a xlink:title="return whether the particle type is member">
<polygon fill="#bfbfbf" stroke="black" points="368,-88.5 368,-118.5 518,-118.5 518,-88.5 368,-88.5"/>
<text text-anchor="start" x="376" y="-106.5" font-family="Helvetica,sans-Serif" font-size="10.00">ArtificialParticleInformation</text>
<text text-anchor="middle" x="443" y="-95.5" font-family="Helvetica,sans-Serif" font-size="10.00">::isMember</text>
</a>
</g>
</g>
<!-- Node2 -->
<g id="node2" class="node">
<title>Node2</title>
<g id="a_node2"><a xlink:href="classArtificialParticleInformation.html#abafbbad3f31248b1742c34669ce8438e" target="_top" xlink:title="get backup mass">
<polygon fill="white" stroke="black" points="182,-176.5 182,-206.5 332,-206.5 332,-176.5 182,-176.5"/>
<text text-anchor="start" x="190" y="-194.5" font-family="Helvetica,sans-Serif" font-size="10.00">ArtificialParticleInformation</text>
<text text-anchor="middle" x="257" y="-183.5" font-family="Helvetica,sans-Serif" font-size="10.00">::getMassBackup</text>
</a>
</g>
</g>
<!-- Node1&#45;&gt;Node2 -->
<g id="edge1" class="edge">
<title>Node1&#45;&gt;Node2</title>
<path fill="none" stroke="midnightblue" d="M409.96,-124.06C388.47,-137.3 359.22,-154.25 332,-166.5 324.09,-170.06 315.5,-173.41 307.08,-176.42"/>
<polygon fill="midnightblue" stroke="midnightblue" points="412.03,-126.9 418.67,-118.64 408.33,-120.96 412.03,-126.9"/>
</g>
<!-- Node3 -->
<g id="node3" class="node">
<title>Node3</title>
<g id="a_node3"><a xlink:href="classPtcl.html#a8e246fe96ab6ffb61e00db516beff44b" target="_top" xlink:title="get c.m. particle address">
<polygon fill="white" stroke="black" points="183.5,-138 183.5,-157 330.5,-157 330.5,-138 183.5,-138"/>
<text text-anchor="middle" x="257" y="-145" font-family="Helvetica,sans-Serif" font-size="10.00">Ptcl::getParticleCMAddress</text>
</a>
</g>
</g>
<!-- Node1&#45;&gt;Node3 -->
<g id="edge2" class="edge">
<title>Node1&#45;&gt;Node3</title>
<path fill="none" stroke="midnightblue" d="M369.25,-120.9C344.9,-126.72 318.66,-133 297.78,-137.99"/>
<polygon fill="midnightblue" stroke="midnightblue" points="370.28,-124.25 379.19,-118.52 368.65,-117.44 370.28,-124.25"/>
</g>
<!-- Node4 -->
<g id="node4" class="node">
<title>Node4</title>
<g id="a_node4"><a xlink:href="classArtificialParticleInformation.html#a7cbeaf4da02bdc0888402a7836a89980" target="_top" xlink:title="set backup mass">
<polygon fill="white" stroke="black" points="182,-88.5 182,-118.5 332,-118.5 332,-88.5 182,-88.5"/>
<text text-anchor="start" x="190" y="-106.5" font-family="Helvetica,sans-Serif" font-size="10.00">ArtificialParticleInformation</text>
<text text-anchor="middle" x="257" y="-95.5" font-family="Helvetica,sans-Serif" font-size="10.00">::setMassBackup</text>
</a>
</g>
</g>
<!-- Node1&#45;&gt;Node4 -->
<g id="edge3" class="edge">
<title>Node1&#45;&gt;Node4</title>
<path fill="none" stroke="midnightblue" d="M357.93,-103.5C349.35,-103.5 340.66,-103.5 332.19,-103.5"/>
<polygon fill="midnightblue" stroke="midnightblue" points="357.96,-107 367.96,-103.5 357.96,-100 357.96,-107"/>
</g>
<!-- Node5 -->
<g id="node5" class="node">
<title>Node5</title>
<g id="a_node5"><a xlink:href="classPtcl.html#a89616cec78415e73c6b7f7af16f8c72e" target="_top" xlink:title="set status to c.m. particle address">
<polygon fill="white" stroke="black" points="0,-47 0,-66 146,-66 146,-47 0,-47"/>
<text text-anchor="middle" x="73" y="-54" font-family="Helvetica,sans-Serif" font-size="10.00">Ptcl::setParticleCMAddress</text>
</a>
</g>
</g>
<!-- Node1&#45;&gt;Node5 -->
<g id="edge4" class="edge">
<title>Node1&#45;&gt;Node5</title>
<path fill="none" stroke="midnightblue" d="M369.77,-86.38C357.23,-83.8 344.27,-81.38 332,-79.5 269.55,-69.94 197.93,-63.95 146.02,-60.48"/>
<polygon fill="midnightblue" stroke="midnightblue" points="369.21,-89.84 379.72,-88.48 370.66,-82.99 369.21,-89.84"/>
</g>
<!-- Node6 -->
<g id="node6" class="node">
<title>Node6</title>
<g id="a_node6"><a xlink:href="classArtificialParticleInformation.html#a5270d8aa4301b8236c1247592c8c9512" target="_top" xlink:title="set status">
<polygon fill="white" stroke="black" points="182,-0.5 182,-30.5 332,-30.5 332,-0.5 182,-0.5"/>
<text text-anchor="start" x="190" y="-18.5" font-family="Helvetica,sans-Serif" font-size="10.00">ArtificialParticleInformation</text>
<text text-anchor="middle" x="257" y="-7.5" font-family="Helvetica,sans-Serif" font-size="10.00">::setStatus</text>
</a>
</g>
</g>
<!-- Node1&#45;&gt;Node6 -->
<g id="edge5" class="edge">
<title>Node1&#45;&gt;Node6</title>
<path fill="none" stroke="midnightblue" d="M406.25,-83.49C384.95,-71.86 357.24,-57.23 332,-45.5 320.81,-40.3 308.46,-35.09 297.1,-30.5"/>
<polygon fill="midnightblue" stroke="midnightblue" points="404.81,-86.69 415.26,-88.43 408.18,-80.55 404.81,-86.69"/>
</g>
<!-- Node6&#45;&gt;Node5 -->
<g id="edge6" class="edge">
<title>Node6&#45;&gt;Node5</title>
<path fill="none" stroke="midnightblue" d="M179.45,-32.75C157.88,-37.61 135.19,-42.72 116.41,-46.95"/>
<polygon fill="midnightblue" stroke="midnightblue" points="180.28,-36.15 189.26,-30.53 178.74,-29.32 180.28,-36.15"/>
</g>
<!-- Node7 -->
<g id="node7" class="node">
<title>Node7</title>
<g id="a_node7"><a xlink:href="classPtclHard.html#a4d0d63ab5d6469bd8a547f354372be78" target="_top" xlink:title=" ">
<polygon fill="white" stroke="black" points="0.5,-6 0.5,-25 145.5,-25 145.5,-6 0.5,-6"/>
<text text-anchor="middle" x="73" y="-13" font-family="Helvetica,sans-Serif" font-size="10.00">PtclHard::setTidalTensorID</text>
</a>
</g>
</g>
<!-- Node6&#45;&gt;Node7 -->
<g id="edge7" class="edge">
<title>Node6&#45;&gt;Node7</title>
<path fill="none" stroke="midnightblue" d="M171.77,-15.5C163.02,-15.5 154.19,-15.5 145.6,-15.5"/>
<polygon fill="midnightblue" stroke="midnightblue" points="171.97,-19 181.97,-15.5 171.97,-12 171.97,-19"/>
</g>
</g>
</svg>
