<?xml version="1.0" encoding="UTF-8" standalone="no"?>
<!DOCTYPE svg PUBLIC "-//W3C//DTD SVG 1.1//EN"
 "http://www.w3.org/Graphics/SVG/1.1/DTD/svg11.dtd">
<!-- Generated by graphviz version 2.43.0 (0)
 -->
<!-- Title: Status Pages: 1 -->
<svg width="260pt" height="95pt"
 viewBox="0.00 0.00 260.00 95.00" xmlns="http://www.w3.org/2000/svg" xmlns:xlink="http://www.w3.org/1999/xlink">
<g id="graph0" class="graph" transform="scale(1 1) rotate(0) translate(4 91)">
<title>Status</title>
<polygon fill="white" stroke="transparent" points="-4,4 -4,-91 256,-91 256,4 -4,4"/>
<!-- Node1 -->
<g id="node1" class="node">
<title>Node1</title>
<g id="a_node1"><a xlink:title="class for measure the status of the system">
<polygon fill="#bfbfbf" stroke="black" points="96,-0.5 96,-19.5 143,-19.5 143,-0.5 96,-0.5"/>
<text text-anchor="middle" x="119.5" y="-7.5" font-family="Helvetica,sans-Serif" font-size="10.00">Status</text>
</a>
</g>
</g>
<!-- Node2 -->
<g id="node2" class="node">
<title>Node2</title>
<g id="a_node2"><a xlink:href="structStatus_1_1ParticleCM.html" target="_top" xlink:title=" ">
<polygon fill="white" stroke="black" points="0,-67.5 0,-86.5 105,-86.5 105,-67.5 0,-67.5"/>
<text text-anchor="middle" x="52.5" y="-74.5" font-family="Helvetica,sans-Serif" font-size="10.00">Status::ParticleCM</text>
</a>
</g>
</g>
<!-- Node2&#45;&gt;Node1 -->
<g id="edge1" class="edge">
<title>Node2&#45;&gt;Node1</title>
<path fill="none" stroke="#9a32cd" stroke-dasharray="5,2" d="M69,-60C82.14,-47.25 100.02,-29.89 110.61,-19.63"/>
<polygon fill="#9a32cd" stroke="#9a32cd" points="66.28,-57.76 61.54,-67.23 71.15,-62.78 66.28,-57.76"/>
<text text-anchor="middle" x="103" y="-41" font-family="Helvetica,sans-Serif" font-size="10.00"> pcm</text>
</g>
<!-- Node3 -->
<g id="node3" class="node">
<title>Node3</title>
<g id="a_node3"><a xlink:href="classEnergyAndMomemtum.html" target="_top" xlink:title="class for collecting and calculating the energy and angular momemtum of the system">
<polygon fill="white" stroke="black" points="123,-67.5 123,-86.5 252,-86.5 252,-67.5 123,-67.5"/>
<text text-anchor="middle" x="187.5" y="-74.5" font-family="Helvetica,sans-Serif" font-size="10.00">EnergyAndMomemtum</text>
</a>
</g>
</g>
<!-- Node3&#45;&gt;Node1 -->
<g id="edge2" class="edge">
<title>Node3&#45;&gt;Node1</title>
<path fill="none" stroke="#9a32cd" stroke-dasharray="5,2" d="M170.76,-60C157.42,-47.25 139.27,-29.89 128.53,-19.63"/>
<polygon fill="#9a32cd" stroke="#9a32cd" points="168.68,-62.85 178.33,-67.23 173.52,-57.79 168.68,-62.85"/>
<text text-anchor="middle" x="176" y="-41" font-family="Helvetica,sans-Serif" font-size="10.00"> energy</text>
</g>
</g>
</svg>
