<?xml version="1.0" encoding="UTF-8" standalone="no"?>
<!DOCTYPE svg PUBLIC "-//W3C//DTD SVG 1.1//EN"
 "http://www.w3.org/Graphics/SVG/1.1/DTD/svg11.dtd">
<!-- Generated by graphviz version 2.43.0 (0)
 -->
<!-- Title: HardManager::checkParams Pages: 1 -->
<svg width="545pt" height="78pt"
 viewBox="0.00 0.00 545.00 77.50" xmlns="http://www.w3.org/2000/svg" xmlns:xlink="http://www.w3.org/1999/xlink">
<g id="graph0" class="graph" transform="scale(1 1) rotate(0) translate(4 73.5)">
<title>HardManager::checkParams</title>
<polygon fill="white" stroke="transparent" points="-4,4 -4,-73.5 541,-73.5 541,4 -4,4"/>
<!-- Node1 -->
<g id="node1" class="node">
<title>Node1</title>
<g id="a_node1"><a xlink:title="check paramters">
<polygon fill="#bfbfbf" stroke="black" points="0,-22.5 0,-41.5 153,-41.5 153,-22.5 0,-22.5"/>
<text text-anchor="middle" x="76.5" y="-29.5" font-family="Helvetica,sans-Serif" font-size="10.00">HardManager::checkParams</text>
</a>
</g>
</g>
<!-- Node2 -->
<g id="node2" class="node">
<title>Node2</title>
<g id="a_node2"><a xlink:href="classArtificialParticleManager.html#ae62470120fa13e433cdf3f5433f452cb" target="_top" xlink:title="check paramters">
<polygon fill="white" stroke="black" points="189,-17 189,-47 325,-47 325,-17 189,-17"/>
<text text-anchor="start" x="197" y="-35" font-family="Helvetica,sans-Serif" font-size="10.00">ArtificialParticleManager</text>
<text text-anchor="middle" x="257" y="-24" font-family="Helvetica,sans-Serif" font-size="10.00">::checkParams</text>
</a>
</g>
</g>
<!-- Node1&#45;&gt;Node2 -->
<g id="edge1" class="edge">
<title>Node1&#45;&gt;Node2</title>
<path fill="none" stroke="midnightblue" d="M153.2,-32C161.64,-32 170.25,-32 178.72,-32"/>
<polygon fill="midnightblue" stroke="midnightblue" points="178.95,-35.5 188.95,-32 178.95,-28.5 178.95,-35.5"/>
</g>
<!-- Node3 -->
<g id="node3" class="node">
<title>Node3</title>
<g id="a_node3"><a xlink:href="classPseudoParticleMultipoleManager.html#ae68e816c46f10c7c2febed760dffd13d" target="_top" xlink:title="check paramters">
<polygon fill="white" stroke="black" points="361,-39 361,-69 537,-69 537,-39 361,-39"/>
<text text-anchor="start" x="369" y="-57" font-family="Helvetica,sans-Serif" font-size="10.00">PseudoParticleMultipoleManager</text>
<text text-anchor="middle" x="449" y="-46" font-family="Helvetica,sans-Serif" font-size="10.00">::checkParams</text>
</a>
</g>
</g>
<!-- Node2&#45;&gt;Node3 -->
<g id="edge2" class="edge">
<title>Node2&#45;&gt;Node3</title>
<path fill="none" stroke="midnightblue" d="M325.25,-39.79C333.54,-40.75 342.14,-41.74 350.76,-42.74"/>
<polygon fill="midnightblue" stroke="midnightblue" points="350.53,-46.24 360.87,-43.91 351.34,-39.28 350.53,-46.24"/>
</g>
<!-- Node4 -->
<g id="node4" class="node">
<title>Node4</title>
<g id="a_node4"><a xlink:href="classTidalTensor.html#a668eb0fe71a2fe1bdad53572a74d2224" target="_top" xlink:title="get particle number">
<polygon fill="white" stroke="black" points="380.5,-0.5 380.5,-19.5 517.5,-19.5 517.5,-0.5 380.5,-0.5"/>
<text text-anchor="middle" x="449" y="-7.5" font-family="Helvetica,sans-Serif" font-size="10.00">TidalTensor::getParticleN</text>
</a>
</g>
</g>
<!-- Node2&#45;&gt;Node4 -->
<g id="edge3" class="edge">
<title>Node2&#45;&gt;Node4</title>
<path fill="none" stroke="midnightblue" d="M325.25,-24.21C339.74,-22.54 355.17,-20.75 370.02,-19.03"/>
<polygon fill="midnightblue" stroke="midnightblue" points="370.66,-22.48 380.2,-17.85 369.86,-15.52 370.66,-22.48"/>
</g>
</g>
</svg>
