<?xml version="1.0" encoding="UTF-8" standalone="no"?>
<!DOCTYPE svg PUBLIC "-//W3C//DTD SVG 1.1//EN"
 "http://www.w3.org/Graphics/SVG/1.1/DTD/svg11.dtd">
<!-- Generated by graphviz version 2.43.0 (0)
 -->
<!-- Title: PtclComm::print Pages: 1 -->
<svg width="539pt" height="116pt"
 viewBox="0.00 0.00 539.00 115.50" xmlns="http://www.w3.org/2000/svg" xmlns:xlink="http://www.w3.org/1999/xlink">
<g id="graph0" class="graph" transform="scale(1 1) rotate(0) translate(4 111.5)">
<title>PtclComm::print</title>
<polygon fill="white" stroke="transparent" points="-4,4 -4,-111.5 535,-111.5 535,4 -4,4"/>
<!-- Node1 -->
<g id="node1" class="node">
<title>Node1</title>
<g id="a_node1"><a xlink:title=" ">
<polygon fill="#bfbfbf" stroke="black" points="0,-50 0,-69 95,-69 95,-50 0,-50"/>
<text text-anchor="middle" x="47.5" y="-57" font-family="Helvetica,sans-Serif" font-size="10.00">PtclComm::print</text>
</a>
</g>
</g>
<!-- Node2 -->
<g id="node2" class="node">
<title>Node2</title>
<g id="a_node2"><a xlink:href="classPtcl.html#af1253dfc7cd8025affd01d3ff4726f63" target="_top" xlink:title=" ">
<polygon fill="white" stroke="black" points="131,-50 131,-69 194,-69 194,-50 131,-50"/>
<text text-anchor="middle" x="162.5" y="-57" font-family="Helvetica,sans-Serif" font-size="10.00">Ptcl::print</text>
</a>
</g>
</g>
<!-- Node1&#45;&gt;Node2 -->
<g id="edge1" class="edge">
<title>Node1&#45;&gt;Node2</title>
<path fill="none" stroke="midnightblue" d="M95.11,-59.5C103.58,-59.5 112.35,-59.5 120.63,-59.5"/>
<polygon fill="midnightblue" stroke="midnightblue" points="120.8,-63 130.8,-59.5 120.8,-56 120.8,-63"/>
</g>
<!-- Node3 -->
<g id="node3" class="node">
<title>Node3</title>
<g id="a_node3"><a xlink:href="classChangeOver.html#a7cb94f25c0be6f295cc0214926799149" target="_top" xlink:title=" ">
<polygon fill="white" stroke="black" points="252.5,-88 252.5,-107 357.5,-107 357.5,-88 252.5,-88"/>
<text text-anchor="middle" x="305" y="-95" font-family="Helvetica,sans-Serif" font-size="10.00">ChangeOver::print</text>
</a>
</g>
</g>
<!-- Node2&#45;&gt;Node3 -->
<g id="edge2" class="edge">
<title>Node2&#45;&gt;Node3</title>
<path fill="none" stroke="midnightblue" d="M194.24,-68.47C205.48,-71.7 218.3,-75.33 230,-78.5 238.46,-80.8 247.49,-83.17 256.23,-85.44"/>
<polygon fill="midnightblue" stroke="midnightblue" points="255.37,-88.83 265.92,-87.93 257.11,-82.05 255.37,-88.83"/>
</g>
<!-- Node4 -->
<g id="node4" class="node">
<title>Node4</title>
<g id="a_node4"><a xlink:href="classParticleBase.html#aaa2eb35e8a36bc9c08c441944913dda0" target="_top" xlink:title="for print debugging">
<polygon fill="white" stroke="black" points="252.5,-50 252.5,-69 357.5,-69 357.5,-50 252.5,-50"/>
<text text-anchor="middle" x="305" y="-57" font-family="Helvetica,sans-Serif" font-size="10.00">ParticleBase::print</text>
</a>
</g>
</g>
<!-- Node2&#45;&gt;Node4 -->
<g id="edge3" class="edge">
<title>Node2&#45;&gt;Node4</title>
<path fill="none" stroke="midnightblue" d="M194.33,-59.5C208.38,-59.5 225.54,-59.5 242.07,-59.5"/>
<polygon fill="midnightblue" stroke="midnightblue" points="242.25,-63 252.25,-59.5 242.25,-56 242.25,-63"/>
</g>
<!-- Node6 -->
<g id="node6" class="node">
<title>Node6</title>
<g id="a_node6"><a xlink:href="classArtificialParticleInformation.html#aec5f6e1c055868a70cdb44584f0f6e9c" target="_top" xlink:title="print parameters">
<polygon fill="white" stroke="black" points="230,-0.5 230,-30.5 380,-30.5 380,-0.5 230,-0.5"/>
<text text-anchor="start" x="238" y="-18.5" font-family="Helvetica,sans-Serif" font-size="10.00">ArtificialParticleInformation</text>
<text text-anchor="middle" x="305" y="-7.5" font-family="Helvetica,sans-Serif" font-size="10.00">::print</text>
</a>
</g>
</g>
<!-- Node2&#45;&gt;Node6 -->
<g id="edge5" class="edge">
<title>Node2&#45;&gt;Node6</title>
<path fill="none" stroke="midnightblue" d="M193.99,-49.95C209.24,-45.18 228.22,-39.23 246.1,-33.63"/>
<polygon fill="midnightblue" stroke="midnightblue" points="247.4,-36.89 255.89,-30.57 245.3,-30.21 247.4,-36.89"/>
</g>
<!-- Node5 -->
<g id="node5" class="node">
<title>Node5</title>
<g id="a_node5"><a xlink:href="structStarParameter.html#a6a6c1a6c2f12ef90a555f92ae0dd80f4" target="_top" xlink:title="for print in one line">
<polygon fill="white" stroke="black" points="416,-50 416,-69 531,-69 531,-50 416,-50"/>
<text text-anchor="middle" x="473.5" y="-57" font-family="Helvetica,sans-Serif" font-size="10.00">StarParameter::print</text>
</a>
</g>
</g>
<!-- Node4&#45;&gt;Node5 -->
<g id="edge4" class="edge">
<title>Node4&#45;&gt;Node5</title>
<path fill="none" stroke="midnightblue" d="M357.77,-59.5C372.88,-59.5 389.62,-59.5 405.53,-59.5"/>
<polygon fill="midnightblue" stroke="midnightblue" points="405.84,-63 415.84,-59.5 405.84,-56 405.84,-63"/>
</g>
</g>
</svg>
