<?xml version="1.0" encoding="UTF-8" standalone="no"?>
<!DOCTYPE svg PUBLIC "-//W3C//DTD SVG 1.1//EN"
 "http://www.w3.org/Graphics/SVG/1.1/DTD/svg11.dtd">
<!-- Generated by graphviz version 2.43.0 (0)
 -->
<!-- Title: ArtificialParticleInformation::isArtificial Pages: 1 -->
<svg width="526pt" height="137pt"
 viewBox="0.00 0.00 526.00 137.00" xmlns="http://www.w3.org/2000/svg" xmlns:xlink="http://www.w3.org/1999/xlink">
<g id="graph0" class="graph" transform="scale(1 1) rotate(0) translate(4 133)">
<title>ArtificialParticleInformation::isArtificial</title>
<polygon fill="white" stroke="transparent" points="-4,4 -4,-133 522,-133 522,4 -4,4"/>
<!-- Node1 -->
<g id="node1" class="node">
<title>Node1</title>
<g id="a_node1"><a xlink:title="return whether the particle type is artificial">
<polygon fill="#bfbfbf" stroke="black" points="368,-49.5 368,-79.5 518,-79.5 518,-49.5 368,-49.5"/>
<text text-anchor="start" x="376" y="-67.5" font-family="Helvetica,sans-Serif" font-size="10.00">ArtificialParticleInformation</text>
<text text-anchor="middle" x="443" y="-56.5" font-family="Helvetica,sans-Serif" font-size="10.00">::isArtificial</text>
</a>
</g>
</g>
<!-- Node2 -->
<g id="node2" class="node">
<title>Node2</title>
<g id="a_node2"><a xlink:href="classArtificialParticleInformation.html#a995d580f346d45ca6e72bea2678ceb77" target="_top" xlink:title="get stored data (only in artificial particles)">
<polygon fill="white" stroke="black" points="182,-98.5 182,-128.5 332,-128.5 332,-98.5 182,-98.5"/>
<text text-anchor="start" x="190" y="-116.5" font-family="Helvetica,sans-Serif" font-size="10.00">ArtificialParticleInformation</text>
<text text-anchor="middle" x="257" y="-105.5" font-family="Helvetica,sans-Serif" font-size="10.00">::getData</text>
</a>
</g>
</g>
<!-- Node1&#45;&gt;Node2 -->
<g id="edge1" class="edge">
<title>Node1&#45;&gt;Node2</title>
<path fill="none" stroke="midnightblue" d="M375.82,-82.12C355.69,-87.48 333.77,-93.32 314.35,-98.49"/>
<polygon fill="midnightblue" stroke="midnightblue" points="376.78,-85.49 385.54,-79.53 374.98,-78.73 376.78,-85.49"/>
</g>
<!-- Node3 -->
<g id="node3" class="node">
<title>Node3</title>
<g id="a_node3"><a xlink:href="classArtificialParticleInformation.html#a5270d8aa4301b8236c1247592c8c9512" target="_top" xlink:title="set status">
<polygon fill="white" stroke="black" points="182,-49.5 182,-79.5 332,-79.5 332,-49.5 182,-49.5"/>
<text text-anchor="start" x="190" y="-67.5" font-family="Helvetica,sans-Serif" font-size="10.00">ArtificialParticleInformation</text>
<text text-anchor="middle" x="257" y="-56.5" font-family="Helvetica,sans-Serif" font-size="10.00">::setStatus</text>
</a>
</g>
</g>
<!-- Node1&#45;&gt;Node3 -->
<g id="edge2" class="edge">
<title>Node1&#45;&gt;Node3</title>
<path fill="none" stroke="midnightblue" d="M357.93,-64.5C349.35,-64.5 340.66,-64.5 332.19,-64.5"/>
<polygon fill="midnightblue" stroke="midnightblue" points="357.96,-68 367.96,-64.5 357.96,-61 357.96,-68"/>
</g>
<!-- Node6 -->
<g id="node6" class="node">
<title>Node6</title>
<g id="a_node6"><a xlink:href="classArtificialParticleInformation.html#aaf1294fdff785ba8b92e343a8c2366d6" target="_top" xlink:title="store one data (only in artificial particles)">
<polygon fill="white" stroke="black" points="182,-0.5 182,-30.5 332,-30.5 332,-0.5 182,-0.5"/>
<text text-anchor="start" x="190" y="-18.5" font-family="Helvetica,sans-Serif" font-size="10.00">ArtificialParticleInformation</text>
<text text-anchor="middle" x="257" y="-7.5" font-family="Helvetica,sans-Serif" font-size="10.00">::storeData</text>
</a>
</g>
</g>
<!-- Node1&#45;&gt;Node6 -->
<g id="edge5" class="edge">
<title>Node1&#45;&gt;Node6</title>
<path fill="none" stroke="midnightblue" d="M375.82,-46.88C355.69,-41.52 333.77,-35.68 314.35,-30.51"/>
<polygon fill="midnightblue" stroke="midnightblue" points="374.98,-50.27 385.54,-49.47 376.78,-43.51 374.98,-50.27"/>
</g>
<!-- Node4 -->
<g id="node4" class="node">
<title>Node4</title>
<g id="a_node4"><a xlink:href="classPtcl.html#a89616cec78415e73c6b7f7af16f8c72e" target="_top" xlink:title="set status to c.m. particle address">
<polygon fill="white" stroke="black" points="0,-74 0,-93 146,-93 146,-74 0,-74"/>
<text text-anchor="middle" x="73" y="-81" font-family="Helvetica,sans-Serif" font-size="10.00">Ptcl::setParticleCMAddress</text>
</a>
</g>
</g>
<!-- Node3&#45;&gt;Node4 -->
<g id="edge3" class="edge">
<title>Node3&#45;&gt;Node4</title>
<path fill="none" stroke="midnightblue" d="M171.93,-73.28C163.33,-74.17 154.65,-75.08 146.19,-75.96"/>
<polygon fill="midnightblue" stroke="midnightblue" points="172.39,-76.75 181.97,-72.23 171.66,-69.79 172.39,-76.75"/>
</g>
<!-- Node5 -->
<g id="node5" class="node">
<title>Node5</title>
<g id="a_node5"><a xlink:href="classPtclHard.html#a4d0d63ab5d6469bd8a547f354372be78" target="_top" xlink:title=" ">
<polygon fill="white" stroke="black" points="0.5,-36 0.5,-55 145.5,-55 145.5,-36 0.5,-36"/>
<text text-anchor="middle" x="73" y="-43" font-family="Helvetica,sans-Serif" font-size="10.00">PtclHard::setTidalTensorID</text>
</a>
</g>
</g>
<!-- Node3&#45;&gt;Node5 -->
<g id="edge4" class="edge">
<title>Node3&#45;&gt;Node5</title>
<path fill="none" stroke="midnightblue" d="M171.77,-55.71C163.02,-54.79 154.19,-53.87 145.6,-52.98"/>
<polygon fill="midnightblue" stroke="midnightblue" points="171.66,-59.21 181.97,-56.77 172.39,-52.25 171.66,-59.21"/>
</g>
</g>
</svg>
