<?xml version="1.0" encoding="UTF-8" standalone="no"?>
<!DOCTYPE svg PUBLIC "-//W3C//DTD SVG 1.1//EN"
 "http://www.w3.org/Graphics/SVG/1.1/DTD/svg11.dtd">
<!-- Generated by graphviz version 2.43.0 (0)
 -->
<!-- Title: Ptcl::getParticleCMAddress Pages: 1 -->
<svg width="341pt" height="88pt"
 viewBox="0.00 0.00 341.00 88.00" xmlns="http://www.w3.org/2000/svg" xmlns:xlink="http://www.w3.org/1999/xlink">
<g id="graph0" class="graph" transform="scale(1 1) rotate(0) translate(4 84)">
<title>Ptcl::getParticleCMAddress</title>
<polygon fill="white" stroke="transparent" points="-4,4 -4,-84 337,-84 337,4 -4,4"/>
<!-- Node1 -->
<g id="node1" class="node">
<title>Node1</title>
<g id="a_node1"><a xlink:title="get c.m. particle address">
<polygon fill="#bfbfbf" stroke="black" points="0,-30 0,-49 147,-49 147,-30 0,-30"/>
<text text-anchor="middle" x="73.5" y="-37" font-family="Helvetica,sans-Serif" font-size="10.00">Ptcl::getParticleCMAddress</text>
</a>
</g>
</g>
<!-- Node2 -->
<g id="node2" class="node">
<title>Node2</title>
<g id="a_node2"><a xlink:href="classArtificialParticleInformation.html#a982c2f0730dc8cb6e186bbd968c21fc5" target="_top" xlink:title="get status">
<polygon fill="white" stroke="black" points="183,-49.5 183,-79.5 333,-79.5 333,-49.5 183,-49.5"/>
<text text-anchor="start" x="191" y="-67.5" font-family="Helvetica,sans-Serif" font-size="10.00">ArtificialParticleInformation</text>
<text text-anchor="middle" x="258" y="-56.5" font-family="Helvetica,sans-Serif" font-size="10.00">::getStatus</text>
</a>
</g>
</g>
<!-- Node1&#45;&gt;Node2 -->
<g id="edge1" class="edge">
<title>Node1&#45;&gt;Node2</title>
<path fill="none" stroke="midnightblue" d="M144.02,-49.02C153.44,-50.31 163.18,-51.65 172.83,-52.97"/>
<polygon fill="midnightblue" stroke="midnightblue" points="172.44,-56.45 182.82,-54.34 173.39,-49.51 172.44,-56.45"/>
</g>
<!-- Node3 -->
<g id="node3" class="node">
<title>Node3</title>
<g id="a_node3"><a xlink:href="classArtificialParticleInformation.html#abc5b2bdadb35b2f7f5d4d589be9e12be" target="_top" xlink:title="return whether the particle type is member">
<polygon fill="white" stroke="black" points="183,-0.5 183,-30.5 333,-30.5 333,-0.5 183,-0.5"/>
<text text-anchor="start" x="191" y="-18.5" font-family="Helvetica,sans-Serif" font-size="10.00">ArtificialParticleInformation</text>
<text text-anchor="middle" x="258" y="-7.5" font-family="Helvetica,sans-Serif" font-size="10.00">::isMember</text>
</a>
</g>
</g>
<!-- Node1&#45;&gt;Node3 -->
<g id="edge2" class="edge">
<title>Node1&#45;&gt;Node3</title>
<path fill="none" stroke="midnightblue" d="M146.89,-29.98C155.4,-28.86 164.14,-27.71 172.8,-26.57"/>
<polygon fill="midnightblue" stroke="midnightblue" points="173.44,-30.02 182.9,-25.24 172.53,-23.08 173.44,-30.02"/>
</g>
</g>
</svg>
