<?xml version="1.0" encoding="UTF-8" standalone="no"?>
<!DOCTYPE svg PUBLIC "-//W3C//DTD SVG 1.1//EN"
 "http://www.w3.org/Graphics/SVG/1.1/DTD/svg11.dtd">
<!-- Generated by graphviz version 2.43.0 (0)
 -->
<!-- Title: FRWModel::getMatterDensity Pages: 1 -->
<svg width="1541pt" height="132pt"
 viewBox="0.00 0.00 1541.00 132.00" xmlns="http://www.w3.org/2000/svg" xmlns:xlink="http://www.w3.org/1999/xlink">
<g id="graph0" class="graph" transform="scale(1 1) rotate(0) translate(4 128)">
<title>FRWModel::getMatterDensity</title>
<polygon fill="white" stroke="transparent" points="-4,4 -4,-128 1537,-128 1537,4 -4,4"/>
<!-- Node1 -->
<g id="node1" class="node">
<title>Node1</title>
<g id="a_node1"><a xlink:title=" ">
<polygon fill="#bfbfbf" stroke="black" points="1372,-95.5 1372,-114.5 1533,-114.5 1533,-95.5 1372,-95.5"/>
<text text-anchor="middle" x="1452.5" y="-102.5" font-family="Helvetica,sans-Serif" font-size="10.00">FRWModel::getMatterDensity</text>
</a>
</g>
</g>
<!-- Node2 -->
<g id="node2" class="node">
<title>Node2</title>
<g id="a_node2"><a xlink:href="classMWPotentialEvolve.html#a499debe349e3789cd6fbab95bc56dabb" target="_top" xlink:title="calculate MW potential based on the input time">
<polygon fill="white" stroke="black" points="510,-52 510,-82 664,-82 664,-52 510,-52"/>
<text text-anchor="start" x="518" y="-70" font-family="Helvetica,sans-Serif" font-size="10.00">MWPotentialEvolve::</text>
<text text-anchor="middle" x="587" y="-59" font-family="Helvetica,sans-Serif" font-size="10.00">calcMWPotentialParameters</text>
</a>
</g>
</g>
<!-- Node1&#45;&gt;Node2 -->
<g id="edge1" class="edge">
<title>Node1&#45;&gt;Node2</title>
<path fill="none" stroke="midnightblue" d="M1361.68,-112.82C1293.83,-118.06 1198.39,-124 1114.5,-124 1114.5,-124 1114.5,-124 960,-124 849.09,-124 721.7,-98.94 648.46,-82.05"/>
<polygon fill="midnightblue" stroke="midnightblue" points="1362.21,-116.29 1371.91,-112.02 1361.66,-109.31 1362.21,-116.29"/>
</g>
<!-- Node7 -->
<g id="node7" class="node">
<title>Node7</title>
<g id="a_node7"><a xlink:href="classFRWModel.html#a361381626bcc60640134c25e6c7357bb" target="_top" xlink:title=" ">
<polygon fill="white" stroke="black" points="1208,-76.5 1208,-95.5 1336,-95.5 1336,-76.5 1208,-76.5"/>
<text text-anchor="middle" x="1272" y="-83.5" font-family="Helvetica,sans-Serif" font-size="10.00">FRWModel::getDensity</text>
</a>
</g>
</g>
<!-- Node1&#45;&gt;Node7 -->
<g id="edge7" class="edge">
<title>Node1&#45;&gt;Node7</title>
<path fill="none" stroke="midnightblue" d="M1361.75,-95.45C1353.09,-94.52 1344.43,-93.6 1336.1,-92.72"/>
<polygon fill="midnightblue" stroke="midnightblue" points="1361.59,-98.95 1371.91,-96.53 1362.33,-91.99 1361.59,-98.95"/>
</g>
<!-- Node3 -->
<g id="node3" class="node">
<title>Node3</title>
<g id="a_node3"><a xlink:href="classGalpyManager.html#a3cf2c36189aa2bd879faf8748e1ef871" target="_top" xlink:title="Update MWpotential evolve (Gomez et al. 2010)">
<polygon fill="white" stroke="black" points="284,-52 284,-82 474,-82 474,-52 284,-52"/>
<text text-anchor="start" x="292" y="-70" font-family="Helvetica,sans-Serif" font-size="10.00">GalpyManager::updateMWPotential</text>
<text text-anchor="middle" x="379" y="-59" font-family="Helvetica,sans-Serif" font-size="10.00">Evolve</text>
</a>
</g>
</g>
<!-- Node2&#45;&gt;Node3 -->
<g id="edge2" class="edge">
<title>Node2&#45;&gt;Node3</title>
<path fill="none" stroke="midnightblue" d="M499.73,-67C491.34,-67 482.8,-67 474.33,-67"/>
<polygon fill="midnightblue" stroke="midnightblue" points="499.88,-70.5 509.88,-67 499.88,-63.5 499.88,-70.5"/>
</g>
<!-- Node4 -->
<g id="node4" class="node">
<title>Node4</title>
<g id="a_node4"><a xlink:href="classGalpyManager.html#ac6ce59845e4b863a3fce47c18e09631a" target="_top" xlink:title="initialization function">
<polygon fill="white" stroke="black" points="101.5,-76.5 101.5,-95.5 223.5,-95.5 223.5,-76.5 101.5,-76.5"/>
<text text-anchor="middle" x="162.5" y="-83.5" font-family="Helvetica,sans-Serif" font-size="10.00">GalpyManager::initial</text>
</a>
</g>
</g>
<!-- Node3&#45;&gt;Node4 -->
<g id="edge3" class="edge">
<title>Node3&#45;&gt;Node4</title>
<path fill="none" stroke="midnightblue" d="M273.79,-76.23C256.56,-77.76 239.22,-79.29 223.56,-80.68"/>
<polygon fill="midnightblue" stroke="midnightblue" points="274.27,-79.7 283.92,-75.33 273.65,-72.73 274.27,-79.7"/>
</g>
<!-- Node6 -->
<g id="node6" class="node">
<title>Node6</title>
<g id="a_node6"><a xlink:href="classGalpyManager.html#a2b9c41229c1b4a6d5c06e18017298357" target="_top" xlink:title="Update Potential types and arguments based on time.">
<polygon fill="white" stroke="black" points="77,-38.5 77,-57.5 248,-57.5 248,-38.5 77,-38.5"/>
<text text-anchor="middle" x="162.5" y="-45.5" font-family="Helvetica,sans-Serif" font-size="10.00">GalpyManager::updatePotential</text>
</a>
</g>
</g>
<!-- Node3&#45;&gt;Node6 -->
<g id="edge5" class="edge">
<title>Node3&#45;&gt;Node6</title>
<path fill="none" stroke="midnightblue" d="M273.81,-57.77C265.18,-57.01 256.52,-56.24 248.06,-55.49"/>
<polygon fill="midnightblue" stroke="midnightblue" points="273.65,-61.27 283.92,-58.67 274.27,-54.3 273.65,-61.27"/>
</g>
<!-- Node5 -->
<g id="node5" class="node">
<title>Node5</title>
<g id="a_node5"><a xlink:href="galpy__test_8cxx.html#a3c04138a5bfe5d72780bb7e82a18e627" target="_top" xlink:title=" ">
<polygon fill="white" stroke="black" points="0,-57.5 0,-76.5 41,-76.5 41,-57.5 0,-57.5"/>
<text text-anchor="middle" x="20.5" y="-64.5" font-family="Helvetica,sans-Serif" font-size="10.00">main</text>
</a>
</g>
</g>
<!-- Node4&#45;&gt;Node5 -->
<g id="edge4" class="edge">
<title>Node4&#45;&gt;Node5</title>
<path fill="none" stroke="midnightblue" d="M91.37,-76.48C72.86,-73.97 54.37,-71.46 41.06,-69.65"/>
<polygon fill="midnightblue" stroke="midnightblue" points="90.94,-79.96 101.31,-77.83 91.88,-73.02 90.94,-79.96"/>
</g>
<!-- Node6&#45;&gt;Node5 -->
<g id="edge6" class="edge">
<title>Node6&#45;&gt;Node5</title>
<path fill="none" stroke="midnightblue" d="M80.79,-58.95C66,-60.96 51.88,-62.88 41.12,-64.34"/>
<polygon fill="midnightblue" stroke="midnightblue" points="81.65,-62.37 91.09,-57.56 80.71,-55.43 81.65,-62.37"/>
</g>
<!-- Node7&#45;&gt;Node2 -->
<g id="edge14" class="edge">
<title>Node7&#45;&gt;Node2</title>
<path fill="none" stroke="midnightblue" d="M1197.69,-83.96C1067.29,-80.33 796.33,-72.8 664.01,-69.11"/>
<polygon fill="midnightblue" stroke="midnightblue" points="1197.88,-87.47 1207.97,-84.25 1198.07,-80.47 1197.88,-87.47"/>
</g>
<!-- Node8 -->
<g id="node8" class="node">
<title>Node8</title>
<g id="a_node8"><a xlink:href="classFRWModel.html#abb7a4dcaa3256b6365ef1cc5e9f5dba4" target="_top" xlink:title="calculate da/dt">
<polygon fill="white" stroke="black" points="1055,-38.5 1055,-57.5 1172,-57.5 1172,-38.5 1055,-38.5"/>
<text text-anchor="middle" x="1113.5" y="-45.5" font-family="Helvetica,sans-Serif" font-size="10.00">FRWModel::calcAdot</text>
</a>
</g>
</g>
<!-- Node7&#45;&gt;Node8 -->
<g id="edge8" class="edge">
<title>Node7&#45;&gt;Node8</title>
<path fill="none" stroke="midnightblue" d="M1221.71,-74.03C1199.78,-68.71 1174.32,-62.52 1153.71,-57.52"/>
<polygon fill="midnightblue" stroke="midnightblue" points="1220.96,-77.45 1231.51,-76.41 1222.62,-70.65 1220.96,-77.45"/>
</g>
<!-- Node9 -->
<g id="node9" class="node">
<title>Node9</title>
<g id="a_node9"><a xlink:href="classFRWModel.html#a262a19eeb8300f0a59c8555e052cbc27" target="_top" xlink:title="get Hubble constant at current a">
<polygon fill="white" stroke="black" points="734.5,-38.5 734.5,-57.5 832.5,-57.5 832.5,-38.5 734.5,-38.5"/>
<text text-anchor="middle" x="783.5" y="-45.5" font-family="Helvetica,sans-Serif" font-size="10.00">FRWModel::getH</text>
</a>
</g>
</g>
<!-- Node8&#45;&gt;Node9 -->
<g id="edge9" class="edge">
<title>Node8&#45;&gt;Node9</title>
<path fill="none" stroke="midnightblue" d="M1044.71,-48C981.43,-48 888.59,-48 832.6,-48"/>
<polygon fill="midnightblue" stroke="midnightblue" points="1044.99,-51.5 1054.99,-48 1044.99,-44.5 1044.99,-51.5"/>
</g>
<!-- Node10 -->
<g id="node10" class="node">
<title>Node10</title>
<g id="a_node10"><a xlink:href="classFRWModel.html#a348b0ad06e5e83855a039ab5179806bc" target="_top" xlink:title="update scale factor by time step _dt (first order Euler method)">
<polygon fill="white" stroke="black" points="903,-0.5 903,-19.5 1019,-19.5 1019,-0.5 903,-0.5"/>
<text text-anchor="middle" x="961" y="-7.5" font-family="Helvetica,sans-Serif" font-size="10.00">FRWModel::updateA</text>
</a>
</g>
</g>
<!-- Node8&#45;&gt;Node10 -->
<g id="edge11" class="edge">
<title>Node8&#45;&gt;Node10</title>
<path fill="none" stroke="midnightblue" d="M1064.82,-35.96C1043.79,-30.65 1019.43,-24.5 999.7,-19.52"/>
<polygon fill="midnightblue" stroke="midnightblue" points="1063.97,-39.36 1074.52,-38.41 1065.68,-32.57 1063.97,-39.36"/>
</g>
<!-- Node9&#45;&gt;Node2 -->
<g id="edge10" class="edge">
<title>Node9&#45;&gt;Node2</title>
<path fill="none" stroke="midnightblue" d="M724.22,-53.69C705.39,-55.53 684.22,-57.6 664.29,-59.55"/>
<polygon fill="midnightblue" stroke="midnightblue" points="724.81,-57.15 734.42,-52.7 724.13,-50.19 724.81,-57.15"/>
</g>
<!-- Node11 -->
<g id="node11" class="node">
<title>Node11</title>
<g id="a_node11"><a xlink:href="classFRWModel.html#a904c7a9d484ab006a8bbbc3f557f6e45" target="_top" xlink:title="update scale factor with maximum time step dt_max (first order Euler method)">
<polygon fill="white" stroke="black" points="700,-0.5 700,-19.5 867,-19.5 867,-0.5 700,-0.5"/>
<text text-anchor="middle" x="783.5" y="-7.5" font-family="Helvetica,sans-Serif" font-size="10.00">FRWModel::updateAwithDtmin</text>
</a>
</g>
</g>
<!-- Node10&#45;&gt;Node11 -->
<g id="edge12" class="edge">
<title>Node10&#45;&gt;Node11</title>
<path fill="none" stroke="midnightblue" d="M892.3,-10C884.09,-10 875.64,-10 867.24,-10"/>
<polygon fill="midnightblue" stroke="midnightblue" points="892.53,-13.5 902.53,-10 892.53,-6.5 892.53,-13.5"/>
</g>
<!-- Node11&#45;&gt;Node2 -->
<g id="edge13" class="edge">
<title>Node11&#45;&gt;Node2</title>
<path fill="none" stroke="midnightblue" d="M727.46,-21.86C718.25,-24.08 708.83,-26.49 700,-29 676.3,-35.73 650.21,-44.5 629.17,-51.92"/>
<polygon fill="midnightblue" stroke="midnightblue" points="728.4,-25.24 737.33,-19.54 726.8,-18.42 728.4,-25.24"/>
</g>
</g>
</svg>
