<?xml version="1.0" encoding="UTF-8" standalone="no"?>
<!DOCTYPE svg PUBLIC "-//W3C//DTD SVG 1.1//EN"
 "http://www.w3.org/Graphics/SVG/1.1/DTD/svg11.dtd">
<!-- Generated by graphviz version 2.43.0 (0)
 -->
<!-- Title: SystemHard::findGroupsAndCreateArtificialParticlesOMP Pages: 1 -->
<svg width="796pt" height="176pt"
 viewBox="0.00 0.00 796.00 175.50" xmlns="http://www.w3.org/2000/svg" xmlns:xlink="http://www.w3.org/1999/xlink">
<g id="graph0" class="graph" transform="scale(1 1) rotate(0) translate(4 171.5)">
<title>SystemHard::findGroupsAndCreateArtificialParticlesOMP</title>
<polygon fill="white" stroke="transparent" points="-4,4 -4,-171.5 792,-171.5 792,4 -4,4"/>
<!-- Node1 -->
<g id="node1" class="node">
<title>Node1</title>
<g id="a_node1"><a xlink:title="Find groups and create aritfical particles to sys.">
<polygon fill="#bfbfbf" stroke="black" points="0,-48.5 0,-78.5 154,-78.5 154,-48.5 0,-48.5"/>
<text text-anchor="start" x="8" y="-66.5" font-family="Helvetica,sans-Serif" font-size="10.00">SystemHard::findGroupsAnd</text>
<text text-anchor="middle" x="77" y="-55.5" font-family="Helvetica,sans-Serif" font-size="10.00">CreateArtificialParticlesOMP</text>
</a>
</g>
</g>
<!-- Node2 -->
<g id="node2" class="node">
<title>Node2</title>
<g id="a_node2"><a xlink:href="classSystemHard.html#ab9aaaaa58ad48fe4fcfe36d2ce1c8619" target="_top" xlink:title="generate artificial particles,">
<polygon fill="white" stroke="black" points="190,-73.5 190,-103.5 375,-103.5 375,-73.5 190,-73.5"/>
<text text-anchor="start" x="198" y="-91.5" font-family="Helvetica,sans-Serif" font-size="10.00">SystemHard::findGroupsAnd</text>
<text text-anchor="middle" x="282.5" y="-80.5" font-family="Helvetica,sans-Serif" font-size="10.00">CreateArtificialParticlesOneCluster</text>
</a>
</g>
</g>
<!-- Node1&#45;&gt;Node2 -->
<g id="edge1" class="edge">
<title>Node1&#45;&gt;Node2</title>
<path fill="none" stroke="midnightblue" d="M154.07,-72.84C162.42,-73.87 171.03,-74.93 179.63,-75.99"/>
<polygon fill="midnightblue" stroke="midnightblue" points="179.37,-79.48 189.72,-77.23 180.22,-72.53 179.37,-79.48"/>
</g>
<!-- Node8 -->
<g id="node8" class="node">
<title>Node8</title>
<g id="a_node8"><a xlink:href="classSearchGroupCandidate.html#a141d7709adce9fc5384ccd137b925843" target="_top" xlink:title=" ">
<polygon fill="white" stroke="black" points="218.5,-24.5 218.5,-54.5 346.5,-54.5 346.5,-24.5 218.5,-24.5"/>
<text text-anchor="start" x="226.5" y="-42.5" font-family="Helvetica,sans-Serif" font-size="10.00">SearchGroupCandidate</text>
<text text-anchor="middle" x="282.5" y="-31.5" font-family="Helvetica,sans-Serif" font-size="10.00">::searchAndMerge</text>
</a>
</g>
</g>
<!-- Node1&#45;&gt;Node8 -->
<g id="edge7" class="edge">
<title>Node1&#45;&gt;Node8</title>
<path fill="none" stroke="midnightblue" d="M154.07,-54.53C171.81,-52.44 190.66,-50.21 208.28,-48.14"/>
<polygon fill="midnightblue" stroke="midnightblue" points="208.97,-51.58 218.49,-46.93 208.15,-44.63 208.97,-51.58"/>
</g>
<!-- Node3 -->
<g id="node3" class="node">
<title>Node3</title>
<g id="a_node3"><a xlink:href="classStability.html#aa14561ced4c6f52711990b4d4065e519" target="_top" xlink:title="Check binary tree and collect closed systems subtree root.">
<polygon fill="white" stroke="black" points="426,-148 426,-167 560,-167 560,-148 426,-148"/>
<text text-anchor="middle" x="493" y="-155" font-family="Helvetica,sans-Serif" font-size="10.00">Stability::findClosedTree</text>
</a>
</g>
</g>
<!-- Node2&#45;&gt;Node3 -->
<g id="edge2" class="edge">
<title>Node2&#45;&gt;Node3</title>
<path fill="none" stroke="midnightblue" d="M317.93,-103.55C343.31,-114.27 378.88,-128.49 411,-138.5 419.13,-141.03 427.81,-143.41 436.35,-145.56"/>
<polygon fill="midnightblue" stroke="midnightblue" points="435.74,-149.01 446.28,-147.98 437.39,-142.21 435.74,-149.01"/>
</g>
<!-- Node5 -->
<g id="node5" class="node">
<title>Node5</title>
<g id="a_node5"><a xlink:href="classSearchGroupCandidate.html#aaf78ad50bf7c53a67bdc2e10b937fdac" target="_top" xlink:title=" ">
<polygon fill="white" stroke="black" points="429,-98.5 429,-128.5 557,-128.5 557,-98.5 429,-98.5"/>
<text text-anchor="start" x="437" y="-116.5" font-family="Helvetica,sans-Serif" font-size="10.00">SearchGroupCandidate</text>
<text text-anchor="middle" x="493" y="-105.5" font-family="Helvetica,sans-Serif" font-size="10.00">::getMemberList</text>
</a>
</g>
</g>
<!-- Node2&#45;&gt;Node5 -->
<g id="edge4" class="edge">
<title>Node2&#45;&gt;Node5</title>
<path fill="none" stroke="midnightblue" d="M375.25,-99.5C389.85,-101.25 404.77,-103.04 418.86,-104.73"/>
<polygon fill="midnightblue" stroke="midnightblue" points="418.61,-108.23 428.96,-105.94 419.45,-101.28 418.61,-108.23"/>
</g>
<!-- Node6 -->
<g id="node6" class="node">
<title>Node6</title>
<g id="a_node6"><a xlink:href="classSearchGroupCandidate.html#af2319845b77573bbee67d82c9ee2b415" target="_top" xlink:title=" ">
<polygon fill="white" stroke="black" points="411,-49.5 411,-79.5 575,-79.5 575,-49.5 411,-49.5"/>
<text text-anchor="start" x="419" y="-67.5" font-family="Helvetica,sans-Serif" font-size="10.00">SearchGroupCandidate</text>
<text text-anchor="middle" x="493" y="-56.5" font-family="Helvetica,sans-Serif" font-size="10.00">::getNumberOfGroupMembers</text>
</a>
</g>
</g>
<!-- Node2&#45;&gt;Node6 -->
<g id="edge5" class="edge">
<title>Node2&#45;&gt;Node6</title>
<path fill="none" stroke="midnightblue" d="M375.25,-77.94C383.64,-76.97 392.14,-75.99 400.53,-75.03"/>
<polygon fill="midnightblue" stroke="midnightblue" points="401.15,-78.48 410.69,-73.86 400.35,-71.53 401.15,-78.48"/>
</g>
<!-- Node7 -->
<g id="node7" class="node">
<title>Node7</title>
<g id="a_node7"><a xlink:href="classSearchGroupCandidate.html#a24fa3d099f4cc0af771b1cc7272f093c" target="_top" xlink:title=" ">
<polygon fill="white" stroke="black" points="429,-0.5 429,-30.5 557,-30.5 557,-0.5 429,-0.5"/>
<text text-anchor="start" x="437" y="-18.5" font-family="Helvetica,sans-Serif" font-size="10.00">SearchGroupCandidate</text>
<text text-anchor="middle" x="493" y="-7.5" font-family="Helvetica,sans-Serif" font-size="10.00">::getNumberOfGroups</text>
</a>
</g>
</g>
<!-- Node2&#45;&gt;Node7 -->
<g id="edge6" class="edge">
<title>Node2&#45;&gt;Node7</title>
<path fill="none" stroke="midnightblue" d="M351.34,-73.43C359.46,-70.83 367.51,-67.87 375,-64.5 392.54,-56.62 393.63,-48.75 411,-40.5 415.9,-38.17 421.07,-35.99 426.33,-33.97"/>
<polygon fill="midnightblue" stroke="midnightblue" points="427.66,-37.22 435.86,-30.51 425.26,-30.64 427.66,-37.22"/>
</g>
<!-- Node4 -->
<g id="node4" class="node">
<title>Node4</title>
<g id="a_node4"><a xlink:href="classStability.html#af7837504b63ebe02eae8c808806014e4" target="_top" xlink:title="Closed system check iteration function for BinaryTree.">
<polygon fill="white" stroke="black" points="611,-148 611,-167 788,-167 788,-148 611,-148"/>
<text text-anchor="middle" x="699.5" y="-155" font-family="Helvetica,sans-Serif" font-size="10.00">Stability::closedSystemCheckIter</text>
</a>
</g>
</g>
<!-- Node3&#45;&gt;Node4 -->
<g id="edge3" class="edge">
<title>Node3&#45;&gt;Node4</title>
<path fill="none" stroke="midnightblue" d="M560.11,-157.5C572.95,-157.5 586.65,-157.5 600.26,-157.5"/>
<polygon fill="midnightblue" stroke="midnightblue" points="600.63,-161 610.63,-157.5 600.63,-154 600.63,-161"/>
</g>
</g>
</svg>
