<?xml version="1.0" encoding="UTF-8" standalone="no"?>
<!DOCTYPE svg PUBLIC "-//W3C//DTD SVG 1.1//EN"
 "http://www.w3.org/Graphics/SVG/1.1/DTD/svg11.dtd">
<!-- Generated by graphviz version 2.43.0 (0)
 -->
<!-- Title: TidalTensor::getParticleN Pages: 1 -->
<!--zoomable 425 -->
<svg id="main" version="1.1" xmlns="http://www.w3.org/2000/svg" xmlns:xlink="http://www.w3.org/1999/xlink" xml:space="preserve" onload="init(evt)">
<style type="text/css"><![CDATA[
.edge:hover path { stroke: red; }
.edge:hover polygon { stroke: red; fill: red; }
]]></style>
<script type="text/javascript"><![CDATA[
var edges = document.getElementsByTagName('g');
if (edges && edges.length) {
  for (var i=0;i<edges.length;i++) {
    if (edges[i].id.substr(0,4)=='edge') {
      edges[i].setAttribute('class','edge');
    }
  }
}
]]></script>
        <defs>
                <circle id="rim" cx="0" cy="0" r="7"/>
                <circle id="rim2" cx="0" cy="0" r="3.5"/>
                <g id="zoomPlus">
                        <use xlink:href="#rim" fill="#404040">
                                <set attributeName="fill" to="#808080" begin="zoomplus.mouseover" end="zoomplus.mouseout"/>
                        </use>
                        <path d="M-4,0h8M0,-4v8" fill="none" stroke="white" stroke-width="1.5" pointer-events="none"/>
                </g>
                <g id="zoomMin">
                        <use xlink:href="#rim" fill="#404040">
                                <set attributeName="fill" to="#808080" begin="zoomminus.mouseover" end="zoomminus.mouseout"/>
                        </use>
                        <path d="M-4,0h8" fill="none" stroke="white" stroke-width="1.5" pointer-events="none"/>
                </g>
                <g id="dirArrow">
                        <path fill="none" stroke="white" stroke-width="1.5" d="M0,-3.0v7 M-2.5,-0.5L0,-3.0L2.5,-0.5"/>
                </g>
               <g id="resetDef">
                       <use xlink:href="#rim2" fill="#404040">
                               <set attributeName="fill" to="#808080" begin="reset.mouseover" end="reset.mouseout"/>
                       </use>
               </g>
        </defs>

<script type="text/javascript">
var viewWidth = 890;
var viewHeight = 425;
var sectionId = 'dynsection-4';
</script>
<script xlink:href="svgpan.js"/>
<svg id="graph" class="graph">
<g id="viewport">
<title>TidalTensor::getParticleN</title>
<polygon fill="white" stroke="transparent" points="-4,4 -4,-421.28 886,-421.28 886,4 -4,4"/>
<!-- Node1 -->
<g id="node1" class="node">
<title>Node1</title>
<g id="a_node1"><a xlink:title="get particle number">
<polygon fill="#bfbfbf" stroke="black" points="745,-216.78 745,-235.78 882,-235.78 882,-216.78 745,-216.78"/>
<text text-anchor="middle" x="813.5" y="-223.78" font-family="Helvetica,sans-Serif" font-size="10.00">TidalTensor::getParticleN</text>
</a>
</g>
</g>
<!-- Node2 -->
<g id="node2" class="node">
<title>Node2</title>
<g id="a_node2"><a xlink:href="classArtificialParticleManager.html#ae62470120fa13e433cdf3f5433f452cb" target="_top" xlink:title="check paramters">
<polygon fill="white" stroke="black" points="572.5,-373.28 572.5,-403.28 708.5,-403.28 708.5,-373.28 572.5,-373.28"/>
<text text-anchor="start" x="580.5" y="-391.28" font-family="Helvetica,sans-Serif" font-size="10.00">ArtificialParticleManager</text>
<text text-anchor="middle" x="640.5" y="-380.28" font-family="Helvetica,sans-Serif" font-size="10.00">::checkParams</text>
</a>
</g>
</g>
<!-- Node1&#45;&gt;Node2 -->
<g id="edge1" class="edge">
<title>Node1&#45;&gt;Node2</title>
<path fill="none" stroke="midnightblue" d="M802.17,-244.6C785.66,-272.44 750.92,-325.61 709,-358.28 701.51,-364.11 692.72,-369.08 683.99,-373.2"/>
<polygon fill="midnightblue" stroke="midnightblue" points="805.23,-246.29 807.22,-235.89 799.18,-242.78 805.23,-246.29"/>
</g>
<!-- Node7 -->
<g id="node7" class="node">
<title>Node7</title>
<g id="a_node7"><a xlink:href="classTidalTensor.html#ae6295f7e7456826be8d88457f79ec43f" target="_top" xlink:title="create tidal tensor measurement particles">
<polygon fill="white" stroke="black" points="574,-285.28 574,-315.28 707,-315.28 707,-285.28 574,-285.28"/>
<text text-anchor="start" x="582" y="-303.28" font-family="Helvetica,sans-Serif" font-size="10.00">TidalTensor::createTidal</text>
<text text-anchor="middle" x="640.5" y="-292.28" font-family="Helvetica,sans-Serif" font-size="10.00">TensorMeasureParticles</text>
</a>
</g>
</g>
<!-- Node1&#45;&gt;Node7 -->
<g id="edge6" class="edge">
<title>Node1&#45;&gt;Node7</title>
<path fill="none" stroke="midnightblue" d="M784.95,-240.6C764.31,-251.08 735.23,-265.32 709,-276.28 701.66,-279.35 693.76,-282.38 686.06,-285.21"/>
<polygon fill="midnightblue" stroke="midnightblue" points="786.77,-243.6 794.08,-235.93 783.58,-237.37 786.77,-243.6"/>
</g>
<!-- Node8 -->
<g id="node8" class="node">
<title>Node8</title>
<g id="a_node8"><a xlink:href="tidal__tensor__test_8cxx.html#a3c04138a5bfe5d72780bb7e82a18e627" target="_top" xlink:title=" ">
<polygon fill="white" stroke="black" points="439,-334.78 439,-353.78 480,-353.78 480,-334.78 439,-334.78"/>
<text text-anchor="middle" x="459.5" y="-341.78" font-family="Helvetica,sans-Serif" font-size="10.00">main</text>
</a>
</g>
</g>
<!-- Node1&#45;&gt;Node8 -->
<g id="edge27" class="edge">
<title>Node1&#45;&gt;Node8</title>
<path fill="none" stroke="midnightblue" d="M800.11,-244.14C782.77,-267.49 748.89,-307.48 709,-325.28 630.37,-360.37 523.83,-352.39 480.28,-347.09"/>
<polygon fill="midnightblue" stroke="midnightblue" points="803.1,-245.98 806.11,-235.82 797.42,-241.88 803.1,-245.98"/>
</g>
<!-- Node9 -->
<g id="node9" class="node">
<title>Node9</title>
<g id="a_node9"><a xlink:href="classTidalTensor.html#ab3e7b2dbbf72d3286064f02a26f62e11" target="_top" xlink:title="tidal tensor fitting function,">
<polygon fill="white" stroke="black" points="596.5,-99.78 596.5,-118.78 684.5,-118.78 684.5,-99.78 596.5,-99.78"/>
<text text-anchor="middle" x="640.5" y="-106.78" font-family="Helvetica,sans-Serif" font-size="10.00">TidalTensor::fit</text>
</a>
</g>
</g>
<!-- Node1&#45;&gt;Node9 -->
<g id="edge9" class="edge">
<title>Node1&#45;&gt;Node9</title>
<path fill="none" stroke="midnightblue" d="M798.67,-208.73C780.42,-186.75 746.24,-149.42 709,-128.28 701.48,-124.01 692.94,-120.65 684.53,-118.02"/>
<polygon fill="midnightblue" stroke="midnightblue" points="796.04,-211.05 805.06,-216.6 801.47,-206.63 796.04,-211.05"/>
</g>
<!-- Node10 -->
<g id="node10" class="node">
<title>Node10</title>
<g id="a_node10"><a xlink:href="classArtificialParticleManager.html#aef4de2cdc22768a36abee8243f0db707" target="_top" xlink:title="get artificial particle total number">
<polygon fill="white" stroke="black" points="572.5,-138.28 572.5,-168.28 708.5,-168.28 708.5,-138.28 572.5,-138.28"/>
<text text-anchor="start" x="580.5" y="-156.28" font-family="Helvetica,sans-Serif" font-size="10.00">ArtificialParticleManager</text>
<text text-anchor="middle" x="640.5" y="-145.28" font-family="Helvetica,sans-Serif" font-size="10.00">::getArtificialParticleN</text>
</a>
</g>
</g>
<!-- Node1&#45;&gt;Node10 -->
<g id="edge10" class="edge">
<title>Node1&#45;&gt;Node10</title>
<path fill="none" stroke="midnightblue" d="M783.71,-212.18C763.09,-202.26 734.57,-188.93 709,-178.28 700.92,-174.92 692.22,-171.53 683.83,-168.37"/>
<polygon fill="midnightblue" stroke="midnightblue" points="782.34,-215.4 792.87,-216.61 785.39,-209.1 782.34,-215.4"/>
</g>
<!-- Node13 -->
<g id="node13" class="node">
<title>Node13</title>
<g id="a_node13"><a xlink:href="classArtificialParticleManager.html#a38ed6b2904a13aa7928ce5a7d694abd0" target="_top" xlink:title="CM particle index offset.">
<polygon fill="white" stroke="black" points="572.5,-187.28 572.5,-217.28 708.5,-217.28 708.5,-187.28 572.5,-187.28"/>
<text text-anchor="start" x="580.5" y="-205.28" font-family="Helvetica,sans-Serif" font-size="10.00">ArtificialParticleManager</text>
<text text-anchor="middle" x="640.5" y="-194.28" font-family="Helvetica,sans-Serif" font-size="10.00">::getIndexOffsetCM</text>
</a>
</g>
</g>
<!-- Node1&#45;&gt;Node13 -->
<g id="edge14" class="edge">
<title>Node1&#45;&gt;Node13</title>
<path fill="none" stroke="midnightblue" d="M734.74,-215.37C726.01,-214.14 717.17,-212.9 708.59,-211.7"/>
<polygon fill="midnightblue" stroke="midnightblue" points="734.53,-218.87 744.92,-216.79 735.5,-211.94 734.53,-218.87"/>
</g>
<!-- Node19 -->
<g id="node19" class="node">
<title>Node19</title>
<g id="a_node19"><a xlink:href="classArtificialParticleManager.html#a5aa161be171207ca5ad6cec9d9f678cf" target="_top" xlink:title="orbital/pseudo particle index offset">
<polygon fill="white" stroke="black" points="572.5,-236.28 572.5,-266.28 708.5,-266.28 708.5,-236.28 572.5,-236.28"/>
<text text-anchor="start" x="580.5" y="-254.28" font-family="Helvetica,sans-Serif" font-size="10.00">ArtificialParticleManager</text>
<text text-anchor="middle" x="640.5" y="-243.28" font-family="Helvetica,sans-Serif" font-size="10.00">::getIndexOffsetOrb</text>
</a>
</g>
</g>
<!-- Node1&#45;&gt;Node19 -->
<g id="edge22" class="edge">
<title>Node1&#45;&gt;Node19</title>
<path fill="none" stroke="midnightblue" d="M737.17,-237.29C727.7,-238.68 718.06,-240.09 708.73,-241.45"/>
<polygon fill="midnightblue" stroke="midnightblue" points="737.98,-240.71 747.36,-235.8 736.96,-233.79 737.98,-240.71"/>
</g>
<!-- Node21 -->
<g id="node21" class="node">
<title>Node21</title>
<g id="a_node21"><a xlink:href="classArtificialParticleManager.html#a8163b376c2cb3e1fd066059306904b40" target="_top" xlink:title="get artificial particle total number">
<polygon fill="white" stroke="black" points="572,-50.28 572,-80.28 709,-80.28 709,-50.28 572,-50.28"/>
<text text-anchor="start" x="580" y="-68.28" font-family="Helvetica,sans-Serif" font-size="10.00">ArtificialParticleManager</text>
<text text-anchor="middle" x="640.5" y="-57.28" font-family="Helvetica,sans-Serif" font-size="10.00">::getTidalTensorParticleN</text>
</a>
</g>
</g>
<!-- Node1&#45;&gt;Node21 -->
<g id="edge26" class="edge">
<title>Node1&#45;&gt;Node21</title>
<path fill="none" stroke="midnightblue" d="M802.79,-207.47C786.91,-178.44 752.72,-122.66 709,-90.28 703.88,-86.49 698.12,-83.21 692.18,-80.4"/>
<polygon fill="midnightblue" stroke="midnightblue" points="799.84,-209.37 807.63,-216.55 806.02,-206.08 799.84,-209.37"/>
</g>
<!-- Node3 -->
<g id="node3" class="node">
<title>Node3</title>
<g id="a_node3"><a xlink:href="classHardManager.html#af7548086113d591778ce878a53dad036" target="_top" xlink:title="check paramters">
<polygon fill="white" stroke="black" points="383,-378.78 383,-397.78 536,-397.78 536,-378.78 383,-378.78"/>
<text text-anchor="middle" x="459.5" y="-385.78" font-family="Helvetica,sans-Serif" font-size="10.00">HardManager::checkParams</text>
</a>
</g>
</g>
<!-- Node2&#45;&gt;Node3 -->
<g id="edge2" class="edge">
<title>Node2&#45;&gt;Node3</title>
<path fill="none" stroke="midnightblue" d="M562.27,-388.28C553.61,-388.28 544.79,-388.28 536.16,-388.28"/>
<polygon fill="midnightblue" stroke="midnightblue" points="562.34,-391.78 572.34,-388.28 562.34,-384.78 562.34,-391.78"/>
</g>
<!-- Node6 -->
<g id="node6" class="node">
<title>Node6</title>
<g id="a_node6"><a xlink:href="classArtificialParticleManager.html#af3f6cdb0c22cffa6a12cc47fa32f79fa" target="_top" xlink:title="create artificial particles">
<polygon fill="white" stroke="black" points="391.5,-285.28 391.5,-315.28 527.5,-315.28 527.5,-285.28 391.5,-285.28"/>
<text text-anchor="start" x="399.5" y="-303.28" font-family="Helvetica,sans-Serif" font-size="10.00">ArtificialParticleManager</text>
<text text-anchor="middle" x="459.5" y="-292.28" font-family="Helvetica,sans-Serif" font-size="10.00">::createArtificialParticles</text>
</a>
</g>
</g>
<!-- Node2&#45;&gt;Node6 -->
<g id="edge5" class="edge">
<title>Node2&#45;&gt;Node6</title>
<path fill="none" stroke="midnightblue" d="M609.66,-367.61C589.51,-354.29 561.94,-337.28 536,-325.28 528.23,-321.69 519.8,-318.37 511.47,-315.4"/>
<polygon fill="midnightblue" stroke="midnightblue" points="607.84,-370.6 618.09,-373.26 611.73,-364.79 607.84,-370.6"/>
</g>
<!-- Node4 -->
<g id="node4" class="node">
<title>Node4</title>
<g id="a_node4"><a xlink:href="classSystemHard.html#ab4cfa60701681b891092275b4be9cfc0" target="_top" xlink:title="check paramters">
<polygon fill="white" stroke="black" points="195.5,-359.78 195.5,-378.78 342.5,-378.78 342.5,-359.78 195.5,-359.78"/>
<text text-anchor="middle" x="269" y="-366.78" font-family="Helvetica,sans-Serif" font-size="10.00">SystemHard::checkParams</text>
</a>
</g>
</g>
<!-- Node3&#45;&gt;Node4 -->
<g id="edge3" class="edge">
<title>Node3&#45;&gt;Node4</title>
<path fill="none" stroke="midnightblue" d="M372.85,-379.65C362.72,-378.63 352.46,-377.59 342.54,-376.59"/>
<polygon fill="midnightblue" stroke="midnightblue" points="372.62,-383.14 382.92,-380.66 373.32,-376.18 372.62,-383.14"/>
</g>
<!-- Node5 -->
<g id="node5" class="node">
<title>Node5</title>
<g id="a_node5"><a xlink:href="hard__debug_8cxx.html#a3c04138a5bfe5d72780bb7e82a18e627" target="_top" xlink:title=" ">
<polygon fill="white" stroke="black" points="248.5,-397.78 248.5,-416.78 289.5,-416.78 289.5,-397.78 248.5,-397.78"/>
<text text-anchor="middle" x="269" y="-404.78" font-family="Helvetica,sans-Serif" font-size="10.00">main</text>
</a>
</g>
</g>
<!-- Node3&#45;&gt;Node5 -->
<g id="edge4" class="edge">
<title>Node3&#45;&gt;Node5</title>
<path fill="none" stroke="midnightblue" d="M372.94,-396.9C342.01,-400.02 309.82,-403.27 289.85,-405.28"/>
<polygon fill="midnightblue" stroke="midnightblue" points="373.32,-400.38 382.92,-395.9 372.62,-393.42 373.32,-400.38"/>
</g>
<!-- Node7&#45;&gt;Node6 -->
<g id="edge7" class="edge">
<title>Node7&#45;&gt;Node6</title>
<path fill="none" stroke="midnightblue" d="M563.86,-300.28C551.82,-300.28 539.45,-300.28 527.63,-300.28"/>
<polygon fill="midnightblue" stroke="midnightblue" points="563.86,-303.78 573.86,-300.28 563.86,-296.78 563.86,-303.78"/>
</g>
<!-- Node7&#45;&gt;Node8 -->
<g id="edge8" class="edge">
<title>Node7&#45;&gt;Node8</title>
<path fill="none" stroke="midnightblue" d="M568.63,-317.7C536.74,-325.54 501.55,-334.19 480.23,-339.43"/>
<polygon fill="midnightblue" stroke="midnightblue" points="569.52,-321.08 578.4,-315.3 567.85,-314.29 569.52,-321.08"/>
</g>
<!-- Node10&#45;&gt;Node6 -->
<g id="edge12" class="edge">
<title>Node10&#45;&gt;Node6</title>
<path fill="none" stroke="midnightblue" d="M576.63,-174.15C575,-175.44 573.46,-176.82 572,-178.28 539.23,-211.13 569.53,-244.2 536,-276.28 532.42,-279.7 528.36,-282.64 524.01,-285.15"/>
<polygon fill="midnightblue" stroke="midnightblue" points="578.95,-176.8 585.29,-168.31 575.04,-171 578.95,-176.8"/>
</g>
<!-- Node11 -->
<g id="node11" class="node">
<title>Node11</title>
<g id="a_node11"><a xlink:href="classSystemHard.html#aaae0c65a7caa9679827b980b9e9f3c89" target="_top" xlink:title="Soft force correction due to different cut&#45;off function.">
<polygon fill="white" stroke="black" points="0,-72.28 0,-102.28 155,-102.28 155,-72.28 0,-72.28"/>
<text text-anchor="start" x="8" y="-90.28" font-family="Helvetica,sans-Serif" font-size="10.00">SystemHard::correctForce</text>
<text text-anchor="middle" x="77.5" y="-79.28" font-family="Helvetica,sans-Serif" font-size="10.00">WithCutoffTreeNeighborOMP</text>
</a>
</g>
</g>
<!-- Node10&#45;&gt;Node11 -->
<g id="edge11" class="edge">
<title>Node10&#45;&gt;Node11</title>
<path fill="none" stroke="midnightblue" d="M577.24,-132.74C575.4,-131.35 573.65,-129.86 572,-128.28 541.86,-99.25 570.79,-64.53 536,-41.28 399.29,50.11 186.35,-35.37 108.39,-72.24"/>
<polygon fill="midnightblue" stroke="midnightblue" points="575.48,-135.78 585.78,-138.28 579.29,-129.9 575.48,-135.78"/>
</g>
<!-- Node12 -->
<g id="node12" class="node">
<title>Node12</title>
<g id="a_node12"><a xlink:href="classHardIntegrator.html#aa9af7a31e9981446c84ca58ca77e4630" target="_top" xlink:title="initial integration">
<polygon fill="white" stroke="black" points="398.5,-50.78 398.5,-69.78 520.5,-69.78 520.5,-50.78 398.5,-50.78"/>
<text text-anchor="middle" x="459.5" y="-57.78" font-family="Helvetica,sans-Serif" font-size="10.00">HardIntegrator::initial</text>
</a>
</g>
</g>
<!-- Node10&#45;&gt;Node12 -->
<g id="edge13" class="edge">
<title>Node10&#45;&gt;Node12</title>
<path fill="none" stroke="midnightblue" d="M579.8,-133.48C577.08,-131.87 574.47,-130.14 572,-128.28 550.42,-112.01 558.43,-94.36 536,-79.28 530.28,-75.43 523.84,-72.37 517.2,-69.92"/>
<polygon fill="midnightblue" stroke="midnightblue" points="578.29,-136.64 588.76,-138.24 581.57,-130.46 578.29,-136.64"/>
</g>
<!-- Node13&#45;&gt;Node6 -->
<g id="edge15" class="edge">
<title>Node13&#45;&gt;Node6</title>
<path fill="none" stroke="midnightblue" d="M579.8,-222.08C577.08,-223.69 574.47,-225.42 572,-227.28 550.42,-243.55 557.96,-260.52 536,-276.28 531.2,-279.73 525.87,-282.69 520.35,-285.24"/>
<polygon fill="midnightblue" stroke="midnightblue" points="581.57,-225.1 588.76,-217.32 578.29,-218.92 581.57,-225.1"/>
</g>
<!-- Node14 -->
<g id="node14" class="node">
<title>Node14</title>
<g id="a_node14"><a xlink:href="classArtificialParticleManager.html#ae34d1849537dc540ecef80423d9bfe98" target="_top" xlink:title="get center of mass id">
<polygon fill="white" stroke="black" points="391.5,-89.28 391.5,-119.28 527.5,-119.28 527.5,-89.28 391.5,-89.28"/>
<text text-anchor="start" x="399.5" y="-107.28" font-family="Helvetica,sans-Serif" font-size="10.00">ArtificialParticleManager</text>
<text text-anchor="middle" x="459.5" y="-96.28" font-family="Helvetica,sans-Serif" font-size="10.00">::getCMID</text>
</a>
</g>
</g>
<!-- Node13&#45;&gt;Node14 -->
<g id="edge16" class="edge">
<title>Node13&#45;&gt;Node14</title>
<path fill="none" stroke="midnightblue" d="M577.82,-182.24C575.81,-181 573.86,-179.68 572,-178.28 550.11,-161.83 558.17,-144.35 536,-128.28 531.32,-124.89 526.15,-121.96 520.77,-119.45"/>
<polygon fill="midnightblue" stroke="midnightblue" points="576.54,-185.53 586.99,-187.26 579.9,-179.39 576.54,-185.53"/>
</g>
<!-- Node15 -->
<g id="node15" class="node">
<title>Node15</title>
<g id="a_node15"><a xlink:href="classArtificialParticleManager.html#ac3c6685d320c92bc37b697d6cd791db0" target="_top" xlink:title="get c.m. particle list address from a artificial particle array">
<polygon fill="white" stroke="black" points="391.5,-187.28 391.5,-217.28 527.5,-217.28 527.5,-187.28 391.5,-187.28"/>
<text text-anchor="start" x="399.5" y="-205.28" font-family="Helvetica,sans-Serif" font-size="10.00">ArtificialParticleManager</text>
<text text-anchor="middle" x="459.5" y="-194.28" font-family="Helvetica,sans-Serif" font-size="10.00">::getCMParticles</text>
</a>
</g>
</g>
<!-- Node13&#45;&gt;Node15 -->
<g id="edge17" class="edge">
<title>Node13&#45;&gt;Node15</title>
<path fill="none" stroke="midnightblue" d="M562.32,-202.28C550.81,-202.28 539.02,-202.28 527.74,-202.28"/>
<polygon fill="midnightblue" stroke="midnightblue" points="562.34,-205.78 572.34,-202.28 562.34,-198.78 562.34,-205.78"/>
</g>
<!-- Node18 -->
<g id="node18" class="node">
<title>Node18</title>
<g id="a_node18"><a xlink:href="classArtificialParticleManager.html#a19a8664675a9c697bf5331ee598f854f" target="_top" xlink:title="get member number">
<polygon fill="white" stroke="black" points="391.5,-138.28 391.5,-168.28 527.5,-168.28 527.5,-138.28 391.5,-138.28"/>
<text text-anchor="start" x="399.5" y="-156.28" font-family="Helvetica,sans-Serif" font-size="10.00">ArtificialParticleManager</text>
<text text-anchor="middle" x="459.5" y="-145.28" font-family="Helvetica,sans-Serif" font-size="10.00">::getMemberN</text>
</a>
</g>
</g>
<!-- Node13&#45;&gt;Node18 -->
<g id="edge21" class="edge">
<title>Node13&#45;&gt;Node18</title>
<path fill="none" stroke="midnightblue" d="M574.66,-184.53C555.26,-179.22 534.19,-173.45 515.48,-168.33"/>
<polygon fill="midnightblue" stroke="midnightblue" points="573.76,-187.91 584.33,-187.18 575.61,-181.16 573.76,-187.91"/>
</g>
<!-- Node16 -->
<g id="node16" class="node">
<title>Node16</title>
<g id="a_node16"><a xlink:href="classArtificialParticleManager.html#abce1a403342631a9f4042213a71b9867" target="_top" xlink:title="correct artificial particles force for furture use">
<polygon fill="white" stroke="black" points="191,-129.28 191,-159.28 347,-159.28 347,-129.28 191,-129.28"/>
<text text-anchor="start" x="199" y="-147.28" font-family="Helvetica,sans-Serif" font-size="10.00">ArtificialParticleManager</text>
<text text-anchor="middle" x="269" y="-136.28" font-family="Helvetica,sans-Serif" font-size="10.00">::correctArtficialParticleForce</text>
</a>
</g>
</g>
<!-- Node15&#45;&gt;Node16 -->
<g id="edge18" class="edge">
<title>Node15&#45;&gt;Node16</title>
<path fill="none" stroke="midnightblue" d="M399.73,-184.2C373.73,-176.2 343.51,-166.9 318.79,-159.29"/>
<polygon fill="midnightblue" stroke="midnightblue" points="398.88,-187.6 409.47,-187.19 400.94,-180.91 398.88,-187.6"/>
</g>
<!-- Node17 -->
<g id="node17" class="node">
<title>Node17</title>
<g id="a_node17"><a xlink:href="classArtificialParticleManager.html#a849acb19588a63ec450f606fd1bead3d" target="_top" xlink:title="correct orbit&#45;samping/pseudo particles force">
<polygon fill="white" stroke="black" points="193,-211.28 193,-241.28 345,-241.28 345,-211.28 193,-211.28"/>
<text text-anchor="start" x="201" y="-229.28" font-family="Helvetica,sans-Serif" font-size="10.00">ArtificialParticleManager</text>
<text text-anchor="middle" x="269" y="-218.28" font-family="Helvetica,sans-Serif" font-size="10.00">::correctOrbitalParticleForce</text>
</a>
</g>
</g>
<!-- Node15&#45;&gt;Node17 -->
<g id="edge20" class="edge">
<title>Node15&#45;&gt;Node17</title>
<path fill="none" stroke="midnightblue" d="M380.98,-212.15C369.17,-213.65 357,-215.2 345.24,-216.7"/>
<polygon fill="midnightblue" stroke="midnightblue" points="381.77,-215.58 391.25,-210.84 380.88,-208.63 381.77,-215.58"/>
</g>
<!-- Node16&#45;&gt;Node11 -->
<g id="edge19" class="edge">
<title>Node16&#45;&gt;Node11</title>
<path fill="none" stroke="midnightblue" d="M208.13,-126.27C182.57,-118.58 153.08,-109.71 128.69,-102.38"/>
<polygon fill="midnightblue" stroke="midnightblue" points="207.13,-129.63 217.71,-129.15 209.15,-122.92 207.13,-129.63"/>
</g>
<!-- Node19&#45;&gt;Node6 -->
<g id="edge23" class="edge">
<title>Node19&#45;&gt;Node6</title>
<path fill="none" stroke="midnightblue" d="M574.66,-269.03C555.26,-274.34 534.19,-280.11 515.48,-285.23"/>
<polygon fill="midnightblue" stroke="midnightblue" points="575.61,-272.4 584.33,-266.38 573.76,-265.65 575.61,-272.4"/>
</g>
<!-- Node20 -->
<g id="node20" class="node">
<title>Node20</title>
<g id="a_node20"><a xlink:href="classArtificialParticleManager.html#aed984927e871b5aec2948fdcb3ff44f9" target="_top" xlink:title="get oribit/pseudo particle list address from a artificial particle array">
<polygon fill="white" stroke="black" points="391.5,-236.28 391.5,-266.28 527.5,-266.28 527.5,-236.28 391.5,-236.28"/>
<text text-anchor="start" x="399.5" y="-254.28" font-family="Helvetica,sans-Serif" font-size="10.00">ArtificialParticleManager</text>
<text text-anchor="middle" x="459.5" y="-243.28" font-family="Helvetica,sans-Serif" font-size="10.00">::getOrbitalParticles</text>
</a>
</g>
</g>
<!-- Node19&#45;&gt;Node20 -->
<g id="edge24" class="edge">
<title>Node19&#45;&gt;Node20</title>
<path fill="none" stroke="midnightblue" d="M562.32,-251.28C550.81,-251.28 539.02,-251.28 527.74,-251.28"/>
<polygon fill="midnightblue" stroke="midnightblue" points="562.34,-254.78 572.34,-251.28 562.34,-247.78 562.34,-254.78"/>
</g>
<!-- Node20&#45;&gt;Node17 -->
<g id="edge25" class="edge">
<title>Node20&#45;&gt;Node17</title>
<path fill="none" stroke="midnightblue" d="M380.98,-241C369.17,-239.43 357,-237.82 345.24,-236.26"/>
<polygon fill="midnightblue" stroke="midnightblue" points="380.87,-244.51 391.25,-242.36 381.79,-237.58 380.87,-244.51"/>
</g>
</g>
</svg>
        <g id="navigator" transform="translate(0 0)" fill="#404254">
                <rect fill="#f2f5e9" fill-opacity="0.5" stroke="#606060" stroke-width=".5" x="0" y="0" width="60" height="60"/>
                <use id="zoomplus" xlink:href="#zoomPlus" x="17" y="9" onmousedown="handleZoom(evt,'in')"/>
                <use id="zoomminus" xlink:href="#zoomMin" x="42" y="9" onmousedown="handleZoom(evt,'out')"/>
                <use id="reset" xlink:href="#resetDef" x="30" y="36" onmousedown="handleReset()"/>
                <g id="arrowUp" xlink:href="#dirArrow" transform="translate(30 24)" onmousedown="handlePan(0,-1)">
                  <use xlink:href="#rim" fill="#404040">
                        <set attributeName="fill" to="#808080" begin="arrowUp.mouseover" end="arrowUp.mouseout"/>
                  </use>
                  <path fill="none" stroke="white" stroke-width="1.5" d="M0,-3.0v7 M-2.5,-0.5L0,-3.0L2.5,-0.5"/>
                </g>
                <g id="arrowRight" xlink:href="#dirArrow" transform="rotate(90) translate(36 -43)" onmousedown="handlePan(1,0)">
                  <use xlink:href="#rim" fill="#404040">
                        <set attributeName="fill" to="#808080" begin="arrowRight.mouseover" end="arrowRight.mouseout"/>
                  </use>
                  <path fill="none" stroke="white" stroke-width="1.5" d="M0,-3.0v7 M-2.5,-0.5L0,-3.0L2.5,-0.5"/>
                </g>
                <g id="arrowDown" xlink:href="#dirArrow" transform="rotate(180) translate(-30 -48)" onmousedown="handlePan(0,1)">
                  <use xlink:href="#rim" fill="#404040">
                        <set attributeName="fill" to="#808080" begin="arrowDown.mouseover" end="arrowDown.mouseout"/>
                  </use>
                  <path fill="none" stroke="white" stroke-width="1.5" d="M0,-3.0v7 M-2.5,-0.5L0,-3.0L2.5,-0.5"/>
                </g>
                <g id="arrowLeft" xlink:href="#dirArrow" transform="rotate(270) translate(-36 17)" onmousedown="handlePan(-1,0)">
                  <use xlink:href="#rim" fill="#404040">
                        <set attributeName="fill" to="#808080" begin="arrowLeft.mouseover" end="arrowLeft.mouseout"/>
                  </use>
                  <path fill="none" stroke="white" stroke-width="1.5" d="M0,-3.0v7 M-2.5,-0.5L0,-3.0L2.5,-0.5"/>
                </g>
        </g>
        <svg viewBox="0 0 15 15" width="100%" height="30px" preserveAspectRatio="xMaxYMin meet">
         <g id="arrow_out" transform="scale(0.3 0.3)">
          <a xlink:href="classTidalTensor_a668eb0fe71a2fe1bdad53572a74d2224_icgraph_org.svg" target="_base">
           <rect id="button" ry="5" rx="5" y="6" x="6" height="38" width="38"
                fill="#f2f5e9" fill-opacity="0.5" stroke="#606060" stroke-width="1.0"/>
           <path id="arrow"
             d="M 11.500037,31.436501 C 11.940474,20.09759 22.043105,11.32322 32.158766,21.979434 L 37.068811,17.246167 C 37.068811,17.246167 37.088388,32 37.088388,32 L 22.160133,31.978069 C 22.160133,31.978069 26.997745,27.140456 26.997745,27.140456 C 18.528582,18.264221 13.291696,25.230495 11.500037,31.436501 z"
             style="fill:#404040;"/>
          </a>
         </g>
        </svg>
</svg>
