<?xml version="1.0" encoding="UTF-8" standalone="no"?>
<!DOCTYPE svg PUBLIC "-//W3C//DTD SVG 1.1//EN"
 "http://www.w3.org/Graphics/SVG/1.1/DTD/svg11.dtd">
<!-- Generated by graphviz version 2.43.0 (0)
 -->
<!-- Title: Ptcl::setParticleCMAddress Pages: 1 -->
<svg width="526pt" height="88pt"
 viewBox="0.00 0.00 526.00 88.00" xmlns="http://www.w3.org/2000/svg" xmlns:xlink="http://www.w3.org/1999/xlink">
<g id="graph0" class="graph" transform="scale(1 1) rotate(0) translate(4 84)">
<title>Ptcl::setParticleCMAddress</title>
<polygon fill="white" stroke="transparent" points="-4,4 -4,-84 522,-84 522,4 -4,4"/>
<!-- Node1 -->
<g id="node1" class="node">
<title>Node1</title>
<g id="a_node1"><a xlink:title="set status to c.m. particle address">
<polygon fill="#bfbfbf" stroke="black" points="0,-33 0,-52 146,-52 146,-33 0,-33"/>
<text text-anchor="middle" x="73" y="-40" font-family="Helvetica,sans-Serif" font-size="10.00">Ptcl::setParticleCMAddress</text>
</a>
</g>
</g>
<!-- Node2 -->
<g id="node2" class="node">
<title>Node2</title>
<g id="a_node2"><a xlink:href="classArtificialParticleInformation.html#abc5b2bdadb35b2f7f5d4d589be9e12be" target="_top" xlink:title="return whether the particle type is member">
<polygon fill="white" stroke="black" points="368,-49.5 368,-79.5 518,-79.5 518,-49.5 368,-49.5"/>
<text text-anchor="start" x="376" y="-67.5" font-family="Helvetica,sans-Serif" font-size="10.00">ArtificialParticleInformation</text>
<text text-anchor="middle" x="443" y="-56.5" font-family="Helvetica,sans-Serif" font-size="10.00">::isMember</text>
</a>
</g>
</g>
<!-- Node1&#45;&gt;Node2 -->
<g id="edge1" class="edge">
<title>Node1&#45;&gt;Node2</title>
<path fill="none" stroke="midnightblue" d="M146.27,-46.82C206.97,-50.45 293.77,-55.64 357.65,-59.46"/>
<polygon fill="midnightblue" stroke="midnightblue" points="357.5,-62.95 367.69,-60.06 357.92,-55.97 357.5,-62.95"/>
</g>
<!-- Node3 -->
<g id="node3" class="node">
<title>Node3</title>
<g id="a_node3"><a xlink:href="classArtificialParticleInformation.html#a5270d8aa4301b8236c1247592c8c9512" target="_top" xlink:title="set status">
<polygon fill="white" stroke="black" points="182,-5.5 182,-35.5 332,-35.5 332,-5.5 182,-5.5"/>
<text text-anchor="start" x="190" y="-23.5" font-family="Helvetica,sans-Serif" font-size="10.00">ArtificialParticleInformation</text>
<text text-anchor="middle" x="257" y="-12.5" font-family="Helvetica,sans-Serif" font-size="10.00">::setStatus</text>
</a>
</g>
</g>
<!-- Node1&#45;&gt;Node3 -->
<g id="edge2" class="edge">
<title>Node1&#45;&gt;Node3</title>
<path fill="none" stroke="midnightblue" d="M146.19,-33.77C154.61,-32.76 163.25,-31.71 171.81,-30.68"/>
<polygon fill="midnightblue" stroke="midnightblue" points="172.3,-34.14 181.81,-29.47 171.46,-27.19 172.3,-34.14"/>
</g>
<!-- Node3&#45;&gt;Node2 -->
<g id="edge4" class="edge">
<title>Node3&#45;&gt;Node2</title>
<path fill="none" stroke="midnightblue" d="M320.81,-35.52C336.41,-39.25 353.27,-43.28 369.3,-47.12"/>
<polygon fill="midnightblue" stroke="midnightblue" points="368.62,-50.55 379.16,-49.47 370.25,-43.74 368.62,-50.55"/>
</g>
<!-- Node4 -->
<g id="node4" class="node">
<title>Node4</title>
<g id="a_node4"><a xlink:href="classArtificialParticleInformation.html#ae87f07e0baa5ec2a19c6b73e191825bc" target="_top" xlink:title="return whether the particle type is artificial">
<polygon fill="white" stroke="black" points="368,-0.5 368,-30.5 518,-30.5 518,-0.5 368,-0.5"/>
<text text-anchor="start" x="376" y="-18.5" font-family="Helvetica,sans-Serif" font-size="10.00">ArtificialParticleInformation</text>
<text text-anchor="middle" x="443" y="-7.5" font-family="Helvetica,sans-Serif" font-size="10.00">::isArtificial</text>
</a>
</g>
</g>
<!-- Node3&#45;&gt;Node4 -->
<g id="edge3" class="edge">
<title>Node3&#45;&gt;Node4</title>
<path fill="none" stroke="midnightblue" d="M332.04,-18.49C340.51,-18.26 349.19,-18.02 357.78,-17.79"/>
<polygon fill="midnightblue" stroke="midnightblue" points="357.91,-21.29 367.81,-17.52 357.72,-14.29 357.91,-21.29"/>
</g>
</g>
</svg>
