<?xml version="1.0" encoding="UTF-8" standalone="no"?>
<!DOCTYPE svg PUBLIC "-//W3C//DTD SVG 1.1//EN"
 "http://www.w3.org/Graphics/SVG/1.1/DTD/svg11.dtd">
<!-- Generated by graphviz version 2.43.0 (0)
 -->
<!-- Title: FPSoft::writeAscii Pages: 1 -->
<svg width="420pt" height="116pt"
 viewBox="0.00 0.00 420.00 115.50" xmlns="http://www.w3.org/2000/svg" xmlns:xlink="http://www.w3.org/1999/xlink">
<g id="graph0" class="graph" transform="scale(1 1) rotate(0) translate(4 111.5)">
<title>FPSoft::writeAscii</title>
<polygon fill="white" stroke="transparent" points="-4,4 -4,-111.5 416,-111.5 416,4 -4,4"/>
<!-- Node1 -->
<g id="node1" class="node">
<title>Node1</title>
<g id="a_node1"><a xlink:title=" ">
<polygon fill="#bfbfbf" stroke="black" points="0,-50 0,-69 101,-69 101,-50 0,-50"/>
<text text-anchor="middle" x="50.5" y="-57" font-family="Helvetica,sans-Serif" font-size="10.00">FPSoft::writeAscii</text>
</a>
</g>
</g>
<!-- Node2 -->
<g id="node2" class="node">
<title>Node2</title>
<g id="a_node2"><a xlink:href="classPtcl.html#a74f32fef5cbf6901a3b9ebebab3c6fe3" target="_top" xlink:title="write class data with ASCII format">
<polygon fill="white" stroke="black" points="137,-50 137,-69 226,-69 226,-50 137,-50"/>
<text text-anchor="middle" x="181.5" y="-57" font-family="Helvetica,sans-Serif" font-size="10.00">Ptcl::writeAscii</text>
</a>
</g>
</g>
<!-- Node1&#45;&gt;Node2 -->
<g id="edge1" class="edge">
<title>Node1&#45;&gt;Node2</title>
<path fill="none" stroke="midnightblue" d="M101.01,-59.5C109.39,-59.5 118.13,-59.5 126.62,-59.5"/>
<polygon fill="midnightblue" stroke="midnightblue" points="126.82,-63 136.82,-59.5 126.82,-56 126.82,-63"/>
</g>
<!-- Node3 -->
<g id="node3" class="node">
<title>Node3</title>
<g id="a_node3"><a xlink:href="classParticleBase.html#a2aff5120451894367e08971adb595a24" target="_top" xlink:title="write class data with ASCII format">
<polygon fill="white" stroke="black" points="271.5,-88 271.5,-107 402.5,-107 402.5,-88 271.5,-88"/>
<text text-anchor="middle" x="337" y="-95" font-family="Helvetica,sans-Serif" font-size="10.00">ParticleBase::writeAscii</text>
</a>
</g>
</g>
<!-- Node2&#45;&gt;Node3 -->
<g id="edge2" class="edge">
<title>Node2&#45;&gt;Node3</title>
<path fill="none" stroke="midnightblue" d="M221.23,-69.09C241.4,-74.08 266.25,-80.23 287.66,-85.53"/>
<polygon fill="midnightblue" stroke="midnightblue" points="287,-88.97 297.54,-87.98 288.68,-82.18 287,-88.97"/>
</g>
<!-- Node4 -->
<g id="node4" class="node">
<title>Node4</title>
<g id="a_node4"><a xlink:href="classChangeOver.html#a41bcc8db067257c5e1a0a7b3f9aa2707" target="_top" xlink:title="write class data to file with binary format">
<polygon fill="white" stroke="black" points="271.5,-50 271.5,-69 402.5,-69 402.5,-50 271.5,-50"/>
<text text-anchor="middle" x="337" y="-57" font-family="Helvetica,sans-Serif" font-size="10.00">ChangeOver::writeAscii</text>
</a>
</g>
</g>
<!-- Node2&#45;&gt;Node4 -->
<g id="edge3" class="edge">
<title>Node2&#45;&gt;Node4</title>
<path fill="none" stroke="midnightblue" d="M226.08,-59.5C237.09,-59.5 249.22,-59.5 261.3,-59.5"/>
<polygon fill="midnightblue" stroke="midnightblue" points="261.39,-63 271.39,-59.5 261.39,-56 261.39,-63"/>
</g>
<!-- Node5 -->
<g id="node5" class="node">
<title>Node5</title>
<g id="a_node5"><a xlink:href="classArtificialParticleInformation.html#a66cdd10308103afc4aa9f541525e8b78" target="_top" xlink:title="write class data with ASCII format">
<polygon fill="white" stroke="black" points="262,-0.5 262,-30.5 412,-30.5 412,-0.5 262,-0.5"/>
<text text-anchor="start" x="270" y="-18.5" font-family="Helvetica,sans-Serif" font-size="10.00">ArtificialParticleInformation</text>
<text text-anchor="middle" x="337" y="-7.5" font-family="Helvetica,sans-Serif" font-size="10.00">::writeAscii</text>
</a>
</g>
</g>
<!-- Node2&#45;&gt;Node5 -->
<g id="edge4" class="edge">
<title>Node2&#45;&gt;Node5</title>
<path fill="none" stroke="midnightblue" d="M215.81,-49.95C232.7,-45.11 253.79,-39.07 273.56,-33.4"/>
<polygon fill="midnightblue" stroke="midnightblue" points="274.79,-36.69 283.44,-30.57 272.87,-29.96 274.79,-36.69"/>
</g>
</g>
</svg>
