<?xml version="1.0" encoding="UTF-8" standalone="no"?>
<!DOCTYPE svg PUBLIC "-//W3C//DTD SVG 1.1//EN"
 "http://www.w3.org/Graphics/SVG/1.1/DTD/svg11.dtd">
<!-- Generated by graphviz version 2.43.0 (0)
 -->
<!-- Title: HermiteInteraction::calcAccJerkPairGroupCMGroupCM Pages: 1 -->
<svg width="555pt" height="142pt"
 viewBox="0.00 0.00 555.00 142.00" xmlns="http://www.w3.org/2000/svg" xmlns:xlink="http://www.w3.org/1999/xlink">
<g id="graph0" class="graph" transform="scale(1 1) rotate(0) translate(4 138)">
<title>HermiteInteraction::calcAccJerkPairGroupCMGroupCM</title>
<polygon fill="white" stroke="transparent" points="-4,4 -4,-138 551,-138 551,4 -4,4"/>
<!-- Node1 -->
<g id="node1" class="node">
<title>Node1</title>
<g id="a_node1"><a xlink:title="calculate acceleration and jerk of one pair single and resolved group">
<polygon fill="#bfbfbf" stroke="black" points="0,-52 0,-82 186,-82 186,-52 0,-52"/>
<text text-anchor="start" x="8" y="-70" font-family="Helvetica,sans-Serif" font-size="10.00">HermiteInteraction</text>
<text text-anchor="middle" x="93" y="-59" font-family="Helvetica,sans-Serif" font-size="10.00">::calcAccJerkPairGroupCMGroupCM</text>
</a>
</g>
</g>
<!-- Node2 -->
<g id="node2" class="node">
<title>Node2</title>
<g id="a_node2"><a xlink:href="classChangeOver.html#aa4cee9c08ff3ae260bf33fb3d885ffca" target="_top" xlink:title="calculate changeover function Acc0 by selecting maximum rout">
<polygon fill="white" stroke="black" points="222,-95.5 222,-114.5 376,-114.5 376,-95.5 222,-95.5"/>
<text text-anchor="middle" x="299" y="-102.5" font-family="Helvetica,sans-Serif" font-size="10.00">ChangeOver::calcAcc0WTwo</text>
</a>
</g>
</g>
<!-- Node1&#45;&gt;Node2 -->
<g id="edge1" class="edge">
<title>Node1&#45;&gt;Node2</title>
<path fill="none" stroke="midnightblue" d="M174.63,-82.02C195.4,-85.89 217.4,-89.99 236.99,-93.64"/>
<polygon fill="midnightblue" stroke="midnightblue" points="236.52,-97.11 247,-95.5 237.81,-90.23 236.52,-97.11"/>
</g>
<!-- Node5 -->
<g id="node5" class="node">
<title>Node5</title>
<g id="a_node5"><a xlink:href="classChangeOver.html#a03517a56f818e5be3d1bba56cb78edff" target="_top" xlink:title="calculate changeover function Acc1 by selecting maximum rout">
<polygon fill="white" stroke="black" points="222,-57.5 222,-76.5 376,-76.5 376,-57.5 222,-57.5"/>
<text text-anchor="middle" x="299" y="-64.5" font-family="Helvetica,sans-Serif" font-size="10.00">ChangeOver::calcAcc1WTwo</text>
</a>
</g>
</g>
<!-- Node1&#45;&gt;Node5 -->
<g id="edge4" class="edge">
<title>Node1&#45;&gt;Node5</title>
<path fill="none" stroke="midnightblue" d="M186.15,-67C194.63,-67 203.21,-67 211.64,-67"/>
<polygon fill="midnightblue" stroke="midnightblue" points="211.83,-70.5 221.83,-67 211.83,-63.5 211.83,-70.5"/>
</g>
<!-- Node7 -->
<g id="node7" class="node">
<title>Node7</title>
<g id="a_node7"><a xlink:href="classChangeOver.html#a42703491c22c6f1925e28f4eb7508594" target="_top" xlink:title="calculate changeover function Pot by selecting maximum rout">
<polygon fill="white" stroke="black" points="226,-19.5 226,-38.5 372,-38.5 372,-19.5 226,-19.5"/>
<text text-anchor="middle" x="299" y="-26.5" font-family="Helvetica,sans-Serif" font-size="10.00">ChangeOver::calcPotWTwo</text>
</a>
</g>
</g>
<!-- Node1&#45;&gt;Node7 -->
<g id="edge7" class="edge">
<title>Node1&#45;&gt;Node7</title>
<path fill="none" stroke="midnightblue" d="M174.63,-51.98C195.4,-48.11 217.4,-44.01 236.99,-40.36"/>
<polygon fill="midnightblue" stroke="midnightblue" points="237.81,-43.77 247,-38.5 236.52,-36.89 237.81,-43.77"/>
</g>
<!-- Node3 -->
<g id="node3" class="node">
<title>Node3</title>
<g id="a_node3"><a xlink:href="classChangeOver.html#af8884a741e47cb86fa1d33354bfc7537" target="_top" xlink:title="changeover function for force">
<polygon fill="white" stroke="black" points="412,-114.5 412,-133.5 547,-133.5 547,-114.5 412,-114.5"/>
<text text-anchor="middle" x="479.5" y="-121.5" font-family="Helvetica,sans-Serif" font-size="10.00">ChangeOver::calcAcc0W</text>
</a>
</g>
</g>
<!-- Node2&#45;&gt;Node3 -->
<g id="edge2" class="edge">
<title>Node2&#45;&gt;Node3</title>
<path fill="none" stroke="midnightblue" d="M376.22,-113.11C384.64,-114.01 393.22,-114.92 401.65,-115.82"/>
<polygon fill="midnightblue" stroke="midnightblue" points="401.52,-119.33 411.83,-116.9 402.26,-112.36 401.52,-119.33"/>
</g>
<!-- Node4 -->
<g id="node4" class="node">
<title>Node4</title>
<g id="a_node4"><a xlink:href="classChangeOver.html#ab1ee26d7f773d67568a55b8efabdbe79" target="_top" xlink:title="get r_out">
<polygon fill="white" stroke="black" points="419,-76.5 419,-95.5 540,-95.5 540,-76.5 419,-76.5"/>
<text text-anchor="middle" x="479.5" y="-83.5" font-family="Helvetica,sans-Serif" font-size="10.00">ChangeOver::getRout</text>
</a>
</g>
</g>
<!-- Node2&#45;&gt;Node4 -->
<g id="edge3" class="edge">
<title>Node2&#45;&gt;Node4</title>
<path fill="none" stroke="midnightblue" d="M376.22,-96.89C387.06,-95.73 398.17,-94.55 408.87,-93.41"/>
<polygon fill="midnightblue" stroke="midnightblue" points="409.43,-96.87 419,-92.33 408.68,-89.91 409.43,-96.87"/>
</g>
<!-- Node5&#45;&gt;Node4 -->
<g id="edge6" class="edge">
<title>Node5&#45;&gt;Node4</title>
<path fill="none" stroke="midnightblue" d="M376.22,-75.11C387.06,-76.27 398.17,-77.45 408.87,-78.59"/>
<polygon fill="midnightblue" stroke="midnightblue" points="408.68,-82.09 419,-79.67 409.43,-75.13 408.68,-82.09"/>
</g>
<!-- Node6 -->
<g id="node6" class="node">
<title>Node6</title>
<g id="a_node6"><a xlink:href="classChangeOver.html#a2865beebed34f9de5d5fbbd6f73564d2" target="_top" xlink:title="changeover function for force derivative">
<polygon fill="white" stroke="black" points="412,-38.5 412,-57.5 547,-57.5 547,-38.5 412,-38.5"/>
<text text-anchor="middle" x="479.5" y="-45.5" font-family="Helvetica,sans-Serif" font-size="10.00">ChangeOver::calcAcc1W</text>
</a>
</g>
</g>
<!-- Node5&#45;&gt;Node6 -->
<g id="edge5" class="edge">
<title>Node5&#45;&gt;Node6</title>
<path fill="none" stroke="midnightblue" d="M376.22,-58.89C384.64,-57.99 393.22,-57.08 401.65,-56.18"/>
<polygon fill="midnightblue" stroke="midnightblue" points="402.26,-59.64 411.83,-55.1 401.52,-52.67 402.26,-59.64"/>
</g>
<!-- Node7&#45;&gt;Node4 -->
<g id="edge9" class="edge">
<title>Node7&#45;&gt;Node4</title>
<path fill="none" stroke="midnightblue" d="M345.96,-38.6C356,-41.22 366.47,-44.36 376,-48 392.9,-54.46 395.21,-60.26 412,-67 417.85,-69.35 424.1,-71.53 430.33,-73.52"/>
<polygon fill="midnightblue" stroke="midnightblue" points="429.48,-76.92 440.06,-76.48 431.51,-70.22 429.48,-76.92"/>
</g>
<!-- Node8 -->
<g id="node8" class="node">
<title>Node8</title>
<g id="a_node8"><a xlink:href="classChangeOver.html#a23c019e8fc14c43826a4c85454e55780" target="_top" xlink:title="changeover function for potential">
<polygon fill="white" stroke="black" points="415.5,-0.5 415.5,-19.5 543.5,-19.5 543.5,-0.5 415.5,-0.5"/>
<text text-anchor="middle" x="479.5" y="-7.5" font-family="Helvetica,sans-Serif" font-size="10.00">ChangeOver::calcPotW</text>
</a>
</g>
</g>
<!-- Node7&#45;&gt;Node8 -->
<g id="edge8" class="edge">
<title>Node7&#45;&gt;Node8</title>
<path fill="none" stroke="midnightblue" d="M372.09,-21.33C383.05,-20.16 394.38,-18.95 405.36,-17.79"/>
<polygon fill="midnightblue" stroke="midnightblue" points="405.76,-21.26 415.34,-16.72 405.02,-14.3 405.76,-21.26"/>
</g>
</g>
</svg>
