<?xml version="1.0" encoding="UTF-8" standalone="no"?>
<!DOCTYPE svg PUBLIC "-//W3C//DTD SVG 1.1//EN"
 "http://www.w3.org/Graphics/SVG/1.1/DTD/svg11.dtd">
<!-- Generated by graphviz version 2.43.0 (0)
 -->
<!-- Title: FPSoft::printColumn Pages: 1 -->
<svg width="632pt" height="116pt"
 viewBox="0.00 0.00 632.00 116.00" xmlns="http://www.w3.org/2000/svg" xmlns:xlink="http://www.w3.org/1999/xlink">
<g id="graph0" class="graph" transform="scale(1 1) rotate(0) translate(4 112)">
<title>FPSoft::printColumn</title>
<polygon fill="white" stroke="transparent" points="-4,4 -4,-112 628,-112 628,4 -4,4"/>
<!-- Node1 -->
<g id="node1" class="node">
<title>Node1</title>
<g id="a_node1"><a xlink:title="print data of class members using column style">
<polygon fill="#bfbfbf" stroke="black" points="0,-44.5 0,-63.5 113,-63.5 113,-44.5 0,-44.5"/>
<text text-anchor="middle" x="56.5" y="-51.5" font-family="Helvetica,sans-Serif" font-size="10.00">FPSoft::printColumn</text>
</a>
</g>
</g>
<!-- Node2 -->
<g id="node2" class="node">
<title>Node2</title>
<g id="a_node2"><a xlink:href="classPtcl.html#ad3edca90dcee7b42baee6d12cbd25e52" target="_top" xlink:title="print data of class members using column style">
<polygon fill="white" stroke="black" points="149,-44.5 149,-63.5 250,-63.5 250,-44.5 149,-44.5"/>
<text text-anchor="middle" x="199.5" y="-51.5" font-family="Helvetica,sans-Serif" font-size="10.00">Ptcl::printColumn</text>
</a>
</g>
</g>
<!-- Node1&#45;&gt;Node2 -->
<g id="edge1" class="edge">
<title>Node1&#45;&gt;Node2</title>
<path fill="none" stroke="midnightblue" d="M113.23,-54C121.55,-54 130.15,-54 138.55,-54"/>
<polygon fill="midnightblue" stroke="midnightblue" points="138.66,-57.5 148.66,-54 138.66,-50.5 138.66,-57.5"/>
</g>
<!-- Node3 -->
<g id="node3" class="node">
<title>Node3</title>
<g id="a_node3"><a xlink:href="classChangeOver.html#a311e67bfac2687a70e3aba5c4d68a65a" target="_top" xlink:title="print data of class members using column style">
<polygon fill="white" stroke="black" points="289.5,-88.5 289.5,-107.5 432.5,-107.5 432.5,-88.5 289.5,-88.5"/>
<text text-anchor="middle" x="361" y="-95.5" font-family="Helvetica,sans-Serif" font-size="10.00">ChangeOver::printColumn</text>
</a>
</g>
</g>
<!-- Node2&#45;&gt;Node3 -->
<g id="edge2" class="edge">
<title>Node2&#45;&gt;Node3</title>
<path fill="none" stroke="midnightblue" d="M232.1,-63.51C248.2,-68.29 268.1,-74.09 286,-79 294.46,-81.32 303.48,-83.71 312.22,-85.98"/>
<polygon fill="midnightblue" stroke="midnightblue" points="311.35,-89.37 321.91,-88.48 313.1,-82.59 311.35,-89.37"/>
</g>
<!-- Node4 -->
<g id="node4" class="node">
<title>Node4</title>
<g id="a_node4"><a xlink:href="classArtificialParticleInformation.html#aae6803a0a64539a263e8d6c8499c6969" target="_top" xlink:title="print data of class members using column style">
<polygon fill="white" stroke="black" points="286,-39 286,-69 436,-69 436,-39 286,-39"/>
<text text-anchor="start" x="294" y="-57" font-family="Helvetica,sans-Serif" font-size="10.00">ArtificialParticleInformation</text>
<text text-anchor="middle" x="361" y="-46" font-family="Helvetica,sans-Serif" font-size="10.00">::printColumn</text>
</a>
</g>
</g>
<!-- Node2&#45;&gt;Node4 -->
<g id="edge3" class="edge">
<title>Node2&#45;&gt;Node4</title>
<path fill="none" stroke="midnightblue" d="M250.09,-54C258.24,-54 266.89,-54 275.6,-54"/>
<polygon fill="midnightblue" stroke="midnightblue" points="275.85,-57.5 285.85,-54 275.85,-50.5 275.85,-57.5"/>
</g>
<!-- Node5 -->
<g id="node5" class="node">
<title>Node5</title>
<g id="a_node5"><a xlink:href="classParticleBase.html#a2ee6dff13f084250e566036a37ac4bd4" target="_top" xlink:title="print data of class members using column style">
<polygon fill="white" stroke="black" points="289.5,-0.5 289.5,-19.5 432.5,-19.5 432.5,-0.5 289.5,-0.5"/>
<text text-anchor="middle" x="361" y="-7.5" font-family="Helvetica,sans-Serif" font-size="10.00">ParticleBase::printColumn</text>
</a>
</g>
</g>
<!-- Node2&#45;&gt;Node5 -->
<g id="edge4" class="edge">
<title>Node2&#45;&gt;Node5</title>
<path fill="none" stroke="midnightblue" d="M234.18,-44.46C249.92,-40.03 268.91,-34.71 286,-30 295.14,-27.48 304.92,-24.82 314.28,-22.28"/>
<polygon fill="midnightblue" stroke="midnightblue" points="315.48,-25.58 324.22,-19.59 313.66,-18.83 315.48,-25.58"/>
</g>
<!-- Node6 -->
<g id="node6" class="node">
<title>Node6</title>
<g id="a_node6"><a xlink:href="structStarParameter.html#a139a2ca192579fe938f35764d2e633ac" target="_top" xlink:title="print data of class members using column style">
<polygon fill="white" stroke="black" points="472,-0.5 472,-19.5 624,-19.5 624,-0.5 472,-0.5"/>
<text text-anchor="middle" x="548" y="-7.5" font-family="Helvetica,sans-Serif" font-size="10.00">StarParameter::printColumn</text>
</a>
</g>
</g>
<!-- Node5&#45;&gt;Node6 -->
<g id="edge5" class="edge">
<title>Node5&#45;&gt;Node6</title>
<path fill="none" stroke="midnightblue" d="M432.73,-10C442.2,-10 451.98,-10 461.66,-10"/>
<polygon fill="midnightblue" stroke="midnightblue" points="461.69,-13.5 471.69,-10 461.69,-6.5 461.69,-13.5"/>
</g>
</g>
</svg>
