<?xml version="1.0" encoding="UTF-8" standalone="no"?>
<!DOCTYPE svg PUBLIC "-//W3C//DTD SVG 1.1//EN"
 "http://www.w3.org/Graphics/SVG/1.1/DTD/svg11.dtd">
<!-- Generated by graphviz version 2.43.0 (0)
 -->
<!-- Title: ArtificialParticleManager::getOrbitalParticles Pages: 1 -->
<svg width="489pt" height="39pt"
 viewBox="0.00 0.00 489.00 39.00" xmlns="http://www.w3.org/2000/svg" xmlns:xlink="http://www.w3.org/1999/xlink">
<g id="graph0" class="graph" transform="scale(1 1) rotate(0) translate(4 35)">
<title>ArtificialParticleManager::getOrbitalParticles</title>
<polygon fill="white" stroke="transparent" points="-4,4 -4,-35 485,-35 485,4 -4,4"/>
<!-- Node1 -->
<g id="node1" class="node">
<title>Node1</title>
<g id="a_node1"><a xlink:title="get oribit/pseudo particle list address from a artificial particle array">
<polygon fill="#bfbfbf" stroke="black" points="0,-0.5 0,-30.5 136,-30.5 136,-0.5 0,-0.5"/>
<text text-anchor="start" x="8" y="-18.5" font-family="Helvetica,sans-Serif" font-size="10.00">ArtificialParticleManager</text>
<text text-anchor="middle" x="68" y="-7.5" font-family="Helvetica,sans-Serif" font-size="10.00">::getOrbitalParticles</text>
</a>
</g>
</g>
<!-- Node2 -->
<g id="node2" class="node">
<title>Node2</title>
<g id="a_node2"><a xlink:href="classArtificialParticleManager.html#a5aa161be171207ca5ad6cec9d9f678cf" target="_top" xlink:title="orbital/pseudo particle index offset">
<polygon fill="white" stroke="black" points="172,-0.5 172,-30.5 308,-30.5 308,-0.5 172,-0.5"/>
<text text-anchor="start" x="180" y="-18.5" font-family="Helvetica,sans-Serif" font-size="10.00">ArtificialParticleManager</text>
<text text-anchor="middle" x="240" y="-7.5" font-family="Helvetica,sans-Serif" font-size="10.00">::getIndexOffsetOrb</text>
</a>
</g>
</g>
<!-- Node1&#45;&gt;Node2 -->
<g id="edge1" class="edge">
<title>Node1&#45;&gt;Node2</title>
<path fill="none" stroke="midnightblue" d="M136.19,-15.5C144.5,-15.5 153.05,-15.5 161.51,-15.5"/>
<polygon fill="midnightblue" stroke="midnightblue" points="161.74,-19 171.74,-15.5 161.74,-12 161.74,-19"/>
</g>
<!-- Node3 -->
<g id="node3" class="node">
<title>Node3</title>
<g id="a_node3"><a xlink:href="classTidalTensor.html#a668eb0fe71a2fe1bdad53572a74d2224" target="_top" xlink:title="get particle number">
<polygon fill="white" stroke="black" points="344,-6 344,-25 481,-25 481,-6 344,-6"/>
<text text-anchor="middle" x="412.5" y="-13" font-family="Helvetica,sans-Serif" font-size="10.00">TidalTensor::getParticleN</text>
</a>
</g>
</g>
<!-- Node2&#45;&gt;Node3 -->
<g id="edge2" class="edge">
<title>Node2&#45;&gt;Node3</title>
<path fill="none" stroke="midnightblue" d="M308.39,-15.5C316.66,-15.5 325.16,-15.5 333.58,-15.5"/>
<polygon fill="midnightblue" stroke="midnightblue" points="333.77,-19 343.77,-15.5 333.77,-12 333.77,-19"/>
</g>
</g>
</svg>
