<?xml version="1.0" encoding="UTF-8" standalone="no"?>
<!DOCTYPE svg PUBLIC "-//W3C//DTD SVG 1.1//EN"
 "http://www.w3.org/Graphics/SVG/1.1/DTD/svg11.dtd">
<!-- Generated by graphviz version 2.43.0 (0)
 -->
<!-- Title: ChangeOver::getRin Pages: 1 -->
<svg width="300pt" height="66pt"
 viewBox="0.00 0.00 300.00 66.00" xmlns="http://www.w3.org/2000/svg" xmlns:xlink="http://www.w3.org/1999/xlink">
<g id="graph0" class="graph" transform="scale(1 1) rotate(0) translate(4 62)">
<title>ChangeOver::getRin</title>
<polygon fill="white" stroke="transparent" points="-4,4 -4,-62 296,-62 296,4 -4,4"/>
<!-- Node1 -->
<g id="node1" class="node">
<title>Node1</title>
<g id="a_node1"><a xlink:title="get r_in">
<polygon fill="#bfbfbf" stroke="black" points="178,-19.5 178,-38.5 292,-38.5 292,-19.5 178,-19.5"/>
<text text-anchor="middle" x="235" y="-26.5" font-family="Helvetica,sans-Serif" font-size="10.00">ChangeOver::getRin</text>
</a>
</g>
</g>
<!-- Node2 -->
<g id="node2" class="node">
<title>Node2</title>
<g id="a_node2"><a xlink:href="classPtcl.html#a7731bfc5bd1525b781acafc2d088f3b7" target="_top" xlink:title="Get group distance criterion.">
<polygon fill="white" stroke="black" points="25,-38.5 25,-57.5 117,-57.5 117,-38.5 25,-38.5"/>
<text text-anchor="middle" x="71" y="-45.5" font-family="Helvetica,sans-Serif" font-size="10.00">Ptcl::getRGroup</text>
</a>
</g>
</g>
<!-- Node1&#45;&gt;Node2 -->
<g id="edge1" class="edge">
<title>Node1&#45;&gt;Node2</title>
<path fill="none" stroke="midnightblue" d="M167.4,-36.81C150.49,-38.79 132.71,-40.88 117.14,-42.71"/>
<polygon fill="midnightblue" stroke="midnightblue" points="168.27,-40.23 177.79,-35.59 167.46,-33.28 168.27,-40.23"/>
</g>
<!-- Node3 -->
<g id="node3" class="node">
<title>Node3</title>
<g id="a_node3"><a xlink:href="classPtcl.html#a735f6de3f29073df24fcbc9a0874c46a" target="_top" xlink:title="Get group candidate distance criterion.">
<polygon fill="white" stroke="black" points="0,-0.5 0,-19.5 142,-19.5 142,-0.5 0,-0.5"/>
<text text-anchor="middle" x="71" y="-7.5" font-family="Helvetica,sans-Serif" font-size="10.00">Ptcl::getRGroupCandidate</text>
</a>
</g>
</g>
<!-- Node1&#45;&gt;Node3 -->
<g id="edge2" class="edge">
<title>Node1&#45;&gt;Node3</title>
<path fill="none" stroke="midnightblue" d="M167.65,-21.22C159.22,-20.23 150.58,-19.22 142.09,-18.22"/>
<polygon fill="midnightblue" stroke="midnightblue" points="167.46,-24.72 177.79,-22.41 168.27,-17.77 167.46,-24.72"/>
</g>
</g>
</svg>
