<?xml version="1.0" encoding="UTF-8" standalone="no"?>
<!DOCTYPE svg PUBLIC "-//W3C//DTD SVG 1.1//EN"
 "http://www.w3.org/Graphics/SVG/1.1/DTD/svg11.dtd">
<!-- Generated by graphviz version 2.43.0 (0)
 -->
<!-- Title: ARPerturber Pages: 1 -->
<svg width="242pt" height="95pt"
 viewBox="0.00 0.00 242.00 95.00" xmlns="http://www.w3.org/2000/svg" xmlns:xlink="http://www.w3.org/1999/xlink">
<g id="graph0" class="graph" transform="scale(1 1) rotate(0) translate(4 91)">
<title>ARPerturber</title>
<polygon fill="white" stroke="transparent" points="-4,4 -4,-91 238,-91 238,4 -4,4"/>
<!-- Node1 -->
<g id="node1" class="node">
<title>Node1</title>
<g id="a_node1"><a xlink:title="Perturber class for AR integration.">
<polygon fill="#bfbfbf" stroke="black" points="97.5,-0.5 97.5,-19.5 172.5,-19.5 172.5,-0.5 97.5,-0.5"/>
<text text-anchor="middle" x="135" y="-7.5" font-family="Helvetica,sans-Serif" font-size="10.00">ARPerturber</text>
</a>
</g>
</g>
<!-- Node2 -->
<g id="node2" class="node">
<title>Node2</title>
<g id="a_node2"><a xlink:title=" ">
<polygon fill="white" stroke="#bfbfbf" points="0,-67.5 0,-86.5 144,-86.5 144,-67.5 0,-67.5"/>
<text text-anchor="middle" x="72" y="-74.5" font-family="Helvetica,sans-Serif" font-size="10.00">H4::Neighbor&lt; PtclHard &gt;</text>
</a>
</g>
</g>
<!-- Node2&#45;&gt;Node1 -->
<g id="edge1" class="edge">
<title>Node2&#45;&gt;Node1</title>
<path fill="none" stroke="midnightblue" d="M87.51,-60C99.87,-47.25 116.69,-29.89 126.64,-19.63"/>
<polygon fill="midnightblue" stroke="midnightblue" points="84.94,-57.62 80.5,-67.23 89.97,-62.49 84.94,-57.62"/>
</g>
<!-- Node3 -->
<g id="node3" class="node">
<title>Node3</title>
<g id="a_node3"><a xlink:href="classTidalTensor.html" target="_top" xlink:title="Tidal tensor perterbation for AR.">
<polygon fill="white" stroke="black" points="162,-67.5 162,-86.5 234,-86.5 234,-67.5 162,-67.5"/>
<text text-anchor="middle" x="198" y="-74.5" font-family="Helvetica,sans-Serif" font-size="10.00">TidalTensor</text>
</a>
</g>
</g>
<!-- Node3&#45;&gt;Node1 -->
<g id="edge2" class="edge">
<title>Node3&#45;&gt;Node1</title>
<path fill="none" stroke="#9a32cd" stroke-dasharray="5,2" d="M182.49,-60C170.13,-47.25 153.31,-29.89 143.36,-19.63"/>
<polygon fill="#9a32cd" stroke="#9a32cd" points="180.03,-62.49 189.5,-67.23 185.06,-57.62 180.03,-62.49"/>
<text text-anchor="middle" x="193" y="-41" font-family="Helvetica,sans-Serif" font-size="10.00"> soft_pert</text>
</g>
</g>
</svg>
