<?xml version="1.0" encoding="UTF-8" standalone="no"?>
<!DOCTYPE svg PUBLIC "-//W3C//DTD SVG 1.1//EN"
 "http://www.w3.org/Graphics/SVG/1.1/DTD/svg11.dtd">
<!-- Generated by graphviz version 2.43.0 (0)
 -->
<!-- Title: ARInteraction::checkParams Pages: 1 -->
<svg width="349pt" height="66pt"
 viewBox="0.00 0.00 349.00 66.00" xmlns="http://www.w3.org/2000/svg" xmlns:xlink="http://www.w3.org/1999/xlink">
<g id="graph0" class="graph" transform="scale(1 1) rotate(0) translate(4 62)">
<title>ARInteraction::checkParams</title>
<polygon fill="white" stroke="transparent" points="-4,4 -4,-62 345,-62 345,4 -4,4"/>
<!-- Node1 -->
<g id="node1" class="node">
<title>Node1</title>
<g id="a_node1"><a xlink:title="(Necessary) check whether publicly initialized parameters are correctly set">
<polygon fill="#bfbfbf" stroke="black" points="0,-19.5 0,-38.5 153,-38.5 153,-19.5 0,-19.5"/>
<text text-anchor="middle" x="76.5" y="-26.5" font-family="Helvetica,sans-Serif" font-size="10.00">ARInteraction::checkParams</text>
</a>
</g>
</g>
<!-- Node2 -->
<g id="node2" class="node">
<title>Node2</title>
<g id="a_node2"><a xlink:href="classTwoBodyTide.html#a7d1ab2124ed35d99bb84313064437d1c" target="_top" xlink:title="check whether parameters values are correct">
<polygon fill="white" stroke="black" points="189,-38.5 189,-57.5 341,-57.5 341,-38.5 189,-38.5"/>
<text text-anchor="middle" x="265" y="-45.5" font-family="Helvetica,sans-Serif" font-size="10.00">TwoBodyTide::checkParams</text>
</a>
</g>
</g>
<!-- Node1&#45;&gt;Node2 -->
<g id="edge1" class="edge">
<title>Node1&#45;&gt;Node2</title>
<path fill="none" stroke="midnightblue" d="M153.09,-36.7C161.58,-37.57 170.27,-38.45 178.87,-39.33"/>
<polygon fill="midnightblue" stroke="midnightblue" points="178.61,-42.82 188.91,-40.35 179.32,-35.85 178.61,-42.82"/>
</g>
<!-- Node3 -->
<g id="node3" class="node">
<title>Node3</title>
<g id="a_node3"><a xlink:href="classBSEManager.html#a1cb5015f422a409df16a498cfc3adfa4" target="_top" xlink:title=" ">
<polygon fill="white" stroke="black" points="190.5,-0.5 190.5,-19.5 339.5,-19.5 339.5,-0.5 190.5,-0.5"/>
<text text-anchor="middle" x="265" y="-7.5" font-family="Helvetica,sans-Serif" font-size="10.00">BSEManager::checkParams</text>
</a>
</g>
</g>
<!-- Node1&#45;&gt;Node3 -->
<g id="edge2" class="edge">
<title>Node1&#45;&gt;Node3</title>
<path fill="none" stroke="midnightblue" d="M153.09,-21.3C162.04,-20.39 171.21,-19.45 180.27,-18.53"/>
<polygon fill="midnightblue" stroke="midnightblue" points="180.83,-21.99 190.42,-17.5 180.12,-15.03 180.83,-21.99"/>
</g>
</g>
</svg>
