<?xml version="1.0" encoding="UTF-8" standalone="no"?>
<!DOCTYPE svg PUBLIC "-//W3C//DTD SVG 1.1//EN"
 "http://www.w3.org/Graphics/SVG/1.1/DTD/svg11.dtd">
<!-- Generated by graphviz version 2.43.0 (0)
 -->
<!-- Title: ArtificialParticleManager::getArtificialParticleN Pages: 1 -->
<svg width="335pt" height="127pt"
 viewBox="0.00 0.00 335.00 126.50" xmlns="http://www.w3.org/2000/svg" xmlns:xlink="http://www.w3.org/1999/xlink">
<g id="graph0" class="graph" transform="scale(1 1) rotate(0) translate(4 122.5)">
<title>ArtificialParticleManager::getArtificialParticleN</title>
<polygon fill="white" stroke="transparent" points="-4,4 -4,-122.5 331,-122.5 331,4 -4,4"/>
<!-- Node1 -->
<g id="node1" class="node">
<title>Node1</title>
<g id="a_node1"><a xlink:title="get artificial particle total number">
<polygon fill="#bfbfbf" stroke="black" points="191,-39 191,-69 327,-69 327,-39 191,-39"/>
<text text-anchor="start" x="199" y="-57" font-family="Helvetica,sans-Serif" font-size="10.00">ArtificialParticleManager</text>
<text text-anchor="middle" x="259" y="-46" font-family="Helvetica,sans-Serif" font-size="10.00">::getArtificialParticleN</text>
</a>
</g>
</g>
<!-- Node2 -->
<g id="node2" class="node">
<title>Node2</title>
<g id="a_node2"><a xlink:href="classSystemHard.html#aaae0c65a7caa9679827b980b9e9f3c89" target="_top" xlink:title="Soft force correction due to different cut&#45;off function.">
<polygon fill="white" stroke="black" points="0,-88 0,-118 155,-118 155,-88 0,-88"/>
<text text-anchor="start" x="8" y="-106" font-family="Helvetica,sans-Serif" font-size="10.00">SystemHard::correctForce</text>
<text text-anchor="middle" x="77.5" y="-95" font-family="Helvetica,sans-Serif" font-size="10.00">WithCutoffTreeNeighborOMP</text>
</a>
</g>
</g>
<!-- Node1&#45;&gt;Node2 -->
<g id="edge1" class="edge">
<title>Node1&#45;&gt;Node2</title>
<path fill="none" stroke="midnightblue" d="M192.98,-71.75C173.53,-77.06 152.39,-82.83 133.64,-87.95"/>
<polygon fill="midnightblue" stroke="midnightblue" points="193.95,-75.11 202.68,-69.1 192.11,-68.36 193.95,-75.11"/>
</g>
<!-- Node3 -->
<g id="node3" class="node">
<title>Node3</title>
<g id="a_node3"><a xlink:href="classArtificialParticleManager.html#af3f6cdb0c22cffa6a12cc47fa32f79fa" target="_top" xlink:title="create artificial particles">
<polygon fill="white" stroke="black" points="9.5,-39 9.5,-69 145.5,-69 145.5,-39 9.5,-39"/>
<text text-anchor="start" x="17.5" y="-57" font-family="Helvetica,sans-Serif" font-size="10.00">ArtificialParticleManager</text>
<text text-anchor="middle" x="77.5" y="-46" font-family="Helvetica,sans-Serif" font-size="10.00">::createArtificialParticles</text>
</a>
</g>
</g>
<!-- Node1&#45;&gt;Node3 -->
<g id="edge2" class="edge">
<title>Node1&#45;&gt;Node3</title>
<path fill="none" stroke="midnightblue" d="M180.71,-54C168.99,-54 156.99,-54 145.51,-54"/>
<polygon fill="midnightblue" stroke="midnightblue" points="180.91,-57.5 190.91,-54 180.91,-50.5 180.91,-57.5"/>
</g>
<!-- Node4 -->
<g id="node4" class="node">
<title>Node4</title>
<g id="a_node4"><a xlink:href="classHardIntegrator.html#aa9af7a31e9981446c84ca58ca77e4630" target="_top" xlink:title="initial integration">
<polygon fill="white" stroke="black" points="16.5,-0.5 16.5,-19.5 138.5,-19.5 138.5,-0.5 16.5,-0.5"/>
<text text-anchor="middle" x="77.5" y="-7.5" font-family="Helvetica,sans-Serif" font-size="10.00">HardIntegrator::initial</text>
</a>
</g>
</g>
<!-- Node1&#45;&gt;Node4 -->
<g id="edge3" class="edge">
<title>Node1&#45;&gt;Node4</title>
<path fill="none" stroke="midnightblue" d="M186.71,-36.53C163.04,-30.72 137.58,-24.48 117.31,-19.51"/>
<polygon fill="midnightblue" stroke="midnightblue" points="186.18,-40 196.73,-38.98 187.85,-33.2 186.18,-40"/>
</g>
</g>
</svg>
