<?xml version="1.0" encoding="UTF-8" standalone="no"?>
<!DOCTYPE svg PUBLIC "-//W3C//DTD SVG 1.1//EN"
 "http://www.w3.org/Graphics/SVG/1.1/DTD/svg11.dtd">
<!-- Generated by graphviz version 2.43.0 (0)
 -->
<!-- Title: GalpyManager::updatePotentialSet Pages: 1 -->
<svg width="479pt" height="66pt"
 viewBox="0.00 0.00 479.00 66.00" xmlns="http://www.w3.org/2000/svg" xmlns:xlink="http://www.w3.org/1999/xlink">
<g id="graph0" class="graph" transform="scale(1 1) rotate(0) translate(4 62)">
<title>GalpyManager::updatePotentialSet</title>
<polygon fill="white" stroke="transparent" points="-4,4 -4,-62 475,-62 475,4 -4,4"/>
<!-- Node1 -->
<g id="node1" class="node">
<title>Node1</title>
<g id="a_node1"><a xlink:title="generate potentail args">
<polygon fill="#bfbfbf" stroke="black" points="284,-19.5 284,-38.5 471,-38.5 471,-19.5 284,-19.5"/>
<text text-anchor="middle" x="377.5" y="-26.5" font-family="Helvetica,sans-Serif" font-size="10.00">GalpyManager::updatePotentialSet</text>
</a>
</g>
</g>
<!-- Node2 -->
<g id="node2" class="node">
<title>Node2</title>
<g id="a_node2"><a xlink:href="classGalpyManager.html#ac6ce59845e4b863a3fce47c18e09631a" target="_top" xlink:title="initialization function">
<polygon fill="white" stroke="black" points="101.5,-38.5 101.5,-57.5 223.5,-57.5 223.5,-38.5 101.5,-38.5"/>
<text text-anchor="middle" x="162.5" y="-45.5" font-family="Helvetica,sans-Serif" font-size="10.00">GalpyManager::initial</text>
</a>
</g>
</g>
<!-- Node1&#45;&gt;Node2 -->
<g id="edge1" class="edge">
<title>Node1&#45;&gt;Node2</title>
<path fill="none" stroke="midnightblue" d="M273.61,-38.18C256.44,-39.71 239.14,-41.25 223.5,-42.65"/>
<polygon fill="midnightblue" stroke="midnightblue" points="274.05,-41.65 283.69,-37.28 273.42,-34.68 274.05,-41.65"/>
</g>
<!-- Node4 -->
<g id="node4" class="node">
<title>Node4</title>
<g id="a_node4"><a xlink:href="classGalpyManager.html#a2b9c41229c1b4a6d5c06e18017298357" target="_top" xlink:title="Update Potential types and arguments based on time.">
<polygon fill="white" stroke="black" points="77,-0.5 77,-19.5 248,-19.5 248,-0.5 77,-0.5"/>
<text text-anchor="middle" x="162.5" y="-7.5" font-family="Helvetica,sans-Serif" font-size="10.00">GalpyManager::updatePotential</text>
</a>
</g>
</g>
<!-- Node1&#45;&gt;Node4 -->
<g id="edge3" class="edge">
<title>Node1&#45;&gt;Node4</title>
<path fill="none" stroke="midnightblue" d="M273.72,-19.83C265.2,-19.07 256.65,-18.31 248.29,-17.56"/>
<polygon fill="midnightblue" stroke="midnightblue" points="273.42,-23.32 283.69,-20.72 274.05,-16.35 273.42,-23.32"/>
</g>
<!-- Node3 -->
<g id="node3" class="node">
<title>Node3</title>
<g id="a_node3"><a xlink:href="galpy__test_8cxx.html#a3c04138a5bfe5d72780bb7e82a18e627" target="_top" xlink:title=" ">
<polygon fill="white" stroke="black" points="0,-19.5 0,-38.5 41,-38.5 41,-19.5 0,-19.5"/>
<text text-anchor="middle" x="20.5" y="-26.5" font-family="Helvetica,sans-Serif" font-size="10.00">main</text>
</a>
</g>
</g>
<!-- Node2&#45;&gt;Node3 -->
<g id="edge2" class="edge">
<title>Node2&#45;&gt;Node3</title>
<path fill="none" stroke="midnightblue" d="M91.37,-38.48C72.86,-35.97 54.37,-33.46 41.06,-31.65"/>
<polygon fill="midnightblue" stroke="midnightblue" points="90.94,-41.96 101.31,-39.83 91.88,-35.02 90.94,-41.96"/>
</g>
<!-- Node4&#45;&gt;Node3 -->
<g id="edge4" class="edge">
<title>Node4&#45;&gt;Node3</title>
<path fill="none" stroke="midnightblue" d="M80.79,-20.95C66,-22.96 51.88,-24.88 41.12,-26.34"/>
<polygon fill="midnightblue" stroke="midnightblue" points="81.65,-24.37 91.09,-19.56 80.71,-17.43 81.65,-24.37"/>
</g>
</g>
</svg>
