<?xml version="1.0" encoding="UTF-8" standalone="no"?>
<!DOCTYPE svg PUBLIC "-//W3C//DTD SVG 1.1//EN"
 "http://www.w3.org/Graphics/SVG/1.1/DTD/svg11.dtd">
<!-- Generated by graphviz version 2.43.0 (0)
 -->
<!-- Title: GalpyManager::clear Pages: 1 -->
<svg width="848pt" height="85pt"
 viewBox="0.00 0.00 848.00 85.00" xmlns="http://www.w3.org/2000/svg" xmlns:xlink="http://www.w3.org/1999/xlink">
<g id="graph0" class="graph" transform="scale(1 1) rotate(0) translate(4 81)">
<title>GalpyManager::clear</title>
<polygon fill="white" stroke="transparent" points="-4,4 -4,-81 844,-81 844,4 -4,4"/>
<!-- Node1 -->
<g id="node1" class="node">
<title>Node1</title>
<g id="a_node1"><a xlink:title=" ">
<polygon fill="#bfbfbf" stroke="black" points="722,-38.5 722,-57.5 840,-57.5 840,-38.5 722,-38.5"/>
<text text-anchor="middle" x="781" y="-45.5" font-family="Helvetica,sans-Serif" font-size="10.00">GalpyManager::clear</text>
</a>
</g>
</g>
<!-- Node2 -->
<g id="node2" class="node">
<title>Node2</title>
<g id="a_node2"><a xlink:href="classGalpyManager.html#a5bc0d4b2e49875e6706fb03c4a11e9a2" target="_top" xlink:title=" ">
<polygon fill="white" stroke="black" points="507,-38.5 507,-57.5 686,-57.5 686,-38.5 507,-38.5"/>
<text text-anchor="middle" x="596.5" y="-45.5" font-family="Helvetica,sans-Serif" font-size="10.00">GalpyManager::freePotentialArgs</text>
</a>
</g>
</g>
<!-- Node1&#45;&gt;Node2 -->
<g id="edge1" class="edge">
<title>Node1&#45;&gt;Node2</title>
<path fill="none" stroke="midnightblue" d="M711.72,-41.44C703.36,-41.3 694.73,-41.24 686.12,-41.25"/>
<polygon fill="midnightblue" stroke="midnightblue" points="711.68,-44.94 721.75,-41.66 711.83,-37.95 711.68,-44.94"/>
</g>
<!-- Node7 -->
<g id="node7" class="node">
<title>Node7</title>
<g id="a_node7"><a xlink:href="classGalpyManager.html#abb225b337233061de8ffff35e67a53dc" target="_top" xlink:title=" ">
<polygon fill="white" stroke="black" points="510,-0.5 510,-19.5 683,-19.5 683,-0.5 510,-0.5"/>
<text text-anchor="middle" x="596.5" y="-7.5" font-family="Helvetica,sans-Serif" font-size="10.00">GalpyManager::~GalpyManager</text>
</a>
</g>
</g>
<!-- Node1&#45;&gt;Node7 -->
<g id="edge8" class="edge">
<title>Node1&#45;&gt;Node7</title>
<path fill="none" stroke="midnightblue" d="M723.9,-36.32C698.02,-30.93 667.69,-24.61 643.22,-19.52"/>
<polygon fill="midnightblue" stroke="midnightblue" points="723.44,-39.8 733.95,-38.41 724.87,-32.95 723.44,-39.8"/>
</g>
<!-- Node2&#45;&gt;Node1 -->
<g id="edge2" class="edge">
<title>Node2&#45;&gt;Node1</title>
<path fill="none" stroke="midnightblue" d="M696.33,-54.73C705,-54.68 713.58,-54.55 721.75,-54.34"/>
<polygon fill="midnightblue" stroke="midnightblue" points="696.12,-51.23 686.12,-54.75 696.13,-58.23 696.12,-51.23"/>
</g>
<!-- Node3 -->
<g id="node3" class="node">
<title>Node3</title>
<g id="a_node3"><a xlink:href="classGalpyManager.html#a7e35973fb12c11ca65ca0d0462c6c4dd" target="_top" xlink:title="generate potentail args">
<polygon fill="white" stroke="black" points="284,-38.5 284,-57.5 471,-57.5 471,-38.5 284,-38.5"/>
<text text-anchor="middle" x="377.5" y="-45.5" font-family="Helvetica,sans-Serif" font-size="10.00">GalpyManager::updatePotentialSet</text>
</a>
</g>
</g>
<!-- Node2&#45;&gt;Node3 -->
<g id="edge3" class="edge">
<title>Node2&#45;&gt;Node3</title>
<path fill="none" stroke="midnightblue" d="M496.87,-48C488.27,-48 479.58,-48 471.02,-48"/>
<polygon fill="midnightblue" stroke="midnightblue" points="496.92,-51.5 506.92,-48 496.92,-44.5 496.92,-51.5"/>
</g>
<!-- Node4 -->
<g id="node4" class="node">
<title>Node4</title>
<g id="a_node4"><a xlink:href="classGalpyManager.html#ac6ce59845e4b863a3fce47c18e09631a" target="_top" xlink:title="initialization function">
<polygon fill="white" stroke="black" points="101.5,-57.5 101.5,-76.5 223.5,-76.5 223.5,-57.5 101.5,-57.5"/>
<text text-anchor="middle" x="162.5" y="-64.5" font-family="Helvetica,sans-Serif" font-size="10.00">GalpyManager::initial</text>
</a>
</g>
</g>
<!-- Node3&#45;&gt;Node4 -->
<g id="edge4" class="edge">
<title>Node3&#45;&gt;Node4</title>
<path fill="none" stroke="midnightblue" d="M273.61,-57.18C256.44,-58.71 239.14,-60.25 223.5,-61.65"/>
<polygon fill="midnightblue" stroke="midnightblue" points="274.05,-60.65 283.69,-56.28 273.42,-53.68 274.05,-60.65"/>
</g>
<!-- Node6 -->
<g id="node6" class="node">
<title>Node6</title>
<g id="a_node6"><a xlink:href="classGalpyManager.html#a2b9c41229c1b4a6d5c06e18017298357" target="_top" xlink:title="Update Potential types and arguments based on time.">
<polygon fill="white" stroke="black" points="77,-19.5 77,-38.5 248,-38.5 248,-19.5 77,-19.5"/>
<text text-anchor="middle" x="162.5" y="-26.5" font-family="Helvetica,sans-Serif" font-size="10.00">GalpyManager::updatePotential</text>
</a>
</g>
</g>
<!-- Node3&#45;&gt;Node6 -->
<g id="edge6" class="edge">
<title>Node3&#45;&gt;Node6</title>
<path fill="none" stroke="midnightblue" d="M273.72,-38.83C265.2,-38.07 256.65,-37.31 248.29,-36.56"/>
<polygon fill="midnightblue" stroke="midnightblue" points="273.42,-42.32 283.69,-39.72 274.05,-35.35 273.42,-42.32"/>
</g>
<!-- Node5 -->
<g id="node5" class="node">
<title>Node5</title>
<g id="a_node5"><a xlink:href="galpy__test_8cxx.html#a3c04138a5bfe5d72780bb7e82a18e627" target="_top" xlink:title=" ">
<polygon fill="white" stroke="black" points="0,-38.5 0,-57.5 41,-57.5 41,-38.5 0,-38.5"/>
<text text-anchor="middle" x="20.5" y="-45.5" font-family="Helvetica,sans-Serif" font-size="10.00">main</text>
</a>
</g>
</g>
<!-- Node4&#45;&gt;Node5 -->
<g id="edge5" class="edge">
<title>Node4&#45;&gt;Node5</title>
<path fill="none" stroke="midnightblue" d="M91.37,-57.48C72.86,-54.97 54.37,-52.46 41.06,-50.65"/>
<polygon fill="midnightblue" stroke="midnightblue" points="90.94,-60.96 101.31,-58.83 91.88,-54.02 90.94,-60.96"/>
</g>
<!-- Node6&#45;&gt;Node5 -->
<g id="edge7" class="edge">
<title>Node6&#45;&gt;Node5</title>
<path fill="none" stroke="midnightblue" d="M80.79,-39.95C66,-41.96 51.88,-43.88 41.12,-45.34"/>
<polygon fill="midnightblue" stroke="midnightblue" points="81.65,-43.37 91.09,-38.56 80.71,-36.43 81.65,-43.37"/>
</g>
</g>
</svg>
