<?xml version="1.0" encoding="UTF-8" standalone="no"?>
<!DOCTYPE svg PUBLIC "-//W3C//DTD SVG 1.1//EN"
 "http://www.w3.org/Graphics/SVG/1.1/DTD/svg11.dtd">
<!-- Generated by graphviz version 2.43.0 (0)
 -->
<!-- Title: ChangeOver::calcAcc1W Pages: 1 -->
<svg width="555pt" height="88pt"
 viewBox="0.00 0.00 555.00 88.00" xmlns="http://www.w3.org/2000/svg" xmlns:xlink="http://www.w3.org/1999/xlink">
<g id="graph0" class="graph" transform="scale(1 1) rotate(0) translate(4 84)">
<title>ChangeOver::calcAcc1W</title>
<polygon fill="white" stroke="transparent" points="-4,4 -4,-84 551,-84 551,4 -4,4"/>
<!-- Node1 -->
<g id="node1" class="node">
<title>Node1</title>
<g id="a_node1"><a xlink:title="changeover function for force derivative">
<polygon fill="#bfbfbf" stroke="black" points="412,-30 412,-49 547,-49 547,-30 412,-30"/>
<text text-anchor="middle" x="479.5" y="-37" font-family="Helvetica,sans-Serif" font-size="10.00">ChangeOver::calcAcc1W</text>
</a>
</g>
</g>
<!-- Node2 -->
<g id="node2" class="node">
<title>Node2</title>
<g id="a_node2"><a xlink:href="classChangeOver.html#a03517a56f818e5be3d1bba56cb78edff" target="_top" xlink:title="calculate changeover function Acc1 by selecting maximum rout">
<polygon fill="white" stroke="black" points="222,-30 222,-49 376,-49 376,-30 222,-30"/>
<text text-anchor="middle" x="299" y="-37" font-family="Helvetica,sans-Serif" font-size="10.00">ChangeOver::calcAcc1WTwo</text>
</a>
</g>
</g>
<!-- Node1&#45;&gt;Node2 -->
<g id="edge1" class="edge">
<title>Node1&#45;&gt;Node2</title>
<path fill="none" stroke="midnightblue" d="M401.62,-39.5C393.21,-39.5 384.65,-39.5 376.25,-39.5"/>
<polygon fill="midnightblue" stroke="midnightblue" points="401.78,-43 411.78,-39.5 401.78,-36 401.78,-43"/>
</g>
<!-- Node3 -->
<g id="node3" class="node">
<title>Node3</title>
<g id="a_node3"><a xlink:href="classHermiteInteraction.html#ad0c5b9678c1cb91f89d90d1f4a94a568" target="_top" xlink:title="calculate acceleration and jerk of one pair single and resolved group">
<polygon fill="white" stroke="black" points="0,-49.5 0,-79.5 186,-79.5 186,-49.5 0,-49.5"/>
<text text-anchor="start" x="8" y="-67.5" font-family="Helvetica,sans-Serif" font-size="10.00">HermiteInteraction</text>
<text text-anchor="middle" x="93" y="-56.5" font-family="Helvetica,sans-Serif" font-size="10.00">::calcAccJerkPairGroupCMGroupCM</text>
</a>
</g>
</g>
<!-- Node2&#45;&gt;Node3 -->
<g id="edge2" class="edge">
<title>Node2&#45;&gt;Node3</title>
<path fill="none" stroke="midnightblue" d="M211.81,-50.06C203.28,-51.11 194.59,-52.17 186,-53.23"/>
<polygon fill="midnightblue" stroke="midnightblue" points="212.25,-53.54 221.75,-48.84 211.4,-46.59 212.25,-53.54"/>
</g>
<!-- Node4 -->
<g id="node4" class="node">
<title>Node4</title>
<g id="a_node4"><a xlink:href="classHermiteInteraction.html#a9d8f0c34f81481a7bc2cd61afb296a53" target="_top" xlink:title="calculate acceleration and jerk of one pair single and resolved group">
<polygon fill="white" stroke="black" points="7.5,-0.5 7.5,-30.5 178.5,-30.5 178.5,-0.5 7.5,-0.5"/>
<text text-anchor="start" x="15.5" y="-18.5" font-family="Helvetica,sans-Serif" font-size="10.00">HermiteInteraction</text>
<text text-anchor="middle" x="93" y="-7.5" font-family="Helvetica,sans-Serif" font-size="10.00">::calcAccJerkPairSingleGroupCM</text>
</a>
</g>
</g>
<!-- Node2&#45;&gt;Node4 -->
<g id="edge3" class="edge">
<title>Node2&#45;&gt;Node4</title>
<path fill="none" stroke="midnightblue" d="M211.78,-29.36C200.84,-28.07 189.64,-26.75 178.72,-25.47"/>
<polygon fill="midnightblue" stroke="midnightblue" points="211.41,-32.84 221.75,-30.53 212.23,-25.88 211.41,-32.84"/>
</g>
</g>
</svg>
