<?xml version="1.0" encoding="UTF-8" standalone="no"?>
<!DOCTYPE svg PUBLIC "-//W3C//DTD SVG 1.1//EN"
 "http://www.w3.org/Graphics/SVG/1.1/DTD/svg11.dtd">
<!-- Generated by graphviz version 2.43.0 (0)
 -->
<!-- Title: HardIntegrator::initial Pages: 1 -->
<svg width="514pt" height="100pt"
 viewBox="0.00 0.00 514.00 99.50" xmlns="http://www.w3.org/2000/svg" xmlns:xlink="http://www.w3.org/1999/xlink">
<g id="graph0" class="graph" transform="scale(1 1) rotate(0) translate(4 95.5)">
<title>HardIntegrator::initial</title>
<polygon fill="white" stroke="transparent" points="-4,4 -4,-95.5 510,-95.5 510,4 -4,4"/>
<!-- Node1 -->
<g id="node1" class="node">
<title>Node1</title>
<g id="a_node1"><a xlink:title="initial integration">
<polygon fill="#bfbfbf" stroke="black" points="0,-22.5 0,-41.5 122,-41.5 122,-22.5 0,-22.5"/>
<text text-anchor="middle" x="61" y="-29.5" font-family="Helvetica,sans-Serif" font-size="10.00">HardIntegrator::initial</text>
</a>
</g>
</g>
<!-- Node2 -->
<g id="node2" class="node">
<title>Node2</title>
<g id="a_node2"><a xlink:href="classArtificialParticleManager.html#aef4de2cdc22768a36abee8243f0db707" target="_top" xlink:title="get artificial particle total number">
<polygon fill="white" stroke="black" points="158,-39 158,-69 294,-69 294,-39 158,-39"/>
<text text-anchor="start" x="166" y="-57" font-family="Helvetica,sans-Serif" font-size="10.00">ArtificialParticleManager</text>
<text text-anchor="middle" x="226" y="-46" font-family="Helvetica,sans-Serif" font-size="10.00">::getArtificialParticleN</text>
</a>
</g>
</g>
<!-- Node1&#45;&gt;Node2 -->
<g id="edge1" class="edge">
<title>Node1&#45;&gt;Node2</title>
<path fill="none" stroke="midnightblue" d="M122.23,-40.13C130.58,-41.26 139.24,-42.42 147.84,-43.59"/>
<polygon fill="midnightblue" stroke="midnightblue" points="147.5,-47.07 157.88,-44.94 148.44,-40.13 147.5,-47.07"/>
</g>
<!-- Node5 -->
<g id="node5" class="node">
<title>Node5</title>
<g id="a_node5"><a xlink:href="namespacePIKG.html#aede68ae33404ee6199164897b8cbc9ad" target="_top" xlink:title=" ">
<polygon fill="white" stroke="black" points="192,-0.5 192,-19.5 260,-19.5 260,-0.5 192,-0.5"/>
<text text-anchor="middle" x="226" y="-7.5" font-family="Helvetica,sans-Serif" font-size="10.00">PIKG::max</text>
</a>
</g>
</g>
<!-- Node1&#45;&gt;Node5 -->
<g id="edge4" class="edge">
<title>Node1&#45;&gt;Node5</title>
<path fill="none" stroke="midnightblue" d="M122.23,-23.87C142.03,-21.2 163.64,-18.28 181.91,-15.82"/>
<polygon fill="midnightblue" stroke="midnightblue" points="182.51,-19.27 191.96,-14.46 181.58,-12.33 182.51,-19.27"/>
</g>
<!-- Node3 -->
<g id="node3" class="node">
<title>Node3</title>
<g id="a_node3"><a xlink:href="classPseudoParticleMultipoleManager.html#a5621892410d256215a8e07ef5bc5c2be" target="_top" xlink:title="get particle number">
<polygon fill="white" stroke="black" points="330,-61 330,-91 506,-91 506,-61 330,-61"/>
<text text-anchor="start" x="338" y="-79" font-family="Helvetica,sans-Serif" font-size="10.00">PseudoParticleMultipoleManager</text>
<text text-anchor="middle" x="418" y="-68" font-family="Helvetica,sans-Serif" font-size="10.00">::getParticleN</text>
</a>
</g>
</g>
<!-- Node2&#45;&gt;Node3 -->
<g id="edge2" class="edge">
<title>Node2&#45;&gt;Node3</title>
<path fill="none" stroke="midnightblue" d="M294.25,-61.79C302.54,-62.75 311.14,-63.74 319.76,-64.74"/>
<polygon fill="midnightblue" stroke="midnightblue" points="319.53,-68.24 329.87,-65.91 320.34,-61.28 319.53,-68.24"/>
</g>
<!-- Node4 -->
<g id="node4" class="node">
<title>Node4</title>
<g id="a_node4"><a xlink:href="classTidalTensor.html#a668eb0fe71a2fe1bdad53572a74d2224" target="_top" xlink:title="get particle number">
<polygon fill="white" stroke="black" points="349.5,-22.5 349.5,-41.5 486.5,-41.5 486.5,-22.5 349.5,-22.5"/>
<text text-anchor="middle" x="418" y="-29.5" font-family="Helvetica,sans-Serif" font-size="10.00">TidalTensor::getParticleN</text>
</a>
</g>
</g>
<!-- Node2&#45;&gt;Node4 -->
<g id="edge3" class="edge">
<title>Node2&#45;&gt;Node4</title>
<path fill="none" stroke="midnightblue" d="M294.25,-46.21C308.74,-44.54 324.17,-42.75 339.02,-41.03"/>
<polygon fill="midnightblue" stroke="midnightblue" points="339.66,-44.48 349.2,-39.85 338.86,-37.52 339.66,-44.48"/>
</g>
</g>
</svg>
