<?xml version="1.0" encoding="UTF-8" standalone="no"?>
<!DOCTYPE svg PUBLIC "-//W3C//DTD SVG 1.1//EN"
 "http://www.w3.org/Graphics/SVG/1.1/DTD/svg11.dtd">
<!-- Generated by graphviz version 2.43.0 (0)
 -->
<!-- Title: SysProfile Pages: 1 -->
<svg width="111pt" height="205pt"
 viewBox="0.00 0.00 110.50 205.00" xmlns="http://www.w3.org/2000/svg" xmlns:xlink="http://www.w3.org/1999/xlink">
<g id="graph0" class="graph" transform="scale(1 1) rotate(0) translate(4 201)">
<title>SysProfile</title>
<polygon fill="white" stroke="transparent" points="-4,4 -4,-201 106.5,-201 106.5,4 -4,4"/>
<!-- Node1 -->
<g id="node1" class="node">
<title>Node1</title>
<g id="a_node1"><a xlink:title=" ">
<polygon fill="#bfbfbf" stroke="black" points="0,-0.5 0,-19.5 65,-19.5 65,-0.5 0,-0.5"/>
<text text-anchor="middle" x="32.5" y="-7.5" font-family="Helvetica,sans-Serif" font-size="10.00">SysProfile</text>
</a>
</g>
</g>
<!-- Node2 -->
<g id="node2" class="node">
<title>Node2</title>
<g id="a_node2"><a xlink:href="structTprofile.html" target="_top" xlink:title=" ">
<polygon fill="white" stroke="black" points="6,-177.5 6,-196.5 59,-196.5 59,-177.5 6,-177.5"/>
<text text-anchor="middle" x="32.5" y="-184.5" font-family="Helvetica,sans-Serif" font-size="10.00">Tprofile</text>
</a>
</g>
</g>
<!-- Node2&#45;&gt;Node1 -->
<g id="edge1" class="edge">
<title>Node2&#45;&gt;Node1</title>
<path fill="none" stroke="#9a32cd" stroke-dasharray="5,2" d="M32.5,-166.95C32.5,-129.3 32.5,-46.65 32.5,-19.69"/>
<polygon fill="#9a32cd" stroke="#9a32cd" points="29,-167.08 32.5,-177.08 36,-167.08 29,-167.08"/>
<text text-anchor="middle" x="67.5" y="-151" font-family="Helvetica,sans-Serif" font-size="10.00"> exchange</text>
<text text-anchor="middle" x="67.5" y="-140" font-family="Helvetica,sans-Serif" font-size="10.00">force_correct</text>
<text text-anchor="middle" x="67.5" y="-129" font-family="Helvetica,sans-Serif" font-size="10.00">status</text>
<text text-anchor="middle" x="67.5" y="-118" font-family="Helvetica,sans-Serif" font-size="10.00">output</text>
<text text-anchor="middle" x="67.5" y="-107" font-family="Helvetica,sans-Serif" font-size="10.00">hard_single</text>
<text text-anchor="middle" x="67.5" y="-96" font-family="Helvetica,sans-Serif" font-size="10.00">domain</text>
<text text-anchor="middle" x="67.5" y="-85" font-family="Helvetica,sans-Serif" font-size="10.00">tree_soft</text>
<text text-anchor="middle" x="67.5" y="-74" font-family="Helvetica,sans-Serif" font-size="10.00">hard_interrupt</text>
<text text-anchor="middle" x="67.5" y="-63" font-family="Helvetica,sans-Serif" font-size="10.00">hard_isolated</text>
<text text-anchor="middle" x="67.5" y="-52" font-family="Helvetica,sans-Serif" font-size="10.00">kick</text>
<text text-anchor="middle" x="67.5" y="-41" font-family="Helvetica,sans-Serif" font-size="10.00">...</text>
</g>
</g>
</svg>
