<?xml version="1.0" encoding="UTF-8" standalone="no"?>
<!DOCTYPE svg PUBLIC "-//W3C//DTD SVG 1.1//EN"
 "http://www.w3.org/Graphics/SVG/1.1/DTD/svg11.dtd">
<!-- Generated by graphviz version 2.43.0 (0)
 -->
<!-- Title: EPJSoft Pages: 1 -->
<svg width="158pt" height="162pt"
 viewBox="0.00 0.00 158.00 162.00" xmlns="http://www.w3.org/2000/svg" xmlns:xlink="http://www.w3.org/1999/xlink">
<g id="graph0" class="graph" transform="scale(1 1) rotate(0) translate(4 158)">
<title>EPJSoft</title>
<polygon fill="white" stroke="transparent" points="-4,4 -4,-158 154,-158 154,4 -4,4"/>
<!-- Node1 -->
<g id="node1" class="node">
<title>Node1</title>
<g id="a_node1"><a xlink:title=" ">
<polygon fill="#bfbfbf" stroke="black" points="50,-0.5 50,-19.5 100,-19.5 100,-0.5 50,-0.5"/>
<text text-anchor="middle" x="75" y="-7.5" font-family="Helvetica,sans-Serif" font-size="10.00">EPJSoft</text>
</a>
</g>
</g>
<!-- Node2 -->
<g id="node2" class="node">
<title>Node2</title>
<g id="a_node2"><a xlink:href="unionGroupDataDeliver.html" target="_top" xlink:title="group data delivery, used for two purpose">
<polygon fill="white" stroke="black" points="23,-67.5 23,-86.5 127,-86.5 127,-67.5 23,-67.5"/>
<text text-anchor="middle" x="75" y="-74.5" font-family="Helvetica,sans-Serif" font-size="10.00">GroupDataDeliver</text>
</a>
</g>
</g>
<!-- Node2&#45;&gt;Node1 -->
<g id="edge1" class="edge">
<title>Node2&#45;&gt;Node1</title>
<path fill="none" stroke="#9a32cd" stroke-dasharray="5,2" d="M75,-57.04C75,-44.67 75,-29.12 75,-19.63"/>
<polygon fill="#9a32cd" stroke="#9a32cd" points="71.5,-57.23 75,-67.23 78.5,-57.23 71.5,-57.23"/>
<text text-anchor="middle" x="104" y="-41" font-family="Helvetica,sans-Serif" font-size="10.00"> group_data</text>
</g>
<!-- Node3 -->
<g id="node3" class="node">
<title>Node3</title>
<g id="a_node3"><a xlink:href="classArtificialParticleInformation.html" target="_top" xlink:title="class to store necessary information for using artificial particles">
<polygon fill="white" stroke="black" points="0,-134.5 0,-153.5 150,-153.5 150,-134.5 0,-134.5"/>
<text text-anchor="middle" x="75" y="-141.5" font-family="Helvetica,sans-Serif" font-size="10.00">ArtificialParticleInformation</text>
</a>
</g>
</g>
<!-- Node3&#45;&gt;Node2 -->
<g id="edge2" class="edge">
<title>Node3&#45;&gt;Node2</title>
<path fill="none" stroke="#9a32cd" stroke-dasharray="5,2" d="M75,-124.04C75,-111.67 75,-96.12 75,-86.63"/>
<polygon fill="#9a32cd" stroke="#9a32cd" points="71.5,-124.23 75,-134.23 78.5,-124.23 71.5,-124.23"/>
<text text-anchor="middle" x="96.5" y="-108" font-family="Helvetica,sans-Serif" font-size="10.00"> artificial</text>
</g>
</g>
</svg>
