<?xml version="1.0" encoding="UTF-8" standalone="no"?>
<!DOCTYPE svg PUBLIC "-//W3C//DTD SVG 1.1//EN"
 "http://www.w3.org/Graphics/SVG/1.1/DTD/svg11.dtd">
<!-- Generated by graphviz version 2.43.0 (0)
 -->
<!-- Title: FPSoft::printTitleWithMeaning Pages: 1 -->
<svg width="714pt" height="137pt"
 viewBox="0.00 0.00 714.00 137.00" xmlns="http://www.w3.org/2000/svg" xmlns:xlink="http://www.w3.org/1999/xlink">
<g id="graph0" class="graph" transform="scale(1 1) rotate(0) translate(4 133)">
<title>FPSoft::printTitleWithMeaning</title>
<polygon fill="white" stroke="transparent" points="-4,4 -4,-133 710,-133 710,4 -4,4"/>
<!-- Node1 -->
<g id="node1" class="node">
<title>Node1</title>
<g id="a_node1"><a xlink:title="print column title with meaning (each line for one column)">
<polygon fill="#bfbfbf" stroke="black" points="0,-55 0,-74 162,-74 162,-55 0,-55"/>
<text text-anchor="middle" x="81" y="-62" font-family="Helvetica,sans-Serif" font-size="10.00">FPSoft::printTitleWithMeaning</text>
</a>
</g>
</g>
<!-- Node2 -->
<g id="node2" class="node">
<title>Node2</title>
<g id="a_node2"><a xlink:href="classPtcl.html#acd6efea3772cb295b1064d53695eb276" target="_top" xlink:title="print column title with meaning (each line for one column)">
<polygon fill="white" stroke="black" points="198,-55 198,-74 347,-74 347,-55 198,-55"/>
<text text-anchor="middle" x="272.5" y="-62" font-family="Helvetica,sans-Serif" font-size="10.00">Ptcl::printTitleWithMeaning</text>
</a>
</g>
</g>
<!-- Node1&#45;&gt;Node2 -->
<g id="edge1" class="edge">
<title>Node1&#45;&gt;Node2</title>
<path fill="none" stroke="midnightblue" d="M162.09,-64.5C170.49,-64.5 179.05,-64.5 187.5,-64.5"/>
<polygon fill="midnightblue" stroke="midnightblue" points="187.72,-68 197.72,-64.5 187.72,-61 187.72,-68"/>
</g>
<!-- Node3 -->
<g id="node3" class="node">
<title>Node3</title>
<g id="a_node3"><a xlink:href="classChangeOver.html#afc18f1457828a89cc303cbf025fffe42" target="_top" xlink:title="print column title with meaning (each line for one column)">
<polygon fill="white" stroke="black" points="383.5,-98.5 383.5,-128.5 532.5,-128.5 532.5,-98.5 383.5,-98.5"/>
<text text-anchor="start" x="391.5" y="-116.5" font-family="Helvetica,sans-Serif" font-size="10.00">ChangeOver::printTitleWith</text>
<text text-anchor="middle" x="458" y="-105.5" font-family="Helvetica,sans-Serif" font-size="10.00">Meaning</text>
</a>
</g>
</g>
<!-- Node2&#45;&gt;Node3 -->
<g id="edge2" class="edge">
<title>Node2&#45;&gt;Node3</title>
<path fill="none" stroke="midnightblue" d="M309.32,-74.06C332.45,-80.24 363.25,-88.46 390.73,-95.8"/>
<polygon fill="midnightblue" stroke="midnightblue" points="390.12,-99.26 400.69,-98.46 391.93,-92.5 390.12,-99.26"/>
</g>
<!-- Node4 -->
<g id="node4" class="node">
<title>Node4</title>
<g id="a_node4"><a xlink:href="classArtificialParticleInformation.html#a5c43b0ff92a0c281930551c2adcf8ac6" target="_top" xlink:title="print column title with meaning (each line for one column)">
<polygon fill="white" stroke="black" points="383,-49.5 383,-79.5 533,-79.5 533,-49.5 383,-49.5"/>
<text text-anchor="start" x="391" y="-67.5" font-family="Helvetica,sans-Serif" font-size="10.00">ArtificialParticleInformation</text>
<text text-anchor="middle" x="458" y="-56.5" font-family="Helvetica,sans-Serif" font-size="10.00">::printTitleWithMeaning</text>
</a>
</g>
</g>
<!-- Node2&#45;&gt;Node4 -->
<g id="edge3" class="edge">
<title>Node2&#45;&gt;Node4</title>
<path fill="none" stroke="midnightblue" d="M347.08,-64.5C355.54,-64.5 364.21,-64.5 372.79,-64.5"/>
<polygon fill="midnightblue" stroke="midnightblue" points="372.81,-68 382.81,-64.5 372.81,-61 372.81,-68"/>
</g>
<!-- Node5 -->
<g id="node5" class="node">
<title>Node5</title>
<g id="a_node5"><a xlink:href="classParticleBase.html#acbad2a98ca348d62adb2b2f972ad7d5a" target="_top" xlink:title="print column title with meaning (each line for one column)">
<polygon fill="white" stroke="black" points="394.5,-0.5 394.5,-30.5 521.5,-30.5 521.5,-0.5 394.5,-0.5"/>
<text text-anchor="start" x="402.5" y="-18.5" font-family="Helvetica,sans-Serif" font-size="10.00">ParticleBase::printTitle</text>
<text text-anchor="middle" x="458" y="-7.5" font-family="Helvetica,sans-Serif" font-size="10.00">WithMeaning</text>
</a>
</g>
</g>
<!-- Node2&#45;&gt;Node5 -->
<g id="edge4" class="edge">
<title>Node2&#45;&gt;Node5</title>
<path fill="none" stroke="midnightblue" d="M309.32,-54.94C332.45,-48.76 363.25,-40.54 390.73,-33.2"/>
<polygon fill="midnightblue" stroke="midnightblue" points="391.93,-36.5 400.69,-30.54 390.12,-29.74 391.93,-36.5"/>
</g>
<!-- Node6 -->
<g id="node6" class="node">
<title>Node6</title>
<g id="a_node6"><a xlink:href="structStarParameter.html#acf720b7ca30d8db6a94ecbf7d548ae1c" target="_top" xlink:title="print column title with meaning (each line for one column)">
<polygon fill="white" stroke="black" points="569,-0.5 569,-30.5 706,-30.5 706,-0.5 569,-0.5"/>
<text text-anchor="start" x="577" y="-18.5" font-family="Helvetica,sans-Serif" font-size="10.00">StarParameter::printTitle</text>
<text text-anchor="middle" x="637.5" y="-7.5" font-family="Helvetica,sans-Serif" font-size="10.00">WithMeaning</text>
</a>
</g>
</g>
<!-- Node5&#45;&gt;Node6 -->
<g id="edge5" class="edge">
<title>Node5&#45;&gt;Node6</title>
<path fill="none" stroke="midnightblue" d="M521.58,-15.5C533.51,-15.5 546.13,-15.5 558.48,-15.5"/>
<polygon fill="midnightblue" stroke="midnightblue" points="558.76,-19 568.76,-15.5 558.76,-12 558.76,-19"/>
</g>
</g>
</svg>
