<?xml version="1.0" encoding="UTF-8" standalone="no"?>
<!DOCTYPE svg PUBLIC "-//W3C//DTD SVG 1.1//EN"
 "http://www.w3.org/Graphics/SVG/1.1/DTD/svg11.dtd">
<!-- Generated by graphviz version 2.43.0 (0)
 -->
<!-- Title: Ptcl::printColumnTitle Pages: 1 -->
<svg width="518pt" height="127pt"
 viewBox="0.00 0.00 518.00 126.50" xmlns="http://www.w3.org/2000/svg" xmlns:xlink="http://www.w3.org/1999/xlink">
<g id="graph0" class="graph" transform="scale(1 1) rotate(0) translate(4 122.5)">
<title>Ptcl::printColumnTitle</title>
<polygon fill="white" stroke="transparent" points="-4,4 -4,-122.5 514,-122.5 514,4 -4,4"/>
<!-- Node1 -->
<g id="node1" class="node">
<title>Node1</title>
<g id="a_node1"><a xlink:title="print titles of class members using column style">
<polygon fill="#bfbfbf" stroke="black" points="0,-55 0,-74 122,-74 122,-55 0,-55"/>
<text text-anchor="middle" x="61" y="-62" font-family="Helvetica,sans-Serif" font-size="10.00">Ptcl::printColumnTitle</text>
</a>
</g>
</g>
<!-- Node2 -->
<g id="node2" class="node">
<title>Node2</title>
<g id="a_node2"><a xlink:href="classChangeOver.html#a99477187923811c0fdb3800199cbad48" target="_top" xlink:title="print titles of class members using column style">
<polygon fill="white" stroke="black" points="158,-99 158,-118 322,-118 322,-99 158,-99"/>
<text text-anchor="middle" x="240" y="-106" font-family="Helvetica,sans-Serif" font-size="10.00">ChangeOver::printColumnTitle</text>
</a>
</g>
</g>
<!-- Node1&#45;&gt;Node2 -->
<g id="edge1" class="edge">
<title>Node1&#45;&gt;Node2</title>
<path fill="none" stroke="midnightblue" d="M97.96,-74.09C115.96,-78.83 138.11,-84.58 158,-89.5 167.47,-91.84 177.58,-94.27 187.34,-96.58"/>
<polygon fill="midnightblue" stroke="midnightblue" points="186.79,-100.05 197.33,-98.93 188.4,-93.23 186.79,-100.05"/>
</g>
<!-- Node3 -->
<g id="node3" class="node">
<title>Node3</title>
<g id="a_node3"><a xlink:href="classArtificialParticleInformation.html#ab80264bffa5c899f8a67a24a35a06b85" target="_top" xlink:title="print titles of class members using column style">
<polygon fill="white" stroke="black" points="165,-49.5 165,-79.5 315,-79.5 315,-49.5 165,-49.5"/>
<text text-anchor="start" x="173" y="-67.5" font-family="Helvetica,sans-Serif" font-size="10.00">ArtificialParticleInformation</text>
<text text-anchor="middle" x="240" y="-56.5" font-family="Helvetica,sans-Serif" font-size="10.00">::printColumnTitle</text>
</a>
</g>
</g>
<!-- Node1&#45;&gt;Node3 -->
<g id="edge2" class="edge">
<title>Node1&#45;&gt;Node3</title>
<path fill="none" stroke="midnightblue" d="M122.42,-64.5C132.74,-64.5 143.63,-64.5 154.44,-64.5"/>
<polygon fill="midnightblue" stroke="midnightblue" points="154.76,-68 164.76,-64.5 154.76,-61 154.76,-68"/>
</g>
<!-- Node4 -->
<g id="node4" class="node">
<title>Node4</title>
<g id="a_node4"><a xlink:href="classParticleBase.html#a9797dd76731d696cd5ed651aae200828" target="_top" xlink:title="print titles of class members using column style">
<polygon fill="white" stroke="black" points="168.5,-0.5 168.5,-30.5 311.5,-30.5 311.5,-0.5 168.5,-0.5"/>
<text text-anchor="start" x="176.5" y="-18.5" font-family="Helvetica,sans-Serif" font-size="10.00">ParticleBase::printColumn</text>
<text text-anchor="middle" x="240" y="-7.5" font-family="Helvetica,sans-Serif" font-size="10.00">Title</text>
</a>
</g>
</g>
<!-- Node1&#45;&gt;Node4 -->
<g id="edge3" class="edge">
<title>Node1&#45;&gt;Node4</title>
<path fill="none" stroke="midnightblue" d="M96.55,-54.94C118.76,-48.79 148.31,-40.61 174.73,-33.29"/>
<polygon fill="midnightblue" stroke="midnightblue" points="175.98,-36.58 184.68,-30.54 174.11,-29.83 175.98,-36.58"/>
</g>
<!-- Node5 -->
<g id="node5" class="node">
<title>Node5</title>
<g id="a_node5"><a xlink:href="structStarParameter.html#aea025c8bebdf452c1dbccb99a18c770b" target="_top" xlink:title="print titles of class members using column style">
<polygon fill="white" stroke="black" points="358,-0.5 358,-30.5 510,-30.5 510,-0.5 358,-0.5"/>
<text text-anchor="start" x="366" y="-18.5" font-family="Helvetica,sans-Serif" font-size="10.00">StarParameter::printColumn</text>
<text text-anchor="middle" x="434" y="-7.5" font-family="Helvetica,sans-Serif" font-size="10.00">Title</text>
</a>
</g>
</g>
<!-- Node4&#45;&gt;Node5 -->
<g id="edge4" class="edge">
<title>Node4&#45;&gt;Node5</title>
<path fill="none" stroke="midnightblue" d="M311.68,-15.5C323.45,-15.5 335.78,-15.5 347.87,-15.5"/>
<polygon fill="midnightblue" stroke="midnightblue" points="347.96,-19 357.96,-15.5 347.96,-12 347.96,-19"/>
</g>
</g>
</svg>
