<?xml version="1.0" encoding="UTF-8" standalone="no"?>
<!DOCTYPE svg PUBLIC "-//W3C//DTD SVG 1.1//EN"
 "http://www.w3.org/Graphics/SVG/1.1/DTD/svg11.dtd">
<!-- Generated by graphviz version 2.43.0 (0)
 -->
<!-- Title: ArtificialParticleManager::getIndexOffsetTT Pages: 1 -->
<svg width="699pt" height="39pt"
 viewBox="0.00 0.00 699.00 39.00" xmlns="http://www.w3.org/2000/svg" xmlns:xlink="http://www.w3.org/1999/xlink">
<g id="graph0" class="graph" transform="scale(1 1) rotate(0) translate(4 35)">
<title>ArtificialParticleManager::getIndexOffsetTT</title>
<polygon fill="white" stroke="transparent" points="-4,4 -4,-35 695,-35 695,4 -4,4"/>
<!-- Node1 -->
<g id="node1" class="node">
<title>Node1</title>
<g id="a_node1"><a xlink:title="tidal tensor particle index offset">
<polygon fill="#bfbfbf" stroke="black" points="555,-0.5 555,-30.5 691,-30.5 691,-0.5 555,-0.5"/>
<text text-anchor="start" x="563" y="-18.5" font-family="Helvetica,sans-Serif" font-size="10.00">ArtificialParticleManager</text>
<text text-anchor="middle" x="623" y="-7.5" font-family="Helvetica,sans-Serif" font-size="10.00">::getIndexOffsetTT</text>
</a>
</g>
</g>
<!-- Node2 -->
<g id="node2" class="node">
<title>Node2</title>
<g id="a_node2"><a xlink:href="classArtificialParticleManager.html#aa3f970cf4384ccd3c55e04993bd3d695" target="_top" xlink:title="get tidal tensor particle list address from a artificial particle array">
<polygon fill="white" stroke="black" points="383,-0.5 383,-30.5 519,-30.5 519,-0.5 383,-0.5"/>
<text text-anchor="start" x="391" y="-18.5" font-family="Helvetica,sans-Serif" font-size="10.00">ArtificialParticleManager</text>
<text text-anchor="middle" x="451" y="-7.5" font-family="Helvetica,sans-Serif" font-size="10.00">::getTidalTensorParticles</text>
</a>
</g>
</g>
<!-- Node1&#45;&gt;Node2 -->
<g id="edge1" class="edge">
<title>Node1&#45;&gt;Node2</title>
<path fill="none" stroke="midnightblue" d="M544.58,-15.5C536.12,-15.5 527.57,-15.5 519.26,-15.5"/>
<polygon fill="midnightblue" stroke="midnightblue" points="544.81,-19 554.81,-15.5 544.81,-12 544.81,-19"/>
</g>
<!-- Node3 -->
<g id="node3" class="node">
<title>Node3</title>
<g id="a_node3"><a xlink:href="classArtificialParticleManager.html#abce1a403342631a9f4042213a71b9867" target="_top" xlink:title="correct artificial particles force for furture use">
<polygon fill="white" stroke="black" points="191,-0.5 191,-30.5 347,-30.5 347,-0.5 191,-0.5"/>
<text text-anchor="start" x="199" y="-18.5" font-family="Helvetica,sans-Serif" font-size="10.00">ArtificialParticleManager</text>
<text text-anchor="middle" x="269" y="-7.5" font-family="Helvetica,sans-Serif" font-size="10.00">::correctArtficialParticleForce</text>
</a>
</g>
</g>
<!-- Node2&#45;&gt;Node3 -->
<g id="edge2" class="edge">
<title>Node2&#45;&gt;Node3</title>
<path fill="none" stroke="midnightblue" d="M372.72,-15.5C364.22,-15.5 355.58,-15.5 347.09,-15.5"/>
<polygon fill="midnightblue" stroke="midnightblue" points="372.97,-19 382.97,-15.5 372.97,-12 372.97,-19"/>
</g>
<!-- Node4 -->
<g id="node4" class="node">
<title>Node4</title>
<g id="a_node4"><a xlink:href="classSystemHard.html#aaae0c65a7caa9679827b980b9e9f3c89" target="_top" xlink:title="Soft force correction due to different cut&#45;off function.">
<polygon fill="white" stroke="black" points="0,-0.5 0,-30.5 155,-30.5 155,-0.5 0,-0.5"/>
<text text-anchor="start" x="8" y="-18.5" font-family="Helvetica,sans-Serif" font-size="10.00">SystemHard::correctForce</text>
<text text-anchor="middle" x="77.5" y="-7.5" font-family="Helvetica,sans-Serif" font-size="10.00">WithCutoffTreeNeighborOMP</text>
</a>
</g>
</g>
<!-- Node3&#45;&gt;Node4 -->
<g id="edge3" class="edge">
<title>Node3&#45;&gt;Node4</title>
<path fill="none" stroke="midnightblue" d="M180.91,-15.5C172.33,-15.5 163.67,-15.5 155.2,-15.5"/>
<polygon fill="midnightblue" stroke="midnightblue" points="180.92,-19 190.92,-15.5 180.92,-12 180.92,-19"/>
</g>
</g>
</svg>
