<?xml version="1.0" encoding="UTF-8" standalone="no"?>
<!DOCTYPE svg PUBLIC "-//W3C//DTD SVG 1.1//EN"
 "http://www.w3.org/Graphics/SVG/1.1/DTD/svg11.dtd">
<!-- Generated by graphviz version 2.43.0 (0)
 -->
<!-- Title: FPSoft::printColumnWithOffset Pages: 1 -->
<svg width="735pt" height="127pt"
 viewBox="0.00 0.00 735.00 126.50" xmlns="http://www.w3.org/2000/svg" xmlns:xlink="http://www.w3.org/1999/xlink">
<g id="graph0" class="graph" transform="scale(1 1) rotate(0) translate(4 122.5)">
<title>FPSoft::printColumnWithOffset</title>
<polygon fill="white" stroke="transparent" points="-4,4 -4,-122.5 731,-122.5 731,4 -4,4"/>
<!-- Node1 -->
<g id="node1" class="node">
<title>Node1</title>
<g id="a_node1"><a xlink:title="print data of class members with pos and vel offset using column style">
<polygon fill="#bfbfbf" stroke="black" points="0,-55 0,-74 165,-74 165,-55 0,-55"/>
<text text-anchor="middle" x="82.5" y="-62" font-family="Helvetica,sans-Serif" font-size="10.00">FPSoft::printColumnWithOffset</text>
</a>
</g>
</g>
<!-- Node2 -->
<g id="node2" class="node">
<title>Node2</title>
<g id="a_node2"><a xlink:href="classPtcl.html#ac152a9401ef2c14532f37f909f15264d" target="_top" xlink:title="print data of class members with pos and vel offset using column style">
<polygon fill="white" stroke="black" points="201,-55 201,-74 353,-74 353,-55 201,-55"/>
<text text-anchor="middle" x="277" y="-62" font-family="Helvetica,sans-Serif" font-size="10.00">Ptcl::printColumnWithOffset</text>
</a>
</g>
</g>
<!-- Node1&#45;&gt;Node2 -->
<g id="edge1" class="edge">
<title>Node1&#45;&gt;Node2</title>
<path fill="none" stroke="midnightblue" d="M165.14,-64.5C173.68,-64.5 182.38,-64.5 190.96,-64.5"/>
<polygon fill="midnightblue" stroke="midnightblue" points="190.96,-68 200.96,-64.5 190.96,-61 190.96,-68"/>
</g>
<!-- Node3 -->
<g id="node3" class="node">
<title>Node3</title>
<g id="a_node3"><a xlink:href="classChangeOver.html#a311e67bfac2687a70e3aba5c4d68a65a" target="_top" xlink:title="print data of class members using column style">
<polygon fill="white" stroke="black" points="392.5,-99 392.5,-118 535.5,-118 535.5,-99 392.5,-99"/>
<text text-anchor="middle" x="464" y="-106" font-family="Helvetica,sans-Serif" font-size="10.00">ChangeOver::printColumn</text>
</a>
</g>
</g>
<!-- Node2&#45;&gt;Node3 -->
<g id="edge2" class="edge">
<title>Node2&#45;&gt;Node3</title>
<path fill="none" stroke="midnightblue" d="M318.14,-74.05C346.02,-80.68 383.36,-89.56 413.15,-96.64"/>
<polygon fill="midnightblue" stroke="midnightblue" points="412.4,-100.06 422.94,-98.97 414.02,-93.25 412.4,-100.06"/>
</g>
<!-- Node4 -->
<g id="node4" class="node">
<title>Node4</title>
<g id="a_node4"><a xlink:href="classArtificialParticleInformation.html#aae6803a0a64539a263e8d6c8499c6969" target="_top" xlink:title="print data of class members using column style">
<polygon fill="white" stroke="black" points="389,-49.5 389,-79.5 539,-79.5 539,-49.5 389,-49.5"/>
<text text-anchor="start" x="397" y="-67.5" font-family="Helvetica,sans-Serif" font-size="10.00">ArtificialParticleInformation</text>
<text text-anchor="middle" x="464" y="-56.5" font-family="Helvetica,sans-Serif" font-size="10.00">::printColumn</text>
</a>
</g>
</g>
<!-- Node2&#45;&gt;Node4 -->
<g id="edge3" class="edge">
<title>Node2&#45;&gt;Node4</title>
<path fill="none" stroke="midnightblue" d="M353.25,-64.5C361.57,-64.5 370.08,-64.5 378.51,-64.5"/>
<polygon fill="midnightblue" stroke="midnightblue" points="378.72,-68 388.72,-64.5 378.72,-61 378.72,-68"/>
</g>
<!-- Node5 -->
<g id="node5" class="node">
<title>Node5</title>
<g id="a_node5"><a xlink:href="classParticleBase.html#accf33b8bed2326ee349439a7ae3e0768" target="_top" xlink:title="print data of class members with pos and vel offset using column style">
<polygon fill="white" stroke="black" points="392.5,-0.5 392.5,-30.5 535.5,-30.5 535.5,-0.5 392.5,-0.5"/>
<text text-anchor="start" x="400.5" y="-18.5" font-family="Helvetica,sans-Serif" font-size="10.00">ParticleBase::printColumn</text>
<text text-anchor="middle" x="464" y="-7.5" font-family="Helvetica,sans-Serif" font-size="10.00">WithOffset</text>
</a>
</g>
</g>
<!-- Node2&#45;&gt;Node5 -->
<g id="edge4" class="edge">
<title>Node2&#45;&gt;Node5</title>
<path fill="none" stroke="midnightblue" d="M314.11,-54.94C337.53,-48.73 368.75,-40.46 396.55,-33.1"/>
<polygon fill="midnightblue" stroke="midnightblue" points="397.46,-36.48 406.23,-30.54 395.66,-29.71 397.46,-36.48"/>
</g>
<!-- Node6 -->
<g id="node6" class="node">
<title>Node6</title>
<g id="a_node6"><a xlink:href="structStarParameter.html#a139a2ca192579fe938f35764d2e633ac" target="_top" xlink:title="print data of class members using column style">
<polygon fill="white" stroke="black" points="575,-6 575,-25 727,-25 727,-6 575,-6"/>
<text text-anchor="middle" x="651" y="-13" font-family="Helvetica,sans-Serif" font-size="10.00">StarParameter::printColumn</text>
</a>
</g>
</g>
<!-- Node5&#45;&gt;Node6 -->
<g id="edge5" class="edge">
<title>Node5&#45;&gt;Node6</title>
<path fill="none" stroke="midnightblue" d="M535.73,-15.5C545.2,-15.5 554.98,-15.5 564.66,-15.5"/>
<polygon fill="midnightblue" stroke="midnightblue" points="564.69,-19 574.69,-15.5 564.69,-12 564.69,-19"/>
</g>
</g>
</svg>
