<?xml version="1.0" encoding="UTF-8" standalone="no"?>
<!DOCTYPE svg PUBLIC "-//W3C//DTD SVG 1.1//EN"
 "http://www.w3.org/Graphics/SVG/1.1/DTD/svg11.dtd">
<!-- Generated by graphviz version 2.43.0 (0)
 -->
<!-- Title: Ptcl::printColumn Pages: 1 -->
<svg width="483pt" height="116pt"
 viewBox="0.00 0.00 483.00 116.00" xmlns="http://www.w3.org/2000/svg" xmlns:xlink="http://www.w3.org/1999/xlink">
<g id="graph0" class="graph" transform="scale(1 1) rotate(0) translate(4 112)">
<title>Ptcl::printColumn</title>
<polygon fill="white" stroke="transparent" points="-4,4 -4,-112 479,-112 479,4 -4,4"/>
<!-- Node1 -->
<g id="node1" class="node">
<title>Node1</title>
<g id="a_node1"><a xlink:title="print data of class members using column style">
<polygon fill="#bfbfbf" stroke="black" points="0,-44.5 0,-63.5 101,-63.5 101,-44.5 0,-44.5"/>
<text text-anchor="middle" x="50.5" y="-51.5" font-family="Helvetica,sans-Serif" font-size="10.00">Ptcl::printColumn</text>
</a>
</g>
</g>
<!-- Node2 -->
<g id="node2" class="node">
<title>Node2</title>
<g id="a_node2"><a xlink:href="classChangeOver.html#a311e67bfac2687a70e3aba5c4d68a65a" target="_top" xlink:title="print data of class members using column style">
<polygon fill="white" stroke="black" points="140.5,-88.5 140.5,-107.5 283.5,-107.5 283.5,-88.5 140.5,-88.5"/>
<text text-anchor="middle" x="212" y="-95.5" font-family="Helvetica,sans-Serif" font-size="10.00">ChangeOver::printColumn</text>
</a>
</g>
</g>
<!-- Node1&#45;&gt;Node2 -->
<g id="edge1" class="edge">
<title>Node1&#45;&gt;Node2</title>
<path fill="none" stroke="midnightblue" d="M83.1,-63.51C99.2,-68.29 119.1,-74.09 137,-79 145.46,-81.32 154.48,-83.71 163.22,-85.98"/>
<polygon fill="midnightblue" stroke="midnightblue" points="162.35,-89.37 172.91,-88.48 164.1,-82.59 162.35,-89.37"/>
</g>
<!-- Node3 -->
<g id="node3" class="node">
<title>Node3</title>
<g id="a_node3"><a xlink:href="classArtificialParticleInformation.html#aae6803a0a64539a263e8d6c8499c6969" target="_top" xlink:title="print data of class members using column style">
<polygon fill="white" stroke="black" points="137,-39 137,-69 287,-69 287,-39 137,-39"/>
<text text-anchor="start" x="145" y="-57" font-family="Helvetica,sans-Serif" font-size="10.00">ArtificialParticleInformation</text>
<text text-anchor="middle" x="212" y="-46" font-family="Helvetica,sans-Serif" font-size="10.00">::printColumn</text>
</a>
</g>
</g>
<!-- Node1&#45;&gt;Node3 -->
<g id="edge2" class="edge">
<title>Node1&#45;&gt;Node3</title>
<path fill="none" stroke="midnightblue" d="M101.09,-54C109.24,-54 117.89,-54 126.6,-54"/>
<polygon fill="midnightblue" stroke="midnightblue" points="126.85,-57.5 136.85,-54 126.85,-50.5 126.85,-57.5"/>
</g>
<!-- Node4 -->
<g id="node4" class="node">
<title>Node4</title>
<g id="a_node4"><a xlink:href="classParticleBase.html#a2ee6dff13f084250e566036a37ac4bd4" target="_top" xlink:title="print data of class members using column style">
<polygon fill="white" stroke="black" points="140.5,-0.5 140.5,-19.5 283.5,-19.5 283.5,-0.5 140.5,-0.5"/>
<text text-anchor="middle" x="212" y="-7.5" font-family="Helvetica,sans-Serif" font-size="10.00">ParticleBase::printColumn</text>
</a>
</g>
</g>
<!-- Node1&#45;&gt;Node4 -->
<g id="edge3" class="edge">
<title>Node1&#45;&gt;Node4</title>
<path fill="none" stroke="midnightblue" d="M85.18,-44.46C100.92,-40.03 119.91,-34.71 137,-30 146.14,-27.48 155.92,-24.82 165.28,-22.28"/>
<polygon fill="midnightblue" stroke="midnightblue" points="166.48,-25.58 175.22,-19.59 164.66,-18.83 166.48,-25.58"/>
</g>
<!-- Node5 -->
<g id="node5" class="node">
<title>Node5</title>
<g id="a_node5"><a xlink:href="structStarParameter.html#a139a2ca192579fe938f35764d2e633ac" target="_top" xlink:title="print data of class members using column style">
<polygon fill="white" stroke="black" points="323,-0.5 323,-19.5 475,-19.5 475,-0.5 323,-0.5"/>
<text text-anchor="middle" x="399" y="-7.5" font-family="Helvetica,sans-Serif" font-size="10.00">StarParameter::printColumn</text>
</a>
</g>
</g>
<!-- Node4&#45;&gt;Node5 -->
<g id="edge4" class="edge">
<title>Node4&#45;&gt;Node5</title>
<path fill="none" stroke="midnightblue" d="M283.73,-10C293.2,-10 302.98,-10 312.66,-10"/>
<polygon fill="midnightblue" stroke="midnightblue" points="312.69,-13.5 322.69,-10 312.69,-6.5 312.69,-13.5"/>
</g>
</g>
</svg>
