<?xml version="1.0" encoding="UTF-8" standalone="no"?>
<!DOCTYPE svg PUBLIC "-//W3C//DTD SVG 1.1//EN"
 "http://www.w3.org/Graphics/SVG/1.1/DTD/svg11.dtd">
<!-- Generated by graphviz version 2.43.0 (0)
 -->
<!-- Title: ArtificialParticleManager::print Pages: 1 -->
<svg width="368pt" height="39pt"
 viewBox="0.00 0.00 368.00 39.00" xmlns="http://www.w3.org/2000/svg" xmlns:xlink="http://www.w3.org/1999/xlink">
<g id="graph0" class="graph" transform="scale(1 1) rotate(0) translate(4 35)">
<title>ArtificialParticleManager::print</title>
<polygon fill="white" stroke="transparent" points="-4,4 -4,-35 364,-35 364,4 -4,4"/>
<!-- Node1 -->
<g id="node1" class="node">
<title>Node1</title>
<g id="a_node1"><a xlink:title="print parameters">
<polygon fill="#bfbfbf" stroke="black" points="224,-0.5 224,-30.5 360,-30.5 360,-0.5 224,-0.5"/>
<text text-anchor="start" x="232" y="-18.5" font-family="Helvetica,sans-Serif" font-size="10.00">ArtificialParticleManager</text>
<text text-anchor="middle" x="292" y="-7.5" font-family="Helvetica,sans-Serif" font-size="10.00">::print</text>
</a>
</g>
</g>
<!-- Node2 -->
<g id="node2" class="node">
<title>Node2</title>
<g id="a_node2"><a xlink:href="classHardManager.html#a1e0a4e8578cd0abf2f28f68c9702f347" target="_top" xlink:title="print parameters">
<polygon fill="white" stroke="black" points="77,-6 77,-25 188,-25 188,-6 77,-6"/>
<text text-anchor="middle" x="132.5" y="-13" font-family="Helvetica,sans-Serif" font-size="10.00">HardManager::print</text>
</a>
</g>
</g>
<!-- Node1&#45;&gt;Node2 -->
<g id="edge1" class="edge">
<title>Node1&#45;&gt;Node2</title>
<path fill="none" stroke="midnightblue" d="M213.67,-15.5C205.06,-15.5 196.42,-15.5 188.17,-15.5"/>
<polygon fill="midnightblue" stroke="midnightblue" points="213.75,-19 223.75,-15.5 213.75,-12 213.75,-19"/>
</g>
<!-- Node3 -->
<g id="node3" class="node">
<title>Node3</title>
<g id="a_node3"><a xlink:href="hard__debug_8cxx.html#a3c04138a5bfe5d72780bb7e82a18e627" target="_top" xlink:title=" ">
<polygon fill="white" stroke="black" points="0,-6 0,-25 41,-25 41,-6 0,-6"/>
<text text-anchor="middle" x="20.5" y="-13" font-family="Helvetica,sans-Serif" font-size="10.00">main</text>
</a>
</g>
</g>
<!-- Node2&#45;&gt;Node3 -->
<g id="edge2" class="edge">
<title>Node2&#45;&gt;Node3</title>
<path fill="none" stroke="midnightblue" d="M66.64,-15.5C57.35,-15.5 48.45,-15.5 41.05,-15.5"/>
<polygon fill="midnightblue" stroke="midnightblue" points="66.82,-19 76.82,-15.5 66.82,-12 66.82,-19"/>
</g>
</g>
</svg>
