<?xml version="1.0" encoding="UTF-8" standalone="no"?>
<!DOCTYPE svg PUBLIC "-//W3C//DTD SVG 1.1//EN"
 "http://www.w3.org/Graphics/SVG/1.1/DTD/svg11.dtd">
<!-- Generated by graphviz version 2.43.0 (0)
 -->
<!-- Title: HardManager::checkParams Pages: 1 -->
<svg width="344pt" height="66pt"
 viewBox="0.00 0.00 344.00 66.00" xmlns="http://www.w3.org/2000/svg" xmlns:xlink="http://www.w3.org/1999/xlink">
<g id="graph0" class="graph" transform="scale(1 1) rotate(0) translate(4 62)">
<title>HardManager::checkParams</title>
<polygon fill="white" stroke="transparent" points="-4,4 -4,-62 340,-62 340,4 -4,4"/>
<!-- Node1 -->
<g id="node1" class="node">
<title>Node1</title>
<g id="a_node1"><a xlink:title="check paramters">
<polygon fill="#bfbfbf" stroke="black" points="183,-19.5 183,-38.5 336,-38.5 336,-19.5 183,-19.5"/>
<text text-anchor="middle" x="259.5" y="-26.5" font-family="Helvetica,sans-Serif" font-size="10.00">HardManager::checkParams</text>
</a>
</g>
</g>
<!-- Node2 -->
<g id="node2" class="node">
<title>Node2</title>
<g id="a_node2"><a xlink:href="classSystemHard.html#ab4cfa60701681b891092275b4be9cfc0" target="_top" xlink:title="check paramters">
<polygon fill="white" stroke="black" points="0,-38.5 0,-57.5 147,-57.5 147,-38.5 0,-38.5"/>
<text text-anchor="middle" x="73.5" y="-45.5" font-family="Helvetica,sans-Serif" font-size="10.00">SystemHard::checkParams</text>
</a>
</g>
</g>
<!-- Node1&#45;&gt;Node2 -->
<g id="edge1" class="edge">
<title>Node1&#45;&gt;Node2</title>
<path fill="none" stroke="midnightblue" d="M172.84,-37.85C164.26,-38.73 155.6,-39.63 147.17,-40.5"/>
<polygon fill="midnightblue" stroke="midnightblue" points="173.28,-41.32 182.86,-36.81 172.56,-34.36 173.28,-41.32"/>
</g>
<!-- Node3 -->
<g id="node3" class="node">
<title>Node3</title>
<g id="a_node3"><a xlink:href="hard__debug_8cxx.html#a3c04138a5bfe5d72780bb7e82a18e627" target="_top" xlink:title=" ">
<polygon fill="white" stroke="black" points="53,-0.5 53,-19.5 94,-19.5 94,-0.5 53,-0.5"/>
<text text-anchor="middle" x="73.5" y="-7.5" font-family="Helvetica,sans-Serif" font-size="10.00">main</text>
</a>
</g>
</g>
<!-- Node1&#45;&gt;Node3 -->
<g id="edge2" class="edge">
<title>Node1&#45;&gt;Node3</title>
<path fill="none" stroke="midnightblue" d="M172.57,-20.13C143.3,-17.1 113.21,-14 94.22,-12.04"/>
<polygon fill="midnightblue" stroke="midnightblue" points="172.56,-23.64 182.86,-21.19 173.28,-16.68 172.56,-23.64"/>
</g>
</g>
</svg>
