<?xml version="1.0" encoding="UTF-8" standalone="no"?>
<!DOCTYPE svg PUBLIC "-//W3C//DTD SVG 1.1//EN"
 "http://www.w3.org/Graphics/SVG/1.1/DTD/svg11.dtd">
<!-- Generated by graphviz version 2.43.0 (0)
 -->
<!-- Title: PseudoParticleMultipoleManager::checkParams Pages: 1 -->
<svg width="728pt" height="97pt"
 viewBox="0.00 0.00 728.00 96.50" xmlns="http://www.w3.org/2000/svg" xmlns:xlink="http://www.w3.org/1999/xlink">
<g id="graph0" class="graph" transform="scale(1 1) rotate(0) translate(4 92.5)">
<title>PseudoParticleMultipoleManager::checkParams</title>
<polygon fill="white" stroke="transparent" points="-4,4 -4,-92.5 724,-92.5 724,4 -4,4"/>
<!-- Node1 -->
<g id="node1" class="node">
<title>Node1</title>
<g id="a_node1"><a xlink:title="check paramters">
<polygon fill="#bfbfbf" stroke="black" points="544,-22.5 544,-52.5 720,-52.5 720,-22.5 544,-22.5"/>
<text text-anchor="start" x="552" y="-40.5" font-family="Helvetica,sans-Serif" font-size="10.00">PseudoParticleMultipoleManager</text>
<text text-anchor="middle" x="632" y="-29.5" font-family="Helvetica,sans-Serif" font-size="10.00">::checkParams</text>
</a>
</g>
</g>
<!-- Node2 -->
<g id="node2" class="node">
<title>Node2</title>
<g id="a_node2"><a xlink:href="classArtificialParticleManager.html#ae62470120fa13e433cdf3f5433f452cb" target="_top" xlink:title="check paramters">
<polygon fill="white" stroke="black" points="372,-22.5 372,-52.5 508,-52.5 508,-22.5 372,-22.5"/>
<text text-anchor="start" x="380" y="-40.5" font-family="Helvetica,sans-Serif" font-size="10.00">ArtificialParticleManager</text>
<text text-anchor="middle" x="440" y="-29.5" font-family="Helvetica,sans-Serif" font-size="10.00">::checkParams</text>
</a>
</g>
</g>
<!-- Node1&#45;&gt;Node2 -->
<g id="edge1" class="edge">
<title>Node1&#45;&gt;Node2</title>
<path fill="none" stroke="midnightblue" d="M533.64,-37.5C524.99,-37.5 516.37,-37.5 508.06,-37.5"/>
<polygon fill="midnightblue" stroke="midnightblue" points="533.79,-41 543.79,-37.5 533.79,-34 533.79,-41"/>
</g>
<!-- Node3 -->
<g id="node3" class="node">
<title>Node3</title>
<g id="a_node3"><a xlink:href="classHardManager.html#af7548086113d591778ce878a53dad036" target="_top" xlink:title="check paramters">
<polygon fill="white" stroke="black" points="183,-50 183,-69 336,-69 336,-50 183,-50"/>
<text text-anchor="middle" x="259.5" y="-57" font-family="Helvetica,sans-Serif" font-size="10.00">HardManager::checkParams</text>
</a>
</g>
</g>
<!-- Node2&#45;&gt;Node3 -->
<g id="edge2" class="edge">
<title>Node2&#45;&gt;Node3</title>
<path fill="none" stroke="midnightblue" d="M361.82,-47.01C353.28,-48.07 344.58,-49.14 336.05,-50.19"/>
<polygon fill="midnightblue" stroke="midnightblue" points="362.27,-50.48 371.77,-45.79 361.42,-43.54 362.27,-50.48"/>
</g>
<!-- Node6 -->
<g id="node6" class="node">
<title>Node6</title>
<g id="a_node6"><a xlink:href="classArtificialParticleManager.html#af3f6cdb0c22cffa6a12cc47fa32f79fa" target="_top" xlink:title="create artificial particles">
<polygon fill="white" stroke="black" points="191.5,-0.5 191.5,-30.5 327.5,-30.5 327.5,-0.5 191.5,-0.5"/>
<text text-anchor="start" x="199.5" y="-18.5" font-family="Helvetica,sans-Serif" font-size="10.00">ArtificialParticleManager</text>
<text text-anchor="middle" x="259.5" y="-7.5" font-family="Helvetica,sans-Serif" font-size="10.00">::createArtificialParticles</text>
</a>
</g>
</g>
<!-- Node2&#45;&gt;Node6 -->
<g id="edge5" class="edge">
<title>Node2&#45;&gt;Node6</title>
<path fill="none" stroke="midnightblue" d="M361.51,-27.95C350.24,-26.56 338.71,-25.14 327.67,-23.78"/>
<polygon fill="midnightblue" stroke="midnightblue" points="361.42,-31.46 371.77,-29.21 362.27,-24.52 361.42,-31.46"/>
</g>
<!-- Node4 -->
<g id="node4" class="node">
<title>Node4</title>
<g id="a_node4"><a xlink:href="classSystemHard.html#ab4cfa60701681b891092275b4be9cfc0" target="_top" xlink:title="check paramters">
<polygon fill="white" stroke="black" points="0,-69 0,-88 147,-88 147,-69 0,-69"/>
<text text-anchor="middle" x="73.5" y="-76" font-family="Helvetica,sans-Serif" font-size="10.00">SystemHard::checkParams</text>
</a>
</g>
</g>
<!-- Node3&#45;&gt;Node4 -->
<g id="edge3" class="edge">
<title>Node3&#45;&gt;Node4</title>
<path fill="none" stroke="midnightblue" d="M172.84,-68.35C164.26,-69.23 155.6,-70.13 147.17,-71"/>
<polygon fill="midnightblue" stroke="midnightblue" points="173.28,-71.82 182.86,-67.31 172.56,-64.86 173.28,-71.82"/>
</g>
<!-- Node5 -->
<g id="node5" class="node">
<title>Node5</title>
<g id="a_node5"><a xlink:href="hard__debug_8cxx.html#a3c04138a5bfe5d72780bb7e82a18e627" target="_top" xlink:title=" ">
<polygon fill="white" stroke="black" points="53,-31 53,-50 94,-50 94,-31 53,-31"/>
<text text-anchor="middle" x="73.5" y="-38" font-family="Helvetica,sans-Serif" font-size="10.00">main</text>
</a>
</g>
</g>
<!-- Node3&#45;&gt;Node5 -->
<g id="edge4" class="edge">
<title>Node3&#45;&gt;Node5</title>
<path fill="none" stroke="midnightblue" d="M172.57,-50.63C143.3,-47.6 113.21,-44.5 94.22,-42.54"/>
<polygon fill="midnightblue" stroke="midnightblue" points="172.56,-54.14 182.86,-51.69 173.28,-47.18 172.56,-54.14"/>
</g>
</g>
</svg>
