<?xml version="1.0" encoding="UTF-8" standalone="no"?>
<!DOCTYPE svg PUBLIC "-//W3C//DTD SVG 1.1//EN"
 "http://www.w3.org/Graphics/SVG/1.1/DTD/svg11.dtd">
<!-- Generated by graphviz version 2.43.0 (0)
 -->
<!-- Title: Stability::closedSystemCheckIter Pages: 1 -->
<svg width="843pt" height="39pt"
 viewBox="0.00 0.00 843.00 39.00" xmlns="http://www.w3.org/2000/svg" xmlns:xlink="http://www.w3.org/1999/xlink">
<g id="graph0" class="graph" transform="scale(1 1) rotate(0) translate(4 35)">
<title>Stability::closedSystemCheckIter</title>
<polygon fill="white" stroke="transparent" points="-4,4 -4,-35 839,-35 839,4 -4,4"/>
<!-- Node1 -->
<g id="node1" class="node">
<title>Node1</title>
<g id="a_node1"><a xlink:title="Closed system check iteration function for BinaryTree.">
<polygon fill="#bfbfbf" stroke="black" points="658,-6 658,-25 835,-25 835,-6 658,-6"/>
<text text-anchor="middle" x="746.5" y="-13" font-family="Helvetica,sans-Serif" font-size="10.00">Stability::closedSystemCheckIter</text>
</a>
</g>
</g>
<!-- Node2 -->
<g id="node2" class="node">
<title>Node2</title>
<g id="a_node2"><a xlink:href="classStability.html#aa14561ced4c6f52711990b4d4065e519" target="_top" xlink:title="Check binary tree and collect closed systems subtree root.">
<polygon fill="white" stroke="black" points="488,-6 488,-25 622,-25 622,-6 488,-6"/>
<text text-anchor="middle" x="555" y="-13" font-family="Helvetica,sans-Serif" font-size="10.00">Stability::findClosedTree</text>
</a>
</g>
</g>
<!-- Node1&#45;&gt;Node2 -->
<g id="edge1" class="edge">
<title>Node1&#45;&gt;Node2</title>
<path fill="none" stroke="midnightblue" d="M647.8,-15.5C639.13,-15.5 630.5,-15.5 622.2,-15.5"/>
<polygon fill="midnightblue" stroke="midnightblue" points="647.96,-19 657.96,-15.5 647.96,-12 647.96,-19"/>
</g>
<!-- Node3 -->
<g id="node3" class="node">
<title>Node3</title>
<g id="a_node3"><a xlink:href="classSystemHard.html#ab9aaaaa58ad48fe4fcfe36d2ce1c8619" target="_top" xlink:title="generate artificial particles,">
<polygon fill="white" stroke="black" points="267,-0.5 267,-30.5 452,-30.5 452,-0.5 267,-0.5"/>
<text text-anchor="start" x="275" y="-18.5" font-family="Helvetica,sans-Serif" font-size="10.00">SystemHard::findGroupsAnd</text>
<text text-anchor="middle" x="359.5" y="-7.5" font-family="Helvetica,sans-Serif" font-size="10.00">CreateArtificialParticlesOneCluster</text>
</a>
</g>
</g>
<!-- Node2&#45;&gt;Node3 -->
<g id="edge2" class="edge">
<title>Node2&#45;&gt;Node3</title>
<path fill="none" stroke="midnightblue" d="M477.84,-15.5C469.44,-15.5 460.83,-15.5 452.28,-15.5"/>
<polygon fill="midnightblue" stroke="midnightblue" points="477.95,-19 487.95,-15.5 477.95,-12 477.95,-19"/>
</g>
<!-- Node4 -->
<g id="node4" class="node">
<title>Node4</title>
<g id="a_node4"><a xlink:href="classSystemHard.html#aac43bb3f43f7b3ea6f04efcc40bf11bd" target="_top" xlink:title="Find groups and create aritfical particles to sys.">
<polygon fill="white" stroke="black" points="77,-0.5 77,-30.5 231,-30.5 231,-0.5 77,-0.5"/>
<text text-anchor="start" x="85" y="-18.5" font-family="Helvetica,sans-Serif" font-size="10.00">SystemHard::findGroupsAnd</text>
<text text-anchor="middle" x="154" y="-7.5" font-family="Helvetica,sans-Serif" font-size="10.00">CreateArtificialParticlesOMP</text>
</a>
</g>
</g>
<!-- Node3&#45;&gt;Node4 -->
<g id="edge3" class="edge">
<title>Node3&#45;&gt;Node4</title>
<path fill="none" stroke="midnightblue" d="M256.78,-15.5C248.18,-15.5 239.57,-15.5 231.21,-15.5"/>
<polygon fill="midnightblue" stroke="midnightblue" points="256.87,-19 266.87,-15.5 256.87,-12 256.87,-19"/>
</g>
<!-- Node5 -->
<g id="node5" class="node">
<title>Node5</title>
<g id="a_node5"><a xlink:href="hard__test_8cxx.html#a3c04138a5bfe5d72780bb7e82a18e627" target="_top" xlink:title=" ">
<polygon fill="white" stroke="black" points="0,-6 0,-25 41,-25 41,-6 0,-6"/>
<text text-anchor="middle" x="20.5" y="-13" font-family="Helvetica,sans-Serif" font-size="10.00">main</text>
</a>
</g>
</g>
<!-- Node4&#45;&gt;Node5 -->
<g id="edge4" class="edge">
<title>Node4&#45;&gt;Node5</title>
<path fill="none" stroke="midnightblue" d="M66.85,-15.5C57.39,-15.5 48.56,-15.5 41.25,-15.5"/>
<polygon fill="midnightblue" stroke="midnightblue" points="66.89,-19 76.89,-15.5 66.89,-12 66.89,-19"/>
</g>
</g>
</svg>
