<?xml version="1.0" encoding="UTF-8" standalone="no"?>
<!DOCTYPE svg PUBLIC "-//W3C//DTD SVG 1.1//EN"
 "http://www.w3.org/Graphics/SVG/1.1/DTD/svg11.dtd">
<!-- Generated by graphviz version 2.43.0 (0)
 -->
<!-- Title: IOParamsPeTar Pages: 1 -->
<!--zoomable 216 -->
<svg id="main" version="1.1" xmlns="http://www.w3.org/2000/svg" xmlns:xlink="http://www.w3.org/1999/xlink" xml:space="preserve" onload="init(evt)">
<style type="text/css"><![CDATA[
.edge:hover path { stroke: red; }
.edge:hover polygon { stroke: red; fill: red; }
]]></style>
<script type="text/javascript"><![CDATA[
var edges = document.getElementsByTagName('g');
if (edges && edges.length) {
  for (var i=0;i<edges.length;i++) {
    if (edges[i].id.substr(0,4)=='edge') {
      edges[i].setAttribute('class','edge');
    }
  }
}
]]></script>
        <defs>
                <circle id="rim" cx="0" cy="0" r="7"/>
                <circle id="rim2" cx="0" cy="0" r="3.5"/>
                <g id="zoomPlus">
                        <use xlink:href="#rim" fill="#404040">
                                <set attributeName="fill" to="#808080" begin="zoomplus.mouseover" end="zoomplus.mouseout"/>
                        </use>
                        <path d="M-4,0h8M0,-4v8" fill="none" stroke="white" stroke-width="1.5" pointer-events="none"/>
                </g>
                <g id="zoomMin">
                        <use xlink:href="#rim" fill="#404040">
                                <set attributeName="fill" to="#808080" begin="zoomminus.mouseover" end="zoomminus.mouseout"/>
                        </use>
                        <path d="M-4,0h8" fill="none" stroke="white" stroke-width="1.5" pointer-events="none"/>
                </g>
                <g id="dirArrow">
                        <path fill="none" stroke="white" stroke-width="1.5" d="M0,-3.0v7 M-2.5,-0.5L0,-3.0L2.5,-0.5"/>
                </g>
               <g id="resetDef">
                       <use xlink:href="#rim2" fill="#404040">
                               <set attributeName="fill" to="#808080" begin="reset.mouseover" end="reset.mouseout"/>
                       </use>
               </g>
        </defs>

<script type="text/javascript">
var viewWidth = 581;
var viewHeight = 216;
var sectionId = 'dynsection-0';
</script>
<script xlink:href="svgpan.js"/>
<svg id="graph" class="graph">
<g id="viewport">
<title>IOParamsPeTar</title>
<polygon fill="white" stroke="transparent" points="-4,4 -4,-212 577,-212 577,4 -4,4"/>
<!-- Node1 -->
<g id="node1" class="node">
<title>Node1</title>
<g id="a_node1"><a xlink:title="IO parameters for Petar.">
<polygon fill="#bfbfbf" stroke="black" points="223.5,-0.5 223.5,-19.5 312.5,-19.5 312.5,-0.5 223.5,-0.5"/>
<text text-anchor="middle" x="268" y="-7.5" font-family="Helvetica,sans-Serif" font-size="10.00">IOParamsPeTar</text>
</a>
</g>
</g>
<!-- Node2 -->
<g id="node2" class="node">
<title>Node2</title>
<g id="a_node2"><a xlink:href="classIOParamsContainer.html" target="_top" xlink:title="IO Params container.">
<polygon fill="white" stroke="black" points="0,-188.5 0,-207.5 110,-207.5 110,-188.5 0,-188.5"/>
<text text-anchor="middle" x="55" y="-195.5" font-family="Helvetica,sans-Serif" font-size="10.00">IOParamsContainer</text>
</a>
</g>
</g>
<!-- Node2&#45;&gt;Node1 -->
<g id="edge1" class="edge">
<title>Node2&#45;&gt;Node1</title>
<path fill="none" stroke="#9a32cd" stroke-dasharray="5,2" d="M57.44,-178.14C62.85,-144.36 79.18,-73.75 124,-38 139.11,-25.94 187.04,-18.69 223.49,-14.78"/>
<polygon fill="#9a32cd" stroke="#9a32cd" points="53.91,-178.03 55.95,-188.43 60.84,-179.04 53.91,-178.03"/>
<text text-anchor="middle" x="163.5" y="-101.5" font-family="Helvetica,sans-Serif" font-size="10.00"> input_par_store</text>
</g>
<!-- Node3 -->
<g id="node3" class="node">
<title>Node3</title>
<g id="a_node3"><a xlink:href="structIOParams.html" target="_top" xlink:title=" ">
<polygon fill="white" stroke="black" points="128,-188.5 128,-207.5 262,-207.5 262,-188.5 128,-188.5"/>
<text text-anchor="middle" x="195" y="-195.5" font-family="Helvetica,sans-Serif" font-size="10.00">IOParams&lt; std::string &gt;</text>
</a>
</g>
</g>
<!-- Node3&#45;&gt;Node1 -->
<g id="edge2" class="edge">
<title>Node3&#45;&gt;Node1</title>
<path fill="none" stroke="#9a32cd" stroke-dasharray="5,2" d="M202.21,-178.62C217.62,-139.37 253.24,-48.6 264.51,-19.88"/>
<polygon fill="#9a32cd" stroke="#9a32cd" points="198.92,-177.44 198.52,-188.03 205.43,-180 198.92,-177.44"/>
<text text-anchor="middle" x="283" y="-112.5" font-family="Helvetica,sans-Serif" font-size="10.00"> fname_par</text>
<text text-anchor="middle" x="283" y="-101.5" font-family="Helvetica,sans-Serif" font-size="10.00">fname_snp</text>
<text text-anchor="middle" x="283" y="-90.5" font-family="Helvetica,sans-Serif" font-size="10.00">fname_inp</text>
</g>
<!-- Node4 -->
<g id="node4" class="node">
<title>Node4</title>
<g id="a_node4"><a xlink:href="structIOParams.html" target="_top" xlink:title=" ">
<polygon fill="white" stroke="black" points="280,-188.5 280,-207.5 402,-207.5 402,-188.5 280,-188.5"/>
<text text-anchor="middle" x="341" y="-195.5" font-family="Helvetica,sans-Serif" font-size="10.00">IOParams&lt; PS::S64 &gt;</text>
</a>
</g>
</g>
<!-- Node4&#45;&gt;Node1 -->
<g id="edge3" class="edge">
<title>Node4&#45;&gt;Node1</title>
<path fill="none" stroke="#9a32cd" stroke-dasharray="5,2" d="M342.81,-178.42C344.93,-146.66 344.93,-81.21 315,-38 309.32,-29.8 300.29,-23.76 291.65,-19.5"/>
<polygon fill="#9a32cd" stroke="#9a32cd" points="339.31,-178.23 341.99,-188.49 346.29,-178.8 339.31,-178.23"/>
<text text-anchor="middle" x="390" y="-162" font-family="Helvetica,sans-Serif" font-size="10.00"> n_smp_ave</text>
<text text-anchor="middle" x="390" y="-151" font-family="Helvetica,sans-Serif" font-size="10.00">step_limit_ar</text>
<text text-anchor="middle" x="390" y="-140" font-family="Helvetica,sans-Serif" font-size="10.00">data_format</text>
<text text-anchor="start" x="343" y="-129" font-family="Helvetica,sans-Serif" font-size="10.00">interrupt_detection</text>
<text text-anchor="middle" x="390" y="-118" font-family="Helvetica,sans-Serif" font-size="10.00">_option</text>
<text text-anchor="middle" x="390" y="-107" font-family="Helvetica,sans-Serif" font-size="10.00">n_interrupt_limit</text>
<text text-anchor="middle" x="390" y="-96" font-family="Helvetica,sans-Serif" font-size="10.00">n_group_limit</text>
<text text-anchor="middle" x="390" y="-85" font-family="Helvetica,sans-Serif" font-size="10.00">id_offset</text>
<text text-anchor="middle" x="390" y="-74" font-family="Helvetica,sans-Serif" font-size="10.00">n_glb</text>
<text text-anchor="middle" x="390" y="-63" font-family="Helvetica,sans-Serif" font-size="10.00">n_step_per_orbit</text>
<text text-anchor="middle" x="390" y="-52" font-family="Helvetica,sans-Serif" font-size="10.00">append_switcher</text>
<text text-anchor="middle" x="390" y="-41" font-family="Helvetica,sans-Serif" font-size="10.00">...</text>
</g>
<!-- Node5 -->
<g id="node5" class="node">
<title>Node5</title>
<g id="a_node5"><a xlink:href="structIOParams.html" target="_top" xlink:title=" ">
<polygon fill="white" stroke="black" points="420,-188.5 420,-207.5 542,-207.5 542,-188.5 420,-188.5"/>
<text text-anchor="middle" x="481" y="-195.5" font-family="Helvetica,sans-Serif" font-size="10.00">IOParams&lt; PS::F64 &gt;</text>
</a>
</g>
</g>
<!-- Node5&#45;&gt;Node1 -->
<g id="edge4" class="edge">
<title>Node5&#45;&gt;Node1</title>
<path fill="none" stroke="#9a32cd" stroke-dasharray="5,2" d="M482.37,-177.82C483.62,-144.11 480.88,-74.38 441,-38 422.7,-21.3 357.57,-14.92 312.66,-12.49"/>
<polygon fill="#9a32cd" stroke="#9a32cd" points="478.86,-177.95 481.81,-188.13 485.85,-178.33 478.86,-177.95"/>
<text text-anchor="middle" x="527.5" y="-162" font-family="Helvetica,sans-Serif" font-size="10.00"> ratio_r_cut</text>
<text text-anchor="middle" x="527.5" y="-151" font-family="Helvetica,sans-Serif" font-size="10.00">eps</text>
<text text-anchor="middle" x="527.5" y="-140" font-family="Helvetica,sans-Serif" font-size="10.00">r_bin</text>
<text text-anchor="start" x="482" y="-129" font-family="Helvetica,sans-Serif" font-size="10.00">nstep_dt_soft</text>
<text text-anchor="middle" x="527.5" y="-118" font-family="Helvetica,sans-Serif" font-size="10.00">_kepler</text>
<text text-anchor="middle" x="527.5" y="-107" font-family="Helvetica,sans-Serif" font-size="10.00">dt_snap</text>
<text text-anchor="middle" x="527.5" y="-96" font-family="Helvetica,sans-Serif" font-size="10.00">search_vel_factor</text>
<text text-anchor="middle" x="527.5" y="-85" font-family="Helvetica,sans-Serif" font-size="10.00">time_end</text>
<text text-anchor="middle" x="527.5" y="-74" font-family="Helvetica,sans-Serif" font-size="10.00">search_peri_factor</text>
<text text-anchor="middle" x="527.5" y="-63" font-family="Helvetica,sans-Serif" font-size="10.00">theta</text>
<text text-anchor="middle" x="527.5" y="-52" font-family="Helvetica,sans-Serif" font-size="10.00">r_out</text>
<text text-anchor="middle" x="527.5" y="-41" font-family="Helvetica,sans-Serif" font-size="10.00">...</text>
</g>
</g>
</svg>
        <g id="navigator" transform="translate(0 0)" fill="#404254">
                <rect fill="#f2f5e9" fill-opacity="0.5" stroke="#606060" stroke-width=".5" x="0" y="0" width="60" height="60"/>
                <use id="zoomplus" xlink:href="#zoomPlus" x="17" y="9" onmousedown="handleZoom(evt,'in')"/>
                <use id="zoomminus" xlink:href="#zoomMin" x="42" y="9" onmousedown="handleZoom(evt,'out')"/>
                <use id="reset" xlink:href="#resetDef" x="30" y="36" onmousedown="handleReset()"/>
                <g id="arrowUp" xlink:href="#dirArrow" transform="translate(30 24)" onmousedown="handlePan(0,-1)">
                  <use xlink:href="#rim" fill="#404040">
                        <set attributeName="fill" to="#808080" begin="arrowUp.mouseover" end="arrowUp.mouseout"/>
                  </use>
                  <path fill="none" stroke="white" stroke-width="1.5" d="M0,-3.0v7 M-2.5,-0.5L0,-3.0L2.5,-0.5"/>
                </g>
                <g id="arrowRight" xlink:href="#dirArrow" transform="rotate(90) translate(36 -43)" onmousedown="handlePan(1,0)">
                  <use xlink:href="#rim" fill="#404040">
                        <set attributeName="fill" to="#808080" begin="arrowRight.mouseover" end="arrowRight.mouseout"/>
                  </use>
                  <path fill="none" stroke="white" stroke-width="1.5" d="M0,-3.0v7 M-2.5,-0.5L0,-3.0L2.5,-0.5"/>
                </g>
                <g id="arrowDown" xlink:href="#dirArrow" transform="rotate(180) translate(-30 -48)" onmousedown="handlePan(0,1)">
                  <use xlink:href="#rim" fill="#404040">
                        <set attributeName="fill" to="#808080" begin="arrowDown.mouseover" end="arrowDown.mouseout"/>
                  </use>
                  <path fill="none" stroke="white" stroke-width="1.5" d="M0,-3.0v7 M-2.5,-0.5L0,-3.0L2.5,-0.5"/>
                </g>
                <g id="arrowLeft" xlink:href="#dirArrow" transform="rotate(270) translate(-36 17)" onmousedown="handlePan(-1,0)">
                  <use xlink:href="#rim" fill="#404040">
                        <set attributeName="fill" to="#808080" begin="arrowLeft.mouseover" end="arrowLeft.mouseout"/>
                  </use>
                  <path fill="none" stroke="white" stroke-width="1.5" d="M0,-3.0v7 M-2.5,-0.5L0,-3.0L2.5,-0.5"/>
                </g>
        </g>
        <svg viewBox="0 0 15 15" width="100%" height="30px" preserveAspectRatio="xMaxYMin meet">
         <g id="arrow_out" transform="scale(0.3 0.3)">
          <a xlink:href="classIOParamsPeTar__coll__graph_org.svg" target="_base">
           <rect id="button" ry="5" rx="5" y="6" x="6" height="38" width="38"
                fill="#f2f5e9" fill-opacity="0.5" stroke="#606060" stroke-width="1.0"/>
           <path id="arrow"
             d="M 11.500037,31.436501 C 11.940474,20.09759 22.043105,11.32322 32.158766,21.979434 L 37.068811,17.246167 C 37.068811,17.246167 37.088388,32 37.088388,32 L 22.160133,31.978069 C 22.160133,31.978069 26.997745,27.140456 26.997745,27.140456 C 18.528582,18.264221 13.291696,25.230495 11.500037,31.436501 z"
             style="fill:#404040;"/>
          </a>
         </g>
        </svg>
</svg>
