<?xml version="1.0" encoding="UTF-8" standalone="no"?>
<!DOCTYPE svg PUBLIC "-//W3C//DTD SVG 1.1//EN"
 "http://www.w3.org/Graphics/SVG/1.1/DTD/svg11.dtd">
<!-- Generated by graphviz version 2.43.0 (0)
 -->
<!-- Title: IOParamsBSE::read Pages: 1 -->
<svg width="478pt" height="127pt"
 viewBox="0.00 0.00 478.00 126.50" xmlns="http://www.w3.org/2000/svg" xmlns:xlink="http://www.w3.org/1999/xlink">
<g id="graph0" class="graph" transform="scale(1 1) rotate(0) translate(4 122.5)">
<title>IOParamsBSE::read</title>
<polygon fill="white" stroke="transparent" points="-4,4 -4,-122.5 474,-122.5 474,4 -4,4"/>
<!-- Node1 -->
<g id="node1" class="node">
<title>Node1</title>
<g id="a_node1"><a xlink:title="reading parameters from GNU option API">
<polygon fill="#bfbfbf" stroke="black" points="0,-55 0,-74 110,-74 110,-55 0,-55"/>
<text text-anchor="middle" x="55" y="-62" font-family="Helvetica,sans-Serif" font-size="10.00">IOParamsBSE::read</text>
</a>
</g>
</g>
<!-- Node2 -->
<g id="node2" class="node">
<title>Node2</title>
<g id="a_node2"><a xlink:href="structIOParams.html#a14f008160ee20f31bee6973eb7d5416d" target="_top" xlink:title=" ">
<polygon fill="white" stroke="black" points="158,-99 158,-118 250,-118 250,-99 158,-99"/>
<text text-anchor="middle" x="204" y="-106" font-family="Helvetica,sans-Serif" font-size="10.00">IOParams::print</text>
</a>
</g>
</g>
<!-- Node1&#45;&gt;Node2 -->
<g id="edge1" class="edge">
<title>Node1&#45;&gt;Node2</title>
<path fill="none" stroke="midnightblue" d="M87.9,-74.05C109.47,-80.51 138.18,-89.1 161.52,-96.09"/>
<polygon fill="midnightblue" stroke="midnightblue" points="160.58,-99.46 171.17,-98.97 162.59,-92.75 160.58,-99.46"/>
</g>
<!-- Node3 -->
<g id="node3" class="node">
<title>Node3</title>
<g id="a_node3"><a xlink:href="classIOParamsContainer.html#a8bdebaa655392813c07b0dd4ae6469c2" target="_top" xlink:title=" ">
<polygon fill="white" stroke="black" points="146,-49.5 146,-79.5 262,-79.5 262,-49.5 146,-49.5"/>
<text text-anchor="start" x="154" y="-67.5" font-family="Helvetica,sans-Serif" font-size="10.00">IOParamsContainer::</text>
<text text-anchor="middle" x="204" y="-56.5" font-family="Helvetica,sans-Serif" font-size="10.00">printHelp</text>
</a>
</g>
</g>
<!-- Node1&#45;&gt;Node3 -->
<g id="edge2" class="edge">
<title>Node1&#45;&gt;Node3</title>
<path fill="none" stroke="midnightblue" d="M110.32,-64.5C118.58,-64.5 127.18,-64.5 135.67,-64.5"/>
<polygon fill="midnightblue" stroke="midnightblue" points="135.95,-68 145.95,-64.5 135.95,-61 135.95,-68"/>
</g>
<!-- Node5 -->
<g id="node5" class="node">
<title>Node5</title>
<g id="a_node5"><a xlink:href="classIOParamsContainer.html#a972926da32b4043d06456ab6d35d7752" target="_top" xlink:title=" ">
<polygon fill="white" stroke="black" points="146,-0.5 146,-30.5 262,-30.5 262,-0.5 146,-0.5"/>
<text text-anchor="start" x="154" y="-18.5" font-family="Helvetica,sans-Serif" font-size="10.00">IOParamsContainer::</text>
<text text-anchor="middle" x="204" y="-7.5" font-family="Helvetica,sans-Serif" font-size="10.00">readAscii</text>
</a>
</g>
</g>
<!-- Node1&#45;&gt;Node5 -->
<g id="edge4" class="edge">
<title>Node1&#45;&gt;Node5</title>
<path fill="none" stroke="midnightblue" d="M84.69,-54.94C102.73,-48.92 126.6,-40.97 148.17,-33.78"/>
<polygon fill="midnightblue" stroke="midnightblue" points="149.51,-37.02 157.89,-30.54 147.3,-30.38 149.51,-37.02"/>
</g>
<!-- Node4 -->
<g id="node4" class="node">
<title>Node4</title>
<g id="a_node4"><a xlink:href="structIOParamsPrintHelp.html#a02a0af84b1fabe990b816133cbc345ee" target="_top" xlink:title=" ">
<polygon fill="white" stroke="black" points="298,-49.5 298,-79.5 470,-79.5 470,-49.5 298,-49.5"/>
<text text-anchor="start" x="306" y="-67.5" font-family="Helvetica,sans-Serif" font-size="10.00">IOParamsPrintHelp::</text>
<text text-anchor="middle" x="384" y="-56.5" font-family="Helvetica,sans-Serif" font-size="10.00">printTypeShortNameDescription</text>
</a>
</g>
</g>
<!-- Node3&#45;&gt;Node4 -->
<g id="edge3" class="edge">
<title>Node3&#45;&gt;Node4</title>
<path fill="none" stroke="midnightblue" d="M262.3,-64.5C270.48,-64.5 279.07,-64.5 287.75,-64.5"/>
<polygon fill="midnightblue" stroke="midnightblue" points="287.94,-68 297.94,-64.5 287.94,-61 287.94,-68"/>
</g>
</g>
</svg>
