<?xml version="1.0" encoding="UTF-8" standalone="no"?>
<!DOCTYPE svg PUBLIC "-//W3C//DTD SVG 1.1//EN"
 "http://www.w3.org/Graphics/SVG/1.1/DTD/svg11.dtd">
<!-- Generated by graphviz version 2.43.0 (0)
 -->
<!-- Title: GalpyManager::updateMWPotentialEvolve Pages: 1 -->
<svg width="1272pt" height="142pt"
 viewBox="0.00 0.00 1272.00 142.00" xmlns="http://www.w3.org/2000/svg" xmlns:xlink="http://www.w3.org/1999/xlink">
<g id="graph0" class="graph" transform="scale(1 1) rotate(0) translate(4 138)">
<title>GalpyManager::updateMWPotentialEvolve</title>
<polygon fill="white" stroke="transparent" points="-4,4 -4,-138 1268,-138 1268,4 -4,4"/>
<!-- Node1 -->
<g id="node1" class="node">
<title>Node1</title>
<g id="a_node1"><a xlink:title="Update MWpotential evolve (Gomez et al. 2010)">
<polygon fill="#bfbfbf" stroke="black" points="0,-52 0,-82 190,-82 190,-52 0,-52"/>
<text text-anchor="start" x="8" y="-70" font-family="Helvetica,sans-Serif" font-size="10.00">GalpyManager::updateMWPotential</text>
<text text-anchor="middle" x="95" y="-59" font-family="Helvetica,sans-Serif" font-size="10.00">Evolve</text>
</a>
</g>
</g>
<!-- Node2 -->
<g id="node2" class="node">
<title>Node2</title>
<g id="a_node2"><a xlink:href="classMWPotentialEvolve.html#a499debe349e3789cd6fbab95bc56dabb" target="_top" xlink:title="calculate MW potential based on the input time">
<polygon fill="white" stroke="black" points="226,-52 226,-82 380,-82 380,-52 226,-52"/>
<text text-anchor="start" x="234" y="-70" font-family="Helvetica,sans-Serif" font-size="10.00">MWPotentialEvolve::</text>
<text text-anchor="middle" x="303" y="-59" font-family="Helvetica,sans-Serif" font-size="10.00">calcMWPotentialParameters</text>
</a>
</g>
</g>
<!-- Node1&#45;&gt;Node2 -->
<g id="edge1" class="edge">
<title>Node1&#45;&gt;Node2</title>
<path fill="none" stroke="midnightblue" d="M190.26,-67C198.77,-67 207.36,-67 215.8,-67"/>
<polygon fill="midnightblue" stroke="midnightblue" points="216,-70.5 226,-67 216,-63.5 216,-70.5"/>
</g>
<!-- Node3 -->
<g id="node3" class="node">
<title>Node3</title>
<g id="a_node3"><a xlink:href="classFRWModel.html#a361381626bcc60640134c25e6c7357bb" target="_top" xlink:title=" ">
<polygon fill="white" stroke="black" points="924,-57.5 924,-76.5 1052,-76.5 1052,-57.5 924,-57.5"/>
<text text-anchor="middle" x="988" y="-64.5" font-family="Helvetica,sans-Serif" font-size="10.00">FRWModel::getDensity</text>
</a>
</g>
</g>
<!-- Node2&#45;&gt;Node3 -->
<g id="edge2" class="edge">
<title>Node2&#45;&gt;Node3</title>
<path fill="none" stroke="midnightblue" d="M380.03,-67C512.23,-67 782.79,-67 913.33,-67"/>
<polygon fill="midnightblue" stroke="midnightblue" points="913.62,-70.5 923.62,-67 913.62,-63.5 913.62,-70.5"/>
</g>
<!-- Node6 -->
<g id="node6" class="node">
<title>Node6</title>
<g id="a_node6"><a xlink:href="classFRWModel.html#a4e998f4739ff1df966beca89c1e393ed" target="_top" xlink:title=" ">
<polygon fill="white" stroke="black" points="1095.5,-0.5 1095.5,-19.5 1256.5,-19.5 1256.5,-0.5 1095.5,-0.5"/>
<text text-anchor="middle" x="1176" y="-7.5" font-family="Helvetica,sans-Serif" font-size="10.00">FRWModel::getMatterDensity</text>
</a>
</g>
</g>
<!-- Node2&#45;&gt;Node6 -->
<g id="edge10" class="edge">
<title>Node2&#45;&gt;Node6</title>
<path fill="none" stroke="midnightblue" d="M364.46,-51.95C437.7,-35.06 565.09,-10 676,-10 676,-10 676,-10 830.5,-10 917.01,-10 1015.73,-10 1085.25,-10"/>
<polygon fill="midnightblue" stroke="midnightblue" points="1085.29,-13.5 1095.29,-10 1085.29,-6.5 1085.29,-13.5"/>
</g>
<!-- Node8 -->
<g id="node8" class="node">
<title>Node8</title>
<g id="a_node8"><a xlink:href="classFRWModel.html#a262a19eeb8300f0a59c8555e052cbc27" target="_top" xlink:title="get Hubble constant at current a">
<polygon fill="white" stroke="black" points="628,-114.5 628,-133.5 726,-133.5 726,-114.5 628,-114.5"/>
<text text-anchor="middle" x="677" y="-121.5" font-family="Helvetica,sans-Serif" font-size="10.00">FRWModel::getH</text>
</a>
</g>
</g>
<!-- Node2&#45;&gt;Node8 -->
<g id="edge7" class="edge">
<title>Node2&#45;&gt;Node8</title>
<path fill="none" stroke="midnightblue" d="M340.68,-82.08C362.24,-90.28 390.24,-99.78 416,-105 484.2,-118.83 564.26,-122.9 617.34,-123.95"/>
<polygon fill="midnightblue" stroke="midnightblue" points="617.53,-127.45 627.58,-124.12 617.64,-120.45 617.53,-127.45"/>
</g>
<!-- Node10 -->
<g id="node10" class="node">
<title>Node10</title>
<g id="a_node10"><a xlink:href="classFRWModel.html#a904c7a9d484ab006a8bbbc3f557f6e45" target="_top" xlink:title="update scale factor with maximum time step dt_max (first order Euler method)">
<polygon fill="white" stroke="black" points="416,-76.5 416,-95.5 583,-95.5 583,-76.5 416,-76.5"/>
<text text-anchor="middle" x="499.5" y="-83.5" font-family="Helvetica,sans-Serif" font-size="10.00">FRWModel::updateAwithDtmin</text>
</a>
</g>
</g>
<!-- Node2&#45;&gt;Node10 -->
<g id="edge11" class="edge">
<title>Node2&#45;&gt;Node10</title>
<path fill="none" stroke="midnightblue" d="M380.03,-74.43C388.46,-75.25 397.11,-76.1 405.71,-76.94"/>
<polygon fill="midnightblue" stroke="midnightblue" points="405.47,-80.43 415.76,-77.92 406.15,-73.46 405.47,-80.43"/>
</g>
<!-- Node4 -->
<g id="node4" class="node">
<title>Node4</title>
<g id="a_node4"><a xlink:href="classFRWModel.html#ac639a14eba5f454ecd905f1e907c8ee4" target="_top" xlink:title=" ">
<polygon fill="white" stroke="black" points="1088,-76.5 1088,-95.5 1264,-95.5 1264,-76.5 1088,-76.5"/>
<text text-anchor="middle" x="1176" y="-83.5" font-family="Helvetica,sans-Serif" font-size="10.00">FRWModel::getCurvatureDensity</text>
</a>
</g>
</g>
<!-- Node3&#45;&gt;Node4 -->
<g id="edge3" class="edge">
<title>Node3&#45;&gt;Node4</title>
<path fill="none" stroke="midnightblue" d="M1052.23,-73.46C1060.48,-74.3 1069.08,-75.18 1077.73,-76.06"/>
<polygon fill="midnightblue" stroke="midnightblue" points="1077.59,-79.57 1087.89,-77.1 1078.3,-72.6 1077.59,-79.57"/>
</g>
<!-- Node5 -->
<g id="node5" class="node">
<title>Node5</title>
<g id="a_node5"><a xlink:href="classFRWModel.html#a747610082f8b89bc7494512925f3d28a" target="_top" xlink:title=" ">
<polygon fill="white" stroke="black" points="1095,-38.5 1095,-57.5 1257,-57.5 1257,-38.5 1095,-38.5"/>
<text text-anchor="middle" x="1176" y="-45.5" font-family="Helvetica,sans-Serif" font-size="10.00">FRWModel::getEnergyDensity</text>
</a>
</g>
</g>
<!-- Node3&#45;&gt;Node5 -->
<g id="edge4" class="edge">
<title>Node3&#45;&gt;Node5</title>
<path fill="none" stroke="midnightblue" d="M1052.23,-60.54C1062.71,-59.47 1073.76,-58.34 1084.75,-57.22"/>
<polygon fill="midnightblue" stroke="midnightblue" points="1085.23,-60.69 1094.82,-56.19 1084.52,-53.72 1085.23,-60.69"/>
</g>
<!-- Node3&#45;&gt;Node6 -->
<g id="edge5" class="edge">
<title>Node3&#45;&gt;Node6</title>
<path fill="none" stroke="midnightblue" d="M1011.08,-57.42C1030.92,-49.07 1061.01,-37.07 1088,-29 1096.7,-26.4 1105.99,-23.99 1115.14,-21.82"/>
<polygon fill="midnightblue" stroke="midnightblue" points="1116.01,-25.21 1124.98,-19.57 1114.45,-18.39 1116.01,-25.21"/>
</g>
<!-- Node7 -->
<g id="node7" class="node">
<title>Node7</title>
<g id="a_node7"><a xlink:href="classFRWModel.html#a80544a319035cb9fe253f2dee3d63d52" target="_top" xlink:title=" ">
<polygon fill="white" stroke="black" points="1088.5,-114.5 1088.5,-133.5 1263.5,-133.5 1263.5,-114.5 1088.5,-114.5"/>
<text text-anchor="middle" x="1176" y="-121.5" font-family="Helvetica,sans-Serif" font-size="10.00">FRWModel::getRadiationDensity</text>
</a>
</g>
</g>
<!-- Node3&#45;&gt;Node7 -->
<g id="edge6" class="edge">
<title>Node3&#45;&gt;Node7</title>
<path fill="none" stroke="midnightblue" d="M1011.08,-76.58C1030.92,-84.93 1061.01,-96.93 1088,-105 1096.7,-107.6 1105.99,-110.01 1115.14,-112.18"/>
<polygon fill="midnightblue" stroke="midnightblue" points="1114.45,-115.61 1124.98,-114.43 1116.01,-108.79 1114.45,-115.61"/>
</g>
<!-- Node9 -->
<g id="node9" class="node">
<title>Node9</title>
<g id="a_node9"><a xlink:href="classFRWModel.html#abb7a4dcaa3256b6365ef1cc5e9f5dba4" target="_top" xlink:title="calculate da/dt">
<polygon fill="white" stroke="black" points="771,-76.5 771,-95.5 888,-95.5 888,-76.5 771,-76.5"/>
<text text-anchor="middle" x="829.5" y="-83.5" font-family="Helvetica,sans-Serif" font-size="10.00">FRWModel::calcAdot</text>
</a>
</g>
</g>
<!-- Node8&#45;&gt;Node9 -->
<g id="edge8" class="edge">
<title>Node8&#45;&gt;Node9</title>
<path fill="none" stroke="midnightblue" d="M715.98,-114.41C735.66,-109.44 759.89,-103.32 780.82,-98.04"/>
<polygon fill="midnightblue" stroke="midnightblue" points="781.96,-101.36 790.8,-95.52 780.24,-94.57 781.96,-101.36"/>
</g>
<!-- Node9&#45;&gt;Node3 -->
<g id="edge9" class="edge">
<title>Node9&#45;&gt;Node3</title>
<path fill="none" stroke="midnightblue" d="M888.33,-78.98C896.65,-77.97 905.31,-76.92 913.88,-75.88"/>
<polygon fill="midnightblue" stroke="midnightblue" points="914.38,-79.34 923.88,-74.66 913.53,-72.39 914.38,-79.34"/>
</g>
<!-- Node11 -->
<g id="node11" class="node">
<title>Node11</title>
<g id="a_node11"><a xlink:href="classFRWModel.html#a348b0ad06e5e83855a039ab5179806bc" target="_top" xlink:title="update scale factor by time step _dt (first order Euler method)">
<polygon fill="white" stroke="black" points="619,-76.5 619,-95.5 735,-95.5 735,-76.5 619,-76.5"/>
<text text-anchor="middle" x="677" y="-83.5" font-family="Helvetica,sans-Serif" font-size="10.00">FRWModel::updateA</text>
</a>
</g>
</g>
<!-- Node10&#45;&gt;Node11 -->
<g id="edge12" class="edge">
<title>Node10&#45;&gt;Node11</title>
<path fill="none" stroke="midnightblue" d="M583.11,-86C591.71,-86 600.37,-86 608.77,-86"/>
<polygon fill="midnightblue" stroke="midnightblue" points="608.85,-89.5 618.85,-86 608.85,-82.5 608.85,-89.5"/>
</g>
<!-- Node11&#45;&gt;Node9 -->
<g id="edge13" class="edge">
<title>Node11&#45;&gt;Node9</title>
<path fill="none" stroke="midnightblue" d="M735.33,-86C743.59,-86 752.17,-86 760.62,-86"/>
<polygon fill="midnightblue" stroke="midnightblue" points="760.83,-89.5 770.83,-86 760.83,-82.5 760.83,-89.5"/>
</g>
</g>
</svg>
