<?xml version="1.0" encoding="UTF-8" standalone="no"?>
<!DOCTYPE svg PUBLIC "-//W3C//DTD SVG 1.1//EN"
 "http://www.w3.org/Graphics/SVG/1.1/DTD/svg11.dtd">
<!-- Generated by graphviz version 2.43.0 (0)
 -->
<!-- Title: Ptcl::writeBinary Pages: 1 -->
<svg width="280pt" height="66pt"
 viewBox="0.00 0.00 280.00 66.00" xmlns="http://www.w3.org/2000/svg" xmlns:xlink="http://www.w3.org/1999/xlink">
<g id="graph0" class="graph" transform="scale(1 1) rotate(0) translate(4 62)">
<title>Ptcl::writeBinary</title>
<polygon fill="white" stroke="transparent" points="-4,4 -4,-62 276,-62 276,4 -4,4"/>
<!-- Node1 -->
<g id="node1" class="node">
<title>Node1</title>
<g id="a_node1"><a xlink:title="write class data with BINARY format">
<polygon fill="#bfbfbf" stroke="black" points="0,-19.5 0,-38.5 97,-38.5 97,-19.5 0,-19.5"/>
<text text-anchor="middle" x="48.5" y="-26.5" font-family="Helvetica,sans-Serif" font-size="10.00">Ptcl::writeBinary</text>
</a>
</g>
</g>
<!-- Node2 -->
<g id="node2" class="node">
<title>Node2</title>
<g id="a_node2"><a xlink:href="classChangeOver.html#a6481968a8eaf66d2c65c34e612802d93" target="_top" xlink:title="write class data to file with binary format">
<polygon fill="white" stroke="black" points="133,-38.5 133,-57.5 272,-57.5 272,-38.5 133,-38.5"/>
<text text-anchor="middle" x="202.5" y="-45.5" font-family="Helvetica,sans-Serif" font-size="10.00">ChangeOver::writeBinary</text>
</a>
</g>
</g>
<!-- Node1&#45;&gt;Node2 -->
<g id="edge1" class="edge">
<title>Node1&#45;&gt;Node2</title>
<path fill="none" stroke="midnightblue" d="M97.18,-34.96C105.31,-35.98 113.95,-37.06 122.64,-38.14"/>
<polygon fill="midnightblue" stroke="midnightblue" points="122.48,-41.65 132.84,-39.42 123.35,-34.7 122.48,-41.65"/>
</g>
<!-- Node3 -->
<g id="node3" class="node">
<title>Node3</title>
<g id="a_node3"><a xlink:href="classParticleBase.html#ab26b2b513b3c62bac84bb25a357223b6" target="_top" xlink:title="write class data with BINARY format">
<polygon fill="white" stroke="black" points="133,-0.5 133,-19.5 272,-19.5 272,-0.5 133,-0.5"/>
<text text-anchor="middle" x="202.5" y="-7.5" font-family="Helvetica,sans-Serif" font-size="10.00">ParticleBase::writeBinary</text>
</a>
</g>
</g>
<!-- Node1&#45;&gt;Node3 -->
<g id="edge2" class="edge">
<title>Node1&#45;&gt;Node3</title>
<path fill="none" stroke="midnightblue" d="M97.18,-23.04C105.31,-22.02 113.95,-20.94 122.64,-19.86"/>
<polygon fill="midnightblue" stroke="midnightblue" points="123.35,-23.3 132.84,-18.58 122.48,-16.35 123.35,-23.3"/>
</g>
</g>
</svg>
