<?xml version="1.0" encoding="UTF-8" standalone="no"?>
<!DOCTYPE svg PUBLIC "-//W3C//DTD SVG 1.1//EN"
 "http://www.w3.org/Graphics/SVG/1.1/DTD/svg11.dtd">
<!-- Generated by graphviz version 2.43.0 (0)
 -->
<!-- Title: Ptcl Pages: 1 -->
<svg width="250pt" height="196pt"
 viewBox="0.00 0.00 250.00 196.00" xmlns="http://www.w3.org/2000/svg" xmlns:xlink="http://www.w3.org/1999/xlink">
<g id="graph0" class="graph" transform="scale(1 1) rotate(0) translate(4 192)">
<title>Ptcl</title>
<polygon fill="white" stroke="transparent" points="-4,4 -4,-192 246,-192 246,4 -4,4"/>
<!-- Node1 -->
<g id="node1" class="node">
<title>Node1</title>
<g id="a_node1"><a xlink:title="Particle class.">
<polygon fill="#bfbfbf" stroke="black" points="114.5,-112.5 114.5,-131.5 149.5,-131.5 149.5,-112.5 114.5,-112.5"/>
<text text-anchor="middle" x="132" y="-119.5" font-family="Helvetica,sans-Serif" font-size="10.00">Ptcl</text>
</a>
</g>
</g>
<!-- Node3 -->
<g id="node3" class="node">
<title>Node3</title>
<g id="a_node3"><a xlink:href="classFPSoft.html" target="_top" xlink:title=" ">
<polygon fill="white" stroke="black" points="33.5,-56.5 33.5,-75.5 80.5,-75.5 80.5,-56.5 33.5,-56.5"/>
<text text-anchor="middle" x="57" y="-63.5" font-family="Helvetica,sans-Serif" font-size="10.00">FPSoft</text>
</a>
</g>
</g>
<!-- Node1&#45;&gt;Node3 -->
<g id="edge2" class="edge">
<title>Node1&#45;&gt;Node3</title>
<path fill="none" stroke="midnightblue" d="M111.69,-106.38C98.14,-96.62 80.76,-84.11 69.27,-75.83"/>
<polygon fill="midnightblue" stroke="midnightblue" points="109.79,-109.32 119.95,-112.32 113.88,-103.64 109.79,-109.32"/>
</g>
<!-- Node5 -->
<g id="node5" class="node">
<title>Node5</title>
<g id="a_node5"><a xlink:href="classPtclComm.html" target="_top" xlink:title=" ">
<polygon fill="white" stroke="black" points="98.5,-56.5 98.5,-75.5 165.5,-75.5 165.5,-56.5 98.5,-56.5"/>
<text text-anchor="middle" x="132" y="-63.5" font-family="Helvetica,sans-Serif" font-size="10.00">PtclComm</text>
</a>
</g>
</g>
<!-- Node1&#45;&gt;Node5 -->
<g id="edge4" class="edge">
<title>Node1&#45;&gt;Node5</title>
<path fill="none" stroke="midnightblue" d="M132,-101.8C132,-92.91 132,-82.78 132,-75.75"/>
<polygon fill="midnightblue" stroke="midnightblue" points="128.5,-102.08 132,-112.08 135.5,-102.08 128.5,-102.08"/>
</g>
<!-- Node6 -->
<g id="node6" class="node">
<title>Node6</title>
<g id="a_node6"><a xlink:href="classPtclHard.html" target="_top" xlink:title=" ">
<polygon fill="white" stroke="black" points="184,-56.5 184,-75.5 242,-75.5 242,-56.5 184,-56.5"/>
<text text-anchor="middle" x="213" y="-63.5" font-family="Helvetica,sans-Serif" font-size="10.00">PtclHard</text>
</a>
</g>
</g>
<!-- Node1&#45;&gt;Node6 -->
<g id="edge5" class="edge">
<title>Node1&#45;&gt;Node6</title>
<path fill="none" stroke="midnightblue" d="M153.57,-106.62C168.36,-96.76 187.51,-83.99 200.02,-75.65"/>
<polygon fill="midnightblue" stroke="midnightblue" points="151.39,-103.86 145.01,-112.32 155.28,-109.69 151.39,-103.86"/>
</g>
<!-- Node2 -->
<g id="node2" class="node">
<title>Node2</title>
<g id="a_node2"><a xlink:href="classParticleBase.html" target="_top" xlink:title="Basic particle class.">
<polygon fill="white" stroke="black" points="93.5,-168.5 93.5,-187.5 170.5,-187.5 170.5,-168.5 93.5,-168.5"/>
<text text-anchor="middle" x="132" y="-175.5" font-family="Helvetica,sans-Serif" font-size="10.00">ParticleBase</text>
</a>
</g>
</g>
<!-- Node2&#45;&gt;Node1 -->
<g id="edge1" class="edge">
<title>Node2&#45;&gt;Node1</title>
<path fill="none" stroke="midnightblue" d="M132,-157.8C132,-148.91 132,-138.78 132,-131.75"/>
<polygon fill="midnightblue" stroke="midnightblue" points="128.5,-158.08 132,-168.08 135.5,-158.08 128.5,-158.08"/>
</g>
<!-- Node4 -->
<g id="node4" class="node">
<title>Node4</title>
<g id="a_node4"><a xlink:href="classFPSoftWriteArtificial.html" target="_top" xlink:title="redefine readAscii to read group data format, write in I64 format">
<polygon fill="white" stroke="black" points="0,-0.5 0,-19.5 114,-19.5 114,-0.5 0,-0.5"/>
<text text-anchor="middle" x="57" y="-7.5" font-family="Helvetica,sans-Serif" font-size="10.00">FPSoftWriteArtificial</text>
</a>
</g>
</g>
<!-- Node3&#45;&gt;Node4 -->
<g id="edge3" class="edge">
<title>Node3&#45;&gt;Node4</title>
<path fill="none" stroke="midnightblue" d="M57,-45.8C57,-36.91 57,-26.78 57,-19.75"/>
<polygon fill="midnightblue" stroke="midnightblue" points="53.5,-46.08 57,-56.08 60.5,-46.08 53.5,-46.08"/>
</g>
</g>
</svg>
