<?xml version="1.0" encoding="UTF-8" standalone="no"?>
<!DOCTYPE svg PUBLIC "-//W3C//DTD SVG 1.1//EN"
 "http://www.w3.org/Graphics/SVG/1.1/DTD/svg11.dtd">
<!-- Generated by graphviz version 2.43.0 (0)
 -->
<!-- Title: IOParamsGalpy Pages: 1 -->
<svg width="408pt" height="117pt"
 viewBox="0.00 0.00 408.00 117.00" xmlns="http://www.w3.org/2000/svg" xmlns:xlink="http://www.w3.org/1999/xlink">
<g id="graph0" class="graph" transform="scale(1 1) rotate(0) translate(4 113)">
<title>IOParamsGalpy</title>
<polygon fill="white" stroke="transparent" points="-4,4 -4,-113 404,-113 404,4 -4,4"/>
<!-- Node1 -->
<g id="node1" class="node">
<title>Node1</title>
<g id="a_node1"><a xlink:title="IO parameters for Galpy manager.">
<polygon fill="#bfbfbf" stroke="black" points="142,-0.5 142,-19.5 234,-19.5 234,-0.5 142,-0.5"/>
<text text-anchor="middle" x="188" y="-7.5" font-family="Helvetica,sans-Serif" font-size="10.00">IOParamsGalpy</text>
</a>
</g>
</g>
<!-- Node2 -->
<g id="node2" class="node">
<title>Node2</title>
<g id="a_node2"><a xlink:href="classIOParamsContainer.html" target="_top" xlink:title="IO Params container.">
<polygon fill="white" stroke="black" points="0,-89.5 0,-108.5 110,-108.5 110,-89.5 0,-89.5"/>
<text text-anchor="middle" x="55" y="-96.5" font-family="Helvetica,sans-Serif" font-size="10.00">IOParamsContainer</text>
</a>
</g>
</g>
<!-- Node2&#45;&gt;Node1 -->
<g id="edge1" class="edge">
<title>Node2&#45;&gt;Node1</title>
<path fill="none" stroke="#9a32cd" stroke-dasharray="5,2" d="M65.6,-80.56C74.56,-67.17 88.56,-49.14 105,-38 117.42,-29.59 132.65,-23.64 146.65,-19.52"/>
<polygon fill="#9a32cd" stroke="#9a32cd" points="62.43,-79.02 60,-89.33 68.33,-82.79 62.43,-79.02"/>
<text text-anchor="middle" x="144.5" y="-52" font-family="Helvetica,sans-Serif" font-size="10.00"> input_par_store</text>
</g>
<!-- Node3 -->
<g id="node3" class="node">
<title>Node3</title>
<g id="a_node3"><a xlink:href="structIOParams.html" target="_top" xlink:title=" ">
<polygon fill="white" stroke="black" points="128.5,-89.5 128.5,-108.5 247.5,-108.5 247.5,-89.5 128.5,-89.5"/>
<text text-anchor="middle" x="188" y="-96.5" font-family="Helvetica,sans-Serif" font-size="10.00">IOParams&lt; double &gt;</text>
</a>
</g>
</g>
<!-- Node3&#45;&gt;Node1 -->
<g id="edge2" class="edge">
<title>Node3&#45;&gt;Node1</title>
<path fill="none" stroke="#9a32cd" stroke-dasharray="5,2" d="M188,-79.19C188,-60.74 188,-33.41 188,-19.62"/>
<polygon fill="#9a32cd" stroke="#9a32cd" points="184.5,-79.34 188,-89.34 191.5,-79.34 184.5,-79.34"/>
<text text-anchor="middle" x="205.5" y="-57.5" font-family="Helvetica,sans-Serif" font-size="10.00"> vscale</text>
<text text-anchor="middle" x="205.5" y="-46.5" font-family="Helvetica,sans-Serif" font-size="10.00">rscale</text>
</g>
<!-- Node4 -->
<g id="node4" class="node">
<title>Node4</title>
<g id="a_node4"><a xlink:href="structIOParams.html" target="_top" xlink:title=" ">
<polygon fill="white" stroke="black" points="266,-89.5 266,-108.5 400,-108.5 400,-89.5 266,-89.5"/>
<text text-anchor="middle" x="333" y="-96.5" font-family="Helvetica,sans-Serif" font-size="10.00">IOParams&lt; std::string &gt;</text>
</a>
</g>
</g>
<!-- Node4&#45;&gt;Node1 -->
<g id="edge3" class="edge">
<title>Node4&#45;&gt;Node1</title>
<path fill="none" stroke="#9a32cd" stroke-dasharray="5,2" d="M310.23,-84.34C280.06,-66.24 227.69,-34.82 202.44,-19.66"/>
<polygon fill="#9a32cd" stroke="#9a32cd" points="308.46,-87.36 318.83,-89.5 312.06,-81.35 308.46,-87.36"/>
<text text-anchor="middle" x="327" y="-63" font-family="Helvetica,sans-Serif" font-size="10.00"> pre_define_type</text>
<text text-anchor="middle" x="327" y="-52" font-family="Helvetica,sans-Serif" font-size="10.00">config_filename</text>
<text text-anchor="middle" x="327" y="-41" font-family="Helvetica,sans-Serif" font-size="10.00">type_args</text>
</g>
</g>
</svg>
