<?xml version="1.0" encoding="UTF-8" standalone="no"?>
<!DOCTYPE svg PUBLIC "-//W3C//DTD SVG 1.1//EN"
 "http://www.w3.org/Graphics/SVG/1.1/DTD/svg11.dtd">
<!-- Generated by graphviz version 2.43.0 (0)
 -->
<!-- Title: Stability::stable3body Pages: 1 -->
<svg width="645pt" height="66pt"
 viewBox="0.00 0.00 645.00 66.00" xmlns="http://www.w3.org/2000/svg" xmlns:xlink="http://www.w3.org/1999/xlink">
<g id="graph0" class="graph" transform="scale(1 1) rotate(0) translate(4 62)">
<title>Stability::stable3body</title>
<polygon fill="white" stroke="transparent" points="-4,4 -4,-62 641,-62 641,4 -4,4"/>
<!-- Node1 -->
<g id="node1" class="node">
<title>Node1</title>
<g id="a_node1"><a xlink:title="Three&#45;body stability function.">
<polygon fill="#bfbfbf" stroke="black" points="515,-19.5 515,-38.5 637,-38.5 637,-19.5 515,-19.5"/>
<text text-anchor="middle" x="576" y="-26.5" font-family="Helvetica,sans-Serif" font-size="10.00">Stability::stable3body</text>
</a>
</g>
</g>
<!-- Node2 -->
<g id="node2" class="node">
<title>Node2</title>
<g id="a_node2"><a xlink:href="classStability.html#af78b60bacc16c71e2c09f36cb4c39834" target="_top" xlink:title="Three&#45;body (B&#45;S) stability check.">
<polygon fill="white" stroke="black" points="352,-38.5 352,-57.5 479,-57.5 479,-38.5 352,-38.5"/>
<text text-anchor="middle" x="415.5" y="-45.5" font-family="Helvetica,sans-Serif" font-size="10.00">Stability::stable3check</text>
</a>
</g>
</g>
<!-- Node1&#45;&gt;Node2 -->
<g id="edge1" class="edge">
<title>Node1&#45;&gt;Node2</title>
<path fill="none" stroke="midnightblue" d="M504.7,-37.43C496.16,-38.45 487.49,-39.49 479.07,-40.5"/>
<polygon fill="midnightblue" stroke="midnightblue" points="505.11,-40.9 514.63,-36.24 504.28,-33.95 505.11,-40.9"/>
</g>
<!-- Node5 -->
<g id="node5" class="node">
<title>Node5</title>
<g id="a_node5"><a xlink:href="classStability.html#acb687089da1eb3788a3c320e32855381" target="_top" xlink:title="Four&#45;body (B&#45;B) stability check.">
<polygon fill="white" stroke="black" points="352,-0.5 352,-19.5 479,-19.5 479,-0.5 352,-0.5"/>
<text text-anchor="middle" x="415.5" y="-7.5" font-family="Helvetica,sans-Serif" font-size="10.00">Stability::stable4check</text>
</a>
</g>
</g>
<!-- Node1&#45;&gt;Node5 -->
<g id="edge4" class="edge">
<title>Node1&#45;&gt;Node5</title>
<path fill="none" stroke="midnightblue" d="M504.7,-20.57C496.16,-19.55 487.49,-18.51 479.07,-17.5"/>
<polygon fill="midnightblue" stroke="midnightblue" points="504.28,-24.05 514.63,-21.76 505.11,-17.1 504.28,-24.05"/>
</g>
<!-- Node3 -->
<g id="node3" class="node">
<title>Node3</title>
<g id="a_node3"><a xlink:href="classStability.html#a40355024253599fc1df4d7d1c719412a" target="_top" xlink:title="Stability check iteraction function for BinaryTree.">
<polygon fill="white" stroke="black" points="167,-19.5 167,-38.5 316,-38.5 316,-19.5 167,-19.5"/>
<text text-anchor="middle" x="241.5" y="-26.5" font-family="Helvetica,sans-Serif" font-size="10.00">Stability::stabilityCheckIter</text>
</a>
</g>
</g>
<!-- Node2&#45;&gt;Node3 -->
<g id="edge2" class="edge">
<title>Node2&#45;&gt;Node3</title>
<path fill="none" stroke="midnightblue" d="M341.71,-39.96C333.25,-39.02 324.61,-38.07 316.14,-37.13"/>
<polygon fill="midnightblue" stroke="midnightblue" points="341.59,-43.47 351.92,-41.09 342.36,-36.51 341.59,-43.47"/>
</g>
<!-- Node4 -->
<g id="node4" class="node">
<title>Node4</title>
<g id="a_node4"><a xlink:href="classStability.html#a5a905e57057b65f66e778ef3b8070878" target="_top" xlink:title="Check binary tree and collect stable subtree.">
<polygon fill="white" stroke="black" points="0,-19.5 0,-38.5 131,-38.5 131,-19.5 0,-19.5"/>
<text text-anchor="middle" x="65.5" y="-26.5" font-family="Helvetica,sans-Serif" font-size="10.00">Stability::findStableTree</text>
</a>
</g>
</g>
<!-- Node3&#45;&gt;Node4 -->
<g id="edge3" class="edge">
<title>Node3&#45;&gt;Node4</title>
<path fill="none" stroke="midnightblue" d="M156.88,-29C148.26,-29 139.6,-29 131.23,-29"/>
<polygon fill="midnightblue" stroke="midnightblue" points="156.96,-32.5 166.96,-29 156.96,-25.5 156.96,-32.5"/>
</g>
<!-- Node5&#45;&gt;Node3 -->
<g id="edge5" class="edge">
<title>Node5&#45;&gt;Node3</title>
<path fill="none" stroke="midnightblue" d="M341.71,-18.04C333.25,-18.98 324.61,-19.93 316.14,-20.87"/>
<polygon fill="midnightblue" stroke="midnightblue" points="342.36,-21.49 351.92,-16.91 341.59,-14.53 342.36,-21.49"/>
</g>
</g>
</svg>
