<?xml version="1.0" encoding="UTF-8" standalone="no"?>
<!DOCTYPE svg PUBLIC "-//W3C//DTD SVG 1.1//EN"
 "http://www.w3.org/Graphics/SVG/1.1/DTD/svg11.dtd">
<!-- Generated by graphviz version 2.43.0 (0)
 -->
<!-- Title: IOParamsContainer::readAscii Pages: 1 -->
<svg width="356pt" height="142pt"
 viewBox="0.00 0.00 356.00 142.00" xmlns="http://www.w3.org/2000/svg" xmlns:xlink="http://www.w3.org/1999/xlink">
<g id="graph0" class="graph" transform="scale(1 1) rotate(0) translate(4 138)">
<title>IOParamsContainer::readAscii</title>
<polygon fill="white" stroke="transparent" points="-4,4 -4,-138 352,-138 352,4 -4,4"/>
<!-- Node1 -->
<g id="node1" class="node">
<title>Node1</title>
<g id="a_node1"><a xlink:title=" ">
<polygon fill="#bfbfbf" stroke="black" points="232,-52 232,-82 348,-82 348,-52 232,-52"/>
<text text-anchor="start" x="240" y="-70" font-family="Helvetica,sans-Serif" font-size="10.00">IOParamsContainer::</text>
<text text-anchor="middle" x="290" y="-59" font-family="Helvetica,sans-Serif" font-size="10.00">readAscii</text>
</a>
</g>
</g>
<!-- Node2 -->
<g id="node2" class="node">
<title>Node2</title>
<g id="a_node2"><a xlink:href="hard__debug_8cxx.html#a3c04138a5bfe5d72780bb7e82a18e627" target="_top" xlink:title=" ">
<polygon fill="white" stroke="black" points="116,-114.5 116,-133.5 157,-133.5 157,-114.5 116,-114.5"/>
<text text-anchor="middle" x="136.5" y="-121.5" font-family="Helvetica,sans-Serif" font-size="10.00">main</text>
</a>
</g>
</g>
<!-- Node1&#45;&gt;Node2 -->
<g id="edge1" class="edge">
<title>Node1&#45;&gt;Node2</title>
<path fill="none" stroke="midnightblue" d="M244.66,-85.9C229.34,-92.22 212,-99.14 196,-105 183.16,-109.7 168.54,-114.45 157.12,-118.02"/>
<polygon fill="midnightblue" stroke="midnightblue" points="246.02,-89.12 253.91,-82.05 243.33,-82.66 246.02,-89.12"/>
</g>
<!-- Node3 -->
<g id="node3" class="node">
<title>Node3</title>
<g id="a_node3"><a xlink:href="classIOParamsGalpy.html#a7525714c40a2cc23a672b9f2498dcc3d" target="_top" xlink:title="reading parameters from GNU option API">
<polygon fill="white" stroke="black" points="77,-76.5 77,-95.5 196,-95.5 196,-76.5 77,-76.5"/>
<text text-anchor="middle" x="136.5" y="-83.5" font-family="Helvetica,sans-Serif" font-size="10.00">IOParamsGalpy::read</text>
</a>
</g>
</g>
<!-- Node1&#45;&gt;Node3 -->
<g id="edge2" class="edge">
<title>Node1&#45;&gt;Node3</title>
<path fill="none" stroke="midnightblue" d="M221.78,-75.43C213.22,-76.5 204.52,-77.59 196.12,-78.65"/>
<polygon fill="midnightblue" stroke="midnightblue" points="222.24,-78.9 231.72,-74.18 221.37,-71.95 222.24,-78.9"/>
</g>
<!-- Node5 -->
<g id="node5" class="node">
<title>Node5</title>
<g id="a_node5"><a xlink:href="classIOParamsPeTar.html#aa428da858ec3e53058edeb77b9412075" target="_top" xlink:title="reading parameters from GNU option API">
<polygon fill="white" stroke="black" points="78,-38.5 78,-57.5 195,-57.5 195,-38.5 78,-38.5"/>
<text text-anchor="middle" x="136.5" y="-45.5" font-family="Helvetica,sans-Serif" font-size="10.00">IOParamsPeTar::read</text>
</a>
</g>
</g>
<!-- Node1&#45;&gt;Node5 -->
<g id="edge4" class="edge">
<title>Node1&#45;&gt;Node5</title>
<path fill="none" stroke="midnightblue" d="M221.77,-58.57C212.88,-57.45 203.82,-56.32 195.11,-55.22"/>
<polygon fill="midnightblue" stroke="midnightblue" points="221.37,-62.05 231.72,-59.82 222.24,-55.1 221.37,-62.05"/>
</g>
<!-- Node6 -->
<g id="node6" class="node">
<title>Node6</title>
<g id="a_node6"><a xlink:href="classIOParamsBSE.html#a2312b0c004f47cf752a9c9321acf36eb" target="_top" xlink:title="reading parameters from GNU option API">
<polygon fill="white" stroke="black" points="81.5,-0.5 81.5,-19.5 191.5,-19.5 191.5,-0.5 81.5,-0.5"/>
<text text-anchor="middle" x="136.5" y="-7.5" font-family="Helvetica,sans-Serif" font-size="10.00">IOParamsBSE::read</text>
</a>
</g>
</g>
<!-- Node1&#45;&gt;Node6 -->
<g id="edge5" class="edge">
<title>Node1&#45;&gt;Node6</title>
<path fill="none" stroke="midnightblue" d="M244.66,-48.1C229.34,-41.78 212,-34.86 196,-29 187.08,-25.73 177.29,-22.44 168.31,-19.54"/>
<polygon fill="midnightblue" stroke="midnightblue" points="243.33,-51.34 253.91,-51.95 246.02,-44.88 243.33,-51.34"/>
</g>
<!-- Node4 -->
<g id="node4" class="node">
<title>Node4</title>
<g id="a_node4"><a xlink:href="galpy__test_8cxx.html#a3c04138a5bfe5d72780bb7e82a18e627" target="_top" xlink:title=" ">
<polygon fill="white" stroke="black" points="0,-76.5 0,-95.5 41,-95.5 41,-76.5 0,-76.5"/>
<text text-anchor="middle" x="20.5" y="-83.5" font-family="Helvetica,sans-Serif" font-size="10.00">main</text>
</a>
</g>
</g>
<!-- Node3&#45;&gt;Node4 -->
<g id="edge3" class="edge">
<title>Node3&#45;&gt;Node4</title>
<path fill="none" stroke="midnightblue" d="M66.64,-86C57.37,-86 48.53,-86 41.18,-86"/>
<polygon fill="midnightblue" stroke="midnightblue" points="66.83,-89.5 76.83,-86 66.83,-82.5 66.83,-89.5"/>
</g>
<!-- Node7 -->
<g id="node7" class="node">
<title>Node7</title>
<g id="a_node7"><a xlink:href="bse__test_8cxx.html#a3c04138a5bfe5d72780bb7e82a18e627" target="_top" xlink:title=" ">
<polygon fill="white" stroke="black" points="0,-0.5 0,-19.5 41,-19.5 41,-0.5 0,-0.5"/>
<text text-anchor="middle" x="20.5" y="-7.5" font-family="Helvetica,sans-Serif" font-size="10.00">main</text>
</a>
</g>
</g>
<!-- Node6&#45;&gt;Node7 -->
<g id="edge6" class="edge">
<title>Node6&#45;&gt;Node7</title>
<path fill="none" stroke="midnightblue" d="M71.1,-10C60.2,-10 49.66,-10 41.12,-10"/>
<polygon fill="midnightblue" stroke="midnightblue" points="71.17,-13.5 81.17,-10 71.17,-6.5 71.17,-13.5"/>
</g>
</g>
</svg>
