<?xml version="1.0" encoding="UTF-8" standalone="no"?>
<!DOCTYPE svg PUBLIC "-//W3C//DTD SVG 1.1//EN"
 "http://www.w3.org/Graphics/SVG/1.1/DTD/svg11.dtd">
<!-- Generated by graphviz version 2.43.0 (0)
 -->
<!-- Title: BSEManager::getTimeStepBinary Pages: 1 -->
<svg width="489pt" height="47pt"
 viewBox="0.00 0.00 489.00 47.00" xmlns="http://www.w3.org/2000/svg" xmlns:xlink="http://www.w3.org/1999/xlink">
<g id="graph0" class="graph" transform="scale(1 1) rotate(0) translate(4 43)">
<title>BSEManager::getTimeStepBinary</title>
<polygon fill="white" stroke="transparent" points="-4,4 -4,-43 485,-43 485,4 -4,4"/>
<!-- Node1 -->
<g id="node1" class="node">
<title>Node1</title>
<g id="a_node1"><a xlink:title="call BSE evolv2 for a binary">
<polygon fill="#bfbfbf" stroke="black" points="0,-0.5 0,-19.5 178,-19.5 178,-0.5 0,-0.5"/>
<text text-anchor="middle" x="89" y="-7.5" font-family="Helvetica,sans-Serif" font-size="10.00">BSEManager::getTimeStepBinary</text>
</a>
</g>
</g>
<!-- Node2 -->
<g id="node2" class="node">
<title>Node2</title>
<g id="a_node2"><a xlink:href="classBSEManager.html#a9acfef87a65d61fd52406121f3f3d35d" target="_top" xlink:title="get next time step to check in Myr">
<polygon fill="white" stroke="black" points="214,-19.5 214,-38.5 380,-38.5 380,-19.5 214,-19.5"/>
<text text-anchor="middle" x="297" y="-26.5" font-family="Helvetica,sans-Serif" font-size="10.00">BSEManager::getTimeStepStar</text>
</a>
</g>
</g>
<!-- Node1&#45;&gt;Node2 -->
<g id="edge1" class="edge">
<title>Node1&#45;&gt;Node2</title>
<path fill="none" stroke="midnightblue" d="M178.26,-18.14C186.64,-18.91 195.16,-19.7 203.58,-20.48"/>
<polygon fill="midnightblue" stroke="midnightblue" points="203.52,-23.98 213.79,-21.42 204.16,-17.01 203.52,-23.98"/>
</g>
<!-- Node3 -->
<g id="node3" class="node">
<title>Node3</title>
<g id="a_node3"><a xlink:href="namespacePIKG.html#aab82f0106f14677daa09a64a269eaadf" target="_top" xlink:title=" ">
<polygon fill="white" stroke="black" points="416,-0.5 416,-19.5 481,-19.5 481,-0.5 416,-0.5"/>
<text text-anchor="middle" x="448.5" y="-7.5" font-family="Helvetica,sans-Serif" font-size="10.00">PIKG::min</text>
</a>
</g>
</g>
<!-- Node1&#45;&gt;Node3 -->
<g id="edge3" class="edge">
<title>Node1&#45;&gt;Node3</title>
<path fill="none" stroke="midnightblue" d="M178.37,-10C250.83,-10 350.17,-10 405.65,-10"/>
<polygon fill="midnightblue" stroke="midnightblue" points="405.82,-13.5 415.82,-10 405.82,-6.5 405.82,-13.5"/>
</g>
<!-- Node2&#45;&gt;Node3 -->
<g id="edge2" class="edge">
<title>Node2&#45;&gt;Node3</title>
<path fill="none" stroke="midnightblue" d="M373.19,-19.44C384.3,-18.03 395.41,-16.62 405.52,-15.34"/>
<polygon fill="midnightblue" stroke="midnightblue" points="406.17,-18.78 415.65,-14.05 405.29,-11.84 406.17,-18.78"/>
</g>
</g>
</svg>
