<?xml version="1.0" encoding="UTF-8" standalone="no"?>
<!DOCTYPE svg PUBLIC "-//W3C//DTD SVG 1.1//EN"
 "http://www.w3.org/Graphics/SVG/1.1/DTD/svg11.dtd">
<!-- Generated by graphviz version 2.43.0 (0)
 -->
<!-- Title: Ptcl::printColumnWithOffset Pages: 1 -->
<svg width="534pt" height="127pt"
 viewBox="0.00 0.00 534.00 126.50" xmlns="http://www.w3.org/2000/svg" xmlns:xlink="http://www.w3.org/1999/xlink">
<g id="graph0" class="graph" transform="scale(1 1) rotate(0) translate(4 122.5)">
<title>Ptcl::printColumnWithOffset</title>
<polygon fill="white" stroke="transparent" points="-4,4 -4,-122.5 530,-122.5 530,4 -4,4"/>
<!-- Node1 -->
<g id="node1" class="node">
<title>Node1</title>
<g id="a_node1"><a xlink:title="print data of class members with pos and vel offset using column style">
<polygon fill="#bfbfbf" stroke="black" points="0,-55 0,-74 152,-74 152,-55 0,-55"/>
<text text-anchor="middle" x="76" y="-62" font-family="Helvetica,sans-Serif" font-size="10.00">Ptcl::printColumnWithOffset</text>
</a>
</g>
</g>
<!-- Node2 -->
<g id="node2" class="node">
<title>Node2</title>
<g id="a_node2"><a xlink:href="classChangeOver.html#a311e67bfac2687a70e3aba5c4d68a65a" target="_top" xlink:title="print data of class members using column style">
<polygon fill="white" stroke="black" points="191.5,-99 191.5,-118 334.5,-118 334.5,-99 191.5,-99"/>
<text text-anchor="middle" x="263" y="-106" font-family="Helvetica,sans-Serif" font-size="10.00">ChangeOver::printColumn</text>
</a>
</g>
</g>
<!-- Node1&#45;&gt;Node2 -->
<g id="edge1" class="edge">
<title>Node1&#45;&gt;Node2</title>
<path fill="none" stroke="midnightblue" d="M117.14,-74.05C145.02,-80.68 182.36,-89.56 212.15,-96.64"/>
<polygon fill="midnightblue" stroke="midnightblue" points="211.4,-100.06 221.94,-98.97 213.02,-93.25 211.4,-100.06"/>
</g>
<!-- Node3 -->
<g id="node3" class="node">
<title>Node3</title>
<g id="a_node3"><a xlink:href="classArtificialParticleInformation.html#aae6803a0a64539a263e8d6c8499c6969" target="_top" xlink:title="print data of class members using column style">
<polygon fill="white" stroke="black" points="188,-49.5 188,-79.5 338,-79.5 338,-49.5 188,-49.5"/>
<text text-anchor="start" x="196" y="-67.5" font-family="Helvetica,sans-Serif" font-size="10.00">ArtificialParticleInformation</text>
<text text-anchor="middle" x="263" y="-56.5" font-family="Helvetica,sans-Serif" font-size="10.00">::printColumn</text>
</a>
</g>
</g>
<!-- Node1&#45;&gt;Node3 -->
<g id="edge2" class="edge">
<title>Node1&#45;&gt;Node3</title>
<path fill="none" stroke="midnightblue" d="M152.25,-64.5C160.57,-64.5 169.08,-64.5 177.51,-64.5"/>
<polygon fill="midnightblue" stroke="midnightblue" points="177.72,-68 187.72,-64.5 177.72,-61 177.72,-68"/>
</g>
<!-- Node4 -->
<g id="node4" class="node">
<title>Node4</title>
<g id="a_node4"><a xlink:href="classParticleBase.html#accf33b8bed2326ee349439a7ae3e0768" target="_top" xlink:title="print data of class members with pos and vel offset using column style">
<polygon fill="white" stroke="black" points="191.5,-0.5 191.5,-30.5 334.5,-30.5 334.5,-0.5 191.5,-0.5"/>
<text text-anchor="start" x="199.5" y="-18.5" font-family="Helvetica,sans-Serif" font-size="10.00">ParticleBase::printColumn</text>
<text text-anchor="middle" x="263" y="-7.5" font-family="Helvetica,sans-Serif" font-size="10.00">WithOffset</text>
</a>
</g>
</g>
<!-- Node1&#45;&gt;Node4 -->
<g id="edge3" class="edge">
<title>Node1&#45;&gt;Node4</title>
<path fill="none" stroke="midnightblue" d="M113.11,-54.94C136.53,-48.73 167.75,-40.46 195.55,-33.1"/>
<polygon fill="midnightblue" stroke="midnightblue" points="196.46,-36.48 205.23,-30.54 194.66,-29.71 196.46,-36.48"/>
</g>
<!-- Node5 -->
<g id="node5" class="node">
<title>Node5</title>
<g id="a_node5"><a xlink:href="structStarParameter.html#a139a2ca192579fe938f35764d2e633ac" target="_top" xlink:title="print data of class members using column style">
<polygon fill="white" stroke="black" points="374,-6 374,-25 526,-25 526,-6 374,-6"/>
<text text-anchor="middle" x="450" y="-13" font-family="Helvetica,sans-Serif" font-size="10.00">StarParameter::printColumn</text>
</a>
</g>
</g>
<!-- Node4&#45;&gt;Node5 -->
<g id="edge4" class="edge">
<title>Node4&#45;&gt;Node5</title>
<path fill="none" stroke="midnightblue" d="M334.73,-15.5C344.2,-15.5 353.98,-15.5 363.66,-15.5"/>
<polygon fill="midnightblue" stroke="midnightblue" points="363.69,-19 373.69,-15.5 363.69,-12 363.69,-19"/>
</g>
</g>
</svg>
