<?xml version="1.0" encoding="UTF-8" standalone="no"?>
<!DOCTYPE svg PUBLIC "-//W3C//DTD SVG 1.1//EN"
 "http://www.w3.org/Graphics/SVG/1.1/DTD/svg11.dtd">
<!-- Generated by graphviz version 2.43.0 (0)
 -->
<!-- Title: PseudoParticleMultipoleManager::writeBinary Pages: 1 -->
<svg width="537pt" height="39pt"
 viewBox="0.00 0.00 537.00 39.00" xmlns="http://www.w3.org/2000/svg" xmlns:xlink="http://www.w3.org/1999/xlink">
<g id="graph0" class="graph" transform="scale(1 1) rotate(0) translate(4 35)">
<title>PseudoParticleMultipoleManager::writeBinary</title>
<polygon fill="white" stroke="transparent" points="-4,4 -4,-35 533,-35 533,4 -4,4"/>
<!-- Node1 -->
<g id="node1" class="node">
<title>Node1</title>
<g id="a_node1"><a xlink:title="write class data to file with binary format">
<polygon fill="#bfbfbf" stroke="black" points="353,-0.5 353,-30.5 529,-30.5 529,-0.5 353,-0.5"/>
<text text-anchor="start" x="361" y="-18.5" font-family="Helvetica,sans-Serif" font-size="10.00">PseudoParticleMultipoleManager</text>
<text text-anchor="middle" x="441" y="-7.5" font-family="Helvetica,sans-Serif" font-size="10.00">::writeBinary</text>
</a>
</g>
</g>
<!-- Node2 -->
<g id="node2" class="node">
<title>Node2</title>
<g id="a_node2"><a xlink:href="classArtificialParticleManager.html#a698866484c3996742d3f2cc472d43976" target="_top" xlink:title="write class data to file with binary format">
<polygon fill="white" stroke="black" points="181,-0.5 181,-30.5 317,-30.5 317,-0.5 181,-0.5"/>
<text text-anchor="start" x="189" y="-18.5" font-family="Helvetica,sans-Serif" font-size="10.00">ArtificialParticleManager</text>
<text text-anchor="middle" x="249" y="-7.5" font-family="Helvetica,sans-Serif" font-size="10.00">::writeBinary</text>
</a>
</g>
</g>
<!-- Node1&#45;&gt;Node2 -->
<g id="edge1" class="edge">
<title>Node1&#45;&gt;Node2</title>
<path fill="none" stroke="midnightblue" d="M342.64,-15.5C333.99,-15.5 325.37,-15.5 317.06,-15.5"/>
<polygon fill="midnightblue" stroke="midnightblue" points="342.79,-19 352.79,-15.5 342.79,-12 342.79,-19"/>
</g>
<!-- Node3 -->
<g id="node3" class="node">
<title>Node3</title>
<g id="a_node3"><a xlink:href="classHardManager.html#accedec239afc4e94f6120b9fb7704860" target="_top" xlink:title="write class data to file with binary format">
<polygon fill="white" stroke="black" points="0,-6 0,-25 145,-25 145,-6 0,-6"/>
<text text-anchor="middle" x="72.5" y="-13" font-family="Helvetica,sans-Serif" font-size="10.00">HardManager::writeBinary</text>
</a>
</g>
</g>
<!-- Node2&#45;&gt;Node3 -->
<g id="edge2" class="edge">
<title>Node2&#45;&gt;Node3</title>
<path fill="none" stroke="midnightblue" d="M170.37,-15.5C161.97,-15.5 153.45,-15.5 145.12,-15.5"/>
<polygon fill="midnightblue" stroke="midnightblue" points="170.53,-19 180.53,-15.5 170.53,-12 170.53,-19"/>
</g>
</g>
</svg>
