<?xml version="1.0" encoding="UTF-8" standalone="no"?>
<!DOCTYPE svg PUBLIC "-//W3C//DTD SVG 1.1//EN"
 "http://www.w3.org/Graphics/SVG/1.1/DTD/svg11.dtd">
<!-- Generated by graphviz version 2.43.0 (0)
 -->
<!-- Title: Ptcl::printColumnTitle Pages: 1 -->
<svg width="324pt" height="78pt"
 viewBox="0.00 0.00 324.00 77.50" xmlns="http://www.w3.org/2000/svg" xmlns:xlink="http://www.w3.org/1999/xlink">
<g id="graph0" class="graph" transform="scale(1 1) rotate(0) translate(4 73.5)">
<title>Ptcl::printColumnTitle</title>
<polygon fill="white" stroke="transparent" points="-4,4 -4,-73.5 320,-73.5 320,4 -4,4"/>
<!-- Node1 -->
<g id="node1" class="node">
<title>Node1</title>
<g id="a_node1"><a xlink:title="print titles of class members using column style">
<polygon fill="#bfbfbf" stroke="black" points="194,-28 194,-47 316,-47 316,-28 194,-28"/>
<text text-anchor="middle" x="255" y="-35" font-family="Helvetica,sans-Serif" font-size="10.00">Ptcl::printColumnTitle</text>
</a>
</g>
</g>
<!-- Node2 -->
<g id="node2" class="node">
<title>Node2</title>
<g id="a_node2"><a xlink:href="classFPSoft.html#a4cbe93e19bf733b7205c0830fb315781" target="_top" xlink:title="print titles of class members using column style">
<polygon fill="white" stroke="black" points="11.5,-50 11.5,-69 146.5,-69 146.5,-50 11.5,-50"/>
<text text-anchor="middle" x="79" y="-57" font-family="Helvetica,sans-Serif" font-size="10.00">FPSoft::printColumnTitle</text>
</a>
</g>
</g>
<!-- Node1&#45;&gt;Node2 -->
<g id="edge1" class="edge">
<title>Node1&#45;&gt;Node2</title>
<path fill="none" stroke="midnightblue" d="M183.5,-46.41C171.28,-47.96 158.61,-49.56 146.5,-51.09"/>
<polygon fill="midnightblue" stroke="midnightblue" points="184.15,-49.86 193.63,-45.13 183.27,-42.91 184.15,-49.86"/>
</g>
<!-- Node3 -->
<g id="node3" class="node">
<title>Node3</title>
<g id="a_node3"><a xlink:href="classHardIntegrator.html#a8e653811df1937f18bc66d6cc0c81750" target="_top" xlink:title="print interrupt binary information">
<polygon fill="white" stroke="black" points="0,-0.5 0,-30.5 158,-30.5 158,-0.5 0,-0.5"/>
<text text-anchor="start" x="8" y="-18.5" font-family="Helvetica,sans-Serif" font-size="10.00">HardIntegrator::printInterrupt</text>
<text text-anchor="middle" x="79" y="-7.5" font-family="Helvetica,sans-Serif" font-size="10.00">BinaryInfo</text>
</a>
</g>
</g>
<!-- Node1&#45;&gt;Node3 -->
<g id="edge2" class="edge">
<title>Node1&#45;&gt;Node3</title>
<path fill="none" stroke="midnightblue" d="M183.52,-28.59C175.13,-27.53 166.53,-26.44 158.04,-25.37"/>
<polygon fill="midnightblue" stroke="midnightblue" points="183.27,-32.09 193.63,-29.87 184.15,-25.14 183.27,-32.09"/>
</g>
</g>
</svg>
