<?xml version="1.0" encoding="UTF-8" standalone="no"?>
<!DOCTYPE svg PUBLIC "-//W3C//DTD SVG 1.1//EN"
 "http://www.w3.org/Graphics/SVG/1.1/DTD/svg11.dtd">
<!-- Generated by graphviz version 2.43.0 (0)
 -->
<!-- Title: SystemHard::checkParams Pages: 1 -->
<svg width="728pt" height="78pt"
 viewBox="0.00 0.00 728.00 77.50" xmlns="http://www.w3.org/2000/svg" xmlns:xlink="http://www.w3.org/1999/xlink">
<g id="graph0" class="graph" transform="scale(1 1) rotate(0) translate(4 73.5)">
<title>SystemHard::checkParams</title>
<polygon fill="white" stroke="transparent" points="-4,4 -4,-73.5 724,-73.5 724,4 -4,4"/>
<!-- Node1 -->
<g id="node1" class="node">
<title>Node1</title>
<g id="a_node1"><a xlink:title="check paramters">
<polygon fill="#bfbfbf" stroke="black" points="0,-22.5 0,-41.5 147,-41.5 147,-22.5 0,-22.5"/>
<text text-anchor="middle" x="73.5" y="-29.5" font-family="Helvetica,sans-Serif" font-size="10.00">SystemHard::checkParams</text>
</a>
</g>
</g>
<!-- Node2 -->
<g id="node2" class="node">
<title>Node2</title>
<g id="a_node2"><a xlink:href="classHardManager.html#af7548086113d591778ce878a53dad036" target="_top" xlink:title="check paramters">
<polygon fill="white" stroke="black" points="183,-22.5 183,-41.5 336,-41.5 336,-22.5 183,-22.5"/>
<text text-anchor="middle" x="259.5" y="-29.5" font-family="Helvetica,sans-Serif" font-size="10.00">HardManager::checkParams</text>
</a>
</g>
</g>
<!-- Node1&#45;&gt;Node2 -->
<g id="edge1" class="edge">
<title>Node1&#45;&gt;Node2</title>
<path fill="none" stroke="midnightblue" d="M147.22,-32C155.67,-32 164.34,-32 172.94,-32"/>
<polygon fill="midnightblue" stroke="midnightblue" points="172.98,-35.5 182.98,-32 172.98,-28.5 172.98,-35.5"/>
</g>
<!-- Node3 -->
<g id="node3" class="node">
<title>Node3</title>
<g id="a_node3"><a xlink:href="classArtificialParticleManager.html#ae62470120fa13e433cdf3f5433f452cb" target="_top" xlink:title="check paramters">
<polygon fill="white" stroke="black" points="372,-17 372,-47 508,-47 508,-17 372,-17"/>
<text text-anchor="start" x="380" y="-35" font-family="Helvetica,sans-Serif" font-size="10.00">ArtificialParticleManager</text>
<text text-anchor="middle" x="440" y="-24" font-family="Helvetica,sans-Serif" font-size="10.00">::checkParams</text>
</a>
</g>
</g>
<!-- Node2&#45;&gt;Node3 -->
<g id="edge2" class="edge">
<title>Node2&#45;&gt;Node3</title>
<path fill="none" stroke="midnightblue" d="M336.2,-32C344.64,-32 353.25,-32 361.72,-32"/>
<polygon fill="midnightblue" stroke="midnightblue" points="361.95,-35.5 371.95,-32 361.95,-28.5 361.95,-35.5"/>
</g>
<!-- Node4 -->
<g id="node4" class="node">
<title>Node4</title>
<g id="a_node4"><a xlink:href="classPseudoParticleMultipoleManager.html#ae68e816c46f10c7c2febed760dffd13d" target="_top" xlink:title="check paramters">
<polygon fill="white" stroke="black" points="544,-39 544,-69 720,-69 720,-39 544,-39"/>
<text text-anchor="start" x="552" y="-57" font-family="Helvetica,sans-Serif" font-size="10.00">PseudoParticleMultipoleManager</text>
<text text-anchor="middle" x="632" y="-46" font-family="Helvetica,sans-Serif" font-size="10.00">::checkParams</text>
</a>
</g>
</g>
<!-- Node3&#45;&gt;Node4 -->
<g id="edge3" class="edge">
<title>Node3&#45;&gt;Node4</title>
<path fill="none" stroke="midnightblue" d="M508.25,-39.79C516.54,-40.75 525.14,-41.74 533.76,-42.74"/>
<polygon fill="midnightblue" stroke="midnightblue" points="533.53,-46.24 543.87,-43.91 534.34,-39.28 533.53,-46.24"/>
</g>
<!-- Node5 -->
<g id="node5" class="node">
<title>Node5</title>
<g id="a_node5"><a xlink:href="classTidalTensor.html#a668eb0fe71a2fe1bdad53572a74d2224" target="_top" xlink:title="get particle number">
<polygon fill="white" stroke="black" points="563.5,-0.5 563.5,-19.5 700.5,-19.5 700.5,-0.5 563.5,-0.5"/>
<text text-anchor="middle" x="632" y="-7.5" font-family="Helvetica,sans-Serif" font-size="10.00">TidalTensor::getParticleN</text>
</a>
</g>
</g>
<!-- Node3&#45;&gt;Node5 -->
<g id="edge4" class="edge">
<title>Node3&#45;&gt;Node5</title>
<path fill="none" stroke="midnightblue" d="M508.25,-24.21C522.74,-22.54 538.17,-20.75 553.02,-19.03"/>
<polygon fill="midnightblue" stroke="midnightblue" points="553.66,-22.48 563.2,-17.85 552.86,-15.52 553.66,-22.48"/>
</g>
</g>
</svg>
