<?xml version="1.0" encoding="UTF-8" standalone="no"?>
<!DOCTYPE svg PUBLIC "-//W3C//DTD SVG 1.1//EN"
 "http://www.w3.org/Graphics/SVG/1.1/DTD/svg11.dtd">
<!-- Generated by graphviz version 2.43.0 (0)
 -->
<!-- Title: BSEManager::evolveStar Pages: 1 -->
<svg width="330pt" height="78pt"
 viewBox="0.00 0.00 330.00 77.50" xmlns="http://www.w3.org/2000/svg" xmlns:xlink="http://www.w3.org/1999/xlink">
<g id="graph0" class="graph" transform="scale(1 1) rotate(0) translate(4 73.5)">
<title>BSEManager::evolveStar</title>
<polygon fill="white" stroke="transparent" points="-4,4 -4,-73.5 326,-73.5 326,4 -4,4"/>
<!-- Node1 -->
<g id="node1" class="node">
<title>Node1</title>
<g id="a_node1"><a xlink:title="call SSE evolv1 for single star">
<polygon fill="#bfbfbf" stroke="black" points="185,-28 185,-47 322,-47 322,-28 185,-28"/>
<text text-anchor="middle" x="253.5" y="-35" font-family="Helvetica,sans-Serif" font-size="10.00">BSEManager::evolveStar</text>
</a>
</g>
</g>
<!-- Node2 -->
<g id="node2" class="node">
<title>Node2</title>
<g id="a_node2"><a xlink:href="classBSEManager.html#ada11ffd4ad9e05137395b74ba5b6d610" target="_top" xlink:title="call evolv2 for a binary">
<polygon fill="white" stroke="black" points="0,-50 0,-69 149,-69 149,-50 0,-50"/>
<text text-anchor="middle" x="74.5" y="-57" font-family="Helvetica,sans-Serif" font-size="10.00">BSEManager::evolveBinary</text>
</a>
</g>
</g>
<!-- Node1&#45;&gt;Node2 -->
<g id="edge1" class="edge">
<title>Node1&#45;&gt;Node2</title>
<path fill="none" stroke="midnightblue" d="M174.84,-47.15C166.27,-48.22 157.55,-49.3 149.03,-50.36"/>
<polygon fill="midnightblue" stroke="midnightblue" points="175.33,-50.62 184.83,-45.91 174.47,-43.67 175.33,-50.62"/>
</g>
<!-- Node3 -->
<g id="node3" class="node">
<title>Node3</title>
<g id="a_node3"><a xlink:href="classARInteraction.html#a01115b0f522974cd9e5f0ecd3ef57663" target="_top" xlink:title="(Necessary) modify one particle function">
<polygon fill="white" stroke="black" points="3.5,-0.5 3.5,-30.5 145.5,-30.5 145.5,-0.5 3.5,-0.5"/>
<text text-anchor="start" x="11.5" y="-18.5" font-family="Helvetica,sans-Serif" font-size="10.00">ARInteraction::modifyOne</text>
<text text-anchor="middle" x="74.5" y="-7.5" font-family="Helvetica,sans-Serif" font-size="10.00">Particle</text>
</a>
</g>
</g>
<!-- Node1&#45;&gt;Node3 -->
<g id="edge2" class="edge">
<title>Node1&#45;&gt;Node3</title>
<path fill="none" stroke="midnightblue" d="M174.84,-27.85C165.17,-26.65 155.33,-25.42 145.78,-24.24"/>
<polygon fill="midnightblue" stroke="midnightblue" points="174.47,-31.33 184.83,-29.09 175.33,-24.38 174.47,-31.33"/>
</g>
</g>
</svg>
