<?xml version="1.0" encoding="UTF-8" standalone="no"?>
<!DOCTYPE svg PUBLIC "-//W3C//DTD SVG 1.1//EN"
 "http://www.w3.org/Graphics/SVG/1.1/DTD/svg11.dtd">
<!-- Generated by graphviz version 2.43.0 (0)
 -->
<!-- Title: FPSoftWriteArtificial Pages: 1 -->
<svg width="326pt" height="276pt"
 viewBox="0.00 0.00 325.50 276.00" xmlns="http://www.w3.org/2000/svg" xmlns:xlink="http://www.w3.org/1999/xlink">
<g id="graph0" class="graph" transform="scale(1 1) rotate(0) translate(4 272)">
<title>FPSoftWriteArtificial</title>
<polygon fill="white" stroke="transparent" points="-4,4 -4,-272 321.5,-272 321.5,4 -4,4"/>
<!-- Node1 -->
<g id="node1" class="node">
<title>Node1</title>
<g id="a_node1"><a xlink:title="redefine readAscii to read group data format, write in I64 format">
<polygon fill="#bfbfbf" stroke="black" points="76.5,-0.5 76.5,-19.5 190.5,-19.5 190.5,-0.5 76.5,-0.5"/>
<text text-anchor="middle" x="133.5" y="-7.5" font-family="Helvetica,sans-Serif" font-size="10.00">FPSoftWriteArtificial</text>
</a>
</g>
</g>
<!-- Node2 -->
<g id="node2" class="node">
<title>Node2</title>
<g id="a_node2"><a xlink:href="classFPSoft.html" target="_top" xlink:title=" ">
<polygon fill="white" stroke="black" points="110,-57.5 110,-76.5 157,-76.5 157,-57.5 110,-57.5"/>
<text text-anchor="middle" x="133.5" y="-64.5" font-family="Helvetica,sans-Serif" font-size="10.00">FPSoft</text>
</a>
</g>
</g>
<!-- Node2&#45;&gt;Node1 -->
<g id="edge1" class="edge">
<title>Node2&#45;&gt;Node1</title>
<path fill="none" stroke="midnightblue" d="M133.5,-47.12C133.5,-37.82 133.5,-27.06 133.5,-19.71"/>
<polygon fill="midnightblue" stroke="midnightblue" points="130,-47.41 133.5,-57.41 137,-47.41 130,-47.41"/>
</g>
<!-- Node3 -->
<g id="node3" class="node">
<title>Node3</title>
<g id="a_node3"><a xlink:href="classPtcl.html" target="_top" xlink:title="Particle class.">
<polygon fill="white" stroke="black" points="116,-114.5 116,-133.5 151,-133.5 151,-114.5 116,-114.5"/>
<text text-anchor="middle" x="133.5" y="-121.5" font-family="Helvetica,sans-Serif" font-size="10.00">Ptcl</text>
</a>
</g>
</g>
<!-- Node3&#45;&gt;Node2 -->
<g id="edge2" class="edge">
<title>Node3&#45;&gt;Node2</title>
<path fill="none" stroke="midnightblue" d="M133.5,-104.12C133.5,-94.82 133.5,-84.06 133.5,-76.71"/>
<polygon fill="midnightblue" stroke="midnightblue" points="130,-104.41 133.5,-114.41 137,-104.41 130,-104.41"/>
</g>
<!-- Node4 -->
<g id="node4" class="node">
<title>Node4</title>
<g id="a_node4"><a xlink:href="classParticleBase.html" target="_top" xlink:title="Basic particle class.">
<polygon fill="white" stroke="black" points="0,-181.5 0,-200.5 77,-200.5 77,-181.5 0,-181.5"/>
<text text-anchor="middle" x="38.5" y="-188.5" font-family="Helvetica,sans-Serif" font-size="10.00">ParticleBase</text>
</a>
</g>
</g>
<!-- Node4&#45;&gt;Node3 -->
<g id="edge3" class="edge">
<title>Node4&#45;&gt;Node3</title>
<path fill="none" stroke="midnightblue" d="M59.81,-175.42C78.59,-162.57 105.32,-144.28 120.89,-133.63"/>
<polygon fill="midnightblue" stroke="midnightblue" points="57.59,-172.7 51.31,-181.23 61.54,-178.48 57.59,-172.7"/>
</g>
<!-- Node5 -->
<g id="node5" class="node">
<title>Node5</title>
<g id="a_node5"><a xlink:href="classChangeOver.html" target="_top" xlink:title="Changeover function class.">
<polygon fill="white" stroke="black" points="95,-181.5 95,-200.5 172,-200.5 172,-181.5 95,-181.5"/>
<text text-anchor="middle" x="133.5" y="-188.5" font-family="Helvetica,sans-Serif" font-size="10.00">ChangeOver</text>
</a>
</g>
</g>
<!-- Node5&#45;&gt;Node3 -->
<g id="edge4" class="edge">
<title>Node5&#45;&gt;Node3</title>
<path fill="none" stroke="#9a32cd" stroke-dasharray="5,2" d="M133.5,-171.04C133.5,-158.67 133.5,-143.12 133.5,-133.63"/>
<polygon fill="#9a32cd" stroke="#9a32cd" points="130,-171.23 133.5,-181.23 137,-171.23 130,-171.23"/>
<text text-anchor="middle" x="164" y="-155" font-family="Helvetica,sans-Serif" font-size="10.00"> changeover</text>
</g>
<!-- Node6 -->
<g id="node6" class="node">
<title>Node6</title>
<g id="a_node6"><a xlink:href="unionGroupDataDeliver.html" target="_top" xlink:title="group data delivery, used for two purpose">
<polygon fill="white" stroke="black" points="190.5,-181.5 190.5,-200.5 294.5,-200.5 294.5,-181.5 190.5,-181.5"/>
<text text-anchor="middle" x="242.5" y="-188.5" font-family="Helvetica,sans-Serif" font-size="10.00">GroupDataDeliver</text>
</a>
</g>
</g>
<!-- Node6&#45;&gt;Node3 -->
<g id="edge5" class="edge">
<title>Node6&#45;&gt;Node3</title>
<path fill="none" stroke="#9a32cd" stroke-dasharray="5,2" d="M226.61,-174.09C218.65,-166.71 208.57,-158.22 198.5,-152 183.42,-142.69 164.57,-135.27 151.06,-130.58"/>
<polygon fill="#9a32cd" stroke="#9a32cd" points="224.42,-176.84 234.06,-181.24 229.27,-171.79 224.42,-176.84"/>
<text text-anchor="middle" x="241.5" y="-155" font-family="Helvetica,sans-Serif" font-size="10.00"> group_data</text>
</g>
<!-- Node7 -->
<g id="node7" class="node">
<title>Node7</title>
<g id="a_node7"><a xlink:href="classArtificialParticleInformation.html" target="_top" xlink:title="class to store necessary information for using artificial particles">
<polygon fill="white" stroke="black" points="167.5,-248.5 167.5,-267.5 317.5,-267.5 317.5,-248.5 167.5,-248.5"/>
<text text-anchor="middle" x="242.5" y="-255.5" font-family="Helvetica,sans-Serif" font-size="10.00">ArtificialParticleInformation</text>
</a>
</g>
</g>
<!-- Node7&#45;&gt;Node6 -->
<g id="edge6" class="edge">
<title>Node7&#45;&gt;Node6</title>
<path fill="none" stroke="#9a32cd" stroke-dasharray="5,2" d="M242.5,-238.04C242.5,-225.67 242.5,-210.12 242.5,-200.63"/>
<polygon fill="#9a32cd" stroke="#9a32cd" points="239,-238.23 242.5,-248.23 246,-238.23 239,-238.23"/>
<text text-anchor="middle" x="264" y="-222" font-family="Helvetica,sans-Serif" font-size="10.00"> artificial</text>
</g>
</g>
</svg>
