<?xml version="1.0" encoding="UTF-8" standalone="no"?>
<!DOCTYPE svg PUBLIC "-//W3C//DTD SVG 1.1//EN"
 "http://www.w3.org/Graphics/SVG/1.1/DTD/svg11.dtd">
<!-- Generated by graphviz version 2.43.0 (0)
 -->
<!-- Title: ArtificialParticleManager::correctArtficialParticleForce Pages: 1 -->
<svg width="744pt" height="149pt"
 viewBox="0.00 0.00 744.00 148.50" xmlns="http://www.w3.org/2000/svg" xmlns:xlink="http://www.w3.org/1999/xlink">
<g id="graph0" class="graph" transform="scale(1 1) rotate(0) translate(4 144.5)">
<title>ArtificialParticleManager::correctArtficialParticleForce</title>
<polygon fill="white" stroke="transparent" points="-4,4 -4,-144.5 740,-144.5 740,4 -4,4"/>
<!-- Node1 -->
<g id="node1" class="node">
<title>Node1</title>
<g id="a_node1"><a xlink:title="correct artificial particles force for furture use">
<polygon fill="#bfbfbf" stroke="black" points="0,-39 0,-69 156,-69 156,-39 0,-39"/>
<text text-anchor="start" x="8" y="-57" font-family="Helvetica,sans-Serif" font-size="10.00">ArtificialParticleManager</text>
<text text-anchor="middle" x="78" y="-46" font-family="Helvetica,sans-Serif" font-size="10.00">::correctArtficialParticleForce</text>
</a>
</g>
</g>
<!-- Node2 -->
<g id="node2" class="node">
<title>Node2</title>
<g id="a_node2"><a xlink:href="classArtificialParticleManager.html#ac3c6685d320c92bc37b697d6cd791db0" target="_top" xlink:title="get c.m. particle list address from a artificial particle array">
<polygon fill="white" stroke="black" points="204,-88 204,-118 340,-118 340,-88 204,-88"/>
<text text-anchor="start" x="212" y="-106" font-family="Helvetica,sans-Serif" font-size="10.00">ArtificialParticleManager</text>
<text text-anchor="middle" x="272" y="-95" font-family="Helvetica,sans-Serif" font-size="10.00">::getCMParticles</text>
</a>
</g>
</g>
<!-- Node1&#45;&gt;Node2 -->
<g id="edge1" class="edge">
<title>Node1&#45;&gt;Node2</title>
<path fill="none" stroke="midnightblue" d="M137.91,-69.03C158.28,-74.23 181.27,-80.1 202.35,-85.48"/>
<polygon fill="midnightblue" stroke="midnightblue" points="201.65,-88.91 212.2,-87.99 203.38,-82.13 201.65,-88.91"/>
</g>
<!-- Node6 -->
<g id="node6" class="node">
<title>Node6</title>
<g id="a_node6"><a xlink:href="classArtificialParticleManager.html#aa3f970cf4384ccd3c55e04993bd3d695" target="_top" xlink:title="get tidal tensor particle list address from a artificial particle array">
<polygon fill="white" stroke="black" points="204,-39 204,-69 340,-69 340,-39 204,-39"/>
<text text-anchor="start" x="212" y="-57" font-family="Helvetica,sans-Serif" font-size="10.00">ArtificialParticleManager</text>
<text text-anchor="middle" x="272" y="-46" font-family="Helvetica,sans-Serif" font-size="10.00">::getTidalTensorParticles</text>
</a>
</g>
</g>
<!-- Node1&#45;&gt;Node6 -->
<g id="edge5" class="edge">
<title>Node1&#45;&gt;Node6</title>
<path fill="none" stroke="midnightblue" d="M156.26,-54C168.56,-54 181.28,-54 193.57,-54"/>
<polygon fill="midnightblue" stroke="midnightblue" points="193.78,-57.5 203.78,-54 193.78,-50.5 193.78,-57.5"/>
</g>
<!-- Node8 -->
<g id="node8" class="node">
<title>Node8</title>
<g id="a_node8"><a xlink:href="classTidalTensor.html#a7065543715fe3b7d8322b7a145057ff2" target="_top" xlink:title="subtract c.m. force from measure points">
<polygon fill="white" stroke="black" points="192,-0.5 192,-19.5 352,-19.5 352,-0.5 192,-0.5"/>
<text text-anchor="middle" x="272" y="-7.5" font-family="Helvetica,sans-Serif" font-size="10.00">TidalTensor::subtractCMForce</text>
</a>
</g>
</g>
<!-- Node1&#45;&gt;Node8 -->
<g id="edge7" class="edge">
<title>Node1&#45;&gt;Node8</title>
<path fill="none" stroke="midnightblue" d="M144.54,-38.98C169.05,-33.36 196.51,-27.07 219.57,-21.79"/>
<polygon fill="midnightblue" stroke="midnightblue" points="220.53,-25.16 229.49,-19.51 218.96,-18.33 220.53,-25.16"/>
</g>
<!-- Node3 -->
<g id="node3" class="node">
<title>Node3</title>
<g id="a_node3"><a xlink:href="classArtificialParticleManager.html#a38ed6b2904a13aa7928ce5a7d694abd0" target="_top" xlink:title="CM particle index offset.">
<polygon fill="white" stroke="black" points="388,-88 388,-118 524,-118 524,-88 388,-88"/>
<text text-anchor="start" x="396" y="-106" font-family="Helvetica,sans-Serif" font-size="10.00">ArtificialParticleManager</text>
<text text-anchor="middle" x="456" y="-95" font-family="Helvetica,sans-Serif" font-size="10.00">::getIndexOffsetCM</text>
</a>
</g>
</g>
<!-- Node2&#45;&gt;Node3 -->
<g id="edge2" class="edge">
<title>Node2&#45;&gt;Node3</title>
<path fill="none" stroke="midnightblue" d="M340.25,-103C352.36,-103 365.06,-103 377.43,-103"/>
<polygon fill="midnightblue" stroke="midnightblue" points="377.72,-106.5 387.72,-103 377.72,-99.5 377.72,-106.5"/>
</g>
<!-- Node4 -->
<g id="node4" class="node">
<title>Node4</title>
<g id="a_node4"><a xlink:href="classPseudoParticleMultipoleManager.html#a5621892410d256215a8e07ef5bc5c2be" target="_top" xlink:title="get particle number">
<polygon fill="white" stroke="black" points="560,-110 560,-140 736,-140 736,-110 560,-110"/>
<text text-anchor="start" x="568" y="-128" font-family="Helvetica,sans-Serif" font-size="10.00">PseudoParticleMultipoleManager</text>
<text text-anchor="middle" x="648" y="-117" font-family="Helvetica,sans-Serif" font-size="10.00">::getParticleN</text>
</a>
</g>
</g>
<!-- Node3&#45;&gt;Node4 -->
<g id="edge3" class="edge">
<title>Node3&#45;&gt;Node4</title>
<path fill="none" stroke="midnightblue" d="M524.25,-110.79C532.54,-111.75 541.14,-112.74 549.76,-113.74"/>
<polygon fill="midnightblue" stroke="midnightblue" points="549.53,-117.24 559.87,-114.91 550.34,-110.28 549.53,-117.24"/>
</g>
<!-- Node5 -->
<g id="node5" class="node">
<title>Node5</title>
<g id="a_node5"><a xlink:href="classTidalTensor.html#a668eb0fe71a2fe1bdad53572a74d2224" target="_top" xlink:title="get particle number">
<polygon fill="white" stroke="black" points="579.5,-71.5 579.5,-90.5 716.5,-90.5 716.5,-71.5 579.5,-71.5"/>
<text text-anchor="middle" x="648" y="-78.5" font-family="Helvetica,sans-Serif" font-size="10.00">TidalTensor::getParticleN</text>
</a>
</g>
</g>
<!-- Node3&#45;&gt;Node5 -->
<g id="edge4" class="edge">
<title>Node3&#45;&gt;Node5</title>
<path fill="none" stroke="midnightblue" d="M524.25,-95.21C538.74,-93.54 554.17,-91.75 569.02,-90.03"/>
<polygon fill="midnightblue" stroke="midnightblue" points="569.66,-93.48 579.2,-88.85 568.86,-86.52 569.66,-93.48"/>
</g>
<!-- Node7 -->
<g id="node7" class="node">
<title>Node7</title>
<g id="a_node7"><a xlink:href="classArtificialParticleManager.html#aedba48d306b5ec3de4a1a22f73e1594a" target="_top" xlink:title="tidal tensor particle index offset">
<polygon fill="white" stroke="black" points="388,-39 388,-69 524,-69 524,-39 388,-39"/>
<text text-anchor="start" x="396" y="-57" font-family="Helvetica,sans-Serif" font-size="10.00">ArtificialParticleManager</text>
<text text-anchor="middle" x="456" y="-46" font-family="Helvetica,sans-Serif" font-size="10.00">::getIndexOffsetTT</text>
</a>
</g>
</g>
<!-- Node6&#45;&gt;Node7 -->
<g id="edge6" class="edge">
<title>Node6&#45;&gt;Node7</title>
<path fill="none" stroke="midnightblue" d="M340.25,-54C352.36,-54 365.06,-54 377.43,-54"/>
<polygon fill="midnightblue" stroke="midnightblue" points="377.72,-57.5 387.72,-54 377.72,-50.5 377.72,-57.5"/>
</g>
</g>
</svg>
