<?xml version="1.0" encoding="UTF-8" standalone="no"?>
<!DOCTYPE svg PUBLIC "-//W3C//DTD SVG 1.1//EN"
 "http://www.w3.org/Graphics/SVG/1.1/DTD/svg11.dtd">
<!-- Generated by graphviz version 2.43.0 (0)
 -->
<!-- Title: GalpyManager Pages: 1 -->
<svg width="124pt" height="162pt"
 viewBox="0.00 0.00 124.00 162.00" xmlns="http://www.w3.org/2000/svg" xmlns:xlink="http://www.w3.org/1999/xlink">
<g id="graph0" class="graph" transform="scale(1 1) rotate(0) translate(4 158)">
<title>GalpyManager</title>
<polygon fill="white" stroke="transparent" points="-4,4 -4,-158 120,-158 120,4 -4,4"/>
<!-- Node1 -->
<g id="node1" class="node">
<title>Node1</title>
<g id="a_node1"><a xlink:title="A class to manager the API to Galpy.">
<polygon fill="#bfbfbf" stroke="black" points="12,-0.5 12,-19.5 100,-19.5 100,-0.5 12,-0.5"/>
<text text-anchor="middle" x="56" y="-7.5" font-family="Helvetica,sans-Serif" font-size="10.00">GalpyManager</text>
</a>
</g>
</g>
<!-- Node2 -->
<g id="node2" class="node">
<title>Node2</title>
<g id="a_node2"><a xlink:href="classMWPotentialEvolve.html" target="_top" xlink:title="data for MWPotential evolve">
<polygon fill="white" stroke="black" points="0,-67.5 0,-86.5 112,-86.5 112,-67.5 0,-67.5"/>
<text text-anchor="middle" x="56" y="-74.5" font-family="Helvetica,sans-Serif" font-size="10.00">MWPotentialEvolve</text>
</a>
</g>
</g>
<!-- Node2&#45;&gt;Node1 -->
<g id="edge1" class="edge">
<title>Node2&#45;&gt;Node1</title>
<path fill="none" stroke="#9a32cd" stroke-dasharray="5,2" d="M56,-57.04C56,-44.67 56,-29.12 56,-19.63"/>
<polygon fill="#9a32cd" stroke="#9a32cd" points="52.5,-57.23 56,-67.23 59.5,-57.23 52.5,-57.23"/>
<text text-anchor="middle" x="86" y="-41" font-family="Helvetica,sans-Serif" font-size="10.00"> mw_evolve</text>
</g>
<!-- Node3 -->
<g id="node3" class="node">
<title>Node3</title>
<g id="a_node3"><a xlink:href="classFRWModel.html" target="_top" xlink:title="FRW cosmological model for calculating scale factor (redshift)">
<polygon fill="white" stroke="black" points="21.5,-134.5 21.5,-153.5 90.5,-153.5 90.5,-134.5 21.5,-134.5"/>
<text text-anchor="middle" x="56" y="-141.5" font-family="Helvetica,sans-Serif" font-size="10.00">FRWModel</text>
</a>
</g>
</g>
<!-- Node3&#45;&gt;Node2 -->
<g id="edge2" class="edge">
<title>Node3&#45;&gt;Node2</title>
<path fill="none" stroke="#9a32cd" stroke-dasharray="5,2" d="M56,-124.04C56,-111.67 56,-96.12 56,-86.63"/>
<polygon fill="#9a32cd" stroke="#9a32cd" points="52.5,-124.23 56,-134.23 59.5,-124.23 52.5,-124.23"/>
<text text-anchor="middle" x="65.5" y="-108" font-family="Helvetica,sans-Serif" font-size="10.00"> frw</text>
</g>
</g>
</svg>
