<?xml version="1.0" encoding="UTF-8" standalone="no"?>
<!DOCTYPE svg PUBLIC "-//W3C//DTD SVG 1.1//EN"
 "http://www.w3.org/Graphics/SVG/1.1/DTD/svg11.dtd">
<!-- Generated by graphviz version 2.43.0 (0)
 -->
<!-- Title: PseudoParticleMultipoleManager::getParticleN Pages: 1 -->
<!--zoomable 277 -->
<svg id="main" version="1.1" xmlns="http://www.w3.org/2000/svg" xmlns:xlink="http://www.w3.org/1999/xlink" xml:space="preserve" onload="init(evt)">
<style type="text/css"><![CDATA[
.edge:hover path { stroke: red; }
.edge:hover polygon { stroke: red; fill: red; }
]]></style>
<script type="text/javascript"><![CDATA[
var edges = document.getElementsByTagName('g');
if (edges && edges.length) {
  for (var i=0;i<edges.length;i++) {
    if (edges[i].id.substr(0,4)=='edge') {
      edges[i].setAttribute('class','edge');
    }
  }
}
]]></script>
        <defs>
                <circle id="rim" cx="0" cy="0" r="7"/>
                <circle id="rim2" cx="0" cy="0" r="3.5"/>
                <g id="zoomPlus">
                        <use xlink:href="#rim" fill="#404040">
                                <set attributeName="fill" to="#808080" begin="zoomplus.mouseover" end="zoomplus.mouseout"/>
                        </use>
                        <path d="M-4,0h8M0,-4v8" fill="none" stroke="white" stroke-width="1.5" pointer-events="none"/>
                </g>
                <g id="zoomMin">
                        <use xlink:href="#rim" fill="#404040">
                                <set attributeName="fill" to="#808080" begin="zoomminus.mouseover" end="zoomminus.mouseout"/>
                        </use>
                        <path d="M-4,0h8" fill="none" stroke="white" stroke-width="1.5" pointer-events="none"/>
                </g>
                <g id="dirArrow">
                        <path fill="none" stroke="white" stroke-width="1.5" d="M0,-3.0v7 M-2.5,-0.5L0,-3.0L2.5,-0.5"/>
                </g>
               <g id="resetDef">
                       <use xlink:href="#rim2" fill="#404040">
                               <set attributeName="fill" to="#808080" begin="reset.mouseover" end="reset.mouseout"/>
                       </use>
               </g>
        </defs>

<script type="text/javascript">
var viewWidth = 911;
var viewHeight = 277;
var sectionId = 'dynsection-2';
</script>
<script xlink:href="svgpan.js"/>
<svg id="graph" class="graph">
<g id="viewport">
<title>PseudoParticleMultipoleManager::getParticleN</title>
<polygon fill="white" stroke="transparent" points="-4,4 -4,-273.39 907,-273.39 907,4 -4,4"/>
<!-- Node1 -->
<g id="node1" class="node">
<title>Node1</title>
<g id="a_node1"><a xlink:title="get particle number">
<polygon fill="#bfbfbf" stroke="black" points="727,-164.5 727,-194.5 903,-194.5 903,-164.5 727,-164.5"/>
<text text-anchor="start" x="735" y="-182.5" font-family="Helvetica,sans-Serif" font-size="10.00">PseudoParticleMultipoleManager</text>
<text text-anchor="middle" x="815" y="-171.5" font-family="Helvetica,sans-Serif" font-size="10.00">::getParticleN</text>
</a>
</g>
</g>
<!-- Node2 -->
<g id="node2" class="node">
<title>Node2</title>
<g id="a_node2"><a xlink:href="classArtificialParticleManager.html#aef4de2cdc22768a36abee8243f0db707" target="_top" xlink:title="get artificial particle total number">
<polygon fill="white" stroke="black" points="555,-221.5 555,-251.5 691,-251.5 691,-221.5 555,-221.5"/>
<text text-anchor="start" x="563" y="-239.5" font-family="Helvetica,sans-Serif" font-size="10.00">ArtificialParticleManager</text>
<text text-anchor="middle" x="623" y="-228.5" font-family="Helvetica,sans-Serif" font-size="10.00">::getArtificialParticleN</text>
</a>
</g>
</g>
<!-- Node1&#45;&gt;Node2 -->
<g id="edge1" class="edge">
<title>Node1&#45;&gt;Node2</title>
<path fill="none" stroke="midnightblue" d="M753.97,-197.51C728.35,-205.2 698.78,-214.07 674.32,-221.4"/>
<polygon fill="midnightblue" stroke="midnightblue" points="755.01,-200.85 763.58,-194.63 753,-194.15 755.01,-200.85"/>
</g>
<!-- Node6 -->
<g id="node6" class="node">
<title>Node6</title>
<g id="a_node6"><a xlink:href="classArtificialParticleManager.html#a38ed6b2904a13aa7928ce5a7d694abd0" target="_top" xlink:title="CM particle index offset.">
<polygon fill="white" stroke="black" points="555,-98.5 555,-128.5 691,-128.5 691,-98.5 555,-98.5"/>
<text text-anchor="start" x="563" y="-116.5" font-family="Helvetica,sans-Serif" font-size="10.00">ArtificialParticleManager</text>
<text text-anchor="middle" x="623" y="-105.5" font-family="Helvetica,sans-Serif" font-size="10.00">::getIndexOffsetCM</text>
</a>
</g>
</g>
<!-- Node1&#45;&gt;Node6 -->
<g id="edge5" class="edge">
<title>Node1&#45;&gt;Node6</title>
<path fill="none" stroke="midnightblue" d="M760.7,-160.98C731.24,-150.75 695.1,-138.2 667.39,-128.57"/>
<polygon fill="midnightblue" stroke="midnightblue" points="759.82,-164.38 770.41,-164.36 762.11,-157.77 759.82,-164.38"/>
</g>
<!-- Node12 -->
<g id="node12" class="node">
<title>Node12</title>
<g id="a_node12"><a xlink:href="classArtificialParticleManager.html#ae75013c8aba250c076e1c5f4450fdebf" target="_top" xlink:title="get orbitial particle number">
<polygon fill="white" stroke="black" points="555,-164.5 555,-194.5 691,-194.5 691,-164.5 555,-164.5"/>
<text text-anchor="start" x="563" y="-182.5" font-family="Helvetica,sans-Serif" font-size="10.00">ArtificialParticleManager</text>
<text text-anchor="middle" x="623" y="-171.5" font-family="Helvetica,sans-Serif" font-size="10.00">::getOrbitalParticleN</text>
</a>
</g>
</g>
<!-- Node1&#45;&gt;Node12 -->
<g id="edge13" class="edge">
<title>Node1&#45;&gt;Node12</title>
<path fill="none" stroke="midnightblue" d="M716.64,-179.5C707.99,-179.5 699.37,-179.5 691.06,-179.5"/>
<polygon fill="midnightblue" stroke="midnightblue" points="716.79,-183 726.79,-179.5 716.79,-176 716.79,-183"/>
</g>
<!-- Node3 -->
<g id="node3" class="node">
<title>Node3</title>
<g id="a_node3"><a xlink:href="classSystemHard.html#aaae0c65a7caa9679827b980b9e9f3c89" target="_top" xlink:title="Soft force correction due to different cut&#45;off function.">
<polygon fill="white" stroke="black" points="0,-181.5 0,-211.5 155,-211.5 155,-181.5 0,-181.5"/>
<text text-anchor="start" x="8" y="-199.5" font-family="Helvetica,sans-Serif" font-size="10.00">SystemHard::correctForce</text>
<text text-anchor="middle" x="77.5" y="-188.5" font-family="Helvetica,sans-Serif" font-size="10.00">WithCutoffTreeNeighborOMP</text>
</a>
</g>
</g>
<!-- Node2&#45;&gt;Node3 -->
<g id="edge2" class="edge">
<title>Node2&#45;&gt;Node3</title>
<path fill="none" stroke="midnightblue" d="M567.03,-254.33C551.66,-258.53 534.82,-262.39 519,-264.5 373.08,-283.98 200.76,-236.95 121.87,-211.51"/>
<polygon fill="midnightblue" stroke="midnightblue" points="568.23,-257.63 576.9,-251.55 566.32,-250.9 568.23,-257.63"/>
</g>
<!-- Node4 -->
<g id="node4" class="node">
<title>Node4</title>
<g id="a_node4"><a xlink:href="classArtificialParticleManager.html#af3f6cdb0c22cffa6a12cc47fa32f79fa" target="_top" xlink:title="create artificial particles">
<polygon fill="white" stroke="black" points="383,-186.5 383,-216.5 519,-216.5 519,-186.5 383,-186.5"/>
<text text-anchor="start" x="391" y="-204.5" font-family="Helvetica,sans-Serif" font-size="10.00">ArtificialParticleManager</text>
<text text-anchor="middle" x="451" y="-193.5" font-family="Helvetica,sans-Serif" font-size="10.00">::createArtificialParticles</text>
</a>
</g>
</g>
<!-- Node2&#45;&gt;Node4 -->
<g id="edge3" class="edge">
<title>Node2&#45;&gt;Node4</title>
<path fill="none" stroke="midnightblue" d="M544.85,-220.62C536.31,-218.86 527.66,-217.08 519.26,-215.35"/>
<polygon fill="midnightblue" stroke="midnightblue" points="544.31,-224.08 554.81,-222.67 545.72,-217.22 544.31,-224.08"/>
</g>
<!-- Node5 -->
<g id="node5" class="node">
<title>Node5</title>
<g id="a_node5"><a xlink:href="classHardIntegrator.html#aa9af7a31e9981446c84ca58ca77e4630" target="_top" xlink:title="initial integration">
<polygon fill="white" stroke="black" points="390,-236 390,-255 512,-255 512,-236 390,-236"/>
<text text-anchor="middle" x="451" y="-243" font-family="Helvetica,sans-Serif" font-size="10.00">HardIntegrator::initial</text>
</a>
</g>
</g>
<!-- Node2&#45;&gt;Node5 -->
<g id="edge4" class="edge">
<title>Node2&#45;&gt;Node5</title>
<path fill="none" stroke="midnightblue" d="M544.8,-240.59C533.82,-241.17 522.67,-241.76 512.09,-242.32"/>
<polygon fill="midnightblue" stroke="midnightblue" points="545.01,-244.08 554.81,-240.06 544.64,-237.09 545.01,-244.08"/>
</g>
<!-- Node6&#45;&gt;Node4 -->
<g id="edge6" class="edge">
<title>Node6&#45;&gt;Node4</title>
<path fill="none" stroke="midnightblue" d="M583.55,-133.41C552.47,-149.49 509.4,-171.79 481.13,-186.42"/>
<polygon fill="midnightblue" stroke="midnightblue" points="585.5,-136.33 592.78,-128.63 582.29,-130.12 585.5,-136.33"/>
</g>
<!-- Node7 -->
<g id="node7" class="node">
<title>Node7</title>
<g id="a_node7"><a xlink:href="classArtificialParticleManager.html#ae34d1849537dc540ecef80423d9bfe98" target="_top" xlink:title="get center of mass id">
<polygon fill="white" stroke="black" points="383,-49.5 383,-79.5 519,-79.5 519,-49.5 383,-49.5"/>
<text text-anchor="start" x="391" y="-67.5" font-family="Helvetica,sans-Serif" font-size="10.00">ArtificialParticleManager</text>
<text text-anchor="middle" x="451" y="-56.5" font-family="Helvetica,sans-Serif" font-size="10.00">::getCMID</text>
</a>
</g>
</g>
<!-- Node6&#45;&gt;Node7 -->
<g id="edge7" class="edge">
<title>Node6&#45;&gt;Node7</title>
<path fill="none" stroke="midnightblue" d="M559.92,-95.61C541.63,-90.34 521.82,-84.62 504.22,-79.55"/>
<polygon fill="midnightblue" stroke="midnightblue" points="559.03,-98.99 569.61,-98.4 560.97,-92.27 559.03,-98.99"/>
</g>
<!-- Node8 -->
<g id="node8" class="node">
<title>Node8</title>
<g id="a_node8"><a xlink:href="classArtificialParticleManager.html#ac3c6685d320c92bc37b697d6cd791db0" target="_top" xlink:title="get c.m. particle list address from a artificial particle array">
<polygon fill="white" stroke="black" points="383,-98.5 383,-128.5 519,-128.5 519,-98.5 383,-98.5"/>
<text text-anchor="start" x="391" y="-116.5" font-family="Helvetica,sans-Serif" font-size="10.00">ArtificialParticleManager</text>
<text text-anchor="middle" x="451" y="-105.5" font-family="Helvetica,sans-Serif" font-size="10.00">::getCMParticles</text>
</a>
</g>
</g>
<!-- Node6&#45;&gt;Node8 -->
<g id="edge8" class="edge">
<title>Node6&#45;&gt;Node8</title>
<path fill="none" stroke="midnightblue" d="M544.58,-113.5C536.12,-113.5 527.57,-113.5 519.26,-113.5"/>
<polygon fill="midnightblue" stroke="midnightblue" points="544.81,-117 554.81,-113.5 544.81,-110 544.81,-117"/>
</g>
<!-- Node11 -->
<g id="node11" class="node">
<title>Node11</title>
<g id="a_node11"><a xlink:href="classArtificialParticleManager.html#a19a8664675a9c697bf5331ee598f854f" target="_top" xlink:title="get member number">
<polygon fill="white" stroke="black" points="383,-0.5 383,-30.5 519,-30.5 519,-0.5 383,-0.5"/>
<text text-anchor="start" x="391" y="-18.5" font-family="Helvetica,sans-Serif" font-size="10.00">ArtificialParticleManager</text>
<text text-anchor="middle" x="451" y="-7.5" font-family="Helvetica,sans-Serif" font-size="10.00">::getMemberN</text>
</a>
</g>
</g>
<!-- Node6&#45;&gt;Node11 -->
<g id="edge12" class="edge">
<title>Node6&#45;&gt;Node11</title>
<path fill="none" stroke="midnightblue" d="M596.38,-91.99C576.3,-75.92 547.15,-54.28 519,-39.5 512.76,-36.23 505.98,-33.22 499.21,-30.53"/>
<polygon fill="midnightblue" stroke="midnightblue" points="594.43,-94.91 604.4,-98.5 598.84,-89.48 594.43,-94.91"/>
</g>
<!-- Node9 -->
<g id="node9" class="node">
<title>Node9</title>
<g id="a_node9"><a xlink:href="classArtificialParticleManager.html#abce1a403342631a9f4042213a71b9867" target="_top" xlink:title="correct artificial particles force for furture use">
<polygon fill="white" stroke="black" points="191,-96.5 191,-126.5 347,-126.5 347,-96.5 191,-96.5"/>
<text text-anchor="start" x="199" y="-114.5" font-family="Helvetica,sans-Serif" font-size="10.00">ArtificialParticleManager</text>
<text text-anchor="middle" x="269" y="-103.5" font-family="Helvetica,sans-Serif" font-size="10.00">::correctArtficialParticleForce</text>
</a>
</g>
</g>
<!-- Node8&#45;&gt;Node9 -->
<g id="edge9" class="edge">
<title>Node8&#45;&gt;Node9</title>
<path fill="none" stroke="midnightblue" d="M372.72,-112.64C364.22,-112.55 355.58,-112.45 347.09,-112.36"/>
<polygon fill="midnightblue" stroke="midnightblue" points="372.94,-116.14 382.97,-112.76 373.01,-109.14 372.94,-116.14"/>
</g>
<!-- Node10 -->
<g id="node10" class="node">
<title>Node10</title>
<g id="a_node10"><a xlink:href="classArtificialParticleManager.html#a849acb19588a63ec450f606fd1bead3d" target="_top" xlink:title="correct orbit&#45;samping/pseudo particles force">
<polygon fill="white" stroke="black" points="193,-145.5 193,-175.5 345,-175.5 345,-145.5 193,-145.5"/>
<text text-anchor="start" x="201" y="-163.5" font-family="Helvetica,sans-Serif" font-size="10.00">ArtificialParticleManager</text>
<text text-anchor="middle" x="269" y="-152.5" font-family="Helvetica,sans-Serif" font-size="10.00">::correctOrbitalParticleForce</text>
</a>
</g>
</g>
<!-- Node8&#45;&gt;Node10 -->
<g id="edge11" class="edge">
<title>Node8&#45;&gt;Node10</title>
<path fill="none" stroke="midnightblue" d="M382.63,-131.09C364.5,-135.82 345.06,-140.9 327.52,-145.48"/>
<polygon fill="midnightblue" stroke="midnightblue" points="383.76,-134.41 392.55,-128.5 381.99,-127.64 383.76,-134.41"/>
</g>
<!-- Node9&#45;&gt;Node3 -->
<g id="edge10" class="edge">
<title>Node9&#45;&gt;Node3</title>
<path fill="none" stroke="midnightblue" d="M207.78,-129.91C202.06,-132 196.39,-134.21 191,-136.5 160.04,-149.66 126.18,-168.35 103.78,-181.36"/>
<polygon fill="midnightblue" stroke="midnightblue" points="209.15,-133.14 217.41,-126.51 206.82,-126.54 209.15,-133.14"/>
</g>
<!-- Node12&#45;&gt;Node4 -->
<g id="edge15" class="edge">
<title>Node12&#45;&gt;Node4</title>
<path fill="none" stroke="midnightblue" d="M544.85,-189.48C536.31,-190.59 527.66,-191.71 519.26,-192.8"/>
<polygon fill="midnightblue" stroke="midnightblue" points="545.34,-192.95 554.81,-188.19 544.44,-186.01 545.34,-192.95"/>
</g>
<!-- Node12&#45;&gt;Node10 -->
<g id="edge14" class="edge">
<title>Node12&#45;&gt;Node10</title>
<path fill="none" stroke="midnightblue" d="M544.89,-175.34C485.5,-172.13 403.88,-167.73 345.02,-164.55"/>
<polygon fill="midnightblue" stroke="midnightblue" points="544.79,-178.84 554.96,-175.88 545.17,-171.85 544.79,-178.84"/>
</g>
</g>
</svg>
        <g id="navigator" transform="translate(0 0)" fill="#404254">
                <rect fill="#f2f5e9" fill-opacity="0.5" stroke="#606060" stroke-width=".5" x="0" y="0" width="60" height="60"/>
                <use id="zoomplus" xlink:href="#zoomPlus" x="17" y="9" onmousedown="handleZoom(evt,'in')"/>
                <use id="zoomminus" xlink:href="#zoomMin" x="42" y="9" onmousedown="handleZoom(evt,'out')"/>
                <use id="reset" xlink:href="#resetDef" x="30" y="36" onmousedown="handleReset()"/>
                <g id="arrowUp" xlink:href="#dirArrow" transform="translate(30 24)" onmousedown="handlePan(0,-1)">
                  <use xlink:href="#rim" fill="#404040">
                        <set attributeName="fill" to="#808080" begin="arrowUp.mouseover" end="arrowUp.mouseout"/>
                  </use>
                  <path fill="none" stroke="white" stroke-width="1.5" d="M0,-3.0v7 M-2.5,-0.5L0,-3.0L2.5,-0.5"/>
                </g>
                <g id="arrowRight" xlink:href="#dirArrow" transform="rotate(90) translate(36 -43)" onmousedown="handlePan(1,0)">
                  <use xlink:href="#rim" fill="#404040">
                        <set attributeName="fill" to="#808080" begin="arrowRight.mouseover" end="arrowRight.mouseout"/>
                  </use>
                  <path fill="none" stroke="white" stroke-width="1.5" d="M0,-3.0v7 M-2.5,-0.5L0,-3.0L2.5,-0.5"/>
                </g>
                <g id="arrowDown" xlink:href="#dirArrow" transform="rotate(180) translate(-30 -48)" onmousedown="handlePan(0,1)">
                  <use xlink:href="#rim" fill="#404040">
                        <set attributeName="fill" to="#808080" begin="arrowDown.mouseover" end="arrowDown.mouseout"/>
                  </use>
                  <path fill="none" stroke="white" stroke-width="1.5" d="M0,-3.0v7 M-2.5,-0.5L0,-3.0L2.5,-0.5"/>
                </g>
                <g id="arrowLeft" xlink:href="#dirArrow" transform="rotate(270) translate(-36 17)" onmousedown="handlePan(-1,0)">
                  <use xlink:href="#rim" fill="#404040">
                        <set attributeName="fill" to="#808080" begin="arrowLeft.mouseover" end="arrowLeft.mouseout"/>
                  </use>
                  <path fill="none" stroke="white" stroke-width="1.5" d="M0,-3.0v7 M-2.5,-0.5L0,-3.0L2.5,-0.5"/>
                </g>
        </g>
        <svg viewBox="0 0 15 15" width="100%" height="30px" preserveAspectRatio="xMaxYMin meet">
         <g id="arrow_out" transform="scale(0.3 0.3)">
          <a xlink:href="classPseudoParticleMultipoleManager_a5621892410d256215a8e07ef5bc5c2be_icgraph_org.svg" target="_base">
           <rect id="button" ry="5" rx="5" y="6" x="6" height="38" width="38"
                fill="#f2f5e9" fill-opacity="0.5" stroke="#606060" stroke-width="1.0"/>
           <path id="arrow"
             d="M 11.500037,31.436501 C 11.940474,20.09759 22.043105,11.32322 32.158766,21.979434 L 37.068811,17.246167 C 37.068811,17.246167 37.088388,32 37.088388,32 L 22.160133,31.978069 C 22.160133,31.978069 26.997745,27.140456 26.997745,27.140456 C 18.528582,18.264221 13.291696,25.230495 11.500037,31.436501 z"
             style="fill:#404040;"/>
          </a>
         </g>
        </svg>
</svg>
