<?xml version="1.0" encoding="UTF-8" standalone="no"?>
<!DOCTYPE svg PUBLIC "-//W3C//DTD SVG 1.1//EN"
 "http://www.w3.org/Graphics/SVG/1.1/DTD/svg11.dtd">
<!-- Generated by graphviz version 2.43.0 (0)
 -->
<!-- Title: ArtificialParticleManager::createArtificialParticles Pages: 1 -->
<svg width="568pt" height="333pt"
 viewBox="0.00 0.00 568.00 333.00" xmlns="http://www.w3.org/2000/svg" xmlns:xlink="http://www.w3.org/1999/xlink">
<g id="graph0" class="graph" transform="scale(1 1) rotate(0) translate(4 329)">
<title>ArtificialParticleManager::createArtificialParticles</title>
<polygon fill="white" stroke="transparent" points="-4,4 -4,-329 564,-329 564,4 -4,4"/>
<!-- Node1 -->
<g id="node1" class="node">
<title>Node1</title>
<g id="a_node1"><a xlink:title="create artificial particles">
<polygon fill="#bfbfbf" stroke="black" points="0,-147.5 0,-177.5 136,-177.5 136,-147.5 0,-147.5"/>
<text text-anchor="start" x="8" y="-165.5" font-family="Helvetica,sans-Serif" font-size="10.00">ArtificialParticleManager</text>
<text text-anchor="middle" x="68" y="-154.5" font-family="Helvetica,sans-Serif" font-size="10.00">::createArtificialParticles</text>
</a>
</g>
</g>
<!-- Node2 -->
<g id="node2" class="node">
<title>Node2</title>
<g id="a_node2"><a xlink:href="classArtificialParticleManager.html#ae62470120fa13e433cdf3f5433f452cb" target="_top" xlink:title="check paramters">
<polygon fill="white" stroke="black" points="192,-294.5 192,-324.5 328,-324.5 328,-294.5 192,-294.5"/>
<text text-anchor="start" x="200" y="-312.5" font-family="Helvetica,sans-Serif" font-size="10.00">ArtificialParticleManager</text>
<text text-anchor="middle" x="260" y="-301.5" font-family="Helvetica,sans-Serif" font-size="10.00">::checkParams</text>
</a>
</g>
</g>
<!-- Node1&#45;&gt;Node2 -->
<g id="edge1" class="edge">
<title>Node1&#45;&gt;Node2</title>
<path fill="none" stroke="midnightblue" d="M77.37,-177.52C92.68,-203.56 127.72,-257.03 172,-285.5 175.32,-287.63 178.82,-289.58 182.44,-291.35"/>
<polygon fill="midnightblue" stroke="midnightblue" points="181.09,-294.58 191.66,-295.42 183.92,-288.18 181.09,-294.58"/>
</g>
<!-- Node5 -->
<g id="node5" class="node">
<title>Node5</title>
<g id="a_node5"><a xlink:href="classPseudoParticleMultipoleManager.html#aa51c7c9cb1c2c1b2daa0d0c6bae8a66a" target="_top" xlink:title="create pseudoparticle multipole particles">
<polygon fill="white" stroke="black" points="172,-0.5 172,-30.5 348,-30.5 348,-0.5 172,-0.5"/>
<text text-anchor="start" x="180" y="-18.5" font-family="Helvetica,sans-Serif" font-size="10.00">PseudoParticleMultipoleManager</text>
<text text-anchor="middle" x="260" y="-7.5" font-family="Helvetica,sans-Serif" font-size="10.00">::createSampleParticles</text>
</a>
</g>
</g>
<!-- Node1&#45;&gt;Node5 -->
<g id="edge4" class="edge">
<title>Node1&#45;&gt;Node5</title>
<path fill="none" stroke="midnightblue" d="M77.37,-147.48C92.68,-121.44 127.72,-67.97 172,-39.5 174.47,-37.91 177.05,-36.43 179.7,-35.04"/>
<polygon fill="midnightblue" stroke="midnightblue" points="181.4,-38.11 188.97,-30.69 178.43,-31.77 181.4,-38.11"/>
</g>
<!-- Node6 -->
<g id="node6" class="node">
<title>Node6</title>
<g id="a_node6"><a xlink:href="classTidalTensor.html#ae6295f7e7456826be8d88457f79ec43f" target="_top" xlink:title="create tidal tensor measurement particles">
<polygon fill="white" stroke="black" points="193.5,-196.5 193.5,-226.5 326.5,-226.5 326.5,-196.5 193.5,-196.5"/>
<text text-anchor="start" x="201.5" y="-214.5" font-family="Helvetica,sans-Serif" font-size="10.00">TidalTensor::createTidal</text>
<text text-anchor="middle" x="260" y="-203.5" font-family="Helvetica,sans-Serif" font-size="10.00">TensorMeasureParticles</text>
</a>
</g>
</g>
<!-- Node1&#45;&gt;Node6 -->
<g id="edge5" class="edge">
<title>Node1&#45;&gt;Node6</title>
<path fill="none" stroke="midnightblue" d="M127.3,-177.53C147.45,-182.73 170.21,-188.6 191.06,-193.98"/>
<polygon fill="midnightblue" stroke="midnightblue" points="190.26,-197.39 200.81,-196.49 192,-190.61 190.26,-197.39"/>
</g>
<!-- Node7 -->
<g id="node7" class="node">
<title>Node7</title>
<g id="a_node7"><a xlink:href="classArtificialParticleManager.html#aef4de2cdc22768a36abee8243f0db707" target="_top" xlink:title="get artificial particle total number">
<polygon fill="white" stroke="black" points="192,-98.5 192,-128.5 328,-128.5 328,-98.5 192,-98.5"/>
<text text-anchor="start" x="200" y="-116.5" font-family="Helvetica,sans-Serif" font-size="10.00">ArtificialParticleManager</text>
<text text-anchor="middle" x="260" y="-105.5" font-family="Helvetica,sans-Serif" font-size="10.00">::getArtificialParticleN</text>
</a>
</g>
</g>
<!-- Node1&#45;&gt;Node7 -->
<g id="edge7" class="edge">
<title>Node1&#45;&gt;Node7</title>
<path fill="none" stroke="midnightblue" d="M127.3,-147.47C147.45,-142.27 170.21,-136.4 191.06,-131.02"/>
<polygon fill="midnightblue" stroke="midnightblue" points="192,-134.39 200.81,-128.51 190.26,-127.61 192,-134.39"/>
</g>
<!-- Node9 -->
<g id="node9" class="node">
<title>Node9</title>
<g id="a_node9"><a xlink:href="classArtificialParticleManager.html#a38ed6b2904a13aa7928ce5a7d694abd0" target="_top" xlink:title="CM particle index offset.">
<polygon fill="white" stroke="black" points="192,-147.5 192,-177.5 328,-177.5 328,-147.5 192,-147.5"/>
<text text-anchor="start" x="200" y="-165.5" font-family="Helvetica,sans-Serif" font-size="10.00">ArtificialParticleManager</text>
<text text-anchor="middle" x="260" y="-154.5" font-family="Helvetica,sans-Serif" font-size="10.00">::getIndexOffsetCM</text>
</a>
</g>
</g>
<!-- Node1&#45;&gt;Node9 -->
<g id="edge10" class="edge">
<title>Node1&#45;&gt;Node9</title>
<path fill="none" stroke="midnightblue" d="M136.25,-162.5C150.91,-162.5 166.54,-162.5 181.56,-162.5"/>
<polygon fill="midnightblue" stroke="midnightblue" points="181.84,-166 191.84,-162.5 181.84,-159 181.84,-166"/>
</g>
<!-- Node10 -->
<g id="node10" class="node">
<title>Node10</title>
<g id="a_node10"><a xlink:href="classArtificialParticleManager.html#a5aa161be171207ca5ad6cec9d9f678cf" target="_top" xlink:title="orbital/pseudo particle index offset">
<polygon fill="white" stroke="black" points="192,-245.5 192,-275.5 328,-275.5 328,-245.5 192,-245.5"/>
<text text-anchor="start" x="200" y="-263.5" font-family="Helvetica,sans-Serif" font-size="10.00">ArtificialParticleManager</text>
<text text-anchor="middle" x="260" y="-252.5" font-family="Helvetica,sans-Serif" font-size="10.00">::getIndexOffsetOrb</text>
</a>
</g>
</g>
<!-- Node1&#45;&gt;Node10 -->
<g id="edge13" class="edge">
<title>Node1&#45;&gt;Node10</title>
<path fill="none" stroke="midnightblue" d="M86.01,-177.66C105.51,-194.3 139.03,-220.73 172,-236.5 176.09,-238.45 180.36,-240.27 184.72,-241.96"/>
<polygon fill="midnightblue" stroke="midnightblue" points="183.79,-245.35 194.39,-245.45 186.17,-238.76 183.79,-245.35"/>
</g>
<!-- Node11 -->
<g id="node11" class="node">
<title>Node11</title>
<g id="a_node11"><a xlink:href="classArtificialParticleManager.html#ae75013c8aba250c076e1c5f4450fdebf" target="_top" xlink:title="get orbitial particle number">
<polygon fill="white" stroke="black" points="192,-49.5 192,-79.5 328,-79.5 328,-49.5 192,-49.5"/>
<text text-anchor="start" x="200" y="-67.5" font-family="Helvetica,sans-Serif" font-size="10.00">ArtificialParticleManager</text>
<text text-anchor="middle" x="260" y="-56.5" font-family="Helvetica,sans-Serif" font-size="10.00">::getOrbitalParticleN</text>
</a>
</g>
</g>
<!-- Node1&#45;&gt;Node11 -->
<g id="edge15" class="edge">
<title>Node1&#45;&gt;Node11</title>
<path fill="none" stroke="midnightblue" d="M86.01,-147.34C105.51,-130.7 139.03,-104.27 172,-88.5 176.09,-86.55 180.36,-84.73 184.72,-83.04"/>
<polygon fill="midnightblue" stroke="midnightblue" points="186.17,-86.24 194.39,-79.55 183.79,-79.65 186.17,-86.24"/>
</g>
<!-- Node3 -->
<g id="node3" class="node">
<title>Node3</title>
<g id="a_node3"><a xlink:href="classPseudoParticleMultipoleManager.html#ae68e816c46f10c7c2febed760dffd13d" target="_top" xlink:title="check paramters">
<polygon fill="white" stroke="black" points="384,-294.5 384,-324.5 560,-324.5 560,-294.5 384,-294.5"/>
<text text-anchor="start" x="392" y="-312.5" font-family="Helvetica,sans-Serif" font-size="10.00">PseudoParticleMultipoleManager</text>
<text text-anchor="middle" x="472" y="-301.5" font-family="Helvetica,sans-Serif" font-size="10.00">::checkParams</text>
</a>
</g>
</g>
<!-- Node2&#45;&gt;Node3 -->
<g id="edge2" class="edge">
<title>Node2&#45;&gt;Node3</title>
<path fill="none" stroke="midnightblue" d="M328.02,-309.5C342.6,-309.5 358.3,-309.5 373.77,-309.5"/>
<polygon fill="midnightblue" stroke="midnightblue" points="373.89,-313 383.89,-309.5 373.89,-306 373.89,-313"/>
</g>
<!-- Node4 -->
<g id="node4" class="node">
<title>Node4</title>
<g id="a_node4"><a xlink:href="classTidalTensor.html#a668eb0fe71a2fe1bdad53572a74d2224" target="_top" xlink:title="get particle number">
<polygon fill="white" stroke="black" points="403.5,-202 403.5,-221 540.5,-221 540.5,-202 403.5,-202"/>
<text text-anchor="middle" x="472" y="-209" font-family="Helvetica,sans-Serif" font-size="10.00">TidalTensor::getParticleN</text>
</a>
</g>
</g>
<!-- Node2&#45;&gt;Node4 -->
<g id="edge3" class="edge">
<title>Node2&#45;&gt;Node4</title>
<path fill="none" stroke="midnightblue" d="M323.5,-294.49C331.86,-291.83 340.22,-288.84 348,-285.5 385.57,-269.38 425.49,-243.53 449.33,-227.04"/>
<polygon fill="midnightblue" stroke="midnightblue" points="451.46,-229.83 457.64,-221.22 447.44,-224.09 451.46,-229.83"/>
</g>
<!-- Node6&#45;&gt;Node4 -->
<g id="edge6" class="edge">
<title>Node6&#45;&gt;Node4</title>
<path fill="none" stroke="midnightblue" d="M326.58,-211.5C347.67,-211.5 371.24,-211.5 393.13,-211.5"/>
<polygon fill="midnightblue" stroke="midnightblue" points="393.38,-215 403.38,-211.5 393.38,-208 393.38,-215"/>
</g>
<!-- Node7&#45;&gt;Node4 -->
<g id="edge9" class="edge">
<title>Node7&#45;&gt;Node4</title>
<path fill="none" stroke="midnightblue" d="M323.5,-128.51C331.86,-131.17 340.22,-134.16 348,-137.5 385.57,-153.62 425.49,-179.47 449.33,-195.96"/>
<polygon fill="midnightblue" stroke="midnightblue" points="447.44,-198.91 457.64,-201.78 451.46,-193.17 447.44,-198.91"/>
</g>
<!-- Node8 -->
<g id="node8" class="node">
<title>Node8</title>
<g id="a_node8"><a xlink:href="classPseudoParticleMultipoleManager.html#a5621892410d256215a8e07ef5bc5c2be" target="_top" xlink:title="get particle number">
<polygon fill="white" stroke="black" points="384,-98.5 384,-128.5 560,-128.5 560,-98.5 384,-98.5"/>
<text text-anchor="start" x="392" y="-116.5" font-family="Helvetica,sans-Serif" font-size="10.00">PseudoParticleMultipoleManager</text>
<text text-anchor="middle" x="472" y="-105.5" font-family="Helvetica,sans-Serif" font-size="10.00">::getParticleN</text>
</a>
</g>
</g>
<!-- Node7&#45;&gt;Node8 -->
<g id="edge8" class="edge">
<title>Node7&#45;&gt;Node8</title>
<path fill="none" stroke="midnightblue" d="M328.02,-113.5C342.6,-113.5 358.3,-113.5 373.77,-113.5"/>
<polygon fill="midnightblue" stroke="midnightblue" points="373.89,-117 383.89,-113.5 373.89,-110 373.89,-117"/>
</g>
<!-- Node9&#45;&gt;Node4 -->
<g id="edge12" class="edge">
<title>Node9&#45;&gt;Node4</title>
<path fill="none" stroke="midnightblue" d="M325.43,-177.53C355.96,-184.66 391.88,-193.04 420.41,-199.69"/>
<polygon fill="midnightblue" stroke="midnightblue" points="419.63,-203.11 430.17,-201.97 421.22,-196.29 419.63,-203.11"/>
</g>
<!-- Node9&#45;&gt;Node8 -->
<g id="edge11" class="edge">
<title>Node9&#45;&gt;Node8</title>
<path fill="none" stroke="midnightblue" d="M325.43,-147.47C348.01,-142.2 373.54,-136.24 396.85,-130.8"/>
<polygon fill="midnightblue" stroke="midnightblue" points="397.74,-134.19 406.69,-128.51 396.15,-127.37 397.74,-134.19"/>
</g>
<!-- Node10&#45;&gt;Node4 -->
<g id="edge14" class="edge">
<title>Node10&#45;&gt;Node4</title>
<path fill="none" stroke="midnightblue" d="M325.43,-245.47C355.96,-238.34 391.88,-229.96 420.41,-223.31"/>
<polygon fill="midnightblue" stroke="midnightblue" points="421.22,-226.71 430.17,-221.03 419.63,-219.89 421.22,-226.71"/>
</g>
<!-- Node11&#45;&gt;Node8 -->
<g id="edge16" class="edge">
<title>Node11&#45;&gt;Node8</title>
<path fill="none" stroke="midnightblue" d="M325.43,-79.53C348.01,-84.8 373.54,-90.76 396.85,-96.2"/>
<polygon fill="midnightblue" stroke="midnightblue" points="396.15,-99.63 406.69,-98.49 397.74,-92.81 396.15,-99.63"/>
</g>
</g>
</svg>
