<?xml version="1.0" encoding="UTF-8" standalone="no"?>
<!DOCTYPE svg PUBLIC "-//W3C//DTD SVG 1.1//EN"
 "http://www.w3.org/Graphics/SVG/1.1/DTD/svg11.dtd">
<!-- Generated by graphviz version 2.43.0 (0)
 -->
<!-- Title: Status::print Pages: 1 -->
<svg width="426pt" height="112pt"
 viewBox="0.00 0.00 426.00 112.00" xmlns="http://www.w3.org/2000/svg" xmlns:xlink="http://www.w3.org/1999/xlink">
<g id="graph0" class="graph" transform="scale(1 1) rotate(0) translate(4 108)">
<title>Status::print</title>
<polygon fill="white" stroke="transparent" points="-4,4 -4,-108 422,-108 422,4 -4,4"/>
<!-- Node1 -->
<g id="node1" class="node">
<title>Node1</title>
<g id="a_node1"><a xlink:title="print title and values in one lines">
<polygon fill="#bfbfbf" stroke="black" points="0,-30 0,-49 76,-49 76,-30 0,-30"/>
<text text-anchor="middle" x="38" y="-37" font-family="Helvetica,sans-Serif" font-size="10.00">Status::print</text>
</a>
</g>
</g>
<!-- Node2 -->
<g id="node2" class="node">
<title>Node2</title>
<g id="a_node2"><a xlink:href="classEnergyAndMomemtum.html#a8ce7725b12ac90b5f2f66a20a7b0fcdd" target="_top" xlink:title="print title and values in one lines">
<polygon fill="white" stroke="black" points="112,-49.5 112,-79.5 247,-79.5 247,-49.5 112,-49.5"/>
<text text-anchor="start" x="120" y="-67.5" font-family="Helvetica,sans-Serif" font-size="10.00">EnergyAndMomemtum::</text>
<text text-anchor="middle" x="179.5" y="-56.5" font-family="Helvetica,sans-Serif" font-size="10.00">print</text>
</a>
</g>
</g>
<!-- Node1&#45;&gt;Node2 -->
<g id="edge1" class="edge">
<title>Node1&#45;&gt;Node2</title>
<path fill="none" stroke="midnightblue" d="M76.02,-46.13C84.05,-47.57 92.84,-49.15 101.77,-50.75"/>
<polygon fill="midnightblue" stroke="midnightblue" points="101.44,-54.25 111.9,-52.56 102.67,-47.36 101.44,-54.25"/>
</g>
<!-- Node5 -->
<g id="node5" class="node">
<title>Node5</title>
<g id="a_node5"><a xlink:href="structStatus_1_1ParticleCM.html#a4d14f69f1b84aa3ca2315ba2b67c847b" target="_top" xlink:title="print title and values in one lines">
<polygon fill="white" stroke="black" points="127,-0.5 127,-30.5 232,-30.5 232,-0.5 127,-0.5"/>
<text text-anchor="start" x="135" y="-18.5" font-family="Helvetica,sans-Serif" font-size="10.00">Status::ParticleCM</text>
<text text-anchor="middle" x="179.5" y="-7.5" font-family="Helvetica,sans-Serif" font-size="10.00">::print</text>
</a>
</g>
</g>
<!-- Node1&#45;&gt;Node5 -->
<g id="edge4" class="edge">
<title>Node1&#45;&gt;Node5</title>
<path fill="none" stroke="midnightblue" d="M76.02,-33.13C88.55,-30.97 102.91,-28.5 116.84,-26.11"/>
<polygon fill="midnightblue" stroke="midnightblue" points="117.61,-29.53 126.87,-24.38 116.42,-22.63 117.61,-29.53"/>
</g>
<!-- Node3 -->
<g id="node3" class="node">
<title>Node3</title>
<g id="a_node3"><a xlink:href="classEnergyAndMomemtum.html#aaab3632eebd2889fdb6b8c4d93f5e1d7" target="_top" xlink:title="get energy error">
<polygon fill="white" stroke="black" points="283,-73.5 283,-103.5 418,-103.5 418,-73.5 283,-73.5"/>
<text text-anchor="start" x="291" y="-91.5" font-family="Helvetica,sans-Serif" font-size="10.00">EnergyAndMomemtum::</text>
<text text-anchor="middle" x="350.5" y="-80.5" font-family="Helvetica,sans-Serif" font-size="10.00">getEnergyError</text>
</a>
</g>
</g>
<!-- Node2&#45;&gt;Node3 -->
<g id="edge2" class="edge">
<title>Node2&#45;&gt;Node3</title>
<path fill="none" stroke="midnightblue" d="M247.29,-73.99C255.72,-75.18 264.38,-76.41 272.94,-77.63"/>
<polygon fill="midnightblue" stroke="midnightblue" points="272.52,-81.1 282.92,-79.04 273.51,-74.17 272.52,-81.1"/>
</g>
<!-- Node4 -->
<g id="node4" class="node">
<title>Node4</title>
<g id="a_node4"><a xlink:href="classEnergyAndMomemtum.html#a80207187dafc5faeccbb0cc8a898f1f1" target="_top" xlink:title="get angular momemtum (value) error">
<polygon fill="white" stroke="black" points="283,-24.5 283,-54.5 418,-54.5 418,-24.5 283,-24.5"/>
<text text-anchor="start" x="291" y="-42.5" font-family="Helvetica,sans-Serif" font-size="10.00">EnergyAndMomemtum::</text>
<text text-anchor="middle" x="350.5" y="-31.5" font-family="Helvetica,sans-Serif" font-size="10.00">getMomentumError</text>
</a>
</g>
</g>
<!-- Node2&#45;&gt;Node4 -->
<g id="edge3" class="edge">
<title>Node2&#45;&gt;Node4</title>
<path fill="none" stroke="midnightblue" d="M247.29,-54.62C255.72,-53.37 264.38,-52.09 272.94,-50.83"/>
<polygon fill="midnightblue" stroke="midnightblue" points="273.54,-54.28 282.92,-49.35 272.51,-47.35 273.54,-54.28"/>
</g>
</g>
</svg>
