<?xml version="1.0" encoding="UTF-8" standalone="no"?>
<!DOCTYPE svg PUBLIC "-//W3C//DTD SVG 1.1//EN"
 "http://www.w3.org/Graphics/SVG/1.1/DTD/svg11.dtd">
<!-- Generated by graphviz version 2.43.0 (0)
 -->
<!-- Title: ArtificialParticleInformation::readAscii Pages: 1 -->
<svg width="442pt" height="78pt"
 viewBox="0.00 0.00 442.00 77.50" xmlns="http://www.w3.org/2000/svg" xmlns:xlink="http://www.w3.org/1999/xlink">
<g id="graph0" class="graph" transform="scale(1 1) rotate(0) translate(4 73.5)">
<title>ArtificialParticleInformation::readAscii</title>
<polygon fill="white" stroke="transparent" points="-4,4 -4,-73.5 438,-73.5 438,4 -4,4"/>
<!-- Node1 -->
<g id="node1" class="node">
<title>Node1</title>
<g id="a_node1"><a xlink:title="read class data with ASCII format">
<polygon fill="#bfbfbf" stroke="black" points="284,-17 284,-47 434,-47 434,-17 284,-17"/>
<text text-anchor="start" x="292" y="-35" font-family="Helvetica,sans-Serif" font-size="10.00">ArtificialParticleInformation</text>
<text text-anchor="middle" x="359" y="-24" font-family="Helvetica,sans-Serif" font-size="10.00">::readAscii</text>
</a>
</g>
</g>
<!-- Node2 -->
<g id="node2" class="node">
<title>Node2</title>
<g id="a_node2"><a xlink:href="classFPSoftWriteArtificial.html#ad58f4f4a5f291e6535e0501db231b6da" target="_top" xlink:title=" ">
<polygon fill="white" stroke="black" points="134,-39 134,-69 248,-69 248,-39 134,-39"/>
<text text-anchor="start" x="142" y="-57" font-family="Helvetica,sans-Serif" font-size="10.00">FPSoftWriteArtificial</text>
<text text-anchor="middle" x="191" y="-46" font-family="Helvetica,sans-Serif" font-size="10.00">::readAscii</text>
</a>
</g>
</g>
<!-- Node1&#45;&gt;Node2 -->
<g id="edge1" class="edge">
<title>Node1&#45;&gt;Node2</title>
<path fill="none" stroke="midnightblue" d="M273.65,-43.18C265.05,-44.32 256.46,-45.46 248.27,-46.54"/>
<polygon fill="midnightblue" stroke="midnightblue" points="274.29,-46.63 283.74,-41.84 273.37,-39.69 274.29,-46.63"/>
</g>
<!-- Node3 -->
<g id="node3" class="node">
<title>Node3</title>
<g id="a_node3"><a xlink:href="classPtcl.html#a8194ae1343c9b9dacad1e2253a69ea7d" target="_top" xlink:title="read class data with ASCII format">
<polygon fill="white" stroke="black" points="148,-0.5 148,-19.5 234,-19.5 234,-0.5 148,-0.5"/>
<text text-anchor="middle" x="191" y="-7.5" font-family="Helvetica,sans-Serif" font-size="10.00">Ptcl::readAscii</text>
</a>
</g>
</g>
<!-- Node1&#45;&gt;Node3 -->
<g id="edge2" class="edge">
<title>Node1&#45;&gt;Node3</title>
<path fill="none" stroke="midnightblue" d="M273.79,-20.84C260.11,-19.03 246.47,-17.22 234.37,-15.61"/>
<polygon fill="midnightblue" stroke="midnightblue" points="273.37,-24.31 283.74,-22.16 274.29,-17.37 273.37,-24.31"/>
</g>
<!-- Node4 -->
<g id="node4" class="node">
<title>Node4</title>
<g id="a_node4"><a xlink:href="classFPSoft.html#a44ddce69cfafffbcd8327837cb0914d2" target="_top" xlink:title=" ">
<polygon fill="white" stroke="black" points="0,-0.5 0,-19.5 98,-19.5 98,-0.5 0,-0.5"/>
<text text-anchor="middle" x="49" y="-7.5" font-family="Helvetica,sans-Serif" font-size="10.00">FPSoft::readAscii</text>
</a>
</g>
</g>
<!-- Node3&#45;&gt;Node4 -->
<g id="edge3" class="edge">
<title>Node3&#45;&gt;Node4</title>
<path fill="none" stroke="midnightblue" d="M137.85,-10C124.91,-10 111.11,-10 98.37,-10"/>
<polygon fill="midnightblue" stroke="midnightblue" points="138,-13.5 148,-10 138,-6.5 138,-13.5"/>
</g>
</g>
</svg>
