<?xml version="1.0" encoding="UTF-8" standalone="no"?>
<!DOCTYPE svg PUBLIC "-//W3C//DTD SVG 1.1//EN"
 "http://www.w3.org/Graphics/SVG/1.1/DTD/svg11.dtd">
<!-- Generated by graphviz version 2.43.0 (0)
 -->
<!-- Title: Ptcl::print Pages: 1 -->
<svg width="202pt" height="104pt"
 viewBox="0.00 0.00 202.00 104.00" xmlns="http://www.w3.org/2000/svg" xmlns:xlink="http://www.w3.org/1999/xlink">
<g id="graph0" class="graph" transform="scale(1 1) rotate(0) translate(4 100)">
<title>Ptcl::print</title>
<polygon fill="white" stroke="transparent" points="-4,4 -4,-100 198,-100 198,4 -4,4"/>
<!-- Node1 -->
<g id="node1" class="node">
<title>Node1</title>
<g id="a_node1"><a xlink:title=" ">
<polygon fill="#bfbfbf" stroke="black" points="131,-38.5 131,-57.5 194,-57.5 194,-38.5 131,-38.5"/>
<text text-anchor="middle" x="162.5" y="-45.5" font-family="Helvetica,sans-Serif" font-size="10.00">Ptcl::print</text>
</a>
</g>
</g>
<!-- Node2 -->
<g id="node2" class="node">
<title>Node2</title>
<g id="a_node2"><a xlink:href="classPtclHard.html#a7872fa3ef93834e734603353d4c3b5fb" target="_top" xlink:title=" ">
<polygon fill="white" stroke="black" points="4.5,-76.5 4.5,-95.5 90.5,-95.5 90.5,-76.5 4.5,-76.5"/>
<text text-anchor="middle" x="47.5" y="-83.5" font-family="Helvetica,sans-Serif" font-size="10.00">PtclHard::print</text>
</a>
</g>
</g>
<!-- Node1&#45;&gt;Node2 -->
<g id="edge1" class="edge">
<title>Node1&#45;&gt;Node2</title>
<path fill="none" stroke="midnightblue" d="M123.36,-60.83C108.2,-65.92 91.06,-71.69 77.01,-76.41"/>
<polygon fill="midnightblue" stroke="midnightblue" points="124.62,-64.09 132.99,-57.59 122.39,-57.46 124.62,-64.09"/>
</g>
<!-- Node3 -->
<g id="node3" class="node">
<title>Node3</title>
<g id="a_node3"><a xlink:href="classPtclComm.html#ab388838b65d692e724a40abc67f44657" target="_top" xlink:title=" ">
<polygon fill="white" stroke="black" points="0,-38.5 0,-57.5 95,-57.5 95,-38.5 0,-38.5"/>
<text text-anchor="middle" x="47.5" y="-45.5" font-family="Helvetica,sans-Serif" font-size="10.00">PtclComm::print</text>
</a>
</g>
</g>
<!-- Node1&#45;&gt;Node3 -->
<g id="edge2" class="edge">
<title>Node1&#45;&gt;Node3</title>
<path fill="none" stroke="midnightblue" d="M120.76,-48C112.48,-48 103.72,-48 95.25,-48"/>
<polygon fill="midnightblue" stroke="midnightblue" points="120.92,-51.5 130.92,-48 120.92,-44.5 120.92,-51.5"/>
</g>
<!-- Node4 -->
<g id="node4" class="node">
<title>Node4</title>
<g id="a_node4"><a xlink:href="classFPSoft.html#a2125ae3505a6ee147649fa0fe85fdbb8" target="_top" xlink:title=" ">
<polygon fill="white" stroke="black" points="9.5,-0.5 9.5,-19.5 85.5,-19.5 85.5,-0.5 9.5,-0.5"/>
<text text-anchor="middle" x="47.5" y="-7.5" font-family="Helvetica,sans-Serif" font-size="10.00">FPSoft::print</text>
</a>
</g>
</g>
<!-- Node1&#45;&gt;Node4 -->
<g id="edge3" class="edge">
<title>Node1&#45;&gt;Node4</title>
<path fill="none" stroke="midnightblue" d="M123.36,-35.17C108.2,-30.08 91.06,-24.31 77.01,-19.59"/>
<polygon fill="midnightblue" stroke="midnightblue" points="122.39,-38.54 132.99,-38.41 124.62,-31.91 122.39,-38.54"/>
</g>
</g>
</svg>
