<?xml version="1.0" encoding="UTF-8" standalone="no"?>
<!DOCTYPE svg PUBLIC "-//W3C//DTD SVG 1.1//EN"
 "http://www.w3.org/Graphics/SVG/1.1/DTD/svg11.dtd">
<!-- Generated by graphviz version 2.43.0 (0)
 -->
<!-- Title: BSEManager::evolveBinary Pages: 1 -->
<svg width="464pt" height="180pt"
 viewBox="0.00 0.00 464.00 180.00" xmlns="http://www.w3.org/2000/svg" xmlns:xlink="http://www.w3.org/1999/xlink">
<g id="graph0" class="graph" transform="scale(1 1) rotate(0) translate(4 176)">
<title>BSEManager::evolveBinary</title>
<polygon fill="white" stroke="transparent" points="-4,4 -4,-176 460,-176 460,4 -4,4"/>
<!-- Node1 -->
<g id="node1" class="node">
<title>Node1</title>
<g id="a_node1"><a xlink:title="call evolv2 for a binary">
<polygon fill="#bfbfbf" stroke="black" points="0,-76.5 0,-95.5 149,-95.5 149,-76.5 0,-76.5"/>
<text text-anchor="middle" x="74.5" y="-83.5" font-family="Helvetica,sans-Serif" font-size="10.00">BSEManager::evolveBinary</text>
</a>
</g>
</g>
<!-- Node2 -->
<g id="node2" class="node">
<title>Node2</title>
<g id="a_node2"><a xlink:href="classBSEManager.html#af97aa6234723181b08aab193127e2028" target="_top" xlink:title="call SSE evolv1 for single star">
<polygon fill="white" stroke="black" points="201.5,-152.5 201.5,-171.5 338.5,-171.5 338.5,-152.5 201.5,-152.5"/>
<text text-anchor="middle" x="270" y="-159.5" font-family="Helvetica,sans-Serif" font-size="10.00">BSEManager::evolveStar</text>
</a>
</g>
</g>
<!-- Node1&#45;&gt;Node2 -->
<g id="edge1" class="edge">
<title>Node1&#45;&gt;Node2</title>
<path fill="none" stroke="midnightblue" d="M90.87,-95.63C111.55,-108.2 149.78,-130.1 185,-143 192.03,-145.58 199.52,-147.87 207.03,-149.89"/>
<polygon fill="midnightblue" stroke="midnightblue" points="206.31,-153.32 216.86,-152.4 208.04,-146.54 206.31,-153.32"/>
</g>
<!-- Node3 -->
<g id="node3" class="node">
<title>Node3</title>
<g id="a_node3"><a xlink:href="classBinaryEvent.html#ad82d36b90a69ce9fb2e65af39cb6cd41" target="_top" xlink:title="The index of initial event in record array (last one)">
<polygon fill="white" stroke="black" points="186,-114.5 186,-133.5 354,-133.5 354,-114.5 186,-114.5"/>
<text text-anchor="middle" x="270" y="-121.5" font-family="Helvetica,sans-Serif" font-size="10.00">BinaryEvent::getEventIndexInit</text>
</a>
</g>
</g>
<!-- Node1&#45;&gt;Node3 -->
<g id="edge2" class="edge">
<title>Node1&#45;&gt;Node3</title>
<path fill="none" stroke="midnightblue" d="M124.33,-95.59C150.55,-100.74 183.06,-107.12 210.62,-112.53"/>
<polygon fill="midnightblue" stroke="midnightblue" points="210.04,-115.99 220.52,-114.48 211.38,-109.12 210.04,-115.99"/>
</g>
<!-- Node4 -->
<g id="node4" class="node">
<title>Node4</title>
<g id="a_node4"><a xlink:href="namespacePIKG.html#aede68ae33404ee6199164897b8cbc9ad" target="_top" xlink:title=" ">
<polygon fill="white" stroke="black" points="236,-76.5 236,-95.5 304,-95.5 304,-76.5 236,-76.5"/>
<text text-anchor="middle" x="270" y="-83.5" font-family="Helvetica,sans-Serif" font-size="10.00">PIKG::max</text>
</a>
</g>
</g>
<!-- Node1&#45;&gt;Node4 -->
<g id="edge3" class="edge">
<title>Node1&#45;&gt;Node4</title>
<path fill="none" stroke="midnightblue" d="M149.21,-86C175.02,-86 203.16,-86 225.68,-86"/>
<polygon fill="midnightblue" stroke="midnightblue" points="225.92,-89.5 235.92,-86 225.92,-82.5 225.92,-89.5"/>
</g>
<!-- Node5 -->
<g id="node5" class="node">
<title>Node5</title>
<g id="a_node5"><a xlink:href="classBinaryEvent.html#abceee9b94161fd75851eaf003a49c011" target="_top" xlink:title="set up the initial parameter of binary event based on the present status of a binary">
<polygon fill="white" stroke="black" points="200,-38.5 200,-57.5 340,-57.5 340,-38.5 200,-38.5"/>
<text text-anchor="middle" x="270" y="-45.5" font-family="Helvetica,sans-Serif" font-size="10.00">BinaryEvent::recordEvent</text>
</a>
</g>
</g>
<!-- Node1&#45;&gt;Node5 -->
<g id="edge4" class="edge">
<title>Node1&#45;&gt;Node5</title>
<path fill="none" stroke="midnightblue" d="M124.33,-76.41C150.55,-71.26 183.06,-64.88 210.62,-59.47"/>
<polygon fill="midnightblue" stroke="midnightblue" points="211.38,-62.88 220.52,-57.52 210.04,-56.01 211.38,-62.88"/>
</g>
<!-- Node7 -->
<g id="node7" class="node">
<title>Node7</title>
<g id="a_node7"><a xlink:href="classBinaryEvent.html#a1ee6a0a141093aa6f5662c4cf7659a6c" target="_top" xlink:title="set binary type to &#45;1 for the given event index to indicate the end of record">
<polygon fill="white" stroke="black" points="185,-0.5 185,-19.5 355,-19.5 355,-0.5 185,-0.5"/>
<text text-anchor="middle" x="270" y="-7.5" font-family="Helvetica,sans-Serif" font-size="10.00">BinaryEvent::setEventIndexEnd</text>
</a>
</g>
</g>
<!-- Node1&#45;&gt;Node7 -->
<g id="edge6" class="edge">
<title>Node1&#45;&gt;Node7</title>
<path fill="none" stroke="midnightblue" d="M90.87,-76.37C111.55,-63.8 149.78,-41.9 185,-29 192.03,-26.42 199.52,-24.13 207.03,-22.11"/>
<polygon fill="midnightblue" stroke="midnightblue" points="208.04,-25.46 216.86,-19.6 206.31,-18.68 208.04,-25.46"/>
</g>
<!-- Node6 -->
<g id="node6" class="node">
<title>Node6</title>
<g id="a_node6"><a xlink:href="namespacePIKG.html#aab82f0106f14677daa09a64a269eaadf" target="_top" xlink:title=" ">
<polygon fill="white" stroke="black" points="391,-38.5 391,-57.5 456,-57.5 456,-38.5 391,-38.5"/>
<text text-anchor="middle" x="423.5" y="-45.5" font-family="Helvetica,sans-Serif" font-size="10.00">PIKG::min</text>
</a>
</g>
</g>
<!-- Node5&#45;&gt;Node6 -->
<g id="edge5" class="edge">
<title>Node5&#45;&gt;Node6</title>
<path fill="none" stroke="midnightblue" d="M340.1,-48C354,-48 368.2,-48 380.81,-48"/>
<polygon fill="midnightblue" stroke="midnightblue" points="380.99,-51.5 390.99,-48 380.99,-44.5 380.99,-51.5"/>
</g>
</g>
</svg>
