<?xml version="1.0" encoding="UTF-8" standalone="no"?>
<!DOCTYPE svg PUBLIC "-//W3C//DTD SVG 1.1//EN"
 "http://www.w3.org/Graphics/SVG/1.1/DTD/svg11.dtd">
<!-- Generated by graphviz version 2.43.0 (0)
 -->
<!-- Title: BSEManager::getTimeStepStar Pages: 1 -->
<svg width="388pt" height="78pt"
 viewBox="0.00 0.00 388.00 77.50" xmlns="http://www.w3.org/2000/svg" xmlns:xlink="http://www.w3.org/1999/xlink">
<g id="graph0" class="graph" transform="scale(1 1) rotate(0) translate(4 73.5)">
<title>BSEManager::getTimeStepStar</title>
<polygon fill="white" stroke="transparent" points="-4,4 -4,-73.5 384,-73.5 384,4 -4,4"/>
<!-- Node1 -->
<g id="node1" class="node">
<title>Node1</title>
<g id="a_node1"><a xlink:title="get next time step to check in Myr">
<polygon fill="#bfbfbf" stroke="black" points="214,-28 214,-47 380,-47 380,-28 214,-28"/>
<text text-anchor="middle" x="297" y="-35" font-family="Helvetica,sans-Serif" font-size="10.00">BSEManager::getTimeStepStar</text>
</a>
</g>
</g>
<!-- Node2 -->
<g id="node2" class="node">
<title>Node2</title>
<g id="a_node2"><a xlink:href="classBSEManager.html#af4d46cc4343c6f9a8175942cac4656de" target="_top" xlink:title="call BSE evolv2 for a binary">
<polygon fill="white" stroke="black" points="0,-50 0,-69 178,-69 178,-50 0,-50"/>
<text text-anchor="middle" x="89" y="-57" font-family="Helvetica,sans-Serif" font-size="10.00">BSEManager::getTimeStepBinary</text>
</a>
</g>
</g>
<!-- Node1&#45;&gt;Node2 -->
<g id="edge1" class="edge">
<title>Node1&#45;&gt;Node2</title>
<path fill="none" stroke="midnightblue" d="M203.97,-47.33C195.39,-48.24 186.7,-49.17 178.15,-50.09"/>
<polygon fill="midnightblue" stroke="midnightblue" points="204.42,-50.8 213.99,-46.26 203.68,-43.84 204.42,-50.8"/>
</g>
<!-- Node3 -->
<g id="node3" class="node">
<title>Node3</title>
<g id="a_node3"><a xlink:href="classARInteraction.html#a01115b0f522974cd9e5f0ecd3ef57663" target="_top" xlink:title="(Necessary) modify one particle function">
<polygon fill="white" stroke="black" points="18,-0.5 18,-30.5 160,-30.5 160,-0.5 18,-0.5"/>
<text text-anchor="start" x="26" y="-18.5" font-family="Helvetica,sans-Serif" font-size="10.00">ARInteraction::modifyOne</text>
<text text-anchor="middle" x="89" y="-7.5" font-family="Helvetica,sans-Serif" font-size="10.00">Particle</text>
</a>
</g>
</g>
<!-- Node1&#45;&gt;Node3 -->
<g id="edge2" class="edge">
<title>Node1&#45;&gt;Node3</title>
<path fill="none" stroke="midnightblue" d="M203.88,-27.66C189.18,-26.09 174.18,-24.49 160.1,-22.99"/>
<polygon fill="midnightblue" stroke="midnightblue" points="203.68,-31.16 213.99,-28.74 204.42,-24.2 203.68,-31.16"/>
</g>
</g>
</svg>
