<?xml version="1.0" encoding="UTF-8" standalone="no"?>
<!DOCTYPE svg PUBLIC "-//W3C//DTD SVG 1.1//EN"
 "http://www.w3.org/Graphics/SVG/1.1/DTD/svg11.dtd">
<!-- Generated by graphviz version 2.43.0 (0)
 -->
<!-- Title: ChangeOver::calcPotW Pages: 1 -->
<svg width="540pt" height="198pt"
 viewBox="0.00 0.00 540.00 198.00" xmlns="http://www.w3.org/2000/svg" xmlns:xlink="http://www.w3.org/1999/xlink">
<g id="graph0" class="graph" transform="scale(1 1) rotate(0) translate(4 194)">
<title>ChangeOver::calcPotW</title>
<polygon fill="white" stroke="transparent" points="-4,4 -4,-194 536,-194 536,4 -4,4"/>
<!-- Node1 -->
<g id="node1" class="node">
<title>Node1</title>
<g id="a_node1"><a xlink:title="changeover function for potential">
<polygon fill="#bfbfbf" stroke="black" points="404,-88 404,-107 532,-107 532,-88 404,-88"/>
<text text-anchor="middle" x="468" y="-95" font-family="Helvetica,sans-Serif" font-size="10.00">ChangeOver::calcPotW</text>
</a>
</g>
</g>
<!-- Node2 -->
<g id="node2" class="node">
<title>Node2</title>
<g id="a_node2"><a xlink:href="classChangeOver.html#a42703491c22c6f1925e28f4eb7508594" target="_top" xlink:title="calculate changeover function Pot by selecting maximum rout">
<polygon fill="white" stroke="black" points="222,-88 222,-107 368,-107 368,-88 222,-88"/>
<text text-anchor="middle" x="295" y="-95" font-family="Helvetica,sans-Serif" font-size="10.00">ChangeOver::calcPotWTwo</text>
</a>
</g>
</g>
<!-- Node1&#45;&gt;Node2 -->
<g id="edge1" class="edge">
<title>Node1&#45;&gt;Node2</title>
<path fill="none" stroke="midnightblue" d="M393.62,-97.5C385.18,-97.5 376.58,-97.5 368.16,-97.5"/>
<polygon fill="midnightblue" stroke="midnightblue" points="393.81,-101 403.81,-97.5 393.81,-94 393.81,-101"/>
</g>
<!-- Node3 -->
<g id="node3" class="node">
<title>Node3</title>
<g id="a_node3"><a xlink:href="classHermiteInteraction.html#ad0c5b9678c1cb91f89d90d1f4a94a568" target="_top" xlink:title="calculate acceleration and jerk of one pair single and resolved group">
<polygon fill="white" stroke="black" points="0,-159.5 0,-189.5 186,-189.5 186,-159.5 0,-159.5"/>
<text text-anchor="start" x="8" y="-177.5" font-family="Helvetica,sans-Serif" font-size="10.00">HermiteInteraction</text>
<text text-anchor="middle" x="93" y="-166.5" font-family="Helvetica,sans-Serif" font-size="10.00">::calcAccJerkPairGroupCMGroupCM</text>
</a>
</g>
</g>
<!-- Node2&#45;&gt;Node3 -->
<g id="edge2" class="edge">
<title>Node2&#45;&gt;Node3</title>
<path fill="none" stroke="midnightblue" d="M268.44,-111.87C246.95,-123.5 215.16,-139.67 186,-150.5 177.18,-153.78 167.73,-156.78 158.36,-159.48"/>
<polygon fill="midnightblue" stroke="midnightblue" points="270.17,-114.91 277.26,-107.04 266.81,-108.77 270.17,-114.91"/>
</g>
<!-- Node4 -->
<g id="node4" class="node">
<title>Node4</title>
<g id="a_node4"><a xlink:href="classHermiteInteraction.html#a9d8f0c34f81481a7bc2cd61afb296a53" target="_top" xlink:title="calculate acceleration and jerk of one pair single and resolved group">
<polygon fill="white" stroke="black" points="7.5,-110.5 7.5,-140.5 178.5,-140.5 178.5,-110.5 7.5,-110.5"/>
<text text-anchor="start" x="15.5" y="-128.5" font-family="Helvetica,sans-Serif" font-size="10.00">HermiteInteraction</text>
<text text-anchor="middle" x="93" y="-117.5" font-family="Helvetica,sans-Serif" font-size="10.00">::calcAccJerkPairSingleGroupCM</text>
</a>
</g>
</g>
<!-- Node2&#45;&gt;Node4 -->
<g id="edge3" class="edge">
<title>Node2&#45;&gt;Node4</title>
<path fill="none" stroke="midnightblue" d="M215.91,-108.43C203.74,-110.14 191.11,-111.9 178.8,-113.63"/>
<polygon fill="midnightblue" stroke="midnightblue" points="216.59,-111.87 226.01,-107.02 215.62,-104.94 216.59,-111.87"/>
</g>
<!-- Node5 -->
<g id="node5" class="node">
<title>Node5</title>
<g id="a_node5"><a xlink:href="classHermiteInteraction.html#aecaa8dca2c19d0c2833212611d1f3118" target="_top" xlink:title="calculate acceleration and jerk of one pair single and resolved group">
<polygon fill="white" stroke="black" points="15.5,-50 15.5,-91 170.5,-91 170.5,-50 15.5,-50"/>
<text text-anchor="start" x="23.5" y="-79" font-family="Helvetica,sans-Serif" font-size="10.00">HermiteInteraction</text>
<text text-anchor="start" x="23.5" y="-68" font-family="Helvetica,sans-Serif" font-size="10.00">::calcAccJerkPairSingleGroup</text>
<text text-anchor="middle" x="93" y="-57" font-family="Helvetica,sans-Serif" font-size="10.00">Member</text>
</a>
</g>
</g>
<!-- Node2&#45;&gt;Node5 -->
<g id="edge4" class="edge">
<title>Node2&#45;&gt;Node5</title>
<path fill="none" stroke="midnightblue" d="M213.34,-86.61C199.26,-84.71 184.64,-82.74 170.67,-80.85"/>
<polygon fill="midnightblue" stroke="midnightblue" points="213.11,-90.11 223.49,-87.98 214.05,-83.17 213.11,-90.11"/>
</g>
<!-- Node6 -->
<g id="node6" class="node">
<title>Node6</title>
<g id="a_node6"><a xlink:href="classHermiteInteraction.html#ae5d870c8e163034c8b419ef64a031e39" target="_top" xlink:title="calculate acceleration and jerk of one pair">
<polygon fill="white" stroke="black" points="15,-0.5 15,-30.5 171,-30.5 171,-0.5 15,-0.5"/>
<text text-anchor="start" x="23" y="-18.5" font-family="Helvetica,sans-Serif" font-size="10.00">HermiteInteraction</text>
<text text-anchor="middle" x="93" y="-7.5" font-family="Helvetica,sans-Serif" font-size="10.00">::calcAccJerkPairSingleSingle</text>
</a>
</g>
</g>
<!-- Node2&#45;&gt;Node6 -->
<g id="edge5" class="edge">
<title>Node2&#45;&gt;Node6</title>
<path fill="none" stroke="midnightblue" d="M269.67,-82.67C248.25,-70.1 215.9,-52.28 186,-40.5 176.76,-36.86 166.8,-33.55 156.96,-30.62"/>
<polygon fill="midnightblue" stroke="midnightblue" points="268.04,-85.77 278.42,-87.87 271.61,-79.75 268.04,-85.77"/>
</g>
</g>
</svg>
