<?xml version="1.0" encoding="UTF-8" standalone="no"?>
<!DOCTYPE svg PUBLIC "-//W3C//DTD SVG 1.1//EN"
 "http://www.w3.org/Graphics/SVG/1.1/DTD/svg11.dtd">
<!-- Generated by graphviz version 2.43.0 (0)
 -->
<!-- Title: PtclHard::setTidalTensorID Pages: 1 -->
<svg width="525pt" height="88pt"
 viewBox="0.00 0.00 525.00 88.00" xmlns="http://www.w3.org/2000/svg" xmlns:xlink="http://www.w3.org/1999/xlink">
<g id="graph0" class="graph" transform="scale(1 1) rotate(0) translate(4 84)">
<title>PtclHard::setTidalTensorID</title>
<polygon fill="white" stroke="transparent" points="-4,4 -4,-84 521,-84 521,4 -4,4"/>
<!-- Node1 -->
<g id="node1" class="node">
<title>Node1</title>
<g id="a_node1"><a xlink:title=" ">
<polygon fill="#bfbfbf" stroke="black" points="0,-30 0,-49 145,-49 145,-30 0,-30"/>
<text text-anchor="middle" x="72.5" y="-37" font-family="Helvetica,sans-Serif" font-size="10.00">PtclHard::setTidalTensorID</text>
</a>
</g>
</g>
<!-- Node2 -->
<g id="node2" class="node">
<title>Node2</title>
<g id="a_node2"><a xlink:href="classArtificialParticleInformation.html#a5270d8aa4301b8236c1247592c8c9512" target="_top" xlink:title="set status">
<polygon fill="white" stroke="black" points="181,-24.5 181,-54.5 331,-54.5 331,-24.5 181,-24.5"/>
<text text-anchor="start" x="189" y="-42.5" font-family="Helvetica,sans-Serif" font-size="10.00">ArtificialParticleInformation</text>
<text text-anchor="middle" x="256" y="-31.5" font-family="Helvetica,sans-Serif" font-size="10.00">::setStatus</text>
</a>
</g>
</g>
<!-- Node1&#45;&gt;Node2 -->
<g id="edge1" class="edge">
<title>Node1&#45;&gt;Node2</title>
<path fill="none" stroke="midnightblue" d="M145.23,-39.5C153.55,-39.5 162.08,-39.5 170.54,-39.5"/>
<polygon fill="midnightblue" stroke="midnightblue" points="170.81,-43 180.81,-39.5 170.81,-36 170.81,-43"/>
</g>
<!-- Node3 -->
<g id="node3" class="node">
<title>Node3</title>
<g id="a_node3"><a xlink:href="classArtificialParticleInformation.html#ae87f07e0baa5ec2a19c6b73e191825bc" target="_top" xlink:title="return whether the particle type is artificial">
<polygon fill="white" stroke="black" points="367,-49.5 367,-79.5 517,-79.5 517,-49.5 367,-49.5"/>
<text text-anchor="start" x="375" y="-67.5" font-family="Helvetica,sans-Serif" font-size="10.00">ArtificialParticleInformation</text>
<text text-anchor="middle" x="442" y="-56.5" font-family="Helvetica,sans-Serif" font-size="10.00">::isArtificial</text>
</a>
</g>
</g>
<!-- Node2&#45;&gt;Node3 -->
<g id="edge2" class="edge">
<title>Node2&#45;&gt;Node3</title>
<path fill="none" stroke="midnightblue" d="M331.04,-49.56C339.51,-50.71 348.19,-51.89 356.78,-53.06"/>
<polygon fill="midnightblue" stroke="midnightblue" points="356.43,-56.54 366.81,-54.42 357.37,-49.6 356.43,-56.54"/>
</g>
<!-- Node4 -->
<g id="node4" class="node">
<title>Node4</title>
<g id="a_node4"><a xlink:href="classArtificialParticleInformation.html#abc5b2bdadb35b2f7f5d4d589be9e12be" target="_top" xlink:title="return whether the particle type is member">
<polygon fill="white" stroke="black" points="367,-0.5 367,-30.5 517,-30.5 517,-0.5 367,-0.5"/>
<text text-anchor="start" x="375" y="-18.5" font-family="Helvetica,sans-Serif" font-size="10.00">ArtificialParticleInformation</text>
<text text-anchor="middle" x="442" y="-7.5" font-family="Helvetica,sans-Serif" font-size="10.00">::isMember</text>
</a>
</g>
</g>
<!-- Node2&#45;&gt;Node4 -->
<g id="edge3" class="edge">
<title>Node2&#45;&gt;Node4</title>
<path fill="none" stroke="midnightblue" d="M331.04,-29.84C339.51,-28.74 348.19,-27.61 356.78,-26.48"/>
<polygon fill="midnightblue" stroke="midnightblue" points="357.34,-29.94 366.81,-25.18 356.44,-23 357.34,-29.94"/>
</g>
</g>
</svg>
