<?xml version="1.0" encoding="UTF-8" standalone="no"?>
<!DOCTYPE svg PUBLIC "-//W3C//DTD SVG 1.1//EN"
 "http://www.w3.org/Graphics/SVG/1.1/DTD/svg11.dtd">
<!-- Generated by graphviz version 2.43.0 (0)
 -->
<!-- Title: GalpyManager::updatePotentialSet Pages: 1 -->
<svg width="564pt" height="28pt"
 viewBox="0.00 0.00 564.00 28.00" xmlns="http://www.w3.org/2000/svg" xmlns:xlink="http://www.w3.org/1999/xlink">
<g id="graph0" class="graph" transform="scale(1 1) rotate(0) translate(4 24)">
<title>GalpyManager::updatePotentialSet</title>
<polygon fill="white" stroke="transparent" points="-4,4 -4,-24 560,-24 560,4 -4,4"/>
<!-- Node1 -->
<g id="node1" class="node">
<title>Node1</title>
<g id="a_node1"><a xlink:title="generate potentail args">
<polygon fill="#bfbfbf" stroke="black" points="0,-0.5 0,-19.5 187,-19.5 187,-0.5 0,-0.5"/>
<text text-anchor="middle" x="93.5" y="-7.5" font-family="Helvetica,sans-Serif" font-size="10.00">GalpyManager::updatePotentialSet</text>
</a>
</g>
</g>
<!-- Node2 -->
<g id="node2" class="node">
<title>Node2</title>
<g id="a_node2"><a xlink:href="classGalpyManager.html#a5bc0d4b2e49875e6706fb03c4a11e9a2" target="_top" xlink:title=" ">
<polygon fill="white" stroke="black" points="223,-0.5 223,-19.5 402,-19.5 402,-0.5 223,-0.5"/>
<text text-anchor="middle" x="312.5" y="-7.5" font-family="Helvetica,sans-Serif" font-size="10.00">GalpyManager::freePotentialArgs</text>
</a>
</g>
</g>
<!-- Node1&#45;&gt;Node2 -->
<g id="edge1" class="edge">
<title>Node1&#45;&gt;Node2</title>
<path fill="none" stroke="midnightblue" d="M187.16,-10C195.69,-10 204.35,-10 212.92,-10"/>
<polygon fill="midnightblue" stroke="midnightblue" points="212.94,-13.5 222.94,-10 212.94,-6.5 212.94,-13.5"/>
</g>
<!-- Node3 -->
<g id="node3" class="node">
<title>Node3</title>
<g id="a_node3"><a xlink:href="classGalpyManager.html#a1b462774660dccb211b5845458c07eca" target="_top" xlink:title=" ">
<polygon fill="white" stroke="black" points="438,-0.5 438,-19.5 556,-19.5 556,-0.5 438,-0.5"/>
<text text-anchor="middle" x="497" y="-7.5" font-family="Helvetica,sans-Serif" font-size="10.00">GalpyManager::clear</text>
</a>
</g>
</g>
<!-- Node2&#45;&gt;Node3 -->
<g id="edge2" class="edge">
<title>Node2&#45;&gt;Node3</title>
<path fill="none" stroke="midnightblue" d="M402.08,-3.25C410.73,-3.24 419.41,-3.3 427.82,-3.45"/>
<polygon fill="midnightblue" stroke="midnightblue" points="427.84,-6.95 437.91,-3.66 427.99,0.05 427.84,-6.95"/>
</g>
<!-- Node3&#45;&gt;Node2 -->
<g id="edge3" class="edge">
<title>Node3&#45;&gt;Node2</title>
<path fill="none" stroke="midnightblue" d="M437.91,-16.34C429.69,-16.55 421.06,-16.68 412.34,-16.73"/>
<polygon fill="midnightblue" stroke="midnightblue" points="412.07,-13.23 402.08,-16.75 412.08,-20.23 412.07,-13.23"/>
</g>
</g>
</svg>
