<?xml version="1.0" encoding="UTF-8" standalone="no"?>
<!DOCTYPE svg PUBLIC "-//W3C//DTD SVG 1.1//EN"
 "http://www.w3.org/Graphics/SVG/1.1/DTD/svg11.dtd">
<!-- Generated by graphviz version 2.43.0 (0)
 -->
<!-- Title: IOParamsHardTest Pages: 1 -->
<svg width="550pt" height="172pt"
 viewBox="0.00 0.00 550.00 172.00" xmlns="http://www.w3.org/2000/svg" xmlns:xlink="http://www.w3.org/1999/xlink">
<g id="graph0" class="graph" transform="scale(1 1) rotate(0) translate(4 168)">
<title>IOParamsHardTest</title>
<polygon fill="white" stroke="transparent" points="-4,4 -4,-168 546,-168 546,4 -4,4"/>
<!-- Node1 -->
<g id="node1" class="node">
<title>Node1</title>
<g id="a_node1"><a xlink:title=" ">
<polygon fill="#bfbfbf" stroke="black" points="215,-0.5 215,-19.5 321,-19.5 321,-0.5 215,-0.5"/>
<text text-anchor="middle" x="268" y="-7.5" font-family="Helvetica,sans-Serif" font-size="10.00">IOParamsHardTest</text>
</a>
</g>
</g>
<!-- Node2 -->
<g id="node2" class="node">
<title>Node2</title>
<g id="a_node2"><a xlink:href="classIOParamsContainer.html" target="_top" xlink:title="IO Params container.">
<polygon fill="white" stroke="black" points="0,-144.5 0,-163.5 110,-163.5 110,-144.5 0,-144.5"/>
<text text-anchor="middle" x="55" y="-151.5" font-family="Helvetica,sans-Serif" font-size="10.00">IOParamsContainer</text>
</a>
</g>
</g>
<!-- Node2&#45;&gt;Node1 -->
<g id="edge1" class="edge">
<title>Node2&#45;&gt;Node1</title>
<path fill="none" stroke="#9a32cd" stroke-dasharray="5,2" d="M60.96,-134.67C70.39,-108.74 91.33,-61.86 126,-38 140.32,-28.15 180.7,-21.05 214.76,-16.62"/>
<polygon fill="#9a32cd" stroke="#9a32cd" points="57.56,-133.78 57.61,-144.37 64.18,-136.06 57.56,-133.78"/>
<text text-anchor="middle" x="165.5" y="-79.5" font-family="Helvetica,sans-Serif" font-size="10.00"> input_par_store</text>
</g>
<!-- Node3 -->
<g id="node3" class="node">
<title>Node3</title>
<g id="a_node3"><a xlink:href="structIOParams.html" target="_top" xlink:title=" ">
<polygon fill="white" stroke="black" points="128,-144.5 128,-163.5 262,-163.5 262,-144.5 128,-144.5"/>
<text text-anchor="middle" x="195" y="-151.5" font-family="Helvetica,sans-Serif" font-size="10.00">IOParams&lt; std::string &gt;</text>
</a>
</g>
</g>
<!-- Node3&#45;&gt;Node1 -->
<g id="edge2" class="edge">
<title>Node3&#45;&gt;Node1</title>
<path fill="none" stroke="#9a32cd" stroke-dasharray="5,2" d="M204.29,-134.92C220.19,-104 252,-42.12 263.62,-19.52"/>
<polygon fill="#9a32cd" stroke="#9a32cd" points="201.03,-133.62 199.57,-144.12 207.25,-136.82 201.03,-133.62"/>
<text text-anchor="middle" x="282.5" y="-79.5" font-family="Helvetica,sans-Serif" font-size="10.00"> fname_inp</text>
</g>
<!-- Node4 -->
<g id="node4" class="node">
<title>Node4</title>
<g id="a_node4"><a xlink:href="structIOParams.html" target="_top" xlink:title=" ">
<polygon fill="white" stroke="black" points="280,-144.5 280,-163.5 402,-163.5 402,-144.5 280,-144.5"/>
<text text-anchor="middle" x="341" y="-151.5" font-family="Helvetica,sans-Serif" font-size="10.00">IOParams&lt; PS::S64 &gt;</text>
</a>
</g>
</g>
<!-- Node4&#45;&gt;Node1 -->
<g id="edge3" class="edge">
<title>Node4&#45;&gt;Node1</title>
<path fill="none" stroke="#9a32cd" stroke-dasharray="5,2" d="M340.99,-134.16C340.06,-109.72 335.22,-66.78 314,-38 308.07,-29.95 298.95,-23.89 290.4,-19.57"/>
<polygon fill="#9a32cd" stroke="#9a32cd" points="337.49,-134.33 341.18,-144.26 344.49,-134.19 337.49,-134.33"/>
<text text-anchor="middle" x="345" y="-79.5" font-family="Helvetica,sans-Serif" font-size="10.00"> n</text>
</g>
<!-- Node5 -->
<g id="node5" class="node">
<title>Node5</title>
<g id="a_node5"><a xlink:href="structIOParams.html" target="_top" xlink:title=" ">
<polygon fill="white" stroke="black" points="420,-144.5 420,-163.5 542,-163.5 542,-144.5 420,-144.5"/>
<text text-anchor="middle" x="481" y="-151.5" font-family="Helvetica,sans-Serif" font-size="10.00">IOParams&lt; PS::F64 &gt;</text>
</a>
</g>
</g>
<!-- Node5&#45;&gt;Node1 -->
<g id="edge4" class="edge">
<title>Node5&#45;&gt;Node1</title>
<path fill="none" stroke="#9a32cd" stroke-dasharray="5,2" d="M467.25,-136.67C445.59,-111.93 401.1,-64.97 354,-38 339.74,-29.84 322.71,-23.83 307.58,-19.58"/>
<polygon fill="#9a32cd" stroke="#9a32cd" points="464.75,-139.13 473.93,-144.43 470.05,-134.56 464.75,-139.13"/>
<text text-anchor="middle" x="476" y="-118" font-family="Helvetica,sans-Serif" font-size="10.00"> rin</text>
<text text-anchor="middle" x="476" y="-107" font-family="Helvetica,sans-Serif" font-size="10.00">eps</text>
<text text-anchor="middle" x="476" y="-96" font-family="Helvetica,sans-Serif" font-size="10.00">rsearch</text>
<text text-anchor="middle" x="476" y="-85" font-family="Helvetica,sans-Serif" font-size="10.00">dt_limit</text>
<text text-anchor="middle" x="476" y="-74" font-family="Helvetica,sans-Serif" font-size="10.00">rbin</text>
<text text-anchor="middle" x="476" y="-63" font-family="Helvetica,sans-Serif" font-size="10.00">rout</text>
<text text-anchor="middle" x="476" y="-52" font-family="Helvetica,sans-Serif" font-size="10.00">eta</text>
<text text-anchor="middle" x="476" y="-41" font-family="Helvetica,sans-Serif" font-size="10.00">time</text>
</g>
</g>
</svg>
