<?xml version="1.0" encoding="UTF-8" standalone="no"?>
<!DOCTYPE svg PUBLIC "-//W3C//DTD SVG 1.1//EN"
 "http://www.w3.org/Graphics/SVG/1.1/DTD/svg11.dtd">
<!-- Generated by graphviz version 2.43.0 (0)
 -->
<!-- Title: PtclHard::operator= Pages: 1 -->
<svg width="413pt" height="28pt"
 viewBox="0.00 0.00 413.00 28.00" xmlns="http://www.w3.org/2000/svg" xmlns:xlink="http://www.w3.org/1999/xlink">
<g id="graph0" class="graph" transform="scale(1 1) rotate(0) translate(4 24)">
<title>PtclHard::operator=</title>
<polygon fill="white" stroke="transparent" points="-4,4 -4,-24 409,-24 409,4 -4,4"/>
<!-- Node1 -->
<g id="node1" class="node">
<title>Node1</title>
<g id="a_node1"><a xlink:title=" ">
<polygon fill="#bfbfbf" stroke="black" points="0,-0.5 0,-19.5 113,-19.5 113,-0.5 0,-0.5"/>
<text text-anchor="middle" x="56.5" y="-7.5" font-family="Helvetica,sans-Serif" font-size="10.00">PtclHard::operator=</text>
</a>
</g>
</g>
<!-- Node2 -->
<g id="node2" class="node">
<title>Node2</title>
<g id="a_node2"><a xlink:href="classPtcl.html#adf7eb00fc3ebaebb137eae21493e3eb5" target="_top" xlink:title=" ">
<polygon fill="white" stroke="black" points="149,-0.5 149,-19.5 238,-19.5 238,-0.5 149,-0.5"/>
<text text-anchor="middle" x="193.5" y="-7.5" font-family="Helvetica,sans-Serif" font-size="10.00">Ptcl::DataCopy</text>
</a>
</g>
</g>
<!-- Node1&#45;&gt;Node2 -->
<g id="edge1" class="edge">
<title>Node1&#45;&gt;Node2</title>
<path fill="none" stroke="midnightblue" d="M113.19,-10C121.66,-10 130.38,-10 138.81,-10"/>
<polygon fill="midnightblue" stroke="midnightblue" points="138.9,-13.5 148.9,-10 138.9,-6.5 138.9,-13.5"/>
</g>
<!-- Node3 -->
<g id="node3" class="node">
<title>Node3</title>
<g id="a_node3"><a xlink:href="classParticleBase.html#aeeb3bfd51f0c8eadcf23c0e3b4aeb003" target="_top" xlink:title="Copy from another ParticleBase.">
<polygon fill="white" stroke="black" points="274,-0.5 274,-19.5 405,-19.5 405,-0.5 274,-0.5"/>
<text text-anchor="middle" x="339.5" y="-7.5" font-family="Helvetica,sans-Serif" font-size="10.00">ParticleBase::DataCopy</text>
</a>
</g>
</g>
<!-- Node2&#45;&gt;Node3 -->
<g id="edge2" class="edge">
<title>Node2&#45;&gt;Node3</title>
<path fill="none" stroke="midnightblue" d="M238.1,-10C246.19,-10 254.85,-10 263.57,-10"/>
<polygon fill="midnightblue" stroke="midnightblue" points="263.8,-13.5 273.8,-10 263.8,-6.5 263.8,-13.5"/>
</g>
</g>
</svg>
