<?xml version="1.0" encoding="UTF-8" standalone="no"?>
<!DOCTYPE svg PUBLIC "-//W3C//DTD SVG 1.1//EN"
 "http://www.w3.org/Graphics/SVG/1.1/DTD/svg11.dtd">
<!-- Generated by graphviz version 2.43.0 (0)
 -->
<!-- Title: FPSoft::printColumnTitle Pages: 1 -->
<svg width="689pt" height="127pt"
 viewBox="0.00 0.00 689.00 126.50" xmlns="http://www.w3.org/2000/svg" xmlns:xlink="http://www.w3.org/1999/xlink">
<g id="graph0" class="graph" transform="scale(1 1) rotate(0) translate(4 122.5)">
<title>FPSoft::printColumnTitle</title>
<polygon fill="white" stroke="transparent" points="-4,4 -4,-122.5 685,-122.5 685,4 -4,4"/>
<!-- Node1 -->
<g id="node1" class="node">
<title>Node1</title>
<g id="a_node1"><a xlink:title="print titles of class members using column style">
<polygon fill="#bfbfbf" stroke="black" points="0,-55 0,-74 135,-74 135,-55 0,-55"/>
<text text-anchor="middle" x="67.5" y="-62" font-family="Helvetica,sans-Serif" font-size="10.00">FPSoft::printColumnTitle</text>
</a>
</g>
</g>
<!-- Node2 -->
<g id="node2" class="node">
<title>Node2</title>
<g id="a_node2"><a xlink:href="classPtcl.html#a33959c85b7424220cdd94f3ed9aab0ad" target="_top" xlink:title="print titles of class members using column style">
<polygon fill="white" stroke="black" points="171,-55 171,-74 293,-74 293,-55 171,-55"/>
<text text-anchor="middle" x="232" y="-62" font-family="Helvetica,sans-Serif" font-size="10.00">Ptcl::printColumnTitle</text>
</a>
</g>
</g>
<!-- Node1&#45;&gt;Node2 -->
<g id="edge1" class="edge">
<title>Node1&#45;&gt;Node2</title>
<path fill="none" stroke="midnightblue" d="M135.06,-64.5C143.48,-64.5 152.11,-64.5 160.58,-64.5"/>
<polygon fill="midnightblue" stroke="midnightblue" points="160.8,-68 170.8,-64.5 160.8,-61 160.8,-68"/>
</g>
<!-- Node3 -->
<g id="node3" class="node">
<title>Node3</title>
<g id="a_node3"><a xlink:href="classChangeOver.html#a99477187923811c0fdb3800199cbad48" target="_top" xlink:title="print titles of class members using column style">
<polygon fill="white" stroke="black" points="329,-99 329,-118 493,-118 493,-99 329,-99"/>
<text text-anchor="middle" x="411" y="-106" font-family="Helvetica,sans-Serif" font-size="10.00">ChangeOver::printColumnTitle</text>
</a>
</g>
</g>
<!-- Node2&#45;&gt;Node3 -->
<g id="edge2" class="edge">
<title>Node2&#45;&gt;Node3</title>
<path fill="none" stroke="midnightblue" d="M268.96,-74.09C286.96,-78.83 309.11,-84.58 329,-89.5 338.47,-91.84 348.58,-94.27 358.34,-96.58"/>
<polygon fill="midnightblue" stroke="midnightblue" points="357.79,-100.05 368.33,-98.93 359.4,-93.23 357.79,-100.05"/>
</g>
<!-- Node4 -->
<g id="node4" class="node">
<title>Node4</title>
<g id="a_node4"><a xlink:href="classArtificialParticleInformation.html#ab80264bffa5c899f8a67a24a35a06b85" target="_top" xlink:title="print titles of class members using column style">
<polygon fill="white" stroke="black" points="336,-49.5 336,-79.5 486,-79.5 486,-49.5 336,-49.5"/>
<text text-anchor="start" x="344" y="-67.5" font-family="Helvetica,sans-Serif" font-size="10.00">ArtificialParticleInformation</text>
<text text-anchor="middle" x="411" y="-56.5" font-family="Helvetica,sans-Serif" font-size="10.00">::printColumnTitle</text>
</a>
</g>
</g>
<!-- Node2&#45;&gt;Node4 -->
<g id="edge3" class="edge">
<title>Node2&#45;&gt;Node4</title>
<path fill="none" stroke="midnightblue" d="M293.42,-64.5C303.74,-64.5 314.63,-64.5 325.44,-64.5"/>
<polygon fill="midnightblue" stroke="midnightblue" points="325.76,-68 335.76,-64.5 325.76,-61 325.76,-68"/>
</g>
<!-- Node5 -->
<g id="node5" class="node">
<title>Node5</title>
<g id="a_node5"><a xlink:href="classParticleBase.html#a9797dd76731d696cd5ed651aae200828" target="_top" xlink:title="print titles of class members using column style">
<polygon fill="white" stroke="black" points="339.5,-0.5 339.5,-30.5 482.5,-30.5 482.5,-0.5 339.5,-0.5"/>
<text text-anchor="start" x="347.5" y="-18.5" font-family="Helvetica,sans-Serif" font-size="10.00">ParticleBase::printColumn</text>
<text text-anchor="middle" x="411" y="-7.5" font-family="Helvetica,sans-Serif" font-size="10.00">Title</text>
</a>
</g>
</g>
<!-- Node2&#45;&gt;Node5 -->
<g id="edge4" class="edge">
<title>Node2&#45;&gt;Node5</title>
<path fill="none" stroke="midnightblue" d="M267.55,-54.94C289.76,-48.79 319.31,-40.61 345.73,-33.29"/>
<polygon fill="midnightblue" stroke="midnightblue" points="346.98,-36.58 355.68,-30.54 345.11,-29.83 346.98,-36.58"/>
</g>
<!-- Node6 -->
<g id="node6" class="node">
<title>Node6</title>
<g id="a_node6"><a xlink:href="structStarParameter.html#aea025c8bebdf452c1dbccb99a18c770b" target="_top" xlink:title="print titles of class members using column style">
<polygon fill="white" stroke="black" points="529,-0.5 529,-30.5 681,-30.5 681,-0.5 529,-0.5"/>
<text text-anchor="start" x="537" y="-18.5" font-family="Helvetica,sans-Serif" font-size="10.00">StarParameter::printColumn</text>
<text text-anchor="middle" x="605" y="-7.5" font-family="Helvetica,sans-Serif" font-size="10.00">Title</text>
</a>
</g>
</g>
<!-- Node5&#45;&gt;Node6 -->
<g id="edge5" class="edge">
<title>Node5&#45;&gt;Node6</title>
<path fill="none" stroke="midnightblue" d="M482.68,-15.5C494.45,-15.5 506.78,-15.5 518.87,-15.5"/>
<polygon fill="midnightblue" stroke="midnightblue" points="518.96,-19 528.96,-15.5 518.96,-12 518.96,-19"/>
</g>
</g>
</svg>
