<?xml version="1.0" encoding="UTF-8" standalone="no"?>
<!DOCTYPE svg PUBLIC "-//W3C//DTD SVG 1.1//EN"
 "http://www.w3.org/Graphics/SVG/1.1/DTD/svg11.dtd">
<!-- Generated by graphviz version 2.43.0 (0)
 -->
<!-- Title: IOParamsGalpy::read Pages: 1 -->
<svg width="487pt" height="127pt"
 viewBox="0.00 0.00 487.00 126.50" xmlns="http://www.w3.org/2000/svg" xmlns:xlink="http://www.w3.org/1999/xlink">
<g id="graph0" class="graph" transform="scale(1 1) rotate(0) translate(4 122.5)">
<title>IOParamsGalpy::read</title>
<polygon fill="white" stroke="transparent" points="-4,4 -4,-122.5 483,-122.5 483,4 -4,4"/>
<!-- Node1 -->
<g id="node1" class="node">
<title>Node1</title>
<g id="a_node1"><a xlink:title="reading parameters from GNU option API">
<polygon fill="#bfbfbf" stroke="black" points="0,-55 0,-74 119,-74 119,-55 0,-55"/>
<text text-anchor="middle" x="59.5" y="-62" font-family="Helvetica,sans-Serif" font-size="10.00">IOParamsGalpy::read</text>
</a>
</g>
</g>
<!-- Node2 -->
<g id="node2" class="node">
<title>Node2</title>
<g id="a_node2"><a xlink:href="structIOParams.html#a14f008160ee20f31bee6973eb7d5416d" target="_top" xlink:title=" ">
<polygon fill="white" stroke="black" points="167,-99 167,-118 259,-118 259,-99 167,-99"/>
<text text-anchor="middle" x="213" y="-106" font-family="Helvetica,sans-Serif" font-size="10.00">IOParams::print</text>
</a>
</g>
</g>
<!-- Node1&#45;&gt;Node2 -->
<g id="edge1" class="edge">
<title>Node1&#45;&gt;Node2</title>
<path fill="none" stroke="midnightblue" d="M93.37,-74.05C115.71,-80.53 145.46,-89.17 169.58,-96.18"/>
<polygon fill="midnightblue" stroke="midnightblue" points="168.61,-99.54 179.19,-98.97 170.56,-92.82 168.61,-99.54"/>
</g>
<!-- Node3 -->
<g id="node3" class="node">
<title>Node3</title>
<g id="a_node3"><a xlink:href="classIOParamsContainer.html#a8bdebaa655392813c07b0dd4ae6469c2" target="_top" xlink:title=" ">
<polygon fill="white" stroke="black" points="155,-49.5 155,-79.5 271,-79.5 271,-49.5 155,-49.5"/>
<text text-anchor="start" x="163" y="-67.5" font-family="Helvetica,sans-Serif" font-size="10.00">IOParamsContainer::</text>
<text text-anchor="middle" x="213" y="-56.5" font-family="Helvetica,sans-Serif" font-size="10.00">printHelp</text>
</a>
</g>
</g>
<!-- Node1&#45;&gt;Node3 -->
<g id="edge2" class="edge">
<title>Node1&#45;&gt;Node3</title>
<path fill="none" stroke="midnightblue" d="M119.07,-64.5C127.36,-64.5 135.94,-64.5 144.38,-64.5"/>
<polygon fill="midnightblue" stroke="midnightblue" points="144.58,-68 154.58,-64.5 144.58,-61 144.58,-68"/>
</g>
<!-- Node5 -->
<g id="node5" class="node">
<title>Node5</title>
<g id="a_node5"><a xlink:href="classIOParamsContainer.html#a972926da32b4043d06456ab6d35d7752" target="_top" xlink:title=" ">
<polygon fill="white" stroke="black" points="155,-0.5 155,-30.5 271,-30.5 271,-0.5 155,-0.5"/>
<text text-anchor="start" x="163" y="-18.5" font-family="Helvetica,sans-Serif" font-size="10.00">IOParamsContainer::</text>
<text text-anchor="middle" x="213" y="-7.5" font-family="Helvetica,sans-Serif" font-size="10.00">readAscii</text>
</a>
</g>
</g>
<!-- Node1&#45;&gt;Node5 -->
<g id="edge4" class="edge">
<title>Node1&#45;&gt;Node5</title>
<path fill="none" stroke="midnightblue" d="M90.07,-54.94C108.75,-48.89 133.48,-40.89 155.79,-33.68"/>
<polygon fill="midnightblue" stroke="midnightblue" points="157.07,-36.94 165.51,-30.54 154.92,-30.28 157.07,-36.94"/>
</g>
<!-- Node4 -->
<g id="node4" class="node">
<title>Node4</title>
<g id="a_node4"><a xlink:href="structIOParamsPrintHelp.html#a02a0af84b1fabe990b816133cbc345ee" target="_top" xlink:title=" ">
<polygon fill="white" stroke="black" points="307,-49.5 307,-79.5 479,-79.5 479,-49.5 307,-49.5"/>
<text text-anchor="start" x="315" y="-67.5" font-family="Helvetica,sans-Serif" font-size="10.00">IOParamsPrintHelp::</text>
<text text-anchor="middle" x="393" y="-56.5" font-family="Helvetica,sans-Serif" font-size="10.00">printTypeShortNameDescription</text>
</a>
</g>
</g>
<!-- Node3&#45;&gt;Node4 -->
<g id="edge3" class="edge">
<title>Node3&#45;&gt;Node4</title>
<path fill="none" stroke="midnightblue" d="M271.3,-64.5C279.48,-64.5 288.07,-64.5 296.75,-64.5"/>
<polygon fill="midnightblue" stroke="midnightblue" points="296.94,-68 306.94,-64.5 296.94,-61 296.94,-68"/>
</g>
</g>
</svg>
