<?xml version="1.0" encoding="UTF-8" standalone="no"?>
<!DOCTYPE svg PUBLIC "-//W3C//DTD SVG 1.1//EN"
 "http://www.w3.org/Graphics/SVG/1.1/DTD/svg11.dtd">
<!-- Generated by graphviz version 2.43.0 (0)
 -->
<!-- Title: HardDump::dumpOneCluster Pages: 1 -->
<svg width="355pt" height="66pt"
 viewBox="0.00 0.00 355.00 66.00" xmlns="http://www.w3.org/2000/svg" xmlns:xlink="http://www.w3.org/1999/xlink">
<g id="graph0" class="graph" transform="scale(1 1) rotate(0) translate(4 62)">
<title>HardDump::dumpOneCluster</title>
<polygon fill="white" stroke="transparent" points="-4,4 -4,-62 351,-62 351,4 -4,4"/>
<!-- Node1 -->
<g id="node1" class="node">
<title>Node1</title>
<g id="a_node1"><a xlink:title="Dumping one cluster data for debuging.">
<polygon fill="#bfbfbf" stroke="black" points="190,-19.5 190,-38.5 347,-38.5 347,-19.5 190,-19.5"/>
<text text-anchor="middle" x="268.5" y="-26.5" font-family="Helvetica,sans-Serif" font-size="10.00">HardDump::dumpOneCluster</text>
</a>
</g>
</g>
<!-- Node2 -->
<g id="node2" class="node">
<title>Node2</title>
<g id="a_node2"><a xlink:href="classHardDumpList.html#aa20c36fd42b8b469280906f12775e569" target="_top" xlink:title=" ">
<polygon fill="white" stroke="black" points="10.5,-38.5 10.5,-57.5 143.5,-57.5 143.5,-38.5 10.5,-38.5"/>
<text text-anchor="middle" x="77" y="-45.5" font-family="Helvetica,sans-Serif" font-size="10.00">HardDumpList::dumpAll</text>
</a>
</g>
</g>
<!-- Node1&#45;&gt;Node2 -->
<g id="edge1" class="edge">
<title>Node1&#45;&gt;Node2</title>
<path fill="none" stroke="midnightblue" d="M179.74,-37.8C167.62,-39.01 155.34,-40.25 143.7,-41.41"/>
<polygon fill="midnightblue" stroke="midnightblue" points="180.28,-41.26 189.88,-36.78 179.58,-34.3 180.28,-41.26"/>
</g>
<!-- Node3 -->
<g id="node3" class="node">
<title>Node3</title>
<g id="a_node3"><a xlink:href="classHardDumpList.html#ade46bb6fbd0eac61f55e78ce65422136" target="_top" xlink:title=" ">
<polygon fill="white" stroke="black" points="0,-0.5 0,-19.5 154,-19.5 154,-0.5 0,-0.5"/>
<text text-anchor="middle" x="77" y="-7.5" font-family="Helvetica,sans-Serif" font-size="10.00">HardDumpList::dumpThread</text>
</a>
</g>
</g>
<!-- Node1&#45;&gt;Node3 -->
<g id="edge2" class="edge">
<title>Node1&#45;&gt;Node3</title>
<path fill="none" stroke="midnightblue" d="M179.89,-20.22C171.34,-19.36 162.71,-18.49 154.28,-17.65"/>
<polygon fill="midnightblue" stroke="midnightblue" points="179.58,-23.7 189.88,-21.22 180.28,-16.74 179.58,-23.7"/>
</g>
</g>
</svg>
