<?xml version="1.0" encoding="UTF-8" standalone="no"?>
<!DOCTYPE svg PUBLIC "-//W3C//DTD SVG 1.1//EN"
 "http://www.w3.org/Graphics/SVG/1.1/DTD/svg11.dtd">
<!-- Generated by graphviz version 2.43.0 (0)
 -->
<!-- Title: ChangeOver::printTitleWithMeaning Pages: 1 -->
<svg width="693pt" height="39pt"
 viewBox="0.00 0.00 693.00 39.00" xmlns="http://www.w3.org/2000/svg" xmlns:xlink="http://www.w3.org/1999/xlink">
<g id="graph0" class="graph" transform="scale(1 1) rotate(0) translate(4 35)">
<title>ChangeOver::printTitleWithMeaning</title>
<polygon fill="white" stroke="transparent" points="-4,4 -4,-35 689,-35 689,4 -4,4"/>
<!-- Node1 -->
<g id="node1" class="node">
<title>Node1</title>
<g id="a_node1"><a xlink:title="print column title with meaning (each line for one column)">
<polygon fill="#bfbfbf" stroke="black" points="536,-0.5 536,-30.5 685,-30.5 685,-0.5 536,-0.5"/>
<text text-anchor="start" x="544" y="-18.5" font-family="Helvetica,sans-Serif" font-size="10.00">ChangeOver::printTitleWith</text>
<text text-anchor="middle" x="610.5" y="-7.5" font-family="Helvetica,sans-Serif" font-size="10.00">Meaning</text>
</a>
</g>
</g>
<!-- Node2 -->
<g id="node2" class="node">
<title>Node2</title>
<g id="a_node2"><a xlink:href="classPtcl.html#acd6efea3772cb295b1064d53695eb276" target="_top" xlink:title="print column title with meaning (each line for one column)">
<polygon fill="white" stroke="black" points="351,-6 351,-25 500,-25 500,-6 351,-6"/>
<text text-anchor="middle" x="425.5" y="-13" font-family="Helvetica,sans-Serif" font-size="10.00">Ptcl::printTitleWithMeaning</text>
</a>
</g>
</g>
<!-- Node1&#45;&gt;Node2 -->
<g id="edge1" class="edge">
<title>Node1&#45;&gt;Node2</title>
<path fill="none" stroke="midnightblue" d="M525.61,-15.5C517.16,-15.5 508.62,-15.5 500.29,-15.5"/>
<polygon fill="midnightblue" stroke="midnightblue" points="525.86,-19 535.86,-15.5 525.86,-12 525.86,-19"/>
</g>
<!-- Node3 -->
<g id="node3" class="node">
<title>Node3</title>
<g id="a_node3"><a xlink:href="classFPSoft.html#aca3236af1ccb822b51a0cb4acb2ab678" target="_top" xlink:title="print column title with meaning (each line for one column)">
<polygon fill="white" stroke="black" points="153,-6 153,-25 315,-25 315,-6 153,-6"/>
<text text-anchor="middle" x="234" y="-13" font-family="Helvetica,sans-Serif" font-size="10.00">FPSoft::printTitleWithMeaning</text>
</a>
</g>
</g>
<!-- Node2&#45;&gt;Node3 -->
<g id="edge2" class="edge">
<title>Node2&#45;&gt;Node3</title>
<path fill="none" stroke="midnightblue" d="M340.95,-15.5C332.36,-15.5 323.64,-15.5 315.09,-15.5"/>
<polygon fill="midnightblue" stroke="midnightblue" points="340.96,-19 350.96,-15.5 340.96,-12 340.96,-19"/>
</g>
<!-- Node4 -->
<g id="node4" class="node">
<title>Node4</title>
<g id="a_node4"><a xlink:href="classIOParamsPeTar.html#aa428da858ec3e53058edeb77b9412075" target="_top" xlink:title="reading parameters from GNU option API">
<polygon fill="white" stroke="black" points="0,-6 0,-25 117,-25 117,-6 0,-6"/>
<text text-anchor="middle" x="58.5" y="-13" font-family="Helvetica,sans-Serif" font-size="10.00">IOParamsPeTar::read</text>
</a>
</g>
</g>
<!-- Node3&#45;&gt;Node4 -->
<g id="edge3" class="edge">
<title>Node3&#45;&gt;Node4</title>
<path fill="none" stroke="midnightblue" d="M142.64,-15.5C133.95,-15.5 125.3,-15.5 117.05,-15.5"/>
<polygon fill="midnightblue" stroke="midnightblue" points="142.85,-19 152.85,-15.5 142.85,-12 142.85,-19"/>
</g>
</g>
</svg>
