<?xml version="1.0" encoding="UTF-8" standalone="no"?>
<!DOCTYPE svg PUBLIC "-//W3C//DTD SVG 1.1//EN"
 "http://www.w3.org/Graphics/SVG/1.1/DTD/svg11.dtd">
<!-- Generated by graphviz version 2.43.0 (0)
 -->
<!-- Title: FPSoft::print Pages: 1 -->
<svg width="520pt" height="116pt"
 viewBox="0.00 0.00 520.00 115.50" xmlns="http://www.w3.org/2000/svg" xmlns:xlink="http://www.w3.org/1999/xlink">
<g id="graph0" class="graph" transform="scale(1 1) rotate(0) translate(4 111.5)">
<title>FPSoft::print</title>
<polygon fill="white" stroke="transparent" points="-4,4 -4,-111.5 516,-111.5 516,4 -4,4"/>
<!-- Node1 -->
<g id="node1" class="node">
<title>Node1</title>
<g id="a_node1"><a xlink:title=" ">
<polygon fill="#bfbfbf" stroke="black" points="0,-50 0,-69 76,-69 76,-50 0,-50"/>
<text text-anchor="middle" x="38" y="-57" font-family="Helvetica,sans-Serif" font-size="10.00">FPSoft::print</text>
</a>
</g>
</g>
<!-- Node2 -->
<g id="node2" class="node">
<title>Node2</title>
<g id="a_node2"><a xlink:href="classPtcl.html#af1253dfc7cd8025affd01d3ff4726f63" target="_top" xlink:title=" ">
<polygon fill="white" stroke="black" points="112,-50 112,-69 175,-69 175,-50 112,-50"/>
<text text-anchor="middle" x="143.5" y="-57" font-family="Helvetica,sans-Serif" font-size="10.00">Ptcl::print</text>
</a>
</g>
</g>
<!-- Node1&#45;&gt;Node2 -->
<g id="edge1" class="edge">
<title>Node1&#45;&gt;Node2</title>
<path fill="none" stroke="midnightblue" d="M76.07,-59.5C84.4,-59.5 93.29,-59.5 101.76,-59.5"/>
<polygon fill="midnightblue" stroke="midnightblue" points="101.82,-63 111.82,-59.5 101.82,-56 101.82,-63"/>
</g>
<!-- Node3 -->
<g id="node3" class="node">
<title>Node3</title>
<g id="a_node3"><a xlink:href="classChangeOver.html#a7cb94f25c0be6f295cc0214926799149" target="_top" xlink:title=" ">
<polygon fill="white" stroke="black" points="233.5,-88 233.5,-107 338.5,-107 338.5,-88 233.5,-88"/>
<text text-anchor="middle" x="286" y="-95" font-family="Helvetica,sans-Serif" font-size="10.00">ChangeOver::print</text>
</a>
</g>
</g>
<!-- Node2&#45;&gt;Node3 -->
<g id="edge2" class="edge">
<title>Node2&#45;&gt;Node3</title>
<path fill="none" stroke="midnightblue" d="M175.24,-68.47C186.48,-71.7 199.3,-75.33 211,-78.5 219.46,-80.8 228.49,-83.17 237.23,-85.44"/>
<polygon fill="midnightblue" stroke="midnightblue" points="236.37,-88.83 246.92,-87.93 238.11,-82.05 236.37,-88.83"/>
</g>
<!-- Node4 -->
<g id="node4" class="node">
<title>Node4</title>
<g id="a_node4"><a xlink:href="classParticleBase.html#aaa2eb35e8a36bc9c08c441944913dda0" target="_top" xlink:title="for print debugging">
<polygon fill="white" stroke="black" points="233.5,-50 233.5,-69 338.5,-69 338.5,-50 233.5,-50"/>
<text text-anchor="middle" x="286" y="-57" font-family="Helvetica,sans-Serif" font-size="10.00">ParticleBase::print</text>
</a>
</g>
</g>
<!-- Node2&#45;&gt;Node4 -->
<g id="edge3" class="edge">
<title>Node2&#45;&gt;Node4</title>
<path fill="none" stroke="midnightblue" d="M175.33,-59.5C189.38,-59.5 206.54,-59.5 223.07,-59.5"/>
<polygon fill="midnightblue" stroke="midnightblue" points="223.25,-63 233.25,-59.5 223.25,-56 223.25,-63"/>
</g>
<!-- Node6 -->
<g id="node6" class="node">
<title>Node6</title>
<g id="a_node6"><a xlink:href="classArtificialParticleInformation.html#aec5f6e1c055868a70cdb44584f0f6e9c" target="_top" xlink:title="print parameters">
<polygon fill="white" stroke="black" points="211,-0.5 211,-30.5 361,-30.5 361,-0.5 211,-0.5"/>
<text text-anchor="start" x="219" y="-18.5" font-family="Helvetica,sans-Serif" font-size="10.00">ArtificialParticleInformation</text>
<text text-anchor="middle" x="286" y="-7.5" font-family="Helvetica,sans-Serif" font-size="10.00">::print</text>
</a>
</g>
</g>
<!-- Node2&#45;&gt;Node6 -->
<g id="edge5" class="edge">
<title>Node2&#45;&gt;Node6</title>
<path fill="none" stroke="midnightblue" d="M174.99,-49.95C190.24,-45.18 209.22,-39.23 227.1,-33.63"/>
<polygon fill="midnightblue" stroke="midnightblue" points="228.4,-36.89 236.89,-30.57 226.3,-30.21 228.4,-36.89"/>
</g>
<!-- Node5 -->
<g id="node5" class="node">
<title>Node5</title>
<g id="a_node5"><a xlink:href="structStarParameter.html#a6a6c1a6c2f12ef90a555f92ae0dd80f4" target="_top" xlink:title="for print in one line">
<polygon fill="white" stroke="black" points="397,-50 397,-69 512,-69 512,-50 397,-50"/>
<text text-anchor="middle" x="454.5" y="-57" font-family="Helvetica,sans-Serif" font-size="10.00">StarParameter::print</text>
</a>
</g>
</g>
<!-- Node4&#45;&gt;Node5 -->
<g id="edge4" class="edge">
<title>Node4&#45;&gt;Node5</title>
<path fill="none" stroke="midnightblue" d="M338.77,-59.5C353.88,-59.5 370.62,-59.5 386.53,-59.5"/>
<polygon fill="midnightblue" stroke="midnightblue" points="386.84,-63 396.84,-59.5 386.84,-56 386.84,-63"/>
</g>
</g>
</svg>
