<?xml version="1.0" encoding="UTF-8" standalone="no"?>
<!DOCTYPE svg PUBLIC "-//W3C//DTD SVG 1.1//EN"
 "http://www.w3.org/Graphics/SVG/1.1/DTD/svg11.dtd">
<!-- Generated by graphviz version 2.43.0 (0)
 -->
<!-- Title: Ptcl::readBinary Pages: 1 -->
<svg width="518pt" height="66pt"
 viewBox="0.00 0.00 518.00 66.00" xmlns="http://www.w3.org/2000/svg" xmlns:xlink="http://www.w3.org/1999/xlink">
<g id="graph0" class="graph" transform="scale(1 1) rotate(0) translate(4 62)">
<title>Ptcl::readBinary</title>
<polygon fill="white" stroke="transparent" points="-4,4 -4,-62 514,-62 514,4 -4,4"/>
<!-- Node1 -->
<g id="node1" class="node">
<title>Node1</title>
<g id="a_node1"><a xlink:title="read class data with BINARY format">
<polygon fill="#bfbfbf" stroke="black" points="0,-19.5 0,-38.5 94,-38.5 94,-19.5 0,-19.5"/>
<text text-anchor="middle" x="47" y="-26.5" font-family="Helvetica,sans-Serif" font-size="10.00">Ptcl::readBinary</text>
</a>
</g>
</g>
<!-- Node2 -->
<g id="node2" class="node">
<title>Node2</title>
<g id="a_node2"><a xlink:href="classChangeOver.html#a56998e927c0f7516b225c3690833a23f" target="_top" xlink:title="read class data to file with binary format">
<polygon fill="white" stroke="black" points="130,-38.5 130,-57.5 266,-57.5 266,-38.5 130,-38.5"/>
<text text-anchor="middle" x="198" y="-45.5" font-family="Helvetica,sans-Serif" font-size="10.00">ChangeOver::readBinary</text>
</a>
</g>
</g>
<!-- Node1&#45;&gt;Node2 -->
<g id="edge1" class="edge">
<title>Node1&#45;&gt;Node2</title>
<path fill="none" stroke="midnightblue" d="M94.33,-34.91C102.43,-35.94 111.06,-37.04 119.74,-38.15"/>
<polygon fill="midnightblue" stroke="midnightblue" points="119.55,-41.65 129.92,-39.45 120.44,-34.71 119.55,-41.65"/>
</g>
<!-- Node5 -->
<g id="node5" class="node">
<title>Node5</title>
<g id="a_node5"><a xlink:href="classParticleBase.html#af021a12bf8d0213f9e0441328755119d" target="_top" xlink:title="read class data with BINARY format">
<polygon fill="white" stroke="black" points="130,-0.5 130,-19.5 266,-19.5 266,-0.5 130,-0.5"/>
<text text-anchor="middle" x="198" y="-7.5" font-family="Helvetica,sans-Serif" font-size="10.00">ParticleBase::readBinary</text>
</a>
</g>
</g>
<!-- Node1&#45;&gt;Node5 -->
<g id="edge4" class="edge">
<title>Node1&#45;&gt;Node5</title>
<path fill="none" stroke="midnightblue" d="M94.33,-23.09C102.43,-22.06 111.06,-20.96 119.74,-19.85"/>
<polygon fill="midnightblue" stroke="midnightblue" points="120.44,-23.29 129.92,-18.55 119.55,-16.35 120.44,-23.29"/>
</g>
<!-- Node3 -->
<g id="node3" class="node">
<title>Node3</title>
<g id="a_node3"><a xlink:href="classChangeOver.html#ab8bbff987a930131dcbe86ce435f6087" target="_top" xlink:title="set r_in and r_out for changeover function">
<polygon fill="white" stroke="black" points="302,-38.5 302,-57.5 406,-57.5 406,-38.5 302,-38.5"/>
<text text-anchor="middle" x="354" y="-45.5" font-family="Helvetica,sans-Serif" font-size="10.00">ChangeOver::setR</text>
</a>
</g>
</g>
<!-- Node2&#45;&gt;Node3 -->
<g id="edge2" class="edge">
<title>Node2&#45;&gt;Node3</title>
<path fill="none" stroke="midnightblue" d="M266.1,-48C274.63,-48 283.32,-48 291.75,-48"/>
<polygon fill="midnightblue" stroke="midnightblue" points="291.87,-51.5 301.87,-48 291.87,-44.5 291.87,-51.5"/>
</g>
<!-- Node4 -->
<g id="node4" class="node">
<title>Node4</title>
<g id="a_node4"><a xlink:href="namespacePIKG.html#aede68ae33404ee6199164897b8cbc9ad" target="_top" xlink:title=" ">
<polygon fill="white" stroke="black" points="442,-38.5 442,-57.5 510,-57.5 510,-38.5 442,-38.5"/>
<text text-anchor="middle" x="476" y="-45.5" font-family="Helvetica,sans-Serif" font-size="10.00">PIKG::max</text>
</a>
</g>
</g>
<!-- Node3&#45;&gt;Node4 -->
<g id="edge3" class="edge">
<title>Node3&#45;&gt;Node4</title>
<path fill="none" stroke="midnightblue" d="M406.24,-48C414.75,-48 423.5,-48 431.79,-48"/>
<polygon fill="midnightblue" stroke="midnightblue" points="431.98,-51.5 441.98,-48 431.98,-44.5 431.98,-51.5"/>
</g>
</g>
</svg>
