<?xml version="1.0" encoding="UTF-8" standalone="no"?>
<!DOCTYPE svg PUBLIC "-//W3C//DTD SVG 1.1//EN"
 "http://www.w3.org/Graphics/SVG/1.1/DTD/svg11.dtd">
<!-- Generated by graphviz version 2.43.0 (0)
 -->
<!-- Title: ArtificialParticleManager::correctOrbitalParticleForce Pages: 1 -->
<svg width="716pt" height="137pt"
 viewBox="0.00 0.00 716.00 137.00" xmlns="http://www.w3.org/2000/svg" xmlns:xlink="http://www.w3.org/1999/xlink">
<g id="graph0" class="graph" transform="scale(1 1) rotate(0) translate(4 133)">
<title>ArtificialParticleManager::correctOrbitalParticleForce</title>
<polygon fill="white" stroke="transparent" points="-4,4 -4,-133 712,-133 712,4 -4,4"/>
<!-- Node1 -->
<g id="node1" class="node">
<title>Node1</title>
<g id="a_node1"><a xlink:title="correct orbit&#45;samping/pseudo particles force">
<polygon fill="#bfbfbf" stroke="black" points="0,-49.5 0,-79.5 152,-79.5 152,-49.5 0,-49.5"/>
<text text-anchor="start" x="8" y="-67.5" font-family="Helvetica,sans-Serif" font-size="10.00">ArtificialParticleManager</text>
<text text-anchor="middle" x="76" y="-56.5" font-family="Helvetica,sans-Serif" font-size="10.00">::correctOrbitalParticleForce</text>
</a>
</g>
</g>
<!-- Node2 -->
<g id="node2" class="node">
<title>Node2</title>
<g id="a_node2"><a xlink:href="classArtificialParticleManager.html#ac3c6685d320c92bc37b697d6cd791db0" target="_top" xlink:title="get c.m. particle list address from a artificial particle array">
<polygon fill="white" stroke="black" points="188,-49.5 188,-79.5 324,-79.5 324,-49.5 188,-49.5"/>
<text text-anchor="start" x="196" y="-67.5" font-family="Helvetica,sans-Serif" font-size="10.00">ArtificialParticleManager</text>
<text text-anchor="middle" x="256" y="-56.5" font-family="Helvetica,sans-Serif" font-size="10.00">::getCMParticles</text>
</a>
</g>
</g>
<!-- Node1&#45;&gt;Node2 -->
<g id="edge1" class="edge">
<title>Node1&#45;&gt;Node2</title>
<path fill="none" stroke="midnightblue" d="M152.23,-64.5C160.66,-64.5 169.26,-64.5 177.72,-64.5"/>
<polygon fill="midnightblue" stroke="midnightblue" points="177.94,-68 187.94,-64.5 177.94,-61 177.94,-68"/>
</g>
<!-- Node6 -->
<g id="node6" class="node">
<title>Node6</title>
<g id="a_node6"><a xlink:href="classArtificialParticleManager.html#ae75013c8aba250c076e1c5f4450fdebf" target="_top" xlink:title="get orbitial particle number">
<polygon fill="white" stroke="black" points="360,-98.5 360,-128.5 496,-128.5 496,-98.5 360,-98.5"/>
<text text-anchor="start" x="368" y="-116.5" font-family="Helvetica,sans-Serif" font-size="10.00">ArtificialParticleManager</text>
<text text-anchor="middle" x="428" y="-105.5" font-family="Helvetica,sans-Serif" font-size="10.00">::getOrbitalParticleN</text>
</a>
</g>
</g>
<!-- Node1&#45;&gt;Node6 -->
<g id="edge5" class="edge">
<title>Node1&#45;&gt;Node6</title>
<path fill="none" stroke="midnightblue" d="M140.76,-79.53C156.16,-82.81 172.62,-86.04 188,-88.5 241.73,-97.09 302.75,-103.42 349.69,-107.56"/>
<polygon fill="midnightblue" stroke="midnightblue" points="349.52,-111.06 359.78,-108.43 350.12,-104.08 349.52,-111.06"/>
</g>
<!-- Node7 -->
<g id="node7" class="node">
<title>Node7</title>
<g id="a_node7"><a xlink:href="classArtificialParticleManager.html#aed984927e871b5aec2948fdcb3ff44f9" target="_top" xlink:title="get oribit/pseudo particle list address from a artificial particle array">
<polygon fill="white" stroke="black" points="188,-0.5 188,-30.5 324,-30.5 324,-0.5 188,-0.5"/>
<text text-anchor="start" x="196" y="-18.5" font-family="Helvetica,sans-Serif" font-size="10.00">ArtificialParticleManager</text>
<text text-anchor="middle" x="256" y="-7.5" font-family="Helvetica,sans-Serif" font-size="10.00">::getOrbitalParticles</text>
</a>
</g>
</g>
<!-- Node1&#45;&gt;Node7 -->
<g id="edge7" class="edge">
<title>Node1&#45;&gt;Node7</title>
<path fill="none" stroke="midnightblue" d="M131.86,-49.4C150.39,-44.3 171.24,-38.56 190.45,-33.27"/>
<polygon fill="midnightblue" stroke="midnightblue" points="191.61,-36.58 200.32,-30.55 189.75,-29.83 191.61,-36.58"/>
</g>
<!-- Node3 -->
<g id="node3" class="node">
<title>Node3</title>
<g id="a_node3"><a xlink:href="classArtificialParticleManager.html#a38ed6b2904a13aa7928ce5a7d694abd0" target="_top" xlink:title="CM particle index offset.">
<polygon fill="white" stroke="black" points="360,-49.5 360,-79.5 496,-79.5 496,-49.5 360,-49.5"/>
<text text-anchor="start" x="368" y="-67.5" font-family="Helvetica,sans-Serif" font-size="10.00">ArtificialParticleManager</text>
<text text-anchor="middle" x="428" y="-56.5" font-family="Helvetica,sans-Serif" font-size="10.00">::getIndexOffsetCM</text>
</a>
</g>
</g>
<!-- Node2&#45;&gt;Node3 -->
<g id="edge2" class="edge">
<title>Node2&#45;&gt;Node3</title>
<path fill="none" stroke="midnightblue" d="M324.19,-64.5C332.5,-64.5 341.05,-64.5 349.51,-64.5"/>
<polygon fill="midnightblue" stroke="midnightblue" points="349.74,-68 359.74,-64.5 349.74,-61 349.74,-68"/>
</g>
<!-- Node4 -->
<g id="node4" class="node">
<title>Node4</title>
<g id="a_node4"><a xlink:href="classPseudoParticleMultipoleManager.html#a5621892410d256215a8e07ef5bc5c2be" target="_top" xlink:title="get particle number">
<polygon fill="white" stroke="black" points="532,-72.5 532,-102.5 708,-102.5 708,-72.5 532,-72.5"/>
<text text-anchor="start" x="540" y="-90.5" font-family="Helvetica,sans-Serif" font-size="10.00">PseudoParticleMultipoleManager</text>
<text text-anchor="middle" x="620" y="-79.5" font-family="Helvetica,sans-Serif" font-size="10.00">::getParticleN</text>
</a>
</g>
</g>
<!-- Node3&#45;&gt;Node4 -->
<g id="edge3" class="edge">
<title>Node3&#45;&gt;Node4</title>
<path fill="none" stroke="midnightblue" d="M496.25,-72.64C504.54,-73.64 513.14,-74.68 521.76,-75.73"/>
<polygon fill="midnightblue" stroke="midnightblue" points="521.52,-79.23 531.87,-76.95 522.36,-72.28 521.52,-79.23"/>
</g>
<!-- Node5 -->
<g id="node5" class="node">
<title>Node5</title>
<g id="a_node5"><a xlink:href="classTidalTensor.html#a668eb0fe71a2fe1bdad53572a74d2224" target="_top" xlink:title="get particle number">
<polygon fill="white" stroke="black" points="551.5,-32 551.5,-51 688.5,-51 688.5,-32 551.5,-32"/>
<text text-anchor="middle" x="620" y="-39" font-family="Helvetica,sans-Serif" font-size="10.00">TidalTensor::getParticleN</text>
</a>
</g>
</g>
<!-- Node3&#45;&gt;Node5 -->
<g id="edge4" class="edge">
<title>Node3&#45;&gt;Node5</title>
<path fill="none" stroke="midnightblue" d="M496.25,-56.36C510.74,-54.61 526.17,-52.74 541.02,-50.94"/>
<polygon fill="midnightblue" stroke="midnightblue" points="541.69,-54.38 551.2,-49.71 540.85,-47.44 541.69,-54.38"/>
</g>
<!-- Node6&#45;&gt;Node4 -->
<g id="edge6" class="edge">
<title>Node6&#45;&gt;Node4</title>
<path fill="none" stroke="midnightblue" d="M496.25,-104.3C504.54,-103.16 513.14,-101.99 521.76,-100.81"/>
<polygon fill="midnightblue" stroke="midnightblue" points="522.44,-104.25 531.87,-99.42 521.49,-97.31 522.44,-104.25"/>
</g>
<!-- Node8 -->
<g id="node8" class="node">
<title>Node8</title>
<g id="a_node8"><a xlink:href="classArtificialParticleManager.html#a5aa161be171207ca5ad6cec9d9f678cf" target="_top" xlink:title="orbital/pseudo particle index offset">
<polygon fill="white" stroke="black" points="360,-0.5 360,-30.5 496,-30.5 496,-0.5 360,-0.5"/>
<text text-anchor="start" x="368" y="-18.5" font-family="Helvetica,sans-Serif" font-size="10.00">ArtificialParticleManager</text>
<text text-anchor="middle" x="428" y="-7.5" font-family="Helvetica,sans-Serif" font-size="10.00">::getIndexOffsetOrb</text>
</a>
</g>
</g>
<!-- Node7&#45;&gt;Node8 -->
<g id="edge8" class="edge">
<title>Node7&#45;&gt;Node8</title>
<path fill="none" stroke="midnightblue" d="M324.19,-15.5C332.5,-15.5 341.05,-15.5 349.51,-15.5"/>
<polygon fill="midnightblue" stroke="midnightblue" points="349.74,-19 359.74,-15.5 349.74,-12 349.74,-19"/>
</g>
<!-- Node8&#45;&gt;Node5 -->
<g id="edge9" class="edge">
<title>Node8&#45;&gt;Node5</title>
<path fill="none" stroke="midnightblue" d="M496.25,-24.7C510.74,-26.69 526.17,-28.8 541.02,-30.83"/>
<polygon fill="midnightblue" stroke="midnightblue" points="540.81,-34.33 551.2,-32.22 541.76,-27.4 540.81,-34.33"/>
</g>
</g>
</svg>
