<?xml version="1.0" encoding="UTF-8" standalone="no"?>
<!DOCTYPE svg PUBLIC "-//W3C//DTD SVG 1.1//EN"
 "http://www.w3.org/Graphics/SVG/1.1/DTD/svg11.dtd">
<!-- Generated by graphviz version 2.43.0 (0)
 -->
<!-- Title: ParticleBase::DataCopy Pages: 1 -->
<svg width="487pt" height="218pt"
 viewBox="0.00 0.00 487.00 218.00" xmlns="http://www.w3.org/2000/svg" xmlns:xlink="http://www.w3.org/1999/xlink">
<g id="graph0" class="graph" transform="scale(1 1) rotate(0) translate(4 214)">
<title>ParticleBase::DataCopy</title>
<polygon fill="white" stroke="transparent" points="-4,4 -4,-214 483,-214 483,4 -4,4"/>
<!-- Node1 -->
<g id="node1" class="node">
<title>Node1</title>
<g id="a_node1"><a xlink:title="Copy from another ParticleBase.">
<polygon fill="#bfbfbf" stroke="black" points="348,-95.5 348,-114.5 479,-114.5 479,-95.5 348,-95.5"/>
<text text-anchor="middle" x="413.5" y="-102.5" font-family="Helvetica,sans-Serif" font-size="10.00">ParticleBase::DataCopy</text>
</a>
</g>
</g>
<!-- Node2 -->
<g id="node2" class="node">
<title>Node2</title>
<g id="a_node2"><a xlink:href="classSearchCluster.html#a2db47a5989764aa313443addbb55d591" target="_top" xlink:title="identify whether the neighbor satisfy velocity criterion">
<polygon fill="white" stroke="black" points="149,-134 149,-164 312,-164 312,-134 149,-134"/>
<text text-anchor="start" x="157" y="-152" font-family="Helvetica,sans-Serif" font-size="10.00">SearchCluster::checkNeighbor</text>
<text text-anchor="middle" x="230.5" y="-141" font-family="Helvetica,sans-Serif" font-size="10.00">WithVelocity</text>
</a>
</g>
</g>
<!-- Node1&#45;&gt;Node2 -->
<g id="edge1" class="edge">
<title>Node1&#45;&gt;Node2</title>
<path fill="none" stroke="midnightblue" d="M363.32,-116.96C341.79,-122.19 316.28,-128.39 293.47,-133.93"/>
<polygon fill="midnightblue" stroke="midnightblue" points="364.34,-120.31 373.23,-114.55 362.68,-113.51 364.34,-120.31"/>
</g>
<!-- Node3 -->
<g id="node3" class="node">
<title>Node3</title>
<g id="a_node3"><a xlink:href="classPtcl.html#adf7eb00fc3ebaebb137eae21493e3eb5" target="_top" xlink:title=" ">
<polygon fill="white" stroke="black" points="186,-95.5 186,-114.5 275,-114.5 275,-95.5 186,-95.5"/>
<text text-anchor="middle" x="230.5" y="-102.5" font-family="Helvetica,sans-Serif" font-size="10.00">Ptcl::DataCopy</text>
</a>
</g>
</g>
<!-- Node1&#45;&gt;Node3 -->
<g id="edge2" class="edge">
<title>Node1&#45;&gt;Node3</title>
<path fill="none" stroke="midnightblue" d="M337.88,-105C316.51,-105 293.92,-105 275.08,-105"/>
<polygon fill="midnightblue" stroke="midnightblue" points="337.92,-108.5 347.92,-105 337.92,-101.5 337.92,-108.5"/>
</g>
<!-- Node10 -->
<g id="node10" class="node">
<title>Node10</title>
<g id="a_node10"><a xlink:href="classParticleBase.html#a9b3cdef0a443dccce6780726e56fdb87" target="_top" xlink:title=" ">
<polygon fill="white" stroke="black" points="159,-57.5 159,-76.5 302,-76.5 302,-57.5 159,-57.5"/>
<text text-anchor="middle" x="230.5" y="-64.5" font-family="Helvetica,sans-Serif" font-size="10.00">ParticleBase::ParticleBase</text>
</a>
</g>
</g>
<!-- Node1&#45;&gt;Node10 -->
<g id="edge9" class="edge">
<title>Node1&#45;&gt;Node10</title>
<path fill="none" stroke="midnightblue" d="M356.86,-93.32C331.19,-87.93 301.11,-81.61 276.85,-76.52"/>
<polygon fill="midnightblue" stroke="midnightblue" points="356.32,-96.78 366.83,-95.41 357.76,-89.93 356.32,-96.78"/>
</g>
<!-- Node4 -->
<g id="node4" class="node">
<title>Node4</title>
<g id="a_node4"><a xlink:href="classPtclHard.html#aad91084dde305e08b3f4ddf0934d1cc8" target="_top" xlink:title=" ">
<polygon fill="white" stroke="black" points="0.5,-190.5 0.5,-209.5 112.5,-209.5 112.5,-190.5 0.5,-190.5"/>
<text text-anchor="middle" x="56.5" y="-197.5" font-family="Helvetica,sans-Serif" font-size="10.00">PtclHard::DataCopy</text>
</a>
</g>
</g>
<!-- Node3&#45;&gt;Node4 -->
<g id="edge3" class="edge">
<title>Node3&#45;&gt;Node4</title>
<path fill="none" stroke="midnightblue" d="M176.02,-112.26C166.45,-115.18 156.99,-119.27 149,-125 124.94,-142.23 136.29,-162.75 113,-181 108.11,-184.83 102.4,-187.92 96.54,-190.39"/>
<polygon fill="midnightblue" stroke="midnightblue" points="177.21,-115.56 185.98,-109.61 175.42,-108.79 177.21,-115.56"/>
</g>
<!-- Node5 -->
<g id="node5" class="node">
<title>Node5</title>
<g id="a_node5"><a xlink:href="classFPSoft.html#a9420395d413ae6a911f1997943cc5ec7" target="_top" xlink:title=" ">
<polygon fill="white" stroke="black" points="14.5,-152.5 14.5,-171.5 98.5,-171.5 98.5,-152.5 14.5,-152.5"/>
<text text-anchor="middle" x="56.5" y="-159.5" font-family="Helvetica,sans-Serif" font-size="10.00">FPSoft::FPSoft</text>
</a>
</g>
</g>
<!-- Node3&#45;&gt;Node5 -->
<g id="edge4" class="edge">
<title>Node3&#45;&gt;Node5</title>
<path fill="none" stroke="midnightblue" d="M176.12,-116.5C166.97,-118.97 157.63,-121.81 149,-125 132.22,-131.19 129.5,-136.09 113,-143 104.92,-146.38 96.01,-149.64 87.73,-152.47"/>
<polygon fill="midnightblue" stroke="midnightblue" points="177.13,-119.86 185.94,-113.97 175.38,-113.08 177.13,-119.86"/>
</g>
<!-- Node6 -->
<g id="node6" class="node">
<title>Node6</title>
<g id="a_node6"><a xlink:href="classPtclHard.html#a8d3ef018896de0b4a6cbd72db0827860" target="_top" xlink:title=" ">
<polygon fill="white" stroke="black" points="0,-114.5 0,-133.5 113,-133.5 113,-114.5 0,-114.5"/>
<text text-anchor="middle" x="56.5" y="-121.5" font-family="Helvetica,sans-Serif" font-size="10.00">PtclHard::operator=</text>
</a>
</g>
</g>
<!-- Node3&#45;&gt;Node6 -->
<g id="edge5" class="edge">
<title>Node3&#45;&gt;Node6</title>
<path fill="none" stroke="midnightblue" d="M175.51,-110.96C155.61,-113.16 133.04,-115.66 113,-117.87"/>
<polygon fill="midnightblue" stroke="midnightblue" points="176.1,-114.42 185.65,-109.84 175.33,-107.46 176.1,-114.42"/>
</g>
<!-- Node7 -->
<g id="node7" class="node">
<title>Node7</title>
<g id="a_node7"><a xlink:href="classPtcl.html#a8b5b6e2cd1c91027e7ec17291caf44a5" target="_top" xlink:title=" ">
<polygon fill="white" stroke="black" points="11.5,-76.5 11.5,-95.5 101.5,-95.5 101.5,-76.5 11.5,-76.5"/>
<text text-anchor="middle" x="56.5" y="-83.5" font-family="Helvetica,sans-Serif" font-size="10.00">Ptcl::operator=</text>
</a>
</g>
</g>
<!-- Node3&#45;&gt;Node7 -->
<g id="edge6" class="edge">
<title>Node3&#45;&gt;Node7</title>
<path fill="none" stroke="midnightblue" d="M175.7,-99.06C151.86,-96.42 124.16,-93.36 101.57,-90.87"/>
<polygon fill="midnightblue" stroke="midnightblue" points="175.33,-102.54 185.65,-100.16 176.1,-95.58 175.33,-102.54"/>
</g>
<!-- Node8 -->
<g id="node8" class="node">
<title>Node8</title>
<g id="a_node8"><a xlink:href="classPtcl.html#a17c87ff6e69e4fb55ca6a273f6d50176" target="_top" xlink:title=" ">
<polygon fill="white" stroke="black" points="27,-38.5 27,-57.5 86,-57.5 86,-38.5 27,-38.5"/>
<text text-anchor="middle" x="56.5" y="-45.5" font-family="Helvetica,sans-Serif" font-size="10.00">Ptcl::Ptcl</text>
</a>
</g>
</g>
<!-- Node3&#45;&gt;Node8 -->
<g id="edge7" class="edge">
<title>Node3&#45;&gt;Node8</title>
<path fill="none" stroke="midnightblue" d="M176.05,-94.4C166.91,-92.02 157.59,-89.22 149,-86 132.06,-79.65 129.61,-74.17 113,-67 104.4,-63.28 94.81,-59.79 86.06,-56.83"/>
<polygon fill="midnightblue" stroke="midnightblue" points="175.32,-97.82 185.87,-96.83 177,-91.03 175.32,-97.82"/>
</g>
<!-- Node9 -->
<g id="node9" class="node">
<title>Node9</title>
<g id="a_node9"><a xlink:href="classPtclHard.html#a765d027284e18911bae91d6a83d4471c" target="_top" xlink:title=" ">
<polygon fill="white" stroke="black" points="4,-0.5 4,-19.5 109,-19.5 109,-0.5 4,-0.5"/>
<text text-anchor="middle" x="56.5" y="-7.5" font-family="Helvetica,sans-Serif" font-size="10.00">PtclHard::PtclHard</text>
</a>
</g>
</g>
<!-- Node3&#45;&gt;Node9 -->
<g id="edge8" class="edge">
<title>Node3&#45;&gt;Node9</title>
<path fill="none" stroke="midnightblue" d="M176,-98.52C166.43,-95.7 156.98,-91.69 149,-86 124.61,-68.6 136.51,-47.58 113,-29 108.13,-25.15 102.42,-22.05 96.56,-19.57"/>
<polygon fill="midnightblue" stroke="midnightblue" points="175.41,-101.98 185.96,-101.04 177.13,-95.19 175.41,-101.98"/>
</g>
</g>
</svg>
