<?xml version="1.0" encoding="UTF-8" standalone="no"?>
<!DOCTYPE svg PUBLIC "-//W3C//DTD SVG 1.1//EN"
 "http://www.w3.org/Graphics/SVG/1.1/DTD/svg11.dtd">
<!-- Generated by graphviz version 2.43.0 (0)
 -->
<!-- Title: FPSoftWriteArtificial::readAscii Pages: 1 -->
<svg width="552pt" height="116pt"
 viewBox="0.00 0.00 552.00 115.50" xmlns="http://www.w3.org/2000/svg" xmlns:xlink="http://www.w3.org/1999/xlink">
<g id="graph0" class="graph" transform="scale(1 1) rotate(0) translate(4 111.5)">
<title>FPSoftWriteArtificial::readAscii</title>
<polygon fill="white" stroke="transparent" points="-4,4 -4,-111.5 548,-111.5 548,4 -4,4"/>
<!-- Node1 -->
<g id="node1" class="node">
<title>Node1</title>
<g id="a_node1"><a xlink:title=" ">
<polygon fill="#bfbfbf" stroke="black" points="0,-44.5 0,-74.5 114,-74.5 114,-44.5 0,-44.5"/>
<text text-anchor="start" x="8" y="-62.5" font-family="Helvetica,sans-Serif" font-size="10.00">FPSoftWriteArtificial</text>
<text text-anchor="middle" x="57" y="-51.5" font-family="Helvetica,sans-Serif" font-size="10.00">::readAscii</text>
</a>
</g>
</g>
<!-- Node2 -->
<g id="node2" class="node">
<title>Node2</title>
<g id="a_node2"><a xlink:href="classParticleBase.html#a37300f78eeb60423fb3e750685331e8d" target="_top" xlink:title="read class data with ASCII format">
<polygon fill="white" stroke="black" points="161,-88 161,-107 289,-107 289,-88 161,-88"/>
<text text-anchor="middle" x="225" y="-95" font-family="Helvetica,sans-Serif" font-size="10.00">ParticleBase::readAscii</text>
</a>
</g>
</g>
<!-- Node1&#45;&gt;Node2 -->
<g id="edge1" class="edge">
<title>Node1&#45;&gt;Node2</title>
<path fill="none" stroke="midnightblue" d="M114.2,-72.37C133.01,-76.67 153.87,-81.45 172.32,-85.67"/>
<polygon fill="midnightblue" stroke="midnightblue" points="171.76,-89.13 182.29,-87.95 173.33,-82.31 171.76,-89.13"/>
</g>
<!-- Node3 -->
<g id="node3" class="node">
<title>Node3</title>
<g id="a_node3"><a xlink:href="classChangeOver.html#a4ab816f7e59edaf68f7223b8ca5bcd7b" target="_top" xlink:title="read class data to file with binary format">
<polygon fill="white" stroke="black" points="161,-50 161,-69 289,-69 289,-50 161,-50"/>
<text text-anchor="middle" x="225" y="-57" font-family="Helvetica,sans-Serif" font-size="10.00">ChangeOver::readAscii</text>
</a>
</g>
</g>
<!-- Node1&#45;&gt;Node3 -->
<g id="edge2" class="edge">
<title>Node1&#45;&gt;Node3</title>
<path fill="none" stroke="midnightblue" d="M114.2,-59.5C125.88,-59.5 138.36,-59.5 150.56,-59.5"/>
<polygon fill="midnightblue" stroke="midnightblue" points="150.72,-63 160.72,-59.5 150.72,-56 150.72,-63"/>
</g>
<!-- Node6 -->
<g id="node6" class="node">
<title>Node6</title>
<g id="a_node6"><a xlink:href="classArtificialParticleInformation.html#ab55e8cb9e7c06e8724bf280455f9207f" target="_top" xlink:title="read class data with ASCII format">
<polygon fill="white" stroke="black" points="150,-0.5 150,-30.5 300,-30.5 300,-0.5 150,-0.5"/>
<text text-anchor="start" x="158" y="-18.5" font-family="Helvetica,sans-Serif" font-size="10.00">ArtificialParticleInformation</text>
<text text-anchor="middle" x="225" y="-7.5" font-family="Helvetica,sans-Serif" font-size="10.00">::readAscii</text>
</a>
</g>
</g>
<!-- Node1&#45;&gt;Node6 -->
<g id="edge5" class="edge">
<title>Node1&#45;&gt;Node6</title>
<path fill="none" stroke="midnightblue" d="M114.2,-44.6C128.11,-40.92 143.14,-36.93 157.49,-33.13"/>
<polygon fill="midnightblue" stroke="midnightblue" points="158.52,-36.48 167.29,-30.53 156.73,-29.71 158.52,-36.48"/>
</g>
<!-- Node4 -->
<g id="node4" class="node">
<title>Node4</title>
<g id="a_node4"><a xlink:href="classChangeOver.html#ab8bbff987a930131dcbe86ce435f6087" target="_top" xlink:title="set r_in and r_out for changeover function">
<polygon fill="white" stroke="black" points="336,-50 336,-69 440,-69 440,-50 336,-50"/>
<text text-anchor="middle" x="388" y="-57" font-family="Helvetica,sans-Serif" font-size="10.00">ChangeOver::setR</text>
</a>
</g>
</g>
<!-- Node3&#45;&gt;Node4 -->
<g id="edge3" class="edge">
<title>Node3&#45;&gt;Node4</title>
<path fill="none" stroke="midnightblue" d="M289.17,-59.5C301.16,-59.5 313.69,-59.5 325.63,-59.5"/>
<polygon fill="midnightblue" stroke="midnightblue" points="325.93,-63 335.93,-59.5 325.93,-56 325.93,-63"/>
</g>
<!-- Node5 -->
<g id="node5" class="node">
<title>Node5</title>
<g id="a_node5"><a xlink:href="namespacePIKG.html#aede68ae33404ee6199164897b8cbc9ad" target="_top" xlink:title=" ">
<polygon fill="white" stroke="black" points="476,-50 476,-69 544,-69 544,-50 476,-50"/>
<text text-anchor="middle" x="510" y="-57" font-family="Helvetica,sans-Serif" font-size="10.00">PIKG::max</text>
</a>
</g>
</g>
<!-- Node4&#45;&gt;Node5 -->
<g id="edge4" class="edge">
<title>Node4&#45;&gt;Node5</title>
<path fill="none" stroke="midnightblue" d="M440.24,-59.5C448.75,-59.5 457.5,-59.5 465.79,-59.5"/>
<polygon fill="midnightblue" stroke="midnightblue" points="465.98,-63 475.98,-59.5 465.98,-56 465.98,-63"/>
</g>
</g>
</svg>
