<?xml version="1.0" encoding="UTF-8" standalone="no"?>
<!DOCTYPE svg PUBLIC "-//W3C//DTD SVG 1.1//EN"
 "http://www.w3.org/Graphics/SVG/1.1/DTD/svg11.dtd">
<!-- Generated by graphviz version 2.43.0 (0)
 -->
<!-- Title: FPSoft::writeBinary Pages: 1 -->
<svg width="426pt" height="66pt"
 viewBox="0.00 0.00 426.00 66.00" xmlns="http://www.w3.org/2000/svg" xmlns:xlink="http://www.w3.org/1999/xlink">
<g id="graph0" class="graph" transform="scale(1 1) rotate(0) translate(4 62)">
<title>FPSoft::writeBinary</title>
<polygon fill="white" stroke="transparent" points="-4,4 -4,-62 422,-62 422,4 -4,4"/>
<!-- Node1 -->
<g id="node1" class="node">
<title>Node1</title>
<g id="a_node1"><a xlink:title=" ">
<polygon fill="#bfbfbf" stroke="black" points="0,-19.5 0,-38.5 110,-38.5 110,-19.5 0,-19.5"/>
<text text-anchor="middle" x="55" y="-26.5" font-family="Helvetica,sans-Serif" font-size="10.00">FPSoft::writeBinary</text>
</a>
</g>
</g>
<!-- Node2 -->
<g id="node2" class="node">
<title>Node2</title>
<g id="a_node2"><a xlink:href="classPtcl.html#aaa9a81b92b0ace9629935cd5bc55974c" target="_top" xlink:title="write class data with BINARY format">
<polygon fill="white" stroke="black" points="146,-19.5 146,-38.5 243,-38.5 243,-19.5 146,-19.5"/>
<text text-anchor="middle" x="194.5" y="-26.5" font-family="Helvetica,sans-Serif" font-size="10.00">Ptcl::writeBinary</text>
</a>
</g>
</g>
<!-- Node1&#45;&gt;Node2 -->
<g id="edge1" class="edge">
<title>Node1&#45;&gt;Node2</title>
<path fill="none" stroke="midnightblue" d="M110.34,-29C118.67,-29 127.29,-29 135.69,-29"/>
<polygon fill="midnightblue" stroke="midnightblue" points="135.78,-32.5 145.78,-29 135.78,-25.5 135.78,-32.5"/>
</g>
<!-- Node3 -->
<g id="node3" class="node">
<title>Node3</title>
<g id="a_node3"><a xlink:href="classChangeOver.html#a6481968a8eaf66d2c65c34e612802d93" target="_top" xlink:title="write class data to file with binary format">
<polygon fill="white" stroke="black" points="279,-38.5 279,-57.5 418,-57.5 418,-38.5 279,-38.5"/>
<text text-anchor="middle" x="348.5" y="-45.5" font-family="Helvetica,sans-Serif" font-size="10.00">ChangeOver::writeBinary</text>
</a>
</g>
</g>
<!-- Node2&#45;&gt;Node3 -->
<g id="edge2" class="edge">
<title>Node2&#45;&gt;Node3</title>
<path fill="none" stroke="midnightblue" d="M243.18,-34.96C251.31,-35.98 259.95,-37.06 268.64,-38.14"/>
<polygon fill="midnightblue" stroke="midnightblue" points="268.48,-41.65 278.84,-39.42 269.35,-34.7 268.48,-41.65"/>
</g>
<!-- Node4 -->
<g id="node4" class="node">
<title>Node4</title>
<g id="a_node4"><a xlink:href="classParticleBase.html#ab26b2b513b3c62bac84bb25a357223b6" target="_top" xlink:title="write class data with BINARY format">
<polygon fill="white" stroke="black" points="279,-0.5 279,-19.5 418,-19.5 418,-0.5 279,-0.5"/>
<text text-anchor="middle" x="348.5" y="-7.5" font-family="Helvetica,sans-Serif" font-size="10.00">ParticleBase::writeBinary</text>
</a>
</g>
</g>
<!-- Node2&#45;&gt;Node4 -->
<g id="edge3" class="edge">
<title>Node2&#45;&gt;Node4</title>
<path fill="none" stroke="midnightblue" d="M243.18,-23.04C251.31,-22.02 259.95,-20.94 268.64,-19.86"/>
<polygon fill="midnightblue" stroke="midnightblue" points="269.35,-23.3 278.84,-18.58 268.48,-16.35 269.35,-23.3"/>
</g>
</g>
</svg>
