<?xml version="1.0" encoding="UTF-8" standalone="no"?>
<!DOCTYPE svg PUBLIC "-//W3C//DTD SVG 1.1//EN"
 "http://www.w3.org/Graphics/SVG/1.1/DTD/svg11.dtd">
<!-- Generated by graphviz version 2.43.0 (0)
 -->
<!-- Title: GalpyManager::freePotentialArgs Pages: 1 -->
<svg width="696pt" height="104pt"
 viewBox="0.00 0.00 696.00 104.00" xmlns="http://www.w3.org/2000/svg" xmlns:xlink="http://www.w3.org/1999/xlink">
<g id="graph0" class="graph" transform="scale(1 1) rotate(0) translate(4 100)">
<title>GalpyManager::freePotentialArgs</title>
<polygon fill="white" stroke="transparent" points="-4,4 -4,-100 692,-100 692,4 -4,4"/>
<!-- Node1 -->
<g id="node1" class="node">
<title>Node1</title>
<g id="a_node1"><a xlink:title=" ">
<polygon fill="#bfbfbf" stroke="black" points="509,-76.5 509,-95.5 688,-95.5 688,-76.5 509,-76.5"/>
<text text-anchor="middle" x="598.5" y="-83.5" font-family="Helvetica,sans-Serif" font-size="10.00">GalpyManager::freePotentialArgs</text>
</a>
</g>
</g>
<!-- Node2 -->
<g id="node2" class="node">
<title>Node2</title>
<g id="a_node2"><a xlink:href="classGalpyManager.html#a1b462774660dccb211b5845458c07eca" target="_top" xlink:title=" ">
<polygon fill="white" stroke="black" points="320.5,-76.5 320.5,-95.5 438.5,-95.5 438.5,-76.5 320.5,-76.5"/>
<text text-anchor="middle" x="379.5" y="-83.5" font-family="Helvetica,sans-Serif" font-size="10.00">GalpyManager::clear</text>
</a>
</g>
</g>
<!-- Node1&#45;&gt;Node2 -->
<g id="edge1" class="edge">
<title>Node1&#45;&gt;Node2</title>
<path fill="none" stroke="midnightblue" d="M498.87,-79.27C478.29,-79.17 457.23,-79.39 438.69,-79.94"/>
<polygon fill="midnightblue" stroke="midnightblue" points="498.9,-82.78 508.92,-79.35 498.95,-75.78 498.9,-82.78"/>
</g>
<!-- Node4 -->
<g id="node4" class="node">
<title>Node4</title>
<g id="a_node4"><a xlink:href="classGalpyManager.html#a7e35973fb12c11ca65ca0d0462c6c4dd" target="_top" xlink:title="generate potentail args">
<polygon fill="white" stroke="black" points="286,-38.5 286,-57.5 473,-57.5 473,-38.5 286,-38.5"/>
<text text-anchor="middle" x="379.5" y="-45.5" font-family="Helvetica,sans-Serif" font-size="10.00">GalpyManager::updatePotentialSet</text>
</a>
</g>
</g>
<!-- Node1&#45;&gt;Node4 -->
<g id="edge4" class="edge">
<title>Node1&#45;&gt;Node4</title>
<path fill="none" stroke="midnightblue" d="M533.11,-74.72C501.89,-69.26 464.8,-62.76 435,-57.54"/>
<polygon fill="midnightblue" stroke="midnightblue" points="532.57,-78.18 543.02,-76.46 533.78,-71.29 532.57,-78.18"/>
</g>
<!-- Node2&#45;&gt;Node1 -->
<g id="edge2" class="edge">
<title>Node2&#45;&gt;Node1</title>
<path fill="none" stroke="midnightblue" d="M448.77,-92.32C467.85,-92.75 488.86,-92.86 508.92,-92.65"/>
<polygon fill="midnightblue" stroke="midnightblue" points="448.78,-88.82 438.69,-92.06 448.6,-95.82 448.78,-88.82"/>
</g>
<!-- Node3 -->
<g id="node3" class="node">
<title>Node3</title>
<g id="a_node3"><a xlink:href="classGalpyManager.html#abb225b337233061de8ffff35e67a53dc" target="_top" xlink:title=" ">
<polygon fill="white" stroke="black" points="77,-76.5 77,-95.5 250,-95.5 250,-76.5 77,-76.5"/>
<text text-anchor="middle" x="163.5" y="-83.5" font-family="Helvetica,sans-Serif" font-size="10.00">GalpyManager::~GalpyManager</text>
</a>
</g>
</g>
<!-- Node2&#45;&gt;Node3 -->
<g id="edge3" class="edge">
<title>Node2&#45;&gt;Node3</title>
<path fill="none" stroke="midnightblue" d="M310.25,-86C291.22,-86 270.3,-86 250.4,-86"/>
<polygon fill="midnightblue" stroke="midnightblue" points="310.31,-89.5 320.31,-86 310.31,-82.5 310.31,-89.5"/>
</g>
<!-- Node5 -->
<g id="node5" class="node">
<title>Node5</title>
<g id="a_node5"><a xlink:href="classGalpyManager.html#ac6ce59845e4b863a3fce47c18e09631a" target="_top" xlink:title="initialization function">
<polygon fill="white" stroke="black" points="102.5,-38.5 102.5,-57.5 224.5,-57.5 224.5,-38.5 102.5,-38.5"/>
<text text-anchor="middle" x="163.5" y="-45.5" font-family="Helvetica,sans-Serif" font-size="10.00">GalpyManager::initial</text>
</a>
</g>
</g>
<!-- Node4&#45;&gt;Node5 -->
<g id="edge5" class="edge">
<title>Node4&#45;&gt;Node5</title>
<path fill="none" stroke="midnightblue" d="M275.61,-48C258.1,-48 240.45,-48 224.53,-48"/>
<polygon fill="midnightblue" stroke="midnightblue" points="275.88,-51.5 285.88,-48 275.88,-44.5 275.88,-51.5"/>
</g>
<!-- Node7 -->
<g id="node7" class="node">
<title>Node7</title>
<g id="a_node7"><a xlink:href="classGalpyManager.html#a2b9c41229c1b4a6d5c06e18017298357" target="_top" xlink:title="Update Potential types and arguments based on time.">
<polygon fill="white" stroke="black" points="78,-0.5 78,-19.5 249,-19.5 249,-0.5 78,-0.5"/>
<text text-anchor="middle" x="163.5" y="-7.5" font-family="Helvetica,sans-Serif" font-size="10.00">GalpyManager::updatePotential</text>
</a>
</g>
</g>
<!-- Node4&#45;&gt;Node7 -->
<g id="edge7" class="edge">
<title>Node4&#45;&gt;Node7</title>
<path fill="none" stroke="midnightblue" d="M314.6,-36.65C283.89,-31.2 247.51,-24.74 218.25,-19.54"/>
<polygon fill="midnightblue" stroke="midnightblue" points="314.32,-40.16 324.77,-38.46 315.54,-33.27 314.32,-40.16"/>
</g>
<!-- Node6 -->
<g id="node6" class="node">
<title>Node6</title>
<g id="a_node6"><a xlink:href="galpy__test_8cxx.html#a3c04138a5bfe5d72780bb7e82a18e627" target="_top" xlink:title=" ">
<polygon fill="white" stroke="black" points="0,-19.5 0,-38.5 41,-38.5 41,-19.5 0,-19.5"/>
<text text-anchor="middle" x="20.5" y="-26.5" font-family="Helvetica,sans-Serif" font-size="10.00">main</text>
</a>
</g>
</g>
<!-- Node5&#45;&gt;Node6 -->
<g id="edge6" class="edge">
<title>Node5&#45;&gt;Node6</title>
<path fill="none" stroke="midnightblue" d="M92.17,-38.52C73.34,-35.99 54.49,-33.45 41,-31.63"/>
<polygon fill="midnightblue" stroke="midnightblue" points="91.92,-42.02 102.29,-39.89 92.85,-35.08 91.92,-42.02"/>
</g>
<!-- Node7&#45;&gt;Node6 -->
<g id="edge8" class="edge">
<title>Node7&#45;&gt;Node6</title>
<path fill="none" stroke="midnightblue" d="M81.64,-20.9C66.6,-22.92 52.2,-24.86 41.26,-26.34"/>
<polygon fill="midnightblue" stroke="midnightblue" points="82.14,-24.36 91.59,-19.56 81.21,-17.42 82.14,-24.36"/>
</g>
</g>
</svg>
