<?xml version="1.0" encoding="UTF-8" standalone="no"?>
<!DOCTYPE svg PUBLIC "-//W3C//DTD SVG 1.1//EN"
 "http://www.w3.org/Graphics/SVG/1.1/DTD/svg11.dtd">
<!-- Generated by graphviz version 2.43.0 (0)
 -->
<!-- Title: Ptcl::writeAscii Pages: 1 -->
<svg width="283pt" height="116pt"
 viewBox="0.00 0.00 283.00 115.50" xmlns="http://www.w3.org/2000/svg" xmlns:xlink="http://www.w3.org/1999/xlink">
<g id="graph0" class="graph" transform="scale(1 1) rotate(0) translate(4 111.5)">
<title>Ptcl::writeAscii</title>
<polygon fill="white" stroke="transparent" points="-4,4 -4,-111.5 279,-111.5 279,4 -4,4"/>
<!-- Node1 -->
<g id="node1" class="node">
<title>Node1</title>
<g id="a_node1"><a xlink:title="write class data with ASCII format">
<polygon fill="#bfbfbf" stroke="black" points="0,-50 0,-69 89,-69 89,-50 0,-50"/>
<text text-anchor="middle" x="44.5" y="-57" font-family="Helvetica,sans-Serif" font-size="10.00">Ptcl::writeAscii</text>
</a>
</g>
</g>
<!-- Node2 -->
<g id="node2" class="node">
<title>Node2</title>
<g id="a_node2"><a xlink:href="classParticleBase.html#a2aff5120451894367e08971adb595a24" target="_top" xlink:title="write class data with ASCII format">
<polygon fill="white" stroke="black" points="134.5,-88 134.5,-107 265.5,-107 265.5,-88 134.5,-88"/>
<text text-anchor="middle" x="200" y="-95" font-family="Helvetica,sans-Serif" font-size="10.00">ParticleBase::writeAscii</text>
</a>
</g>
</g>
<!-- Node1&#45;&gt;Node2 -->
<g id="edge1" class="edge">
<title>Node1&#45;&gt;Node2</title>
<path fill="none" stroke="midnightblue" d="M84.23,-69.09C104.4,-74.08 129.25,-80.23 150.66,-85.53"/>
<polygon fill="midnightblue" stroke="midnightblue" points="150,-88.97 160.54,-87.98 151.68,-82.18 150,-88.97"/>
</g>
<!-- Node3 -->
<g id="node3" class="node">
<title>Node3</title>
<g id="a_node3"><a xlink:href="classChangeOver.html#a41bcc8db067257c5e1a0a7b3f9aa2707" target="_top" xlink:title="write class data to file with binary format">
<polygon fill="white" stroke="black" points="134.5,-50 134.5,-69 265.5,-69 265.5,-50 134.5,-50"/>
<text text-anchor="middle" x="200" y="-57" font-family="Helvetica,sans-Serif" font-size="10.00">ChangeOver::writeAscii</text>
</a>
</g>
</g>
<!-- Node1&#45;&gt;Node3 -->
<g id="edge2" class="edge">
<title>Node1&#45;&gt;Node3</title>
<path fill="none" stroke="midnightblue" d="M89.08,-59.5C100.09,-59.5 112.22,-59.5 124.3,-59.5"/>
<polygon fill="midnightblue" stroke="midnightblue" points="124.39,-63 134.39,-59.5 124.39,-56 124.39,-63"/>
</g>
<!-- Node4 -->
<g id="node4" class="node">
<title>Node4</title>
<g id="a_node4"><a xlink:href="classArtificialParticleInformation.html#a66cdd10308103afc4aa9f541525e8b78" target="_top" xlink:title="write class data with ASCII format">
<polygon fill="white" stroke="black" points="125,-0.5 125,-30.5 275,-30.5 275,-0.5 125,-0.5"/>
<text text-anchor="start" x="133" y="-18.5" font-family="Helvetica,sans-Serif" font-size="10.00">ArtificialParticleInformation</text>
<text text-anchor="middle" x="200" y="-7.5" font-family="Helvetica,sans-Serif" font-size="10.00">::writeAscii</text>
</a>
</g>
</g>
<!-- Node1&#45;&gt;Node4 -->
<g id="edge3" class="edge">
<title>Node1&#45;&gt;Node4</title>
<path fill="none" stroke="midnightblue" d="M78.81,-49.95C95.7,-45.11 116.79,-39.07 136.56,-33.4"/>
<polygon fill="midnightblue" stroke="midnightblue" points="137.79,-36.69 146.44,-30.57 135.87,-29.96 137.79,-36.69"/>
</g>
</g>
</svg>
