<?xml version="1.0" encoding="UTF-8" standalone="no"?>
<!DOCTYPE svg PUBLIC "-//W3C//DTD SVG 1.1//EN"
 "http://www.w3.org/Graphics/SVG/1.1/DTD/svg11.dtd">
<!-- Generated by graphviz version 2.43.0 (0)
 -->
<!-- Title: ChangeOver::calcPotWTwo Pages: 1 -->
<svg width="318pt" height="66pt"
 viewBox="0.00 0.00 318.00 66.00" xmlns="http://www.w3.org/2000/svg" xmlns:xlink="http://www.w3.org/1999/xlink">
<g id="graph0" class="graph" transform="scale(1 1) rotate(0) translate(4 62)">
<title>ChangeOver::calcPotWTwo</title>
<polygon fill="white" stroke="transparent" points="-4,4 -4,-62 314,-62 314,4 -4,4"/>
<!-- Node1 -->
<g id="node1" class="node">
<title>Node1</title>
<g id="a_node1"><a xlink:title="calculate changeover function Pot by selecting maximum rout">
<polygon fill="#bfbfbf" stroke="black" points="0,-19.5 0,-38.5 146,-38.5 146,-19.5 0,-19.5"/>
<text text-anchor="middle" x="73" y="-26.5" font-family="Helvetica,sans-Serif" font-size="10.00">ChangeOver::calcPotWTwo</text>
</a>
</g>
</g>
<!-- Node2 -->
<g id="node2" class="node">
<title>Node2</title>
<g id="a_node2"><a xlink:href="classChangeOver.html#a23c019e8fc14c43826a4c85454e55780" target="_top" xlink:title="changeover function for potential">
<polygon fill="white" stroke="black" points="182,-38.5 182,-57.5 310,-57.5 310,-38.5 182,-38.5"/>
<text text-anchor="middle" x="246" y="-45.5" font-family="Helvetica,sans-Serif" font-size="10.00">ChangeOver::calcPotW</text>
</a>
</g>
</g>
<!-- Node1&#45;&gt;Node2 -->
<g id="edge1" class="edge">
<title>Node1&#45;&gt;Node2</title>
<path fill="none" stroke="midnightblue" d="M146.02,-37C154.46,-37.94 163.08,-38.9 171.53,-39.84"/>
<polygon fill="midnightblue" stroke="midnightblue" points="171.42,-43.35 181.74,-40.97 172.19,-36.39 171.42,-43.35"/>
</g>
<!-- Node3 -->
<g id="node3" class="node">
<title>Node3</title>
<g id="a_node3"><a xlink:href="classChangeOver.html#ab1ee26d7f773d67568a55b8efabdbe79" target="_top" xlink:title="get r_out">
<polygon fill="white" stroke="black" points="185.5,-0.5 185.5,-19.5 306.5,-19.5 306.5,-0.5 185.5,-0.5"/>
<text text-anchor="middle" x="246" y="-7.5" font-family="Helvetica,sans-Serif" font-size="10.00">ChangeOver::getRout</text>
</a>
</g>
</g>
<!-- Node1&#45;&gt;Node3 -->
<g id="edge2" class="edge">
<title>Node1&#45;&gt;Node3</title>
<path fill="none" stroke="midnightblue" d="M146.02,-21C155.78,-19.91 165.77,-18.8 175.48,-17.72"/>
<polygon fill="midnightblue" stroke="midnightblue" points="175.93,-21.2 185.48,-16.61 175.15,-14.24 175.93,-21.2"/>
</g>
</g>
</svg>
