<?xml version="1.0" encoding="UTF-8" standalone="no"?>
<!DOCTYPE svg PUBLIC "-//W3C//DTD SVG 1.1//EN"
 "http://www.w3.org/Graphics/SVG/1.1/DTD/svg11.dtd">
<!-- Generated by graphviz version 2.43.0 (0)
 -->
<!-- Title: FRWModel::calcH0Myr Pages: 1 -->
<svg width="524pt" height="88pt"
 viewBox="0.00 0.00 524.00 88.00" xmlns="http://www.w3.org/2000/svg" xmlns:xlink="http://www.w3.org/1999/xlink">
<g id="graph0" class="graph" transform="scale(1 1) rotate(0) translate(4 84)">
<title>FRWModel::calcH0Myr</title>
<polygon fill="white" stroke="transparent" points="-4,4 -4,-84 520,-84 520,4 -4,4"/>
<!-- Node1 -->
<g id="node1" class="node">
<title>Node1</title>
<g id="a_node1"><a xlink:title=" ">
<polygon fill="#bfbfbf" stroke="black" points="389,-30 389,-49 516,-49 516,-30 389,-30"/>
<text text-anchor="middle" x="452.5" y="-37" font-family="Helvetica,sans-Serif" font-size="10.00">FRWModel::calcH0Myr</text>
</a>
</g>
</g>
<!-- Node2 -->
<g id="node2" class="node">
<title>Node2</title>
<g id="a_node2"><a xlink:href="classMWPotentialEvolve.html#a45a7e51221c2de3937fcb72cd90fd11e" target="_top" xlink:title="initial potential parameter from a file">
<polygon fill="white" stroke="black" points="235,-49.5 235,-79.5 353,-79.5 353,-49.5 235,-49.5"/>
<text text-anchor="start" x="243" y="-67.5" font-family="Helvetica,sans-Serif" font-size="10.00">MWPotentialEvolve::</text>
<text text-anchor="middle" x="294" y="-56.5" font-family="Helvetica,sans-Serif" font-size="10.00">initialFromFile</text>
</a>
</g>
</g>
<!-- Node1&#45;&gt;Node2 -->
<g id="edge1" class="edge">
<title>Node1&#45;&gt;Node2</title>
<path fill="none" stroke="midnightblue" d="M381.95,-50.61C372.33,-52.15 362.54,-53.71 353.15,-55.21"/>
<polygon fill="midnightblue" stroke="midnightblue" points="382.56,-54.06 391.89,-49.02 381.46,-47.14 382.56,-54.06"/>
</g>
<!-- Node5 -->
<g id="node5" class="node">
<title>Node5</title>
<g id="a_node5"><a xlink:href="classMWPotentialEvolve.html#a61d78d2224231b9d052d48cdd2d38eaf" target="_top" xlink:title="read potential parameter from a file">
<polygon fill="white" stroke="black" points="235,-0.5 235,-30.5 353,-30.5 353,-0.5 235,-0.5"/>
<text text-anchor="start" x="243" y="-18.5" font-family="Helvetica,sans-Serif" font-size="10.00">MWPotentialEvolve::</text>
<text text-anchor="middle" x="294" y="-7.5" font-family="Helvetica,sans-Serif" font-size="10.00">readDataFromFile</text>
</a>
</g>
</g>
<!-- Node1&#45;&gt;Node5 -->
<g id="edge4" class="edge">
<title>Node1&#45;&gt;Node5</title>
<path fill="none" stroke="midnightblue" d="M379.03,-28.39C370.31,-27.05 361.5,-25.7 353.02,-24.4"/>
<polygon fill="midnightblue" stroke="midnightblue" points="378.78,-31.89 389.2,-29.95 379.84,-24.97 378.78,-31.89"/>
</g>
<!-- Node3 -->
<g id="node3" class="node">
<title>Node3</title>
<g id="a_node3"><a xlink:href="classGalpyManager.html#ac6ce59845e4b863a3fce47c18e09631a" target="_top" xlink:title="initialization function">
<polygon fill="white" stroke="black" points="77,-30 77,-49 199,-49 199,-30 77,-30"/>
<text text-anchor="middle" x="138" y="-37" font-family="Helvetica,sans-Serif" font-size="10.00">GalpyManager::initial</text>
</a>
</g>
</g>
<!-- Node2&#45;&gt;Node3 -->
<g id="edge2" class="edge">
<title>Node2&#45;&gt;Node3</title>
<path fill="none" stroke="midnightblue" d="M224.66,-53.41C215.62,-51.94 206.42,-50.44 197.56,-49.01"/>
<polygon fill="midnightblue" stroke="midnightblue" points="224.35,-56.9 234.78,-55.05 225.47,-49.99 224.35,-56.9"/>
</g>
<!-- Node4 -->
<g id="node4" class="node">
<title>Node4</title>
<g id="a_node4"><a xlink:href="galpy__test_8cxx.html#a3c04138a5bfe5d72780bb7e82a18e627" target="_top" xlink:title=" ">
<polygon fill="white" stroke="black" points="0,-30 0,-49 41,-49 41,-30 0,-30"/>
<text text-anchor="middle" x="20.5" y="-37" font-family="Helvetica,sans-Serif" font-size="10.00">main</text>
</a>
</g>
</g>
<!-- Node3&#45;&gt;Node4 -->
<g id="edge3" class="edge">
<title>Node3&#45;&gt;Node4</title>
<path fill="none" stroke="midnightblue" d="M66.66,-39.5C57.35,-39.5 48.51,-39.5 41.15,-39.5"/>
<polygon fill="midnightblue" stroke="midnightblue" points="66.88,-43 76.88,-39.5 66.88,-36 66.88,-43"/>
</g>
<!-- Node5&#45;&gt;Node3 -->
<g id="edge5" class="edge">
<title>Node5&#45;&gt;Node3</title>
<path fill="none" stroke="midnightblue" d="M224.81,-26.13C216.25,-27.46 207.53,-28.82 199.1,-30.13"/>
<polygon fill="midnightblue" stroke="midnightblue" points="225.44,-29.57 234.78,-24.57 224.36,-22.66 225.44,-29.57"/>
</g>
</g>
</svg>
