<?xml version="1.0" encoding="UTF-8" standalone="no"?>
<!DOCTYPE svg PUBLIC "-//W3C//DTD SVG 1.1//EN"
 "http://www.w3.org/Graphics/SVG/1.1/DTD/svg11.dtd">
<!-- Generated by graphviz version 2.43.0 (0)
 -->
<!-- Title: HermiteInteraction::calcAccJerkPairSingleGroupCM Pages: 1 -->
<svg width="540pt" height="142pt"
 viewBox="0.00 0.00 540.00 142.00" xmlns="http://www.w3.org/2000/svg" xmlns:xlink="http://www.w3.org/1999/xlink">
<g id="graph0" class="graph" transform="scale(1 1) rotate(0) translate(4 138)">
<title>HermiteInteraction::calcAccJerkPairSingleGroupCM</title>
<polygon fill="white" stroke="transparent" points="-4,4 -4,-138 536,-138 536,4 -4,4"/>
<!-- Node1 -->
<g id="node1" class="node">
<title>Node1</title>
<g id="a_node1"><a xlink:title="calculate acceleration and jerk of one pair single and resolved group">
<polygon fill="#bfbfbf" stroke="black" points="0,-52 0,-82 171,-82 171,-52 0,-52"/>
<text text-anchor="start" x="8" y="-70" font-family="Helvetica,sans-Serif" font-size="10.00">HermiteInteraction</text>
<text text-anchor="middle" x="85.5" y="-59" font-family="Helvetica,sans-Serif" font-size="10.00">::calcAccJerkPairSingleGroupCM</text>
</a>
</g>
</g>
<!-- Node2 -->
<g id="node2" class="node">
<title>Node2</title>
<g id="a_node2"><a xlink:href="classChangeOver.html#aa4cee9c08ff3ae260bf33fb3d885ffca" target="_top" xlink:title="calculate changeover function Acc0 by selecting maximum rout">
<polygon fill="white" stroke="black" points="207,-95.5 207,-114.5 361,-114.5 361,-95.5 207,-95.5"/>
<text text-anchor="middle" x="284" y="-102.5" font-family="Helvetica,sans-Serif" font-size="10.00">ChangeOver::calcAcc0WTwo</text>
</a>
</g>
</g>
<!-- Node1&#45;&gt;Node2 -->
<g id="edge1" class="edge">
<title>Node1&#45;&gt;Node2</title>
<path fill="none" stroke="midnightblue" d="M164.16,-82.02C184.08,-85.87 205.17,-89.95 223.97,-93.59"/>
<polygon fill="midnightblue" stroke="midnightblue" points="223.39,-97.04 233.87,-95.5 224.72,-90.16 223.39,-97.04"/>
</g>
<!-- Node5 -->
<g id="node5" class="node">
<title>Node5</title>
<g id="a_node5"><a xlink:href="classChangeOver.html#a03517a56f818e5be3d1bba56cb78edff" target="_top" xlink:title="calculate changeover function Acc1 by selecting maximum rout">
<polygon fill="white" stroke="black" points="207,-57.5 207,-76.5 361,-76.5 361,-57.5 207,-57.5"/>
<text text-anchor="middle" x="284" y="-64.5" font-family="Helvetica,sans-Serif" font-size="10.00">ChangeOver::calcAcc1WTwo</text>
</a>
</g>
</g>
<!-- Node1&#45;&gt;Node5 -->
<g id="edge4" class="edge">
<title>Node1&#45;&gt;Node5</title>
<path fill="none" stroke="midnightblue" d="M171.26,-67C179.68,-67 188.23,-67 196.67,-67"/>
<polygon fill="midnightblue" stroke="midnightblue" points="196.88,-70.5 206.88,-67 196.88,-63.5 196.88,-70.5"/>
</g>
<!-- Node7 -->
<g id="node7" class="node">
<title>Node7</title>
<g id="a_node7"><a xlink:href="classChangeOver.html#a42703491c22c6f1925e28f4eb7508594" target="_top" xlink:title="calculate changeover function Pot by selecting maximum rout">
<polygon fill="white" stroke="black" points="211,-19.5 211,-38.5 357,-38.5 357,-19.5 211,-19.5"/>
<text text-anchor="middle" x="284" y="-26.5" font-family="Helvetica,sans-Serif" font-size="10.00">ChangeOver::calcPotWTwo</text>
</a>
</g>
</g>
<!-- Node1&#45;&gt;Node7 -->
<g id="edge7" class="edge">
<title>Node1&#45;&gt;Node7</title>
<path fill="none" stroke="midnightblue" d="M164.16,-51.98C184.08,-48.13 205.17,-44.05 223.97,-40.41"/>
<polygon fill="midnightblue" stroke="midnightblue" points="224.72,-43.84 233.87,-38.5 223.39,-36.96 224.72,-43.84"/>
</g>
<!-- Node3 -->
<g id="node3" class="node">
<title>Node3</title>
<g id="a_node3"><a xlink:href="classChangeOver.html#af8884a741e47cb86fa1d33354bfc7537" target="_top" xlink:title="changeover function for force">
<polygon fill="white" stroke="black" points="397,-114.5 397,-133.5 532,-133.5 532,-114.5 397,-114.5"/>
<text text-anchor="middle" x="464.5" y="-121.5" font-family="Helvetica,sans-Serif" font-size="10.00">ChangeOver::calcAcc0W</text>
</a>
</g>
</g>
<!-- Node2&#45;&gt;Node3 -->
<g id="edge2" class="edge">
<title>Node2&#45;&gt;Node3</title>
<path fill="none" stroke="midnightblue" d="M361.22,-113.11C369.64,-114.01 378.22,-114.92 386.65,-115.82"/>
<polygon fill="midnightblue" stroke="midnightblue" points="386.52,-119.33 396.83,-116.9 387.26,-112.36 386.52,-119.33"/>
</g>
<!-- Node4 -->
<g id="node4" class="node">
<title>Node4</title>
<g id="a_node4"><a xlink:href="classChangeOver.html#ab1ee26d7f773d67568a55b8efabdbe79" target="_top" xlink:title="get r_out">
<polygon fill="white" stroke="black" points="404,-76.5 404,-95.5 525,-95.5 525,-76.5 404,-76.5"/>
<text text-anchor="middle" x="464.5" y="-83.5" font-family="Helvetica,sans-Serif" font-size="10.00">ChangeOver::getRout</text>
</a>
</g>
</g>
<!-- Node2&#45;&gt;Node4 -->
<g id="edge3" class="edge">
<title>Node2&#45;&gt;Node4</title>
<path fill="none" stroke="midnightblue" d="M361.22,-96.89C372.06,-95.73 383.17,-94.55 393.87,-93.41"/>
<polygon fill="midnightblue" stroke="midnightblue" points="394.43,-96.87 404,-92.33 393.68,-89.91 394.43,-96.87"/>
</g>
<!-- Node5&#45;&gt;Node4 -->
<g id="edge6" class="edge">
<title>Node5&#45;&gt;Node4</title>
<path fill="none" stroke="midnightblue" d="M361.22,-75.11C372.06,-76.27 383.17,-77.45 393.87,-78.59"/>
<polygon fill="midnightblue" stroke="midnightblue" points="393.68,-82.09 404,-79.67 394.43,-75.13 393.68,-82.09"/>
</g>
<!-- Node6 -->
<g id="node6" class="node">
<title>Node6</title>
<g id="a_node6"><a xlink:href="classChangeOver.html#a2865beebed34f9de5d5fbbd6f73564d2" target="_top" xlink:title="changeover function for force derivative">
<polygon fill="white" stroke="black" points="397,-38.5 397,-57.5 532,-57.5 532,-38.5 397,-38.5"/>
<text text-anchor="middle" x="464.5" y="-45.5" font-family="Helvetica,sans-Serif" font-size="10.00">ChangeOver::calcAcc1W</text>
</a>
</g>
</g>
<!-- Node5&#45;&gt;Node6 -->
<g id="edge5" class="edge">
<title>Node5&#45;&gt;Node6</title>
<path fill="none" stroke="midnightblue" d="M361.22,-58.89C369.64,-57.99 378.22,-57.08 386.65,-56.18"/>
<polygon fill="midnightblue" stroke="midnightblue" points="387.26,-59.64 396.83,-55.1 386.52,-52.67 387.26,-59.64"/>
</g>
<!-- Node7&#45;&gt;Node4 -->
<g id="edge9" class="edge">
<title>Node7&#45;&gt;Node4</title>
<path fill="none" stroke="midnightblue" d="M330.96,-38.6C341,-41.22 351.47,-44.36 361,-48 377.9,-54.46 380.21,-60.26 397,-67 402.85,-69.35 409.1,-71.53 415.33,-73.52"/>
<polygon fill="midnightblue" stroke="midnightblue" points="414.48,-76.92 425.06,-76.48 416.51,-70.22 414.48,-76.92"/>
</g>
<!-- Node8 -->
<g id="node8" class="node">
<title>Node8</title>
<g id="a_node8"><a xlink:href="classChangeOver.html#a23c019e8fc14c43826a4c85454e55780" target="_top" xlink:title="changeover function for potential">
<polygon fill="white" stroke="black" points="400.5,-0.5 400.5,-19.5 528.5,-19.5 528.5,-0.5 400.5,-0.5"/>
<text text-anchor="middle" x="464.5" y="-7.5" font-family="Helvetica,sans-Serif" font-size="10.00">ChangeOver::calcPotW</text>
</a>
</g>
</g>
<!-- Node7&#45;&gt;Node8 -->
<g id="edge8" class="edge">
<title>Node7&#45;&gt;Node8</title>
<path fill="none" stroke="midnightblue" d="M357.09,-21.33C368.05,-20.16 379.38,-18.95 390.36,-17.79"/>
<polygon fill="midnightblue" stroke="midnightblue" points="390.76,-21.26 400.34,-16.72 390.02,-14.3 390.76,-21.26"/>
</g>
</g>
</svg>
