<?xml version="1.0" encoding="UTF-8" standalone="no"?>
<!DOCTYPE svg PUBLIC "-//W3C//DTD SVG 1.1//EN"
 "http://www.w3.org/Graphics/SVG/1.1/DTD/svg11.dtd">
<!-- Generated by graphviz version 2.43.0 (0)
 -->
<!-- Title: BSEManager::checkParams Pages: 1 -->
<svg width="346pt" height="116pt"
 viewBox="0.00 0.00 346.00 115.50" xmlns="http://www.w3.org/2000/svg" xmlns:xlink="http://www.w3.org/1999/xlink">
<g id="graph0" class="graph" transform="scale(1 1) rotate(0) translate(4 111.5)">
<title>BSEManager::checkParams</title>
<polygon fill="white" stroke="transparent" points="-4,4 -4,-111.5 342,-111.5 342,4 -4,4"/>
<!-- Node1 -->
<g id="node1" class="node">
<title>Node1</title>
<g id="a_node1"><a xlink:title=" ">
<polygon fill="#bfbfbf" stroke="black" points="189,-50 189,-69 338,-69 338,-50 189,-50"/>
<text text-anchor="middle" x="263.5" y="-57" font-family="Helvetica,sans-Serif" font-size="10.00">BSEManager::checkParams</text>
</a>
</g>
</g>
<!-- Node2 -->
<g id="node2" class="node">
<title>Node2</title>
<g id="a_node2"><a xlink:href="classARInteraction.html#a51561b7ee444be08ae46765aebe9e135" target="_top" xlink:title="(Necessary) check whether publicly initialized parameters are correctly set">
<polygon fill="white" stroke="black" points="0,-88 0,-107 153,-107 153,-88 0,-88"/>
<text text-anchor="middle" x="76.5" y="-95" font-family="Helvetica,sans-Serif" font-size="10.00">ARInteraction::checkParams</text>
</a>
</g>
</g>
<!-- Node1&#45;&gt;Node2 -->
<g id="edge1" class="edge">
<title>Node1&#45;&gt;Node2</title>
<path fill="none" stroke="midnightblue" d="M205.98,-71.11C179.67,-76.51 148.76,-82.86 123.85,-87.98"/>
<polygon fill="midnightblue" stroke="midnightblue" points="206.73,-74.53 215.82,-69.09 205.32,-67.67 206.73,-74.53"/>
</g>
<!-- Node3 -->
<g id="node3" class="node">
<title>Node3</title>
<g id="a_node3"><a xlink:href="bse__test_8cxx.html#a3c04138a5bfe5d72780bb7e82a18e627" target="_top" xlink:title=" ">
<polygon fill="white" stroke="black" points="56,-50 56,-69 97,-69 97,-50 56,-50"/>
<text text-anchor="middle" x="76.5" y="-57" font-family="Helvetica,sans-Serif" font-size="10.00">main</text>
</a>
</g>
</g>
<!-- Node1&#45;&gt;Node3 -->
<g id="edge2" class="edge">
<title>Node1&#45;&gt;Node3</title>
<path fill="none" stroke="midnightblue" d="M178.63,-59.5C148.31,-59.5 116.73,-59.5 97.1,-59.5"/>
<polygon fill="midnightblue" stroke="midnightblue" points="178.85,-63 188.85,-59.5 178.85,-56 178.85,-63"/>
</g>
<!-- Node4 -->
<g id="node4" class="node">
<title>Node4</title>
<g id="a_node4"><a xlink:href="classARInteraction.html#a01115b0f522974cd9e5f0ecd3ef57663" target="_top" xlink:title="(Necessary) modify one particle function">
<polygon fill="white" stroke="black" points="5.5,-0.5 5.5,-30.5 147.5,-30.5 147.5,-0.5 5.5,-0.5"/>
<text text-anchor="start" x="13.5" y="-18.5" font-family="Helvetica,sans-Serif" font-size="10.00">ARInteraction::modifyOne</text>
<text text-anchor="middle" x="76.5" y="-7.5" font-family="Helvetica,sans-Serif" font-size="10.00">Particle</text>
</a>
</g>
</g>
<!-- Node1&#45;&gt;Node4 -->
<g id="edge3" class="edge">
<title>Node1&#45;&gt;Node4</title>
<path fill="none" stroke="midnightblue" d="M212.53,-47.62C190.46,-42.37 164.26,-36.14 140.84,-30.57"/>
<polygon fill="midnightblue" stroke="midnightblue" points="211.82,-51.04 222.36,-49.95 213.44,-44.23 211.82,-51.04"/>
</g>
</g>
</svg>
