<?xml version="1.0" encoding="UTF-8" standalone="no"?>
<!DOCTYPE svg PUBLIC "-//W3C//DTD SVG 1.1//EN"
 "http://www.w3.org/Graphics/SVG/1.1/DTD/svg11.dtd">
<!-- Generated by graphviz version 2.43.0 (0)
 -->
<!-- Title: EnergyAndMomemtum::getMomentumError Pages: 1 -->
<svg width="463pt" height="137pt"
 viewBox="0.00 0.00 463.00 137.00" xmlns="http://www.w3.org/2000/svg" xmlns:xlink="http://www.w3.org/1999/xlink">
<g id="graph0" class="graph" transform="scale(1 1) rotate(0) translate(4 133)">
<title>EnergyAndMomemtum::getMomentumError</title>
<polygon fill="white" stroke="transparent" points="-4,4 -4,-133 459,-133 459,4 -4,4"/>
<!-- Node1 -->
<g id="node1" class="node">
<title>Node1</title>
<g id="a_node1"><a xlink:title="get angular momemtum (value) error">
<polygon fill="#bfbfbf" stroke="black" points="320,-49.5 320,-79.5 455,-79.5 455,-49.5 320,-49.5"/>
<text text-anchor="start" x="328" y="-67.5" font-family="Helvetica,sans-Serif" font-size="10.00">EnergyAndMomemtum::</text>
<text text-anchor="middle" x="387.5" y="-56.5" font-family="Helvetica,sans-Serif" font-size="10.00">getMomentumError</text>
</a>
</g>
</g>
<!-- Node2 -->
<g id="node2" class="node">
<title>Node2</title>
<g id="a_node2"><a xlink:href="classEnergyAndMomemtum.html#a8ce7725b12ac90b5f2f66a20a7b0fcdd" target="_top" xlink:title="print title and values in one lines">
<polygon fill="white" stroke="black" points="149,-98.5 149,-128.5 284,-128.5 284,-98.5 149,-98.5"/>
<text text-anchor="start" x="157" y="-116.5" font-family="Helvetica,sans-Serif" font-size="10.00">EnergyAndMomemtum::</text>
<text text-anchor="middle" x="216.5" y="-105.5" font-family="Helvetica,sans-Serif" font-size="10.00">print</text>
</a>
</g>
</g>
<!-- Node1&#45;&gt;Node2 -->
<g id="edge1" class="edge">
<title>Node1&#45;&gt;Node2</title>
<path fill="none" stroke="midnightblue" d="M324.78,-82.39C306.61,-87.66 286.91,-93.38 269.41,-98.45"/>
<polygon fill="midnightblue" stroke="midnightblue" points="325.79,-85.75 334.42,-79.6 323.84,-79.02 325.79,-85.75"/>
</g>
<!-- Node4 -->
<g id="node4" class="node">
<title>Node4</title>
<g id="a_node4"><a xlink:href="classEnergyAndMomemtum.html#a0cb4de153894618f11d0443a12e3f44c" target="_top" xlink:title="print data of class members using column style">
<polygon fill="white" stroke="black" points="149,-49.5 149,-79.5 284,-79.5 284,-49.5 149,-49.5"/>
<text text-anchor="start" x="157" y="-67.5" font-family="Helvetica,sans-Serif" font-size="10.00">EnergyAndMomemtum::</text>
<text text-anchor="middle" x="216.5" y="-56.5" font-family="Helvetica,sans-Serif" font-size="10.00">printColumn</text>
</a>
</g>
</g>
<!-- Node1&#45;&gt;Node4 -->
<g id="edge3" class="edge">
<title>Node1&#45;&gt;Node4</title>
<path fill="none" stroke="midnightblue" d="M309.45,-64.5C300.98,-64.5 292.41,-64.5 284.08,-64.5"/>
<polygon fill="midnightblue" stroke="midnightblue" points="309.71,-68 319.71,-64.5 309.71,-61 309.71,-68"/>
</g>
<!-- Node6 -->
<g id="node6" class="node">
<title>Node6</title>
<g id="a_node6"><a xlink:href="classEnergyAndMomemtum.html#a1aed44f1fd6443ded7eb940b696c0beb" target="_top" xlink:title="save current energy error">
<polygon fill="white" stroke="black" points="149,-0.5 149,-30.5 284,-30.5 284,-0.5 149,-0.5"/>
<text text-anchor="start" x="157" y="-18.5" font-family="Helvetica,sans-Serif" font-size="10.00">EnergyAndMomemtum::</text>
<text text-anchor="middle" x="216.5" y="-7.5" font-family="Helvetica,sans-Serif" font-size="10.00">saveEnergyError</text>
</a>
</g>
</g>
<!-- Node1&#45;&gt;Node6 -->
<g id="edge5" class="edge">
<title>Node1&#45;&gt;Node6</title>
<path fill="none" stroke="midnightblue" d="M324.78,-46.61C306.61,-41.34 286.91,-35.62 269.41,-30.55"/>
<polygon fill="midnightblue" stroke="midnightblue" points="323.84,-49.98 334.42,-49.4 325.79,-43.25 323.84,-49.98"/>
</g>
<!-- Node3 -->
<g id="node3" class="node">
<title>Node3</title>
<g id="a_node3"><a xlink:href="classStatus.html#ae97a62d35d7fdb083be8d441fc3b2270" target="_top" xlink:title="print title and values in one lines">
<polygon fill="white" stroke="black" points="18.5,-104 18.5,-123 94.5,-123 94.5,-104 18.5,-104"/>
<text text-anchor="middle" x="56.5" y="-111" font-family="Helvetica,sans-Serif" font-size="10.00">Status::print</text>
</a>
</g>
</g>
<!-- Node2&#45;&gt;Node3 -->
<g id="edge2" class="edge">
<title>Node2&#45;&gt;Node3</title>
<path fill="none" stroke="midnightblue" d="M138.88,-113.5C123.5,-113.5 107.99,-113.5 94.7,-113.5"/>
<polygon fill="midnightblue" stroke="midnightblue" points="138.95,-117 148.95,-113.5 138.95,-110 138.95,-117"/>
</g>
<!-- Node5 -->
<g id="node5" class="node">
<title>Node5</title>
<g id="a_node5"><a xlink:href="classStatus.html#a86a02e9495c972470f963cec6d9e5523" target="_top" xlink:title="print data of class members using column style">
<polygon fill="white" stroke="black" points="0,-55 0,-74 113,-74 113,-55 0,-55"/>
<text text-anchor="middle" x="56.5" y="-62" font-family="Helvetica,sans-Serif" font-size="10.00">Status::printColumn</text>
</a>
</g>
</g>
<!-- Node4&#45;&gt;Node5 -->
<g id="edge4" class="edge">
<title>Node4&#45;&gt;Node5</title>
<path fill="none" stroke="midnightblue" d="M138.92,-64.5C130.35,-64.5 121.73,-64.5 113.48,-64.5"/>
<polygon fill="midnightblue" stroke="midnightblue" points="138.95,-68 148.95,-64.5 138.95,-61 138.95,-68"/>
</g>
</g>
</svg>
