<?xml version="1.0" encoding="UTF-8" standalone="no"?>
<!DOCTYPE svg PUBLIC "-//W3C//DTD SVG 1.1//EN"
 "http://www.w3.org/Graphics/SVG/1.1/DTD/svg11.dtd">
<!-- Generated by graphviz version 2.43.0 (0)
 -->
<!-- Title: Stability::stabilityCheckIter Pages: 1 -->
<svg width="582pt" height="104pt"
 viewBox="0.00 0.00 582.00 104.00" xmlns="http://www.w3.org/2000/svg" xmlns:xlink="http://www.w3.org/1999/xlink">
<g id="graph0" class="graph" transform="scale(1 1) rotate(0) translate(4 100)">
<title>Stability::stabilityCheckIter</title>
<polygon fill="white" stroke="transparent" points="-4,4 -4,-100 578,-100 578,4 -4,4"/>
<!-- Node1 -->
<g id="node1" class="node">
<title>Node1</title>
<g id="a_node1"><a xlink:title="Stability check iteraction function for BinaryTree.">
<polygon fill="#bfbfbf" stroke="black" points="0,-38.5 0,-57.5 149,-57.5 149,-38.5 0,-38.5"/>
<text text-anchor="middle" x="74.5" y="-45.5" font-family="Helvetica,sans-Serif" font-size="10.00">Stability::stabilityCheckIter</text>
</a>
</g>
</g>
<!-- Node2 -->
<g id="node2" class="node">
<title>Node2</title>
<g id="a_node2"><a xlink:href="classStability.html#a19a8ec8fb26e8de9360fec51db67c8ce" target="_top" xlink:title="check two&#45;body stability">
<polygon fill="white" stroke="black" points="185,-76.5 185,-95.5 312,-95.5 312,-76.5 185,-76.5"/>
<text text-anchor="middle" x="248.5" y="-83.5" font-family="Helvetica,sans-Serif" font-size="10.00">Stability::stable2check</text>
</a>
</g>
</g>
<!-- Node1&#45;&gt;Node2 -->
<g id="edge1" class="edge">
<title>Node1&#45;&gt;Node2</title>
<path fill="none" stroke="midnightblue" d="M118.9,-57.59C141.91,-62.67 170.35,-68.96 194.63,-74.32"/>
<polygon fill="midnightblue" stroke="midnightblue" points="193.89,-77.74 204.41,-76.48 195.4,-70.91 193.89,-77.74"/>
</g>
<!-- Node3 -->
<g id="node3" class="node">
<title>Node3</title>
<g id="a_node3"><a xlink:href="classStability.html#af78b60bacc16c71e2c09f36cb4c39834" target="_top" xlink:title="Three&#45;body (B&#45;S) stability check.">
<polygon fill="white" stroke="black" points="185,-38.5 185,-57.5 312,-57.5 312,-38.5 185,-38.5"/>
<text text-anchor="middle" x="248.5" y="-45.5" font-family="Helvetica,sans-Serif" font-size="10.00">Stability::stable3check</text>
</a>
</g>
</g>
<!-- Node1&#45;&gt;Node3 -->
<g id="edge2" class="edge">
<title>Node1&#45;&gt;Node3</title>
<path fill="none" stroke="midnightblue" d="M149.44,-48C157.86,-48 166.43,-48 174.83,-48"/>
<polygon fill="midnightblue" stroke="midnightblue" points="174.96,-51.5 184.96,-48 174.96,-44.5 174.96,-51.5"/>
</g>
<!-- Node7 -->
<g id="node7" class="node">
<title>Node7</title>
<g id="a_node7"><a xlink:href="classStability.html#acb687089da1eb3788a3c320e32855381" target="_top" xlink:title="Four&#45;body (B&#45;B) stability check.">
<polygon fill="white" stroke="black" points="185,-0.5 185,-19.5 312,-19.5 312,-0.5 185,-0.5"/>
<text text-anchor="middle" x="248.5" y="-7.5" font-family="Helvetica,sans-Serif" font-size="10.00">Stability::stable4check</text>
</a>
</g>
</g>
<!-- Node1&#45;&gt;Node7 -->
<g id="edge7" class="edge">
<title>Node1&#45;&gt;Node7</title>
<path fill="none" stroke="midnightblue" d="M118.9,-38.41C141.91,-33.33 170.35,-27.04 194.63,-21.68"/>
<polygon fill="midnightblue" stroke="midnightblue" points="195.4,-25.09 204.41,-19.52 193.89,-18.26 195.4,-25.09"/>
</g>
<!-- Node4 -->
<g id="node4" class="node">
<title>Node4</title>
<g id="a_node4"><a xlink:href="namespacePIKG.html#aab82f0106f14677daa09a64a269eaadf" target="_top" xlink:title=" ">
<polygon fill="white" stroke="black" points="507.5,-0.5 507.5,-19.5 572.5,-19.5 572.5,-0.5 507.5,-0.5"/>
<text text-anchor="middle" x="540" y="-7.5" font-family="Helvetica,sans-Serif" font-size="10.00">PIKG::min</text>
</a>
</g>
</g>
<!-- Node3&#45;&gt;Node4 -->
<g id="edge3" class="edge">
<title>Node3&#45;&gt;Node4</title>
<path fill="none" stroke="midnightblue" d="M312.32,-56.22C357.02,-60.1 418.09,-61.35 470,-48 472.43,-47.37 494.81,-34.95 513.43,-24.47"/>
<polygon fill="midnightblue" stroke="midnightblue" points="515.17,-27.51 522.17,-19.55 511.74,-21.41 515.17,-27.51"/>
</g>
<!-- Node5 -->
<g id="node5" class="node">
<title>Node5</title>
<g id="a_node5"><a xlink:href="classStability.html#aa40ca7cd2b05a549f8e539aab549a8ad" target="_top" xlink:title="Three&#45;body stability function.">
<polygon fill="white" stroke="black" points="348,-19.5 348,-38.5 470,-38.5 470,-19.5 348,-19.5"/>
<text text-anchor="middle" x="409" y="-26.5" font-family="Helvetica,sans-Serif" font-size="10.00">Stability::stable3body</text>
</a>
</g>
</g>
<!-- Node3&#45;&gt;Node5 -->
<g id="edge4" class="edge">
<title>Node3&#45;&gt;Node5</title>
<path fill="none" stroke="midnightblue" d="M312.14,-40.49C320.6,-39.48 329.32,-38.43 337.9,-37.4"/>
<polygon fill="midnightblue" stroke="midnightblue" points="338.37,-40.87 347.88,-36.21 337.53,-33.92 338.37,-40.87"/>
</g>
<!-- Node5&#45;&gt;Node4 -->
<g id="edge6" class="edge">
<title>Node5&#45;&gt;Node4</title>
<path fill="none" stroke="midnightblue" d="M470.35,-20.11C479.39,-18.78 488.54,-17.43 497.09,-16.17"/>
<polygon fill="midnightblue" stroke="midnightblue" points="497.78,-19.61 507.17,-14.69 496.76,-12.68 497.78,-19.61"/>
</g>
<!-- Node6 -->
<g id="node6" class="node">
<title>Node6</title>
<g id="a_node6"><a xlink:href="namespacePIKG.html#aede68ae33404ee6199164897b8cbc9ad" target="_top" xlink:title=" ">
<polygon fill="white" stroke="black" points="506,-38.5 506,-57.5 574,-57.5 574,-38.5 506,-38.5"/>
<text text-anchor="middle" x="540" y="-45.5" font-family="Helvetica,sans-Serif" font-size="10.00">PIKG::max</text>
</a>
</g>
</g>
<!-- Node5&#45;&gt;Node6 -->
<g id="edge5" class="edge">
<title>Node5&#45;&gt;Node6</title>
<path fill="none" stroke="midnightblue" d="M470.35,-37.89C478.92,-39.15 487.6,-40.43 495.76,-41.63"/>
<polygon fill="midnightblue" stroke="midnightblue" points="495.37,-45.11 505.78,-43.11 496.39,-38.19 495.37,-45.11"/>
</g>
<!-- Node7&#45;&gt;Node4 -->
<g id="edge8" class="edge">
<title>Node7&#45;&gt;Node4</title>
<path fill="none" stroke="midnightblue" d="M312.32,-10C368.25,-10 448.51,-10 497,-10"/>
<polygon fill="midnightblue" stroke="midnightblue" points="497.14,-13.5 507.14,-10 497.14,-6.5 497.14,-13.5"/>
</g>
<!-- Node7&#45;&gt;Node5 -->
<g id="edge9" class="edge">
<title>Node7&#45;&gt;Node5</title>
<path fill="none" stroke="midnightblue" d="M312.14,-17.51C320.6,-18.52 329.32,-19.57 337.9,-20.6"/>
<polygon fill="midnightblue" stroke="midnightblue" points="337.53,-24.08 347.88,-21.79 338.37,-17.13 337.53,-24.08"/>
</g>
</g>
</svg>
