<?xml version="1.0" encoding="UTF-8" standalone="no"?>
<!DOCTYPE svg PUBLIC "-//W3C//DTD SVG 1.1//EN"
 "http://www.w3.org/Graphics/SVG/1.1/DTD/svg11.dtd">
<!-- Generated by graphviz version 2.43.0 (0)
 -->
<!-- Title: FPSoft::readAscii Pages: 1 -->
<svg width="658pt" height="116pt"
 viewBox="0.00 0.00 658.00 115.50" xmlns="http://www.w3.org/2000/svg" xmlns:xlink="http://www.w3.org/1999/xlink">
<g id="graph0" class="graph" transform="scale(1 1) rotate(0) translate(4 111.5)">
<title>FPSoft::readAscii</title>
<polygon fill="white" stroke="transparent" points="-4,4 -4,-111.5 654,-111.5 654,4 -4,4"/>
<!-- Node1 -->
<g id="node1" class="node">
<title>Node1</title>
<g id="a_node1"><a xlink:title=" ">
<polygon fill="#bfbfbf" stroke="black" points="0,-50 0,-69 98,-69 98,-50 0,-50"/>
<text text-anchor="middle" x="49" y="-57" font-family="Helvetica,sans-Serif" font-size="10.00">FPSoft::readAscii</text>
</a>
</g>
</g>
<!-- Node2 -->
<g id="node2" class="node">
<title>Node2</title>
<g id="a_node2"><a xlink:href="classPtcl.html#a8194ae1343c9b9dacad1e2253a69ea7d" target="_top" xlink:title="read class data with ASCII format">
<polygon fill="white" stroke="black" points="134,-50 134,-69 220,-69 220,-50 134,-50"/>
<text text-anchor="middle" x="177" y="-57" font-family="Helvetica,sans-Serif" font-size="10.00">Ptcl::readAscii</text>
</a>
</g>
</g>
<!-- Node1&#45;&gt;Node2 -->
<g id="edge1" class="edge">
<title>Node1&#45;&gt;Node2</title>
<path fill="none" stroke="midnightblue" d="M98.35,-59.5C106.64,-59.5 115.29,-59.5 123.68,-59.5"/>
<polygon fill="midnightblue" stroke="midnightblue" points="123.74,-63 133.74,-59.5 123.74,-56 123.74,-63"/>
</g>
<!-- Node3 -->
<g id="node3" class="node">
<title>Node3</title>
<g id="a_node3"><a xlink:href="classParticleBase.html#a37300f78eeb60423fb3e750685331e8d" target="_top" xlink:title="read class data with ASCII format">
<polygon fill="white" stroke="black" points="267,-88 267,-107 395,-107 395,-88 267,-88"/>
<text text-anchor="middle" x="331" y="-95" font-family="Helvetica,sans-Serif" font-size="10.00">ParticleBase::readAscii</text>
</a>
</g>
</g>
<!-- Node2&#45;&gt;Node3 -->
<g id="edge2" class="edge">
<title>Node2&#45;&gt;Node3</title>
<path fill="none" stroke="midnightblue" d="M216.36,-69.09C236.32,-74.08 260.93,-80.23 282.13,-85.53"/>
<polygon fill="midnightblue" stroke="midnightblue" points="281.37,-88.95 291.92,-87.98 283.07,-82.16 281.37,-88.95"/>
</g>
<!-- Node4 -->
<g id="node4" class="node">
<title>Node4</title>
<g id="a_node4"><a xlink:href="classChangeOver.html#a4ab816f7e59edaf68f7223b8ca5bcd7b" target="_top" xlink:title="read class data to file with binary format">
<polygon fill="white" stroke="black" points="267,-50 267,-69 395,-69 395,-50 267,-50"/>
<text text-anchor="middle" x="331" y="-57" font-family="Helvetica,sans-Serif" font-size="10.00">ChangeOver::readAscii</text>
</a>
</g>
</g>
<!-- Node2&#45;&gt;Node4 -->
<g id="edge3" class="edge">
<title>Node2&#45;&gt;Node4</title>
<path fill="none" stroke="midnightblue" d="M220.34,-59.5C231.6,-59.5 244.08,-59.5 256.49,-59.5"/>
<polygon fill="midnightblue" stroke="midnightblue" points="256.85,-63 266.85,-59.5 256.85,-56 256.85,-63"/>
</g>
<!-- Node7 -->
<g id="node7" class="node">
<title>Node7</title>
<g id="a_node7"><a xlink:href="classArtificialParticleInformation.html#ab55e8cb9e7c06e8724bf280455f9207f" target="_top" xlink:title="read class data with ASCII format">
<polygon fill="white" stroke="black" points="256,-0.5 256,-30.5 406,-30.5 406,-0.5 256,-0.5"/>
<text text-anchor="start" x="264" y="-18.5" font-family="Helvetica,sans-Serif" font-size="10.00">ArtificialParticleInformation</text>
<text text-anchor="middle" x="331" y="-7.5" font-family="Helvetica,sans-Serif" font-size="10.00">::readAscii</text>
</a>
</g>
</g>
<!-- Node2&#45;&gt;Node7 -->
<g id="edge6" class="edge">
<title>Node2&#45;&gt;Node7</title>
<path fill="none" stroke="midnightblue" d="M210.98,-49.95C227.71,-45.11 248.59,-39.07 268.17,-33.4"/>
<polygon fill="midnightblue" stroke="midnightblue" points="269.32,-36.71 277.96,-30.57 267.38,-29.98 269.32,-36.71"/>
</g>
<!-- Node5 -->
<g id="node5" class="node">
<title>Node5</title>
<g id="a_node5"><a xlink:href="classChangeOver.html#ab8bbff987a930131dcbe86ce435f6087" target="_top" xlink:title="set r_in and r_out for changeover function">
<polygon fill="white" stroke="black" points="442,-50 442,-69 546,-69 546,-50 442,-50"/>
<text text-anchor="middle" x="494" y="-57" font-family="Helvetica,sans-Serif" font-size="10.00">ChangeOver::setR</text>
</a>
</g>
</g>
<!-- Node4&#45;&gt;Node5 -->
<g id="edge4" class="edge">
<title>Node4&#45;&gt;Node5</title>
<path fill="none" stroke="midnightblue" d="M395.17,-59.5C407.16,-59.5 419.69,-59.5 431.63,-59.5"/>
<polygon fill="midnightblue" stroke="midnightblue" points="431.93,-63 441.93,-59.5 431.93,-56 431.93,-63"/>
</g>
<!-- Node6 -->
<g id="node6" class="node">
<title>Node6</title>
<g id="a_node6"><a xlink:href="namespacePIKG.html#aede68ae33404ee6199164897b8cbc9ad" target="_top" xlink:title=" ">
<polygon fill="white" stroke="black" points="582,-50 582,-69 650,-69 650,-50 582,-50"/>
<text text-anchor="middle" x="616" y="-57" font-family="Helvetica,sans-Serif" font-size="10.00">PIKG::max</text>
</a>
</g>
</g>
<!-- Node5&#45;&gt;Node6 -->
<g id="edge5" class="edge">
<title>Node5&#45;&gt;Node6</title>
<path fill="none" stroke="midnightblue" d="M546.24,-59.5C554.75,-59.5 563.5,-59.5 571.79,-59.5"/>
<polygon fill="midnightblue" stroke="midnightblue" points="571.98,-63 581.98,-59.5 571.98,-56 571.98,-63"/>
</g>
</g>
</svg>
