<?xml version="1.0" encoding="UTF-8" standalone="no"?>
<!DOCTYPE svg PUBLIC "-//W3C//DTD SVG 1.1//EN"
 "http://www.w3.org/Graphics/SVG/1.1/DTD/svg11.dtd">
<!-- Generated by graphviz version 2.43.0 (0)
 -->
<!-- Title: SystemHard Pages: 1 -->
<svg width="184pt" height="229pt"
 viewBox="0.00 0.00 184.00 229.00" xmlns="http://www.w3.org/2000/svg" xmlns:xlink="http://www.w3.org/1999/xlink">
<g id="graph0" class="graph" transform="scale(1 1) rotate(0) translate(4 225)">
<title>SystemHard</title>
<polygon fill="white" stroke="transparent" points="-4,4 -4,-225 180,-225 180,4 -4,4"/>
<!-- Node1 -->
<g id="node1" class="node">
<title>Node1</title>
<g id="a_node1"><a xlink:title="Hard system.">
<polygon fill="#bfbfbf" stroke="black" points="49.5,-0.5 49.5,-19.5 126.5,-19.5 126.5,-0.5 49.5,-0.5"/>
<text text-anchor="middle" x="88" y="-7.5" font-family="Helvetica,sans-Serif" font-size="10.00">SystemHard</text>
</a>
</g>
</g>
<!-- Node2 -->
<g id="node2" class="node">
<title>Node2</title>
<g id="a_node2"><a xlink:href="classHardManager.html" target="_top" xlink:title="Hard integrator parameter manager.">
<polygon fill="white" stroke="black" points="46.5,-67.5 46.5,-86.5 129.5,-86.5 129.5,-67.5 46.5,-67.5"/>
<text text-anchor="middle" x="88" y="-74.5" font-family="Helvetica,sans-Serif" font-size="10.00">HardManager</text>
</a>
</g>
</g>
<!-- Node2&#45;&gt;Node1 -->
<g id="edge1" class="edge">
<title>Node2&#45;&gt;Node1</title>
<path fill="none" stroke="#9a32cd" stroke-dasharray="5,2" d="M88,-57.04C88,-44.67 88,-29.12 88,-19.63"/>
<polygon fill="#9a32cd" stroke="#9a32cd" points="84.5,-57.23 88,-67.23 91.5,-57.23 84.5,-57.23"/>
<text text-anchor="middle" x="111.5" y="-41" font-family="Helvetica,sans-Serif" font-size="10.00"> manager</text>
</g>
<!-- Node3 -->
<g id="node3" class="node">
<title>Node3</title>
<g id="a_node3"><a xlink:href="classArtificialParticleManager.html" target="_top" xlink:title="class to organize artificial particles">
<polygon fill="white" stroke="black" points="20,-134.5 20,-153.5 156,-153.5 156,-134.5 20,-134.5"/>
<text text-anchor="middle" x="88" y="-141.5" font-family="Helvetica,sans-Serif" font-size="10.00">ArtificialParticleManager</text>
</a>
</g>
</g>
<!-- Node3&#45;&gt;Node2 -->
<g id="edge2" class="edge">
<title>Node3&#45;&gt;Node2</title>
<path fill="none" stroke="#9a32cd" stroke-dasharray="5,2" d="M88,-124.04C88,-111.67 88,-96.12 88,-86.63"/>
<polygon fill="#9a32cd" stroke="#9a32cd" points="84.5,-124.23 88,-134.23 91.5,-124.23 84.5,-124.23"/>
<text text-anchor="middle" x="120" y="-108" font-family="Helvetica,sans-Serif" font-size="10.00"> ap_manager</text>
</g>
<!-- Node4 -->
<g id="node4" class="node">
<title>Node4</title>
<g id="a_node4"><a xlink:href="classPseudoParticleMultipoleManager.html" target="_top" xlink:title="PseudoParticle Multipole method for counter force from binaries.">
<polygon fill="white" stroke="black" points="0,-201.5 0,-220.5 176,-220.5 176,-201.5 0,-201.5"/>
<text text-anchor="middle" x="88" y="-208.5" font-family="Helvetica,sans-Serif" font-size="10.00">PseudoParticleMultipoleManager</text>
</a>
</g>
</g>
<!-- Node4&#45;&gt;Node3 -->
<g id="edge3" class="edge">
<title>Node4&#45;&gt;Node3</title>
<path fill="none" stroke="#9a32cd" stroke-dasharray="5,2" d="M88,-191.04C88,-178.67 88,-163.12 88,-153.63"/>
<polygon fill="#9a32cd" stroke="#9a32cd" points="84.5,-191.23 88,-201.23 91.5,-191.23 84.5,-191.23"/>
<text text-anchor="middle" x="125.5" y="-175" font-family="Helvetica,sans-Serif" font-size="10.00"> orbit_manager</text>
</g>
</g>
</svg>
