<?xml version="1.0" encoding="UTF-8" standalone="no"?>
<!DOCTYPE svg PUBLIC "-//W3C//DTD SVG 1.1//EN"
 "http://www.w3.org/Graphics/SVG/1.1/DTD/svg11.dtd">
<!-- Generated by graphviz version 2.43.0 (0)
 -->
<!-- Title: FPSoft Pages: 1 -->
<svg width="326pt" height="219pt"
 viewBox="0.00 0.00 325.50 219.00" xmlns="http://www.w3.org/2000/svg" xmlns:xlink="http://www.w3.org/1999/xlink">
<g id="graph0" class="graph" transform="scale(1 1) rotate(0) translate(4 215)">
<title>FPSoft</title>
<polygon fill="white" stroke="transparent" points="-4,4 -4,-215 321.5,-215 321.5,4 -4,4"/>
<!-- Node1 -->
<g id="node1" class="node">
<title>Node1</title>
<g id="a_node1"><a xlink:title=" ">
<polygon fill="#bfbfbf" stroke="black" points="110,-0.5 110,-19.5 157,-19.5 157,-0.5 110,-0.5"/>
<text text-anchor="middle" x="133.5" y="-7.5" font-family="Helvetica,sans-Serif" font-size="10.00">FPSoft</text>
</a>
</g>
</g>
<!-- Node2 -->
<g id="node2" class="node">
<title>Node2</title>
<g id="a_node2"><a xlink:href="classPtcl.html" target="_top" xlink:title="Particle class.">
<polygon fill="white" stroke="black" points="116,-57.5 116,-76.5 151,-76.5 151,-57.5 116,-57.5"/>
<text text-anchor="middle" x="133.5" y="-64.5" font-family="Helvetica,sans-Serif" font-size="10.00">Ptcl</text>
</a>
</g>
</g>
<!-- Node2&#45;&gt;Node1 -->
<g id="edge1" class="edge">
<title>Node2&#45;&gt;Node1</title>
<path fill="none" stroke="midnightblue" d="M133.5,-47.12C133.5,-37.82 133.5,-27.06 133.5,-19.71"/>
<polygon fill="midnightblue" stroke="midnightblue" points="130,-47.41 133.5,-57.41 137,-47.41 130,-47.41"/>
</g>
<!-- Node3 -->
<g id="node3" class="node">
<title>Node3</title>
<g id="a_node3"><a xlink:href="classParticleBase.html" target="_top" xlink:title="Basic particle class.">
<polygon fill="white" stroke="black" points="0,-124.5 0,-143.5 77,-143.5 77,-124.5 0,-124.5"/>
<text text-anchor="middle" x="38.5" y="-131.5" font-family="Helvetica,sans-Serif" font-size="10.00">ParticleBase</text>
</a>
</g>
</g>
<!-- Node3&#45;&gt;Node2 -->
<g id="edge2" class="edge">
<title>Node3&#45;&gt;Node2</title>
<path fill="none" stroke="midnightblue" d="M59.81,-118.42C78.59,-105.57 105.32,-87.28 120.89,-76.63"/>
<polygon fill="midnightblue" stroke="midnightblue" points="57.59,-115.7 51.31,-124.23 61.54,-121.48 57.59,-115.7"/>
</g>
<!-- Node4 -->
<g id="node4" class="node">
<title>Node4</title>
<g id="a_node4"><a xlink:href="classChangeOver.html" target="_top" xlink:title="Changeover function class.">
<polygon fill="white" stroke="black" points="95,-124.5 95,-143.5 172,-143.5 172,-124.5 95,-124.5"/>
<text text-anchor="middle" x="133.5" y="-131.5" font-family="Helvetica,sans-Serif" font-size="10.00">ChangeOver</text>
</a>
</g>
</g>
<!-- Node4&#45;&gt;Node2 -->
<g id="edge3" class="edge">
<title>Node4&#45;&gt;Node2</title>
<path fill="none" stroke="#9a32cd" stroke-dasharray="5,2" d="M133.5,-114.04C133.5,-101.67 133.5,-86.12 133.5,-76.63"/>
<polygon fill="#9a32cd" stroke="#9a32cd" points="130,-114.23 133.5,-124.23 137,-114.23 130,-114.23"/>
<text text-anchor="middle" x="164" y="-98" font-family="Helvetica,sans-Serif" font-size="10.00"> changeover</text>
</g>
<!-- Node5 -->
<g id="node5" class="node">
<title>Node5</title>
<g id="a_node5"><a xlink:href="unionGroupDataDeliver.html" target="_top" xlink:title="group data delivery, used for two purpose">
<polygon fill="white" stroke="black" points="190.5,-124.5 190.5,-143.5 294.5,-143.5 294.5,-124.5 190.5,-124.5"/>
<text text-anchor="middle" x="242.5" y="-131.5" font-family="Helvetica,sans-Serif" font-size="10.00">GroupDataDeliver</text>
</a>
</g>
</g>
<!-- Node5&#45;&gt;Node2 -->
<g id="edge4" class="edge">
<title>Node5&#45;&gt;Node2</title>
<path fill="none" stroke="#9a32cd" stroke-dasharray="5,2" d="M226.61,-117.09C218.65,-109.71 208.57,-101.22 198.5,-95 183.42,-85.69 164.57,-78.27 151.06,-73.58"/>
<polygon fill="#9a32cd" stroke="#9a32cd" points="224.42,-119.84 234.06,-124.24 229.27,-114.79 224.42,-119.84"/>
<text text-anchor="middle" x="241.5" y="-98" font-family="Helvetica,sans-Serif" font-size="10.00"> group_data</text>
</g>
<!-- Node6 -->
<g id="node6" class="node">
<title>Node6</title>
<g id="a_node6"><a xlink:href="classArtificialParticleInformation.html" target="_top" xlink:title="class to store necessary information for using artificial particles">
<polygon fill="white" stroke="black" points="167.5,-191.5 167.5,-210.5 317.5,-210.5 317.5,-191.5 167.5,-191.5"/>
<text text-anchor="middle" x="242.5" y="-198.5" font-family="Helvetica,sans-Serif" font-size="10.00">ArtificialParticleInformation</text>
</a>
</g>
</g>
<!-- Node6&#45;&gt;Node5 -->
<g id="edge5" class="edge">
<title>Node6&#45;&gt;Node5</title>
<path fill="none" stroke="#9a32cd" stroke-dasharray="5,2" d="M242.5,-181.04C242.5,-168.67 242.5,-153.12 242.5,-143.63"/>
<polygon fill="#9a32cd" stroke="#9a32cd" points="239,-181.23 242.5,-191.23 246,-181.23 239,-181.23"/>
<text text-anchor="middle" x="264" y="-165" font-family="Helvetica,sans-Serif" font-size="10.00"> artificial</text>
</g>
</g>
</svg>
