<?xml version="1.0" encoding="UTF-8" standalone="no"?>
<!DOCTYPE svg PUBLIC "-//W3C//DTD SVG 1.1//EN"
 "http://www.w3.org/Graphics/SVG/1.1/DTD/svg11.dtd">
<!-- Generated by graphviz version 2.43.0 (0)
 -->
<!-- Title: OrbitalSamplingManager::setParticleSplitN Pages: 1 -->
<svg width="320pt" height="88pt"
 viewBox="0.00 0.00 320.00 88.00" xmlns="http://www.w3.org/2000/svg" xmlns:xlink="http://www.w3.org/1999/xlink">
<g id="graph0" class="graph" transform="scale(1 1) rotate(0) translate(4 84)">
<title>OrbitalSamplingManager::setParticleSplitN</title>
<polygon fill="white" stroke="transparent" points="-4,4 -4,-84 316,-84 316,4 -4,4"/>
<!-- Node1 -->
<g id="node1" class="node">
<title>Node1</title>
<g id="a_node1"><a xlink:title="set particle split number">
<polygon fill="#bfbfbf" stroke="black" points="174,-24.5 174,-54.5 312,-54.5 312,-24.5 174,-24.5"/>
<text text-anchor="start" x="182" y="-42.5" font-family="Helvetica,sans-Serif" font-size="10.00">OrbitalSamplingManager</text>
<text text-anchor="middle" x="243" y="-31.5" font-family="Helvetica,sans-Serif" font-size="10.00">::setParticleSplitN</text>
</a>
</g>
</g>
<!-- Node2 -->
<g id="node2" class="node">
<title>Node2</title>
<g id="a_node2"><a xlink:href="classOrbitalSamplingManager.html#a2c38f9941532a5dbb045ce7c29d90df5" target="_top" xlink:title="operator =">
<polygon fill="white" stroke="black" points="0,-49.5 0,-79.5 138,-79.5 138,-49.5 0,-49.5"/>
<text text-anchor="start" x="8" y="-67.5" font-family="Helvetica,sans-Serif" font-size="10.00">OrbitalSamplingManager</text>
<text text-anchor="middle" x="69" y="-56.5" font-family="Helvetica,sans-Serif" font-size="10.00">::operator=</text>
</a>
</g>
</g>
<!-- Node1&#45;&gt;Node2 -->
<g id="edge1" class="edge">
<title>Node1&#45;&gt;Node2</title>
<path fill="none" stroke="midnightblue" d="M163.36,-50.93C154.97,-52.15 146.49,-53.38 138.24,-54.58"/>
<polygon fill="midnightblue" stroke="midnightblue" points="164.13,-54.35 173.53,-49.45 163.13,-47.43 164.13,-54.35"/>
</g>
<!-- Node3 -->
<g id="node3" class="node">
<title>Node3</title>
<g id="a_node3"><a xlink:href="classOrbitalSamplingManager.html#a2f3d32e6b39c6653cc16e6276dd79237" target="_top" xlink:title="read class data to file with binary format">
<polygon fill="white" stroke="black" points="0,-0.5 0,-30.5 138,-30.5 138,-0.5 0,-0.5"/>
<text text-anchor="start" x="8" y="-18.5" font-family="Helvetica,sans-Serif" font-size="10.00">OrbitalSamplingManager</text>
<text text-anchor="middle" x="69" y="-7.5" font-family="Helvetica,sans-Serif" font-size="10.00">::readBinary</text>
</a>
</g>
</g>
<!-- Node1&#45;&gt;Node3 -->
<g id="edge2" class="edge">
<title>Node1&#45;&gt;Node3</title>
<path fill="none" stroke="midnightblue" d="M163.36,-28.53C154.97,-27.36 146.49,-26.17 138.24,-25.02"/>
<polygon fill="midnightblue" stroke="midnightblue" points="163.14,-32.03 173.53,-29.95 164.11,-25.1 163.14,-32.03"/>
</g>
</g>
</svg>
