<?xml version="1.0" encoding="UTF-8" standalone="no"?>
<!DOCTYPE svg PUBLIC "-//W3C//DTD SVG 1.1//EN"
 "http://www.w3.org/Graphics/SVG/1.1/DTD/svg11.dtd">
<!-- Generated by graphviz version 2.43.0 (0)
 -->
<!-- Title: SysCounts Pages: 1 -->
<svg width="147pt" height="205pt"
 viewBox="0.00 0.00 147.00 205.00" xmlns="http://www.w3.org/2000/svg" xmlns:xlink="http://www.w3.org/1999/xlink">
<g id="graph0" class="graph" transform="scale(1 1) rotate(0) translate(4 201)">
<title>SysCounts</title>
<polygon fill="white" stroke="transparent" points="-4,4 -4,-201 143,-201 143,4 -4,4"/>
<!-- Node1 -->
<g id="node1" class="node">
<title>Node1</title>
<g id="a_node1"><a xlink:title=" ">
<polygon fill="#bfbfbf" stroke="black" points="5,-0.5 5,-19.5 73,-19.5 73,-0.5 5,-0.5"/>
<text text-anchor="middle" x="39" y="-7.5" font-family="Helvetica,sans-Serif" font-size="10.00">SysCounts</text>
</a>
</g>
</g>
<!-- Node2 -->
<g id="node2" class="node">
<title>Node2</title>
<g id="a_node2"><a xlink:href="structNumCounter.html" target="_top" xlink:title=" ">
<polygon fill="white" stroke="black" points="0,-177.5 0,-196.5 78,-196.5 78,-177.5 0,-177.5"/>
<text text-anchor="middle" x="39" y="-184.5" font-family="Helvetica,sans-Serif" font-size="10.00">NumCounter</text>
</a>
</g>
</g>
<!-- Node2&#45;&gt;Node1 -->
<g id="edge1" class="edge">
<title>Node2&#45;&gt;Node1</title>
<path fill="none" stroke="#9a32cd" stroke-dasharray="5,2" d="M39,-166.95C39,-129.3 39,-46.65 39,-19.69"/>
<polygon fill="#9a32cd" stroke="#9a32cd" points="35.5,-167.08 39,-177.08 42.5,-167.08 35.5,-167.08"/>
<text text-anchor="middle" x="89" y="-151" font-family="Helvetica,sans-Serif" font-size="10.00"> cluster_connected</text>
<text text-anchor="middle" x="89" y="-140" font-family="Helvetica,sans-Serif" font-size="10.00">cluster_isolated</text>
<text text-anchor="middle" x="89" y="-129" font-family="Helvetica,sans-Serif" font-size="10.00">hard_single</text>
<text text-anchor="middle" x="89" y="-118" font-family="Helvetica,sans-Serif" font-size="10.00">ep_ep_interact</text>
<text text-anchor="middle" x="89" y="-107" font-family="Helvetica,sans-Serif" font-size="10.00">n_neighbor_zero</text>
<text text-anchor="middle" x="89" y="-96" font-family="Helvetica,sans-Serif" font-size="10.00">ARC_n_groups</text>
<text text-anchor="middle" x="89" y="-85" font-family="Helvetica,sans-Serif" font-size="10.00">hard_interrupt</text>
<text text-anchor="middle" x="89" y="-74" font-family="Helvetica,sans-Serif" font-size="10.00">hard_isolated</text>
<text text-anchor="middle" x="89" y="-63" font-family="Helvetica,sans-Serif" font-size="10.00">ARC_tsyn_step_sum</text>
<text text-anchor="middle" x="89" y="-52" font-family="Helvetica,sans-Serif" font-size="10.00">ARC_n_groups_iso</text>
<text text-anchor="middle" x="89" y="-41" font-family="Helvetica,sans-Serif" font-size="10.00">...</text>
</g>
</g>
</svg>
