<?xml version="1.0" encoding="UTF-8" standalone="no"?>
<!DOCTYPE svg PUBLIC "-//W3C//DTD SVG 1.1//EN"
 "http://www.w3.org/Graphics/SVG/1.1/DTD/svg11.dtd">
<!-- Generated by graphviz version 2.43.0 (0)
 -->
<!-- Title: HardIntegrator::driftClusterCMRecordGroupCMDataAndWriteBack Pages: 1 -->
<svg width="405pt" height="66pt"
 viewBox="0.00 0.00 405.00 66.00" xmlns="http://www.w3.org/2000/svg" xmlns:xlink="http://www.w3.org/1999/xlink">
<g id="graph0" class="graph" transform="scale(1 1) rotate(0) translate(4 62)">
<title>HardIntegrator::driftClusterCMRecordGroupCMDataAndWriteBack</title>
<polygon fill="white" stroke="transparent" points="-4,4 -4,-62 401,-62 401,4 -4,4"/>
<!-- Node1 -->
<g id="node1" class="node">
<title>Node1</title>
<g id="a_node1"><a xlink:title="drift c.m. particle of the cluster record group c.m. in group_data and write back data to original pa...">
<polygon fill="#bfbfbf" stroke="black" points="0,-14 0,-44 203,-44 203,-14 0,-14"/>
<text text-anchor="start" x="8" y="-32" font-family="Helvetica,sans-Serif" font-size="10.00">HardIntegrator::driftCluster</text>
<text text-anchor="middle" x="101.5" y="-21" font-family="Helvetica,sans-Serif" font-size="10.00">CMRecordGroupCMDataAndWriteBack</text>
</a>
</g>
</g>
<!-- Node2 -->
<g id="node2" class="node">
<title>Node2</title>
<g id="a_node2"><a xlink:href="classHardIntegrator.html#a856c037070100180257d0e84809806d0" target="_top" xlink:title="check parameters">
<polygon fill="white" stroke="black" points="239,-38.5 239,-57.5 397,-57.5 397,-38.5 239,-38.5"/>
<text text-anchor="middle" x="318" y="-45.5" font-family="Helvetica,sans-Serif" font-size="10.00">HardIntegrator::checkParams</text>
</a>
</g>
</g>
<!-- Node1&#45;&gt;Node2 -->
<g id="edge1" class="edge">
<title>Node1&#45;&gt;Node2</title>
<path fill="none" stroke="midnightblue" d="M203.16,-37.92C211.67,-38.67 220.24,-39.43 228.64,-40.17"/>
<polygon fill="midnightblue" stroke="midnightblue" points="228.54,-43.68 238.81,-41.07 229.15,-36.7 228.54,-43.68"/>
</g>
<!-- Node3 -->
<g id="node3" class="node">
<title>Node3</title>
<g id="a_node3"><a xlink:href="namespacePIKG.html#aede68ae33404ee6199164897b8cbc9ad" target="_top" xlink:title=" ">
<polygon fill="white" stroke="black" points="284,-0.5 284,-19.5 352,-19.5 352,-0.5 284,-0.5"/>
<text text-anchor="middle" x="318" y="-7.5" font-family="Helvetica,sans-Serif" font-size="10.00">PIKG::max</text>
</a>
</g>
</g>
<!-- Node1&#45;&gt;Node3 -->
<g id="edge2" class="edge">
<title>Node1&#45;&gt;Node3</title>
<path fill="none" stroke="midnightblue" d="M203.16,-20.08C228,-17.88 253.31,-15.64 273.74,-13.83"/>
<polygon fill="midnightblue" stroke="midnightblue" points="274.3,-17.3 283.95,-12.93 273.68,-10.32 274.3,-17.3"/>
</g>
</g>
</svg>
