<?xml version="1.0" encoding="UTF-8" standalone="no"?>
<!DOCTYPE svg PUBLIC "-//W3C//DTD SVG 1.1//EN"
 "http://www.w3.org/Graphics/SVG/1.1/DTD/svg11.dtd">
<!-- Generated by graphviz version 2.43.0 (0)
 -->
<!-- Title: Stability::findStableTree Pages: 1 -->
<svg width="749pt" height="104pt"
 viewBox="0.00 0.00 749.00 104.00" xmlns="http://www.w3.org/2000/svg" xmlns:xlink="http://www.w3.org/1999/xlink">
<g id="graph0" class="graph" transform="scale(1 1) rotate(0) translate(4 100)">
<title>Stability::findStableTree</title>
<polygon fill="white" stroke="transparent" points="-4,4 -4,-100 745,-100 745,4 -4,4"/>
<!-- Node1 -->
<g id="node1" class="node">
<title>Node1</title>
<g id="a_node1"><a xlink:title="Check binary tree and collect stable subtree.">
<polygon fill="#bfbfbf" stroke="black" points="0,-38.5 0,-57.5 131,-57.5 131,-38.5 0,-38.5"/>
<text text-anchor="middle" x="65.5" y="-45.5" font-family="Helvetica,sans-Serif" font-size="10.00">Stability::findStableTree</text>
</a>
</g>
</g>
<!-- Node2 -->
<g id="node2" class="node">
<title>Node2</title>
<g id="a_node2"><a xlink:href="classStability.html#a40355024253599fc1df4d7d1c719412a" target="_top" xlink:title="Stability check iteraction function for BinaryTree.">
<polygon fill="white" stroke="black" points="167,-38.5 167,-57.5 316,-57.5 316,-38.5 167,-38.5"/>
<text text-anchor="middle" x="241.5" y="-45.5" font-family="Helvetica,sans-Serif" font-size="10.00">Stability::stabilityCheckIter</text>
</a>
</g>
</g>
<!-- Node1&#45;&gt;Node2 -->
<g id="edge1" class="edge">
<title>Node1&#45;&gt;Node2</title>
<path fill="none" stroke="midnightblue" d="M131.29,-48C139.62,-48 148.25,-48 156.83,-48"/>
<polygon fill="midnightblue" stroke="midnightblue" points="156.87,-51.5 166.87,-48 156.87,-44.5 156.87,-51.5"/>
</g>
<!-- Node3 -->
<g id="node3" class="node">
<title>Node3</title>
<g id="a_node3"><a xlink:href="classStability.html#a19a8ec8fb26e8de9360fec51db67c8ce" target="_top" xlink:title="check two&#45;body stability">
<polygon fill="white" stroke="black" points="352,-76.5 352,-95.5 479,-95.5 479,-76.5 352,-76.5"/>
<text text-anchor="middle" x="415.5" y="-83.5" font-family="Helvetica,sans-Serif" font-size="10.00">Stability::stable2check</text>
</a>
</g>
</g>
<!-- Node2&#45;&gt;Node3 -->
<g id="edge2" class="edge">
<title>Node2&#45;&gt;Node3</title>
<path fill="none" stroke="midnightblue" d="M285.9,-57.59C308.91,-62.67 337.35,-68.96 361.63,-74.32"/>
<polygon fill="midnightblue" stroke="midnightblue" points="360.89,-77.74 371.41,-76.48 362.4,-70.91 360.89,-77.74"/>
</g>
<!-- Node4 -->
<g id="node4" class="node">
<title>Node4</title>
<g id="a_node4"><a xlink:href="classStability.html#af78b60bacc16c71e2c09f36cb4c39834" target="_top" xlink:title="Three&#45;body (B&#45;S) stability check.">
<polygon fill="white" stroke="black" points="352,-38.5 352,-57.5 479,-57.5 479,-38.5 352,-38.5"/>
<text text-anchor="middle" x="415.5" y="-45.5" font-family="Helvetica,sans-Serif" font-size="10.00">Stability::stable3check</text>
</a>
</g>
</g>
<!-- Node2&#45;&gt;Node4 -->
<g id="edge3" class="edge">
<title>Node2&#45;&gt;Node4</title>
<path fill="none" stroke="midnightblue" d="M316.44,-48C324.86,-48 333.43,-48 341.83,-48"/>
<polygon fill="midnightblue" stroke="midnightblue" points="341.96,-51.5 351.96,-48 341.96,-44.5 341.96,-51.5"/>
</g>
<!-- Node8 -->
<g id="node8" class="node">
<title>Node8</title>
<g id="a_node8"><a xlink:href="classStability.html#acb687089da1eb3788a3c320e32855381" target="_top" xlink:title="Four&#45;body (B&#45;B) stability check.">
<polygon fill="white" stroke="black" points="352,-0.5 352,-19.5 479,-19.5 479,-0.5 352,-0.5"/>
<text text-anchor="middle" x="415.5" y="-7.5" font-family="Helvetica,sans-Serif" font-size="10.00">Stability::stable4check</text>
</a>
</g>
</g>
<!-- Node2&#45;&gt;Node8 -->
<g id="edge8" class="edge">
<title>Node2&#45;&gt;Node8</title>
<path fill="none" stroke="midnightblue" d="M285.9,-38.41C308.91,-33.33 337.35,-27.04 361.63,-21.68"/>
<polygon fill="midnightblue" stroke="midnightblue" points="362.4,-25.09 371.41,-19.52 360.89,-18.26 362.4,-25.09"/>
</g>
<!-- Node5 -->
<g id="node5" class="node">
<title>Node5</title>
<g id="a_node5"><a xlink:href="namespacePIKG.html#aab82f0106f14677daa09a64a269eaadf" target="_top" xlink:title=" ">
<polygon fill="white" stroke="black" points="674.5,-0.5 674.5,-19.5 739.5,-19.5 739.5,-0.5 674.5,-0.5"/>
<text text-anchor="middle" x="707" y="-7.5" font-family="Helvetica,sans-Serif" font-size="10.00">PIKG::min</text>
</a>
</g>
</g>
<!-- Node4&#45;&gt;Node5 -->
<g id="edge4" class="edge">
<title>Node4&#45;&gt;Node5</title>
<path fill="none" stroke="midnightblue" d="M479.32,-56.22C524.02,-60.1 585.09,-61.35 637,-48 639.43,-47.37 661.81,-34.95 680.43,-24.47"/>
<polygon fill="midnightblue" stroke="midnightblue" points="682.17,-27.51 689.17,-19.55 678.74,-21.41 682.17,-27.51"/>
</g>
<!-- Node6 -->
<g id="node6" class="node">
<title>Node6</title>
<g id="a_node6"><a xlink:href="classStability.html#aa40ca7cd2b05a549f8e539aab549a8ad" target="_top" xlink:title="Three&#45;body stability function.">
<polygon fill="white" stroke="black" points="515,-19.5 515,-38.5 637,-38.5 637,-19.5 515,-19.5"/>
<text text-anchor="middle" x="576" y="-26.5" font-family="Helvetica,sans-Serif" font-size="10.00">Stability::stable3body</text>
</a>
</g>
</g>
<!-- Node4&#45;&gt;Node6 -->
<g id="edge5" class="edge">
<title>Node4&#45;&gt;Node6</title>
<path fill="none" stroke="midnightblue" d="M479.14,-40.49C487.6,-39.48 496.32,-38.43 504.9,-37.4"/>
<polygon fill="midnightblue" stroke="midnightblue" points="505.37,-40.87 514.88,-36.21 504.53,-33.92 505.37,-40.87"/>
</g>
<!-- Node6&#45;&gt;Node5 -->
<g id="edge7" class="edge">
<title>Node6&#45;&gt;Node5</title>
<path fill="none" stroke="midnightblue" d="M637.35,-20.11C646.39,-18.78 655.54,-17.43 664.09,-16.17"/>
<polygon fill="midnightblue" stroke="midnightblue" points="664.78,-19.61 674.17,-14.69 663.76,-12.68 664.78,-19.61"/>
</g>
<!-- Node7 -->
<g id="node7" class="node">
<title>Node7</title>
<g id="a_node7"><a xlink:href="namespacePIKG.html#aede68ae33404ee6199164897b8cbc9ad" target="_top" xlink:title=" ">
<polygon fill="white" stroke="black" points="673,-38.5 673,-57.5 741,-57.5 741,-38.5 673,-38.5"/>
<text text-anchor="middle" x="707" y="-45.5" font-family="Helvetica,sans-Serif" font-size="10.00">PIKG::max</text>
</a>
</g>
</g>
<!-- Node6&#45;&gt;Node7 -->
<g id="edge6" class="edge">
<title>Node6&#45;&gt;Node7</title>
<path fill="none" stroke="midnightblue" d="M637.35,-37.89C645.92,-39.15 654.6,-40.43 662.76,-41.63"/>
<polygon fill="midnightblue" stroke="midnightblue" points="662.37,-45.11 672.78,-43.11 663.39,-38.19 662.37,-45.11"/>
</g>
<!-- Node8&#45;&gt;Node5 -->
<g id="edge9" class="edge">
<title>Node8&#45;&gt;Node5</title>
<path fill="none" stroke="midnightblue" d="M479.32,-10C535.25,-10 615.51,-10 664,-10"/>
<polygon fill="midnightblue" stroke="midnightblue" points="664.14,-13.5 674.14,-10 664.14,-6.5 664.14,-13.5"/>
</g>
<!-- Node8&#45;&gt;Node6 -->
<g id="edge10" class="edge">
<title>Node8&#45;&gt;Node6</title>
<path fill="none" stroke="midnightblue" d="M479.14,-17.51C487.6,-18.52 496.32,-19.57 504.9,-20.6"/>
<polygon fill="midnightblue" stroke="midnightblue" points="504.53,-24.08 514.88,-21.79 505.37,-17.13 504.53,-24.08"/>
</g>
</g>
</svg>
