<?xml version="1.0" encoding="UTF-8" standalone="no"?>
<!DOCTYPE svg PUBLIC "-//W3C//DTD SVG 1.1//EN"
 "http://www.w3.org/Graphics/SVG/1.1/DTD/svg11.dtd">
<!-- Generated by graphviz version 2.43.0 (0)
 -->
<!-- Title: ChangeOver::setR Pages: 1 -->
<svg width="613pt" height="154pt"
 viewBox="0.00 0.00 613.00 153.50" xmlns="http://www.w3.org/2000/svg" xmlns:xlink="http://www.w3.org/1999/xlink">
<g id="graph0" class="graph" transform="scale(1 1) rotate(0) translate(4 149.5)">
<title>ChangeOver::setR</title>
<polygon fill="white" stroke="transparent" points="-4,4 -4,-149.5 609,-149.5 609,4 -4,4"/>
<!-- Node1 -->
<g id="node1" class="node">
<title>Node1</title>
<g id="a_node1"><a xlink:title="set r_in and r_out for changeover function">
<polygon fill="#bfbfbf" stroke="black" points="501,-57.5 501,-76.5 605,-76.5 605,-57.5 501,-57.5"/>
<text text-anchor="middle" x="553" y="-64.5" font-family="Helvetica,sans-Serif" font-size="10.00">ChangeOver::setR</text>
</a>
</g>
</g>
<!-- Node2 -->
<g id="node2" class="node">
<title>Node2</title>
<g id="a_node2"><a xlink:href="simd__test_8cxx.html#a3c04138a5bfe5d72780bb7e82a18e627" target="_top" xlink:title=" ">
<polygon fill="white" stroke="black" points="358.5,-114.5 358.5,-133.5 399.5,-133.5 399.5,-114.5 358.5,-114.5"/>
<text text-anchor="middle" x="379" y="-121.5" font-family="Helvetica,sans-Serif" font-size="10.00">main</text>
</a>
</g>
</g>
<!-- Node1&#45;&gt;Node2 -->
<g id="edge1" class="edge">
<title>Node1&#45;&gt;Node2</title>
<path fill="none" stroke="midnightblue" d="M523.83,-80.95C507.05,-88.84 485.17,-98.41 465,-105 443.01,-112.19 416.94,-117.57 399.53,-120.74"/>
<polygon fill="midnightblue" stroke="midnightblue" points="525.55,-84.01 533.06,-76.54 522.53,-77.69 525.55,-84.01"/>
</g>
<!-- Node3 -->
<g id="node3" class="node">
<title>Node3</title>
<g id="a_node3"><a xlink:href="classChangeOver.html#a4ab816f7e59edaf68f7223b8ca5bcd7b" target="_top" xlink:title="read class data to file with binary format">
<polygon fill="white" stroke="black" points="315,-76.5 315,-95.5 443,-95.5 443,-76.5 315,-76.5"/>
<text text-anchor="middle" x="379" y="-83.5" font-family="Helvetica,sans-Serif" font-size="10.00">ChangeOver::readAscii</text>
</a>
</g>
</g>
<!-- Node1&#45;&gt;Node3 -->
<g id="edge2" class="edge">
<title>Node1&#45;&gt;Node3</title>
<path fill="none" stroke="midnightblue" d="M490.87,-73.75C475.38,-75.46 458.72,-77.3 443.13,-79.03"/>
<polygon fill="midnightblue" stroke="midnightblue" points="491.3,-77.23 500.86,-72.65 490.54,-70.27 491.3,-77.23"/>
</g>
<!-- Node7 -->
<g id="node7" class="node">
<title>Node7</title>
<g id="a_node7"><a xlink:href="classChangeOver.html#a56998e927c0f7516b225c3690833a23f" target="_top" xlink:title="read class data to file with binary format">
<polygon fill="white" stroke="black" points="311,-38.5 311,-57.5 447,-57.5 447,-38.5 311,-38.5"/>
<text text-anchor="middle" x="379" y="-45.5" font-family="Helvetica,sans-Serif" font-size="10.00">ChangeOver::readBinary</text>
</a>
</g>
</g>
<!-- Node1&#45;&gt;Node7 -->
<g id="edge6" class="edge">
<title>Node1&#45;&gt;Node7</title>
<path fill="none" stroke="midnightblue" d="M490.78,-60.24C476.66,-58.68 461.56,-57.01 447.2,-55.42"/>
<polygon fill="midnightblue" stroke="midnightblue" points="490.54,-63.73 500.86,-61.35 491.3,-56.77 490.54,-63.73"/>
</g>
<!-- Node10 -->
<g id="node10" class="node">
<title>Node10</title>
<g id="a_node10"><a xlink:href="classChangeOver.html#ae376094ee332a91ba0e2c0956b772fd3" target="_top" xlink:title="update radius based on r_scale_next, reset r_scale_next to 1">
<polygon fill="white" stroke="black" points="293,-0.5 293,-19.5 465,-19.5 465,-0.5 293,-0.5"/>
<text text-anchor="middle" x="379" y="-7.5" font-family="Helvetica,sans-Serif" font-size="10.00">ChangeOver::updateWithRScale</text>
</a>
</g>
</g>
<!-- Node1&#45;&gt;Node10 -->
<g id="edge9" class="edge">
<title>Node1&#45;&gt;Node10</title>
<path fill="none" stroke="midnightblue" d="M523.83,-53.05C507.05,-45.16 485.17,-35.59 465,-29 453.93,-25.38 441.83,-22.22 430.32,-19.57"/>
<polygon fill="midnightblue" stroke="midnightblue" points="522.53,-56.31 533.06,-57.46 525.55,-49.99 522.53,-56.31"/>
</g>
<!-- Node4 -->
<g id="node4" class="node">
<title>Node4</title>
<g id="a_node4"><a xlink:href="classFPSoftWriteArtificial.html#ad58f4f4a5f291e6535e0501db231b6da" target="_top" xlink:title=" ">
<polygon fill="white" stroke="black" points="143,-115 143,-145 257,-145 257,-115 143,-115"/>
<text text-anchor="start" x="151" y="-133" font-family="Helvetica,sans-Serif" font-size="10.00">FPSoftWriteArtificial</text>
<text text-anchor="middle" x="200" y="-122" font-family="Helvetica,sans-Serif" font-size="10.00">::readAscii</text>
</a>
</g>
</g>
<!-- Node3&#45;&gt;Node4 -->
<g id="edge3" class="edge">
<title>Node3&#45;&gt;Node4</title>
<path fill="none" stroke="midnightblue" d="M323.39,-97.82C313.26,-100.12 302.8,-102.58 293,-105 280.63,-108.06 267.38,-111.54 254.89,-114.92"/>
<polygon fill="midnightblue" stroke="midnightblue" points="324.37,-101.19 333.36,-95.58 322.83,-94.36 324.37,-101.19"/>
</g>
<!-- Node5 -->
<g id="node5" class="node">
<title>Node5</title>
<g id="a_node5"><a xlink:href="classPtcl.html#a8194ae1343c9b9dacad1e2253a69ea7d" target="_top" xlink:title="read class data with ASCII format">
<polygon fill="white" stroke="black" points="157,-76.5 157,-95.5 243,-95.5 243,-76.5 157,-76.5"/>
<text text-anchor="middle" x="200" y="-83.5" font-family="Helvetica,sans-Serif" font-size="10.00">Ptcl::readAscii</text>
</a>
</g>
</g>
<!-- Node3&#45;&gt;Node5 -->
<g id="edge4" class="edge">
<title>Node3&#45;&gt;Node5</title>
<path fill="none" stroke="midnightblue" d="M304.46,-86C283.59,-86 261.56,-86 243.23,-86"/>
<polygon fill="midnightblue" stroke="midnightblue" points="304.6,-89.5 314.6,-86 304.6,-82.5 304.6,-89.5"/>
</g>
<!-- Node6 -->
<g id="node6" class="node">
<title>Node6</title>
<g id="a_node6"><a xlink:href="classFPSoft.html#a44ddce69cfafffbcd8327837cb0914d2" target="_top" xlink:title=" ">
<polygon fill="white" stroke="black" points="4.5,-76.5 4.5,-95.5 102.5,-95.5 102.5,-76.5 4.5,-76.5"/>
<text text-anchor="middle" x="53.5" y="-83.5" font-family="Helvetica,sans-Serif" font-size="10.00">FPSoft::readAscii</text>
</a>
</g>
</g>
<!-- Node5&#45;&gt;Node6 -->
<g id="edge5" class="edge">
<title>Node5&#45;&gt;Node6</title>
<path fill="none" stroke="midnightblue" d="M146.59,-86C132.21,-86 116.7,-86 102.58,-86"/>
<polygon fill="midnightblue" stroke="midnightblue" points="146.82,-89.5 156.82,-86 146.82,-82.5 146.82,-89.5"/>
</g>
<!-- Node8 -->
<g id="node8" class="node">
<title>Node8</title>
<g id="a_node8"><a xlink:href="classPtcl.html#a2fc333332020231cb337a68f79fdbcdc" target="_top" xlink:title="read class data with BINARY format">
<polygon fill="white" stroke="black" points="153,-38.5 153,-57.5 247,-57.5 247,-38.5 153,-38.5"/>
<text text-anchor="middle" x="200" y="-45.5" font-family="Helvetica,sans-Serif" font-size="10.00">Ptcl::readBinary</text>
</a>
</g>
</g>
<!-- Node7&#45;&gt;Node8 -->
<g id="edge7" class="edge">
<title>Node7&#45;&gt;Node8</title>
<path fill="none" stroke="midnightblue" d="M300.78,-48C282.52,-48 263.61,-48 247.23,-48"/>
<polygon fill="midnightblue" stroke="midnightblue" points="300.83,-51.5 310.83,-48 300.83,-44.5 300.83,-51.5"/>
</g>
<!-- Node9 -->
<g id="node9" class="node">
<title>Node9</title>
<g id="a_node9"><a xlink:href="classFPSoft.html#aaf462c3c8ba17980eb8381a568b92342" target="_top" xlink:title=" ">
<polygon fill="white" stroke="black" points="0,-38.5 0,-57.5 107,-57.5 107,-38.5 0,-38.5"/>
<text text-anchor="middle" x="53.5" y="-45.5" font-family="Helvetica,sans-Serif" font-size="10.00">FPSoft::readBinary</text>
</a>
</g>
</g>
<!-- Node8&#45;&gt;Node9 -->
<g id="edge8" class="edge">
<title>Node8&#45;&gt;Node9</title>
<path fill="none" stroke="midnightblue" d="M142.78,-48C131.08,-48 118.79,-48 107.22,-48"/>
<polygon fill="midnightblue" stroke="midnightblue" points="142.88,-51.5 152.88,-48 142.88,-44.5 142.88,-51.5"/>
</g>
</g>
</svg>
