<?xml version="1.0" encoding="UTF-8" standalone="no"?>
<!DOCTYPE svg PUBLIC "-//W3C//DTD SVG 1.1//EN"
 "http://www.w3.org/Graphics/SVG/1.1/DTD/svg11.dtd">
<!-- Generated by graphviz version 2.43.0 (0)
 -->
<!-- Title: Ptcl Pages: 1 -->
<svg width="326pt" height="162pt"
 viewBox="0.00 0.00 325.50 162.00" xmlns="http://www.w3.org/2000/svg" xmlns:xlink="http://www.w3.org/1999/xlink">
<g id="graph0" class="graph" transform="scale(1 1) rotate(0) translate(4 158)">
<title>Ptcl</title>
<polygon fill="white" stroke="transparent" points="-4,4 -4,-158 321.5,-158 321.5,4 -4,4"/>
<!-- Node1 -->
<g id="node1" class="node">
<title>Node1</title>
<g id="a_node1"><a xlink:title="Particle class.">
<polygon fill="#bfbfbf" stroke="black" points="116,-0.5 116,-19.5 151,-19.5 151,-0.5 116,-0.5"/>
<text text-anchor="middle" x="133.5" y="-7.5" font-family="Helvetica,sans-Serif" font-size="10.00">Ptcl</text>
</a>
</g>
</g>
<!-- Node2 -->
<g id="node2" class="node">
<title>Node2</title>
<g id="a_node2"><a xlink:href="classParticleBase.html" target="_top" xlink:title="Basic particle class.">
<polygon fill="white" stroke="black" points="0,-67.5 0,-86.5 77,-86.5 77,-67.5 0,-67.5"/>
<text text-anchor="middle" x="38.5" y="-74.5" font-family="Helvetica,sans-Serif" font-size="10.00">ParticleBase</text>
</a>
</g>
</g>
<!-- Node2&#45;&gt;Node1 -->
<g id="edge1" class="edge">
<title>Node2&#45;&gt;Node1</title>
<path fill="none" stroke="midnightblue" d="M59.81,-61.42C78.59,-48.57 105.32,-30.28 120.89,-19.63"/>
<polygon fill="midnightblue" stroke="midnightblue" points="57.59,-58.7 51.31,-67.23 61.54,-64.48 57.59,-58.7"/>
</g>
<!-- Node3 -->
<g id="node3" class="node">
<title>Node3</title>
<g id="a_node3"><a xlink:href="classChangeOver.html" target="_top" xlink:title="Changeover function class.">
<polygon fill="white" stroke="black" points="95,-67.5 95,-86.5 172,-86.5 172,-67.5 95,-67.5"/>
<text text-anchor="middle" x="133.5" y="-74.5" font-family="Helvetica,sans-Serif" font-size="10.00">ChangeOver</text>
</a>
</g>
</g>
<!-- Node3&#45;&gt;Node1 -->
<g id="edge2" class="edge">
<title>Node3&#45;&gt;Node1</title>
<path fill="none" stroke="#9a32cd" stroke-dasharray="5,2" d="M133.5,-57.04C133.5,-44.67 133.5,-29.12 133.5,-19.63"/>
<polygon fill="#9a32cd" stroke="#9a32cd" points="130,-57.23 133.5,-67.23 137,-57.23 130,-57.23"/>
<text text-anchor="middle" x="164" y="-41" font-family="Helvetica,sans-Serif" font-size="10.00"> changeover</text>
</g>
<!-- Node4 -->
<g id="node4" class="node">
<title>Node4</title>
<g id="a_node4"><a xlink:href="unionGroupDataDeliver.html" target="_top" xlink:title="group data delivery, used for two purpose">
<polygon fill="white" stroke="black" points="190.5,-67.5 190.5,-86.5 294.5,-86.5 294.5,-67.5 190.5,-67.5"/>
<text text-anchor="middle" x="242.5" y="-74.5" font-family="Helvetica,sans-Serif" font-size="10.00">GroupDataDeliver</text>
</a>
</g>
</g>
<!-- Node4&#45;&gt;Node1 -->
<g id="edge3" class="edge">
<title>Node4&#45;&gt;Node1</title>
<path fill="none" stroke="#9a32cd" stroke-dasharray="5,2" d="M226.61,-60.09C218.65,-52.71 208.57,-44.22 198.5,-38 183.42,-28.69 164.57,-21.27 151.06,-16.58"/>
<polygon fill="#9a32cd" stroke="#9a32cd" points="224.42,-62.84 234.06,-67.24 229.27,-57.79 224.42,-62.84"/>
<text text-anchor="middle" x="241.5" y="-41" font-family="Helvetica,sans-Serif" font-size="10.00"> group_data</text>
</g>
<!-- Node5 -->
<g id="node5" class="node">
<title>Node5</title>
<g id="a_node5"><a xlink:href="classArtificialParticleInformation.html" target="_top" xlink:title="class to store necessary information for using artificial particles">
<polygon fill="white" stroke="black" points="167.5,-134.5 167.5,-153.5 317.5,-153.5 317.5,-134.5 167.5,-134.5"/>
<text text-anchor="middle" x="242.5" y="-141.5" font-family="Helvetica,sans-Serif" font-size="10.00">ArtificialParticleInformation</text>
</a>
</g>
</g>
<!-- Node5&#45;&gt;Node4 -->
<g id="edge4" class="edge">
<title>Node5&#45;&gt;Node4</title>
<path fill="none" stroke="#9a32cd" stroke-dasharray="5,2" d="M242.5,-124.04C242.5,-111.67 242.5,-96.12 242.5,-86.63"/>
<polygon fill="#9a32cd" stroke="#9a32cd" points="239,-124.23 242.5,-134.23 246,-124.23 239,-124.23"/>
<text text-anchor="middle" x="264" y="-108" font-family="Helvetica,sans-Serif" font-size="10.00"> artificial</text>
</g>
</g>
</svg>
