<?xml version="1.0" encoding="UTF-8" standalone="no"?>
<!DOCTYPE svg PUBLIC "-//W3C//DTD SVG 1.1//EN"
 "http://www.w3.org/Graphics/SVG/1.1/DTD/svg11.dtd">
<!-- Generated by graphviz version 2.43.0 (0)
 -->
<!-- Title: GalpyManager::freePotentialArgs Pages: 1 -->
<svg width="341pt" height="28pt"
 viewBox="0.00 0.00 341.00 28.00" xmlns="http://www.w3.org/2000/svg" xmlns:xlink="http://www.w3.org/1999/xlink">
<g id="graph0" class="graph" transform="scale(1 1) rotate(0) translate(4 24)">
<title>GalpyManager::freePotentialArgs</title>
<polygon fill="white" stroke="transparent" points="-4,4 -4,-24 337,-24 337,4 -4,4"/>
<!-- Node1 -->
<g id="node1" class="node">
<title>Node1</title>
<g id="a_node1"><a xlink:title=" ">
<polygon fill="#bfbfbf" stroke="black" points="0,-0.5 0,-19.5 179,-19.5 179,-0.5 0,-0.5"/>
<text text-anchor="middle" x="89.5" y="-7.5" font-family="Helvetica,sans-Serif" font-size="10.00">GalpyManager::freePotentialArgs</text>
</a>
</g>
</g>
<!-- Node2 -->
<g id="node2" class="node">
<title>Node2</title>
<g id="a_node2"><a xlink:href="classGalpyManager.html#a1b462774660dccb211b5845458c07eca" target="_top" xlink:title=" ">
<polygon fill="white" stroke="black" points="215,-0.5 215,-19.5 333,-19.5 333,-0.5 215,-0.5"/>
<text text-anchor="middle" x="274" y="-7.5" font-family="Helvetica,sans-Serif" font-size="10.00">GalpyManager::clear</text>
</a>
</g>
</g>
<!-- Node1&#45;&gt;Node2 -->
<g id="edge1" class="edge">
<title>Node1&#45;&gt;Node2</title>
<path fill="none" stroke="midnightblue" d="M179.08,-3.25C187.73,-3.24 196.41,-3.3 204.82,-3.45"/>
<polygon fill="midnightblue" stroke="midnightblue" points="204.84,-6.95 214.91,-3.66 204.99,0.05 204.84,-6.95"/>
</g>
<!-- Node2&#45;&gt;Node1 -->
<g id="edge2" class="edge">
<title>Node2&#45;&gt;Node1</title>
<path fill="none" stroke="midnightblue" d="M214.91,-16.34C206.69,-16.55 198.06,-16.68 189.34,-16.73"/>
<polygon fill="midnightblue" stroke="midnightblue" points="189.07,-13.23 179.08,-16.75 189.08,-20.23 189.07,-13.23"/>
</g>
</g>
</svg>
