<?xml version="1.0" encoding="UTF-8" standalone="no"?>
<!DOCTYPE svg PUBLIC "-//W3C//DTD SVG 1.1//EN"
 "http://www.w3.org/Graphics/SVG/1.1/DTD/svg11.dtd">
<!-- Generated by graphviz version 2.43.0 (0)
 -->
<!-- Title: Ptcl::readAscii Pages: 1 -->
<svg width="524pt" height="116pt"
 viewBox="0.00 0.00 524.00 115.50" xmlns="http://www.w3.org/2000/svg" xmlns:xlink="http://www.w3.org/1999/xlink">
<g id="graph0" class="graph" transform="scale(1 1) rotate(0) translate(4 111.5)">
<title>Ptcl::readAscii</title>
<polygon fill="white" stroke="transparent" points="-4,4 -4,-111.5 520,-111.5 520,4 -4,4"/>
<!-- Node1 -->
<g id="node1" class="node">
<title>Node1</title>
<g id="a_node1"><a xlink:title="read class data with ASCII format">
<polygon fill="#bfbfbf" stroke="black" points="0,-50 0,-69 86,-69 86,-50 0,-50"/>
<text text-anchor="middle" x="43" y="-57" font-family="Helvetica,sans-Serif" font-size="10.00">Ptcl::readAscii</text>
</a>
</g>
</g>
<!-- Node2 -->
<g id="node2" class="node">
<title>Node2</title>
<g id="a_node2"><a xlink:href="classParticleBase.html#a37300f78eeb60423fb3e750685331e8d" target="_top" xlink:title="read class data with ASCII format">
<polygon fill="white" stroke="black" points="133,-88 133,-107 261,-107 261,-88 133,-88"/>
<text text-anchor="middle" x="197" y="-95" font-family="Helvetica,sans-Serif" font-size="10.00">ParticleBase::readAscii</text>
</a>
</g>
</g>
<!-- Node1&#45;&gt;Node2 -->
<g id="edge1" class="edge">
<title>Node1&#45;&gt;Node2</title>
<path fill="none" stroke="midnightblue" d="M82.36,-69.09C102.32,-74.08 126.93,-80.23 148.13,-85.53"/>
<polygon fill="midnightblue" stroke="midnightblue" points="147.37,-88.95 157.92,-87.98 149.07,-82.16 147.37,-88.95"/>
</g>
<!-- Node3 -->
<g id="node3" class="node">
<title>Node3</title>
<g id="a_node3"><a xlink:href="classChangeOver.html#a4ab816f7e59edaf68f7223b8ca5bcd7b" target="_top" xlink:title="read class data to file with binary format">
<polygon fill="white" stroke="black" points="133,-50 133,-69 261,-69 261,-50 133,-50"/>
<text text-anchor="middle" x="197" y="-57" font-family="Helvetica,sans-Serif" font-size="10.00">ChangeOver::readAscii</text>
</a>
</g>
</g>
<!-- Node1&#45;&gt;Node3 -->
<g id="edge2" class="edge">
<title>Node1&#45;&gt;Node3</title>
<path fill="none" stroke="midnightblue" d="M86.34,-59.5C97.6,-59.5 110.08,-59.5 122.49,-59.5"/>
<polygon fill="midnightblue" stroke="midnightblue" points="122.85,-63 132.85,-59.5 122.85,-56 122.85,-63"/>
</g>
<!-- Node6 -->
<g id="node6" class="node">
<title>Node6</title>
<g id="a_node6"><a xlink:href="classArtificialParticleInformation.html#ab55e8cb9e7c06e8724bf280455f9207f" target="_top" xlink:title="read class data with ASCII format">
<polygon fill="white" stroke="black" points="122,-0.5 122,-30.5 272,-30.5 272,-0.5 122,-0.5"/>
<text text-anchor="start" x="130" y="-18.5" font-family="Helvetica,sans-Serif" font-size="10.00">ArtificialParticleInformation</text>
<text text-anchor="middle" x="197" y="-7.5" font-family="Helvetica,sans-Serif" font-size="10.00">::readAscii</text>
</a>
</g>
</g>
<!-- Node1&#45;&gt;Node6 -->
<g id="edge5" class="edge">
<title>Node1&#45;&gt;Node6</title>
<path fill="none" stroke="midnightblue" d="M76.98,-49.95C93.71,-45.11 114.59,-39.07 134.17,-33.4"/>
<polygon fill="midnightblue" stroke="midnightblue" points="135.32,-36.71 143.96,-30.57 133.38,-29.98 135.32,-36.71"/>
</g>
<!-- Node4 -->
<g id="node4" class="node">
<title>Node4</title>
<g id="a_node4"><a xlink:href="classChangeOver.html#ab8bbff987a930131dcbe86ce435f6087" target="_top" xlink:title="set r_in and r_out for changeover function">
<polygon fill="white" stroke="black" points="308,-50 308,-69 412,-69 412,-50 308,-50"/>
<text text-anchor="middle" x="360" y="-57" font-family="Helvetica,sans-Serif" font-size="10.00">ChangeOver::setR</text>
</a>
</g>
</g>
<!-- Node3&#45;&gt;Node4 -->
<g id="edge3" class="edge">
<title>Node3&#45;&gt;Node4</title>
<path fill="none" stroke="midnightblue" d="M261.17,-59.5C273.16,-59.5 285.69,-59.5 297.63,-59.5"/>
<polygon fill="midnightblue" stroke="midnightblue" points="297.93,-63 307.93,-59.5 297.93,-56 297.93,-63"/>
</g>
<!-- Node5 -->
<g id="node5" class="node">
<title>Node5</title>
<g id="a_node5"><a xlink:href="namespacePIKG.html#aede68ae33404ee6199164897b8cbc9ad" target="_top" xlink:title=" ">
<polygon fill="white" stroke="black" points="448,-50 448,-69 516,-69 516,-50 448,-50"/>
<text text-anchor="middle" x="482" y="-57" font-family="Helvetica,sans-Serif" font-size="10.00">PIKG::max</text>
</a>
</g>
</g>
<!-- Node4&#45;&gt;Node5 -->
<g id="edge4" class="edge">
<title>Node4&#45;&gt;Node5</title>
<path fill="none" stroke="midnightblue" d="M412.24,-59.5C420.75,-59.5 429.5,-59.5 437.79,-59.5"/>
<polygon fill="midnightblue" stroke="midnightblue" points="437.98,-63 447.98,-59.5 437.98,-56 437.98,-63"/>
</g>
</g>
</svg>
