<?xml version="1.0" encoding="UTF-8" standalone="no"?>
<!DOCTYPE svg PUBLIC "-//W3C//DTD SVG 1.1//EN"
 "http://www.w3.org/Graphics/SVG/1.1/DTD/svg11.dtd">
<!-- Generated by graphviz version 2.43.0 (0)
 -->
<!-- Title: GalpyManager::updatePotential Pages: 1 -->
<!--zoomable 215 -->
<svg id="main" version="1.1" xmlns="http://www.w3.org/2000/svg" xmlns:xlink="http://www.w3.org/1999/xlink" xml:space="preserve" onload="init(evt)">
<style type="text/css"><![CDATA[
.edge:hover path { stroke: red; }
.edge:hover polygon { stroke: red; fill: red; }
]]></style>
<script type="text/javascript"><![CDATA[
var edges = document.getElementsByTagName('g');
if (edges && edges.length) {
  for (var i=0;i<edges.length;i++) {
    if (edges[i].id.substr(0,4)=='edge') {
      edges[i].setAttribute('class','edge');
    }
  }
}
]]></script>
        <defs>
                <circle id="rim" cx="0" cy="0" r="7"/>
                <circle id="rim2" cx="0" cy="0" r="3.5"/>
                <g id="zoomPlus">
                        <use xlink:href="#rim" fill="#404040">
                                <set attributeName="fill" to="#808080" begin="zoomplus.mouseover" end="zoomplus.mouseout"/>
                        </use>
                        <path d="M-4,0h8M0,-4v8" fill="none" stroke="white" stroke-width="1.5" pointer-events="none"/>
                </g>
                <g id="zoomMin">
                        <use xlink:href="#rim" fill="#404040">
                                <set attributeName="fill" to="#808080" begin="zoomminus.mouseover" end="zoomminus.mouseout"/>
                        </use>
                        <path d="M-4,0h8" fill="none" stroke="white" stroke-width="1.5" pointer-events="none"/>
                </g>
                <g id="dirArrow">
                        <path fill="none" stroke="white" stroke-width="1.5" d="M0,-3.0v7 M-2.5,-0.5L0,-3.0L2.5,-0.5"/>
                </g>
               <g id="resetDef">
                       <use xlink:href="#rim2" fill="#404040">
                               <set attributeName="fill" to="#808080" begin="reset.mouseover" end="reset.mouseout"/>
                       </use>
               </g>
        </defs>

<script type="text/javascript">
var viewWidth = 1504;
var viewHeight = 215;
var sectionId = 'dynsection-15';
</script>
<script xlink:href="svgpan.js"/>
<svg id="graph" class="graph">
<g id="viewport">
<title>GalpyManager::updatePotential</title>
<polygon fill="white" stroke="transparent" points="-4,4 -4,-210.5 1500,-210.5 1500,4 -4,4"/>
<!-- Node1 -->
<g id="node1" class="node">
<title>Node1</title>
<g id="a_node1"><a xlink:title="Update Potential types and arguments based on time.">
<polygon fill="#bfbfbf" stroke="black" points="0,-93.5 0,-112.5 171,-112.5 171,-93.5 0,-93.5"/>
<text text-anchor="middle" x="85.5" y="-100.5" font-family="Helvetica,sans-Serif" font-size="10.00">GalpyManager::updatePotential</text>
</a>
</g>
</g>
<!-- Node2 -->
<g id="node2" class="node">
<title>Node2</title>
<g id="a_node2"><a xlink:href="classGalpyManager.html#a1b5f2eebb24a0690e4b168c79bada7b8" target="_top" xlink:title="calculate new arguments for changing potentials">
<polygon fill="white" stroke="black" points="215.5,-176 215.5,-206 388.5,-206 388.5,-176 215.5,-176"/>
<text text-anchor="start" x="223.5" y="-194" font-family="Helvetica,sans-Serif" font-size="10.00">GalpyManager::evolveChanging</text>
<text text-anchor="middle" x="302" y="-183" font-family="Helvetica,sans-Serif" font-size="10.00">Arguments</text>
</a>
</g>
</g>
<!-- Node1&#45;&gt;Node2 -->
<g id="edge1" class="edge">
<title>Node1&#45;&gt;Node2</title>
<path fill="none" stroke="midnightblue" d="M101.96,-112.51C124.39,-125.99 167.62,-150.69 207,-166 213.34,-168.47 220.02,-170.78 226.77,-172.92"/>
<polygon fill="midnightblue" stroke="midnightblue" points="226.09,-176.37 236.68,-175.93 228.13,-169.67 226.09,-176.37"/>
</g>
<!-- Node3 -->
<g id="node3" class="node">
<title>Node3</title>
<g id="a_node3"><a xlink:href="classGalpyManager.html#a8aebb589a95e4f322c638ee740fbb9f3" target="_top" xlink:title="print current potential data">
<polygon fill="white" stroke="black" points="232,-137.5 232,-156.5 372,-156.5 372,-137.5 232,-137.5"/>
<text text-anchor="middle" x="302" y="-144.5" font-family="Helvetica,sans-Serif" font-size="10.00">GalpyManager::printData</text>
</a>
</g>
</g>
<!-- Node1&#45;&gt;Node3 -->
<g id="edge2" class="edge">
<title>Node1&#45;&gt;Node3</title>
<path fill="none" stroke="midnightblue" d="M133.04,-112.55C165.79,-119.26 209.79,-128.29 244.55,-135.42"/>
<polygon fill="midnightblue" stroke="midnightblue" points="244.05,-138.89 254.55,-137.47 245.45,-132.03 244.05,-138.89"/>
</g>
<!-- Node4 -->
<g id="node4" class="node">
<title>Node4</title>
<g id="a_node4"><a xlink:href="classGalpyManager.html#a3cf2c36189aa2bd879faf8748e1ef871" target="_top" xlink:title="Update MWpotential evolve (Gomez et al. 2010)">
<polygon fill="white" stroke="black" points="207,-88 207,-118 397,-118 397,-88 207,-88"/>
<text text-anchor="start" x="215" y="-106" font-family="Helvetica,sans-Serif" font-size="10.00">GalpyManager::updateMWPotential</text>
<text text-anchor="middle" x="302" y="-95" font-family="Helvetica,sans-Serif" font-size="10.00">Evolve</text>
</a>
</g>
</g>
<!-- Node1&#45;&gt;Node4 -->
<g id="edge3" class="edge">
<title>Node1&#45;&gt;Node4</title>
<path fill="none" stroke="midnightblue" d="M171.28,-103C179.69,-103 188.3,-103 196.89,-103"/>
<polygon fill="midnightblue" stroke="midnightblue" points="196.94,-106.5 206.94,-103 196.94,-99.5 196.94,-106.5"/>
</g>
<!-- Node15 -->
<g id="node15" class="node">
<title>Node15</title>
<g id="a_node15"><a xlink:href="classGalpyManager.html#a912e9c5fc587218525f51a8b71e55735" target="_top" xlink:title="Update types and arguments from configure file if update_time &lt;= particle system time.">
<polygon fill="white" stroke="black" points="216.5,-39 216.5,-69 387.5,-69 387.5,-39 216.5,-39"/>
<text text-anchor="start" x="224.5" y="-57" font-family="Helvetica,sans-Serif" font-size="10.00">GalpyManager::updatePotential</text>
<text text-anchor="middle" x="302" y="-46" font-family="Helvetica,sans-Serif" font-size="10.00">FromFile</text>
</a>
</g>
</g>
<!-- Node1&#45;&gt;Node15 -->
<g id="edge17" class="edge">
<title>Node1&#45;&gt;Node15</title>
<path fill="none" stroke="midnightblue" d="M128.11,-93.49C155.6,-87.21 192.45,-78.8 225.06,-71.35"/>
<polygon fill="midnightblue" stroke="midnightblue" points="226.06,-74.71 235.02,-69.07 224.5,-67.89 226.06,-74.71"/>
</g>
<!-- Node16 -->
<g id="node16" class="node">
<title>Node16</title>
<g id="a_node16"><a xlink:href="classGalpyManager.html#a7e35973fb12c11ca65ca0d0462c6c4dd" target="_top" xlink:title="generate potentail args">
<polygon fill="white" stroke="black" points="208.5,-0.5 208.5,-19.5 395.5,-19.5 395.5,-0.5 208.5,-0.5"/>
<text text-anchor="middle" x="302" y="-7.5" font-family="Helvetica,sans-Serif" font-size="10.00">GalpyManager::updatePotentialSet</text>
</a>
</g>
</g>
<!-- Node1&#45;&gt;Node16 -->
<g id="edge18" class="edge">
<title>Node1&#45;&gt;Node16</title>
<path fill="none" stroke="midnightblue" d="M98.73,-93.44C119.68,-77.55 164.28,-45.82 207,-29 213.76,-26.34 220.95,-24.03 228.23,-22.03"/>
<polygon fill="midnightblue" stroke="midnightblue" points="229.34,-25.36 238.17,-19.5 227.61,-18.58 229.34,-25.36"/>
</g>
<!-- Node5 -->
<g id="node5" class="node">
<title>Node5</title>
<g id="a_node5"><a xlink:href="classMWPotentialEvolve.html#a499debe349e3789cd6fbab95bc56dabb" target="_top" xlink:title="calculate MW potential based on the input time">
<polygon fill="white" stroke="black" points="445.5,-88 445.5,-118 599.5,-118 599.5,-88 445.5,-88"/>
<text text-anchor="start" x="453.5" y="-106" font-family="Helvetica,sans-Serif" font-size="10.00">MWPotentialEvolve::</text>
<text text-anchor="middle" x="522.5" y="-95" font-family="Helvetica,sans-Serif" font-size="10.00">calcMWPotentialParameters</text>
</a>
</g>
</g>
<!-- Node4&#45;&gt;Node5 -->
<g id="edge4" class="edge">
<title>Node4&#45;&gt;Node5</title>
<path fill="none" stroke="midnightblue" d="M397.25,-103C409.79,-103 422.6,-103 435.01,-103"/>
<polygon fill="midnightblue" stroke="midnightblue" points="435.31,-106.5 445.31,-103 435.31,-99.5 435.31,-106.5"/>
</g>
<!-- Node6 -->
<g id="node6" class="node">
<title>Node6</title>
<g id="a_node6"><a xlink:href="classFRWModel.html#a361381626bcc60640134c25e6c7357bb" target="_top" xlink:title=" ">
<polygon fill="white" stroke="black" points="1156,-104.5 1156,-123.5 1284,-123.5 1284,-104.5 1156,-104.5"/>
<text text-anchor="middle" x="1220" y="-111.5" font-family="Helvetica,sans-Serif" font-size="10.00">FRWModel::getDensity</text>
</a>
</g>
</g>
<!-- Node5&#45;&gt;Node6 -->
<g id="edge5" class="edge">
<title>Node5&#45;&gt;Node6</title>
<path fill="none" stroke="midnightblue" d="M599.59,-104.2C734.25,-106.33 1012.83,-110.74 1145.57,-112.84"/>
<polygon fill="midnightblue" stroke="midnightblue" points="1145.59,-116.34 1155.64,-113 1145.7,-109.34 1145.59,-116.34"/>
</g>
<!-- Node9 -->
<g id="node9" class="node">
<title>Node9</title>
<g id="a_node9"><a xlink:href="classFRWModel.html#a4e998f4739ff1df966beca89c1e393ed" target="_top" xlink:title=" ">
<polygon fill="white" stroke="black" points="1327.5,-47.5 1327.5,-66.5 1488.5,-66.5 1488.5,-47.5 1327.5,-47.5"/>
<text text-anchor="middle" x="1408" y="-54.5" font-family="Helvetica,sans-Serif" font-size="10.00">FRWModel::getMatterDensity</text>
</a>
</g>
</g>
<!-- Node5&#45;&gt;Node9 -->
<g id="edge13" class="edge">
<title>Node5&#45;&gt;Node9</title>
<path fill="none" stroke="midnightblue" d="M599.78,-88.45C677.13,-74.97 800.43,-57 908,-57 908,-57 908,-57 1062.5,-57 1149.01,-57 1247.73,-57 1317.25,-57"/>
<polygon fill="midnightblue" stroke="midnightblue" points="1317.29,-60.5 1327.29,-57 1317.29,-53.5 1317.29,-60.5"/>
</g>
<!-- Node11 -->
<g id="node11" class="node">
<title>Node11</title>
<g id="a_node11"><a xlink:href="classFRWModel.html#a262a19eeb8300f0a59c8555e052cbc27" target="_top" xlink:title="get Hubble constant at current a">
<polygon fill="white" stroke="black" points="860,-123.5 860,-142.5 958,-142.5 958,-123.5 860,-123.5"/>
<text text-anchor="middle" x="909" y="-130.5" font-family="Helvetica,sans-Serif" font-size="10.00">FRWModel::getH</text>
</a>
</g>
</g>
<!-- Node5&#45;&gt;Node11 -->
<g id="edge10" class="edge">
<title>Node5&#45;&gt;Node11</title>
<path fill="none" stroke="midnightblue" d="M599.92,-108.96C673.41,-114.7 782.9,-123.24 849.63,-128.45"/>
<polygon fill="midnightblue" stroke="midnightblue" points="849.72,-131.96 859.97,-129.25 850.27,-124.98 849.72,-131.96"/>
</g>
<!-- Node13 -->
<g id="node13" class="node">
<title>Node13</title>
<g id="a_node13"><a xlink:href="classFRWModel.html#a904c7a9d484ab006a8bbbc3f557f6e45" target="_top" xlink:title="update scale factor with maximum time step dt_max (first order Euler method)">
<polygon fill="white" stroke="black" points="648,-161.5 648,-180.5 815,-180.5 815,-161.5 648,-161.5"/>
<text text-anchor="middle" x="731.5" y="-168.5" font-family="Helvetica,sans-Serif" font-size="10.00">FRWModel::updateAwithDtmin</text>
</a>
</g>
</g>
<!-- Node5&#45;&gt;Node13 -->
<g id="edge14" class="edge">
<title>Node5&#45;&gt;Node13</title>
<path fill="none" stroke="midnightblue" d="M564.24,-118.05C588.46,-126.84 619.85,-137.94 648,-147 660.32,-150.97 673.78,-155 686.17,-158.6"/>
<polygon fill="midnightblue" stroke="midnightblue" points="685.27,-161.99 695.85,-161.39 687.21,-155.26 685.27,-161.99"/>
</g>
<!-- Node7 -->
<g id="node7" class="node">
<title>Node7</title>
<g id="a_node7"><a xlink:href="classFRWModel.html#ac639a14eba5f454ecd905f1e907c8ee4" target="_top" xlink:title=" ">
<polygon fill="white" stroke="black" points="1320,-123.5 1320,-142.5 1496,-142.5 1496,-123.5 1320,-123.5"/>
<text text-anchor="middle" x="1408" y="-130.5" font-family="Helvetica,sans-Serif" font-size="10.00">FRWModel::getCurvatureDensity</text>
</a>
</g>
</g>
<!-- Node6&#45;&gt;Node7 -->
<g id="edge6" class="edge">
<title>Node6&#45;&gt;Node7</title>
<path fill="none" stroke="midnightblue" d="M1284.23,-120.46C1292.48,-121.3 1301.08,-122.18 1309.73,-123.06"/>
<polygon fill="midnightblue" stroke="midnightblue" points="1309.59,-126.57 1319.89,-124.1 1310.3,-119.6 1309.59,-126.57"/>
</g>
<!-- Node8 -->
<g id="node8" class="node">
<title>Node8</title>
<g id="a_node8"><a xlink:href="classFRWModel.html#a747610082f8b89bc7494512925f3d28a" target="_top" xlink:title=" ">
<polygon fill="white" stroke="black" points="1327,-85.5 1327,-104.5 1489,-104.5 1489,-85.5 1327,-85.5"/>
<text text-anchor="middle" x="1408" y="-92.5" font-family="Helvetica,sans-Serif" font-size="10.00">FRWModel::getEnergyDensity</text>
</a>
</g>
</g>
<!-- Node6&#45;&gt;Node8 -->
<g id="edge7" class="edge">
<title>Node6&#45;&gt;Node8</title>
<path fill="none" stroke="midnightblue" d="M1284.23,-107.54C1294.71,-106.47 1305.76,-105.34 1316.75,-104.22"/>
<polygon fill="midnightblue" stroke="midnightblue" points="1317.23,-107.69 1326.82,-103.19 1316.52,-100.72 1317.23,-107.69"/>
</g>
<!-- Node6&#45;&gt;Node9 -->
<g id="edge8" class="edge">
<title>Node6&#45;&gt;Node9</title>
<path fill="none" stroke="midnightblue" d="M1243.08,-104.42C1262.92,-96.07 1293.01,-84.07 1320,-76 1328.7,-73.4 1337.99,-70.99 1347.14,-68.82"/>
<polygon fill="midnightblue" stroke="midnightblue" points="1348.01,-72.21 1356.98,-66.57 1346.45,-65.39 1348.01,-72.21"/>
</g>
<!-- Node10 -->
<g id="node10" class="node">
<title>Node10</title>
<g id="a_node10"><a xlink:href="classFRWModel.html#a80544a319035cb9fe253f2dee3d63d52" target="_top" xlink:title=" ">
<polygon fill="white" stroke="black" points="1320.5,-161.5 1320.5,-180.5 1495.5,-180.5 1495.5,-161.5 1320.5,-161.5"/>
<text text-anchor="middle" x="1408" y="-168.5" font-family="Helvetica,sans-Serif" font-size="10.00">FRWModel::getRadiationDensity</text>
</a>
</g>
</g>
<!-- Node6&#45;&gt;Node10 -->
<g id="edge9" class="edge">
<title>Node6&#45;&gt;Node10</title>
<path fill="none" stroke="midnightblue" d="M1243.08,-123.58C1262.92,-131.93 1293.01,-143.93 1320,-152 1328.7,-154.6 1337.99,-157.01 1347.14,-159.18"/>
<polygon fill="midnightblue" stroke="midnightblue" points="1346.45,-162.61 1356.98,-161.43 1348.01,-155.79 1346.45,-162.61"/>
</g>
<!-- Node12 -->
<g id="node12" class="node">
<title>Node12</title>
<g id="a_node12"><a xlink:href="classFRWModel.html#abb7a4dcaa3256b6365ef1cc5e9f5dba4" target="_top" xlink:title="calculate da/dt">
<polygon fill="white" stroke="black" points="1003,-123.5 1003,-142.5 1120,-142.5 1120,-123.5 1003,-123.5"/>
<text text-anchor="middle" x="1061.5" y="-130.5" font-family="Helvetica,sans-Serif" font-size="10.00">FRWModel::calcAdot</text>
</a>
</g>
</g>
<!-- Node11&#45;&gt;Node12 -->
<g id="edge11" class="edge">
<title>Node11&#45;&gt;Node12</title>
<path fill="none" stroke="midnightblue" d="M958.03,-133C969.08,-133 981.03,-133 992.73,-133"/>
<polygon fill="midnightblue" stroke="midnightblue" points="992.93,-136.5 1002.93,-133 992.93,-129.5 992.93,-136.5"/>
</g>
<!-- Node12&#45;&gt;Node6 -->
<g id="edge12" class="edge">
<title>Node12&#45;&gt;Node6</title>
<path fill="none" stroke="midnightblue" d="M1120.33,-125.98C1128.65,-124.97 1137.31,-123.92 1145.88,-122.88"/>
<polygon fill="midnightblue" stroke="midnightblue" points="1146.38,-126.34 1155.88,-121.66 1145.53,-119.39 1146.38,-126.34"/>
</g>
<!-- Node14 -->
<g id="node14" class="node">
<title>Node14</title>
<g id="a_node14"><a xlink:href="classFRWModel.html#a348b0ad06e5e83855a039ab5179806bc" target="_top" xlink:title="update scale factor by time step _dt (first order Euler method)">
<polygon fill="white" stroke="black" points="851,-161.5 851,-180.5 967,-180.5 967,-161.5 851,-161.5"/>
<text text-anchor="middle" x="909" y="-168.5" font-family="Helvetica,sans-Serif" font-size="10.00">FRWModel::updateA</text>
</a>
</g>
</g>
<!-- Node13&#45;&gt;Node14 -->
<g id="edge15" class="edge">
<title>Node13&#45;&gt;Node14</title>
<path fill="none" stroke="midnightblue" d="M815.11,-171C823.71,-171 832.37,-171 840.77,-171"/>
<polygon fill="midnightblue" stroke="midnightblue" points="840.85,-174.5 850.85,-171 840.85,-167.5 840.85,-174.5"/>
</g>
<!-- Node14&#45;&gt;Node12 -->
<g id="edge16" class="edge">
<title>Node14&#45;&gt;Node12</title>
<path fill="none" stroke="midnightblue" d="M947.98,-161.41C967.66,-156.44 991.89,-150.32 1012.82,-145.04"/>
<polygon fill="midnightblue" stroke="midnightblue" points="1013.96,-148.36 1022.8,-142.52 1012.24,-141.57 1013.96,-148.36"/>
</g>
<!-- Node17 -->
<g id="node17" class="node">
<title>Node17</title>
<g id="a_node17"><a xlink:href="classGalpyManager.html#a5bc0d4b2e49875e6706fb03c4a11e9a2" target="_top" xlink:title=" ">
<polygon fill="white" stroke="black" points="433,-0.5 433,-19.5 612,-19.5 612,-0.5 433,-0.5"/>
<text text-anchor="middle" x="522.5" y="-7.5" font-family="Helvetica,sans-Serif" font-size="10.00">GalpyManager::freePotentialArgs</text>
</a>
</g>
</g>
<!-- Node16&#45;&gt;Node17 -->
<g id="edge19" class="edge">
<title>Node16&#45;&gt;Node17</title>
<path fill="none" stroke="midnightblue" d="M395.66,-10C404.62,-10 413.73,-10 422.75,-10"/>
<polygon fill="midnightblue" stroke="midnightblue" points="422.87,-13.5 432.87,-10 422.87,-6.5 422.87,-13.5"/>
</g>
<!-- Node18 -->
<g id="node18" class="node">
<title>Node18</title>
<g id="a_node18"><a xlink:href="classGalpyManager.html#a1b462774660dccb211b5845458c07eca" target="_top" xlink:title=" ">
<polygon fill="white" stroke="black" points="672.5,-0.5 672.5,-19.5 790.5,-19.5 790.5,-0.5 672.5,-0.5"/>
<text text-anchor="middle" x="731.5" y="-7.5" font-family="Helvetica,sans-Serif" font-size="10.00">GalpyManager::clear</text>
</a>
</g>
</g>
<!-- Node17&#45;&gt;Node18 -->
<g id="edge20" class="edge">
<title>Node17&#45;&gt;Node18</title>
<path fill="none" stroke="midnightblue" d="M612.19,-3.31C628.84,-3.17 646.02,-3.27 661.94,-3.6"/>
<polygon fill="midnightblue" stroke="midnightblue" points="662.12,-7.11 672.21,-3.86 662.3,-0.11 662.12,-7.11"/>
</g>
<!-- Node18&#45;&gt;Node17 -->
<g id="edge21" class="edge">
<title>Node18&#45;&gt;Node17</title>
<path fill="none" stroke="midnightblue" d="M672.21,-16.14C656.62,-16.59 639.34,-16.79 622.23,-16.74"/>
<polygon fill="midnightblue" stroke="midnightblue" points="622.21,-13.24 612.19,-16.69 622.17,-20.24 622.21,-13.24"/>
</g>
</g>
</svg>
        <g id="navigator" transform="translate(0 0)" fill="#404254">
                <rect fill="#f2f5e9" fill-opacity="0.5" stroke="#606060" stroke-width=".5" x="0" y="0" width="60" height="60"/>
                <use id="zoomplus" xlink:href="#zoomPlus" x="17" y="9" onmousedown="handleZoom(evt,'in')"/>
                <use id="zoomminus" xlink:href="#zoomMin" x="42" y="9" onmousedown="handleZoom(evt,'out')"/>
                <use id="reset" xlink:href="#resetDef" x="30" y="36" onmousedown="handleReset()"/>
                <g id="arrowUp" xlink:href="#dirArrow" transform="translate(30 24)" onmousedown="handlePan(0,-1)">
                  <use xlink:href="#rim" fill="#404040">
                        <set attributeName="fill" to="#808080" begin="arrowUp.mouseover" end="arrowUp.mouseout"/>
                  </use>
                  <path fill="none" stroke="white" stroke-width="1.5" d="M0,-3.0v7 M-2.5,-0.5L0,-3.0L2.5,-0.5"/>
                </g>
                <g id="arrowRight" xlink:href="#dirArrow" transform="rotate(90) translate(36 -43)" onmousedown="handlePan(1,0)">
                  <use xlink:href="#rim" fill="#404040">
                        <set attributeName="fill" to="#808080" begin="arrowRight.mouseover" end="arrowRight.mouseout"/>
                  </use>
                  <path fill="none" stroke="white" stroke-width="1.5" d="M0,-3.0v7 M-2.5,-0.5L0,-3.0L2.5,-0.5"/>
                </g>
                <g id="arrowDown" xlink:href="#dirArrow" transform="rotate(180) translate(-30 -48)" onmousedown="handlePan(0,1)">
                  <use xlink:href="#rim" fill="#404040">
                        <set attributeName="fill" to="#808080" begin="arrowDown.mouseover" end="arrowDown.mouseout"/>
                  </use>
                  <path fill="none" stroke="white" stroke-width="1.5" d="M0,-3.0v7 M-2.5,-0.5L0,-3.0L2.5,-0.5"/>
                </g>
                <g id="arrowLeft" xlink:href="#dirArrow" transform="rotate(270) translate(-36 17)" onmousedown="handlePan(-1,0)">
                  <use xlink:href="#rim" fill="#404040">
                        <set attributeName="fill" to="#808080" begin="arrowLeft.mouseover" end="arrowLeft.mouseout"/>
                  </use>
                  <path fill="none" stroke="white" stroke-width="1.5" d="M0,-3.0v7 M-2.5,-0.5L0,-3.0L2.5,-0.5"/>
                </g>
        </g>
        <svg viewBox="0 0 15 15" width="100%" height="30px" preserveAspectRatio="xMaxYMin meet">
         <g id="arrow_out" transform="scale(0.3 0.3)">
          <a xlink:href="classGalpyManager_a2b9c41229c1b4a6d5c06e18017298357_cgraph_org.svg" target="_base">
           <rect id="button" ry="5" rx="5" y="6" x="6" height="38" width="38"
                fill="#f2f5e9" fill-opacity="0.5" stroke="#606060" stroke-width="1.0"/>
           <path id="arrow"
             d="M 11.500037,31.436501 C 11.940474,20.09759 22.043105,11.32322 32.158766,21.979434 L 37.068811,17.246167 C 37.068811,17.246167 37.088388,32 37.088388,32 L 22.160133,31.978069 C 22.160133,31.978069 26.997745,27.140456 26.997745,27.140456 C 18.528582,18.264221 13.291696,25.230495 11.500037,31.436501 z"
             style="fill:#404040;"/>
          </a>
         </g>
        </svg>
</svg>
