<?xml version="1.0" encoding="UTF-8" standalone="no"?>
<!DOCTYPE svg PUBLIC "-//W3C//DTD SVG 1.1//EN"
 "http://www.w3.org/Graphics/SVG/1.1/DTD/svg11.dtd">
<!-- Generated by graphviz version 2.43.0 (0)
 -->
<!-- Title: HardIntegrator::checkParams Pages: 1 -->
<svg width="405pt" height="88pt"
 viewBox="0.00 0.00 405.00 88.00" xmlns="http://www.w3.org/2000/svg" xmlns:xlink="http://www.w3.org/1999/xlink">
<g id="graph0" class="graph" transform="scale(1 1) rotate(0) translate(4 84)">
<title>HardIntegrator::checkParams</title>
<polygon fill="white" stroke="transparent" points="-4,4 -4,-84 401,-84 401,4 -4,4"/>
<!-- Node1 -->
<g id="node1" class="node">
<title>Node1</title>
<g id="a_node1"><a xlink:title="check parameters">
<polygon fill="#bfbfbf" stroke="black" points="239,-30 239,-49 397,-49 397,-30 239,-30"/>
<text text-anchor="middle" x="318" y="-37" font-family="Helvetica,sans-Serif" font-size="10.00">HardIntegrator::checkParams</text>
</a>
</g>
</g>
<!-- Node2 -->
<g id="node2" class="node">
<title>Node2</title>
<g id="a_node2"><a xlink:href="classHardIntegrator.html#aa9bff3864c110f2bd2af54163e878757" target="_top" xlink:title="drift c.m. particle of the cluster record group c.m. in group_data and write back data to original pa...">
<polygon fill="white" stroke="black" points="0,-49.5 0,-79.5 203,-79.5 203,-49.5 0,-49.5"/>
<text text-anchor="start" x="8" y="-67.5" font-family="Helvetica,sans-Serif" font-size="10.00">HardIntegrator::driftCluster</text>
<text text-anchor="middle" x="101.5" y="-56.5" font-family="Helvetica,sans-Serif" font-size="10.00">CMRecordGroupCMDataAndWriteBack</text>
</a>
</g>
</g>
<!-- Node1&#45;&gt;Node2 -->
<g id="edge1" class="edge">
<title>Node1&#45;&gt;Node2</title>
<path fill="none" stroke="midnightblue" d="M228.77,-49.78C220.34,-50.77 211.75,-51.77 203.22,-52.76"/>
<polygon fill="midnightblue" stroke="midnightblue" points="229.43,-53.23 238.95,-48.6 228.62,-46.28 229.43,-53.23"/>
</g>
<!-- Node3 -->
<g id="node3" class="node">
<title>Node3</title>
<g id="a_node3"><a xlink:href="classHardIntegrator.html#aca164327390568c12105502096e3bdf0" target="_top" xlink:title="Integrate system to time.">
<polygon fill="white" stroke="black" points="32.5,-0.5 32.5,-30.5 170.5,-30.5 170.5,-0.5 32.5,-0.5"/>
<text text-anchor="start" x="40.5" y="-18.5" font-family="Helvetica,sans-Serif" font-size="10.00">HardIntegrator::integrate</text>
<text text-anchor="middle" x="101.5" y="-7.5" font-family="Helvetica,sans-Serif" font-size="10.00">ToTime</text>
</a>
</g>
</g>
<!-- Node1&#45;&gt;Node3 -->
<g id="edge2" class="edge">
<title>Node1&#45;&gt;Node3</title>
<path fill="none" stroke="midnightblue" d="M228.87,-29.64C209.41,-27.46 189.09,-25.19 170.57,-23.12"/>
<polygon fill="midnightblue" stroke="midnightblue" points="228.63,-33.13 238.95,-30.77 229.41,-26.18 228.63,-33.13"/>
</g>
</g>
</svg>
