<?xml version="1.0" encoding="UTF-8" standalone="no"?>
<!DOCTYPE svg PUBLIC "-//W3C//DTD SVG 1.1//EN"
 "http://www.w3.org/Graphics/SVG/1.1/DTD/svg11.dtd">
<!-- Generated by graphviz version 2.43.0 (0)
 -->
<!-- Title: ParticleBase::printColumn Pages: 1 -->
<svg width="437pt" height="28pt"
 viewBox="0.00 0.00 437.00 28.00" xmlns="http://www.w3.org/2000/svg" xmlns:xlink="http://www.w3.org/1999/xlink">
<g id="graph0" class="graph" transform="scale(1 1) rotate(0) translate(4 24)">
<title>ParticleBase::printColumn</title>
<polygon fill="white" stroke="transparent" points="-4,4 -4,-24 433,-24 433,4 -4,4"/>
<!-- Node1 -->
<g id="node1" class="node">
<title>Node1</title>
<g id="a_node1"><a xlink:title="print data of class members using column style">
<polygon fill="#bfbfbf" stroke="black" points="286,-0.5 286,-19.5 429,-19.5 429,-0.5 286,-0.5"/>
<text text-anchor="middle" x="357.5" y="-7.5" font-family="Helvetica,sans-Serif" font-size="10.00">ParticleBase::printColumn</text>
</a>
</g>
</g>
<!-- Node2 -->
<g id="node2" class="node">
<title>Node2</title>
<g id="a_node2"><a xlink:href="classPtcl.html#ad3edca90dcee7b42baee6d12cbd25e52" target="_top" xlink:title="print data of class members using column style">
<polygon fill="white" stroke="black" points="149,-0.5 149,-19.5 250,-19.5 250,-0.5 149,-0.5"/>
<text text-anchor="middle" x="199.5" y="-7.5" font-family="Helvetica,sans-Serif" font-size="10.00">Ptcl::printColumn</text>
</a>
</g>
</g>
<!-- Node1&#45;&gt;Node2 -->
<g id="edge1" class="edge">
<title>Node1&#45;&gt;Node2</title>
<path fill="none" stroke="midnightblue" d="M275.71,-10C267.1,-10 258.54,-10 250.45,-10"/>
<polygon fill="midnightblue" stroke="midnightblue" points="275.8,-13.5 285.8,-10 275.8,-6.5 275.8,-13.5"/>
</g>
<!-- Node3 -->
<g id="node3" class="node">
<title>Node3</title>
<g id="a_node3"><a xlink:href="classFPSoft.html#a392bb1a4cfb9611095863498bd6f6ff5" target="_top" xlink:title="print data of class members using column style">
<polygon fill="white" stroke="black" points="0,-0.5 0,-19.5 113,-19.5 113,-0.5 0,-0.5"/>
<text text-anchor="middle" x="56.5" y="-7.5" font-family="Helvetica,sans-Serif" font-size="10.00">FPSoft::printColumn</text>
</a>
</g>
</g>
<!-- Node2&#45;&gt;Node3 -->
<g id="edge2" class="edge">
<title>Node2&#45;&gt;Node3</title>
<path fill="none" stroke="midnightblue" d="M138.58,-10C130.09,-10 121.4,-10 113.01,-10"/>
<polygon fill="midnightblue" stroke="midnightblue" points="138.79,-13.5 148.79,-10 138.79,-6.5 138.79,-13.5"/>
</g>
</g>
</svg>
