<?xml version="1.0" encoding="UTF-8" standalone="no"?>
<!DOCTYPE svg PUBLIC "-//W3C//DTD SVG 1.1//EN"
 "http://www.w3.org/Graphics/SVG/1.1/DTD/svg11.dtd">
<!-- Generated by graphviz version 2.43.0 (0)
 -->
<!-- Title: ChangeOver::getRout Pages: 1 -->
<!--zoomable 198 -->
<svg id="main" version="1.1" xmlns="http://www.w3.org/2000/svg" xmlns:xlink="http://www.w3.org/1999/xlink" xml:space="preserve" onload="init(evt)">
<style type="text/css"><![CDATA[
.edge:hover path { stroke: red; }
.edge:hover polygon { stroke: red; fill: red; }
]]></style>
<script type="text/javascript"><![CDATA[
var edges = document.getElementsByTagName('g');
if (edges && edges.length) {
  for (var i=0;i<edges.length;i++) {
    if (edges[i].id.substr(0,4)=='edge') {
      edges[i].setAttribute('class','edge');
    }
  }
}
]]></script>
        <defs>
                <circle id="rim" cx="0" cy="0" r="7"/>
                <circle id="rim2" cx="0" cy="0" r="3.5"/>
                <g id="zoomPlus">
                        <use xlink:href="#rim" fill="#404040">
                                <set attributeName="fill" to="#808080" begin="zoomplus.mouseover" end="zoomplus.mouseout"/>
                        </use>
                        <path d="M-4,0h8M0,-4v8" fill="none" stroke="white" stroke-width="1.5" pointer-events="none"/>
                </g>
                <g id="zoomMin">
                        <use xlink:href="#rim" fill="#404040">
                                <set attributeName="fill" to="#808080" begin="zoomminus.mouseover" end="zoomminus.mouseout"/>
                        </use>
                        <path d="M-4,0h8" fill="none" stroke="white" stroke-width="1.5" pointer-events="none"/>
                </g>
                <g id="dirArrow">
                        <path fill="none" stroke="white" stroke-width="1.5" d="M0,-3.0v7 M-2.5,-0.5L0,-3.0L2.5,-0.5"/>
                </g>
               <g id="resetDef">
                       <use xlink:href="#rim2" fill="#404040">
                               <set attributeName="fill" to="#808080" begin="reset.mouseover" end="reset.mouseout"/>
                       </use>
               </g>
        </defs>

<script type="text/javascript">
var viewWidth = 541;
var viewHeight = 198;
var sectionId = 'dynsection-12';
</script>
<script xlink:href="svgpan.js"/>
<svg id="graph" class="graph">
<g id="viewport">
<title>ChangeOver::getRout</title>
<polygon fill="white" stroke="transparent" points="-4,4 -4,-194 537,-194 537,4 -4,4"/>
<!-- Node1 -->
<g id="node1" class="node">
<title>Node1</title>
<g id="a_node1"><a xlink:title="get r_out">
<polygon fill="#bfbfbf" stroke="black" points="412,-83 412,-102 533,-102 533,-83 412,-83"/>
<text text-anchor="middle" x="472.5" y="-90" font-family="Helvetica,sans-Serif" font-size="10.00">ChangeOver::getRout</text>
</a>
</g>
</g>
<!-- Node2 -->
<g id="node2" class="node">
<title>Node2</title>
<g id="a_node2"><a xlink:href="classChangeOver.html#aa4cee9c08ff3ae260bf33fb3d885ffca" target="_top" xlink:title="calculate changeover function Acc0 by selecting maximum rout">
<polygon fill="white" stroke="black" points="222,-121 222,-140 376,-140 376,-121 222,-121"/>
<text text-anchor="middle" x="299" y="-128" font-family="Helvetica,sans-Serif" font-size="10.00">ChangeOver::calcAcc0WTwo</text>
</a>
</g>
</g>
<!-- Node1&#45;&gt;Node2 -->
<g id="edge1" class="edge">
<title>Node1&#45;&gt;Node2</title>
<path fill="none" stroke="midnightblue" d="M418.46,-104.25C394.21,-109.63 365.85,-115.91 342.97,-120.98"/>
<polygon fill="midnightblue" stroke="midnightblue" points="419.22,-107.67 428.22,-102.09 417.7,-100.84 419.22,-107.67"/>
</g>
<!-- Node5 -->
<g id="node5" class="node">
<title>Node5</title>
<g id="a_node5"><a xlink:href="classChangeOver.html#a03517a56f818e5be3d1bba56cb78edff" target="_top" xlink:title="calculate changeover function Acc1 by selecting maximum rout">
<polygon fill="white" stroke="black" points="222,-159 222,-178 376,-178 376,-159 222,-159"/>
<text text-anchor="middle" x="299" y="-166" font-family="Helvetica,sans-Serif" font-size="10.00">ChangeOver::calcAcc1WTwo</text>
</a>
</g>
</g>
<!-- Node1&#45;&gt;Node5 -->
<g id="edge4" class="edge">
<title>Node1&#45;&gt;Node5</title>
<path fill="none" stroke="midnightblue" d="M449.86,-107.94C431.1,-120.69 402.84,-138.42 376,-149.5 366.95,-153.24 356.98,-156.37 347.32,-158.95"/>
<polygon fill="midnightblue" stroke="midnightblue" points="452.01,-110.7 458.25,-102.14 448.03,-104.95 452.01,-110.7"/>
</g>
<!-- Node6 -->
<g id="node6" class="node">
<title>Node6</title>
<g id="a_node6"><a xlink:href="classChangeOver.html#a42703491c22c6f1925e28f4eb7508594" target="_top" xlink:title="calculate changeover function Pot by selecting maximum rout">
<polygon fill="white" stroke="black" points="226,-83 226,-102 372,-102 372,-83 226,-83"/>
<text text-anchor="middle" x="299" y="-90" font-family="Helvetica,sans-Serif" font-size="10.00">ChangeOver::calcPotWTwo</text>
</a>
</g>
</g>
<!-- Node1&#45;&gt;Node6 -->
<g id="edge7" class="edge">
<title>Node1&#45;&gt;Node6</title>
<path fill="none" stroke="midnightblue" d="M401.9,-92.5C392.08,-92.5 381.97,-92.5 372.1,-92.5"/>
<polygon fill="midnightblue" stroke="midnightblue" points="402,-96 412,-92.5 402,-89 402,-96"/>
</g>
<!-- Node9 -->
<g id="node9" class="node">
<title>Node9</title>
<g id="a_node9"><a xlink:href="classPtcl.html#a16be4c6cdfc9a71ff180a2fce6d8668d" target="_top" xlink:title="calculate new rsearch">
<polygon fill="white" stroke="black" points="249,-45 249,-64 349,-64 349,-45 249,-45"/>
<text text-anchor="middle" x="299" y="-52" font-family="Helvetica,sans-Serif" font-size="10.00">Ptcl::calcRSearch</text>
</a>
</g>
</g>
<!-- Node1&#45;&gt;Node9 -->
<g id="edge12" class="edge">
<title>Node1&#45;&gt;Node9</title>
<path fill="none" stroke="midnightblue" d="M418.46,-80.75C394.21,-75.37 365.85,-69.09 342.97,-64.02"/>
<polygon fill="midnightblue" stroke="midnightblue" points="417.7,-84.16 428.22,-82.91 419.22,-77.33 417.7,-84.16"/>
</g>
<!-- Node10 -->
<g id="node10" class="node">
<title>Node10</title>
<g id="a_node10"><a xlink:href="classPtcl.html#a11bd36e0dd41d013f5bf90e6a74b8a69" target="_top" xlink:title="Get neighbor distance criterion.">
<polygon fill="white" stroke="black" points="245.5,-7 245.5,-26 352.5,-26 352.5,-7 245.5,-7"/>
<text text-anchor="middle" x="299" y="-14" font-family="Helvetica,sans-Serif" font-size="10.00">Ptcl::getRNeighbor</text>
</a>
</g>
</g>
<!-- Node1&#45;&gt;Node10 -->
<g id="edge13" class="edge">
<title>Node1&#45;&gt;Node10</title>
<path fill="none" stroke="midnightblue" d="M449.86,-77.06C431.1,-64.31 402.84,-46.58 376,-35.5 366.95,-31.76 356.98,-28.63 347.32,-26.05"/>
<polygon fill="midnightblue" stroke="midnightblue" points="448.03,-80.05 458.25,-82.86 452.01,-74.3 448.03,-80.05"/>
</g>
<!-- Node3 -->
<g id="node3" class="node">
<title>Node3</title>
<g id="a_node3"><a xlink:href="classHermiteInteraction.html#ad0c5b9678c1cb91f89d90d1f4a94a568" target="_top" xlink:title="calculate acceleration and jerk of one pair single and resolved group">
<polygon fill="white" stroke="black" points="0,-159.5 0,-189.5 186,-189.5 186,-159.5 0,-159.5"/>
<text text-anchor="start" x="8" y="-177.5" font-family="Helvetica,sans-Serif" font-size="10.00">HermiteInteraction</text>
<text text-anchor="middle" x="93" y="-166.5" font-family="Helvetica,sans-Serif" font-size="10.00">::calcAccJerkPairGroupCMGroupCM</text>
</a>
</g>
</g>
<!-- Node2&#45;&gt;Node3 -->
<g id="edge2" class="edge">
<title>Node2&#45;&gt;Node3</title>
<path fill="none" stroke="midnightblue" d="M243.89,-142.17C219.35,-147.46 190.02,-153.79 163.85,-159.43"/>
<polygon fill="midnightblue" stroke="midnightblue" points="244.7,-145.58 253.74,-140.05 243.22,-138.73 244.7,-145.58"/>
</g>
<!-- Node4 -->
<g id="node4" class="node">
<title>Node4</title>
<g id="a_node4"><a xlink:href="classHermiteInteraction.html#a9d8f0c34f81481a7bc2cd61afb296a53" target="_top" xlink:title="calculate acceleration and jerk of one pair single and resolved group">
<polygon fill="white" stroke="black" points="7.5,-110.5 7.5,-140.5 178.5,-140.5 178.5,-110.5 7.5,-110.5"/>
<text text-anchor="start" x="15.5" y="-128.5" font-family="Helvetica,sans-Serif" font-size="10.00">HermiteInteraction</text>
<text text-anchor="middle" x="93" y="-117.5" font-family="Helvetica,sans-Serif" font-size="10.00">::calcAccJerkPairSingleGroupCM</text>
</a>
</g>
</g>
<!-- Node2&#45;&gt;Node4 -->
<g id="edge3" class="edge">
<title>Node2&#45;&gt;Node4</title>
<path fill="none" stroke="midnightblue" d="M211.45,-128.38C200.61,-128.11 189.53,-127.84 178.72,-127.58"/>
<polygon fill="midnightblue" stroke="midnightblue" points="211.67,-131.88 221.75,-128.63 211.84,-124.89 211.67,-131.88"/>
</g>
<!-- Node5&#45;&gt;Node3 -->
<g id="edge5" class="edge">
<title>Node5&#45;&gt;Node3</title>
<path fill="none" stroke="midnightblue" d="M211.54,-171.04C203.09,-171.29 194.5,-171.54 186,-171.79"/>
<polygon fill="midnightblue" stroke="midnightblue" points="211.86,-174.54 221.75,-170.74 211.65,-167.54 211.86,-174.54"/>
</g>
<!-- Node5&#45;&gt;Node4 -->
<g id="edge6" class="edge">
<title>Node5&#45;&gt;Node4</title>
<path fill="none" stroke="midnightblue" d="M242.78,-156.86C218.89,-151.82 190.63,-145.87 165.19,-140.51"/>
<polygon fill="midnightblue" stroke="midnightblue" points="242.22,-160.32 252.73,-158.96 243.66,-153.47 242.22,-160.32"/>
</g>
<!-- Node6&#45;&gt;Node3 -->
<g id="edge8" class="edge">
<title>Node6&#45;&gt;Node3</title>
<path fill="none" stroke="midnightblue" d="M233.67,-105.67C229.61,-107.38 225.69,-109.32 222,-111.5 201.71,-123.53 206.23,-138.37 186,-150.5 180.34,-153.9 174.2,-156.82 167.87,-159.33"/>
<polygon fill="midnightblue" stroke="midnightblue" points="235.18,-108.84 243.32,-102.06 232.72,-102.28 235.18,-108.84"/>
</g>
<!-- Node6&#45;&gt;Node4 -->
<g id="edge9" class="edge">
<title>Node6&#45;&gt;Node4</title>
<path fill="none" stroke="midnightblue" d="M229.36,-103.6C213.16,-106.22 195.69,-109.05 178.87,-111.77"/>
<polygon fill="midnightblue" stroke="midnightblue" points="229.96,-107.05 239.27,-102 228.84,-100.14 229.96,-107.05"/>
</g>
<!-- Node7 -->
<g id="node7" class="node">
<title>Node7</title>
<g id="a_node7"><a xlink:href="classHermiteInteraction.html#aecaa8dca2c19d0c2833212611d1f3118" target="_top" xlink:title="calculate acceleration and jerk of one pair single and resolved group">
<polygon fill="white" stroke="black" points="15.5,-50 15.5,-91 170.5,-91 170.5,-50 15.5,-50"/>
<text text-anchor="start" x="23.5" y="-79" font-family="Helvetica,sans-Serif" font-size="10.00">HermiteInteraction</text>
<text text-anchor="start" x="23.5" y="-68" font-family="Helvetica,sans-Serif" font-size="10.00">::calcAccJerkPairSingleGroup</text>
<text text-anchor="middle" x="93" y="-57" font-family="Helvetica,sans-Serif" font-size="10.00">Member</text>
</a>
</g>
</g>
<!-- Node6&#45;&gt;Node7 -->
<g id="edge10" class="edge">
<title>Node6&#45;&gt;Node7</title>
<path fill="none" stroke="midnightblue" d="M215.61,-83.61C200.74,-82.01 185.3,-80.35 170.61,-78.76"/>
<polygon fill="midnightblue" stroke="midnightblue" points="215.47,-87.12 225.79,-84.71 216.22,-80.16 215.47,-87.12"/>
</g>
<!-- Node8 -->
<g id="node8" class="node">
<title>Node8</title>
<g id="a_node8"><a xlink:href="classHermiteInteraction.html#ae5d870c8e163034c8b419ef64a031e39" target="_top" xlink:title="calculate acceleration and jerk of one pair">
<polygon fill="white" stroke="black" points="15,-0.5 15,-30.5 171,-30.5 171,-0.5 15,-0.5"/>
<text text-anchor="start" x="23" y="-18.5" font-family="Helvetica,sans-Serif" font-size="10.00">HermiteInteraction</text>
<text text-anchor="middle" x="93" y="-7.5" font-family="Helvetica,sans-Serif" font-size="10.00">::calcAccJerkPairSingleSingle</text>
</a>
</g>
</g>
<!-- Node6&#45;&gt;Node8 -->
<g id="edge11" class="edge">
<title>Node6&#45;&gt;Node8</title>
<path fill="none" stroke="midnightblue" d="M235.49,-79.6C230.82,-77.82 226.27,-75.8 222,-73.5 202.88,-63.22 205.01,-50.98 186,-40.5 179.04,-36.67 171.46,-33.39 163.73,-30.6"/>
<polygon fill="midnightblue" stroke="midnightblue" points="234.61,-83 245.21,-82.94 236.88,-76.38 234.61,-83"/>
</g>
</g>
</svg>
        <g id="navigator" transform="translate(0 0)" fill="#404254">
                <rect fill="#f2f5e9" fill-opacity="0.5" stroke="#606060" stroke-width=".5" x="0" y="0" width="60" height="60"/>
                <use id="zoomplus" xlink:href="#zoomPlus" x="17" y="9" onmousedown="handleZoom(evt,'in')"/>
                <use id="zoomminus" xlink:href="#zoomMin" x="42" y="9" onmousedown="handleZoom(evt,'out')"/>
                <use id="reset" xlink:href="#resetDef" x="30" y="36" onmousedown="handleReset()"/>
                <g id="arrowUp" xlink:href="#dirArrow" transform="translate(30 24)" onmousedown="handlePan(0,-1)">
                  <use xlink:href="#rim" fill="#404040">
                        <set attributeName="fill" to="#808080" begin="arrowUp.mouseover" end="arrowUp.mouseout"/>
                  </use>
                  <path fill="none" stroke="white" stroke-width="1.5" d="M0,-3.0v7 M-2.5,-0.5L0,-3.0L2.5,-0.5"/>
                </g>
                <g id="arrowRight" xlink:href="#dirArrow" transform="rotate(90) translate(36 -43)" onmousedown="handlePan(1,0)">
                  <use xlink:href="#rim" fill="#404040">
                        <set attributeName="fill" to="#808080" begin="arrowRight.mouseover" end="arrowRight.mouseout"/>
                  </use>
                  <path fill="none" stroke="white" stroke-width="1.5" d="M0,-3.0v7 M-2.5,-0.5L0,-3.0L2.5,-0.5"/>
                </g>
                <g id="arrowDown" xlink:href="#dirArrow" transform="rotate(180) translate(-30 -48)" onmousedown="handlePan(0,1)">
                  <use xlink:href="#rim" fill="#404040">
                        <set attributeName="fill" to="#808080" begin="arrowDown.mouseover" end="arrowDown.mouseout"/>
                  </use>
                  <path fill="none" stroke="white" stroke-width="1.5" d="M0,-3.0v7 M-2.5,-0.5L0,-3.0L2.5,-0.5"/>
                </g>
                <g id="arrowLeft" xlink:href="#dirArrow" transform="rotate(270) translate(-36 17)" onmousedown="handlePan(-1,0)">
                  <use xlink:href="#rim" fill="#404040">
                        <set attributeName="fill" to="#808080" begin="arrowLeft.mouseover" end="arrowLeft.mouseout"/>
                  </use>
                  <path fill="none" stroke="white" stroke-width="1.5" d="M0,-3.0v7 M-2.5,-0.5L0,-3.0L2.5,-0.5"/>
                </g>
        </g>
        <svg viewBox="0 0 15 15" width="100%" height="30px" preserveAspectRatio="xMaxYMin meet">
         <g id="arrow_out" transform="scale(0.3 0.3)">
          <a xlink:href="classChangeOver_ab1ee26d7f773d67568a55b8efabdbe79_icgraph_org.svg" target="_base">
           <rect id="button" ry="5" rx="5" y="6" x="6" height="38" width="38"
                fill="#f2f5e9" fill-opacity="0.5" stroke="#606060" stroke-width="1.0"/>
           <path id="arrow"
             d="M 11.500037,31.436501 C 11.940474,20.09759 22.043105,11.32322 32.158766,21.979434 L 37.068811,17.246167 C 37.068811,17.246167 37.088388,32 37.088388,32 L 22.160133,31.978069 C 22.160133,31.978069 26.997745,27.140456 26.997745,27.140456 C 18.528582,18.264221 13.291696,25.230495 11.500037,31.436501 z"
             style="fill:#404040;"/>
          </a>
         </g>
        </svg>
</svg>
