<?xml version="1.0" encoding="UTF-8" standalone="no"?>
<!DOCTYPE svg PUBLIC "-//W3C//DTD SVG 1.1//EN"
 "http://www.w3.org/Graphics/SVG/1.1/DTD/svg11.dtd">
<!-- Generated by graphviz version 2.43.0 (0)
 -->
<!-- Title: IOParamsBSE Pages: 1 -->
<svg width="393pt" height="216pt"
 viewBox="0.00 0.00 393.00 216.00" xmlns="http://www.w3.org/2000/svg" xmlns:xlink="http://www.w3.org/1999/xlink">
<g id="graph0" class="graph" transform="scale(1 1) rotate(0) translate(4 212)">
<title>IOParamsBSE</title>
<polygon fill="white" stroke="transparent" points="-4,4 -4,-212 389,-212 389,4 -4,4"/>
<!-- Node1 -->
<g id="node1" class="node">
<title>Node1</title>
<g id="a_node1"><a xlink:title="IO parameters manager for BSE based code.">
<polygon fill="#bfbfbf" stroke="black" points="151.5,-0.5 151.5,-19.5 233.5,-19.5 233.5,-0.5 151.5,-0.5"/>
<text text-anchor="middle" x="192.5" y="-7.5" font-family="Helvetica,sans-Serif" font-size="10.00">IOParamsBSE</text>
</a>
</g>
</g>
<!-- Node2 -->
<g id="node2" class="node">
<title>Node2</title>
<g id="a_node2"><a xlink:href="structIOParams.html" target="_top" xlink:title=" ">
<polygon fill="white" stroke="black" points="0,-177.5 0,-207.5 119,-207.5 119,-177.5 0,-177.5"/>
<text text-anchor="start" x="8" y="-195.5" font-family="Helvetica,sans-Serif" font-size="10.00">IOParams&lt; long long</text>
<text text-anchor="middle" x="59.5" y="-184.5" font-family="Helvetica,sans-Serif" font-size="10.00"> int &gt;</text>
</a>
</g>
</g>
<!-- Node2&#45;&gt;Node1 -->
<g id="edge1" class="edge">
<title>Node2&#45;&gt;Node1</title>
<path fill="none" stroke="#9a32cd" stroke-dasharray="5,2" d="M70.53,-168.15C86.31,-136.33 117.65,-78.66 155.5,-38 162.11,-30.9 170.82,-24.43 178.13,-19.61"/>
<polygon fill="#9a32cd" stroke="#9a32cd" points="67.38,-166.63 66.14,-177.15 73.67,-169.69 67.38,-166.63"/>
<text text-anchor="middle" x="172" y="-123.5" font-family="Helvetica,sans-Serif" font-size="10.00"> nsflag</text>
<text text-anchor="middle" x="172" y="-112.5" font-family="Helvetica,sans-Serif" font-size="10.00">bhflag</text>
<text text-anchor="middle" x="172" y="-101.5" font-family="Helvetica,sans-Serif" font-size="10.00">idum</text>
<text text-anchor="middle" x="172" y="-90.5" font-family="Helvetica,sans-Serif" font-size="10.00">tflag</text>
<text text-anchor="middle" x="172" y="-79.5" font-family="Helvetica,sans-Serif" font-size="10.00">wdflag</text>
<text text-anchor="middle" x="172" y="-68.5" font-family="Helvetica,sans-Serif" font-size="10.00">ceflag</text>
</g>
<!-- Node3 -->
<g id="node3" class="node">
<title>Node3</title>
<g id="a_node3"><a xlink:href="classIOParamsContainer.html" target="_top" xlink:title="IO Params container.">
<polygon fill="white" stroke="black" points="137.5,-183 137.5,-202 247.5,-202 247.5,-183 137.5,-183"/>
<text text-anchor="middle" x="192.5" y="-190" font-family="Helvetica,sans-Serif" font-size="10.00">IOParamsContainer</text>
</a>
</g>
</g>
<!-- Node3&#45;&gt;Node1 -->
<g id="edge2" class="edge">
<title>Node3&#45;&gt;Node1</title>
<path fill="none" stroke="#9a32cd" stroke-dasharray="5,2" d="M192.5,-172.43C192.5,-133.7 192.5,-47.19 192.5,-19.62"/>
<polygon fill="#9a32cd" stroke="#9a32cd" points="189,-172.79 192.5,-182.79 196,-172.79 189,-172.79"/>
<text text-anchor="middle" x="232" y="-96" font-family="Helvetica,sans-Serif" font-size="10.00"> input_par_store</text>
</g>
<!-- Node4 -->
<g id="node4" class="node">
<title>Node4</title>
<g id="a_node4"><a xlink:href="structIOParams.html" target="_top" xlink:title=" ">
<polygon fill="white" stroke="black" points="266,-183 266,-202 385,-202 385,-183 266,-183"/>
<text text-anchor="middle" x="325.5" y="-190" font-family="Helvetica,sans-Serif" font-size="10.00">IOParams&lt; double &gt;</text>
</a>
</g>
</g>
<!-- Node4&#45;&gt;Node1 -->
<g id="edge3" class="edge">
<title>Node4&#45;&gt;Node1</title>
<path fill="none" stroke="#9a32cd" stroke-dasharray="5,2" d="M324.68,-172.61C322.25,-140.52 312.75,-75.24 275.5,-38 264.35,-26.86 248.57,-20.31 233.75,-16.47"/>
<polygon fill="#9a32cd" stroke="#9a32cd" points="321.2,-173.04 325.29,-182.81 328.18,-172.62 321.2,-173.04"/>
<text text-anchor="middle" x="343" y="-151" font-family="Helvetica,sans-Serif" font-size="10.00"> gamma</text>
<text text-anchor="middle" x="343" y="-140" font-family="Helvetica,sans-Serif" font-size="10.00">bhwacc</text>
<text text-anchor="middle" x="343" y="-129" font-family="Helvetica,sans-Serif" font-size="10.00">beta</text>
<text text-anchor="middle" x="343" y="-118" font-family="Helvetica,sans-Serif" font-size="10.00">xi</text>
<text text-anchor="middle" x="343" y="-107" font-family="Helvetica,sans-Serif" font-size="10.00">z</text>
<text text-anchor="middle" x="343" y="-96" font-family="Helvetica,sans-Serif" font-size="10.00">eddfac</text>
<text text-anchor="middle" x="343" y="-85" font-family="Helvetica,sans-Serif" font-size="10.00">vscale</text>
<text text-anchor="middle" x="343" y="-74" font-family="Helvetica,sans-Serif" font-size="10.00">pts1</text>
<text text-anchor="middle" x="343" y="-63" font-family="Helvetica,sans-Serif" font-size="10.00">bwind</text>
<text text-anchor="middle" x="343" y="-52" font-family="Helvetica,sans-Serif" font-size="10.00">neta</text>
<text text-anchor="middle" x="343" y="-41" font-family="Helvetica,sans-Serif" font-size="10.00">...</text>
</g>
</g>
</svg>
