<?xml version="1.0" encoding="UTF-8" standalone="no"?>
<!DOCTYPE svg PUBLIC "-//W3C//DTD SVG 1.1//EN"
 "http://www.w3.org/Graphics/SVG/1.1/DTD/svg11.dtd">
<!-- Generated by graphviz version 2.43.0 (0)
 -->
<!-- Title: Ptcl::DataCopy Pages: 1 -->
<svg width="246pt" height="218pt"
 viewBox="0.00 0.00 246.00 218.00" xmlns="http://www.w3.org/2000/svg" xmlns:xlink="http://www.w3.org/1999/xlink">
<g id="graph0" class="graph" transform="scale(1 1) rotate(0) translate(4 214)">
<title>Ptcl::DataCopy</title>
<polygon fill="white" stroke="transparent" points="-4,4 -4,-214 242,-214 242,4 -4,4"/>
<!-- Node1 -->
<g id="node1" class="node">
<title>Node1</title>
<g id="a_node1"><a xlink:title=" ">
<polygon fill="#bfbfbf" stroke="black" points="149,-95.5 149,-114.5 238,-114.5 238,-95.5 149,-95.5"/>
<text text-anchor="middle" x="193.5" y="-102.5" font-family="Helvetica,sans-Serif" font-size="10.00">Ptcl::DataCopy</text>
</a>
</g>
</g>
<!-- Node2 -->
<g id="node2" class="node">
<title>Node2</title>
<g id="a_node2"><a xlink:href="classPtclHard.html#aad91084dde305e08b3f4ddf0934d1cc8" target="_top" xlink:title=" ">
<polygon fill="white" stroke="black" points="0.5,-190.5 0.5,-209.5 112.5,-209.5 112.5,-190.5 0.5,-190.5"/>
<text text-anchor="middle" x="56.5" y="-197.5" font-family="Helvetica,sans-Serif" font-size="10.00">PtclHard::DataCopy</text>
</a>
</g>
</g>
<!-- Node1&#45;&gt;Node2 -->
<g id="edge1" class="edge">
<title>Node1&#45;&gt;Node2</title>
<path fill="none" stroke="midnightblue" d="M178.15,-122.59C163.4,-139.65 138.98,-165.2 113,-181 106.82,-184.76 99.8,-187.89 92.88,-190.46"/>
<polygon fill="midnightblue" stroke="midnightblue" points="181.16,-124.44 184.94,-114.54 175.81,-119.93 181.16,-124.44"/>
</g>
<!-- Node3 -->
<g id="node3" class="node">
<title>Node3</title>
<g id="a_node3"><a xlink:href="classFPSoft.html#a9420395d413ae6a911f1997943cc5ec7" target="_top" xlink:title=" ">
<polygon fill="white" stroke="black" points="14.5,-152.5 14.5,-171.5 98.5,-171.5 98.5,-152.5 14.5,-152.5"/>
<text text-anchor="middle" x="56.5" y="-159.5" font-family="Helvetica,sans-Serif" font-size="10.00">FPSoft::FPSoft</text>
</a>
</g>
</g>
<!-- Node1&#45;&gt;Node3 -->
<g id="edge2" class="edge">
<title>Node1&#45;&gt;Node3</title>
<path fill="none" stroke="midnightblue" d="M164.84,-119.19C149.72,-126.71 130.54,-135.83 113,-143 104.8,-146.35 95.76,-149.62 87.4,-152.47"/>
<polygon fill="midnightblue" stroke="midnightblue" points="166.77,-122.14 174.14,-114.52 163.63,-115.88 166.77,-122.14"/>
</g>
<!-- Node4 -->
<g id="node4" class="node">
<title>Node4</title>
<g id="a_node4"><a xlink:href="classPtclHard.html#a8d3ef018896de0b4a6cbd72db0827860" target="_top" xlink:title=" ">
<polygon fill="white" stroke="black" points="0,-114.5 0,-133.5 113,-133.5 113,-114.5 0,-114.5"/>
<text text-anchor="middle" x="56.5" y="-121.5" font-family="Helvetica,sans-Serif" font-size="10.00">PtclHard::operator=</text>
</a>
</g>
</g>
<!-- Node1&#45;&gt;Node4 -->
<g id="edge3" class="edge">
<title>Node1&#45;&gt;Node4</title>
<path fill="none" stroke="midnightblue" d="M138.71,-112.57C130.39,-113.74 121.79,-114.95 113.43,-116.13"/>
<polygon fill="midnightblue" stroke="midnightblue" points="139.25,-116.03 148.67,-111.17 138.28,-109.1 139.25,-116.03"/>
</g>
<!-- Node5 -->
<g id="node5" class="node">
<title>Node5</title>
<g id="a_node5"><a xlink:href="classPtcl.html#a8b5b6e2cd1c91027e7ec17291caf44a5" target="_top" xlink:title=" ">
<polygon fill="white" stroke="black" points="11.5,-76.5 11.5,-95.5 101.5,-95.5 101.5,-76.5 11.5,-76.5"/>
<text text-anchor="middle" x="56.5" y="-83.5" font-family="Helvetica,sans-Serif" font-size="10.00">Ptcl::operator=</text>
</a>
</g>
</g>
<!-- Node1&#45;&gt;Node5 -->
<g id="edge4" class="edge">
<title>Node1&#45;&gt;Node5</title>
<path fill="none" stroke="midnightblue" d="M138.54,-97.41C126.27,-95.68 113.38,-93.86 101.57,-92.2"/>
<polygon fill="midnightblue" stroke="midnightblue" points="138.28,-100.9 148.67,-98.83 139.25,-93.97 138.28,-100.9"/>
</g>
<!-- Node6 -->
<g id="node6" class="node">
<title>Node6</title>
<g id="a_node6"><a xlink:href="classPtcl.html#a17c87ff6e69e4fb55ca6a273f6d50176" target="_top" xlink:title=" ">
<polygon fill="white" stroke="black" points="27,-38.5 27,-57.5 86,-57.5 86,-38.5 27,-38.5"/>
<text text-anchor="middle" x="56.5" y="-45.5" font-family="Helvetica,sans-Serif" font-size="10.00">Ptcl::Ptcl</text>
</a>
</g>
</g>
<!-- Node1&#45;&gt;Node6 -->
<g id="edge5" class="edge">
<title>Node1&#45;&gt;Node6</title>
<path fill="none" stroke="midnightblue" d="M164.84,-90.81C149.72,-83.29 130.54,-74.17 113,-67 104.42,-63.49 94.93,-60.08 86.25,-57.14"/>
<polygon fill="midnightblue" stroke="midnightblue" points="163.63,-94.12 174.14,-95.48 166.77,-87.86 163.63,-94.12"/>
</g>
<!-- Node7 -->
<g id="node7" class="node">
<title>Node7</title>
<g id="a_node7"><a xlink:href="classPtclHard.html#a765d027284e18911bae91d6a83d4471c" target="_top" xlink:title=" ">
<polygon fill="white" stroke="black" points="4,-0.5 4,-19.5 109,-19.5 109,-0.5 4,-0.5"/>
<text text-anchor="middle" x="56.5" y="-7.5" font-family="Helvetica,sans-Serif" font-size="10.00">PtclHard::PtclHard</text>
</a>
</g>
</g>
<!-- Node1&#45;&gt;Node7 -->
<g id="edge6" class="edge">
<title>Node1&#45;&gt;Node7</title>
<path fill="none" stroke="midnightblue" d="M178.15,-87.41C163.4,-70.35 138.98,-44.8 113,-29 106.82,-25.24 99.8,-22.11 92.88,-19.54"/>
<polygon fill="midnightblue" stroke="midnightblue" points="175.81,-90.07 184.94,-95.46 181.16,-85.56 175.81,-90.07"/>
</g>
</g>
</svg>
