<?xml version="1.0" encoding="UTF-8" standalone="no"?>
<!DOCTYPE svg PUBLIC "-//W3C//DTD SVG 1.1//EN"
 "http://www.w3.org/Graphics/SVG/1.1/DTD/svg11.dtd">
<!-- Generated by graphviz version 2.43.0 (0)
 -->
<!-- Title: ArtificialParticleManager::readBinary Pages: 1 -->
<svg width="399pt" height="39pt"
 viewBox="0.00 0.00 399.00 39.00" xmlns="http://www.w3.org/2000/svg" xmlns:xlink="http://www.w3.org/1999/xlink">
<g id="graph0" class="graph" transform="scale(1 1) rotate(0) translate(4 35)">
<title>ArtificialParticleManager::readBinary</title>
<polygon fill="white" stroke="transparent" points="-4,4 -4,-35 395,-35 395,4 -4,4"/>
<!-- Node1 -->
<g id="node1" class="node">
<title>Node1</title>
<g id="a_node1"><a xlink:title="read class data to file with binary format">
<polygon fill="#bfbfbf" stroke="black" points="255,-0.5 255,-30.5 391,-30.5 391,-0.5 255,-0.5"/>
<text text-anchor="start" x="263" y="-18.5" font-family="Helvetica,sans-Serif" font-size="10.00">ArtificialParticleManager</text>
<text text-anchor="middle" x="323" y="-7.5" font-family="Helvetica,sans-Serif" font-size="10.00">::readBinary</text>
</a>
</g>
</g>
<!-- Node2 -->
<g id="node2" class="node">
<title>Node2</title>
<g id="a_node2"><a xlink:href="classHardManager.html#aa779d00ba62155b0bb7da852ff411b56" target="_top" xlink:title="read class data to file with binary format">
<polygon fill="white" stroke="black" points="77,-6 77,-25 219,-25 219,-6 77,-6"/>
<text text-anchor="middle" x="148" y="-13" font-family="Helvetica,sans-Serif" font-size="10.00">HardManager::readBinary</text>
</a>
</g>
</g>
<!-- Node1&#45;&gt;Node2 -->
<g id="edge1" class="edge">
<title>Node1&#45;&gt;Node2</title>
<path fill="none" stroke="midnightblue" d="M244.4,-15.5C235.95,-15.5 227.4,-15.5 219.05,-15.5"/>
<polygon fill="midnightblue" stroke="midnightblue" points="244.62,-19 254.62,-15.5 244.62,-12 244.62,-19"/>
</g>
<!-- Node3 -->
<g id="node3" class="node">
<title>Node3</title>
<g id="a_node3"><a xlink:href="hard__debug_8cxx.html#a3c04138a5bfe5d72780bb7e82a18e627" target="_top" xlink:title=" ">
<polygon fill="white" stroke="black" points="0,-6 0,-25 41,-25 41,-6 0,-6"/>
<text text-anchor="middle" x="20.5" y="-13" font-family="Helvetica,sans-Serif" font-size="10.00">main</text>
</a>
</g>
</g>
<!-- Node2&#45;&gt;Node3 -->
<g id="edge2" class="edge">
<title>Node2&#45;&gt;Node3</title>
<path fill="none" stroke="midnightblue" d="M66.88,-15.5C57.41,-15.5 48.51,-15.5 41.15,-15.5"/>
<polygon fill="midnightblue" stroke="midnightblue" points="66.91,-19 76.91,-15.5 66.91,-12 66.91,-19"/>
</g>
</g>
</svg>
