<?xml version="1.0" encoding="UTF-8" standalone="no"?>
<!DOCTYPE svg PUBLIC "-//W3C//DTD SVG 1.1//EN"
 "http://www.w3.org/Graphics/SVG/1.1/DTD/svg11.dtd">
<!-- Generated by graphviz version 2.43.0 (0)
 -->
<!-- Title: FRWModel::updateAwithDtmin Pages: 1 -->
<!--zoomable 142 -->
<svg id="main" version="1.1" xmlns="http://www.w3.org/2000/svg" xmlns:xlink="http://www.w3.org/1999/xlink" xml:space="preserve" onload="init(evt)">
<style type="text/css"><![CDATA[
.edge:hover path { stroke: red; }
.edge:hover polygon { stroke: red; fill: red; }
]]></style>
<script type="text/javascript"><![CDATA[
var edges = document.getElementsByTagName('g');
if (edges && edges.length) {
  for (var i=0;i<edges.length;i++) {
    if (edges[i].id.substr(0,4)=='edge') {
      edges[i].setAttribute('class','edge');
    }
  }
}
]]></script>
        <defs>
                <circle id="rim" cx="0" cy="0" r="7"/>
                <circle id="rim2" cx="0" cy="0" r="3.5"/>
                <g id="zoomPlus">
                        <use xlink:href="#rim" fill="#404040">
                                <set attributeName="fill" to="#808080" begin="zoomplus.mouseover" end="zoomplus.mouseout"/>
                        </use>
                        <path d="M-4,0h8M0,-4v8" fill="none" stroke="white" stroke-width="1.5" pointer-events="none"/>
                </g>
                <g id="zoomMin">
                        <use xlink:href="#rim" fill="#404040">
                                <set attributeName="fill" to="#808080" begin="zoomminus.mouseover" end="zoomminus.mouseout"/>
                        </use>
                        <path d="M-4,0h8" fill="none" stroke="white" stroke-width="1.5" pointer-events="none"/>
                </g>
                <g id="dirArrow">
                        <path fill="none" stroke="white" stroke-width="1.5" d="M0,-3.0v7 M-2.5,-0.5L0,-3.0L2.5,-0.5"/>
                </g>
               <g id="resetDef">
                       <use xlink:href="#rim2" fill="#404040">
                               <set attributeName="fill" to="#808080" begin="reset.mouseover" end="reset.mouseout"/>
                       </use>
               </g>
        </defs>

<script type="text/javascript">
var viewWidth = 856;
var viewHeight = 142;
var sectionId = 'dynsection-13';
</script>
<script xlink:href="svgpan.js"/>
<svg id="graph" class="graph">
<g id="viewport">
<title>FRWModel::updateAwithDtmin</title>
<polygon fill="white" stroke="transparent" points="-4,4 -4,-138 852,-138 852,4 -4,4"/>
<!-- Node1 -->
<g id="node1" class="node">
<title>Node1</title>
<g id="a_node1"><a xlink:title="update scale factor with maximum time step dt_max (first order Euler method)">
<polygon fill="#bfbfbf" stroke="black" points="0,-57.5 0,-76.5 167,-76.5 167,-57.5 0,-57.5"/>
<text text-anchor="middle" x="83.5" y="-64.5" font-family="Helvetica,sans-Serif" font-size="10.00">FRWModel::updateAwithDtmin</text>
</a>
</g>
</g>
<!-- Node2 -->
<g id="node2" class="node">
<title>Node2</title>
<g id="a_node2"><a xlink:href="classFRWModel.html#a348b0ad06e5e83855a039ab5179806bc" target="_top" xlink:title="update scale factor by time step _dt (first order Euler method)">
<polygon fill="white" stroke="black" points="203,-57.5 203,-76.5 319,-76.5 319,-57.5 203,-57.5"/>
<text text-anchor="middle" x="261" y="-64.5" font-family="Helvetica,sans-Serif" font-size="10.00">FRWModel::updateA</text>
</a>
</g>
</g>
<!-- Node1&#45;&gt;Node2 -->
<g id="edge1" class="edge">
<title>Node1&#45;&gt;Node2</title>
<path fill="none" stroke="midnightblue" d="M167.11,-67C175.71,-67 184.37,-67 192.77,-67"/>
<polygon fill="midnightblue" stroke="midnightblue" points="192.85,-70.5 202.85,-67 192.85,-63.5 192.85,-70.5"/>
</g>
<!-- Node3 -->
<g id="node3" class="node">
<title>Node3</title>
<g id="a_node3"><a xlink:href="classFRWModel.html#abb7a4dcaa3256b6365ef1cc5e9f5dba4" target="_top" xlink:title="calculate da/dt">
<polygon fill="white" stroke="black" points="355,-57.5 355,-76.5 472,-76.5 472,-57.5 355,-57.5"/>
<text text-anchor="middle" x="413.5" y="-64.5" font-family="Helvetica,sans-Serif" font-size="10.00">FRWModel::calcAdot</text>
</a>
</g>
</g>
<!-- Node2&#45;&gt;Node3 -->
<g id="edge2" class="edge">
<title>Node2&#45;&gt;Node3</title>
<path fill="none" stroke="midnightblue" d="M319.33,-67C327.59,-67 336.17,-67 344.62,-67"/>
<polygon fill="midnightblue" stroke="midnightblue" points="344.83,-70.5 354.83,-67 344.83,-63.5 344.83,-70.5"/>
</g>
<!-- Node4 -->
<g id="node4" class="node">
<title>Node4</title>
<g id="a_node4"><a xlink:href="classFRWModel.html#a361381626bcc60640134c25e6c7357bb" target="_top" xlink:title=" ">
<polygon fill="white" stroke="black" points="508,-57.5 508,-76.5 636,-76.5 636,-57.5 508,-57.5"/>
<text text-anchor="middle" x="572" y="-64.5" font-family="Helvetica,sans-Serif" font-size="10.00">FRWModel::getDensity</text>
</a>
</g>
</g>
<!-- Node3&#45;&gt;Node4 -->
<g id="edge3" class="edge">
<title>Node3&#45;&gt;Node4</title>
<path fill="none" stroke="midnightblue" d="M472.33,-67C480.65,-67 489.31,-67 497.88,-67"/>
<polygon fill="midnightblue" stroke="midnightblue" points="497.88,-70.5 507.88,-67 497.88,-63.5 497.88,-70.5"/>
</g>
<!-- Node5 -->
<g id="node5" class="node">
<title>Node5</title>
<g id="a_node5"><a xlink:href="classFRWModel.html#ac639a14eba5f454ecd905f1e907c8ee4" target="_top" xlink:title=" ">
<polygon fill="white" stroke="black" points="672,-114.5 672,-133.5 848,-133.5 848,-114.5 672,-114.5"/>
<text text-anchor="middle" x="760" y="-121.5" font-family="Helvetica,sans-Serif" font-size="10.00">FRWModel::getCurvatureDensity</text>
</a>
</g>
</g>
<!-- Node4&#45;&gt;Node5 -->
<g id="edge4" class="edge">
<title>Node4&#45;&gt;Node5</title>
<path fill="none" stroke="midnightblue" d="M595.08,-76.58C614.92,-84.93 645.01,-96.93 672,-105 680.7,-107.6 689.99,-110.01 699.14,-112.18"/>
<polygon fill="midnightblue" stroke="midnightblue" points="698.45,-115.61 708.98,-114.43 700.01,-108.79 698.45,-115.61"/>
</g>
<!-- Node6 -->
<g id="node6" class="node">
<title>Node6</title>
<g id="a_node6"><a xlink:href="classFRWModel.html#a747610082f8b89bc7494512925f3d28a" target="_top" xlink:title=" ">
<polygon fill="white" stroke="black" points="679,-76.5 679,-95.5 841,-95.5 841,-76.5 679,-76.5"/>
<text text-anchor="middle" x="760" y="-83.5" font-family="Helvetica,sans-Serif" font-size="10.00">FRWModel::getEnergyDensity</text>
</a>
</g>
</g>
<!-- Node4&#45;&gt;Node6 -->
<g id="edge5" class="edge">
<title>Node4&#45;&gt;Node6</title>
<path fill="none" stroke="midnightblue" d="M636.23,-73.46C646.71,-74.53 657.76,-75.66 668.75,-76.78"/>
<polygon fill="midnightblue" stroke="midnightblue" points="668.52,-80.28 678.82,-77.81 669.23,-73.31 668.52,-80.28"/>
</g>
<!-- Node7 -->
<g id="node7" class="node">
<title>Node7</title>
<g id="a_node7"><a xlink:href="classFRWModel.html#a4e998f4739ff1df966beca89c1e393ed" target="_top" xlink:title=" ">
<polygon fill="white" stroke="black" points="679.5,-38.5 679.5,-57.5 840.5,-57.5 840.5,-38.5 679.5,-38.5"/>
<text text-anchor="middle" x="760" y="-45.5" font-family="Helvetica,sans-Serif" font-size="10.00">FRWModel::getMatterDensity</text>
</a>
</g>
</g>
<!-- Node4&#45;&gt;Node7 -->
<g id="edge6" class="edge">
<title>Node4&#45;&gt;Node7</title>
<path fill="none" stroke="midnightblue" d="M636.23,-60.54C646.87,-59.45 658.1,-58.31 669.26,-57.17"/>
<polygon fill="midnightblue" stroke="midnightblue" points="669.88,-60.62 679.48,-56.12 669.17,-53.66 669.88,-60.62"/>
</g>
<!-- Node8 -->
<g id="node8" class="node">
<title>Node8</title>
<g id="a_node8"><a xlink:href="classFRWModel.html#a80544a319035cb9fe253f2dee3d63d52" target="_top" xlink:title=" ">
<polygon fill="white" stroke="black" points="672.5,-0.5 672.5,-19.5 847.5,-19.5 847.5,-0.5 672.5,-0.5"/>
<text text-anchor="middle" x="760" y="-7.5" font-family="Helvetica,sans-Serif" font-size="10.00">FRWModel::getRadiationDensity</text>
</a>
</g>
</g>
<!-- Node4&#45;&gt;Node8 -->
<g id="edge7" class="edge">
<title>Node4&#45;&gt;Node8</title>
<path fill="none" stroke="midnightblue" d="M595.08,-57.42C614.92,-49.07 645.01,-37.07 672,-29 680.7,-26.4 689.99,-23.99 699.14,-21.82"/>
<polygon fill="midnightblue" stroke="midnightblue" points="700.01,-25.21 708.98,-19.57 698.45,-18.39 700.01,-25.21"/>
</g>
</g>
</svg>
        <g id="navigator" transform="translate(0 0)" fill="#404254">
                <rect fill="#f2f5e9" fill-opacity="0.5" stroke="#606060" stroke-width=".5" x="0" y="0" width="60" height="60"/>
                <use id="zoomplus" xlink:href="#zoomPlus" x="17" y="9" onmousedown="handleZoom(evt,'in')"/>
                <use id="zoomminus" xlink:href="#zoomMin" x="42" y="9" onmousedown="handleZoom(evt,'out')"/>
                <use id="reset" xlink:href="#resetDef" x="30" y="36" onmousedown="handleReset()"/>
                <g id="arrowUp" xlink:href="#dirArrow" transform="translate(30 24)" onmousedown="handlePan(0,-1)">
                  <use xlink:href="#rim" fill="#404040">
                        <set attributeName="fill" to="#808080" begin="arrowUp.mouseover" end="arrowUp.mouseout"/>
                  </use>
                  <path fill="none" stroke="white" stroke-width="1.5" d="M0,-3.0v7 M-2.5,-0.5L0,-3.0L2.5,-0.5"/>
                </g>
                <g id="arrowRight" xlink:href="#dirArrow" transform="rotate(90) translate(36 -43)" onmousedown="handlePan(1,0)">
                  <use xlink:href="#rim" fill="#404040">
                        <set attributeName="fill" to="#808080" begin="arrowRight.mouseover" end="arrowRight.mouseout"/>
                  </use>
                  <path fill="none" stroke="white" stroke-width="1.5" d="M0,-3.0v7 M-2.5,-0.5L0,-3.0L2.5,-0.5"/>
                </g>
                <g id="arrowDown" xlink:href="#dirArrow" transform="rotate(180) translate(-30 -48)" onmousedown="handlePan(0,1)">
                  <use xlink:href="#rim" fill="#404040">
                        <set attributeName="fill" to="#808080" begin="arrowDown.mouseover" end="arrowDown.mouseout"/>
                  </use>
                  <path fill="none" stroke="white" stroke-width="1.5" d="M0,-3.0v7 M-2.5,-0.5L0,-3.0L2.5,-0.5"/>
                </g>
                <g id="arrowLeft" xlink:href="#dirArrow" transform="rotate(270) translate(-36 17)" onmousedown="handlePan(-1,0)">
                  <use xlink:href="#rim" fill="#404040">
                        <set attributeName="fill" to="#808080" begin="arrowLeft.mouseover" end="arrowLeft.mouseout"/>
                  </use>
                  <path fill="none" stroke="white" stroke-width="1.5" d="M0,-3.0v7 M-2.5,-0.5L0,-3.0L2.5,-0.5"/>
                </g>
        </g>
        <svg viewBox="0 0 15 15" width="100%" height="30px" preserveAspectRatio="xMaxYMin meet">
         <g id="arrow_out" transform="scale(0.3 0.3)">
          <a xlink:href="classFRWModel_a904c7a9d484ab006a8bbbc3f557f6e45_cgraph_org.svg" target="_base">
           <rect id="button" ry="5" rx="5" y="6" x="6" height="38" width="38"
                fill="#f2f5e9" fill-opacity="0.5" stroke="#606060" stroke-width="1.0"/>
           <path id="arrow"
             d="M 11.500037,31.436501 C 11.940474,20.09759 22.043105,11.32322 32.158766,21.979434 L 37.068811,17.246167 C 37.068811,17.246167 37.088388,32 37.088388,32 L 22.160133,31.978069 C 22.160133,31.978069 26.997745,27.140456 26.997745,27.140456 C 18.528582,18.264221 13.291696,25.230495 11.500037,31.436501 z"
             style="fill:#404040;"/>
          </a>
         </g>
        </svg>
</svg>
