<?xml version="1.0" encoding="UTF-8" standalone="no"?>
<!DOCTYPE svg PUBLIC "-//W3C//DTD SVG 1.1//EN"
 "http://www.w3.org/Graphics/SVG/1.1/DTD/svg11.dtd">
<!-- Generated by graphviz version 2.43.0 (0)
 -->
<!-- Title: cluster_list.hpp Pages: 1 -->
<!--zoomable 252 -->
<svg id="main" version="1.1" xmlns="http://www.w3.org/2000/svg" xmlns:xlink="http://www.w3.org/1999/xlink" xml:space="preserve" onload="init(evt)">
<style type="text/css"><![CDATA[
.edge:hover path { stroke: red; }
.edge:hover polygon { stroke: red; fill: red; }
]]></style>
<script type="text/javascript"><![CDATA[
var edges = document.getElementsByTagName('g');
if (edges && edges.length) {
  for (var i=0;i<edges.length;i++) {
    if (edges[i].id.substr(0,4)=='edge') {
      edges[i].setAttribute('class','edge');
    }
  }
}
]]></script>
        <defs>
                <circle id="rim" cx="0" cy="0" r="7"/>
                <circle id="rim2" cx="0" cy="0" r="3.5"/>
                <g id="zoomPlus">
                        <use xlink:href="#rim" fill="#404040">
                                <set attributeName="fill" to="#808080" begin="zoomplus.mouseover" end="zoomplus.mouseout"/>
                        </use>
                        <path d="M-4,0h8M0,-4v8" fill="none" stroke="white" stroke-width="1.5" pointer-events="none"/>
                </g>
                <g id="zoomMin">
                        <use xlink:href="#rim" fill="#404040">
                                <set attributeName="fill" to="#808080" begin="zoomminus.mouseover" end="zoomminus.mouseout"/>
                        </use>
                        <path d="M-4,0h8" fill="none" stroke="white" stroke-width="1.5" pointer-events="none"/>
                </g>
                <g id="dirArrow">
                        <path fill="none" stroke="white" stroke-width="1.5" d="M0,-3.0v7 M-2.5,-0.5L0,-3.0L2.5,-0.5"/>
                </g>
               <g id="resetDef">
                       <use xlink:href="#rim2" fill="#404040">
                               <set attributeName="fill" to="#808080" begin="reset.mouseover" end="reset.mouseout"/>
                       </use>
               </g>
        </defs>

<script type="text/javascript">
var viewWidth = 653;
var viewHeight = 252;
var sectionId = 'dynsection-0';
</script>
<script xlink:href="svgpan.js"/>
<svg id="graph" class="graph">
<g id="viewport">
<title>cluster_list.hpp</title>
<polygon fill="white" stroke="transparent" points="-4,4 -4,-248 648.96,-248 648.96,4 -4,4"/>
<!-- Node1 -->
<g id="node1" class="node">
<title>Node1</title>
<g id="a_node1"><a xlink:title=" ">
<polygon fill="#bfbfbf" stroke="black" points="99.37,-224.5 99.37,-243.5 190.37,-243.5 190.37,-224.5 99.37,-224.5"/>
<text text-anchor="middle" x="144.87" y="-231.5" font-family="Helvetica,sans-Serif" font-size="10.00">cluster_list.hpp</text>
</a>
</g>
</g>
<!-- Node2 -->
<g id="node2" class="node">
<title>Node2</title>
<g id="a_node2"><a xlink:title=" ">
<polygon fill="white" stroke="#bfbfbf" points="33.37,-112.5 33.37,-131.5 158.37,-131.5 158.37,-112.5 33.37,-112.5"/>
<text text-anchor="middle" x="95.87" y="-119.5" font-family="Helvetica,sans-Serif" font-size="10.00">particle_simulator.hpp</text>
</a>
</g>
</g>
<!-- Node1&#45;&gt;Node2 -->
<g id="edge1" class="edge">
<title>Node1&#45;&gt;Node2</title>
<path fill="none" stroke="midnightblue" d="M153.72,-224.29C165.57,-211.52 183.88,-187.18 172.87,-168 164.26,-152.99 148.48,-142.5 133.44,-135.46"/>
<polygon fill="midnightblue" stroke="midnightblue" points="134.82,-132.24 124.25,-131.51 132.05,-138.67 134.82,-132.24"/>
</g>
<!-- Node3 -->
<g id="node3" class="node">
<title>Node3</title>
<g id="a_node3"><a xlink:title=" ">
<polygon fill="white" stroke="#bfbfbf" points="14.37,-168.5 14.37,-187.5 107.37,-187.5 107.37,-168.5 14.37,-168.5"/>
<text text-anchor="middle" x="60.87" y="-175.5" font-family="Helvetica,sans-Serif" font-size="10.00">unordered_map</text>
</a>
</g>
</g>
<!-- Node1&#45;&gt;Node3 -->
<g id="edge2" class="edge">
<title>Node1&#45;&gt;Node3</title>
<path fill="none" stroke="midnightblue" d="M131.38,-224.32C118.27,-215.9 98.16,-202.97 82.77,-193.07"/>
<polygon fill="midnightblue" stroke="midnightblue" points="84.64,-190.12 74.34,-187.65 80.86,-196.01 84.64,-190.12"/>
</g>
<!-- Node4 -->
<g id="node4" class="node">
<title>Node4</title>
<g id="a_node4"><a xlink:title=" ">
<polygon fill="white" stroke="#bfbfbf" points="125.87,-168.5 125.87,-187.5 163.87,-187.5 163.87,-168.5 125.87,-168.5"/>
<text text-anchor="middle" x="144.87" y="-175.5" font-family="Helvetica,sans-Serif" font-size="10.00">map</text>
</a>
</g>
</g>
<!-- Node1&#45;&gt;Node4 -->
<g id="edge3" class="edge">
<title>Node1&#45;&gt;Node4</title>
<path fill="none" stroke="midnightblue" d="M144.87,-224.08C144.87,-217.01 144.87,-206.86 144.87,-197.99"/>
<polygon fill="midnightblue" stroke="midnightblue" points="148.37,-197.75 144.87,-187.75 141.37,-197.75 148.37,-197.75"/>
</g>
<!-- Node5 -->
<g id="node5" class="node">
<title>Node5</title>
<g id="a_node5"><a xlink:href="ptcl_8hpp.html" target="_top" xlink:title=" ">
<polygon fill="white" stroke="black" points="219.87,-168.5 219.87,-187.5 275.87,-187.5 275.87,-168.5 219.87,-168.5"/>
<text text-anchor="middle" x="247.87" y="-175.5" font-family="Helvetica,sans-Serif" font-size="10.00">ptcl.hpp</text>
</a>
</g>
</g>
<!-- Node1&#45;&gt;Node5 -->
<g id="edge4" class="edge">
<title>Node1&#45;&gt;Node5</title>
<path fill="none" stroke="midnightblue" d="M161.42,-224.32C177.87,-215.7 203.31,-202.36 222.34,-192.39"/>
<polygon fill="midnightblue" stroke="midnightblue" points="224.14,-195.4 231.37,-187.65 220.89,-189.2 224.14,-195.4"/>
</g>
<!-- Node12 -->
<g id="node12" class="node">
<title>Node12</title>
<g id="a_node12"><a xlink:title=" ">
<polygon fill="white" stroke="#bfbfbf" points="186.87,-0.5 186.87,-19.5 314.87,-19.5 314.87,-0.5 186.87,-0.5"/>
<text text-anchor="middle" x="250.87" y="-7.5" font-family="Helvetica,sans-Serif" font-size="10.00">Common/binary_tree.h</text>
</a>
</g>
</g>
<!-- Node1&#45;&gt;Node12 -->
<g id="edge17" class="edge">
<title>Node1&#45;&gt;Node12</title>
<path fill="none" stroke="midnightblue" d="M99.36,-231.64C67.26,-228.01 26.31,-217.4 4.87,-188 -9.17,-168.73 10.53,-128.49 23.87,-112 65.55,-60.49 138.94,-34.44 190.98,-21.83"/>
<polygon fill="midnightblue" stroke="midnightblue" points="191.81,-25.23 200.76,-19.56 190.22,-18.41 191.81,-25.23"/>
</g>
<!-- Node5&#45;&gt;Node2 -->
<g id="edge5" class="edge">
<title>Node5&#45;&gt;Node2</title>
<path fill="none" stroke="midnightblue" d="M223.79,-168.44C198.33,-159.4 157.98,-145.06 129.42,-134.92"/>
<polygon fill="midnightblue" stroke="midnightblue" points="130.44,-131.57 119.85,-131.52 128.1,-138.16 130.44,-131.57"/>
</g>
<!-- Node6 -->
<g id="node6" class="node">
<title>Node6</title>
<g id="a_node6"><a xlink:href="particle__base_8hpp.html" target="_top" xlink:title=" ">
<polygon fill="white" stroke="black" points="176.37,-112.5 176.37,-131.5 279.37,-131.5 279.37,-112.5 176.37,-112.5"/>
<text text-anchor="middle" x="227.87" y="-119.5" font-family="Helvetica,sans-Serif" font-size="10.00">particle_base.hpp</text>
</a>
</g>
</g>
<!-- Node5&#45;&gt;Node6 -->
<g id="edge6" class="edge">
<title>Node5&#45;&gt;Node6</title>
<path fill="none" stroke="midnightblue" d="M244.57,-168.08C241.89,-160.85 238.03,-150.41 234.69,-141.4"/>
<polygon fill="midnightblue" stroke="midnightblue" points="237.87,-139.91 231.12,-131.75 231.31,-142.34 237.87,-139.91"/>
</g>
<!-- Node7 -->
<g id="node7" class="node">
<title>Node7</title>
<g id="a_node7"><a xlink:href="changeover_8hpp.html" target="_top" xlink:title=" ">
<polygon fill="white" stroke="black" points="487.87,-112.5 487.87,-131.5 581.87,-131.5 581.87,-112.5 487.87,-112.5"/>
<text text-anchor="middle" x="534.87" y="-119.5" font-family="Helvetica,sans-Serif" font-size="10.00">changeover.hpp</text>
</a>
</g>
</g>
<!-- Node5&#45;&gt;Node7 -->
<g id="edge7" class="edge">
<title>Node5&#45;&gt;Node7</title>
<path fill="none" stroke="midnightblue" d="M275.92,-171.72C323.01,-162.86 418.82,-144.84 479.77,-133.37"/>
<polygon fill="midnightblue" stroke="midnightblue" points="480.43,-136.8 489.61,-131.52 479.14,-129.93 480.43,-136.8"/>
</g>
<!-- Node11 -->
<g id="node11" class="node">
<title>Node11</title>
<g id="a_node11"><a xlink:href="artificial__particles_8hpp.html" target="_top" xlink:title=" ">
<polygon fill="white" stroke="black" points="297.37,-112.5 297.37,-131.5 422.37,-131.5 422.37,-112.5 297.37,-112.5"/>
<text text-anchor="middle" x="359.87" y="-119.5" font-family="Helvetica,sans-Serif" font-size="10.00">artificial_particles.hpp</text>
</a>
</g>
</g>
<!-- Node5&#45;&gt;Node11 -->
<g id="edge11" class="edge">
<title>Node5&#45;&gt;Node11</title>
<path fill="none" stroke="midnightblue" d="M265.87,-168.32C283.91,-159.62 311.92,-146.12 332.68,-136.11"/>
<polygon fill="midnightblue" stroke="midnightblue" points="334.44,-139.15 341.92,-131.65 331.4,-132.84 334.44,-139.15"/>
</g>
<!-- Node8 -->
<g id="node8" class="node">
<title>Node8</title>
<g id="a_node8"><a xlink:title=" ">
<polygon fill="white" stroke="#bfbfbf" points="480.87,-0.5 480.87,-19.5 540.87,-19.5 540.87,-0.5 480.87,-0.5"/>
<text text-anchor="middle" x="510.87" y="-7.5" font-family="Helvetica,sans-Serif" font-size="10.00">iostream</text>
</a>
</g>
</g>
<!-- Node7&#45;&gt;Node8 -->
<g id="edge8" class="edge">
<title>Node7&#45;&gt;Node8</title>
<path fill="none" stroke="midnightblue" d="M575.78,-112.42C613.18,-102.6 659.86,-84.14 639.87,-56 619.91,-27.89 581.03,-17.19 551.14,-13.2"/>
<polygon fill="midnightblue" stroke="midnightblue" points="551.33,-9.7 541,-12.05 550.54,-16.65 551.33,-9.7"/>
</g>
<!-- Node9 -->
<g id="node9" class="node">
<title>Node9</title>
<g id="a_node9"><a xlink:title=" ">
<polygon fill="white" stroke="#bfbfbf" points="458.87,-56.5 458.87,-75.5 514.87,-75.5 514.87,-56.5 458.87,-56.5"/>
<text text-anchor="middle" x="486.87" y="-63.5" font-family="Helvetica,sans-Serif" font-size="10.00">iomanip</text>
</a>
</g>
</g>
<!-- Node7&#45;&gt;Node9 -->
<g id="edge9" class="edge">
<title>Node7&#45;&gt;Node9</title>
<path fill="none" stroke="midnightblue" d="M526.95,-112.08C520.03,-104.3 509.81,-92.8 501.42,-83.37"/>
<polygon fill="midnightblue" stroke="midnightblue" points="503.91,-80.9 494.65,-75.75 498.68,-85.55 503.91,-80.9"/>
</g>
<!-- Node10 -->
<g id="node10" class="node">
<title>Node10</title>
<g id="a_node10"><a xlink:title=" ">
<polygon fill="white" stroke="#bfbfbf" points="532.87,-56.5 532.87,-75.5 630.87,-75.5 630.87,-56.5 532.87,-56.5"/>
<text text-anchor="middle" x="581.87" y="-63.5" font-family="Helvetica,sans-Serif" font-size="10.00">Common/Float.h</text>
</a>
</g>
</g>
<!-- Node7&#45;&gt;Node10 -->
<g id="edge10" class="edge">
<title>Node7&#45;&gt;Node10</title>
<path fill="none" stroke="midnightblue" d="M542.64,-112.08C549.41,-104.3 559.42,-92.8 567.63,-83.37"/>
<polygon fill="midnightblue" stroke="midnightblue" points="570.33,-85.59 574.26,-75.75 565.05,-81 570.33,-85.59"/>
</g>
<!-- Node11&#45;&gt;Node12 -->
<g id="edge12" class="edge">
<title>Node11&#45;&gt;Node12</title>
<path fill="none" stroke="midnightblue" d="M329.55,-112.47C310.22,-105.58 286.05,-94 270.87,-76 259.82,-62.9 254.87,-43.75 252.66,-29.63"/>
<polygon fill="midnightblue" stroke="midnightblue" points="256.12,-29.08 251.41,-19.59 249.17,-29.95 256.12,-29.08"/>
</g>
<!-- Node13 -->
<g id="node13" class="node">
<title>Node13</title>
<g id="a_node13"><a xlink:href="tidal__tensor_8hpp.html" target="_top" xlink:title=" ">
<polygon fill="white" stroke="black" points="127.37,-56.5 127.37,-75.5 222.37,-75.5 222.37,-56.5 127.37,-56.5"/>
<text text-anchor="middle" x="174.87" y="-63.5" font-family="Helvetica,sans-Serif" font-size="10.00">tidal_tensor.hpp</text>
</a>
</g>
</g>
<!-- Node11&#45;&gt;Node13 -->
<g id="edge13" class="edge">
<title>Node11&#45;&gt;Node13</title>
<path fill="none" stroke="midnightblue" d="M330.56,-112.44C299.03,-103.24 248.74,-88.56 213.89,-78.39"/>
<polygon fill="midnightblue" stroke="midnightblue" points="214.63,-74.96 204.05,-75.52 212.67,-81.68 214.63,-74.96"/>
</g>
<!-- Node14 -->
<g id="node14" class="node">
<title>Node14</title>
<g id="a_node14"><a xlink:href="pseudoparticle__multipole_8hpp.html" target="_top" xlink:title=" ">
<polygon fill="white" stroke="black" points="279.37,-56.5 279.37,-75.5 440.37,-75.5 440.37,-56.5 279.37,-56.5"/>
<text text-anchor="middle" x="359.87" y="-63.5" font-family="Helvetica,sans-Serif" font-size="10.00">pseudoparticle_multipole.hpp</text>
</a>
</g>
</g>
<!-- Node11&#45;&gt;Node14 -->
<g id="edge14" class="edge">
<title>Node11&#45;&gt;Node14</title>
<path fill="none" stroke="midnightblue" d="M359.87,-112.08C359.87,-105.01 359.87,-94.86 359.87,-85.99"/>
<polygon fill="midnightblue" stroke="midnightblue" points="363.37,-85.75 359.87,-75.75 356.37,-85.75 363.37,-85.75"/>
</g>
<!-- Node14&#45;&gt;Node8 -->
<g id="edge16" class="edge">
<title>Node14&#45;&gt;Node8</title>
<path fill="none" stroke="midnightblue" d="M383.8,-56.44C409.09,-47.4 449.18,-33.06 477.55,-22.92"/>
<polygon fill="midnightblue" stroke="midnightblue" points="478.82,-26.18 487.06,-19.52 476.47,-19.59 478.82,-26.18"/>
</g>
<!-- Node14&#45;&gt;Node12 -->
<g id="edge15" class="edge">
<title>Node14&#45;&gt;Node12</title>
<path fill="none" stroke="midnightblue" d="M342.36,-56.32C324.8,-47.62 297.54,-34.12 277.34,-24.11"/>
<polygon fill="midnightblue" stroke="midnightblue" points="278.86,-20.96 268.34,-19.65 275.75,-27.23 278.86,-20.96"/>
</g>
</g>
</svg>
        <g id="navigator" transform="translate(0 0)" fill="#404254">
                <rect fill="#f2f5e9" fill-opacity="0.5" stroke="#606060" stroke-width=".5" x="0" y="0" width="60" height="60"/>
                <use id="zoomplus" xlink:href="#zoomPlus" x="17" y="9" onmousedown="handleZoom(evt,'in')"/>
                <use id="zoomminus" xlink:href="#zoomMin" x="42" y="9" onmousedown="handleZoom(evt,'out')"/>
                <use id="reset" xlink:href="#resetDef" x="30" y="36" onmousedown="handleReset()"/>
                <g id="arrowUp" xlink:href="#dirArrow" transform="translate(30 24)" onmousedown="handlePan(0,-1)">
                  <use xlink:href="#rim" fill="#404040">
                        <set attributeName="fill" to="#808080" begin="arrowUp.mouseover" end="arrowUp.mouseout"/>
                  </use>
                  <path fill="none" stroke="white" stroke-width="1.5" d="M0,-3.0v7 M-2.5,-0.5L0,-3.0L2.5,-0.5"/>
                </g>
                <g id="arrowRight" xlink:href="#dirArrow" transform="rotate(90) translate(36 -43)" onmousedown="handlePan(1,0)">
                  <use xlink:href="#rim" fill="#404040">
                        <set attributeName="fill" to="#808080" begin="arrowRight.mouseover" end="arrowRight.mouseout"/>
                  </use>
                  <path fill="none" stroke="white" stroke-width="1.5" d="M0,-3.0v7 M-2.5,-0.5L0,-3.0L2.5,-0.5"/>
                </g>
                <g id="arrowDown" xlink:href="#dirArrow" transform="rotate(180) translate(-30 -48)" onmousedown="handlePan(0,1)">
                  <use xlink:href="#rim" fill="#404040">
                        <set attributeName="fill" to="#808080" begin="arrowDown.mouseover" end="arrowDown.mouseout"/>
                  </use>
                  <path fill="none" stroke="white" stroke-width="1.5" d="M0,-3.0v7 M-2.5,-0.5L0,-3.0L2.5,-0.5"/>
                </g>
                <g id="arrowLeft" xlink:href="#dirArrow" transform="rotate(270) translate(-36 17)" onmousedown="handlePan(-1,0)">
                  <use xlink:href="#rim" fill="#404040">
                        <set attributeName="fill" to="#808080" begin="arrowLeft.mouseover" end="arrowLeft.mouseout"/>
                  </use>
                  <path fill="none" stroke="white" stroke-width="1.5" d="M0,-3.0v7 M-2.5,-0.5L0,-3.0L2.5,-0.5"/>
                </g>
        </g>
        <svg viewBox="0 0 15 15" width="100%" height="30px" preserveAspectRatio="xMaxYMin meet">
         <g id="arrow_out" transform="scale(0.3 0.3)">
          <a xlink:href="cluster__list_8hpp__incl_org.svg" target="_base">
           <rect id="button" ry="5" rx="5" y="6" x="6" height="38" width="38"
                fill="#f2f5e9" fill-opacity="0.5" stroke="#606060" stroke-width="1.0"/>
           <path id="arrow"
             d="M 11.500037,31.436501 C 11.940474,20.09759 22.043105,11.32322 32.158766,21.979434 L 37.068811,17.246167 C 37.068811,17.246167 37.088388,32 37.088388,32 L 22.160133,31.978069 C 22.160133,31.978069 26.997745,27.140456 26.997745,27.140456 C 18.528582,18.264221 13.291696,25.230495 11.500037,31.436501 z"
             style="fill:#404040;"/>
          </a>
         </g>
        </svg>
</svg>
