<?xml version="1.0" encoding="UTF-8" standalone="no"?>
<!DOCTYPE svg PUBLIC "-//W3C//DTD SVG 1.1//EN"
 "http://www.w3.org/Graphics/SVG/1.1/DTD/svg11.dtd">
<!-- Generated by graphviz version 2.43.0 (0)
 -->
<!-- Title: force_gpu_cuda.hpp Pages: 1 -->
<svg width="672pt" height="308pt"
 viewBox="0.00 0.00 671.50 308.00" xmlns="http://www.w3.org/2000/svg" xmlns:xlink="http://www.w3.org/1999/xlink">
<g id="graph0" class="graph" transform="scale(1 1) rotate(0) translate(4 304)">
<title>force_gpu_cuda.hpp</title>
<polygon fill="white" stroke="transparent" points="-4,4 -4,-304 667.5,-304 667.5,4 -4,4"/>
<!-- Node1 -->
<g id="node1" class="node">
<title>Node1</title>
<g id="a_node1"><a xlink:title=" ">
<polygon fill="#bfbfbf" stroke="black" points="329,-280.5 329,-299.5 443,-299.5 443,-280.5 329,-280.5"/>
<text text-anchor="middle" x="386" y="-287.5" font-family="Helvetica,sans-Serif" font-size="10.00">force_gpu_cuda.hpp</text>
</a>
</g>
</g>
<!-- Node2 -->
<g id="node2" class="node">
<title>Node2</title>
<g id="a_node2"><a xlink:title=" ">
<polygon fill="white" stroke="#bfbfbf" points="8,-0.5 8,-19.5 68,-19.5 68,-0.5 8,-0.5"/>
<text text-anchor="middle" x="38" y="-7.5" font-family="Helvetica,sans-Serif" font-size="10.00">iostream</text>
</a>
</g>
</g>
<!-- Node1&#45;&gt;Node2 -->
<g id="edge1" class="edge">
<title>Node1&#45;&gt;Node2</title>
<path fill="none" stroke="midnightblue" d="M328.63,-284.63C221.1,-274.84 0,-246.5 0,-179 0,-179 0,-179 0,-121 0,-86.81 16.6,-49.76 27.86,-28.57"/>
<polygon fill="midnightblue" stroke="midnightblue" points="30.95,-30.22 32.72,-19.77 24.82,-26.83 30.95,-30.22"/>
</g>
<!-- Node3 -->
<g id="node3" class="node">
<title>Node3</title>
<g id="a_node3"><a xlink:title=" ">
<polygon fill="white" stroke="#bfbfbf" points="538.5,-112.5 538.5,-131.5 663.5,-131.5 663.5,-112.5 538.5,-112.5"/>
<text text-anchor="middle" x="601" y="-119.5" font-family="Helvetica,sans-Serif" font-size="10.00">particle_simulator.hpp</text>
</a>
</g>
</g>
<!-- Node1&#45;&gt;Node3 -->
<g id="edge2" class="edge">
<title>Node1&#45;&gt;Node3</title>
<path fill="none" stroke="midnightblue" d="M397.26,-280.31C432.01,-253.47 537.93,-171.69 581.73,-137.88"/>
<polygon fill="midnightblue" stroke="midnightblue" points="584.08,-140.49 589.85,-131.61 579.8,-134.95 584.08,-140.49"/>
</g>
<!-- Node4 -->
<g id="node4" class="node">
<title>Node4</title>
<g id="a_node4"><a xlink:href="soft__ptcl_8hpp.html" target="_top" xlink:title=" ">
<polygon fill="white" stroke="black" points="346.5,-224.5 346.5,-243.5 425.5,-243.5 425.5,-224.5 346.5,-224.5"/>
<text text-anchor="middle" x="386" y="-231.5" font-family="Helvetica,sans-Serif" font-size="10.00">soft_ptcl.hpp</text>
</a>
</g>
</g>
<!-- Node1&#45;&gt;Node4 -->
<g id="edge3" class="edge">
<title>Node1&#45;&gt;Node4</title>
<path fill="none" stroke="midnightblue" d="M386,-280.08C386,-273.01 386,-262.86 386,-253.99"/>
<polygon fill="midnightblue" stroke="midnightblue" points="389.5,-253.75 386,-243.75 382.5,-253.75 389.5,-253.75"/>
</g>
<!-- Node5 -->
<g id="node5" class="node">
<title>Node5</title>
<g id="a_node5"><a xlink:href="ptcl_8hpp.html" target="_top" xlink:title=" ">
<polygon fill="white" stroke="black" points="358,-168.5 358,-187.5 414,-187.5 414,-168.5 358,-168.5"/>
<text text-anchor="middle" x="386" y="-175.5" font-family="Helvetica,sans-Serif" font-size="10.00">ptcl.hpp</text>
</a>
</g>
</g>
<!-- Node4&#45;&gt;Node5 -->
<g id="edge4" class="edge">
<title>Node4&#45;&gt;Node5</title>
<path fill="none" stroke="midnightblue" d="M386,-224.08C386,-217.01 386,-206.86 386,-197.99"/>
<polygon fill="midnightblue" stroke="midnightblue" points="389.5,-197.75 386,-187.75 382.5,-197.75 389.5,-197.75"/>
</g>
<!-- Node5&#45;&gt;Node3 -->
<g id="edge5" class="edge">
<title>Node5&#45;&gt;Node3</title>
<path fill="none" stroke="midnightblue" d="M414.11,-169.94C450.46,-160.81 514.19,-144.8 556.99,-134.05"/>
<polygon fill="midnightblue" stroke="midnightblue" points="558.01,-137.41 566.85,-131.58 556.3,-130.62 558.01,-137.41"/>
</g>
<!-- Node6 -->
<g id="node6" class="node">
<title>Node6</title>
<g id="a_node6"><a xlink:href="particle__base_8hpp.html" target="_top" xlink:title=" ">
<polygon fill="white" stroke="black" points="417.5,-112.5 417.5,-131.5 520.5,-131.5 520.5,-112.5 417.5,-112.5"/>
<text text-anchor="middle" x="469" y="-119.5" font-family="Helvetica,sans-Serif" font-size="10.00">particle_base.hpp</text>
</a>
</g>
</g>
<!-- Node5&#45;&gt;Node6 -->
<g id="edge6" class="edge">
<title>Node5&#45;&gt;Node6</title>
<path fill="none" stroke="midnightblue" d="M399.34,-168.32C412.16,-159.98 431.78,-147.21 446.94,-137.35"/>
<polygon fill="midnightblue" stroke="midnightblue" points="449.22,-140.04 455.7,-131.65 445.41,-134.17 449.22,-140.04"/>
</g>
<!-- Node7 -->
<g id="node7" class="node">
<title>Node7</title>
<g id="a_node7"><a xlink:href="changeover_8hpp.html" target="_top" xlink:title=" ">
<polygon fill="white" stroke="black" points="94,-112.5 94,-131.5 188,-131.5 188,-112.5 94,-112.5"/>
<text text-anchor="middle" x="141" y="-119.5" font-family="Helvetica,sans-Serif" font-size="10.00">changeover.hpp</text>
</a>
</g>
</g>
<!-- Node5&#45;&gt;Node7 -->
<g id="edge7" class="edge">
<title>Node5&#45;&gt;Node7</title>
<path fill="none" stroke="midnightblue" d="M357.9,-170.81C316.86,-161.76 239.95,-144.81 189.62,-133.72"/>
<polygon fill="midnightblue" stroke="midnightblue" points="190.13,-130.25 179.61,-131.51 188.63,-137.08 190.13,-130.25"/>
</g>
<!-- Node10 -->
<g id="node10" class="node">
<title>Node10</title>
<g id="a_node10"><a xlink:href="artificial__particles_8hpp.html" target="_top" xlink:title=" ">
<polygon fill="white" stroke="black" points="274.5,-112.5 274.5,-131.5 399.5,-131.5 399.5,-112.5 274.5,-112.5"/>
<text text-anchor="middle" x="337" y="-119.5" font-family="Helvetica,sans-Serif" font-size="10.00">artificial_particles.hpp</text>
</a>
</g>
</g>
<!-- Node5&#45;&gt;Node10 -->
<g id="edge11" class="edge">
<title>Node5&#45;&gt;Node10</title>
<path fill="none" stroke="midnightblue" d="M377.91,-168.08C370.84,-160.3 360.41,-148.8 351.85,-139.37"/>
<polygon fill="midnightblue" stroke="midnightblue" points="354.25,-136.8 344.94,-131.75 349.07,-141.51 354.25,-136.8"/>
</g>
<!-- Node7&#45;&gt;Node2 -->
<g id="edge8" class="edge">
<title>Node7&#45;&gt;Node2</title>
<path fill="none" stroke="midnightblue" d="M113.08,-112.43C94.67,-105.42 71.39,-93.73 57,-76 46.24,-62.75 41.58,-43.62 39.55,-29.54"/>
<polygon fill="midnightblue" stroke="midnightblue" points="43.02,-29.09 38.43,-19.55 36.07,-29.87 43.02,-29.09"/>
</g>
<!-- Node8 -->
<g id="node8" class="node">
<title>Node8</title>
<g id="a_node8"><a xlink:title=" ">
<polygon fill="white" stroke="#bfbfbf" points="66,-56.5 66,-75.5 122,-75.5 122,-56.5 66,-56.5"/>
<text text-anchor="middle" x="94" y="-63.5" font-family="Helvetica,sans-Serif" font-size="10.00">iomanip</text>
</a>
</g>
</g>
<!-- Node7&#45;&gt;Node8 -->
<g id="edge9" class="edge">
<title>Node7&#45;&gt;Node8</title>
<path fill="none" stroke="midnightblue" d="M133.24,-112.08C126.46,-104.3 116.46,-92.8 108.24,-83.37"/>
<polygon fill="midnightblue" stroke="midnightblue" points="110.82,-81 101.62,-75.75 105.54,-85.59 110.82,-81"/>
</g>
<!-- Node9 -->
<g id="node9" class="node">
<title>Node9</title>
<g id="a_node9"><a xlink:title=" ">
<polygon fill="white" stroke="#bfbfbf" points="140,-56.5 140,-75.5 238,-75.5 238,-56.5 140,-56.5"/>
<text text-anchor="middle" x="189" y="-63.5" font-family="Helvetica,sans-Serif" font-size="10.00">Common/Float.h</text>
</a>
</g>
</g>
<!-- Node7&#45;&gt;Node9 -->
<g id="edge10" class="edge">
<title>Node7&#45;&gt;Node9</title>
<path fill="none" stroke="midnightblue" d="M148.93,-112.08C155.85,-104.3 166.07,-92.8 174.45,-83.37"/>
<polygon fill="midnightblue" stroke="midnightblue" points="177.19,-85.55 181.22,-75.75 171.96,-80.9 177.19,-85.55"/>
</g>
<!-- Node11 -->
<g id="node11" class="node">
<title>Node11</title>
<g id="a_node11"><a xlink:title=" ">
<polygon fill="white" stroke="#bfbfbf" points="327,-0.5 327,-19.5 455,-19.5 455,-0.5 327,-0.5"/>
<text text-anchor="middle" x="391" y="-7.5" font-family="Helvetica,sans-Serif" font-size="10.00">Common/binary_tree.h</text>
</a>
</g>
</g>
<!-- Node10&#45;&gt;Node11 -->
<g id="edge12" class="edge">
<title>Node10&#45;&gt;Node11</title>
<path fill="none" stroke="midnightblue" d="M373.7,-112.35C392.83,-105.77 414.57,-94.58 426,-76 436.1,-59.57 422.24,-40 409.09,-26.66"/>
<polygon fill="midnightblue" stroke="midnightblue" points="411.29,-23.92 401.62,-19.59 406.48,-29 411.29,-23.92"/>
</g>
<!-- Node12 -->
<g id="node12" class="node">
<title>Node12</title>
<g id="a_node12"><a xlink:href="tidal__tensor_8hpp.html" target="_top" xlink:title=" ">
<polygon fill="white" stroke="black" points="474.5,-56.5 474.5,-75.5 569.5,-75.5 569.5,-56.5 474.5,-56.5"/>
<text text-anchor="middle" x="522" y="-63.5" font-family="Helvetica,sans-Serif" font-size="10.00">tidal_tensor.hpp</text>
</a>
</g>
</g>
<!-- Node10&#45;&gt;Node12 -->
<g id="edge13" class="edge">
<title>Node10&#45;&gt;Node12</title>
<path fill="none" stroke="midnightblue" d="M366.31,-112.44C397.84,-103.24 448.13,-88.56 482.99,-78.39"/>
<polygon fill="midnightblue" stroke="midnightblue" points="484.2,-81.68 492.82,-75.52 482.24,-74.96 484.2,-81.68"/>
</g>
<!-- Node13 -->
<g id="node13" class="node">
<title>Node13</title>
<g id="a_node13"><a xlink:href="pseudoparticle__multipole_8hpp.html" target="_top" xlink:title=" ">
<polygon fill="white" stroke="black" points="256.5,-56.5 256.5,-75.5 417.5,-75.5 417.5,-56.5 256.5,-56.5"/>
<text text-anchor="middle" x="337" y="-63.5" font-family="Helvetica,sans-Serif" font-size="10.00">pseudoparticle_multipole.hpp</text>
</a>
</g>
</g>
<!-- Node10&#45;&gt;Node13 -->
<g id="edge14" class="edge">
<title>Node10&#45;&gt;Node13</title>
<path fill="none" stroke="midnightblue" d="M337,-112.08C337,-105.01 337,-94.86 337,-85.99"/>
<polygon fill="midnightblue" stroke="midnightblue" points="340.5,-85.75 337,-75.75 333.5,-85.75 340.5,-85.75"/>
</g>
<!-- Node13&#45;&gt;Node2 -->
<g id="edge16" class="edge">
<title>Node13&#45;&gt;Node2</title>
<path fill="none" stroke="midnightblue" d="M289.62,-56.44C231.3,-45.91 133.26,-28.2 78.36,-18.29"/>
<polygon fill="midnightblue" stroke="midnightblue" points="78.77,-14.81 68.31,-16.47 77.53,-21.7 78.77,-14.81"/>
</g>
<!-- Node13&#45;&gt;Node11 -->
<g id="edge15" class="edge">
<title>Node13&#45;&gt;Node11</title>
<path fill="none" stroke="midnightblue" d="M345.92,-56.08C353.78,-48.22 365.43,-36.57 374.92,-27.08"/>
<polygon fill="midnightblue" stroke="midnightblue" points="377.65,-29.3 382.25,-19.75 372.7,-24.35 377.65,-29.3"/>
</g>
</g>
</svg>
