<?xml version="1.0" encoding="UTF-8" standalone="no"?>
<!DOCTYPE svg PUBLIC "-//W3C//DTD SVG 1.1//EN"
 "http://www.w3.org/Graphics/SVG/1.1/DTD/svg11.dtd">
<!-- Generated by graphviz version 2.43.0 (0)
 -->
<!-- Title: main Pages: 1 -->
<svg width="411pt" height="170pt"
 viewBox="0.00 0.00 411.00 170.00" xmlns="http://www.w3.org/2000/svg" xmlns:xlink="http://www.w3.org/1999/xlink">
<g id="graph0" class="graph" transform="scale(1 1) rotate(0) translate(4 166)">
<title>main</title>
<polygon fill="white" stroke="transparent" points="-4,4 -4,-166 407,-166 407,4 -4,4"/>
<!-- Node1 -->
<g id="node1" class="node">
<title>Node1</title>
<g id="a_node1"><a xlink:title=" ">
<polygon fill="#bfbfbf" stroke="black" points="0,-57.5 0,-76.5 41,-76.5 41,-57.5 0,-57.5"/>
<text text-anchor="middle" x="20.5" y="-64.5" font-family="Helvetica,sans-Serif" font-size="10.00">main</text>
</a>
</g>
</g>
<!-- Node2 -->
<g id="node2" class="node">
<title>Node2</title>
<g id="a_node2"><a xlink:href="classStatus.html#a1c95aee88a7a5568b46d2c700198a139" target="_top" xlink:title="calculate the center of system and shift particle systems to center frame">
<polygon fill="white" stroke="black" points="78,-115 78,-145 224,-145 224,-115 78,-115"/>
<text text-anchor="start" x="86" y="-133" font-family="Helvetica,sans-Serif" font-size="10.00">Status::calcAndShiftCenter</text>
<text text-anchor="middle" x="151" y="-122" font-family="Helvetica,sans-Serif" font-size="10.00">OfMass</text>
</a>
</g>
</g>
<!-- Node1&#45;&gt;Node2 -->
<g id="edge1" class="edge">
<title>Node1&#45;&gt;Node2</title>
<path fill="none" stroke="midnightblue" d="M33.68,-76.78C44.54,-85.13 61.14,-97.04 77,-105 81.34,-107.18 85.91,-109.24 90.56,-111.17"/>
<polygon fill="midnightblue" stroke="midnightblue" points="89.59,-114.55 100.17,-114.96 92.15,-108.04 89.59,-114.55"/>
</g>
<!-- Node5 -->
<g id="node5" class="node">
<title>Node5</title>
<g id="a_node5"><a xlink:href="classBSEManager.html#a569c067ad29e6fd5f665c7fd83e3386d" target="_top" xlink:title=" ">
<polygon fill="white" stroke="black" points="77,-76.5 77,-95.5 225,-95.5 225,-76.5 77,-76.5"/>
<text text-anchor="middle" x="151" y="-83.5" font-family="Helvetica,sans-Serif" font-size="10.00">BSEManager::getBSEName</text>
</a>
</g>
</g>
<!-- Node1&#45;&gt;Node5 -->
<g id="edge4" class="edge">
<title>Node1&#45;&gt;Node5</title>
<path fill="none" stroke="midnightblue" d="M41.02,-69.89C50.55,-71.29 62.68,-73.09 75.37,-74.97"/>
<polygon fill="midnightblue" stroke="midnightblue" points="75.22,-78.48 85.63,-76.48 76.25,-71.56 75.22,-78.48"/>
</g>
<!-- Node6 -->
<g id="node6" class="node">
<title>Node6</title>
<g id="a_node6"><a xlink:href="classFileHeader.html#a7c05dcc8f6a9d15d561de85f8ee43de9" target="_top" xlink:title=" ">
<polygon fill="white" stroke="black" points="87,-38.5 87,-57.5 215,-57.5 215,-38.5 87,-38.5"/>
<text text-anchor="middle" x="151" y="-45.5" font-family="Helvetica,sans-Serif" font-size="10.00">FileHeader::readBinary</text>
</a>
</g>
</g>
<!-- Node1&#45;&gt;Node6 -->
<g id="edge5" class="edge">
<title>Node1&#45;&gt;Node6</title>
<path fill="none" stroke="midnightblue" d="M41.02,-64.11C50.86,-62.66 63.49,-60.79 76.64,-58.85"/>
<polygon fill="midnightblue" stroke="midnightblue" points="77.38,-62.28 86.76,-57.35 76.36,-55.35 77.38,-62.28"/>
</g>
<!-- Node7 -->
<g id="node7" class="node">
<title>Node7</title>
<g id="a_node7"><a xlink:href="classFileHeader.html#a3c26fb2ffe2cbd526493a7f71fa9ab86" target="_top" xlink:title=" ">
<polygon fill="white" stroke="black" points="89.5,-0.5 89.5,-19.5 212.5,-19.5 212.5,-0.5 89.5,-0.5"/>
<text text-anchor="middle" x="151" y="-7.5" font-family="Helvetica,sans-Serif" font-size="10.00">FileHeader::writeAscii</text>
</a>
</g>
</g>
<!-- Node1&#45;&gt;Node7 -->
<g id="edge6" class="edge">
<title>Node1&#45;&gt;Node7</title>
<path fill="none" stroke="midnightblue" d="M33.12,-57.26C43.87,-48.69 60.64,-36.46 77,-29 82.27,-26.6 87.89,-24.46 93.59,-22.57"/>
<polygon fill="midnightblue" stroke="midnightblue" points="94.69,-25.89 103.21,-19.61 92.63,-19.2 94.69,-25.89"/>
</g>
<!-- Node3 -->
<g id="node3" class="node">
<title>Node3</title>
<g id="a_node3"><a xlink:href="classStatus.html#a95226a9e5aceeea5c44e89b8a3bccb0c" target="_top" xlink:title="calculate the center of system">
<polygon fill="white" stroke="black" points="261,-142.5 261,-161.5 403,-161.5 403,-142.5 261,-142.5"/>
<text text-anchor="middle" x="332" y="-149.5" font-family="Helvetica,sans-Serif" font-size="10.00">Status::calcCenterOfMass</text>
</a>
</g>
</g>
<!-- Node2&#45;&gt;Node3 -->
<g id="edge2" class="edge">
<title>Node2&#45;&gt;Node3</title>
<path fill="none" stroke="midnightblue" d="M224.03,-138.85C232.86,-139.94 241.91,-141.05 250.85,-142.15"/>
<polygon fill="midnightblue" stroke="midnightblue" points="250.51,-145.63 260.86,-143.38 251.36,-138.69 250.51,-145.63"/>
</g>
<!-- Node4 -->
<g id="node4" class="node">
<title>Node4</title>
<g id="a_node4"><a xlink:href="structStatus_1_1ParticleCM.html#a4916cbce05134ef49629f43b49ecc7fe" target="_top" xlink:title=" ">
<polygon fill="white" stroke="black" points="279.5,-93 279.5,-123 384.5,-123 384.5,-93 279.5,-93"/>
<text text-anchor="start" x="287.5" y="-111" font-family="Helvetica,sans-Serif" font-size="10.00">Status::ParticleCM</text>
<text text-anchor="middle" x="332" y="-100" font-family="Helvetica,sans-Serif" font-size="10.00">::clear</text>
</a>
</g>
</g>
<!-- Node2&#45;&gt;Node4 -->
<g id="edge3" class="edge">
<title>Node2&#45;&gt;Node4</title>
<path fill="none" stroke="midnightblue" d="M224.03,-121.15C239.11,-119.29 254.87,-117.36 269.52,-115.56"/>
<polygon fill="midnightblue" stroke="midnightblue" points="269.97,-119.03 279.46,-114.33 269.11,-112.08 269.97,-119.03"/>
</g>
</g>
</svg>
