<?xml version="1.0" encoding="UTF-8" standalone="no"?>
<!DOCTYPE svg PUBLIC "-//W3C//DTD SVG 1.1//EN"
 "http://www.w3.org/Graphics/SVG/1.1/DTD/svg11.dtd">
<!-- Generated by graphviz version 2.43.0 (0)
 -->
<!-- Title: galpy_interface.h Pages: 1 -->
<svg width="838pt" height="140pt"
 viewBox="0.00 0.00 837.50 140.00" xmlns="http://www.w3.org/2000/svg" xmlns:xlink="http://www.w3.org/1999/xlink">
<g id="graph0" class="graph" transform="scale(1 1) rotate(0) translate(4 136)">
<title>galpy_interface.h</title>
<polygon fill="white" stroke="transparent" points="-4,4 -4,-136 833.5,-136 833.5,4 -4,4"/>
<!-- Node1 -->
<g id="node1" class="node">
<title>Node1</title>
<g id="a_node1"><a xlink:title=" ">
<polygon fill="#bfbfbf" stroke="black" points="335.5,-112.5 335.5,-131.5 436.5,-131.5 436.5,-112.5 335.5,-112.5"/>
<text text-anchor="middle" x="386" y="-119.5" font-family="Helvetica,sans-Serif" font-size="10.00">galpy_interface.h</text>
</a>
</g>
</g>
<!-- Node2 -->
<g id="node2" class="node">
<title>Node2</title>
<g id="a_node2"><a xlink:title=" ">
<polygon fill="white" stroke="#bfbfbf" points="0,-0.5 0,-19.5 60,-19.5 60,-0.5 0,-0.5"/>
<text text-anchor="middle" x="30" y="-7.5" font-family="Helvetica,sans-Serif" font-size="10.00">iostream</text>
</a>
</g>
</g>
<!-- Node1&#45;&gt;Node2 -->
<g id="edge1" class="edge">
<title>Node1&#45;&gt;Node2</title>
<path fill="none" stroke="midnightblue" d="M335.14,-116.96C284.4,-111.73 204.88,-100.22 140,-76 106.18,-63.37 70.9,-40.53 49.69,-25.56"/>
<polygon fill="midnightblue" stroke="midnightblue" points="51.67,-22.68 41.51,-19.69 47.59,-28.36 51.67,-22.68"/>
</g>
<!-- Node3 -->
<g id="node3" class="node">
<title>Node3</title>
<g id="a_node3"><a xlink:title=" ">
<polygon fill="white" stroke="#bfbfbf" points="286,-56.5 286,-75.5 342,-75.5 342,-56.5 286,-56.5"/>
<text text-anchor="middle" x="314" y="-63.5" font-family="Helvetica,sans-Serif" font-size="10.00">sstream</text>
</a>
</g>
</g>
<!-- Node1&#45;&gt;Node3 -->
<g id="edge2" class="edge">
<title>Node1&#45;&gt;Node3</title>
<path fill="none" stroke="midnightblue" d="M374.43,-112.32C363.58,-104.18 347.12,-91.84 334.12,-82.09"/>
<polygon fill="midnightblue" stroke="midnightblue" points="335.88,-79.03 325.78,-75.83 331.68,-84.63 335.88,-79.03"/>
</g>
<!-- Node4 -->
<g id="node4" class="node">
<title>Node4</title>
<g id="a_node4"><a xlink:title=" ">
<polygon fill="white" stroke="#bfbfbf" points="78,-0.5 78,-19.5 134,-19.5 134,-0.5 78,-0.5"/>
<text text-anchor="middle" x="106" y="-7.5" font-family="Helvetica,sans-Serif" font-size="10.00">iomanip</text>
</a>
</g>
</g>
<!-- Node1&#45;&gt;Node4 -->
<g id="edge3" class="edge">
<title>Node1&#45;&gt;Node4</title>
<path fill="none" stroke="midnightblue" d="M335.4,-118.57C289.97,-114.55 222.65,-103.94 171,-76 149.17,-64.19 129.88,-42.75 118.1,-27.73"/>
<polygon fill="midnightblue" stroke="midnightblue" points="120.89,-25.62 112.07,-19.75 115.31,-29.84 120.89,-25.62"/>
</g>
<!-- Node5 -->
<g id="node5" class="node">
<title>Node5</title>
<g id="a_node5"><a xlink:title=" ">
<polygon fill="white" stroke="#bfbfbf" points="360,-56.5 360,-75.5 412,-75.5 412,-56.5 360,-56.5"/>
<text text-anchor="middle" x="386" y="-63.5" font-family="Helvetica,sans-Serif" font-size="10.00">cassert</text>
</a>
</g>
</g>
<!-- Node1&#45;&gt;Node5 -->
<g id="edge4" class="edge">
<title>Node1&#45;&gt;Node5</title>
<path fill="none" stroke="midnightblue" d="M386,-112.08C386,-105.01 386,-94.86 386,-85.99"/>
<polygon fill="midnightblue" stroke="midnightblue" points="389.5,-85.75 386,-75.75 382.5,-85.75 389.5,-85.75"/>
</g>
<!-- Node6 -->
<g id="node6" class="node">
<title>Node6</title>
<g id="a_node6"><a xlink:title=" ">
<polygon fill="white" stroke="#bfbfbf" points="152,-0.5 152,-19.5 196,-19.5 196,-0.5 152,-0.5"/>
<text text-anchor="middle" x="174" y="-7.5" font-family="Helvetica,sans-Serif" font-size="10.00">string</text>
</a>
</g>
</g>
<!-- Node1&#45;&gt;Node6 -->
<g id="edge5" class="edge">
<title>Node1&#45;&gt;Node6</title>
<path fill="none" stroke="midnightblue" d="M335.39,-115.95C283.09,-109.66 206.29,-97.1 186,-76 174.45,-63.99 172.14,-44.7 172.31,-30.24"/>
<polygon fill="midnightblue" stroke="midnightblue" points="175.82,-30.09 172.84,-19.92 168.83,-29.73 175.82,-30.09"/>
</g>
<!-- Node7 -->
<g id="node7" class="node">
<title>Node7</title>
<g id="a_node7"><a xlink:title=" ">
<polygon fill="white" stroke="#bfbfbf" points="430.5,-56.5 430.5,-75.5 477.5,-75.5 477.5,-56.5 430.5,-56.5"/>
<text text-anchor="middle" x="454" y="-63.5" font-family="Helvetica,sans-Serif" font-size="10.00">vector</text>
</a>
</g>
</g>
<!-- Node1&#45;&gt;Node7 -->
<g id="edge6" class="edge">
<title>Node1&#45;&gt;Node7</title>
<path fill="none" stroke="midnightblue" d="M396.93,-112.32C407.17,-104.18 422.72,-91.84 435,-82.09"/>
<polygon fill="midnightblue" stroke="midnightblue" points="437.22,-84.79 442.88,-75.83 432.87,-79.31 437.22,-84.79"/>
</g>
<!-- Node8 -->
<g id="node8" class="node">
<title>Node8</title>
<g id="a_node8"><a xlink:title=" ">
<polygon fill="white" stroke="#bfbfbf" points="495.5,-56.5 495.5,-75.5 552.5,-75.5 552.5,-56.5 495.5,-56.5"/>
<text text-anchor="middle" x="524" y="-63.5" font-family="Helvetica,sans-Serif" font-size="10.00">getopt.h</text>
</a>
</g>
</g>
<!-- Node1&#45;&gt;Node8 -->
<g id="edge7" class="edge">
<title>Node1&#45;&gt;Node8</title>
<path fill="none" stroke="midnightblue" d="M407.87,-112.44C430.78,-103.48 466.98,-89.31 492.87,-79.18"/>
<polygon fill="midnightblue" stroke="midnightblue" points="494.2,-82.42 502.24,-75.52 491.65,-75.9 494.2,-82.42"/>
</g>
<!-- Node9 -->
<g id="node9" class="node">
<title>Node9</title>
<g id="a_node9"><a xlink:title=" ">
<polygon fill="white" stroke="#bfbfbf" points="570.5,-56.5 570.5,-75.5 617.5,-75.5 617.5,-56.5 570.5,-56.5"/>
<text text-anchor="middle" x="594" y="-63.5" font-family="Helvetica,sans-Serif" font-size="10.00">cmath</text>
</a>
</g>
</g>
<!-- Node1&#45;&gt;Node9 -->
<g id="edge8" class="edge">
<title>Node1&#45;&gt;Node9</title>
<path fill="none" stroke="midnightblue" d="M420.46,-112.45C453.98,-104.07 506.57,-90.78 560.52,-76.36"/>
<polygon fill="midnightblue" stroke="midnightblue" points="561.5,-79.72 570.25,-73.75 559.69,-72.96 561.5,-79.72"/>
</g>
<!-- Node10 -->
<g id="node10" class="node">
<title>Node10</title>
<g id="a_node10"><a xlink:title=" ">
<polygon fill="white" stroke="#bfbfbf" points="636,-56.5 636,-75.5 700,-75.5 700,-56.5 636,-56.5"/>
<text text-anchor="middle" x="668" y="-63.5" font-family="Helvetica,sans-Serif" font-size="10.00">algorithm</text>
</a>
</g>
</g>
<!-- Node1&#45;&gt;Node10 -->
<g id="edge9" class="edge">
<title>Node1&#45;&gt;Node10</title>
<path fill="none" stroke="midnightblue" d="M434.1,-112.48C480.62,-104.13 553.36,-90.82 625.6,-76.24"/>
<polygon fill="midnightblue" stroke="midnightblue" points="626.69,-79.59 635.79,-74.17 625.3,-72.73 626.69,-79.59"/>
</g>
<!-- Node11 -->
<g id="node11" class="node">
<title>Node11</title>
<g id="a_node11"><a xlink:href="io_8hpp.html" target="_top" xlink:title=" ">
<polygon fill="white" stroke="black" points="194.5,-56.5 194.5,-75.5 267.5,-75.5 267.5,-56.5 194.5,-56.5"/>
<text text-anchor="middle" x="231" y="-63.5" font-family="Helvetica,sans-Serif" font-size="10.00">../src/io.hpp</text>
</a>
</g>
</g>
<!-- Node1&#45;&gt;Node11 -->
<g id="edge10" class="edge">
<title>Node1&#45;&gt;Node11</title>
<path fill="none" stroke="midnightblue" d="M361.44,-112.44C335.48,-103.4 294.33,-89.06 265.2,-78.92"/>
<polygon fill="midnightblue" stroke="midnightblue" points="266.04,-75.5 255.45,-75.52 263.74,-82.11 266.04,-75.5"/>
</g>
<!-- Node16 -->
<g id="node16" class="node">
<title>Node16</title>
<g id="a_node16"><a xlink:title=" ">
<polygon fill="white" stroke="#bfbfbf" points="718.5,-56.5 718.5,-75.5 829.5,-75.5 829.5,-56.5 718.5,-56.5"/>
<text text-anchor="middle" x="774" y="-63.5" font-family="Helvetica,sans-Serif" font-size="10.00">integrateFullOrbit.h</text>
</a>
</g>
</g>
<!-- Node1&#45;&gt;Node16 -->
<g id="edge18" class="edge">
<title>Node1&#45;&gt;Node16</title>
<path fill="none" stroke="midnightblue" d="M436.72,-113.94C506.32,-104.25 631.48,-86.83 708.21,-76.16"/>
<polygon fill="midnightblue" stroke="midnightblue" points="708.82,-79.61 718.24,-74.76 707.85,-72.67 708.82,-79.61"/>
</g>
<!-- Node11&#45;&gt;Node2 -->
<g id="edge11" class="edge">
<title>Node11&#45;&gt;Node2</title>
<path fill="none" stroke="midnightblue" d="M199.15,-56.44C164.09,-47.03 107.69,-31.87 69.76,-21.68"/>
<polygon fill="midnightblue" stroke="midnightblue" points="70.62,-18.29 60.06,-19.08 68.81,-25.05 70.62,-18.29"/>
</g>
<!-- Node11&#45;&gt;Node4 -->
<g id="edge14" class="edge">
<title>Node11&#45;&gt;Node4</title>
<path fill="none" stroke="midnightblue" d="M211.19,-56.44C190.71,-47.6 158.52,-33.69 135.14,-23.59"/>
<polygon fill="midnightblue" stroke="midnightblue" points="136.28,-20.27 125.71,-19.52 133.51,-26.7 136.28,-20.27"/>
</g>
<!-- Node11&#45;&gt;Node6 -->
<g id="edge16" class="edge">
<title>Node11&#45;&gt;Node6</title>
<path fill="none" stroke="midnightblue" d="M221.84,-56.32C213.5,-48.42 200.97,-36.55 190.82,-26.94"/>
<polygon fill="midnightblue" stroke="midnightblue" points="192.99,-24.17 183.32,-19.83 188.18,-29.25 192.99,-24.17"/>
</g>
<!-- Node12 -->
<g id="node12" class="node">
<title>Node12</title>
<g id="a_node12"><a xlink:title=" ">
<polygon fill="white" stroke="#bfbfbf" points="412,-0.5 412,-19.5 458,-19.5 458,-0.5 412,-0.5"/>
<text text-anchor="middle" x="435" y="-7.5" font-family="Helvetica,sans-Serif" font-size="10.00">cstdio</text>
</a>
</g>
</g>
<!-- Node11&#45;&gt;Node12 -->
<g id="edge12" class="edge">
<title>Node11&#45;&gt;Node12</title>
<path fill="none" stroke="midnightblue" d="M264.34,-56.47C297.06,-48.05 348.63,-34.68 402.26,-20.17"/>
<polygon fill="midnightblue" stroke="midnightblue" points="403.21,-23.54 411.94,-17.54 401.37,-16.78 403.21,-23.54"/>
</g>
<!-- Node13 -->
<g id="node13" class="node">
<title>Node13</title>
<g id="a_node13"><a xlink:title=" ">
<polygon fill="white" stroke="#bfbfbf" points="214,-0.5 214,-19.5 264,-19.5 264,-0.5 214,-0.5"/>
<text text-anchor="middle" x="239" y="-7.5" font-family="Helvetica,sans-Serif" font-size="10.00">cstring</text>
</a>
</g>
</g>
<!-- Node11&#45;&gt;Node13 -->
<g id="edge13" class="edge">
<title>Node11&#45;&gt;Node13</title>
<path fill="none" stroke="midnightblue" d="M232.32,-56.08C233.38,-48.93 234.91,-38.64 236.23,-29.69"/>
<polygon fill="midnightblue" stroke="midnightblue" points="239.7,-30.16 237.7,-19.75 232.78,-29.13 239.7,-30.16"/>
</g>
<!-- Node14 -->
<g id="node14" class="node">
<title>Node14</title>
<g id="a_node14"><a xlink:title=" ">
<polygon fill="white" stroke="#bfbfbf" points="282.5,-0.5 282.5,-19.5 337.5,-19.5 337.5,-0.5 282.5,-0.5"/>
<text text-anchor="middle" x="310" y="-7.5" font-family="Helvetica,sans-Serif" font-size="10.00">fstream</text>
</a>
</g>
</g>
<!-- Node11&#45;&gt;Node14 -->
<g id="edge15" class="edge">
<title>Node11&#45;&gt;Node14</title>
<path fill="none" stroke="midnightblue" d="M243.69,-56.32C255.9,-47.98 274.58,-35.21 289,-25.35"/>
<polygon fill="midnightblue" stroke="midnightblue" points="291.06,-28.19 297.34,-19.65 287.11,-22.41 291.06,-28.19"/>
</g>
<!-- Node15 -->
<g id="node15" class="node">
<title>Node15</title>
<g id="a_node15"><a xlink:title=" ">
<polygon fill="white" stroke="#bfbfbf" points="356,-0.5 356,-19.5 394,-19.5 394,-0.5 356,-0.5"/>
<text text-anchor="middle" x="375" y="-7.5" font-family="Helvetica,sans-Serif" font-size="10.00">map</text>
</a>
</g>
</g>
<!-- Node11&#45;&gt;Node15 -->
<g id="edge17" class="edge">
<title>Node11&#45;&gt;Node15</title>
<path fill="none" stroke="midnightblue" d="M253.82,-56.44C278.85,-47.06 319.08,-31.97 346.25,-21.78"/>
<polygon fill="midnightblue" stroke="midnightblue" points="347.83,-24.93 355.97,-18.14 345.38,-18.37 347.83,-24.93"/>
</g>
</g>
</svg>
