<?xml version="1.0" encoding="UTF-8" standalone="no"?>
<!DOCTYPE svg PUBLIC "-//W3C//DTD SVG 1.1//EN"
 "http://www.w3.org/Graphics/SVG/1.1/DTD/svg11.dtd">
<!-- Generated by graphviz version 2.43.0 (0)
 -->
<!-- Title: hard_assert.hpp Pages: 1 -->
<svg width="776pt" height="308pt"
 viewBox="0.00 0.00 775.92 308.00" xmlns="http://www.w3.org/2000/svg" xmlns:xlink="http://www.w3.org/1999/xlink">
<g id="graph0" class="graph" transform="scale(1 1) rotate(0) translate(4 304)">
<title>hard_assert.hpp</title>
<polygon fill="white" stroke="transparent" points="-4,4 -4,-304 771.92,-304 771.92,4 -4,4"/>
<!-- Node1 -->
<g id="node1" class="node">
<title>Node1</title>
<g id="a_node1"><a xlink:title=" ">
<polygon fill="#bfbfbf" stroke="black" points="124.5,-280.5 124.5,-299.5 219.5,-299.5 219.5,-280.5 124.5,-280.5"/>
<text text-anchor="middle" x="172" y="-287.5" font-family="Helvetica,sans-Serif" font-size="10.00">hard_assert.hpp</text>
</a>
</g>
</g>
<!-- Node2 -->
<g id="node2" class="node">
<title>Node2</title>
<g id="a_node2"><a xlink:title=" ">
<polygon fill="white" stroke="#bfbfbf" points="0,-224.5 0,-243.5 52,-243.5 52,-224.5 0,-224.5"/>
<text text-anchor="middle" x="26" y="-231.5" font-family="Helvetica,sans-Serif" font-size="10.00">cassert</text>
</a>
</g>
</g>
<!-- Node1&#45;&gt;Node2 -->
<g id="edge1" class="edge">
<title>Node1&#45;&gt;Node2</title>
<path fill="none" stroke="midnightblue" d="M148.87,-280.44C124.52,-271.44 85.99,-257.19 58.58,-247.05"/>
<polygon fill="midnightblue" stroke="midnightblue" points="59.62,-243.7 49.03,-243.52 57.19,-250.27 59.62,-243.7"/>
</g>
<!-- Node3 -->
<g id="node3" class="node">
<title>Node3</title>
<g id="a_node3"><a xlink:title=" ">
<polygon fill="white" stroke="#bfbfbf" points="70,-224.5 70,-243.5 114,-243.5 114,-224.5 70,-224.5"/>
<text text-anchor="middle" x="92" y="-231.5" font-family="Helvetica,sans-Serif" font-size="10.00">string</text>
</a>
</g>
</g>
<!-- Node1&#45;&gt;Node3 -->
<g id="edge2" class="edge">
<title>Node1&#45;&gt;Node3</title>
<path fill="none" stroke="midnightblue" d="M159.15,-280.32C146.78,-271.98 127.87,-259.21 113.26,-249.35"/>
<polygon fill="midnightblue" stroke="midnightblue" points="115.07,-246.35 104.82,-243.65 111.15,-252.15 115.07,-246.35"/>
</g>
<!-- Node4 -->
<g id="node4" class="node">
<title>Node4</title>
<g id="a_node4"><a xlink:href="hard__ptcl_8hpp.html" target="_top" xlink:title=" ">
<polygon fill="white" stroke="black" points="396.5,-224.5 396.5,-243.5 479.5,-243.5 479.5,-224.5 396.5,-224.5"/>
<text text-anchor="middle" x="438" y="-231.5" font-family="Helvetica,sans-Serif" font-size="10.00">hard_ptcl.hpp</text>
</a>
</g>
</g>
<!-- Node1&#45;&gt;Node4 -->
<g id="edge3" class="edge">
<title>Node1&#45;&gt;Node4</title>
<path fill="none" stroke="midnightblue" d="M214.15,-280.44C260.88,-270.96 336.29,-255.65 386.49,-245.46"/>
<polygon fill="midnightblue" stroke="midnightblue" points="387.38,-248.85 396.49,-243.43 385.99,-241.99 387.38,-248.85"/>
</g>
<!-- Node16 -->
<g id="node16" class="node">
<title>Node16</title>
<g id="a_node16"><a xlink:title=" ">
<polygon fill="white" stroke="#bfbfbf" points="229.5,-224.5 229.5,-243.5 378.5,-243.5 378.5,-224.5 229.5,-224.5"/>
<text text-anchor="middle" x="304" y="-231.5" font-family="Helvetica,sans-Serif" font-size="10.00">Hermite/hermite_particle.h</text>
</a>
</g>
</g>
<!-- Node1&#45;&gt;Node16 -->
<g id="edge17" class="edge">
<title>Node1&#45;&gt;Node16</title>
<path fill="none" stroke="midnightblue" d="M192.92,-280.44C214.74,-271.52 249.15,-257.44 273.89,-247.32"/>
<polygon fill="midnightblue" stroke="midnightblue" points="275.25,-250.54 283.18,-243.52 272.6,-244.06 275.25,-250.54"/>
</g>
<!-- Node17 -->
<g id="node17" class="node">
<title>Node17</title>
<g id="a_node17"><a xlink:href="soft__ptcl_8hpp.html" target="_top" xlink:title=" ">
<polygon fill="white" stroke="black" points="132.5,-224.5 132.5,-243.5 211.5,-243.5 211.5,-224.5 132.5,-224.5"/>
<text text-anchor="middle" x="172" y="-231.5" font-family="Helvetica,sans-Serif" font-size="10.00">soft_ptcl.hpp</text>
</a>
</g>
</g>
<!-- Node1&#45;&gt;Node17 -->
<g id="edge18" class="edge">
<title>Node1&#45;&gt;Node17</title>
<path fill="none" stroke="midnightblue" d="M172,-280.08C172,-273.01 172,-262.86 172,-253.99"/>
<polygon fill="midnightblue" stroke="midnightblue" points="175.5,-253.75 172,-243.75 168.5,-253.75 175.5,-253.75"/>
</g>
<!-- Node5 -->
<g id="node5" class="node">
<title>Node5</title>
<g id="a_node5"><a xlink:href="ptcl_8hpp.html" target="_top" xlink:title=" ">
<polygon fill="white" stroke="black" points="277,-168.5 277,-187.5 333,-187.5 333,-168.5 277,-168.5"/>
<text text-anchor="middle" x="305" y="-175.5" font-family="Helvetica,sans-Serif" font-size="10.00">ptcl.hpp</text>
</a>
</g>
</g>
<!-- Node4&#45;&gt;Node5 -->
<g id="edge4" class="edge">
<title>Node4&#45;&gt;Node5</title>
<path fill="none" stroke="midnightblue" d="M416.93,-224.44C394.94,-215.52 360.27,-201.44 335.34,-191.32"/>
<polygon fill="midnightblue" stroke="midnightblue" points="336.56,-188.04 325.98,-187.52 333.92,-194.52 336.56,-188.04"/>
</g>
<!-- Node6 -->
<g id="node6" class="node">
<title>Node6</title>
<g id="a_node6"><a xlink:title=" ">
<polygon fill="white" stroke="#bfbfbf" points="52.5,-112.5 52.5,-131.5 177.5,-131.5 177.5,-112.5 52.5,-112.5"/>
<text text-anchor="middle" x="115" y="-119.5" font-family="Helvetica,sans-Serif" font-size="10.00">particle_simulator.hpp</text>
</a>
</g>
</g>
<!-- Node5&#45;&gt;Node6 -->
<g id="edge5" class="edge">
<title>Node5&#45;&gt;Node6</title>
<path fill="none" stroke="midnightblue" d="M276.96,-169.03C244.7,-159.86 191.45,-144.73 154.88,-134.33"/>
<polygon fill="midnightblue" stroke="midnightblue" points="155.61,-130.9 145.03,-131.54 153.7,-137.64 155.61,-130.9"/>
</g>
<!-- Node7 -->
<g id="node7" class="node">
<title>Node7</title>
<g id="a_node7"><a xlink:href="particle__base_8hpp.html" target="_top" xlink:title=" ">
<polygon fill="white" stroke="black" points="195.5,-112.5 195.5,-131.5 298.5,-131.5 298.5,-112.5 195.5,-112.5"/>
<text text-anchor="middle" x="247" y="-119.5" font-family="Helvetica,sans-Serif" font-size="10.00">particle_base.hpp</text>
</a>
</g>
</g>
<!-- Node5&#45;&gt;Node7 -->
<g id="edge6" class="edge">
<title>Node5&#45;&gt;Node7</title>
<path fill="none" stroke="midnightblue" d="M295.68,-168.32C287.11,-160.34 274.19,-148.31 263.81,-138.65"/>
<polygon fill="midnightblue" stroke="midnightblue" points="266.19,-136.09 256.49,-131.83 261.42,-141.21 266.19,-136.09"/>
</g>
<!-- Node8 -->
<g id="node8" class="node">
<title>Node8</title>
<g id="a_node8"><a xlink:href="changeover_8hpp.html" target="_top" xlink:title=" ">
<polygon fill="white" stroke="black" points="317,-112.5 317,-131.5 411,-131.5 411,-112.5 317,-112.5"/>
<text text-anchor="middle" x="364" y="-119.5" font-family="Helvetica,sans-Serif" font-size="10.00">changeover.hpp</text>
</a>
</g>
</g>
<!-- Node5&#45;&gt;Node8 -->
<g id="edge7" class="edge">
<title>Node5&#45;&gt;Node8</title>
<path fill="none" stroke="midnightblue" d="M314.48,-168.32C323.2,-160.34 336.34,-148.31 346.9,-138.65"/>
<polygon fill="midnightblue" stroke="midnightblue" points="349.33,-141.17 354.35,-131.83 344.61,-136 349.33,-141.17"/>
</g>
<!-- Node12 -->
<g id="node12" class="node">
<title>Node12</title>
<g id="a_node12"><a xlink:href="artificial__particles_8hpp.html" target="_top" xlink:title=" ">
<polygon fill="white" stroke="black" points="570.5,-112.5 570.5,-131.5 695.5,-131.5 695.5,-112.5 570.5,-112.5"/>
<text text-anchor="middle" x="633" y="-119.5" font-family="Helvetica,sans-Serif" font-size="10.00">artificial_particles.hpp</text>
</a>
</g>
</g>
<!-- Node5&#45;&gt;Node12 -->
<g id="edge11" class="edge">
<title>Node5&#45;&gt;Node12</title>
<path fill="none" stroke="midnightblue" d="M333.25,-172.35C385.83,-163.69 499.82,-144.93 571.1,-133.19"/>
<polygon fill="midnightblue" stroke="midnightblue" points="571.99,-136.59 581.29,-131.51 570.86,-129.68 571.99,-136.59"/>
</g>
<!-- Node9 -->
<g id="node9" class="node">
<title>Node9</title>
<g id="a_node9"><a xlink:title=" ">
<polygon fill="white" stroke="#bfbfbf" points="427,-0.5 427,-19.5 487,-19.5 487,-0.5 427,-0.5"/>
<text text-anchor="middle" x="457" y="-7.5" font-family="Helvetica,sans-Serif" font-size="10.00">iostream</text>
</a>
</g>
</g>
<!-- Node8&#45;&gt;Node9 -->
<g id="edge8" class="edge">
<title>Node8&#45;&gt;Node9</title>
<path fill="none" stroke="midnightblue" d="M335.97,-112.49C304.63,-101.53 260.64,-80.89 280,-56 296.6,-34.65 369.68,-21.77 416.59,-15.55"/>
<polygon fill="midnightblue" stroke="midnightblue" points="417.27,-19 426.75,-14.26 416.39,-12.05 417.27,-19"/>
</g>
<!-- Node10 -->
<g id="node10" class="node">
<title>Node10</title>
<g id="a_node10"><a xlink:title=" ">
<polygon fill="white" stroke="#bfbfbf" points="289,-56.5 289,-75.5 345,-75.5 345,-56.5 289,-56.5"/>
<text text-anchor="middle" x="317" y="-63.5" font-family="Helvetica,sans-Serif" font-size="10.00">iomanip</text>
</a>
</g>
</g>
<!-- Node8&#45;&gt;Node10 -->
<g id="edge9" class="edge">
<title>Node8&#45;&gt;Node10</title>
<path fill="none" stroke="midnightblue" d="M356.24,-112.08C349.46,-104.3 339.46,-92.8 331.24,-83.37"/>
<polygon fill="midnightblue" stroke="midnightblue" points="333.82,-81 324.62,-75.75 328.54,-85.59 333.82,-81"/>
</g>
<!-- Node11 -->
<g id="node11" class="node">
<title>Node11</title>
<g id="a_node11"><a xlink:title=" ">
<polygon fill="white" stroke="#bfbfbf" points="363,-56.5 363,-75.5 461,-75.5 461,-56.5 363,-56.5"/>
<text text-anchor="middle" x="412" y="-63.5" font-family="Helvetica,sans-Serif" font-size="10.00">Common/Float.h</text>
</a>
</g>
</g>
<!-- Node8&#45;&gt;Node11 -->
<g id="edge10" class="edge">
<title>Node8&#45;&gt;Node11</title>
<path fill="none" stroke="midnightblue" d="M371.93,-112.08C378.85,-104.3 389.07,-92.8 397.45,-83.37"/>
<polygon fill="midnightblue" stroke="midnightblue" points="400.19,-85.55 404.22,-75.75 394.96,-80.9 400.19,-85.55"/>
</g>
<!-- Node13 -->
<g id="node13" class="node">
<title>Node13</title>
<g id="a_node13"><a xlink:title=" ">
<polygon fill="white" stroke="#bfbfbf" points="598,-0.5 598,-19.5 726,-19.5 726,-0.5 598,-0.5"/>
<text text-anchor="middle" x="662" y="-7.5" font-family="Helvetica,sans-Serif" font-size="10.00">Common/binary_tree.h</text>
</a>
</g>
</g>
<!-- Node12&#45;&gt;Node13 -->
<g id="edge12" class="edge">
<title>Node12&#45;&gt;Node13</title>
<path fill="none" stroke="midnightblue" d="M695.73,-114.91C720.9,-109.03 747.55,-97.69 763,-76 780.94,-50.8 744.17,-32.98 710.07,-22.45"/>
<polygon fill="midnightblue" stroke="midnightblue" points="710.69,-18.98 700.11,-19.54 708.73,-25.7 710.69,-18.98"/>
</g>
<!-- Node14 -->
<g id="node14" class="node">
<title>Node14</title>
<g id="a_node14"><a xlink:href="tidal__tensor_8hpp.html" target="_top" xlink:title=" ">
<polygon fill="white" stroke="black" points="658.5,-56.5 658.5,-75.5 753.5,-75.5 753.5,-56.5 658.5,-56.5"/>
<text text-anchor="middle" x="706" y="-63.5" font-family="Helvetica,sans-Serif" font-size="10.00">tidal_tensor.hpp</text>
</a>
</g>
</g>
<!-- Node12&#45;&gt;Node14 -->
<g id="edge13" class="edge">
<title>Node12&#45;&gt;Node14</title>
<path fill="none" stroke="midnightblue" d="M644.73,-112.32C655.84,-104.11 672.74,-91.6 685.98,-81.81"/>
<polygon fill="midnightblue" stroke="midnightblue" points="688.1,-84.59 694.06,-75.83 683.94,-78.97 688.1,-84.59"/>
</g>
<!-- Node15 -->
<g id="node15" class="node">
<title>Node15</title>
<g id="a_node15"><a xlink:href="pseudoparticle__multipole_8hpp.html" target="_top" xlink:title=" ">
<polygon fill="white" stroke="black" points="479.5,-56.5 479.5,-75.5 640.5,-75.5 640.5,-56.5 479.5,-56.5"/>
<text text-anchor="middle" x="560" y="-63.5" font-family="Helvetica,sans-Serif" font-size="10.00">pseudoparticle_multipole.hpp</text>
</a>
</g>
</g>
<!-- Node12&#45;&gt;Node15 -->
<g id="edge14" class="edge">
<title>Node12&#45;&gt;Node15</title>
<path fill="none" stroke="midnightblue" d="M621.27,-112.32C610.16,-104.11 593.26,-91.6 580.02,-81.81"/>
<polygon fill="midnightblue" stroke="midnightblue" points="582.06,-78.97 571.94,-75.83 577.9,-84.59 582.06,-78.97"/>
</g>
<!-- Node15&#45;&gt;Node9 -->
<g id="edge16" class="edge">
<title>Node15&#45;&gt;Node9</title>
<path fill="none" stroke="midnightblue" d="M543.45,-56.32C527.01,-47.7 501.57,-34.36 482.53,-24.39"/>
<polygon fill="midnightblue" stroke="midnightblue" points="483.99,-21.2 473.51,-19.65 480.74,-27.4 483.99,-21.2"/>
</g>
<!-- Node15&#45;&gt;Node13 -->
<g id="edge15" class="edge">
<title>Node15&#45;&gt;Node13</title>
<path fill="none" stroke="midnightblue" d="M576.39,-56.32C592.67,-47.7 617.87,-34.36 636.72,-24.39"/>
<polygon fill="midnightblue" stroke="midnightblue" points="638.45,-27.43 645.65,-19.65 635.18,-21.24 638.45,-27.43"/>
</g>
<!-- Node17&#45;&gt;Node5 -->
<g id="edge19" class="edge">
<title>Node17&#45;&gt;Node5</title>
<path fill="none" stroke="midnightblue" d="M193.07,-224.44C215.06,-215.52 249.73,-201.44 274.66,-191.32"/>
<polygon fill="midnightblue" stroke="midnightblue" points="276.08,-194.52 284.02,-187.52 273.44,-188.04 276.08,-194.52"/>
</g>
</g>
</svg>
