<?xml version="1.0" encoding="UTF-8" standalone="no"?>
<!DOCTYPE svg PUBLIC "-//W3C//DTD SVG 1.1//EN"
 "http://www.w3.org/Graphics/SVG/1.1/DTD/svg11.dtd">
<!-- Generated by graphviz version 2.43.0 (0)
 -->
<!-- Title: hard.hpp Pages: 1 -->
<!--zoomable 420 -->
<svg id="main" version="1.1" xmlns="http://www.w3.org/2000/svg" xmlns:xlink="http://www.w3.org/1999/xlink" xml:space="preserve" onload="init(evt)">
<style type="text/css"><![CDATA[
.edge:hover path { stroke: red; }
.edge:hover polygon { stroke: red; fill: red; }
]]></style>
<script type="text/javascript"><![CDATA[
var edges = document.getElementsByTagName('g');
if (edges && edges.length) {
  for (var i=0;i<edges.length;i++) {
    if (edges[i].id.substr(0,4)=='edge') {
      edges[i].setAttribute('class','edge');
    }
  }
}
]]></script>
        <defs>
                <circle id="rim" cx="0" cy="0" r="7"/>
                <circle id="rim2" cx="0" cy="0" r="3.5"/>
                <g id="zoomPlus">
                        <use xlink:href="#rim" fill="#404040">
                                <set attributeName="fill" to="#808080" begin="zoomplus.mouseover" end="zoomplus.mouseout"/>
                        </use>
                        <path d="M-4,0h8M0,-4v8" fill="none" stroke="white" stroke-width="1.5" pointer-events="none"/>
                </g>
                <g id="zoomMin">
                        <use xlink:href="#rim" fill="#404040">
                                <set attributeName="fill" to="#808080" begin="zoomminus.mouseover" end="zoomminus.mouseout"/>
                        </use>
                        <path d="M-4,0h8" fill="none" stroke="white" stroke-width="1.5" pointer-events="none"/>
                </g>
                <g id="dirArrow">
                        <path fill="none" stroke="white" stroke-width="1.5" d="M0,-3.0v7 M-2.5,-0.5L0,-3.0L2.5,-0.5"/>
                </g>
               <g id="resetDef">
                       <use xlink:href="#rim2" fill="#404040">
                               <set attributeName="fill" to="#808080" begin="reset.mouseover" end="reset.mouseout"/>
                       </use>
               </g>
        </defs>

<script type="text/javascript">
var viewWidth = 1603;
var viewHeight = 420;
var sectionId = 'dynsection-0';
</script>
<script xlink:href="svgpan.js"/>
<svg id="graph" class="graph">
<g id="viewport">
<title>hard.hpp</title>
<polygon fill="white" stroke="transparent" points="-4,4 -4,-416 1599,-416 1599,4 -4,4"/>
<!-- Node1 -->
<g id="node1" class="node">
<title>Node1</title>
<g id="a_node1"><a xlink:title=" ">
<polygon fill="#bfbfbf" stroke="black" points="655,-392.5 655,-411.5 714,-411.5 714,-392.5 655,-392.5"/>
<text text-anchor="middle" x="684.5" y="-399.5" font-family="Helvetica,sans-Serif" font-size="10.00">hard.hpp</text>
</a>
</g>
</g>
<!-- Node2 -->
<g id="node2" class="node">
<title>Node2</title>
<g id="a_node2"><a xlink:title=" ">
<polygon fill="white" stroke="#bfbfbf" points="0,-336.5 0,-355.5 49,-355.5 49,-336.5 0,-336.5"/>
<text text-anchor="middle" x="24.5" y="-343.5" font-family="Helvetica,sans-Serif" font-size="10.00">cstdlib</text>
</a>
</g>
</g>
<!-- Node1&#45;&gt;Node2 -->
<g id="edge1" class="edge">
<title>Node1&#45;&gt;Node2</title>
<path fill="none" stroke="midnightblue" d="M654.94,-400.83C566.09,-399.91 293.68,-394.08 59.34,-355.8"/>
<polygon fill="midnightblue" stroke="midnightblue" points="59.7,-352.31 49.27,-354.13 58.56,-359.22 59.7,-352.31"/>
</g>
<!-- Node3 -->
<g id="node3" class="node">
<title>Node3</title>
<g id="a_node3"><a xlink:title=" ">
<polygon fill="white" stroke="#bfbfbf" points="67.5,-336.5 67.5,-355.5 131.5,-355.5 131.5,-336.5 67.5,-336.5"/>
<text text-anchor="middle" x="99.5" y="-343.5" font-family="Helvetica,sans-Serif" font-size="10.00">algorithm</text>
</a>
</g>
</g>
<!-- Node1&#45;&gt;Node3 -->
<g id="edge2" class="edge">
<title>Node1&#45;&gt;Node3</title>
<path fill="none" stroke="midnightblue" d="M654.86,-399.94C574.08,-396.76 343.26,-385.7 141.83,-356"/>
<polygon fill="midnightblue" stroke="midnightblue" points="142.06,-352.5 131.65,-354.48 141.03,-359.42 142.06,-352.5"/>
</g>
<!-- Node4 -->
<g id="node4" class="node">
<title>Node4</title>
<g id="a_node4"><a xlink:title=" ">
<polygon fill="white" stroke="#bfbfbf" points="149.5,-336.5 149.5,-355.5 297.5,-355.5 297.5,-336.5 149.5,-336.5"/>
<text text-anchor="middle" x="223.5" y="-343.5" font-family="Helvetica,sans-Serif" font-size="10.00">AR/symplectic_integrator.h</text>
</a>
</g>
</g>
<!-- Node1&#45;&gt;Node4 -->
<g id="edge3" class="edge">
<title>Node1&#45;&gt;Node4</title>
<path fill="none" stroke="midnightblue" d="M654.96,-397.54C585.73,-389.43 410.93,-368.96 306.3,-356.7"/>
<polygon fill="midnightblue" stroke="midnightblue" points="306.43,-353.19 296.09,-355.5 305.61,-360.14 306.43,-353.19"/>
</g>
<!-- Node5 -->
<g id="node5" class="node">
<title>Node5</title>
<g id="a_node5"><a xlink:title=" ">
<polygon fill="white" stroke="#bfbfbf" points="316,-336.5 316,-355.5 475,-355.5 475,-336.5 316,-336.5"/>
<text text-anchor="middle" x="395.5" y="-343.5" font-family="Helvetica,sans-Serif" font-size="10.00">Hermite/hermite_integrator.h</text>
</a>
</g>
</g>
<!-- Node1&#45;&gt;Node5 -->
<g id="edge4" class="edge">
<title>Node1&#45;&gt;Node5</title>
<path fill="none" stroke="midnightblue" d="M654.93,-395.47C607.13,-386.54 512.11,-368.79 451.29,-357.42"/>
<polygon fill="midnightblue" stroke="midnightblue" points="451.56,-353.91 441.09,-355.52 450.28,-360.8 451.56,-353.91"/>
</g>
<!-- Node6 -->
<g id="node6" class="node">
<title>Node6</title>
<g id="a_node6"><a xlink:title=" ">
<polygon fill="white" stroke="#bfbfbf" points="1083,-224.5 1083,-243.5 1232,-243.5 1232,-224.5 1083,-224.5"/>
<text text-anchor="middle" x="1157.5" y="-231.5" font-family="Helvetica,sans-Serif" font-size="10.00">Hermite/hermite_particle.h</text>
</a>
</g>
</g>
<!-- Node1&#45;&gt;Node6 -->
<g id="edge5" class="edge">
<title>Node1&#45;&gt;Node6</title>
<path fill="none" stroke="midnightblue" d="M714.29,-401.08C772.89,-400.35 906.45,-394.21 1010.5,-356 1054.02,-340.02 1063.05,-329.87 1098.5,-300 1115.9,-285.34 1133.07,-265.67 1144.36,-251.82"/>
<polygon fill="midnightblue" stroke="midnightblue" points="1147.37,-253.67 1150.88,-243.67 1141.9,-249.3 1147.37,-253.67"/>
</g>
<!-- Node7 -->
<g id="node7" class="node">
<title>Node7</title>
<g id="a_node7"><a xlink:href="hard__ptcl_8hpp.html" target="_top" xlink:title=" ">
<polygon fill="white" stroke="black" points="777,-224.5 777,-243.5 860,-243.5 860,-224.5 777,-224.5"/>
<text text-anchor="middle" x="818.5" y="-231.5" font-family="Helvetica,sans-Serif" font-size="10.00">hard_ptcl.hpp</text>
</a>
</g>
</g>
<!-- Node1&#45;&gt;Node7 -->
<g id="edge6" class="edge">
<title>Node1&#45;&gt;Node7</title>
<path fill="none" stroke="midnightblue" d="M691.7,-392.08C713.16,-365.49 776.9,-286.54 804.97,-251.76"/>
<polygon fill="midnightblue" stroke="midnightblue" points="808.03,-253.55 811.58,-243.57 802.58,-249.15 808.03,-253.55"/>
</g>
<!-- Node15 -->
<g id="node15" class="node">
<title>Node15</title>
<g id="a_node15"><a xlink:href="artificial__particles_8hpp.html" target="_top" xlink:title=" ">
<polygon fill="white" stroke="black" points="1130,-112.5 1130,-131.5 1255,-131.5 1255,-112.5 1130,-112.5"/>
<text text-anchor="middle" x="1192.5" y="-119.5" font-family="Helvetica,sans-Serif" font-size="10.00">artificial_particles.hpp</text>
</a>
</g>
</g>
<!-- Node1&#45;&gt;Node15 -->
<g id="edge49" class="edge">
<title>Node1&#45;&gt;Node15</title>
<path fill="none" stroke="midnightblue" d="M714.15,-399.79C806.15,-395.79 1085.75,-381.79 1172.5,-356 1274.64,-325.63 1329.49,-335.27 1384.5,-244 1420.22,-184.74 1316.58,-149.84 1247.97,-133.77"/>
<polygon fill="midnightblue" stroke="midnightblue" points="1248.65,-130.33 1238.12,-131.53 1247.1,-137.16 1248.65,-130.33"/>
</g>
<!-- Node19 -->
<g id="node19" class="node">
<title>Node19</title>
<g id="a_node19"><a xlink:href="soft__ptcl_8hpp.html" target="_top" xlink:title=" ">
<polygon fill="white" stroke="black" points="645,-280.5 645,-299.5 724,-299.5 724,-280.5 645,-280.5"/>
<text text-anchor="middle" x="684.5" y="-287.5" font-family="Helvetica,sans-Serif" font-size="10.00">soft_ptcl.hpp</text>
</a>
</g>
</g>
<!-- Node1&#45;&gt;Node19 -->
<g id="edge20" class="edge">
<title>Node1&#45;&gt;Node19</title>
<path fill="none" stroke="midnightblue" d="M684.5,-392.37C684.5,-374.62 684.5,-333.67 684.5,-309.6"/>
<polygon fill="midnightblue" stroke="midnightblue" points="688,-309.59 684.5,-299.59 681,-309.59 688,-309.59"/>
</g>
<!-- Node20 -->
<g id="node20" class="node">
<title>Node20</title>
<g id="a_node20"><a xlink:href="hermite__interaction_8hpp.html" target="_top" xlink:title=" ">
<polygon fill="white" stroke="black" points="454.5,-168.5 454.5,-187.5 588.5,-187.5 588.5,-168.5 454.5,-168.5"/>
<text text-anchor="middle" x="521.5" y="-175.5" font-family="Helvetica,sans-Serif" font-size="10.00">hermite_interaction.hpp</text>
</a>
</g>
</g>
<!-- Node1&#45;&gt;Node20 -->
<g id="edge22" class="edge">
<title>Node1&#45;&gt;Node20</title>
<path fill="none" stroke="midnightblue" d="M673.88,-392.35C663.65,-383.74 648.08,-369.84 636.5,-356 591.31,-302.01 549.18,-229.37 530.97,-196.48"/>
<polygon fill="midnightblue" stroke="midnightblue" points="533.98,-194.7 526.1,-187.61 527.84,-198.06 533.98,-194.7"/>
</g>
<!-- Node21 -->
<g id="node21" class="node">
<title>Node21</title>
<g id="a_node21"><a xlink:href="hermite__information_8hpp.html" target="_top" xlink:title=" ">
<polygon fill="white" stroke="black" points="374.5,-224.5 374.5,-243.5 512.5,-243.5 512.5,-224.5 374.5,-224.5"/>
<text text-anchor="middle" x="443.5" y="-231.5" font-family="Helvetica,sans-Serif" font-size="10.00">hermite_information.hpp</text>
</a>
</g>
</g>
<!-- Node1&#45;&gt;Node21 -->
<g id="edge25" class="edge">
<title>Node1&#45;&gt;Node21</title>
<path fill="none" stroke="midnightblue" d="M654.81,-398.59C620.96,-394.55 565.28,-383.89 526.5,-356 488.89,-328.95 462.83,-279.27 450.89,-252.76"/>
<polygon fill="midnightblue" stroke="midnightblue" points="454.08,-251.32 446.89,-243.54 447.66,-254.1 454.08,-251.32"/>
</g>
<!-- Node22 -->
<g id="node22" class="node">
<title>Node22</title>
<g id="a_node22"><a xlink:href="hermite__perturber_8hpp.html" target="_top" xlink:title=" ">
<polygon fill="white" stroke="black" points="1470,-336.5 1470,-355.5 1595,-355.5 1595,-336.5 1470,-336.5"/>
<text text-anchor="middle" x="1532.5" y="-343.5" font-family="Helvetica,sans-Serif" font-size="10.00">hermite_perturber.hpp</text>
</a>
</g>
</g>
<!-- Node1&#45;&gt;Node22 -->
<g id="edge28" class="edge">
<title>Node1&#45;&gt;Node22</title>
<path fill="none" stroke="midnightblue" d="M714.31,-399.88C817.27,-395.9 1167.32,-381.23 1455.5,-356 1456.97,-355.87 1458.45,-355.74 1459.94,-355.6"/>
<polygon fill="midnightblue" stroke="midnightblue" points="1460.3,-359.08 1469.92,-354.62 1459.62,-352.11 1460.3,-359.08"/>
</g>
<!-- Node23 -->
<g id="node23" class="node">
<title>Node23</title>
<g id="a_node23"><a xlink:href="ar__interaction_8hpp.html" target="_top" xlink:title=" ">
<polygon fill="white" stroke="black" points="896,-336.5 896,-355.5 1001,-355.5 1001,-336.5 896,-336.5"/>
<text text-anchor="middle" x="948.5" y="-343.5" font-family="Helvetica,sans-Serif" font-size="10.00">ar_interaction.hpp</text>
</a>
</g>
</g>
<!-- Node1&#45;&gt;Node23 -->
<g id="edge29" class="edge">
<title>Node1&#45;&gt;Node23</title>
<path fill="none" stroke="midnightblue" d="M714.02,-394.96C758.22,-385.92 842.25,-368.73 896.79,-357.58"/>
<polygon fill="midnightblue" stroke="midnightblue" points="897.52,-361 906.61,-355.57 896.11,-354.14 897.52,-361"/>
</g>
<!-- Node26 -->
<g id="node26" class="node">
<title>Node26</title>
<g id="a_node26"><a xlink:href="ar__perturber_8hpp.html" target="_top" xlink:title=" ">
<polygon fill="white" stroke="black" points="1160,-280.5 1160,-299.5 1257,-299.5 1257,-280.5 1160,-280.5"/>
<text text-anchor="middle" x="1208.5" y="-287.5" font-family="Helvetica,sans-Serif" font-size="10.00">ar_perturber.hpp</text>
</a>
</g>
</g>
<!-- Node1&#45;&gt;Node26 -->
<g id="edge46" class="edge">
<title>Node1&#45;&gt;Node26</title>
<path fill="none" stroke="midnightblue" d="M714.18,-400.74C803.58,-399.57 1068.81,-392.97 1145.5,-356 1167.54,-345.38 1186.07,-323.63 1197.21,-308.23"/>
<polygon fill="midnightblue" stroke="midnightblue" points="1200.36,-309.83 1203.16,-299.61 1194.6,-305.85 1200.36,-309.83"/>
</g>
<!-- Node29 -->
<g id="node29" class="node">
<title>Node29</title>
<g id="a_node29"><a xlink:href="search__group__candidate_8hpp.html" target="_top" xlink:title=" ">
<polygon fill="white" stroke="black" points="644.5,-168.5 644.5,-187.5 800.5,-187.5 800.5,-168.5 644.5,-168.5"/>
<text text-anchor="middle" x="722.5" y="-175.5" font-family="Helvetica,sans-Serif" font-size="10.00">search_group_candidate.hpp</text>
</a>
</g>
</g>
<!-- Node1&#45;&gt;Node29 -->
<g id="edge47" class="edge">
<title>Node1&#45;&gt;Node29</title>
<path fill="none" stroke="midnightblue" d="M676.23,-392.26C658.5,-372.44 619.72,-322.49 635.5,-280 648.94,-243.8 681.82,-211.88 703.09,-194.04"/>
<polygon fill="midnightblue" stroke="midnightblue" points="705.33,-196.74 710.87,-187.71 700.91,-191.31 705.33,-196.74"/>
</g>
<!-- Node30 -->
<g id="node30" class="node">
<title>Node30</title>
<g id="a_node30"><a xlink:href="stability_8hpp.html" target="_top" xlink:title=" ">
<polygon fill="white" stroke="black" points="1436.5,-280.5 1436.5,-299.5 1512.5,-299.5 1512.5,-280.5 1436.5,-280.5"/>
<text text-anchor="middle" x="1474.5" y="-287.5" font-family="Helvetica,sans-Serif" font-size="10.00">stability.hpp</text>
</a>
</g>
</g>
<!-- Node1&#45;&gt;Node30 -->
<g id="edge50" class="edge">
<title>Node1&#45;&gt;Node30</title>
<path fill="none" stroke="midnightblue" d="M714.28,-400.52C843.7,-398.24 1353.61,-387.34 1417.5,-356 1438.48,-345.71 1455.02,-323.89 1464.77,-308.38"/>
<polygon fill="midnightblue" stroke="midnightblue" points="1467.83,-310.08 1469.93,-299.69 1461.81,-306.5 1467.83,-310.08"/>
</g>
<!-- Node8 -->
<g id="node8" class="node">
<title>Node8</title>
<g id="a_node8"><a xlink:href="ptcl_8hpp.html" target="_top" xlink:title=" ">
<polygon fill="white" stroke="black" points="818.5,-168.5 818.5,-187.5 874.5,-187.5 874.5,-168.5 818.5,-168.5"/>
<text text-anchor="middle" x="846.5" y="-175.5" font-family="Helvetica,sans-Serif" font-size="10.00">ptcl.hpp</text>
</a>
</g>
</g>
<!-- Node7&#45;&gt;Node8 -->
<g id="edge7" class="edge">
<title>Node7&#45;&gt;Node8</title>
<path fill="none" stroke="midnightblue" d="M823.12,-224.08C826.96,-216.69 832.52,-205.95 837.26,-196.81"/>
<polygon fill="midnightblue" stroke="midnightblue" points="840.47,-198.24 841.96,-187.75 834.25,-195.02 840.47,-198.24"/>
</g>
<!-- Node9 -->
<g id="node9" class="node">
<title>Node9</title>
<g id="a_node9"><a xlink:title=" ">
<polygon fill="white" stroke="#bfbfbf" points="661,-112.5 661,-131.5 786,-131.5 786,-112.5 661,-112.5"/>
<text text-anchor="middle" x="723.5" y="-119.5" font-family="Helvetica,sans-Serif" font-size="10.00">particle_simulator.hpp</text>
</a>
</g>
</g>
<!-- Node8&#45;&gt;Node9 -->
<g id="edge8" class="edge">
<title>Node8&#45;&gt;Node9</title>
<path fill="none" stroke="midnightblue" d="M827.01,-168.44C806.86,-159.6 775.18,-145.69 752.17,-135.59"/>
<polygon fill="midnightblue" stroke="midnightblue" points="753.46,-132.33 742.9,-131.52 750.65,-138.74 753.46,-132.33"/>
</g>
<!-- Node10 -->
<g id="node10" class="node">
<title>Node10</title>
<g id="a_node10"><a xlink:href="particle__base_8hpp.html" target="_top" xlink:title=" ">
<polygon fill="white" stroke="black" points="804,-112.5 804,-131.5 907,-131.5 907,-112.5 804,-112.5"/>
<text text-anchor="middle" x="855.5" y="-119.5" font-family="Helvetica,sans-Serif" font-size="10.00">particle_base.hpp</text>
</a>
</g>
</g>
<!-- Node8&#45;&gt;Node10 -->
<g id="edge9" class="edge">
<title>Node8&#45;&gt;Node10</title>
<path fill="none" stroke="midnightblue" d="M847.99,-168.08C849.18,-160.93 850.89,-150.64 852.38,-141.69"/>
<polygon fill="midnightblue" stroke="midnightblue" points="855.85,-142.19 854.04,-131.75 848.95,-141.04 855.85,-142.19"/>
</g>
<!-- Node11 -->
<g id="node11" class="node">
<title>Node11</title>
<g id="a_node11"><a xlink:href="changeover_8hpp.html" target="_top" xlink:title=" ">
<polygon fill="white" stroke="black" points="548.5,-112.5 548.5,-131.5 642.5,-131.5 642.5,-112.5 548.5,-112.5"/>
<text text-anchor="middle" x="595.5" y="-119.5" font-family="Helvetica,sans-Serif" font-size="10.00">changeover.hpp</text>
</a>
</g>
</g>
<!-- Node8&#45;&gt;Node11 -->
<g id="edge10" class="edge">
<title>Node8&#45;&gt;Node11</title>
<path fill="none" stroke="midnightblue" d="M818.24,-170.03C815.29,-169.33 812.34,-168.64 809.5,-168 754.66,-155.57 691.63,-142.46 648.26,-133.61"/>
<polygon fill="midnightblue" stroke="midnightblue" points="648.72,-130.14 638.22,-131.57 647.32,-137 648.72,-130.14"/>
</g>
<!-- Node8&#45;&gt;Node15 -->
<g id="edge14" class="edge">
<title>Node8&#45;&gt;Node15</title>
<path fill="none" stroke="midnightblue" d="M874.52,-172.63C929.33,-164.07 1052,-144.93 1127.94,-133.08"/>
<polygon fill="midnightblue" stroke="midnightblue" points="1128.54,-136.52 1137.88,-131.52 1127.46,-129.61 1128.54,-136.52"/>
</g>
<!-- Node12 -->
<g id="node12" class="node">
<title>Node12</title>
<g id="a_node12"><a xlink:title=" ">
<polygon fill="white" stroke="#bfbfbf" points="726.5,-0.5 726.5,-19.5 786.5,-19.5 786.5,-0.5 726.5,-0.5"/>
<text text-anchor="middle" x="756.5" y="-7.5" font-family="Helvetica,sans-Serif" font-size="10.00">iostream</text>
</a>
</g>
</g>
<!-- Node11&#45;&gt;Node12 -->
<g id="edge11" class="edge">
<title>Node11&#45;&gt;Node12</title>
<path fill="none" stroke="midnightblue" d="M588.35,-112.07C578.49,-98.6 563.33,-72.87 576.5,-56 593.54,-34.18 668.84,-21.37 716.49,-15.31"/>
<polygon fill="midnightblue" stroke="midnightblue" points="717,-18.78 726.5,-14.09 716.15,-11.83 717,-18.78"/>
</g>
<!-- Node13 -->
<g id="node13" class="node">
<title>Node13</title>
<g id="a_node13"><a xlink:title=" ">
<polygon fill="white" stroke="#bfbfbf" points="701.5,-56.5 701.5,-75.5 757.5,-75.5 757.5,-56.5 701.5,-56.5"/>
<text text-anchor="middle" x="729.5" y="-63.5" font-family="Helvetica,sans-Serif" font-size="10.00">iomanip</text>
</a>
</g>
</g>
<!-- Node11&#45;&gt;Node13 -->
<g id="edge12" class="edge">
<title>Node11&#45;&gt;Node13</title>
<path fill="none" stroke="midnightblue" d="M616.73,-112.44C638.88,-103.52 673.82,-89.44 698.94,-79.32"/>
<polygon fill="midnightblue" stroke="midnightblue" points="700.4,-82.5 708.37,-75.52 697.78,-76.01 700.4,-82.5"/>
</g>
<!-- Node14 -->
<g id="node14" class="node">
<title>Node14</title>
<g id="a_node14"><a xlink:title=" ">
<polygon fill="white" stroke="#bfbfbf" points="585.5,-56.5 585.5,-75.5 683.5,-75.5 683.5,-56.5 585.5,-56.5"/>
<text text-anchor="middle" x="634.5" y="-63.5" font-family="Helvetica,sans-Serif" font-size="10.00">Common/Float.h</text>
</a>
</g>
</g>
<!-- Node11&#45;&gt;Node14 -->
<g id="edge13" class="edge">
<title>Node11&#45;&gt;Node14</title>
<path fill="none" stroke="midnightblue" d="M601.94,-112.08C607.45,-104.46 615.53,-93.26 622.26,-83.94"/>
<polygon fill="midnightblue" stroke="midnightblue" points="625.16,-85.91 628.18,-75.75 619.49,-81.81 625.16,-85.91"/>
</g>
<!-- Node16 -->
<g id="node16" class="node">
<title>Node16</title>
<g id="a_node16"><a xlink:title=" ">
<polygon fill="white" stroke="#bfbfbf" points="1069.5,-0.5 1069.5,-19.5 1197.5,-19.5 1197.5,-0.5 1069.5,-0.5"/>
<text text-anchor="middle" x="1133.5" y="-7.5" font-family="Helvetica,sans-Serif" font-size="10.00">Common/binary_tree.h</text>
</a>
</g>
</g>
<!-- Node15&#45;&gt;Node16 -->
<g id="edge15" class="edge">
<title>Node15&#45;&gt;Node16</title>
<path fill="none" stroke="midnightblue" d="M1187.87,-112.37C1178.22,-94.38 1155.79,-52.55 1142.95,-28.63"/>
<polygon fill="midnightblue" stroke="midnightblue" points="1145.92,-26.75 1138.11,-19.59 1139.75,-30.06 1145.92,-26.75"/>
</g>
<!-- Node17 -->
<g id="node17" class="node">
<title>Node17</title>
<g id="a_node17"><a xlink:href="tidal__tensor_8hpp.html" target="_top" xlink:title=" ">
<polygon fill="white" stroke="black" points="1216,-56.5 1216,-75.5 1311,-75.5 1311,-56.5 1216,-56.5"/>
<text text-anchor="middle" x="1263.5" y="-63.5" font-family="Helvetica,sans-Serif" font-size="10.00">tidal_tensor.hpp</text>
</a>
</g>
</g>
<!-- Node15&#45;&gt;Node17 -->
<g id="edge16" class="edge">
<title>Node15&#45;&gt;Node17</title>
<path fill="none" stroke="midnightblue" d="M1203.91,-112.32C1214.61,-104.18 1230.84,-91.84 1243.66,-82.09"/>
<polygon fill="midnightblue" stroke="midnightblue" points="1246.04,-84.67 1251.89,-75.83 1241.81,-79.1 1246.04,-84.67"/>
</g>
<!-- Node18 -->
<g id="node18" class="node">
<title>Node18</title>
<g id="a_node18"><a xlink:href="pseudoparticle__multipole_8hpp.html" target="_top" xlink:title=" ">
<polygon fill="white" stroke="black" points="874,-56.5 874,-75.5 1035,-75.5 1035,-56.5 874,-56.5"/>
<text text-anchor="middle" x="954.5" y="-63.5" font-family="Helvetica,sans-Serif" font-size="10.00">pseudoparticle_multipole.hpp</text>
</a>
</g>
</g>
<!-- Node15&#45;&gt;Node18 -->
<g id="edge17" class="edge">
<title>Node15&#45;&gt;Node18</title>
<path fill="none" stroke="midnightblue" d="M1154.79,-112.44C1113.36,-103.04 1046.74,-87.93 1001.83,-77.74"/>
<polygon fill="midnightblue" stroke="midnightblue" points="1002.56,-74.32 992.04,-75.52 1001.01,-81.14 1002.56,-74.32"/>
</g>
<!-- Node18&#45;&gt;Node12 -->
<g id="edge19" class="edge">
<title>Node18&#45;&gt;Node12</title>
<path fill="none" stroke="midnightblue" d="M923.13,-56.44C888.94,-47.12 834.14,-32.17 796.79,-21.99"/>
<polygon fill="midnightblue" stroke="midnightblue" points="797.32,-18.51 786.75,-19.25 795.48,-25.26 797.32,-18.51"/>
</g>
<!-- Node18&#45;&gt;Node16 -->
<g id="edge18" class="edge">
<title>Node18&#45;&gt;Node16</title>
<path fill="none" stroke="midnightblue" d="M982.86,-56.44C1013.24,-47.28 1061.61,-32.69 1095.32,-22.52"/>
<polygon fill="midnightblue" stroke="midnightblue" points="1096.71,-25.76 1105.27,-19.52 1094.68,-19.05 1096.71,-25.76"/>
</g>
<!-- Node19&#45;&gt;Node8 -->
<g id="edge21" class="edge">
<title>Node19&#45;&gt;Node8</title>
<path fill="none" stroke="midnightblue" d="M694.77,-280.32C710.27,-267.39 740.78,-242.59 768.5,-224 785.59,-212.53 805.74,-200.96 821.27,-192.42"/>
<polygon fill="midnightblue" stroke="midnightblue" points="823.17,-195.37 830.28,-187.52 819.82,-189.22 823.17,-195.37"/>
</g>
<!-- Node20&#45;&gt;Node11 -->
<g id="edge24" class="edge">
<title>Node20&#45;&gt;Node11</title>
<path fill="none" stroke="midnightblue" d="M533.39,-168.32C544.65,-160.11 561.79,-147.6 575.21,-137.81"/>
<polygon fill="midnightblue" stroke="midnightblue" points="577.38,-140.56 583.39,-131.83 573.25,-134.9 577.38,-140.56"/>
</g>
<!-- Node20&#45;&gt;Node14 -->
<g id="edge23" class="edge">
<title>Node20&#45;&gt;Node14</title>
<path fill="none" stroke="midnightblue" d="M521.68,-168.38C522.4,-154.85 525.63,-128.49 539.5,-112 552.48,-96.56 571.97,-86.07 589.91,-79.12"/>
<polygon fill="midnightblue" stroke="midnightblue" points="591.44,-82.29 599.68,-75.62 589.08,-75.7 591.44,-82.29"/>
</g>
<!-- Node21&#45;&gt;Node14 -->
<g id="edge26" class="edge">
<title>Node21&#45;&gt;Node14</title>
<path fill="none" stroke="midnightblue" d="M441.46,-224.38C438.84,-211.3 435.73,-186.08 445.5,-168 472.85,-117.38 536.13,-91.06 581.95,-78.15"/>
<polygon fill="midnightblue" stroke="midnightblue" points="582.98,-81.5 591.73,-75.53 581.17,-74.74 582.98,-81.5"/>
</g>
<!-- Node21&#45;&gt;Node20 -->
<g id="edge27" class="edge">
<title>Node21&#45;&gt;Node20</title>
<path fill="none" stroke="midnightblue" d="M456.03,-224.32C468.09,-215.98 486.53,-203.21 500.77,-193.35"/>
<polygon fill="midnightblue" stroke="midnightblue" points="502.77,-196.22 509,-187.65 498.78,-190.47 502.77,-196.22"/>
</g>
<!-- Node23&#45;&gt;Node6 -->
<g id="edge36" class="edge">
<title>Node23&#45;&gt;Node6</title>
<path fill="none" stroke="midnightblue" d="M978.35,-336.47C1003.47,-328.7 1039.93,-316 1069.5,-300 1095.67,-285.83 1122.77,-264.66 1139.86,-250.36"/>
<polygon fill="midnightblue" stroke="midnightblue" points="1142.48,-252.73 1147.83,-243.58 1137.94,-247.4 1142.48,-252.73"/>
</g>
<!-- Node23&#45;&gt;Node7 -->
<g id="edge35" class="edge">
<title>Node23&#45;&gt;Node7</title>
<path fill="none" stroke="midnightblue" d="M895.79,-342.4C865.57,-337.87 829.89,-326.72 810.5,-300 800.71,-286.51 804.76,-267.15 810,-253.07"/>
<polygon fill="midnightblue" stroke="midnightblue" points="813.37,-254.09 814.04,-243.51 806.93,-251.36 813.37,-254.09"/>
</g>
<!-- Node23&#45;&gt;Node11 -->
<g id="edge33" class="edge">
<title>Node23&#45;&gt;Node11</title>
<path fill="none" stroke="midnightblue" d="M895.99,-344.43C816.88,-342.45 672.45,-334.13 635.5,-300 612.34,-278.61 600.94,-182.44 597.07,-141.52"/>
<polygon fill="midnightblue" stroke="midnightblue" points="600.56,-141.2 596.18,-131.56 593.59,-141.83 600.56,-141.2"/>
</g>
<!-- Node23&#45;&gt;Node14 -->
<g id="edge31" class="edge">
<title>Node23&#45;&gt;Node14</title>
<path fill="none" stroke="midnightblue" d="M951.59,-336.17C954.55,-327.2 958.82,-312.83 960.5,-300 961.65,-291.19 961.64,-288.82 960.5,-280 950.64,-203.45 973.68,-163.84 916.5,-112 915.47,-111.06 776.11,-89.14 693.71,-76.25"/>
<polygon fill="midnightblue" stroke="midnightblue" points="694.13,-72.77 683.71,-74.68 693.05,-79.69 694.13,-72.77"/>
</g>
<!-- Node23&#45;&gt;Node16 -->
<g id="edge32" class="edge">
<title>Node23&#45;&gt;Node16</title>
<path fill="none" stroke="midnightblue" d="M965.2,-336.49C979.17,-328.65 998.81,-315.84 1011.5,-300 1081.77,-212.25 1118.04,-78.11 1129.45,-29.45"/>
<polygon fill="midnightblue" stroke="midnightblue" points="1132.86,-30.22 1131.67,-19.69 1126.04,-28.67 1132.86,-30.22"/>
</g>
<!-- Node24 -->
<g id="node24" class="node">
<title>Node24</title>
<g id="a_node24"><a xlink:title=" ">
<polygon fill="white" stroke="#bfbfbf" points="819,-280.5 819,-299.5 866,-299.5 866,-280.5 819,-280.5"/>
<text text-anchor="middle" x="842.5" y="-287.5" font-family="Helvetica,sans-Serif" font-size="10.00">cmath</text>
</a>
</g>
</g>
<!-- Node23&#45;&gt;Node24 -->
<g id="edge30" class="edge">
<title>Node23&#45;&gt;Node24</title>
<path fill="none" stroke="midnightblue" d="M931.47,-336.32C914.47,-327.66 888.12,-314.24 868.51,-304.25"/>
<polygon fill="midnightblue" stroke="midnightblue" points="869.99,-301.08 859.49,-299.65 866.81,-307.31 869.99,-301.08"/>
</g>
<!-- Node25 -->
<g id="node25" class="node">
<title>Node25</title>
<g id="a_node25"><a xlink:title=" ">
<polygon fill="white" stroke="#bfbfbf" points="884,-280.5 884,-299.5 951,-299.5 951,-280.5 884,-280.5"/>
<text text-anchor="middle" x="917.5" y="-287.5" font-family="Helvetica,sans-Serif" font-size="10.00">AR/force.h</text>
</a>
</g>
</g>
<!-- Node23&#45;&gt;Node25 -->
<g id="edge34" class="edge">
<title>Node23&#45;&gt;Node25</title>
<path fill="none" stroke="midnightblue" d="M943.38,-336.08C939.09,-328.61 932.84,-317.72 927.56,-308.52"/>
<polygon fill="midnightblue" stroke="midnightblue" points="930.54,-306.68 922.52,-299.75 924.47,-310.17 930.54,-306.68"/>
</g>
<!-- Node23&#45;&gt;Node26 -->
<g id="edge37" class="edge">
<title>Node23&#45;&gt;Node26</title>
<path fill="none" stroke="midnightblue" d="M989.7,-336.44C1035.15,-327 1108.34,-311.8 1157.41,-301.61"/>
<polygon fill="midnightblue" stroke="midnightblue" points="1158.42,-304.98 1167.49,-299.52 1156.99,-298.12 1158.42,-304.98"/>
</g>
<!-- Node28 -->
<g id="node28" class="node">
<title>Node28</title>
<g id="a_node28"><a xlink:href="two__body__tide_8hpp.html" target="_top" xlink:title=" ">
<polygon fill="white" stroke="black" points="964,-112.5 964,-131.5 1073,-131.5 1073,-112.5 964,-112.5"/>
<text text-anchor="middle" x="1018.5" y="-119.5" font-family="Helvetica,sans-Serif" font-size="10.00">two_body_tide.hpp</text>
</a>
</g>
</g>
<!-- Node23&#45;&gt;Node28 -->
<g id="edge43" class="edge">
<title>Node23&#45;&gt;Node28</title>
<path fill="none" stroke="midnightblue" d="M961.03,-336.19C971.54,-328.07 986,-315.03 993.5,-300 1019.78,-247.34 1020.84,-175.57 1019.63,-141.9"/>
<polygon fill="midnightblue" stroke="midnightblue" points="1023.11,-141.49 1019.14,-131.67 1016.12,-141.83 1023.11,-141.49"/>
</g>
<!-- Node26&#45;&gt;Node6 -->
<g id="edge39" class="edge">
<title>Node26&#45;&gt;Node6</title>
<path fill="none" stroke="midnightblue" d="M1200.08,-280.08C1192.65,-272.22 1181.65,-260.57 1172.69,-251.08"/>
<polygon fill="midnightblue" stroke="midnightblue" points="1175.18,-248.62 1165.76,-243.75 1170.09,-253.42 1175.18,-248.62"/>
</g>
<!-- Node26&#45;&gt;Node7 -->
<g id="edge40" class="edge">
<title>Node26&#45;&gt;Node7</title>
<path fill="none" stroke="midnightblue" d="M1159.89,-282.27C1086.08,-272.05 946.31,-252.7 870.52,-242.2"/>
<polygon fill="midnightblue" stroke="midnightblue" points="870.65,-238.69 860.26,-240.78 869.69,-245.62 870.65,-238.69"/>
</g>
<!-- Node26&#45;&gt;Node16 -->
<g id="edge41" class="edge">
<title>Node26&#45;&gt;Node16</title>
<path fill="none" stroke="midnightblue" d="M1257.06,-287.03C1325.35,-281.37 1441.5,-259.85 1441.5,-179 1441.5,-179 1441.5,-179 1441.5,-121 1441.5,-70.31 1291.66,-36.82 1201.01,-21.19"/>
<polygon fill="midnightblue" stroke="midnightblue" points="1201.52,-17.73 1191.07,-19.51 1200.35,-24.63 1201.52,-17.73"/>
</g>
<!-- Node26&#45;&gt;Node17 -->
<g id="edge42" class="edge">
<title>Node26&#45;&gt;Node17</title>
<path fill="none" stroke="midnightblue" d="M1216.58,-280.42C1224.18,-271.85 1235.29,-257.99 1241.5,-244 1265.65,-189.57 1265.16,-171.55 1264.5,-112 1264.4,-103.4 1264.21,-93.87 1264.01,-85.8"/>
<polygon fill="midnightblue" stroke="midnightblue" points="1267.51,-85.53 1263.75,-75.63 1260.51,-85.71 1267.51,-85.53"/>
</g>
<!-- Node27 -->
<g id="node27" class="node">
<title>Node27</title>
<g id="a_node27"><a xlink:title=" ">
<polygon fill="white" stroke="#bfbfbf" points="1287.5,-224.5 1287.5,-243.5 1375.5,-243.5 1375.5,-224.5 1287.5,-224.5"/>
<text text-anchor="middle" x="1331.5" y="-231.5" font-family="Helvetica,sans-Serif" font-size="10.00">Common/list.h</text>
</a>
</g>
</g>
<!-- Node26&#45;&gt;Node27 -->
<g id="edge38" class="edge">
<title>Node26&#45;&gt;Node27</title>
<path fill="none" stroke="midnightblue" d="M1227.99,-280.44C1248.14,-271.6 1279.82,-257.69 1302.83,-247.59"/>
<polygon fill="midnightblue" stroke="midnightblue" points="1304.35,-250.74 1312.1,-243.52 1301.54,-244.33 1304.35,-250.74"/>
</g>
<!-- Node28&#45;&gt;Node14 -->
<g id="edge44" class="edge">
<title>Node28&#45;&gt;Node14</title>
<path fill="none" stroke="midnightblue" d="M963.95,-113.75C901.26,-105.36 795.02,-90.95 693.65,-76.15"/>
<polygon fill="midnightblue" stroke="midnightblue" points="693.94,-72.65 683.54,-74.67 692.93,-79.58 693.94,-72.65"/>
</g>
<!-- Node28&#45;&gt;Node16 -->
<g id="edge45" class="edge">
<title>Node28&#45;&gt;Node16</title>
<path fill="none" stroke="midnightblue" d="M1027.52,-112.37C1046.84,-93.89 1092.42,-50.29 1117.04,-26.74"/>
<polygon fill="midnightblue" stroke="midnightblue" points="1119.71,-29.03 1124.52,-19.59 1114.87,-23.97 1119.71,-29.03"/>
</g>
<!-- Node29&#45;&gt;Node9 -->
<g id="edge48" class="edge">
<title>Node29&#45;&gt;Node9</title>
<path fill="none" stroke="midnightblue" d="M722.67,-168.08C722.8,-161.01 722.98,-150.86 723.15,-141.99"/>
<polygon fill="midnightblue" stroke="midnightblue" points="726.65,-141.81 723.34,-131.75 719.65,-141.68 726.65,-141.81"/>
</g>
<!-- Node30&#45;&gt;Node16 -->
<g id="edge51" class="edge">
<title>Node30&#45;&gt;Node16</title>
<path fill="none" stroke="midnightblue" d="M1475.15,-280.45C1476.51,-261.95 1479.5,-216.85 1479.5,-179 1479.5,-179 1479.5,-179 1479.5,-121 1479.5,-64.42 1309.35,-33.1 1207.69,-19.44"/>
<polygon fill="midnightblue" stroke="midnightblue" points="1208.14,-15.97 1197.77,-18.13 1207.23,-22.91 1208.14,-15.97"/>
</g>
</g>
</svg>
        <g id="navigator" transform="translate(0 0)" fill="#404254">
                <rect fill="#f2f5e9" fill-opacity="0.5" stroke="#606060" stroke-width=".5" x="0" y="0" width="60" height="60"/>
                <use id="zoomplus" xlink:href="#zoomPlus" x="17" y="9" onmousedown="handleZoom(evt,'in')"/>
                <use id="zoomminus" xlink:href="#zoomMin" x="42" y="9" onmousedown="handleZoom(evt,'out')"/>
                <use id="reset" xlink:href="#resetDef" x="30" y="36" onmousedown="handleReset()"/>
                <g id="arrowUp" xlink:href="#dirArrow" transform="translate(30 24)" onmousedown="handlePan(0,-1)">
                  <use xlink:href="#rim" fill="#404040">
                        <set attributeName="fill" to="#808080" begin="arrowUp.mouseover" end="arrowUp.mouseout"/>
                  </use>
                  <path fill="none" stroke="white" stroke-width="1.5" d="M0,-3.0v7 M-2.5,-0.5L0,-3.0L2.5,-0.5"/>
                </g>
                <g id="arrowRight" xlink:href="#dirArrow" transform="rotate(90) translate(36 -43)" onmousedown="handlePan(1,0)">
                  <use xlink:href="#rim" fill="#404040">
                        <set attributeName="fill" to="#808080" begin="arrowRight.mouseover" end="arrowRight.mouseout"/>
                  </use>
                  <path fill="none" stroke="white" stroke-width="1.5" d="M0,-3.0v7 M-2.5,-0.5L0,-3.0L2.5,-0.5"/>
                </g>
                <g id="arrowDown" xlink:href="#dirArrow" transform="rotate(180) translate(-30 -48)" onmousedown="handlePan(0,1)">
                  <use xlink:href="#rim" fill="#404040">
                        <set attributeName="fill" to="#808080" begin="arrowDown.mouseover" end="arrowDown.mouseout"/>
                  </use>
                  <path fill="none" stroke="white" stroke-width="1.5" d="M0,-3.0v7 M-2.5,-0.5L0,-3.0L2.5,-0.5"/>
                </g>
                <g id="arrowLeft" xlink:href="#dirArrow" transform="rotate(270) translate(-36 17)" onmousedown="handlePan(-1,0)">
                  <use xlink:href="#rim" fill="#404040">
                        <set attributeName="fill" to="#808080" begin="arrowLeft.mouseover" end="arrowLeft.mouseout"/>
                  </use>
                  <path fill="none" stroke="white" stroke-width="1.5" d="M0,-3.0v7 M-2.5,-0.5L0,-3.0L2.5,-0.5"/>
                </g>
        </g>
        <svg viewBox="0 0 15 15" width="100%" height="30px" preserveAspectRatio="xMaxYMin meet">
         <g id="arrow_out" transform="scale(0.3 0.3)">
          <a xlink:href="hard_8hpp__incl_org.svg" target="_base">
           <rect id="button" ry="5" rx="5" y="6" x="6" height="38" width="38"
                fill="#f2f5e9" fill-opacity="0.5" stroke="#606060" stroke-width="1.0"/>
           <path id="arrow"
             d="M 11.500037,31.436501 C 11.940474,20.09759 22.043105,11.32322 32.158766,21.979434 L 37.068811,17.246167 C 37.068811,17.246167 37.088388,32 37.088388,32 L 22.160133,31.978069 C 22.160133,31.978069 26.997745,27.140456 26.997745,27.140456 C 18.528582,18.264221 13.291696,25.230495 11.500037,31.436501 z"
             style="fill:#404040;"/>
          </a>
         </g>
        </svg>
</svg>
