<?xml version="1.0" encoding="UTF-8" standalone="no"?>
<!DOCTYPE svg PUBLIC "-//W3C//DTD SVG 1.1//EN"
 "http://www.w3.org/Graphics/SVG/1.1/DTD/svg11.dtd">
<!-- Generated by graphviz version 2.43.0 (0)
 -->
<!-- Title: main Pages: 1 -->
<!--zoomable 357 -->
<svg id="main" version="1.1" xmlns="http://www.w3.org/2000/svg" xmlns:xlink="http://www.w3.org/1999/xlink" xml:space="preserve" onload="init(evt)">
<style type="text/css"><![CDATA[
.edge:hover path { stroke: red; }
.edge:hover polygon { stroke: red; fill: red; }
]]></style>
<script type="text/javascript"><![CDATA[
var edges = document.getElementsByTagName('g');
if (edges && edges.length) {
  for (var i=0;i<edges.length;i++) {
    if (edges[i].id.substr(0,4)=='edge') {
      edges[i].setAttribute('class','edge');
    }
  }
}
]]></script>
        <defs>
                <circle id="rim" cx="0" cy="0" r="7"/>
                <circle id="rim2" cx="0" cy="0" r="3.5"/>
                <g id="zoomPlus">
                        <use xlink:href="#rim" fill="#404040">
                                <set attributeName="fill" to="#808080" begin="zoomplus.mouseover" end="zoomplus.mouseout"/>
                        </use>
                        <path d="M-4,0h8M0,-4v8" fill="none" stroke="white" stroke-width="1.5" pointer-events="none"/>
                </g>
                <g id="zoomMin">
                        <use xlink:href="#rim" fill="#404040">
                                <set attributeName="fill" to="#808080" begin="zoomminus.mouseover" end="zoomminus.mouseout"/>
                        </use>
                        <path d="M-4,0h8" fill="none" stroke="white" stroke-width="1.5" pointer-events="none"/>
                </g>
                <g id="dirArrow">
                        <path fill="none" stroke="white" stroke-width="1.5" d="M0,-3.0v7 M-2.5,-0.5L0,-3.0L2.5,-0.5"/>
                </g>
               <g id="resetDef">
                       <use xlink:href="#rim2" fill="#404040">
                               <set attributeName="fill" to="#808080" begin="reset.mouseover" end="reset.mouseout"/>
                       </use>
               </g>
        </defs>

<script type="text/javascript">
var viewWidth = 622;
var viewHeight = 357;
var sectionId = 'dynsection-1';
</script>
<script xlink:href="svgpan.js"/>
<svg id="graph" class="graph">
<g id="viewport">
<title>main</title>
<polygon fill="white" stroke="transparent" points="-4,4 -4,-352.5 618,-352.5 618,4 -4,4"/>
<!-- Node1 -->
<g id="node1" class="node">
<title>Node1</title>
<g id="a_node1"><a xlink:title=" ">
<polygon fill="#bfbfbf" stroke="black" points="0,-148.5 0,-167.5 41,-167.5 41,-148.5 0,-148.5"/>
<text text-anchor="middle" x="20.5" y="-155.5" font-family="Helvetica,sans-Serif" font-size="10.00">main</text>
</a>
</g>
</g>
<!-- Node2 -->
<g id="node2" class="node">
<title>Node2</title>
<g id="a_node2"><a xlink:href="classHardManager.html#af7548086113d591778ce878a53dad036" target="_top" xlink:title="check paramters">
<polygon fill="white" stroke="black" points="77,-301.5 77,-320.5 230,-320.5 230,-301.5 77,-301.5"/>
<text text-anchor="middle" x="153.5" y="-308.5" font-family="Helvetica,sans-Serif" font-size="10.00">HardManager::checkParams</text>
</a>
</g>
</g>
<!-- Node1&#45;&gt;Node2 -->
<g id="edge1" class="edge">
<title>Node1&#45;&gt;Node2</title>
<path fill="none" stroke="midnightblue" d="M22.58,-167.82C25.84,-192.63 37.93,-258.26 77,-292 78.97,-293.7 81.07,-295.25 83.27,-296.67"/>
<polygon fill="midnightblue" stroke="midnightblue" points="81.72,-299.81 92.18,-301.49 85.05,-293.65 81.72,-299.81"/>
</g>
<!-- Node6 -->
<g id="node6" class="node">
<title>Node6</title>
<g id="a_node6"><a xlink:href="classBSEManager.html#a569c067ad29e6fd5f665c7fd83e3386d" target="_top" xlink:title=" ">
<polygon fill="white" stroke="black" points="79.5,-263.5 79.5,-282.5 227.5,-282.5 227.5,-263.5 79.5,-263.5"/>
<text text-anchor="middle" x="153.5" y="-270.5" font-family="Helvetica,sans-Serif" font-size="10.00">BSEManager::getBSEName</text>
</a>
</g>
</g>
<!-- Node1&#45;&gt;Node6 -->
<g id="edge5" class="edge">
<title>Node1&#45;&gt;Node6</title>
<path fill="none" stroke="midnightblue" d="M24.25,-167.6C30.35,-187.07 46.88,-231.27 77,-254 79.51,-255.89 82.18,-257.6 84.98,-259.14"/>
<polygon fill="midnightblue" stroke="midnightblue" points="83.68,-262.4 94.22,-263.49 86.67,-256.07 83.68,-262.4"/>
</g>
<!-- Node7 -->
<g id="node7" class="node">
<title>Node7</title>
<g id="a_node7"><a xlink:href="classBSEManager.html#a52d9f47da0278671ab0aa05281801446" target="_top" xlink:title=" ">
<polygon fill="white" stroke="black" points="77.5,-214 77.5,-244 229.5,-244 229.5,-214 77.5,-214"/>
<text text-anchor="start" x="85.5" y="-232" font-family="Helvetica,sans-Serif" font-size="10.00">BSEManager::getBSEOutput</text>
<text text-anchor="middle" x="153.5" y="-221" font-family="Helvetica,sans-Serif" font-size="10.00">FilenameSuffix</text>
</a>
</g>
</g>
<!-- Node1&#45;&gt;Node7 -->
<g id="edge6" class="edge">
<title>Node1&#45;&gt;Node7</title>
<path fill="none" stroke="midnightblue" d="M30.45,-167.58C40.77,-178.11 58.66,-194.86 77,-205 80.2,-206.77 83.54,-208.43 86.97,-209.98"/>
<polygon fill="midnightblue" stroke="midnightblue" points="85.63,-213.21 96.21,-213.85 88.34,-206.76 85.63,-213.21"/>
</g>
<!-- Node8 -->
<g id="node8" class="node">
<title>Node8</title>
<g id="a_node8"><a xlink:href="classBSEManager.html#a69d7169d4261241df2459d3ea3b96492" target="_top" xlink:title=" ">
<polygon fill="white" stroke="black" points="78,-165 78,-195 229,-195 229,-165 78,-165"/>
<text text-anchor="start" x="86" y="-183" font-family="Helvetica,sans-Serif" font-size="10.00">BSEManager::getSSEOutput</text>
<text text-anchor="middle" x="153.5" y="-172" font-family="Helvetica,sans-Serif" font-size="10.00">FilenameSuffix</text>
</a>
</g>
</g>
<!-- Node1&#45;&gt;Node8 -->
<g id="edge7" class="edge">
<title>Node1&#45;&gt;Node8</title>
<path fill="none" stroke="midnightblue" d="M41.11,-161.29C48.71,-162.57 57.97,-164.13 67.87,-165.79"/>
<polygon fill="midnightblue" stroke="midnightblue" points="67.5,-169.27 77.94,-167.48 68.66,-162.37 67.5,-169.27"/>
</g>
<!-- Node9 -->
<g id="node9" class="node">
<title>Node9</title>
<g id="a_node9"><a xlink:href="classHardManager.html#a1e0a4e8578cd0abf2f28f68c9702f347" target="_top" xlink:title="print parameters">
<polygon fill="white" stroke="black" points="98,-126.5 98,-145.5 209,-145.5 209,-126.5 98,-126.5"/>
<text text-anchor="middle" x="153.5" y="-133.5" font-family="Helvetica,sans-Serif" font-size="10.00">HardManager::print</text>
</a>
</g>
</g>
<!-- Node1&#45;&gt;Node9 -->
<g id="edge8" class="edge">
<title>Node1&#45;&gt;Node9</title>
<path fill="none" stroke="midnightblue" d="M41.11,-154.71C53.7,-152.59 70.84,-149.71 87.89,-146.85"/>
<polygon fill="midnightblue" stroke="midnightblue" points="88.61,-150.28 97.89,-145.17 87.45,-143.38 88.61,-150.28"/>
</g>
<!-- Node12 -->
<g id="node12" class="node">
<title>Node12</title>
<g id="a_node12"><a xlink:href="classIOParamsContainer.html#a972926da32b4043d06456ab6d35d7752" target="_top" xlink:title=" ">
<polygon fill="white" stroke="black" points="95.5,-77 95.5,-107 211.5,-107 211.5,-77 95.5,-77"/>
<text text-anchor="start" x="103.5" y="-95" font-family="Helvetica,sans-Serif" font-size="10.00">IOParamsContainer::</text>
<text text-anchor="middle" x="153.5" y="-84" font-family="Helvetica,sans-Serif" font-size="10.00">readAscii</text>
</a>
</g>
</g>
<!-- Node1&#45;&gt;Node12 -->
<g id="edge11" class="edge">
<title>Node1&#45;&gt;Node12</title>
<path fill="none" stroke="midnightblue" d="M32.28,-148.4C42.99,-139.28 60.19,-125.71 77,-117 81.22,-114.81 85.67,-112.76 90.22,-110.85"/>
<polygon fill="midnightblue" stroke="midnightblue" points="91.62,-114.06 99.63,-107.12 89.05,-107.55 91.62,-114.06"/>
</g>
<!-- Node13 -->
<g id="node13" class="node">
<title>Node13</title>
<g id="a_node13"><a xlink:href="classHardManager.html#aa779d00ba62155b0bb7da852ff411b56" target="_top" xlink:title="read class data to file with binary format">
<polygon fill="white" stroke="black" points="82.5,-38.5 82.5,-57.5 224.5,-57.5 224.5,-38.5 82.5,-38.5"/>
<text text-anchor="middle" x="153.5" y="-45.5" font-family="Helvetica,sans-Serif" font-size="10.00">HardManager::readBinary</text>
</a>
</g>
</g>
<!-- Node1&#45;&gt;Node13 -->
<g id="edge12" class="edge">
<title>Node1&#45;&gt;Node13</title>
<path fill="none" stroke="midnightblue" d="M24.6,-148.32C31.13,-129.57 48.09,-88.29 77,-67 79.53,-65.14 82.22,-63.45 85.03,-61.94"/>
<polygon fill="midnightblue" stroke="midnightblue" points="86.72,-65.01 94.31,-57.63 83.77,-58.66 86.72,-65.01"/>
</g>
<!-- Node16 -->
<g id="node16" class="node">
<title>Node16</title>
<g id="a_node16"><a xlink:href="classHardManager.html#a15998274cba2e1818e82ce08a2aaccb2" target="_top" xlink:title="set time step range">
<polygon fill="white" stroke="black" points="80.5,-0.5 80.5,-19.5 226.5,-19.5 226.5,-0.5 80.5,-0.5"/>
<text text-anchor="middle" x="153.5" y="-7.5" font-family="Helvetica,sans-Serif" font-size="10.00">HardManager::setDtRange</text>
</a>
</g>
</g>
<!-- Node1&#45;&gt;Node16 -->
<g id="edge15" class="edge">
<title>Node1&#45;&gt;Node16</title>
<path fill="none" stroke="midnightblue" d="M22.75,-148.19C26.38,-124.02 39.14,-61.25 77,-29 78.98,-27.31 81.09,-25.77 83.3,-24.37"/>
<polygon fill="midnightblue" stroke="midnightblue" points="85.08,-27.38 92.24,-19.58 81.77,-21.21 85.08,-27.38"/>
</g>
<!-- Node3 -->
<g id="node3" class="node">
<title>Node3</title>
<g id="a_node3"><a xlink:href="classArtificialParticleManager.html#ae62470120fa13e433cdf3f5433f452cb" target="_top" xlink:title="check paramters">
<polygon fill="white" stroke="black" points="266,-296 266,-326 402,-326 402,-296 266,-296"/>
<text text-anchor="start" x="274" y="-314" font-family="Helvetica,sans-Serif" font-size="10.00">ArtificialParticleManager</text>
<text text-anchor="middle" x="334" y="-303" font-family="Helvetica,sans-Serif" font-size="10.00">::checkParams</text>
</a>
</g>
</g>
<!-- Node2&#45;&gt;Node3 -->
<g id="edge2" class="edge">
<title>Node2&#45;&gt;Node3</title>
<path fill="none" stroke="midnightblue" d="M230.2,-311C238.64,-311 247.25,-311 255.72,-311"/>
<polygon fill="midnightblue" stroke="midnightblue" points="255.95,-314.5 265.95,-311 255.95,-307.5 255.95,-314.5"/>
</g>
<!-- Node4 -->
<g id="node4" class="node">
<title>Node4</title>
<g id="a_node4"><a xlink:href="classPseudoParticleMultipoleManager.html#ae68e816c46f10c7c2febed760dffd13d" target="_top" xlink:title="check paramters">
<polygon fill="white" stroke="black" points="438,-318 438,-348 614,-348 614,-318 438,-318"/>
<text text-anchor="start" x="446" y="-336" font-family="Helvetica,sans-Serif" font-size="10.00">PseudoParticleMultipoleManager</text>
<text text-anchor="middle" x="526" y="-325" font-family="Helvetica,sans-Serif" font-size="10.00">::checkParams</text>
</a>
</g>
</g>
<!-- Node3&#45;&gt;Node4 -->
<g id="edge3" class="edge">
<title>Node3&#45;&gt;Node4</title>
<path fill="none" stroke="midnightblue" d="M402.25,-318.79C410.54,-319.75 419.14,-320.74 427.76,-321.74"/>
<polygon fill="midnightblue" stroke="midnightblue" points="427.53,-325.24 437.87,-322.91 428.34,-318.28 427.53,-325.24"/>
</g>
<!-- Node5 -->
<g id="node5" class="node">
<title>Node5</title>
<g id="a_node5"><a xlink:href="classTidalTensor.html#a668eb0fe71a2fe1bdad53572a74d2224" target="_top" xlink:title="get particle number">
<polygon fill="white" stroke="black" points="457.5,-279.5 457.5,-298.5 594.5,-298.5 594.5,-279.5 457.5,-279.5"/>
<text text-anchor="middle" x="526" y="-286.5" font-family="Helvetica,sans-Serif" font-size="10.00">TidalTensor::getParticleN</text>
</a>
</g>
</g>
<!-- Node3&#45;&gt;Node5 -->
<g id="edge4" class="edge">
<title>Node3&#45;&gt;Node5</title>
<path fill="none" stroke="midnightblue" d="M402.25,-303.21C416.74,-301.54 432.17,-299.75 447.02,-298.03"/>
<polygon fill="midnightblue" stroke="midnightblue" points="447.66,-301.48 457.2,-296.85 446.86,-294.52 447.66,-301.48"/>
</g>
<!-- Node10 -->
<g id="node10" class="node">
<title>Node10</title>
<g id="a_node10"><a xlink:href="classArtificialParticleManager.html#a3c627fc3187a2b7fdcd5d562fb3eaf14" target="_top" xlink:title="print parameters">
<polygon fill="white" stroke="black" points="266,-121 266,-151 402,-151 402,-121 266,-121"/>
<text text-anchor="start" x="274" y="-139" font-family="Helvetica,sans-Serif" font-size="10.00">ArtificialParticleManager</text>
<text text-anchor="middle" x="334" y="-128" font-family="Helvetica,sans-Serif" font-size="10.00">::print</text>
</a>
</g>
</g>
<!-- Node9&#45;&gt;Node10 -->
<g id="edge9" class="edge">
<title>Node9&#45;&gt;Node10</title>
<path fill="none" stroke="midnightblue" d="M209.03,-136C223.74,-136 239.95,-136 255.66,-136"/>
<polygon fill="midnightblue" stroke="midnightblue" points="255.89,-139.5 265.89,-136 255.89,-132.5 255.89,-139.5"/>
</g>
<!-- Node11 -->
<g id="node11" class="node">
<title>Node11</title>
<g id="a_node11"><a xlink:href="classPseudoParticleMultipoleManager.html#a0c05a5c3204dfc67ee422143bce44f9f" target="_top" xlink:title="print parameters">
<polygon fill="white" stroke="black" points="438,-121 438,-151 614,-151 614,-121 438,-121"/>
<text text-anchor="start" x="446" y="-139" font-family="Helvetica,sans-Serif" font-size="10.00">PseudoParticleMultipoleManager</text>
<text text-anchor="middle" x="526" y="-128" font-family="Helvetica,sans-Serif" font-size="10.00">::print</text>
</a>
</g>
</g>
<!-- Node10&#45;&gt;Node11 -->
<g id="edge10" class="edge">
<title>Node10&#45;&gt;Node11</title>
<path fill="none" stroke="midnightblue" d="M402.25,-136C410.54,-136 419.14,-136 427.76,-136"/>
<polygon fill="midnightblue" stroke="midnightblue" points="427.87,-139.5 437.87,-136 427.87,-132.5 427.87,-139.5"/>
</g>
<!-- Node14 -->
<g id="node14" class="node">
<title>Node14</title>
<g id="a_node14"><a xlink:href="classArtificialParticleManager.html#a7c2b4630ce403c68e04dbb3c8317f3e6" target="_top" xlink:title="read class data to file with binary format">
<polygon fill="white" stroke="black" points="266,-33 266,-63 402,-63 402,-33 266,-33"/>
<text text-anchor="start" x="274" y="-51" font-family="Helvetica,sans-Serif" font-size="10.00">ArtificialParticleManager</text>
<text text-anchor="middle" x="334" y="-40" font-family="Helvetica,sans-Serif" font-size="10.00">::readBinary</text>
</a>
</g>
</g>
<!-- Node13&#45;&gt;Node14 -->
<g id="edge13" class="edge">
<title>Node13&#45;&gt;Node14</title>
<path fill="none" stroke="midnightblue" d="M224.54,-48C234.72,-48 245.25,-48 255.57,-48"/>
<polygon fill="midnightblue" stroke="midnightblue" points="255.79,-51.5 265.79,-48 255.79,-44.5 255.79,-51.5"/>
</g>
<!-- Node15 -->
<g id="node15" class="node">
<title>Node15</title>
<g id="a_node15"><a xlink:href="classPseudoParticleMultipoleManager.html#a7ac07cc17a8dd499b99439effe3692de" target="_top" xlink:title="read class data to file with binary format">
<polygon fill="white" stroke="black" points="438,-33 438,-63 614,-63 614,-33 438,-33"/>
<text text-anchor="start" x="446" y="-51" font-family="Helvetica,sans-Serif" font-size="10.00">PseudoParticleMultipoleManager</text>
<text text-anchor="middle" x="526" y="-40" font-family="Helvetica,sans-Serif" font-size="10.00">::readBinary</text>
</a>
</g>
</g>
<!-- Node14&#45;&gt;Node15 -->
<g id="edge14" class="edge">
<title>Node14&#45;&gt;Node15</title>
<path fill="none" stroke="midnightblue" d="M402.25,-48C410.54,-48 419.14,-48 427.76,-48"/>
<polygon fill="midnightblue" stroke="midnightblue" points="427.87,-51.5 437.87,-48 427.87,-44.5 427.87,-51.5"/>
</g>
</g>
</svg>
        <g id="navigator" transform="translate(0 0)" fill="#404254">
                <rect fill="#f2f5e9" fill-opacity="0.5" stroke="#606060" stroke-width=".5" x="0" y="0" width="60" height="60"/>
                <use id="zoomplus" xlink:href="#zoomPlus" x="17" y="9" onmousedown="handleZoom(evt,'in')"/>
                <use id="zoomminus" xlink:href="#zoomMin" x="42" y="9" onmousedown="handleZoom(evt,'out')"/>
                <use id="reset" xlink:href="#resetDef" x="30" y="36" onmousedown="handleReset()"/>
                <g id="arrowUp" xlink:href="#dirArrow" transform="translate(30 24)" onmousedown="handlePan(0,-1)">
                  <use xlink:href="#rim" fill="#404040">
                        <set attributeName="fill" to="#808080" begin="arrowUp.mouseover" end="arrowUp.mouseout"/>
                  </use>
                  <path fill="none" stroke="white" stroke-width="1.5" d="M0,-3.0v7 M-2.5,-0.5L0,-3.0L2.5,-0.5"/>
                </g>
                <g id="arrowRight" xlink:href="#dirArrow" transform="rotate(90) translate(36 -43)" onmousedown="handlePan(1,0)">
                  <use xlink:href="#rim" fill="#404040">
                        <set attributeName="fill" to="#808080" begin="arrowRight.mouseover" end="arrowRight.mouseout"/>
                  </use>
                  <path fill="none" stroke="white" stroke-width="1.5" d="M0,-3.0v7 M-2.5,-0.5L0,-3.0L2.5,-0.5"/>
                </g>
                <g id="arrowDown" xlink:href="#dirArrow" transform="rotate(180) translate(-30 -48)" onmousedown="handlePan(0,1)">
                  <use xlink:href="#rim" fill="#404040">
                        <set attributeName="fill" to="#808080" begin="arrowDown.mouseover" end="arrowDown.mouseout"/>
                  </use>
                  <path fill="none" stroke="white" stroke-width="1.5" d="M0,-3.0v7 M-2.5,-0.5L0,-3.0L2.5,-0.5"/>
                </g>
                <g id="arrowLeft" xlink:href="#dirArrow" transform="rotate(270) translate(-36 17)" onmousedown="handlePan(-1,0)">
                  <use xlink:href="#rim" fill="#404040">
                        <set attributeName="fill" to="#808080" begin="arrowLeft.mouseover" end="arrowLeft.mouseout"/>
                  </use>
                  <path fill="none" stroke="white" stroke-width="1.5" d="M0,-3.0v7 M-2.5,-0.5L0,-3.0L2.5,-0.5"/>
                </g>
        </g>
        <svg viewBox="0 0 15 15" width="100%" height="30px" preserveAspectRatio="xMaxYMin meet">
         <g id="arrow_out" transform="scale(0.3 0.3)">
          <a xlink:href="hard__debug_8cxx_a3c04138a5bfe5d72780bb7e82a18e627_cgraph_org.svg" target="_base">
           <rect id="button" ry="5" rx="5" y="6" x="6" height="38" width="38"
                fill="#f2f5e9" fill-opacity="0.5" stroke="#606060" stroke-width="1.0"/>
           <path id="arrow"
             d="M 11.500037,31.436501 C 11.940474,20.09759 22.043105,11.32322 32.158766,21.979434 L 37.068811,17.246167 C 37.068811,17.246167 37.088388,32 37.088388,32 L 22.160133,31.978069 C 22.160133,31.978069 26.997745,27.140456 26.997745,27.140456 C 18.528582,18.264221 13.291696,25.230495 11.500037,31.436501 z"
             style="fill:#404040;"/>
          </a>
         </g>
        </svg>
</svg>
