<?xml version="1.0" encoding="UTF-8" standalone="no"?>
<!DOCTYPE svg PUBLIC "-//W3C//DTD SVG 1.1//EN"
 "http://www.w3.org/Graphics/SVG/1.1/DTD/svg11.dtd">
<!-- Generated by graphviz version 2.43.0 (0)
 -->
<!-- Title: hard_ptcl.hpp Pages: 1 -->
<svg width="284pt" height="308pt"
 viewBox="0.00 0.00 284.00 308.00" xmlns="http://www.w3.org/2000/svg" xmlns:xlink="http://www.w3.org/1999/xlink">
<g id="graph0" class="graph" transform="scale(1 1) rotate(0) translate(4 304)">
<title>hard_ptcl.hpp</title>
<polygon fill="white" stroke="transparent" points="-4,4 -4,-304 280,-304 280,4 -4,4"/>
<!-- Node1 -->
<g id="node1" class="node">
<title>Node1</title>
<g id="a_node1"><a xlink:title=" ">
<polygon fill="#bfbfbf" stroke="black" points="106.5,-280.5 106.5,-299.5 189.5,-299.5 189.5,-280.5 106.5,-280.5"/>
<text text-anchor="middle" x="148" y="-287.5" font-family="Helvetica,sans-Serif" font-size="10.00">hard_ptcl.hpp</text>
</a>
</g>
</g>
<!-- Node2 -->
<g id="node2" class="node">
<title>Node2</title>
<g id="a_node2"><a xlink:href="ar__interaction_8hpp.html" target="_top" xlink:title=" ">
<polygon fill="white" stroke="black" points="33.5,-168.5 33.5,-187.5 138.5,-187.5 138.5,-168.5 33.5,-168.5"/>
<text text-anchor="middle" x="86" y="-175.5" font-family="Helvetica,sans-Serif" font-size="10.00">ar_interaction.hpp</text>
</a>
</g>
</g>
<!-- Node1&#45;&gt;Node2 -->
<g id="edge1" class="edge">
<title>Node1&#45;&gt;Node2</title>
<path fill="none" stroke="midnightblue" d="M138.22,-271.64C124.75,-247.74 101.01,-205.63 90.84,-187.59"/>
<polygon fill="midnightblue" stroke="midnightblue" points="135.18,-273.38 143.13,-280.37 141.27,-269.94 135.18,-273.38"/>
</g>
<!-- Node3 -->
<g id="node3" class="node">
<title>Node3</title>
<g id="a_node3"><a xlink:href="hard_8hpp.html" target="_top" xlink:title=" ">
<polygon fill="white" stroke="black" points="68.5,-112.5 68.5,-131.5 127.5,-131.5 127.5,-112.5 68.5,-112.5"/>
<text text-anchor="middle" x="98" y="-119.5" font-family="Helvetica,sans-Serif" font-size="10.00">hard.hpp</text>
</a>
</g>
</g>
<!-- Node1&#45;&gt;Node3 -->
<g id="edge10" class="edge">
<title>Node1&#45;&gt;Node3</title>
<path fill="none" stroke="midnightblue" d="M152.48,-270.48C157.45,-245.88 162.97,-201.62 148,-168 140.87,-152 124.93,-139.3 112.95,-131.53"/>
<polygon fill="midnightblue" stroke="midnightblue" points="149.05,-269.77 150.3,-280.29 155.88,-271.29 149.05,-269.77"/>
</g>
<!-- Node8 -->
<g id="node8" class="node">
<title>Node8</title>
<g id="a_node8"><a xlink:href="ar__perturber_8hpp.html" target="_top" xlink:title=" ">
<polygon fill="white" stroke="black" points="3.5,-224.5 3.5,-243.5 100.5,-243.5 100.5,-224.5 3.5,-224.5"/>
<text text-anchor="middle" x="52" y="-231.5" font-family="Helvetica,sans-Serif" font-size="10.00">ar_perturber.hpp</text>
</a>
</g>
</g>
<!-- Node1&#45;&gt;Node8 -->
<g id="edge7" class="edge">
<title>Node1&#45;&gt;Node8</title>
<path fill="none" stroke="midnightblue" d="M123.43,-275.18C105.76,-265.24 82.49,-252.15 67.39,-243.65"/>
<polygon fill="midnightblue" stroke="midnightblue" points="122.14,-278.47 132.58,-280.32 125.58,-272.37 122.14,-278.47"/>
</g>
<!-- Node9 -->
<g id="node9" class="node">
<title>Node9</title>
<g id="a_node9"><a xlink:href="hard__assert_8hpp.html" target="_top" xlink:title=" ">
<polygon fill="white" stroke="black" points="151.5,-112.5 151.5,-131.5 246.5,-131.5 246.5,-112.5 151.5,-112.5"/>
<text text-anchor="middle" x="199" y="-119.5" font-family="Helvetica,sans-Serif" font-size="10.00">hard_assert.hpp</text>
</a>
</g>
</g>
<!-- Node1&#45;&gt;Node9 -->
<g id="edge11" class="edge">
<title>Node1&#45;&gt;Node9</title>
<path fill="none" stroke="midnightblue" d="M158.24,-271.44C162.66,-263.3 167.58,-253.38 171,-244 185.86,-203.29 194.65,-151.91 197.74,-131.72"/>
<polygon fill="midnightblue" stroke="midnightblue" points="155.1,-269.89 153.25,-280.33 161.2,-273.32 155.1,-269.89"/>
</g>
<!-- Node2&#45;&gt;Node3 -->
<g id="edge2" class="edge">
<title>Node2&#45;&gt;Node3</title>
<path fill="none" stroke="midnightblue" d="M90.2,-158.1C92.19,-149.14 94.48,-138.86 96.06,-131.75"/>
<polygon fill="midnightblue" stroke="midnightblue" points="86.73,-157.56 87.98,-168.08 93.57,-159.08 86.73,-157.56"/>
</g>
<!-- Node4 -->
<g id="node4" class="node">
<title>Node4</title>
<g id="a_node4"><a xlink:href="hard__debug_8cxx.html" target="_top" xlink:title=" ">
<polygon fill="white" stroke="black" points="0,-56.5 0,-75.5 94,-75.5 94,-56.5 0,-56.5"/>
<text text-anchor="middle" x="47" y="-63.5" font-family="Helvetica,sans-Serif" font-size="10.00">hard_debug.cxx</text>
</a>
</g>
</g>
<!-- Node3&#45;&gt;Node4 -->
<g id="edge3" class="edge">
<title>Node3&#45;&gt;Node4</title>
<path fill="none" stroke="midnightblue" d="M82.62,-104.72C73.63,-95.2 62.64,-83.56 55.26,-75.75"/>
<polygon fill="midnightblue" stroke="midnightblue" points="80.17,-107.22 89.58,-112.08 85.26,-102.41 80.17,-107.22"/>
</g>
<!-- Node5 -->
<g id="node5" class="node">
<title>Node5</title>
<g id="a_node5"><a xlink:href="hard__test_8cxx.html" target="_top" xlink:title=" ">
<polygon fill="white" stroke="black" points="112.5,-56.5 112.5,-75.5 195.5,-75.5 195.5,-56.5 112.5,-56.5"/>
<text text-anchor="middle" x="154" y="-63.5" font-family="Helvetica,sans-Serif" font-size="10.00">hard_test.cxx</text>
</a>
</g>
</g>
<!-- Node3&#45;&gt;Node5 -->
<g id="edge4" class="edge">
<title>Node3&#45;&gt;Node5</title>
<path fill="none" stroke="midnightblue" d="M114.33,-105.25C124.26,-95.67 136.59,-83.79 144.84,-75.83"/>
<polygon fill="midnightblue" stroke="midnightblue" points="111.77,-102.86 107,-112.32 116.63,-107.9 111.77,-102.86"/>
</g>
<!-- Node6 -->
<g id="node6" class="node">
<title>Node6</title>
<g id="a_node6"><a xlink:href="petar_8hpp.html" target="_top" xlink:title=" ">
<polygon fill="white" stroke="black" points="214,-56.5 214,-75.5 276,-75.5 276,-56.5 214,-56.5"/>
<text text-anchor="middle" x="245" y="-63.5" font-family="Helvetica,sans-Serif" font-size="10.00">petar.hpp</text>
</a>
</g>
</g>
<!-- Node3&#45;&gt;Node6 -->
<g id="edge5" class="edge">
<title>Node3&#45;&gt;Node6</title>
<path fill="none" stroke="midnightblue" d="M130.92,-108.91C158.56,-98.75 197.34,-84.51 221.82,-75.52"/>
<polygon fill="midnightblue" stroke="midnightblue" points="129.47,-105.71 121.29,-112.44 131.89,-112.28 129.47,-105.71"/>
</g>
<!-- Node7 -->
<g id="node7" class="node">
<title>Node7</title>
<g id="a_node7"><a xlink:href="main_8cc.html" target="_top" xlink:title=" ">
<polygon fill="white" stroke="black" points="217.5,-0.5 217.5,-19.5 272.5,-19.5 272.5,-0.5 217.5,-0.5"/>
<text text-anchor="middle" x="245" y="-7.5" font-family="Helvetica,sans-Serif" font-size="10.00">main.cc</text>
</a>
</g>
</g>
<!-- Node6&#45;&gt;Node7 -->
<g id="edge6" class="edge">
<title>Node6&#45;&gt;Node7</title>
<path fill="none" stroke="midnightblue" d="M245,-45.8C245,-36.91 245,-26.78 245,-19.75"/>
<polygon fill="midnightblue" stroke="midnightblue" points="241.5,-46.08 245,-56.08 248.5,-46.08 241.5,-46.08"/>
</g>
<!-- Node8&#45;&gt;Node2 -->
<g id="edge8" class="edge">
<title>Node8&#45;&gt;Node2</title>
<path fill="none" stroke="midnightblue" d="M62.98,-215.57C68.83,-206.27 75.77,-195.25 80.49,-187.75"/>
<polygon fill="midnightblue" stroke="midnightblue" points="59.98,-213.76 57.61,-224.08 65.9,-217.49 59.98,-213.76"/>
</g>
<!-- Node8&#45;&gt;Node3 -->
<g id="edge9" class="edge">
<title>Node8&#45;&gt;Node3</title>
<path fill="none" stroke="midnightblue" d="M36.42,-216.43C25.79,-203.01 15.11,-183.81 24,-168 34.02,-150.18 54.28,-138.59 71.07,-131.64"/>
<polygon fill="midnightblue" stroke="midnightblue" points="34.03,-219.01 43.2,-224.31 39.34,-214.45 34.03,-219.01"/>
</g>
<!-- Node9&#45;&gt;Node4 -->
<g id="edge12" class="edge">
<title>Node9&#45;&gt;Node4</title>
<path fill="none" stroke="midnightblue" d="M165.33,-109.04C136.73,-98.88 96.39,-84.55 70.97,-75.52"/>
<polygon fill="midnightblue" stroke="midnightblue" points="164.32,-112.39 174.92,-112.44 166.66,-105.8 164.32,-112.39"/>
</g>
<!-- Node9&#45;&gt;Node5 -->
<g id="edge13" class="edge">
<title>Node9&#45;&gt;Node5</title>
<path fill="none" stroke="midnightblue" d="M184.95,-104.14C177.11,-94.74 167.67,-83.4 161.29,-75.75"/>
<polygon fill="midnightblue" stroke="midnightblue" points="182.48,-106.64 191.57,-112.08 187.86,-102.16 182.48,-106.64"/>
</g>
<!-- Node9&#45;&gt;Node6 -->
<g id="edge14" class="edge">
<title>Node9&#45;&gt;Node6</title>
<path fill="none" stroke="midnightblue" d="M213.11,-104.43C221.18,-94.97 230.96,-83.48 237.55,-75.75"/>
<polygon fill="midnightblue" stroke="midnightblue" points="210.42,-102.2 206.6,-112.08 215.75,-106.74 210.42,-102.2"/>
</g>
</g>
</svg>
