<?xml version="1.0" encoding="UTF-8" standalone="no"?>
<!DOCTYPE svg PUBLIC "-//W3C//DTD SVG 1.1//EN"
 "http://www.w3.org/Graphics/SVG/1.1/DTD/svg11.dtd">
<!-- Generated by graphviz version 2.43.0 (0)
 -->
<!-- Title: hard_debug.cxx Pages: 1 -->
<svg width="1965pt" height="476pt"
 viewBox="0.00 0.00 1964.50 476.00" xmlns="http://www.w3.org/2000/svg" xmlns:xlink="http://www.w3.org/1999/xlink">
<g id="graph0" class="graph" transform="scale(1 1) rotate(0) translate(4 472)">
<title>hard_debug.cxx</title>
<polygon fill="white" stroke="transparent" points="-4,4 -4,-472 1960.5,-472 1960.5,4 -4,4"/>
<!-- Node1 -->
<g id="node1" class="node">
<title>Node1</title>
<g id="a_node1"><a xlink:title=" ">
<polygon fill="#bfbfbf" stroke="black" points="359,-448.5 359,-467.5 453,-467.5 453,-448.5 359,-448.5"/>
<text text-anchor="middle" x="406" y="-455.5" font-family="Helvetica,sans-Serif" font-size="10.00">hard_debug.cxx</text>
</a>
</g>
</g>
<!-- Node2 -->
<g id="node2" class="node">
<title>Node2</title>
<g id="a_node2"><a xlink:title=" ">
<polygon fill="white" stroke="#bfbfbf" points="193,-0.5 193,-19.5 253,-19.5 253,-0.5 193,-0.5"/>
<text text-anchor="middle" x="223" y="-7.5" font-family="Helvetica,sans-Serif" font-size="10.00">iostream</text>
</a>
</g>
</g>
<!-- Node1&#45;&gt;Node2 -->
<g id="edge1" class="edge">
<title>Node1&#45;&gt;Node2</title>
<path fill="none" stroke="midnightblue" d="M358.71,-453.62C280.77,-447.52 129.06,-433.31 80,-412 37.98,-393.75 0,-392.81 0,-347 0,-347 0,-347 0,-121 0,-40.44 118.5,-18.88 182.73,-13.11"/>
<polygon fill="midnightblue" stroke="midnightblue" points="183.24,-16.58 192.93,-12.28 182.68,-9.6 183.24,-16.58"/>
</g>
<!-- Node3 -->
<g id="node3" class="node">
<title>Node3</title>
<g id="a_node3"><a xlink:title=" ">
<polygon fill="white" stroke="#bfbfbf" points="104,-56.5 104,-75.5 160,-75.5 160,-56.5 104,-56.5"/>
<text text-anchor="middle" x="132" y="-63.5" font-family="Helvetica,sans-Serif" font-size="10.00">iomanip</text>
</a>
</g>
</g>
<!-- Node1&#45;&gt;Node3 -->
<g id="edge2" class="edge">
<title>Node1&#45;&gt;Node3</title>
<path fill="none" stroke="midnightblue" d="M358.64,-452.86C259.25,-442.87 38,-413.18 38,-347 38,-347 38,-347 38,-177 38,-133.93 80.16,-99.21 108.01,-80.98"/>
<polygon fill="midnightblue" stroke="midnightblue" points="109.88,-83.94 116.48,-75.65 106.15,-78.01 109.88,-83.94"/>
</g>
<!-- Node4 -->
<g id="node4" class="node">
<title>Node4</title>
<g id="a_node4"><a xlink:title=" ">
<polygon fill="white" stroke="#bfbfbf" points="348,-168.5 348,-187.5 392,-187.5 392,-168.5 348,-168.5"/>
<text text-anchor="middle" x="370" y="-175.5" font-family="Helvetica,sans-Serif" font-size="10.00">string</text>
</a>
</g>
</g>
<!-- Node1&#45;&gt;Node4 -->
<g id="edge3" class="edge">
<title>Node1&#45;&gt;Node4</title>
<path fill="none" stroke="midnightblue" d="M401.63,-448.37C387.57,-420.04 343.52,-326.89 329,-244 327.47,-235.24 325.79,-232.29 329,-224 333.45,-212.5 342.37,-202.13 350.75,-194.25"/>
<polygon fill="midnightblue" stroke="midnightblue" points="353.24,-196.73 358.46,-187.51 348.63,-191.46 353.24,-196.73"/>
</g>
<!-- Node5 -->
<g id="node5" class="node">
<title>Node5</title>
<g id="a_node5"><a xlink:title=" ">
<polygon fill="white" stroke="#bfbfbf" points="246.5,-392.5 246.5,-411.5 303.5,-411.5 303.5,-392.5 246.5,-392.5"/>
<text text-anchor="middle" x="275" y="-399.5" font-family="Helvetica,sans-Serif" font-size="10.00">getopt.h</text>
</a>
</g>
</g>
<!-- Node1&#45;&gt;Node5 -->
<g id="edge4" class="edge">
<title>Node1&#45;&gt;Node5</title>
<path fill="none" stroke="midnightblue" d="M385.24,-448.44C363.68,-439.56 329.74,-425.56 305.21,-415.45"/>
<polygon fill="midnightblue" stroke="midnightblue" points="306.24,-412.09 295.66,-411.52 303.57,-418.56 306.24,-412.09"/>
</g>
<!-- Node6 -->
<g id="node6" class="node">
<title>Node6</title>
<g id="a_node6"><a xlink:title=" ">
<polygon fill="white" stroke="#bfbfbf" points="616.5,-112.5 616.5,-131.5 741.5,-131.5 741.5,-112.5 616.5,-112.5"/>
<text text-anchor="middle" x="679" y="-119.5" font-family="Helvetica,sans-Serif" font-size="10.00">particle_simulator.hpp</text>
</a>
</g>
</g>
<!-- Node1&#45;&gt;Node6 -->
<g id="edge5" class="edge">
<title>Node1&#45;&gt;Node6</title>
<path fill="none" stroke="midnightblue" d="M407.74,-448.18C413.63,-420.33 435.17,-332.98 483,-280 504.87,-255.78 519.28,-261.22 547,-244 584.49,-220.72 596.92,-218.31 629,-188 644.3,-173.54 658.61,-154.1 667.96,-140.25"/>
<polygon fill="midnightblue" stroke="midnightblue" points="671.03,-141.97 673.6,-131.69 665.18,-138.12 671.03,-141.97"/>
</g>
<!-- Node7 -->
<g id="node7" class="node">
<title>Node7</title>
<g id="a_node7"><a xlink:href="io_8hpp.html" target="_top" xlink:title=" ">
<polygon fill="white" stroke="black" points="198.5,-224.5 198.5,-243.5 245.5,-243.5 245.5,-224.5 198.5,-224.5"/>
<text text-anchor="middle" x="222" y="-231.5" font-family="Helvetica,sans-Serif" font-size="10.00">io.hpp</text>
</a>
</g>
</g>
<!-- Node1&#45;&gt;Node7 -->
<g id="edge6" class="edge">
<title>Node1&#45;&gt;Node7</title>
<path fill="none" stroke="midnightblue" d="M358.99,-450.49C314.91,-443.36 253.51,-430.42 238,-412 199.63,-366.42 210.04,-288.89 217.47,-253.55"/>
<polygon fill="midnightblue" stroke="midnightblue" points="220.92,-254.18 219.72,-243.65 214.09,-252.63 220.92,-254.18"/>
</g>
<!-- Node12 -->
<g id="node12" class="node">
<title>Node12</title>
<g id="a_node12"><a xlink:href="hard__assert_8hpp.html" target="_top" xlink:title=" ">
<polygon fill="white" stroke="black" points="510.5,-280.5 510.5,-299.5 605.5,-299.5 605.5,-280.5 510.5,-280.5"/>
<text text-anchor="middle" x="558" y="-287.5" font-family="Helvetica,sans-Serif" font-size="10.00">hard_assert.hpp</text>
</a>
</g>
</g>
<!-- Node1&#45;&gt;Node12 -->
<g id="edge14" class="edge">
<title>Node1&#45;&gt;Node12</title>
<path fill="none" stroke="midnightblue" d="M433.57,-448.41C452.97,-441.22 478.5,-429.33 496,-412 525.94,-382.35 544.27,-335.22 552.63,-309.4"/>
<polygon fill="midnightblue" stroke="midnightblue" points="556,-310.34 555.6,-299.76 549.31,-308.28 556,-310.34"/>
</g>
<!-- Node24 -->
<g id="node24" class="node">
<title>Node24</title>
<g id="a_node24"><a xlink:href="soft__ptcl_8hpp.html" target="_top" xlink:title=" ">
<polygon fill="white" stroke="black" points="594.5,-224.5 594.5,-243.5 673.5,-243.5 673.5,-224.5 594.5,-224.5"/>
<text text-anchor="middle" x="634" y="-231.5" font-family="Helvetica,sans-Serif" font-size="10.00">soft_ptcl.hpp</text>
</a>
</g>
</g>
<!-- Node1&#45;&gt;Node24 -->
<g id="edge78" class="edge">
<title>Node1&#45;&gt;Node24</title>
<path fill="none" stroke="midnightblue" d="M419.78,-448.22C431.47,-440.12 447.91,-427.08 458,-412 492.38,-360.6 458.42,-323.88 502,-280 514.33,-267.58 554.82,-254.84 587.74,-246.1"/>
<polygon fill="midnightblue" stroke="midnightblue" points="588.87,-249.42 597.67,-243.52 587.11,-242.65 588.87,-249.42"/>
</g>
<!-- Node25 -->
<g id="node25" class="node">
<title>Node25</title>
<g id="a_node25"><a xlink:href="cluster__list_8hpp.html" target="_top" xlink:title=" ">
<polygon fill="white" stroke="black" points="446.5,-224.5 446.5,-243.5 537.5,-243.5 537.5,-224.5 446.5,-224.5"/>
<text text-anchor="middle" x="492" y="-231.5" font-family="Helvetica,sans-Serif" font-size="10.00">cluster_list.hpp</text>
</a>
</g>
</g>
<!-- Node1&#45;&gt;Node25 -->
<g id="edge34" class="edge">
<title>Node1&#45;&gt;Node25</title>
<path fill="none" stroke="midnightblue" d="M404.93,-448.49C402,-421.58 396.1,-336.69 430,-280 438.02,-266.59 451.74,-256.01 464.23,-248.49"/>
<polygon fill="midnightblue" stroke="midnightblue" points="466.01,-251.5 473.02,-243.55 462.58,-245.4 466.01,-251.5"/>
</g>
<!-- Node27 -->
<g id="node27" class="node">
<title>Node27</title>
<g id="a_node27"><a xlink:href="hard_8hpp.html" target="_top" xlink:title=" ">
<polygon fill="white" stroke="black" points="1157.5,-392.5 1157.5,-411.5 1216.5,-411.5 1216.5,-392.5 1157.5,-392.5"/>
<text text-anchor="middle" x="1187" y="-399.5" font-family="Helvetica,sans-Serif" font-size="10.00">hard.hpp</text>
</a>
</g>
</g>
<!-- Node1&#45;&gt;Node27 -->
<g id="edge40" class="edge">
<title>Node1&#45;&gt;Node27</title>
<path fill="none" stroke="midnightblue" d="M453.1,-453.74C594.86,-443.94 1015.89,-414.83 1147.34,-405.74"/>
<polygon fill="midnightblue" stroke="midnightblue" points="1147.63,-409.23 1157.37,-405.05 1147.15,-402.25 1147.63,-409.23"/>
</g>
<!-- Node43 -->
<g id="node43" class="node">
<title>Node43</title>
<g id="a_node43"><a xlink:href="static__variables_8hpp.html" target="_top" xlink:title=" ">
<polygon fill="white" stroke="black" points="1234.5,-392.5 1234.5,-411.5 1349.5,-411.5 1349.5,-392.5 1234.5,-392.5"/>
<text text-anchor="middle" x="1292" y="-399.5" font-family="Helvetica,sans-Serif" font-size="10.00">static_variables.hpp</text>
</a>
</g>
</g>
<!-- Node1&#45;&gt;Node43 -->
<g id="edge79" class="edge">
<title>Node1&#45;&gt;Node43</title>
<path fill="none" stroke="midnightblue" d="M453.24,-455.74C577.7,-452.14 925,-440.25 1224.26,-412.09"/>
<polygon fill="midnightblue" stroke="midnightblue" points="1224.81,-415.56 1234.44,-411.13 1224.15,-408.59 1224.81,-415.56"/>
</g>
<!-- Node7&#45;&gt;Node2 -->
<g id="edge7" class="edge">
<title>Node7&#45;&gt;Node2</title>
<path fill="none" stroke="midnightblue" d="M198.29,-228.76C175.11,-223.35 140.55,-211.69 121,-188 82.94,-141.88 60.43,-104.79 95,-56 114.73,-28.15 153.14,-17.41 182.76,-13.33"/>
<polygon fill="midnightblue" stroke="midnightblue" points="183.3,-16.79 192.82,-12.15 182.48,-9.84 183.3,-16.79"/>
</g>
<!-- Node7&#45;&gt;Node3 -->
<g id="edge10" class="edge">
<title>Node7&#45;&gt;Node3</title>
<path fill="none" stroke="midnightblue" d="M198.39,-228.27C177.18,-222.64 147.24,-210.95 133,-188 113.41,-156.44 120.41,-110.74 126.61,-85.5"/>
<polygon fill="midnightblue" stroke="midnightblue" points="130.01,-86.32 129.22,-75.75 123.25,-84.51 130.01,-86.32"/>
</g>
<!-- Node7&#45;&gt;Node4 -->
<g id="edge12" class="edge">
<title>Node7&#45;&gt;Node4</title>
<path fill="none" stroke="midnightblue" d="M245.45,-224.44C270.42,-215.33 310.11,-200.85 337.95,-190.69"/>
<polygon fill="midnightblue" stroke="midnightblue" points="339.43,-193.88 347.63,-187.16 337.03,-187.3 339.43,-193.88"/>
</g>
<!-- Node8 -->
<g id="node8" class="node">
<title>Node8</title>
<g id="a_node8"><a xlink:title=" ">
<polygon fill="white" stroke="#bfbfbf" points="142,-168.5 142,-187.5 188,-187.5 188,-168.5 142,-168.5"/>
<text text-anchor="middle" x="165" y="-175.5" font-family="Helvetica,sans-Serif" font-size="10.00">cstdio</text>
</a>
</g>
</g>
<!-- Node7&#45;&gt;Node8 -->
<g id="edge8" class="edge">
<title>Node7&#45;&gt;Node8</title>
<path fill="none" stroke="midnightblue" d="M212.84,-224.32C204.5,-216.42 191.97,-204.55 181.82,-194.94"/>
<polygon fill="midnightblue" stroke="midnightblue" points="183.99,-192.17 174.32,-187.83 179.18,-197.25 183.99,-192.17"/>
</g>
<!-- Node9 -->
<g id="node9" class="node">
<title>Node9</title>
<g id="a_node9"><a xlink:title=" ">
<polygon fill="white" stroke="#bfbfbf" points="206,-168.5 206,-187.5 256,-187.5 256,-168.5 206,-168.5"/>
<text text-anchor="middle" x="231" y="-175.5" font-family="Helvetica,sans-Serif" font-size="10.00">cstring</text>
</a>
</g>
</g>
<!-- Node7&#45;&gt;Node9 -->
<g id="edge9" class="edge">
<title>Node7&#45;&gt;Node9</title>
<path fill="none" stroke="midnightblue" d="M223.49,-224.08C224.68,-216.93 226.39,-206.64 227.88,-197.69"/>
<polygon fill="midnightblue" stroke="midnightblue" points="231.35,-198.19 229.54,-187.75 224.45,-197.04 231.35,-198.19"/>
</g>
<!-- Node10 -->
<g id="node10" class="node">
<title>Node10</title>
<g id="a_node10"><a xlink:title=" ">
<polygon fill="white" stroke="#bfbfbf" points="274.5,-168.5 274.5,-187.5 329.5,-187.5 329.5,-168.5 274.5,-168.5"/>
<text text-anchor="middle" x="302" y="-175.5" font-family="Helvetica,sans-Serif" font-size="10.00">fstream</text>
</a>
</g>
</g>
<!-- Node7&#45;&gt;Node10 -->
<g id="edge11" class="edge">
<title>Node7&#45;&gt;Node10</title>
<path fill="none" stroke="midnightblue" d="M234.85,-224.32C247.22,-215.98 266.13,-203.21 280.74,-193.35"/>
<polygon fill="midnightblue" stroke="midnightblue" points="282.85,-196.15 289.18,-187.65 278.93,-190.35 282.85,-196.15"/>
</g>
<!-- Node11 -->
<g id="node11" class="node">
<title>Node11</title>
<g id="a_node11"><a xlink:title=" ">
<polygon fill="white" stroke="#bfbfbf" points="410,-168.5 410,-187.5 448,-187.5 448,-168.5 410,-168.5"/>
<text text-anchor="middle" x="429" y="-175.5" font-family="Helvetica,sans-Serif" font-size="10.00">map</text>
</a>
</g>
</g>
<!-- Node7&#45;&gt;Node11 -->
<g id="edge13" class="edge">
<title>Node7&#45;&gt;Node11</title>
<path fill="none" stroke="midnightblue" d="M245.59,-227.58C278.2,-219.99 339.1,-205.4 400,-188.15"/>
<polygon fill="midnightblue" stroke="midnightblue" points="401.12,-191.47 409.77,-185.36 399.19,-184.74 401.12,-191.47"/>
</g>
<!-- Node12&#45;&gt;Node4 -->
<g id="edge16" class="edge">
<title>Node12&#45;&gt;Node4</title>
<path fill="none" stroke="midnightblue" d="M524.77,-280.48C499.71,-273.15 465.13,-261.04 438,-244 416.73,-230.64 396.47,-209.87 383.69,-195.42"/>
<polygon fill="midnightblue" stroke="midnightblue" points="386.25,-193.03 377.07,-187.74 380.95,-197.6 386.25,-193.03"/>
</g>
<!-- Node13 -->
<g id="node13" class="node">
<title>Node13</title>
<g id="a_node13"><a xlink:title=" ">
<polygon fill="white" stroke="#bfbfbf" points="338,-224.5 338,-243.5 390,-243.5 390,-224.5 338,-224.5"/>
<text text-anchor="middle" x="364" y="-231.5" font-family="Helvetica,sans-Serif" font-size="10.00">cassert</text>
</a>
</g>
</g>
<!-- Node12&#45;&gt;Node13 -->
<g id="edge15" class="edge">
<title>Node12&#45;&gt;Node13</title>
<path fill="none" stroke="midnightblue" d="M527.26,-280.44C492.69,-270.82 436.61,-255.21 400.01,-245.02"/>
<polygon fill="midnightblue" stroke="midnightblue" points="400.81,-241.61 390.24,-242.3 398.94,-248.36 400.81,-241.61"/>
</g>
<!-- Node14 -->
<g id="node14" class="node">
<title>Node14</title>
<g id="a_node14"><a xlink:href="hard__ptcl_8hpp.html" target="_top" xlink:title=" ">
<polygon fill="white" stroke="black" points="768.5,-224.5 768.5,-243.5 851.5,-243.5 851.5,-224.5 768.5,-224.5"/>
<text text-anchor="middle" x="810" y="-231.5" font-family="Helvetica,sans-Serif" font-size="10.00">hard_ptcl.hpp</text>
</a>
</g>
</g>
<!-- Node12&#45;&gt;Node14 -->
<g id="edge17" class="edge">
<title>Node12&#45;&gt;Node14</title>
<path fill="none" stroke="midnightblue" d="M597.93,-280.44C641.89,-271.02 712.63,-255.87 760.18,-245.68"/>
<polygon fill="midnightblue" stroke="midnightblue" points="761.21,-249.03 770.26,-243.52 759.75,-242.19 761.21,-249.03"/>
</g>
<!-- Node23 -->
<g id="node23" class="node">
<title>Node23</title>
<g id="a_node23"><a xlink:title=" ">
<polygon fill="white" stroke="#bfbfbf" points="1238.5,-224.5 1238.5,-243.5 1387.5,-243.5 1387.5,-224.5 1238.5,-224.5"/>
<text text-anchor="middle" x="1313" y="-231.5" font-family="Helvetica,sans-Serif" font-size="10.00">Hermite/hermite_particle.h</text>
</a>
</g>
</g>
<!-- Node12&#45;&gt;Node23 -->
<g id="edge31" class="edge">
<title>Node12&#45;&gt;Node23</title>
<path fill="none" stroke="midnightblue" d="M605.51,-285.6C730.39,-276.67 1069.13,-252.44 1228.27,-241.06"/>
<polygon fill="midnightblue" stroke="midnightblue" points="1228.76,-244.53 1238.48,-240.33 1228.26,-237.55 1228.76,-244.53"/>
</g>
<!-- Node12&#45;&gt;Node24 -->
<g id="edge32" class="edge">
<title>Node12&#45;&gt;Node24</title>
<path fill="none" stroke="midnightblue" d="M570.21,-280.32C581.78,-272.11 599.38,-259.6 613.16,-249.81"/>
<polygon fill="midnightblue" stroke="midnightblue" points="615.44,-252.48 621.57,-243.83 611.39,-246.77 615.44,-252.48"/>
</g>
<!-- Node15 -->
<g id="node15" class="node">
<title>Node15</title>
<g id="a_node15"><a xlink:href="ptcl_8hpp.html" target="_top" xlink:title=" ">
<polygon fill="white" stroke="black" points="782,-168.5 782,-187.5 838,-187.5 838,-168.5 782,-168.5"/>
<text text-anchor="middle" x="810" y="-175.5" font-family="Helvetica,sans-Serif" font-size="10.00">ptcl.hpp</text>
</a>
</g>
</g>
<!-- Node14&#45;&gt;Node15 -->
<g id="edge18" class="edge">
<title>Node14&#45;&gt;Node15</title>
<path fill="none" stroke="midnightblue" d="M810,-224.08C810,-217.01 810,-206.86 810,-197.99"/>
<polygon fill="midnightblue" stroke="midnightblue" points="813.5,-197.75 810,-187.75 806.5,-197.75 813.5,-197.75"/>
</g>
<!-- Node15&#45;&gt;Node6 -->
<g id="edge19" class="edge">
<title>Node15&#45;&gt;Node6</title>
<path fill="none" stroke="midnightblue" d="M789.24,-168.44C767.68,-159.56 733.74,-145.56 709.21,-135.45"/>
<polygon fill="midnightblue" stroke="midnightblue" points="710.24,-132.09 699.66,-131.52 707.57,-138.56 710.24,-132.09"/>
</g>
<!-- Node16 -->
<g id="node16" class="node">
<title>Node16</title>
<g id="a_node16"><a xlink:href="particle__base_8hpp.html" target="_top" xlink:title=" ">
<polygon fill="white" stroke="black" points="759.5,-112.5 759.5,-131.5 862.5,-131.5 862.5,-112.5 759.5,-112.5"/>
<text text-anchor="middle" x="811" y="-119.5" font-family="Helvetica,sans-Serif" font-size="10.00">particle_base.hpp</text>
</a>
</g>
</g>
<!-- Node15&#45;&gt;Node16 -->
<g id="edge20" class="edge">
<title>Node15&#45;&gt;Node16</title>
<path fill="none" stroke="midnightblue" d="M810.17,-168.08C810.3,-161.01 810.48,-150.86 810.65,-141.99"/>
<polygon fill="midnightblue" stroke="midnightblue" points="814.15,-141.81 810.84,-131.75 807.15,-141.68 814.15,-141.81"/>
</g>
<!-- Node17 -->
<g id="node17" class="node">
<title>Node17</title>
<g id="a_node17"><a xlink:href="changeover_8hpp.html" target="_top" xlink:title=" ">
<polygon fill="white" stroke="black" points="884,-112.5 884,-131.5 978,-131.5 978,-112.5 884,-112.5"/>
<text text-anchor="middle" x="931" y="-119.5" font-family="Helvetica,sans-Serif" font-size="10.00">changeover.hpp</text>
</a>
</g>
</g>
<!-- Node15&#45;&gt;Node17 -->
<g id="edge21" class="edge">
<title>Node15&#45;&gt;Node17</title>
<path fill="none" stroke="midnightblue" d="M829.17,-168.44C848.91,-159.64 879.89,-145.81 902.49,-135.72"/>
<polygon fill="midnightblue" stroke="midnightblue" points="904.21,-138.79 911.92,-131.52 901.36,-132.4 904.21,-138.79"/>
</g>
<!-- Node19 -->
<g id="node19" class="node">
<title>Node19</title>
<g id="a_node19"><a xlink:href="artificial__particles_8hpp.html" target="_top" xlink:title=" ">
<polygon fill="white" stroke="black" points="1294.5,-112.5 1294.5,-131.5 1419.5,-131.5 1419.5,-112.5 1294.5,-112.5"/>
<text text-anchor="middle" x="1357" y="-119.5" font-family="Helvetica,sans-Serif" font-size="10.00">artificial_particles.hpp</text>
</a>
</g>
</g>
<!-- Node15&#45;&gt;Node19 -->
<g id="edge25" class="edge">
<title>Node15&#45;&gt;Node19</title>
<path fill="none" stroke="midnightblue" d="M838.1,-171.24C844.61,-170.04 851.53,-168.88 858,-168 1045.4,-142.54 1093.86,-151.27 1282,-132 1282.76,-131.92 1283.52,-131.84 1284.29,-131.76"/>
<polygon fill="midnightblue" stroke="midnightblue" points="1284.84,-135.22 1294.41,-130.68 1284.09,-128.27 1284.84,-135.22"/>
</g>
<!-- Node17&#45;&gt;Node2 -->
<g id="edge22" class="edge">
<title>Node17&#45;&gt;Node2</title>
<path fill="none" stroke="midnightblue" d="M884,-113.7C753,-93.35 385.44,-36.24 263.14,-17.24"/>
<polygon fill="midnightblue" stroke="midnightblue" points="263.51,-13.75 253.09,-15.67 262.43,-20.67 263.51,-13.75"/>
</g>
<!-- Node17&#45;&gt;Node3 -->
<g id="edge23" class="edge">
<title>Node17&#45;&gt;Node3</title>
<path fill="none" stroke="midnightblue" d="M883.71,-113.4C879.75,-112.88 875.81,-112.41 872,-112 733.68,-97.28 301.4,-75.34 170.16,-68.86"/>
<polygon fill="midnightblue" stroke="midnightblue" points="170.33,-65.37 160.17,-68.37 169.99,-72.36 170.33,-65.37"/>
</g>
<!-- Node18 -->
<g id="node18" class="node">
<title>Node18</title>
<g id="a_node18"><a xlink:title=" ">
<polygon fill="white" stroke="#bfbfbf" points="1013,-56.5 1013,-75.5 1111,-75.5 1111,-56.5 1013,-56.5"/>
<text text-anchor="middle" x="1062" y="-63.5" font-family="Helvetica,sans-Serif" font-size="10.00">Common/Float.h</text>
</a>
</g>
</g>
<!-- Node17&#45;&gt;Node18 -->
<g id="edge24" class="edge">
<title>Node17&#45;&gt;Node18</title>
<path fill="none" stroke="midnightblue" d="M951.76,-112.44C973.32,-103.56 1007.26,-89.56 1031.79,-79.45"/>
<polygon fill="midnightblue" stroke="midnightblue" points="1033.43,-82.56 1041.34,-75.52 1030.76,-76.09 1033.43,-82.56"/>
</g>
<!-- Node20 -->
<g id="node20" class="node">
<title>Node20</title>
<g id="a_node20"><a xlink:title=" ">
<polygon fill="white" stroke="#bfbfbf" points="1293,-0.5 1293,-19.5 1421,-19.5 1421,-0.5 1293,-0.5"/>
<text text-anchor="middle" x="1357" y="-7.5" font-family="Helvetica,sans-Serif" font-size="10.00">Common/binary_tree.h</text>
</a>
</g>
</g>
<!-- Node19&#45;&gt;Node20 -->
<g id="edge26" class="edge">
<title>Node19&#45;&gt;Node20</title>
<path fill="none" stroke="midnightblue" d="M1357,-112.37C1357,-94.62 1357,-53.67 1357,-29.6"/>
<polygon fill="midnightblue" stroke="midnightblue" points="1360.5,-29.59 1357,-19.59 1353.5,-29.59 1360.5,-29.59"/>
</g>
<!-- Node21 -->
<g id="node21" class="node">
<title>Node21</title>
<g id="a_node21"><a xlink:href="tidal__tensor_8hpp.html" target="_top" xlink:title=" ">
<polygon fill="white" stroke="black" points="1385.5,-56.5 1385.5,-75.5 1480.5,-75.5 1480.5,-56.5 1385.5,-56.5"/>
<text text-anchor="middle" x="1433" y="-63.5" font-family="Helvetica,sans-Serif" font-size="10.00">tidal_tensor.hpp</text>
</a>
</g>
</g>
<!-- Node19&#45;&gt;Node21 -->
<g id="edge27" class="edge">
<title>Node19&#45;&gt;Node21</title>
<path fill="none" stroke="midnightblue" d="M1369.21,-112.32C1380.78,-104.11 1398.38,-91.6 1412.16,-81.81"/>
<polygon fill="midnightblue" stroke="midnightblue" points="1414.44,-84.48 1420.57,-75.83 1410.39,-78.77 1414.44,-84.48"/>
</g>
<!-- Node22 -->
<g id="node22" class="node">
<title>Node22</title>
<g id="a_node22"><a xlink:href="pseudoparticle__multipole_8hpp.html" target="_top" xlink:title=" ">
<polygon fill="white" stroke="black" points="1129.5,-56.5 1129.5,-75.5 1290.5,-75.5 1290.5,-56.5 1129.5,-56.5"/>
<text text-anchor="middle" x="1210" y="-63.5" font-family="Helvetica,sans-Serif" font-size="10.00">pseudoparticle_multipole.hpp</text>
</a>
</g>
</g>
<!-- Node19&#45;&gt;Node22 -->
<g id="edge28" class="edge">
<title>Node19&#45;&gt;Node22</title>
<path fill="none" stroke="midnightblue" d="M1333.71,-112.44C1309.19,-103.44 1270.4,-89.19 1242.8,-79.05"/>
<polygon fill="midnightblue" stroke="midnightblue" points="1243.78,-75.68 1233.18,-75.52 1241.36,-82.25 1243.78,-75.68"/>
</g>
<!-- Node22&#45;&gt;Node2 -->
<g id="edge30" class="edge">
<title>Node22&#45;&gt;Node2</title>
<path fill="none" stroke="midnightblue" d="M1129.06,-56.72C1126,-56.46 1122.98,-56.22 1120,-56 789.55,-31.2 389.56,-16.56 263.23,-12.31"/>
<polygon fill="midnightblue" stroke="midnightblue" points="263.34,-8.81 253.23,-11.97 263.11,-15.81 263.34,-8.81"/>
</g>
<!-- Node22&#45;&gt;Node20 -->
<g id="edge29" class="edge">
<title>Node22&#45;&gt;Node20</title>
<path fill="none" stroke="midnightblue" d="M1233.29,-56.44C1257.81,-47.44 1296.6,-33.19 1324.2,-23.05"/>
<polygon fill="midnightblue" stroke="midnightblue" points="1325.64,-26.25 1333.82,-19.52 1323.22,-19.68 1325.64,-26.25"/>
</g>
<!-- Node24&#45;&gt;Node15 -->
<g id="edge33" class="edge">
<title>Node24&#45;&gt;Node15</title>
<path fill="none" stroke="midnightblue" d="M661.89,-224.44C691.75,-215.28 739.31,-200.69 772.46,-190.52"/>
<polygon fill="midnightblue" stroke="midnightblue" points="773.71,-193.8 782.24,-187.52 771.66,-187.1 773.71,-193.8"/>
</g>
<!-- Node25&#45;&gt;Node6 -->
<g id="edge35" class="edge">
<title>Node25&#45;&gt;Node6</title>
<path fill="none" stroke="midnightblue" d="M519.34,-224.49C542.31,-216.73 575.53,-204.04 602,-188 625.23,-173.93 648.6,-153.02 663.4,-138.74"/>
<polygon fill="midnightblue" stroke="midnightblue" points="666.01,-141.08 670.69,-131.57 661.1,-136.09 666.01,-141.08"/>
</g>
<!-- Node25&#45;&gt;Node11 -->
<g id="edge37" class="edge">
<title>Node25&#45;&gt;Node11</title>
<path fill="none" stroke="midnightblue" d="M481.88,-224.32C472.47,-216.26 458.26,-204.08 446.93,-194.37"/>
<polygon fill="midnightblue" stroke="midnightblue" points="449.18,-191.68 439.31,-187.83 444.62,-197 449.18,-191.68"/>
</g>
<!-- Node25&#45;&gt;Node15 -->
<g id="edge38" class="edge">
<title>Node25&#45;&gt;Node15</title>
<path fill="none" stroke="midnightblue" d="M537.56,-225.26C600.58,-214.56 713.22,-195.43 771.97,-185.46"/>
<polygon fill="midnightblue" stroke="midnightblue" points="772.68,-188.89 781.95,-183.76 771.51,-181.99 772.68,-188.89"/>
</g>
<!-- Node25&#45;&gt;Node20 -->
<g id="edge39" class="edge">
<title>Node25&#45;&gt;Node20</title>
<path fill="none" stroke="midnightblue" d="M513.48,-224.46C530.29,-216.91 553.35,-204.53 569,-188 595.1,-160.43 577.07,-134.02 608,-112 715.32,-35.61 1115.09,-16.92 1282.51,-12.41"/>
<polygon fill="midnightblue" stroke="midnightblue" points="1282.81,-15.9 1292.71,-12.14 1282.62,-8.9 1282.81,-15.9"/>
</g>
<!-- Node26 -->
<g id="node26" class="node">
<title>Node26</title>
<g id="a_node26"><a xlink:title=" ">
<polygon fill="white" stroke="#bfbfbf" points="466.5,-168.5 466.5,-187.5 559.5,-187.5 559.5,-168.5 466.5,-168.5"/>
<text text-anchor="middle" x="513" y="-175.5" font-family="Helvetica,sans-Serif" font-size="10.00">unordered_map</text>
</a>
</g>
</g>
<!-- Node25&#45;&gt;Node26 -->
<g id="edge36" class="edge">
<title>Node25&#45;&gt;Node26</title>
<path fill="none" stroke="midnightblue" d="M495.47,-224.08C498.31,-216.77 502.43,-206.18 505.96,-197.1"/>
<polygon fill="midnightblue" stroke="midnightblue" points="509.23,-198.34 509.6,-187.75 502.71,-195.8 509.23,-198.34"/>
</g>
<!-- Node27&#45;&gt;Node14 -->
<g id="edge46" class="edge">
<title>Node27&#45;&gt;Node14</title>
<path fill="none" stroke="midnightblue" d="M1157.12,-399.62C1092.85,-396.13 944.08,-385.05 904,-356 873.26,-333.72 888.86,-309.53 865,-280 855.58,-268.34 842.71,-257.61 831.79,-249.55"/>
<polygon fill="midnightblue" stroke="midnightblue" points="833.73,-246.64 823.55,-243.7 829.67,-252.35 833.73,-246.64"/>
</g>
<!-- Node27&#45;&gt;Node19 -->
<g id="edge75" class="edge">
<title>Node27&#45;&gt;Node19</title>
<path fill="none" stroke="midnightblue" d="M1216.64,-394.11C1270.05,-381.69 1377.09,-356.76 1379,-356 1424.49,-337.76 1440.56,-335.83 1474,-300 1498.56,-273.68 1518.66,-255.91 1502,-224 1478.7,-179.38 1425.71,-150.47 1390.65,-135.46"/>
<polygon fill="midnightblue" stroke="midnightblue" points="1391.86,-132.17 1381.28,-131.59 1389.19,-138.64 1391.86,-132.17"/>
</g>
<!-- Node27&#45;&gt;Node23 -->
<g id="edge45" class="edge">
<title>Node27&#45;&gt;Node23</title>
<path fill="none" stroke="midnightblue" d="M1202.01,-392.4C1226.81,-377.27 1275.81,-343.38 1298,-300 1305.42,-285.5 1309.21,-267.32 1311.13,-253.87"/>
<polygon fill="midnightblue" stroke="midnightblue" points="1314.61,-254.22 1312.33,-243.88 1307.66,-253.39 1314.61,-254.22"/>
</g>
<!-- Node27&#45;&gt;Node24 -->
<g id="edge47" class="edge">
<title>Node27&#45;&gt;Node24</title>
<path fill="none" stroke="midnightblue" d="M1157.24,-400.52C1051.09,-398.53 695.35,-389.42 658,-356 629.23,-330.26 629.08,-280.78 631.5,-253.75"/>
<polygon fill="midnightblue" stroke="midnightblue" points="635,-254 632.63,-243.68 628.04,-253.23 635,-254"/>
</g>
<!-- Node28 -->
<g id="node28" class="node">
<title>Node28</title>
<g id="a_node28"><a xlink:title=" ">
<polygon fill="white" stroke="#bfbfbf" points="1481.5,-336.5 1481.5,-355.5 1530.5,-355.5 1530.5,-336.5 1481.5,-336.5"/>
<text text-anchor="middle" x="1506" y="-343.5" font-family="Helvetica,sans-Serif" font-size="10.00">cstdlib</text>
</a>
</g>
</g>
<!-- Node27&#45;&gt;Node28 -->
<g id="edge41" class="edge">
<title>Node27&#45;&gt;Node28</title>
<path fill="none" stroke="midnightblue" d="M1216.76,-393.88C1219.87,-393.21 1223,-392.57 1226,-392 1332.4,-371.81 1360.6,-376.19 1467,-356 1468.45,-355.72 1469.93,-355.43 1471.42,-355.13"/>
<polygon fill="midnightblue" stroke="midnightblue" points="1472.26,-358.53 1481.3,-353.01 1470.79,-351.69 1472.26,-358.53"/>
</g>
<!-- Node29 -->
<g id="node29" class="node">
<title>Node29</title>
<g id="a_node29"><a xlink:title=" ">
<polygon fill="white" stroke="#bfbfbf" points="1549,-336.5 1549,-355.5 1613,-355.5 1613,-336.5 1549,-336.5"/>
<text text-anchor="middle" x="1581" y="-343.5" font-family="Helvetica,sans-Serif" font-size="10.00">algorithm</text>
</a>
</g>
</g>
<!-- Node27&#45;&gt;Node29 -->
<g id="edge42" class="edge">
<title>Node27&#45;&gt;Node29</title>
<path fill="none" stroke="midnightblue" d="M1216.74,-393.77C1219.86,-393.12 1222.99,-392.52 1226,-392 1361.19,-368.73 1399.65,-378.6 1538.65,-356.07"/>
<polygon fill="midnightblue" stroke="midnightblue" points="1539.53,-359.47 1548.83,-354.39 1538.39,-352.56 1539.53,-359.47"/>
</g>
<!-- Node30 -->
<g id="node30" class="node">
<title>Node30</title>
<g id="a_node30"><a xlink:title=" ">
<polygon fill="white" stroke="#bfbfbf" points="1631,-336.5 1631,-355.5 1779,-355.5 1779,-336.5 1631,-336.5"/>
<text text-anchor="middle" x="1705" y="-343.5" font-family="Helvetica,sans-Serif" font-size="10.00">AR/symplectic_integrator.h</text>
</a>
</g>
</g>
<!-- Node27&#45;&gt;Node30 -->
<g id="edge43" class="edge">
<title>Node27&#45;&gt;Node30</title>
<path fill="none" stroke="midnightblue" d="M1216.73,-393.7C1219.85,-393.07 1222.98,-392.48 1226,-392 1397.27,-364.58 1444.41,-373.19 1620.66,-356.11"/>
<polygon fill="midnightblue" stroke="midnightblue" points="1621.19,-359.57 1630.79,-355.11 1620.5,-352.61 1621.19,-359.57"/>
</g>
<!-- Node31 -->
<g id="node31" class="node">
<title>Node31</title>
<g id="a_node31"><a xlink:title=" ">
<polygon fill="white" stroke="#bfbfbf" points="1797.5,-336.5 1797.5,-355.5 1956.5,-355.5 1956.5,-336.5 1797.5,-336.5"/>
<text text-anchor="middle" x="1877" y="-343.5" font-family="Helvetica,sans-Serif" font-size="10.00">Hermite/hermite_integrator.h</text>
</a>
</g>
</g>
<!-- Node27&#45;&gt;Node31 -->
<g id="edge44" class="edge">
<title>Node27&#45;&gt;Node31</title>
<path fill="none" stroke="midnightblue" d="M1216.72,-393.62C1219.84,-393 1222.97,-392.44 1226,-392 1470.38,-356.22 1536.82,-376.05 1787.3,-356.02"/>
<polygon fill="midnightblue" stroke="midnightblue" points="1787.75,-359.49 1797.44,-355.19 1787.19,-352.51 1787.75,-359.49"/>
</g>
<!-- Node32 -->
<g id="node32" class="node">
<title>Node32</title>
<g id="a_node32"><a xlink:href="hermite__interaction_8hpp.html" target="_top" xlink:title=" ">
<polygon fill="white" stroke="black" points="867,-168.5 867,-187.5 1001,-187.5 1001,-168.5 867,-168.5"/>
<text text-anchor="middle" x="934" y="-175.5" font-family="Helvetica,sans-Serif" font-size="10.00">hermite_interaction.hpp</text>
</a>
</g>
</g>
<!-- Node27&#45;&gt;Node32 -->
<g id="edge48" class="edge">
<title>Node27&#45;&gt;Node32</title>
<path fill="none" stroke="midnightblue" d="M1157.27,-399.88C1058.99,-395.46 747.63,-375.62 691,-300 642.44,-235.16 768.62,-202.85 856.8,-188.61"/>
<polygon fill="midnightblue" stroke="midnightblue" points="857.47,-192.04 866.81,-187.04 856.39,-185.13 857.47,-192.04"/>
</g>
<!-- Node33 -->
<g id="node33" class="node">
<title>Node33</title>
<g id="a_node33"><a xlink:href="hermite__information_8hpp.html" target="_top" xlink:title=" ">
<polygon fill="white" stroke="black" points="870,-224.5 870,-243.5 1008,-243.5 1008,-224.5 870,-224.5"/>
<text text-anchor="middle" x="939" y="-231.5" font-family="Helvetica,sans-Serif" font-size="10.00">hermite_information.hpp</text>
</a>
</g>
</g>
<!-- Node27&#45;&gt;Node33 -->
<g id="edge51" class="edge">
<title>Node27&#45;&gt;Node33</title>
<path fill="none" stroke="midnightblue" d="M1174.86,-392.35C1155.77,-379.01 1117.27,-353.18 1082,-336 1040.28,-315.68 1020.7,-328.4 984,-300 967.77,-287.44 955.15,-267.38 947.46,-252.87"/>
<polygon fill="midnightblue" stroke="midnightblue" points="950.55,-251.23 942.94,-243.86 944.3,-254.37 950.55,-251.23"/>
</g>
<!-- Node34 -->
<g id="node34" class="node">
<title>Node34</title>
<g id="a_node34"><a xlink:href="hermite__perturber_8hpp.html" target="_top" xlink:title=" ">
<polygon fill="white" stroke="black" points="912.5,-336.5 912.5,-355.5 1037.5,-355.5 1037.5,-336.5 912.5,-336.5"/>
<text text-anchor="middle" x="975" y="-343.5" font-family="Helvetica,sans-Serif" font-size="10.00">hermite_perturber.hpp</text>
</a>
</g>
</g>
<!-- Node27&#45;&gt;Node34 -->
<g id="edge54" class="edge">
<title>Node27&#45;&gt;Node34</title>
<path fill="none" stroke="midnightblue" d="M1157.08,-393.38C1120.91,-384.17 1059.77,-368.59 1018.42,-358.06"/>
<polygon fill="midnightblue" stroke="midnightblue" points="1019.17,-354.64 1008.62,-355.56 1017.45,-361.42 1019.17,-354.64"/>
</g>
<!-- Node35 -->
<g id="node35" class="node">
<title>Node35</title>
<g id="a_node35"><a xlink:href="ar__interaction_8hpp.html" target="_top" xlink:title=" ">
<polygon fill="white" stroke="black" points="1134.5,-336.5 1134.5,-355.5 1239.5,-355.5 1239.5,-336.5 1134.5,-336.5"/>
<text text-anchor="middle" x="1187" y="-343.5" font-family="Helvetica,sans-Serif" font-size="10.00">ar_interaction.hpp</text>
</a>
</g>
</g>
<!-- Node27&#45;&gt;Node35 -->
<g id="edge55" class="edge">
<title>Node27&#45;&gt;Node35</title>
<path fill="none" stroke="midnightblue" d="M1187,-392.08C1187,-385.01 1187,-374.86 1187,-365.99"/>
<polygon fill="midnightblue" stroke="midnightblue" points="1190.5,-365.75 1187,-355.75 1183.5,-365.75 1190.5,-365.75"/>
</g>
<!-- Node38 -->
<g id="node38" class="node">
<title>Node38</title>
<g id="a_node38"><a xlink:href="ar__perturber_8hpp.html" target="_top" xlink:title=" ">
<polygon fill="white" stroke="black" points="1367.5,-280.5 1367.5,-299.5 1464.5,-299.5 1464.5,-280.5 1367.5,-280.5"/>
<text text-anchor="middle" x="1416" y="-287.5" font-family="Helvetica,sans-Serif" font-size="10.00">ar_perturber.hpp</text>
</a>
</g>
</g>
<!-- Node27&#45;&gt;Node38 -->
<g id="edge72" class="edge">
<title>Node27&#45;&gt;Node38</title>
<path fill="none" stroke="midnightblue" d="M1216.56,-393.89C1261.03,-383.06 1341.2,-362.96 1353,-356 1373.85,-343.7 1392.42,-322.67 1403.9,-307.87"/>
<polygon fill="midnightblue" stroke="midnightblue" points="1406.91,-309.7 1410.09,-299.59 1401.3,-305.5 1406.91,-309.7"/>
</g>
<!-- Node41 -->
<g id="node41" class="node">
<title>Node41</title>
<g id="a_node41"><a xlink:href="search__group__candidate_8hpp.html" target="_top" xlink:title=" ">
<polygon fill="white" stroke="black" points="700,-280.5 700,-299.5 856,-299.5 856,-280.5 700,-280.5"/>
<text text-anchor="middle" x="778" y="-287.5" font-family="Helvetica,sans-Serif" font-size="10.00">search_group_candidate.hpp</text>
</a>
</g>
</g>
<!-- Node27&#45;&gt;Node41 -->
<g id="edge73" class="edge">
<title>Node27&#45;&gt;Node41</title>
<path fill="none" stroke="midnightblue" d="M1168.4,-392.38C1148.87,-383.32 1117.28,-368.67 1090,-356 1070.88,-347.12 1067.13,-342.24 1047,-336 988.05,-317.73 919.39,-306.4 866.19,-299.67"/>
<polygon fill="midnightblue" stroke="midnightblue" points="866.46,-296.18 856.1,-298.43 865.6,-303.13 866.46,-296.18"/>
</g>
<!-- Node42 -->
<g id="node42" class="node">
<title>Node42</title>
<g id="a_node42"><a xlink:href="stability_8hpp.html" target="_top" xlink:title=" ">
<polygon fill="white" stroke="black" points="1569,-280.5 1569,-299.5 1645,-299.5 1645,-280.5 1569,-280.5"/>
<text text-anchor="middle" x="1607" y="-287.5" font-family="Helvetica,sans-Serif" font-size="10.00">stability.hpp</text>
</a>
</g>
</g>
<!-- Node27&#45;&gt;Node42 -->
<g id="edge76" class="edge">
<title>Node27&#45;&gt;Node42</title>
<path fill="none" stroke="midnightblue" d="M1216.78,-393.96C1219.89,-393.28 1223,-392.61 1226,-392 1315.78,-373.69 1341.49,-383.17 1429,-356 1449.51,-349.63 1453.01,-343.87 1473,-336 1504.89,-323.44 1541.86,-311.19 1568.89,-302.65"/>
<polygon fill="midnightblue" stroke="midnightblue" points="1570.23,-305.9 1578.72,-299.57 1568.13,-299.22 1570.23,-305.9"/>
</g>
<!-- Node32&#45;&gt;Node17 -->
<g id="edge50" class="edge">
<title>Node32&#45;&gt;Node17</title>
<path fill="none" stroke="midnightblue" d="M933.5,-168.08C933.11,-161.01 932.55,-150.86 932.05,-141.99"/>
<polygon fill="midnightblue" stroke="midnightblue" points="935.54,-141.54 931.49,-131.75 928.55,-141.93 935.54,-141.54"/>
</g>
<!-- Node32&#45;&gt;Node18 -->
<g id="edge49" class="edge">
<title>Node32&#45;&gt;Node18</title>
<path fill="none" stroke="midnightblue" d="M944.19,-168.4C954.88,-159.37 972.16,-144.73 987,-132 1006.64,-115.15 1029.05,-95.7 1044.22,-82.5"/>
<polygon fill="midnightblue" stroke="midnightblue" points="1046.6,-85.07 1051.84,-75.86 1042,-79.79 1046.6,-85.07"/>
</g>
<!-- Node33&#45;&gt;Node18 -->
<g id="edge52" class="edge">
<title>Node33&#45;&gt;Node18</title>
<path fill="none" stroke="midnightblue" d="M959.08,-224.35C974.74,-216.74 996.08,-204.33 1010,-188 1036.36,-157.08 1051.18,-110.78 1057.78,-85.35"/>
<polygon fill="midnightblue" stroke="midnightblue" points="1061.2,-86.1 1060.18,-75.56 1054.4,-84.44 1061.2,-86.1"/>
</g>
<!-- Node33&#45;&gt;Node32 -->
<g id="edge53" class="edge">
<title>Node33&#45;&gt;Node32</title>
<path fill="none" stroke="midnightblue" d="M938.17,-224.08C937.52,-217.01 936.58,-206.86 935.76,-197.99"/>
<polygon fill="midnightblue" stroke="midnightblue" points="939.22,-197.39 934.81,-187.75 932.25,-198.03 939.22,-197.39"/>
</g>
<!-- Node35&#45;&gt;Node14 -->
<g id="edge61" class="edge">
<title>Node35&#45;&gt;Node14</title>
<path fill="none" stroke="midnightblue" d="M1139.76,-336.47C1098.31,-328.52 1036.61,-315.58 984,-300 932.22,-284.67 873.72,-261.58 839.46,-247.44"/>
<polygon fill="midnightblue" stroke="midnightblue" points="840.63,-244.14 830.05,-243.54 837.94,-250.6 840.63,-244.14"/>
</g>
<!-- Node35&#45;&gt;Node17 -->
<g id="edge59" class="edge">
<title>Node35&#45;&gt;Node17</title>
<path fill="none" stroke="midnightblue" d="M1134.3,-337.98C1090.23,-330.9 1032.32,-318.38 1018,-300 1016.7,-298.33 1017.15,-226.11 1017,-224 1015.28,-198.98 1023.93,-188.86 1010,-168 1000.13,-153.22 983.65,-142.73 968.29,-135.62"/>
<polygon fill="midnightblue" stroke="midnightblue" points="969.52,-132.34 958.94,-131.62 966.76,-138.77 969.52,-132.34"/>
</g>
<!-- Node35&#45;&gt;Node18 -->
<g id="edge57" class="edge">
<title>Node35&#45;&gt;Node18</title>
<path fill="none" stroke="midnightblue" d="M1185.01,-336.43C1181.97,-323.84 1175.71,-299.71 1168,-280 1138.55,-204.76 1092.22,-120.14 1072,-84.41"/>
<polygon fill="midnightblue" stroke="midnightblue" points="1075.01,-82.63 1067.02,-75.67 1068.93,-86.09 1075.01,-82.63"/>
</g>
<!-- Node35&#45;&gt;Node20 -->
<g id="edge58" class="edge">
<title>Node35&#45;&gt;Node20</title>
<path fill="none" stroke="midnightblue" d="M1193.82,-336.21C1200.25,-327.5 1209.67,-313.52 1215,-300 1227.63,-267.97 1208.72,-251.07 1230,-224 1312.18,-119.47 1436.5,-197.73 1490,-76 1503.48,-45.33 1468.75,-29.04 1431.41,-20.44"/>
<polygon fill="midnightblue" stroke="midnightblue" points="1431.88,-16.96 1421.37,-18.31 1430.43,-23.81 1431.88,-16.96"/>
</g>
<!-- Node35&#45;&gt;Node23 -->
<g id="edge62" class="edge">
<title>Node35&#45;&gt;Node23</title>
<path fill="none" stroke="midnightblue" d="M1213.99,-336.39C1233.36,-329.14 1259.09,-317.17 1277,-300 1290.65,-286.91 1300.48,-267.49 1306.38,-253.29"/>
<polygon fill="midnightblue" stroke="midnightblue" points="1309.77,-254.22 1310.12,-243.63 1303.24,-251.69 1309.77,-254.22"/>
</g>
<!-- Node36 -->
<g id="node36" class="node">
<title>Node36</title>
<g id="a_node36"><a xlink:title=" ">
<polygon fill="white" stroke="#bfbfbf" points="1026.5,-280.5 1026.5,-299.5 1073.5,-299.5 1073.5,-280.5 1026.5,-280.5"/>
<text text-anchor="middle" x="1050" y="-287.5" font-family="Helvetica,sans-Serif" font-size="10.00">cmath</text>
</a>
</g>
</g>
<!-- Node35&#45;&gt;Node36 -->
<g id="edge56" class="edge">
<title>Node35&#45;&gt;Node36</title>
<path fill="none" stroke="midnightblue" d="M1165.29,-336.44C1142.65,-327.52 1106.93,-313.44 1081.25,-303.32"/>
<polygon fill="midnightblue" stroke="midnightblue" points="1082.19,-299.93 1071.61,-299.52 1079.63,-306.44 1082.19,-299.93"/>
</g>
<!-- Node37 -->
<g id="node37" class="node">
<title>Node37</title>
<g id="a_node37"><a xlink:title=" ">
<polygon fill="white" stroke="#bfbfbf" points="1091.5,-280.5 1091.5,-299.5 1158.5,-299.5 1158.5,-280.5 1091.5,-280.5"/>
<text text-anchor="middle" x="1125" y="-287.5" font-family="Helvetica,sans-Serif" font-size="10.00">AR/force.h</text>
</a>
</g>
</g>
<!-- Node35&#45;&gt;Node37 -->
<g id="edge60" class="edge">
<title>Node35&#45;&gt;Node37</title>
<path fill="none" stroke="midnightblue" d="M1177.04,-336.32C1167.87,-328.34 1154.06,-316.31 1142.97,-306.65"/>
<polygon fill="midnightblue" stroke="midnightblue" points="1144.98,-303.76 1135.14,-299.83 1140.38,-309.04 1144.98,-303.76"/>
</g>
<!-- Node35&#45;&gt;Node38 -->
<g id="edge63" class="edge">
<title>Node35&#45;&gt;Node38</title>
<path fill="none" stroke="midnightblue" d="M1223.29,-336.44C1262.98,-327.08 1326.71,-312.06 1369.91,-301.87"/>
<polygon fill="midnightblue" stroke="midnightblue" points="1370.95,-305.22 1379.88,-299.52 1369.35,-298.41 1370.95,-305.22"/>
</g>
<!-- Node40 -->
<g id="node40" class="node">
<title>Node40</title>
<g id="a_node40"><a xlink:href="two__body__tide_8hpp.html" target="_top" xlink:title=" ">
<polygon fill="white" stroke="black" points="1163.5,-112.5 1163.5,-131.5 1272.5,-131.5 1272.5,-112.5 1163.5,-112.5"/>
<text text-anchor="middle" x="1218" y="-119.5" font-family="Helvetica,sans-Serif" font-size="10.00">two_body_tide.hpp</text>
</a>
</g>
</g>
<!-- Node35&#45;&gt;Node40 -->
<g id="edge69" class="edge">
<title>Node35&#45;&gt;Node40</title>
<path fill="none" stroke="midnightblue" d="M1190.6,-336.22C1194.06,-327.28 1199.03,-312.94 1201,-300 1206.08,-266.56 1193.54,-257.65 1197,-224 1200.02,-194.69 1207.83,-161.33 1213.03,-141.24"/>
<polygon fill="midnightblue" stroke="midnightblue" points="1216.42,-142.12 1215.6,-131.55 1209.65,-140.32 1216.42,-142.12"/>
</g>
<!-- Node38&#45;&gt;Node14 -->
<g id="edge66" class="edge">
<title>Node38&#45;&gt;Node14</title>
<path fill="none" stroke="midnightblue" d="M1367.21,-286.59C1272.05,-281.54 1054.84,-268.39 861.75,-243.97"/>
<polygon fill="midnightblue" stroke="midnightblue" points="862.06,-240.48 851.7,-242.69 861.18,-247.43 862.06,-240.48"/>
</g>
<!-- Node38&#45;&gt;Node20 -->
<g id="edge67" class="edge">
<title>Node38&#45;&gt;Node20</title>
<path fill="none" stroke="midnightblue" d="M1446.68,-280.46C1488.7,-266.68 1559,-235.22 1559,-179 1559,-179 1559,-179 1559,-121 1559,-87.98 1548.99,-76.37 1523,-56 1496.81,-35.47 1461.97,-24.29 1430.97,-18.2"/>
<polygon fill="midnightblue" stroke="midnightblue" points="1431.52,-14.75 1421.05,-16.4 1430.26,-21.63 1431.52,-14.75"/>
</g>
<!-- Node38&#45;&gt;Node21 -->
<g id="edge68" class="edge">
<title>Node38&#45;&gt;Node21</title>
<path fill="none" stroke="midnightblue" d="M1450.18,-280.49C1468.99,-273.88 1490.74,-262.6 1502,-244 1535.24,-189.09 1478.07,-115.38 1448.74,-83.18"/>
<polygon fill="midnightblue" stroke="midnightblue" points="1451.01,-80.49 1441.62,-75.59 1445.9,-85.28 1451.01,-80.49"/>
</g>
<!-- Node38&#45;&gt;Node23 -->
<g id="edge65" class="edge">
<title>Node38&#45;&gt;Node23</title>
<path fill="none" stroke="midnightblue" d="M1399.45,-280.32C1383.01,-271.7 1357.57,-258.36 1338.53,-248.39"/>
<polygon fill="midnightblue" stroke="midnightblue" points="1339.99,-245.2 1329.51,-243.65 1336.74,-251.4 1339.99,-245.2"/>
</g>
<!-- Node39 -->
<g id="node39" class="node">
<title>Node39</title>
<g id="a_node39"><a xlink:title=" ">
<polygon fill="white" stroke="#bfbfbf" points="1405,-224.5 1405,-243.5 1493,-243.5 1493,-224.5 1405,-224.5"/>
<text text-anchor="middle" x="1449" y="-231.5" font-family="Helvetica,sans-Serif" font-size="10.00">Common/list.h</text>
</a>
</g>
</g>
<!-- Node38&#45;&gt;Node39 -->
<g id="edge64" class="edge">
<title>Node38&#45;&gt;Node39</title>
<path fill="none" stroke="midnightblue" d="M1421.45,-280.08C1426.01,-272.61 1432.67,-261.72 1438.29,-252.52"/>
<polygon fill="midnightblue" stroke="midnightblue" points="1441.42,-254.11 1443.65,-243.75 1435.45,-250.46 1441.42,-254.11"/>
</g>
<!-- Node40&#45;&gt;Node18 -->
<g id="edge70" class="edge">
<title>Node40&#45;&gt;Node18</title>
<path fill="none" stroke="midnightblue" d="M1193.28,-112.44C1167.15,-103.4 1125.74,-89.06 1096.42,-78.92"/>
<polygon fill="midnightblue" stroke="midnightblue" points="1097.2,-75.48 1086.6,-75.52 1094.91,-82.1 1097.2,-75.48"/>
</g>
<!-- Node40&#45;&gt;Node20 -->
<g id="edge71" class="edge">
<title>Node40&#45;&gt;Node20</title>
<path fill="none" stroke="midnightblue" d="M1238.07,-112.4C1255.45,-104.42 1280.75,-91.45 1300,-76 1317.47,-61.97 1333.95,-42.2 1344.65,-28.15"/>
<polygon fill="midnightblue" stroke="midnightblue" points="1347.66,-29.98 1350.81,-19.87 1342.03,-25.81 1347.66,-29.98"/>
</g>
<!-- Node41&#45;&gt;Node6 -->
<g id="edge74" class="edge">
<title>Node41&#45;&gt;Node6</title>
<path fill="none" stroke="midnightblue" d="M772.68,-280.08C756.89,-253.61 710.14,-175.21 689.26,-140.21"/>
<polygon fill="midnightblue" stroke="midnightblue" points="692.24,-138.36 684.11,-131.57 686.23,-141.95 692.24,-138.36"/>
</g>
<!-- Node42&#45;&gt;Node20 -->
<g id="edge77" class="edge">
<title>Node42&#45;&gt;Node20</title>
<path fill="none" stroke="midnightblue" d="M1610.78,-280.35C1618.42,-262.03 1635,-217.82 1635,-179 1635,-179 1635,-179 1635,-121 1635,-72.38 1591.11,-76.46 1547,-56 1510.6,-39.11 1467.24,-28.22 1431.14,-21.39"/>
<polygon fill="midnightblue" stroke="midnightblue" points="1431.63,-17.92 1421.16,-19.57 1430.37,-24.81 1431.63,-17.92"/>
</g>
</g>
</svg>
