<?xml version="1.0" encoding="UTF-8" standalone="no"?>
<!DOCTYPE svg PUBLIC "-//W3C//DTD SVG 1.1//EN"
 "http://www.w3.org/Graphics/SVG/1.1/DTD/svg11.dtd">
<!-- Generated by graphviz version 2.43.0 (0)
 -->
<!-- Title: hermite_information.hpp Pages: 1 -->
<svg width="258pt" height="196pt"
 viewBox="0.00 0.00 258.00 196.00" xmlns="http://www.w3.org/2000/svg" xmlns:xlink="http://www.w3.org/1999/xlink">
<g id="graph0" class="graph" transform="scale(1 1) rotate(0) translate(4 192)">
<title>hermite_information.hpp</title>
<polygon fill="white" stroke="transparent" points="-4,4 -4,-192 254,-192 254,4 -4,4"/>
<!-- Node1 -->
<g id="node1" class="node">
<title>Node1</title>
<g id="a_node1"><a xlink:title=" ">
<polygon fill="#bfbfbf" stroke="black" points="11,-168.5 11,-187.5 149,-187.5 149,-168.5 11,-168.5"/>
<text text-anchor="middle" x="80" y="-175.5" font-family="Helvetica,sans-Serif" font-size="10.00">hermite_information.hpp</text>
</a>
</g>
</g>
<!-- Node2 -->
<g id="node2" class="node">
<title>Node2</title>
<g id="a_node2"><a xlink:title=" ">
<polygon fill="white" stroke="#bfbfbf" points="0,-0.5 0,-19.5 98,-19.5 98,-0.5 0,-0.5"/>
<text text-anchor="middle" x="49" y="-7.5" font-family="Helvetica,sans-Serif" font-size="10.00">Common/Float.h</text>
</a>
</g>
</g>
<!-- Node1&#45;&gt;Node2 -->
<g id="edge1" class="edge">
<title>Node1&#45;&gt;Node2</title>
<path fill="none" stroke="midnightblue" d="M72.66,-168.39C65.86,-159.81 56.17,-145.93 52,-132 41.55,-97.07 43.89,-53.9 46.48,-29.71"/>
<polygon fill="midnightblue" stroke="midnightblue" points="49.96,-30.1 47.68,-19.75 43.01,-29.26 49.96,-30.1"/>
</g>
<!-- Node3 -->
<g id="node3" class="node">
<title>Node3</title>
<g id="a_node3"><a xlink:href="hermite__interaction_8hpp.html" target="_top" xlink:title=" ">
<polygon fill="white" stroke="black" points="61,-112.5 61,-131.5 195,-131.5 195,-112.5 61,-112.5"/>
<text text-anchor="middle" x="128" y="-119.5" font-family="Helvetica,sans-Serif" font-size="10.00">hermite_interaction.hpp</text>
</a>
</g>
</g>
<!-- Node1&#45;&gt;Node3 -->
<g id="edge2" class="edge">
<title>Node1&#45;&gt;Node3</title>
<path fill="none" stroke="midnightblue" d="M87.93,-168.08C94.85,-160.3 105.07,-148.8 113.45,-139.37"/>
<polygon fill="midnightblue" stroke="midnightblue" points="116.19,-141.55 120.22,-131.75 110.96,-136.9 116.19,-141.55"/>
</g>
<!-- Node3&#45;&gt;Node2 -->
<g id="edge3" class="edge">
<title>Node3&#45;&gt;Node2</title>
<path fill="none" stroke="midnightblue" d="M120.05,-112.33C112.09,-103.48 99.67,-89.2 90,-76 78.58,-60.41 66.96,-41.65 59.02,-28.3"/>
<polygon fill="midnightblue" stroke="midnightblue" points="62.03,-26.51 53.94,-19.66 55.99,-30.06 62.03,-26.51"/>
</g>
<!-- Node4 -->
<g id="node4" class="node">
<title>Node4</title>
<g id="a_node4"><a xlink:href="changeover_8hpp.html" target="_top" xlink:title=" ">
<polygon fill="white" stroke="black" points="99,-56.5 99,-75.5 193,-75.5 193,-56.5 99,-56.5"/>
<text text-anchor="middle" x="146" y="-63.5" font-family="Helvetica,sans-Serif" font-size="10.00">changeover.hpp</text>
</a>
</g>
</g>
<!-- Node3&#45;&gt;Node4 -->
<g id="edge4" class="edge">
<title>Node3&#45;&gt;Node4</title>
<path fill="none" stroke="midnightblue" d="M130.97,-112.08C133.38,-104.85 136.86,-94.41 139.87,-85.4"/>
<polygon fill="midnightblue" stroke="midnightblue" points="143.24,-86.34 143.08,-75.75 136.6,-84.13 143.24,-86.34"/>
</g>
<!-- Node4&#45;&gt;Node2 -->
<g id="edge7" class="edge">
<title>Node4&#45;&gt;Node2</title>
<path fill="none" stroke="midnightblue" d="M130.42,-56.32C115,-47.74 91.19,-34.49 73.29,-24.52"/>
<polygon fill="midnightblue" stroke="midnightblue" points="74.99,-21.46 64.55,-19.65 71.58,-27.58 74.99,-21.46"/>
</g>
<!-- Node5 -->
<g id="node5" class="node">
<title>Node5</title>
<g id="a_node5"><a xlink:title=" ">
<polygon fill="white" stroke="#bfbfbf" points="116,-0.5 116,-19.5 176,-19.5 176,-0.5 116,-0.5"/>
<text text-anchor="middle" x="146" y="-7.5" font-family="Helvetica,sans-Serif" font-size="10.00">iostream</text>
</a>
</g>
</g>
<!-- Node4&#45;&gt;Node5 -->
<g id="edge5" class="edge">
<title>Node4&#45;&gt;Node5</title>
<path fill="none" stroke="midnightblue" d="M146,-56.08C146,-49.01 146,-38.86 146,-29.99"/>
<polygon fill="midnightblue" stroke="midnightblue" points="149.5,-29.75 146,-19.75 142.5,-29.75 149.5,-29.75"/>
</g>
<!-- Node6 -->
<g id="node6" class="node">
<title>Node6</title>
<g id="a_node6"><a xlink:title=" ">
<polygon fill="white" stroke="#bfbfbf" points="194,-0.5 194,-19.5 250,-19.5 250,-0.5 194,-0.5"/>
<text text-anchor="middle" x="222" y="-7.5" font-family="Helvetica,sans-Serif" font-size="10.00">iomanip</text>
</a>
</g>
</g>
<!-- Node4&#45;&gt;Node6 -->
<g id="edge6" class="edge">
<title>Node4&#45;&gt;Node6</title>
<path fill="none" stroke="midnightblue" d="M158.21,-56.32C169.78,-48.11 187.38,-35.6 201.16,-25.81"/>
<polygon fill="midnightblue" stroke="midnightblue" points="203.44,-28.48 209.57,-19.83 199.39,-22.77 203.44,-28.48"/>
</g>
</g>
</svg>
