<?xml version="1.0" encoding="UTF-8" standalone="no"?>
<!DOCTYPE svg PUBLIC "-//W3C//DTD SVG 1.1//EN"
 "http://www.w3.org/Graphics/SVG/1.1/DTD/svg11.dtd">
<!-- Generated by graphviz version 2.43.0 (0)
 -->
<!-- Title: hermite_interaction.hpp Pages: 1 -->
<svg width="284pt" height="252pt"
 viewBox="0.00 0.00 284.00 252.00" xmlns="http://www.w3.org/2000/svg" xmlns:xlink="http://www.w3.org/1999/xlink">
<g id="graph0" class="graph" transform="scale(1 1) rotate(0) translate(4 248)">
<title>hermite_interaction.hpp</title>
<polygon fill="white" stroke="transparent" points="-4,4 -4,-248 280,-248 280,4 -4,4"/>
<!-- Node1 -->
<g id="node1" class="node">
<title>Node1</title>
<g id="a_node1"><a xlink:title=" ">
<polygon fill="#bfbfbf" stroke="black" points="87,-224.5 87,-243.5 221,-243.5 221,-224.5 87,-224.5"/>
<text text-anchor="middle" x="154" y="-231.5" font-family="Helvetica,sans-Serif" font-size="10.00">hermite_interaction.hpp</text>
</a>
</g>
</g>
<!-- Node2 -->
<g id="node2" class="node">
<title>Node2</title>
<g id="a_node2"><a xlink:href="hard_8hpp.html" target="_top" xlink:title=" ">
<polygon fill="white" stroke="black" points="124.5,-112.5 124.5,-131.5 183.5,-131.5 183.5,-112.5 124.5,-112.5"/>
<text text-anchor="middle" x="154" y="-119.5" font-family="Helvetica,sans-Serif" font-size="10.00">hard.hpp</text>
</a>
</g>
</g>
<!-- Node1&#45;&gt;Node2 -->
<g id="edge1" class="edge">
<title>Node1&#45;&gt;Node2</title>
<path fill="none" stroke="midnightblue" d="M140.01,-216.37C134.15,-208.34 128.01,-198.24 125,-188 118.79,-166.9 135.24,-143.72 145.83,-131.55"/>
<polygon fill="midnightblue" stroke="midnightblue" points="137.41,-218.73 146.33,-224.46 142.93,-214.42 137.41,-218.73"/>
</g>
<!-- Node7 -->
<g id="node7" class="node">
<title>Node7</title>
<g id="a_node7"><a xlink:href="hermite__information_8hpp.html" target="_top" xlink:title=" ">
<polygon fill="white" stroke="black" points="134,-168.5 134,-187.5 272,-187.5 272,-168.5 134,-168.5"/>
<text text-anchor="middle" x="203" y="-175.5" font-family="Helvetica,sans-Serif" font-size="10.00">hermite_information.hpp</text>
</a>
</g>
</g>
<!-- Node1&#45;&gt;Node7 -->
<g id="edge6" class="edge">
<title>Node1&#45;&gt;Node7</title>
<path fill="none" stroke="midnightblue" d="M169.03,-216.43C177.62,-206.97 188.04,-195.48 195.06,-187.75"/>
<polygon fill="midnightblue" stroke="midnightblue" points="166.22,-214.33 162.09,-224.08 171.4,-219.03 166.22,-214.33"/>
</g>
<!-- Node3 -->
<g id="node3" class="node">
<title>Node3</title>
<g id="a_node3"><a xlink:href="hard__debug_8cxx.html" target="_top" xlink:title=" ">
<polygon fill="white" stroke="black" points="0,-56.5 0,-75.5 94,-75.5 94,-56.5 0,-56.5"/>
<text text-anchor="middle" x="47" y="-63.5" font-family="Helvetica,sans-Serif" font-size="10.00">hard_debug.cxx</text>
</a>
</g>
</g>
<!-- Node2&#45;&gt;Node3 -->
<g id="edge2" class="edge">
<title>Node2&#45;&gt;Node3</title>
<path fill="none" stroke="midnightblue" d="M127.7,-107.73C107.89,-97.73 81.29,-84.31 64.15,-75.65"/>
<polygon fill="midnightblue" stroke="midnightblue" points="126.3,-110.94 136.81,-112.32 129.46,-104.69 126.3,-110.94"/>
</g>
<!-- Node4 -->
<g id="node4" class="node">
<title>Node4</title>
<g id="a_node4"><a xlink:href="hard__test_8cxx.html" target="_top" xlink:title=" ">
<polygon fill="white" stroke="black" points="112.5,-56.5 112.5,-75.5 195.5,-75.5 195.5,-56.5 112.5,-56.5"/>
<text text-anchor="middle" x="154" y="-63.5" font-family="Helvetica,sans-Serif" font-size="10.00">hard_test.cxx</text>
</a>
</g>
</g>
<!-- Node2&#45;&gt;Node4 -->
<g id="edge3" class="edge">
<title>Node2&#45;&gt;Node4</title>
<path fill="none" stroke="midnightblue" d="M154,-101.8C154,-92.91 154,-82.78 154,-75.75"/>
<polygon fill="midnightblue" stroke="midnightblue" points="150.5,-102.08 154,-112.08 157.5,-102.08 150.5,-102.08"/>
</g>
<!-- Node5 -->
<g id="node5" class="node">
<title>Node5</title>
<g id="a_node5"><a xlink:href="petar_8hpp.html" target="_top" xlink:title=" ">
<polygon fill="white" stroke="black" points="214,-56.5 214,-75.5 276,-75.5 276,-56.5 214,-56.5"/>
<text text-anchor="middle" x="245" y="-63.5" font-family="Helvetica,sans-Serif" font-size="10.00">petar.hpp</text>
</a>
</g>
</g>
<!-- Node2&#45;&gt;Node5 -->
<g id="edge4" class="edge">
<title>Node2&#45;&gt;Node5</title>
<path fill="none" stroke="midnightblue" d="M177.29,-107.18C194.04,-97.24 216.1,-84.15 230.42,-75.65"/>
<polygon fill="midnightblue" stroke="midnightblue" points="175.43,-104.21 168.62,-112.32 179.01,-110.23 175.43,-104.21"/>
</g>
<!-- Node6 -->
<g id="node6" class="node">
<title>Node6</title>
<g id="a_node6"><a xlink:href="main_8cc.html" target="_top" xlink:title=" ">
<polygon fill="white" stroke="black" points="217.5,-0.5 217.5,-19.5 272.5,-19.5 272.5,-0.5 217.5,-0.5"/>
<text text-anchor="middle" x="245" y="-7.5" font-family="Helvetica,sans-Serif" font-size="10.00">main.cc</text>
</a>
</g>
</g>
<!-- Node5&#45;&gt;Node6 -->
<g id="edge5" class="edge">
<title>Node5&#45;&gt;Node6</title>
<path fill="none" stroke="midnightblue" d="M245,-45.8C245,-36.91 245,-26.78 245,-19.75"/>
<polygon fill="midnightblue" stroke="midnightblue" points="241.5,-46.08 245,-56.08 248.5,-46.08 241.5,-46.08"/>
</g>
<!-- Node7&#45;&gt;Node2 -->
<g id="edge7" class="edge">
<title>Node7&#45;&gt;Node2</title>
<path fill="none" stroke="midnightblue" d="M187.97,-160.43C179.38,-150.97 168.96,-139.48 161.94,-131.75"/>
<polygon fill="midnightblue" stroke="midnightblue" points="185.6,-163.03 194.91,-168.08 190.78,-158.33 185.6,-163.03"/>
</g>
</g>
</svg>
