<?xml version="1.0" encoding="UTF-8" standalone="no"?>
<!DOCTYPE svg PUBLIC "-//W3C//DTD SVG 1.1//EN"
 "http://www.w3.org/Graphics/SVG/1.1/DTD/svg11.dtd">
<!-- Generated by graphviz version 2.43.0 (0)
 -->
<!-- Title: io.hpp Pages: 1 -->
<svg width="1006pt" height="140pt"
 viewBox="0.00 0.00 1005.50 140.00" xmlns="http://www.w3.org/2000/svg" xmlns:xlink="http://www.w3.org/1999/xlink">
<g id="graph0" class="graph" transform="scale(1 1) rotate(0) translate(4 136)">
<title>io.hpp</title>
<polygon fill="white" stroke="transparent" points="-4,4 -4,-136 1001.5,-136 1001.5,4 -4,4"/>
<!-- Node1 -->
<g id="node1" class="node">
<title>Node1</title>
<g id="a_node1"><a xlink:title=" ">
<polygon fill="#bfbfbf" stroke="black" points="533,-112.5 533,-131.5 580,-131.5 580,-112.5 533,-112.5"/>
<text text-anchor="middle" x="556.5" y="-119.5" font-family="Helvetica,sans-Serif" font-size="10.00">io.hpp</text>
</a>
</g>
</g>
<!-- Node2 -->
<g id="node2" class="node">
<title>Node2</title>
<g id="a_node2"><a xlink:href="format__transfer_8cxx.html" target="_top" xlink:title=" ">
<polygon fill="white" stroke="black" points="0,-56.5 0,-75.5 113,-75.5 113,-56.5 0,-56.5"/>
<text text-anchor="middle" x="56.5" y="-63.5" font-family="Helvetica,sans-Serif" font-size="10.00">format_transfer.cxx</text>
</a>
</g>
</g>
<!-- Node1&#45;&gt;Node2 -->
<g id="edge1" class="edge">
<title>Node1&#45;&gt;Node2</title>
<path fill="none" stroke="midnightblue" d="M522.97,-117.89C450.05,-111.06 271.61,-93.89 122.5,-76 119.4,-75.63 116.22,-75.23 113.01,-74.83"/>
<polygon fill="midnightblue" stroke="midnightblue" points="522.67,-121.38 532.95,-118.83 523.32,-114.41 522.67,-121.38"/>
</g>
<!-- Node3 -->
<g id="node3" class="node">
<title>Node3</title>
<g id="a_node3"><a xlink:href="hard__debug_8cxx.html" target="_top" xlink:title=" ">
<polygon fill="white" stroke="black" points="131.5,-56.5 131.5,-75.5 225.5,-75.5 225.5,-56.5 131.5,-56.5"/>
<text text-anchor="middle" x="178.5" y="-63.5" font-family="Helvetica,sans-Serif" font-size="10.00">hard_debug.cxx</text>
</a>
</g>
</g>
<!-- Node1&#45;&gt;Node3 -->
<g id="edge2" class="edge">
<title>Node1&#45;&gt;Node3</title>
<path fill="none" stroke="midnightblue" d="M522.45,-116.47C463.66,-108.61 339.34,-91.75 234.5,-76 231.58,-75.56 228.57,-75.1 225.54,-74.63"/>
<polygon fill="midnightblue" stroke="midnightblue" points="522.27,-119.98 532.64,-117.84 523.19,-113.04 522.27,-119.98"/>
</g>
<!-- Node4 -->
<g id="node4" class="node">
<title>Node4</title>
<g id="a_node4"><a xlink:href="hard__test_8cxx.html" target="_top" xlink:title=" ">
<polygon fill="white" stroke="black" points="244,-56.5 244,-75.5 327,-75.5 327,-56.5 244,-56.5"/>
<text text-anchor="middle" x="285.5" y="-63.5" font-family="Helvetica,sans-Serif" font-size="10.00">hard_test.cxx</text>
</a>
</g>
</g>
<!-- Node1&#45;&gt;Node4 -->
<g id="edge3" class="edge">
<title>Node1&#45;&gt;Node4</title>
<path fill="none" stroke="midnightblue" d="M523.05,-114.34C473.58,-104.48 380.97,-86.02 327.16,-75.3"/>
<polygon fill="midnightblue" stroke="midnightblue" points="522.43,-117.78 532.92,-116.3 523.8,-110.92 522.43,-117.78"/>
</g>
<!-- Node5 -->
<g id="node5" class="node">
<title>Node5</title>
<g id="a_node5"><a xlink:href="io__test_8cxx.html" target="_top" xlink:title=" ">
<polygon fill="white" stroke="black" points="345.5,-56.5 345.5,-75.5 415.5,-75.5 415.5,-56.5 345.5,-56.5"/>
<text text-anchor="middle" x="380.5" y="-63.5" font-family="Helvetica,sans-Serif" font-size="10.00">io_test.cxx</text>
</a>
</g>
</g>
<!-- Node1&#45;&gt;Node5 -->
<g id="edge4" class="edge">
<title>Node1&#45;&gt;Node5</title>
<path fill="none" stroke="midnightblue" d="M523.06,-110.74C489.88,-100.56 439.63,-85.14 408.5,-75.59"/>
<polygon fill="midnightblue" stroke="midnightblue" points="522.18,-114.13 532.76,-113.72 524.23,-107.44 522.18,-114.13"/>
</g>
<!-- Node6 -->
<g id="node6" class="node">
<title>Node6</title>
<g id="a_node6"><a xlink:href="petar_8hpp.html" target="_top" xlink:title=" ">
<polygon fill="white" stroke="black" points="433.5,-56.5 433.5,-75.5 495.5,-75.5 495.5,-56.5 433.5,-56.5"/>
<text text-anchor="middle" x="464.5" y="-63.5" font-family="Helvetica,sans-Serif" font-size="10.00">petar.hpp</text>
</a>
</g>
</g>
<!-- Node1&#45;&gt;Node6 -->
<g id="edge5" class="edge">
<title>Node1&#45;&gt;Node6</title>
<path fill="none" stroke="midnightblue" d="M532.95,-107.18C516.02,-97.24 493.72,-84.15 479.24,-75.65"/>
<polygon fill="midnightblue" stroke="midnightblue" points="531.32,-110.28 541.72,-112.32 534.87,-104.24 531.32,-110.28"/>
</g>
<!-- Node8 -->
<g id="node8" class="node">
<title>Node8</title>
<g id="a_node8"><a xlink:href="simd__test_8cxx.html" target="_top" xlink:title=" ">
<polygon fill="white" stroke="black" points="514,-56.5 514,-75.5 599,-75.5 599,-56.5 514,-56.5"/>
<text text-anchor="middle" x="556.5" y="-63.5" font-family="Helvetica,sans-Serif" font-size="10.00">simd_test.cxx</text>
</a>
</g>
</g>
<!-- Node1&#45;&gt;Node8 -->
<g id="edge7" class="edge">
<title>Node1&#45;&gt;Node8</title>
<path fill="none" stroke="midnightblue" d="M556.5,-101.8C556.5,-92.91 556.5,-82.78 556.5,-75.75"/>
<polygon fill="midnightblue" stroke="midnightblue" points="553,-102.08 556.5,-112.08 560,-102.08 553,-102.08"/>
</g>
<!-- Node9 -->
<g id="node9" class="node">
<title>Node9</title>
<g id="a_node9"><a xlink:href="tide__test_8cxx.html" target="_top" xlink:title=" ">
<polygon fill="white" stroke="black" points="617.5,-56.5 617.5,-75.5 697.5,-75.5 697.5,-56.5 617.5,-56.5"/>
<text text-anchor="middle" x="657.5" y="-63.5" font-family="Helvetica,sans-Serif" font-size="10.00">tide_test.cxx</text>
</a>
</g>
</g>
<!-- Node1&#45;&gt;Node9 -->
<g id="edge8" class="edge">
<title>Node1&#45;&gt;Node9</title>
<path fill="none" stroke="midnightblue" d="M581.58,-107.59C600.26,-97.61 625.2,-84.27 641.31,-75.65"/>
<polygon fill="midnightblue" stroke="midnightblue" points="579.9,-104.52 572.73,-112.32 583.2,-110.7 579.9,-104.52"/>
</g>
<!-- Node10 -->
<g id="node10" class="node">
<title>Node10</title>
<g id="a_node10"><a xlink:href="bse__interface_8h.html" target="_top" xlink:title=" ">
<polygon fill="white" stroke="black" points="715.5,-56.5 715.5,-75.5 807.5,-75.5 807.5,-56.5 715.5,-56.5"/>
<text text-anchor="middle" x="761.5" y="-63.5" font-family="Helvetica,sans-Serif" font-size="10.00">bse_interface.h</text>
</a>
</g>
</g>
<!-- Node1&#45;&gt;Node10 -->
<g id="edge9" class="edge">
<title>Node1&#45;&gt;Node10</title>
<path fill="none" stroke="midnightblue" d="M589.71,-112.25C628.17,-102.12 691.11,-85.54 729.19,-75.51"/>
<polygon fill="midnightblue" stroke="midnightblue" points="588.79,-108.87 580.02,-114.81 590.58,-115.64 588.79,-108.87"/>
</g>
<!-- Node11 -->
<g id="node11" class="node">
<title>Node11</title>
<g id="a_node11"><a xlink:href="bse__test_8cxx.html" target="_top" xlink:title=" ">
<polygon fill="white" stroke="black" points="748.5,-0.5 748.5,-19.5 826.5,-19.5 826.5,-0.5 748.5,-0.5"/>
<text text-anchor="middle" x="787.5" y="-7.5" font-family="Helvetica,sans-Serif" font-size="10.00">bse_test.cxx</text>
</a>
</g>
</g>
<!-- Node1&#45;&gt;Node11 -->
<g id="edge11" class="edge">
<title>Node1&#45;&gt;Node11</title>
<path fill="none" stroke="midnightblue" d="M590.5,-120.32C654.27,-118.25 787.98,-109.87 816.5,-76 830.98,-58.79 810.22,-33.2 797,-19.84"/>
<polygon fill="midnightblue" stroke="midnightblue" points="590.07,-116.83 580.17,-120.62 590.27,-123.83 590.07,-116.83"/>
</g>
<!-- Node12 -->
<g id="node12" class="node">
<title>Node12</title>
<g id="a_node12"><a xlink:href="galpy__interface_8h.html" target="_top" xlink:title=" ">
<polygon fill="white" stroke="black" points="864,-56.5 864,-75.5 965,-75.5 965,-56.5 864,-56.5"/>
<text text-anchor="middle" x="914.5" y="-63.5" font-family="Helvetica,sans-Serif" font-size="10.00">galpy_interface.h</text>
</a>
</g>
</g>
<!-- Node1&#45;&gt;Node12 -->
<g id="edge12" class="edge">
<title>Node1&#45;&gt;Node12</title>
<path fill="none" stroke="midnightblue" d="M590.48,-115.87C653.66,-106.34 789.55,-85.85 863.69,-74.66"/>
<polygon fill="midnightblue" stroke="midnightblue" points="589.63,-112.46 580.27,-117.42 590.68,-119.38 589.63,-112.46"/>
</g>
<!-- Node13 -->
<g id="node13" class="node">
<title>Node13</title>
<g id="a_node13"><a xlink:href="galpy__test_8cxx.html" target="_top" xlink:title=" ">
<polygon fill="white" stroke="black" points="909.5,-0.5 909.5,-19.5 997.5,-19.5 997.5,-0.5 909.5,-0.5"/>
<text text-anchor="middle" x="953.5" y="-7.5" font-family="Helvetica,sans-Serif" font-size="10.00">galpy_test.cxx</text>
</a>
</g>
</g>
<!-- Node1&#45;&gt;Node13 -->
<g id="edge14" class="edge">
<title>Node1&#45;&gt;Node13</title>
<path fill="none" stroke="midnightblue" d="M590.43,-119.9C685.46,-116.46 948.97,-104.43 974.5,-76 989.08,-59.77 971.85,-33.29 961.01,-19.68"/>
<polygon fill="midnightblue" stroke="midnightblue" points="590.09,-116.41 580.22,-120.26 590.34,-123.4 590.09,-116.41"/>
</g>
<!-- Node7 -->
<g id="node7" class="node">
<title>Node7</title>
<g id="a_node7"><a xlink:href="main_8cc.html" target="_top" xlink:title=" ">
<polygon fill="white" stroke="black" points="437,-0.5 437,-19.5 492,-19.5 492,-0.5 437,-0.5"/>
<text text-anchor="middle" x="464.5" y="-7.5" font-family="Helvetica,sans-Serif" font-size="10.00">main.cc</text>
</a>
</g>
</g>
<!-- Node6&#45;&gt;Node7 -->
<g id="edge6" class="edge">
<title>Node6&#45;&gt;Node7</title>
<path fill="none" stroke="midnightblue" d="M464.5,-45.8C464.5,-36.91 464.5,-26.78 464.5,-19.75"/>
<polygon fill="midnightblue" stroke="midnightblue" points="461,-46.08 464.5,-56.08 468,-46.08 461,-46.08"/>
</g>
<!-- Node10&#45;&gt;Node11 -->
<g id="edge10" class="edge">
<title>Node10&#45;&gt;Node11</title>
<path fill="none" stroke="midnightblue" d="M770.17,-46.98C774.59,-37.82 779.75,-27.09 783.29,-19.75"/>
<polygon fill="midnightblue" stroke="midnightblue" points="766.98,-45.55 765.79,-56.08 773.29,-48.59 766.98,-45.55"/>
</g>
<!-- Node12&#45;&gt;Node13 -->
<g id="edge13" class="edge">
<title>Node12&#45;&gt;Node13</title>
<path fill="none" stroke="midnightblue" d="M926.88,-47.86C933.64,-38.5 941.71,-27.33 947.18,-19.75"/>
<polygon fill="midnightblue" stroke="midnightblue" points="923.96,-45.93 920.94,-56.08 929.63,-50.03 923.96,-45.93"/>
</g>
</g>
</svg>
