<?xml version="1.0" encoding="UTF-8" standalone="no"?>
<!DOCTYPE svg PUBLIC "-//W3C//DTD SVG 1.1//EN"
 "http://www.w3.org/Graphics/SVG/1.1/DTD/svg11.dtd">
<!-- Generated by graphviz version 2.43.0 (0)
 -->
<!-- Title: PIKG::min Pages: 1 -->
<svg width="841pt" height="294pt"
 viewBox="0.00 0.00 841.00 293.53" xmlns="http://www.w3.org/2000/svg" xmlns:xlink="http://www.w3.org/1999/xlink">
<g id="graph0" class="graph" transform="scale(1 1) rotate(0) translate(4 289.53)">
<title>PIKG::min</title>
<polygon fill="white" stroke="transparent" points="-4,4 -4,-289.53 837,-289.53 837,4 -4,4"/>
<!-- Node1 -->
<g id="node1" class="node">
<title>Node1</title>
<g id="a_node1"><a xlink:title=" ">
<polygon fill="#bfbfbf" stroke="black" points="768,-133.03 768,-152.03 833,-152.03 833,-133.03 768,-133.03"/>
<text text-anchor="middle" x="800.5" y="-140.03" font-family="Helvetica,sans-Serif" font-size="10.00">PIKG::min</text>
</a>
</g>
</g>
<!-- Node2 -->
<g id="node2" class="node">
<title>Node2</title>
<g id="a_node2"><a xlink:href="classPtclHard.html#a1d001a949091e49821b1f7e4c0e73b55" target="_top" xlink:title=" ">
<polygon fill="white" stroke="black" points="587.5,-266.03 587.5,-285.03 710.5,-285.03 710.5,-266.03 587.5,-266.03"/>
<text text-anchor="middle" x="649" y="-273.03" font-family="Helvetica,sans-Serif" font-size="10.00">PtclHard::calcRSearch</text>
</a>
</g>
</g>
<!-- Node1&#45;&gt;Node2 -->
<g id="edge1" class="edge">
<title>Node1&#45;&gt;Node2</title>
<path fill="none" stroke="midnightblue" d="M792.54,-161.97C782.78,-186.46 762.7,-228.16 732,-251.53 723.74,-257.82 713.86,-262.46 703.87,-265.89"/>
<polygon fill="midnightblue" stroke="midnightblue" points="795.91,-162.94 796.19,-152.35 789.37,-160.45 795.91,-162.94"/>
</g>
<!-- Node3 -->
<g id="node3" class="node">
<title>Node3</title>
<g id="a_node3"><a xlink:href="classBSEManager.html#af4d46cc4343c6f9a8175942cac4656de" target="_top" xlink:title="call BSE evolv2 for a binary">
<polygon fill="white" stroke="black" points="352,-221.03 352,-240.03 530,-240.03 530,-221.03 352,-221.03"/>
<text text-anchor="middle" x="441" y="-228.03" font-family="Helvetica,sans-Serif" font-size="10.00">BSEManager::getTimeStepBinary</text>
</a>
</g>
</g>
<!-- Node1&#45;&gt;Node3 -->
<g id="edge2" class="edge">
<title>Node1&#45;&gt;Node3</title>
<path fill="none" stroke="midnightblue" d="M789.29,-160.86C777.95,-179.16 757.8,-206.29 732,-218.53 655.29,-254.92 553.92,-248.61 493.59,-240.04"/>
<polygon fill="midnightblue" stroke="midnightblue" points="792.32,-162.6 794.39,-152.21 786.29,-159.04 792.32,-162.6"/>
</g>
<!-- Node4 -->
<g id="node4" class="node">
<title>Node4</title>
<g id="a_node4"><a xlink:href="classBSEManager.html#a9acfef87a65d61fd52406121f3f3d35d" target="_top" xlink:title="get next time step to check in Myr">
<polygon fill="white" stroke="black" points="566,-190.03 566,-209.03 732,-209.03 732,-190.03 566,-190.03"/>
<text text-anchor="middle" x="649" y="-197.03" font-family="Helvetica,sans-Serif" font-size="10.00">BSEManager::getTimeStepStar</text>
</a>
</g>
</g>
<!-- Node1&#45;&gt;Node4 -->
<g id="edge3" class="edge">
<title>Node1&#45;&gt;Node4</title>
<path fill="none" stroke="midnightblue" d="M772.91,-156.83C760.67,-163.07 745.82,-170.17 732,-175.53 717.75,-181.05 701.7,-186.01 687.59,-189.97"/>
<polygon fill="midnightblue" stroke="midnightblue" points="774.84,-159.77 782.1,-152.05 771.61,-153.56 774.84,-159.77"/>
</g>
<!-- Node5 -->
<g id="node5" class="node">
<title>Node5</title>
<g id="a_node5"><a xlink:href="classARInteraction.html#a01115b0f522974cd9e5f0ecd3ef57663" target="_top" xlink:title="(Necessary) modify one particle function">
<polygon fill="white" stroke="black" points="370,-165.53 370,-195.53 512,-195.53 512,-165.53 370,-165.53"/>
<text text-anchor="start" x="378" y="-183.53" font-family="Helvetica,sans-Serif" font-size="10.00">ARInteraction::modifyOne</text>
<text text-anchor="middle" x="441" y="-172.53" font-family="Helvetica,sans-Serif" font-size="10.00">Particle</text>
</a>
</g>
</g>
<!-- Node1&#45;&gt;Node5 -->
<g id="edge6" class="edge">
<title>Node1&#45;&gt;Node5</title>
<path fill="none" stroke="midnightblue" d="M757.48,-147C697.1,-153.41 585.07,-165.32 512.05,-173.08"/>
<polygon fill="midnightblue" stroke="midnightblue" points="758.2,-150.44 767.77,-145.9 757.46,-143.48 758.2,-150.44"/>
</g>
<!-- Node6 -->
<g id="node6" class="node">
<title>Node6</title>
<g id="a_node6"><a xlink:href="classBinaryEvent.html#abceee9b94161fd75851eaf003a49c011" target="_top" xlink:title="set up the initial parameter of binary event based on the present status of a binary">
<polygon fill="white" stroke="black" points="579,-114.03 579,-133.03 719,-133.03 719,-114.03 579,-114.03"/>
<text text-anchor="middle" x="649" y="-121.03" font-family="Helvetica,sans-Serif" font-size="10.00">BinaryEvent::recordEvent</text>
</a>
</g>
</g>
<!-- Node1&#45;&gt;Node6 -->
<g id="edge7" class="edge">
<title>Node1&#45;&gt;Node6</title>
<path fill="none" stroke="midnightblue" d="M757.68,-137.21C745.71,-135.69 732.33,-133.99 719.18,-132.32"/>
<polygon fill="midnightblue" stroke="midnightblue" points="757.43,-140.71 767.79,-138.5 758.32,-133.77 757.43,-140.71"/>
</g>
<!-- Node8 -->
<g id="node8" class="node">
<title>Node8</title>
<g id="a_node8"><a xlink:href="classStability.html#aa40ca7cd2b05a549f8e539aab549a8ad" target="_top" xlink:title="Three&#45;body stability function.">
<polygon fill="white" stroke="black" points="588,-38.03 588,-57.03 710,-57.03 710,-38.03 588,-38.03"/>
<text text-anchor="middle" x="649" y="-45.03" font-family="Helvetica,sans-Serif" font-size="10.00">Stability::stable3body</text>
</a>
</g>
</g>
<!-- Node1&#45;&gt;Node8 -->
<g id="edge9" class="edge">
<title>Node1&#45;&gt;Node8</title>
<path fill="none" stroke="midnightblue" d="M786.84,-124.58C774.57,-108.46 754.54,-85.28 732,-71.53 721.74,-65.27 709.77,-60.57 698.19,-57.07"/>
<polygon fill="midnightblue" stroke="midnightblue" points="784.08,-126.73 792.83,-132.71 789.71,-122.58 784.08,-126.73"/>
</g>
<!-- Node9 -->
<g id="node9" class="node">
<title>Node9</title>
<g id="a_node9"><a xlink:href="classStability.html#af78b60bacc16c71e2c09f36cb4c39834" target="_top" xlink:title="Three&#45;body (B&#45;S) stability check.">
<polygon fill="white" stroke="black" points="377.5,-57.03 377.5,-76.03 504.5,-76.03 504.5,-57.03 377.5,-57.03"/>
<text text-anchor="middle" x="441" y="-64.03" font-family="Helvetica,sans-Serif" font-size="10.00">Stability::stable3check</text>
</a>
</g>
</g>
<!-- Node1&#45;&gt;Node9 -->
<g id="edge15" class="edge">
<title>Node1&#45;&gt;Node9</title>
<path fill="none" stroke="midnightblue" d="M777.5,-127.29C764.77,-119.22 748.12,-109.9 732,-104.53 656.36,-79.34 564.43,-70.75 504.63,-67.88"/>
<polygon fill="midnightblue" stroke="midnightblue" points="775.73,-130.32 786.01,-132.87 779.56,-124.46 775.73,-130.32"/>
</g>
<!-- Node12 -->
<g id="node12" class="node">
<title>Node12</title>
<g id="a_node12"><a xlink:href="classStability.html#acb687089da1eb3788a3c320e32855381" target="_top" xlink:title="Four&#45;body (B&#45;B) stability check.">
<polygon fill="white" stroke="black" points="377.5,-19.03 377.5,-38.03 504.5,-38.03 504.5,-19.03 377.5,-19.03"/>
<text text-anchor="middle" x="441" y="-26.03" font-family="Helvetica,sans-Serif" font-size="10.00">Stability::stable4check</text>
</a>
</g>
</g>
<!-- Node1&#45;&gt;Node12 -->
<g id="edge16" class="edge">
<title>Node1&#45;&gt;Node12</title>
<path fill="none" stroke="midnightblue" d="M794.48,-123.07C786.4,-96.22 767.65,-48.85 732,-28.53 649.11,18.72 530.03,-3.98 473.76,-18.96"/>
<polygon fill="midnightblue" stroke="midnightblue" points="791.16,-124.19 797.23,-132.87 797.9,-122.29 791.16,-124.19"/>
</g>
<!-- Node4&#45;&gt;Node3 -->
<g id="edge4" class="edge">
<title>Node4&#45;&gt;Node3</title>
<path fill="none" stroke="midnightblue" d="M574.88,-210.53C552.2,-213.95 527.41,-217.68 505.44,-220.98"/>
<polygon fill="midnightblue" stroke="midnightblue" points="575.43,-213.99 584.79,-209.04 574.38,-207.07 575.43,-213.99"/>
</g>
<!-- Node4&#45;&gt;Node5 -->
<g id="edge5" class="edge">
<title>Node4&#45;&gt;Node5</title>
<path fill="none" stroke="midnightblue" d="M555.88,-191.03C541.18,-189.68 526.18,-188.29 512.1,-187"/>
<polygon fill="midnightblue" stroke="midnightblue" points="555.71,-194.53 565.99,-191.97 556.36,-187.56 555.71,-194.53"/>
</g>
<!-- Node7 -->
<g id="node7" class="node">
<title>Node7</title>
<g id="a_node7"><a xlink:href="classBSEManager.html#ada11ffd4ad9e05137395b74ba5b6d610" target="_top" xlink:title="call evolv2 for a binary">
<polygon fill="white" stroke="black" points="366.5,-114.03 366.5,-133.03 515.5,-133.03 515.5,-114.03 366.5,-114.03"/>
<text text-anchor="middle" x="441" y="-121.03" font-family="Helvetica,sans-Serif" font-size="10.00">BSEManager::evolveBinary</text>
</a>
</g>
</g>
<!-- Node6&#45;&gt;Node7 -->
<g id="edge8" class="edge">
<title>Node6&#45;&gt;Node7</title>
<path fill="none" stroke="midnightblue" d="M568.68,-123.53C551.22,-123.53 532.8,-123.53 515.57,-123.53"/>
<polygon fill="midnightblue" stroke="midnightblue" points="568.83,-127.03 578.83,-123.53 568.83,-120.03 568.83,-127.03"/>
</g>
<!-- Node8&#45;&gt;Node9 -->
<g id="edge10" class="edge">
<title>Node8&#45;&gt;Node9</title>
<path fill="none" stroke="midnightblue" d="M577.87,-54C554.15,-56.19 527.83,-58.61 504.72,-60.74"/>
<polygon fill="midnightblue" stroke="midnightblue" points="578.23,-57.48 587.86,-53.08 577.58,-50.51 578.23,-57.48"/>
</g>
<!-- Node8&#45;&gt;Node12 -->
<g id="edge13" class="edge">
<title>Node8&#45;&gt;Node12</title>
<path fill="none" stroke="midnightblue" d="M577.87,-41.06C554.15,-38.87 527.83,-36.45 504.72,-34.31"/>
<polygon fill="midnightblue" stroke="midnightblue" points="577.58,-44.55 587.86,-41.98 578.23,-37.58 577.58,-44.55"/>
</g>
<!-- Node10 -->
<g id="node10" class="node">
<title>Node10</title>
<g id="a_node10"><a xlink:href="classStability.html#a40355024253599fc1df4d7d1c719412a" target="_top" xlink:title="Stability check iteraction function for BinaryTree.">
<polygon fill="white" stroke="black" points="167,-38.03 167,-57.03 316,-57.03 316,-38.03 167,-38.03"/>
<text text-anchor="middle" x="241.5" y="-45.03" font-family="Helvetica,sans-Serif" font-size="10.00">Stability::stabilityCheckIter</text>
</a>
</g>
</g>
<!-- Node9&#45;&gt;Node10 -->
<g id="edge11" class="edge">
<title>Node9&#45;&gt;Node10</title>
<path fill="none" stroke="midnightblue" d="M367.05,-59.51C350.44,-57.91 332.78,-56.21 316.14,-54.61"/>
<polygon fill="midnightblue" stroke="midnightblue" points="366.95,-63.02 377.24,-60.49 367.62,-56.05 366.95,-63.02"/>
</g>
<!-- Node11 -->
<g id="node11" class="node">
<title>Node11</title>
<g id="a_node11"><a xlink:href="classStability.html#a5a905e57057b65f66e778ef3b8070878" target="_top" xlink:title="Check binary tree and collect stable subtree.">
<polygon fill="white" stroke="black" points="0,-38.03 0,-57.03 131,-57.03 131,-38.03 0,-38.03"/>
<text text-anchor="middle" x="65.5" y="-45.03" font-family="Helvetica,sans-Serif" font-size="10.00">Stability::findStableTree</text>
</a>
</g>
</g>
<!-- Node10&#45;&gt;Node11 -->
<g id="edge12" class="edge">
<title>Node10&#45;&gt;Node11</title>
<path fill="none" stroke="midnightblue" d="M156.88,-47.53C148.26,-47.53 139.6,-47.53 131.23,-47.53"/>
<polygon fill="midnightblue" stroke="midnightblue" points="156.96,-51.03 166.96,-47.53 156.96,-44.03 156.96,-51.03"/>
</g>
<!-- Node12&#45;&gt;Node10 -->
<g id="edge14" class="edge">
<title>Node12&#45;&gt;Node10</title>
<path fill="none" stroke="midnightblue" d="M367.05,-35.55C350.44,-37.15 332.78,-38.84 316.14,-40.45"/>
<polygon fill="midnightblue" stroke="midnightblue" points="367.62,-39.01 377.24,-34.57 366.95,-32.04 367.62,-39.01"/>
</g>
</g>
</svg>
