<?xml version="1.0" encoding="UTF-8" standalone="no"?>
<!DOCTYPE svg PUBLIC "-//W3C//DTD SVG 1.1//EN"
 "http://www.w3.org/Graphics/SVG/1.1/DTD/svg11.dtd">
<!-- Generated by graphviz version 2.43.0 (0)
 -->
<!-- Title: galpy_help.listPot Pages: 1 -->
<svg width="298pt" height="142pt"
 viewBox="0.00 0.00 298.00 142.00" xmlns="http://www.w3.org/2000/svg" xmlns:xlink="http://www.w3.org/1999/xlink">
<g id="graph0" class="graph" transform="scale(1 1) rotate(0) translate(4 138)">
<title>galpy_help.listPot</title>
<polygon fill="white" stroke="transparent" points="-4,4 -4,-138 294,-138 294,4 -4,4"/>
<!-- Node1 -->
<g id="node1" class="node">
<title>Node1</title>
<g id="a_node1"><a xlink:title=" ">
<polygon fill="#bfbfbf" stroke="black" points="0,-57.5 0,-76.5 104,-76.5 104,-57.5 0,-57.5"/>
<text text-anchor="middle" x="52" y="-64.5" font-family="Helvetica,sans-Serif" font-size="10.00">galpy_help.listPot</text>
</a>
</g>
</g>
<!-- Node2 -->
<g id="node2" class="node">
<title>Node2</title>
<g id="a_node2"><a xlink:href="namespacegalpy__help.html#a83d7b952576ff8e9e5e4fbfaf3fc0523" target="_top" xlink:title=" ">
<polygon fill="white" stroke="black" points="142,-114.5 142,-133.5 288,-133.5 288,-114.5 142,-114.5"/>
<text text-anchor="middle" x="215" y="-121.5" font-family="Helvetica,sans-Serif" font-size="10.00">galpy_help.getPotInstance</text>
</a>
</g>
</g>
<!-- Node1&#45;&gt;Node2 -->
<g id="edge1" class="edge">
<title>Node1&#45;&gt;Node2</title>
<path fill="none" stroke="midnightblue" d="M72.34,-76.52C89.74,-84.82 116.16,-96.79 140,-105 147.06,-107.43 154.6,-109.71 162.06,-111.79"/>
<polygon fill="midnightblue" stroke="midnightblue" points="161.21,-115.19 171.78,-114.41 163.03,-108.43 161.21,-115.19"/>
</g>
<!-- Node3 -->
<g id="node3" class="node">
<title>Node3</title>
<g id="a_node3"><a xlink:href="namespacegalpy__help.html#a1925f51dc676783c5ff9736fd8e1fcc0" target="_top" xlink:title=" ">
<polygon fill="white" stroke="black" points="148.5,-76.5 148.5,-95.5 281.5,-95.5 281.5,-76.5 148.5,-76.5"/>
<text text-anchor="middle" x="215" y="-83.5" font-family="Helvetica,sans-Serif" font-size="10.00">galpy_help.printPotTitle</text>
</a>
</g>
</g>
<!-- Node1&#45;&gt;Node3 -->
<g id="edge2" class="edge">
<title>Node1&#45;&gt;Node3</title>
<path fill="none" stroke="midnightblue" d="M104.38,-73.06C115.2,-74.34 126.83,-75.71 138.33,-77.07"/>
<polygon fill="midnightblue" stroke="midnightblue" points="138.04,-80.56 148.38,-78.26 138.86,-73.61 138.04,-80.56"/>
</g>
<!-- Node4 -->
<g id="node4" class="node">
<title>Node4</title>
<g id="a_node4"><a xlink:href="namespacegalpy__help.html#a55ae279b09c94f7e9a135b18eb42e949" target="_top" xlink:title=" ">
<polygon fill="white" stroke="black" points="140,-38.5 140,-57.5 290,-57.5 290,-38.5 140,-38.5"/>
<text text-anchor="middle" x="215" y="-45.5" font-family="Helvetica,sans-Serif" font-size="10.00">galpy_help.printPotTypeArg</text>
</a>
</g>
</g>
<!-- Node1&#45;&gt;Node4 -->
<g id="edge3" class="edge">
<title>Node1&#45;&gt;Node4</title>
<path fill="none" stroke="midnightblue" d="M104.38,-60.94C112.52,-59.98 121.11,-58.96 129.77,-57.94"/>
<polygon fill="midnightblue" stroke="midnightblue" points="130.4,-61.39 139.93,-56.74 129.58,-54.44 130.4,-61.39"/>
</g>
<!-- Node5 -->
<g id="node5" class="node">
<title>Node5</title>
<g id="a_node5"><a xlink:href="namespacegalpy__help.html#ae38c21dae1cc4e1b1e0e3df9629a6175" target="_top" xlink:title=" ">
<polygon fill="white" stroke="black" points="151.5,-0.5 151.5,-19.5 278.5,-19.5 278.5,-0.5 151.5,-0.5"/>
<text text-anchor="middle" x="215" y="-7.5" font-family="Helvetica,sans-Serif" font-size="10.00">galpy_help.printSpliter</text>
</a>
</g>
</g>
<!-- Node1&#45;&gt;Node5 -->
<g id="edge4" class="edge">
<title>Node1&#45;&gt;Node5</title>
<path fill="none" stroke="midnightblue" d="M72.34,-57.48C89.74,-49.18 116.16,-37.21 140,-29 147.06,-26.57 154.6,-24.29 162.06,-22.21"/>
<polygon fill="midnightblue" stroke="midnightblue" points="163.03,-25.57 171.78,-19.59 161.21,-18.81 163.03,-25.57"/>
</g>
</g>
</svg>
