<?xml version="1.0" encoding="UTF-8" standalone="no"?>
<!DOCTYPE svg PUBLIC "-//W3C//DTD SVG 1.1//EN"
 "http://www.w3.org/Graphics/SVG/1.1/DTD/svg11.dtd">
<!-- Generated by graphviz version 2.43.0 (0)
 -->
<!-- Title: PIKG::max Pages: 1 -->
<svg width="875pt" height="450pt"
 viewBox="0.00 0.00 875.00 450.00" xmlns="http://www.w3.org/2000/svg" xmlns:xlink="http://www.w3.org/1999/xlink">
<g id="graph0" class="graph" transform="scale(1 1) rotate(0) translate(4 446)">
<title>PIKG::max</title>
<polygon fill="white" stroke="transparent" points="-4,4 -4,-446 871,-446 871,4 -4,4"/>
<!-- Node1 -->
<g id="node1" class="node">
<title>Node1</title>
<g id="a_node1"><a xlink:title=" ">
<polygon fill="#bfbfbf" stroke="black" points="799,-247.5 799,-266.5 867,-266.5 867,-247.5 799,-247.5"/>
<text text-anchor="middle" x="833" y="-254.5" font-family="Helvetica,sans-Serif" font-size="10.00">PIKG::max</text>
</a>
</g>
</g>
<!-- Node2 -->
<g id="node2" class="node">
<title>Node2</title>
<g id="a_node2"><a xlink:href="classPtclHard.html#a1d001a949091e49821b1f7e4c0e73b55" target="_top" xlink:title=" ">
<polygon fill="white" stroke="black" points="600,-422.5 600,-441.5 723,-441.5 723,-422.5 600,-422.5"/>
<text text-anchor="middle" x="661.5" y="-429.5" font-family="Helvetica,sans-Serif" font-size="10.00">PtclHard::calcRSearch</text>
</a>
</g>
</g>
<!-- Node1&#45;&gt;Node2 -->
<g id="edge1" class="edge">
<title>Node1&#45;&gt;Node2</title>
<path fill="none" stroke="midnightblue" d="M829.28,-276.49C823.5,-310 806.77,-378.28 763,-413 751.66,-421.99 737.36,-427.19 723.12,-430.09"/>
<polygon fill="midnightblue" stroke="midnightblue" points="832.74,-276.98 830.84,-266.56 825.83,-275.89 832.74,-276.98"/>
</g>
<!-- Node3 -->
<g id="node3" class="node">
<title>Node3</title>
<g id="a_node3"><a xlink:href="classPtcl.html#a16be4c6cdfc9a71ff180a2fce6d8668d" target="_top" xlink:title="calculate new rsearch">
<polygon fill="white" stroke="black" points="611.5,-384.5 611.5,-403.5 711.5,-403.5 711.5,-384.5 611.5,-384.5"/>
<text text-anchor="middle" x="661.5" y="-391.5" font-family="Helvetica,sans-Serif" font-size="10.00">Ptcl::calcRSearch</text>
</a>
</g>
</g>
<!-- Node1&#45;&gt;Node3 -->
<g id="edge2" class="edge">
<title>Node1&#45;&gt;Node3</title>
<path fill="none" stroke="midnightblue" d="M826.36,-276.22C817.49,-302.89 797.6,-350.6 763,-375 748.13,-385.49 729.05,-390.63 711.52,-393.01"/>
<polygon fill="midnightblue" stroke="midnightblue" points="829.76,-277.1 829.41,-266.51 823.08,-275 829.76,-277.1"/>
</g>
<!-- Node4 -->
<g id="node4" class="node">
<title>Node4</title>
<g id="a_node4"><a xlink:href="classSearchCluster.html#a2db47a5989764aa313443addbb55d591" target="_top" xlink:title="identify whether the neighbor satisfy velocity criterion">
<polygon fill="white" stroke="black" points="580,-335 580,-365 743,-365 743,-335 580,-335"/>
<text text-anchor="start" x="588" y="-353" font-family="Helvetica,sans-Serif" font-size="10.00">SearchCluster::checkNeighbor</text>
<text text-anchor="middle" x="661.5" y="-342" font-family="Helvetica,sans-Serif" font-size="10.00">WithVelocity</text>
</a>
</g>
</g>
<!-- Node1&#45;&gt;Node4 -->
<g id="edge3" class="edge">
<title>Node1&#45;&gt;Node4</title>
<path fill="none" stroke="midnightblue" d="M819.02,-274.68C806.44,-290.52 785.96,-313.16 763,-326 756.74,-329.5 749.98,-332.5 743.03,-335.05"/>
<polygon fill="midnightblue" stroke="midnightblue" points="821.84,-276.76 825.15,-266.69 816.29,-272.49 821.84,-276.76"/>
</g>
<!-- Node5 -->
<g id="node5" class="node">
<title>Node5</title>
<g id="a_node5"><a xlink:href="classHardIntegrator.html#aa9bff3864c110f2bd2af54163e878757" target="_top" xlink:title="drift c.m. particle of the cluster record group c.m. in group_data and write back data to original pa...">
<polygon fill="white" stroke="black" points="560,-286 560,-316 763,-316 763,-286 560,-286"/>
<text text-anchor="start" x="568" y="-304" font-family="Helvetica,sans-Serif" font-size="10.00">HardIntegrator::driftCluster</text>
<text text-anchor="middle" x="661.5" y="-293" font-family="Helvetica,sans-Serif" font-size="10.00">CMRecordGroupCMDataAndWriteBack</text>
</a>
</g>
</g>
<!-- Node1&#45;&gt;Node5 -->
<g id="edge4" class="edge">
<title>Node1&#45;&gt;Node5</title>
<path fill="none" stroke="midnightblue" d="M788.88,-269.05C780.31,-271.4 771.38,-273.8 763,-276 750.39,-279.3 736.86,-282.74 723.95,-285.97"/>
<polygon fill="midnightblue" stroke="midnightblue" points="789.99,-272.38 798.7,-266.35 788.13,-265.63 789.99,-272.38"/>
</g>
<!-- Node6 -->
<g id="node6" class="node">
<title>Node6</title>
<g id="a_node6"><a xlink:href="classBSEManager.html#ada11ffd4ad9e05137395b74ba5b6d610" target="_top" xlink:title="call evolv2 for a binary">
<polygon fill="white" stroke="black" points="587,-247.5 587,-266.5 736,-266.5 736,-247.5 587,-247.5"/>
<text text-anchor="middle" x="661.5" y="-254.5" font-family="Helvetica,sans-Serif" font-size="10.00">BSEManager::evolveBinary</text>
</a>
</g>
</g>
<!-- Node1&#45;&gt;Node6 -->
<g id="edge5" class="edge">
<title>Node1&#45;&gt;Node6</title>
<path fill="none" stroke="midnightblue" d="M788.81,-257C772.8,-257 754.16,-257 736.19,-257"/>
<polygon fill="midnightblue" stroke="midnightblue" points="788.92,-260.5 798.92,-257 788.92,-253.5 788.92,-260.5"/>
</g>
<!-- Node7 -->
<g id="node7" class="node">
<title>Node7</title>
<g id="a_node7"><a xlink:href="classHardIntegrator.html#aa9af7a31e9981446c84ca58ca77e4630" target="_top" xlink:title="initial integration">
<polygon fill="white" stroke="black" points="600.5,-209.5 600.5,-228.5 722.5,-228.5 722.5,-209.5 600.5,-209.5"/>
<text text-anchor="middle" x="661.5" y="-216.5" font-family="Helvetica,sans-Serif" font-size="10.00">HardIntegrator::initial</text>
</a>
</g>
</g>
<!-- Node1&#45;&gt;Node7 -->
<g id="edge6" class="edge">
<title>Node1&#45;&gt;Node7</title>
<path fill="none" stroke="midnightblue" d="M789.78,-244.79C780.97,-242.4 771.71,-240.02 763,-238 748.3,-234.59 732.28,-231.35 717.44,-228.54"/>
<polygon fill="midnightblue" stroke="midnightblue" points="788.93,-248.18 799.5,-247.46 790.78,-241.43 788.93,-248.18"/>
</g>
<!-- Node8 -->
<g id="node8" class="node">
<title>Node8</title>
<g id="a_node8"><a xlink:href="simd__test_8cxx.html#a3c04138a5bfe5d72780bb7e82a18e627" target="_top" xlink:title=" ">
<polygon fill="white" stroke="black" points="417.5,-190.5 417.5,-209.5 458.5,-209.5 458.5,-190.5 417.5,-190.5"/>
<text text-anchor="middle" x="438" y="-197.5" font-family="Helvetica,sans-Serif" font-size="10.00">main</text>
</a>
</g>
</g>
<!-- Node1&#45;&gt;Node8 -->
<g id="edge7" class="edge">
<title>Node1&#45;&gt;Node8</title>
<path fill="none" stroke="midnightblue" d="M817.35,-239.57C804.6,-225.87 784.79,-207.84 763,-200 653.96,-160.79 510.61,-184.68 458.77,-195.51"/>
<polygon fill="midnightblue" stroke="midnightblue" points="815.06,-242.27 824.33,-247.41 820.29,-237.62 815.06,-242.27"/>
</g>
<!-- Node9 -->
<g id="node9" class="node">
<title>Node9</title>
<g id="a_node9"><a xlink:href="classChangeOver.html#ab8bbff987a930131dcbe86ce435f6087" target="_top" xlink:title="set r_in and r_out for changeover function">
<polygon fill="white" stroke="black" points="609.5,-133.5 609.5,-152.5 713.5,-152.5 713.5,-133.5 609.5,-133.5"/>
<text text-anchor="middle" x="661.5" y="-140.5" font-family="Helvetica,sans-Serif" font-size="10.00">ChangeOver::setR</text>
</a>
</g>
</g>
<!-- Node1&#45;&gt;Node9 -->
<g id="edge8" class="edge">
<title>Node1&#45;&gt;Node9</title>
<path fill="none" stroke="midnightblue" d="M822.72,-238.31C811.47,-217.63 790.54,-184.87 763,-167 748.4,-157.53 730.44,-151.79 713.76,-148.31"/>
<polygon fill="midnightblue" stroke="midnightblue" points="819.73,-240.13 827.46,-247.38 825.93,-236.89 819.73,-240.13"/>
</g>
<!-- Node18 -->
<g id="node18" class="node">
<title>Node18</title>
<g id="a_node18"><a xlink:href="classStability.html#aa40ca7cd2b05a549f8e539aab549a8ad" target="_top" xlink:title="Three&#45;body stability function.">
<polygon fill="white" stroke="black" points="600.5,-38.5 600.5,-57.5 722.5,-57.5 722.5,-38.5 600.5,-38.5"/>
<text text-anchor="middle" x="661.5" y="-45.5" font-family="Helvetica,sans-Serif" font-size="10.00">Stability::stable3body</text>
</a>
</g>
</g>
<!-- Node1&#45;&gt;Node18 -->
<g id="edge18" class="edge">
<title>Node1&#45;&gt;Node18</title>
<path fill="none" stroke="midnightblue" d="M825.22,-237.9C814.85,-210.55 793.07,-159.63 763,-124 738.59,-95.08 701.28,-70.54 679.65,-57.67"/>
<polygon fill="midnightblue" stroke="midnightblue" points="821.99,-239.27 828.73,-247.45 828.56,-236.85 821.99,-239.27"/>
</g>
<!-- Node9&#45;&gt;Node8 -->
<g id="edge9" class="edge">
<title>Node9&#45;&gt;Node8</title>
<path fill="none" stroke="midnightblue" d="M604.89,-154.85C590.18,-158.37 574.4,-162.5 560,-167 543.61,-172.12 540.42,-176 524,-181 502.01,-187.69 476.17,-193.13 458.8,-196.45"/>
<polygon fill="midnightblue" stroke="midnightblue" points="605.93,-158.2 614.87,-152.51 604.33,-151.39 605.93,-158.2"/>
</g>
<!-- Node10 -->
<g id="node10" class="node">
<title>Node10</title>
<g id="a_node10"><a xlink:href="classChangeOver.html#a4ab816f7e59edaf68f7223b8ca5bcd7b" target="_top" xlink:title="read class data to file with binary format">
<polygon fill="white" stroke="black" points="374,-152.5 374,-171.5 502,-171.5 502,-152.5 374,-152.5"/>
<text text-anchor="middle" x="438" y="-159.5" font-family="Helvetica,sans-Serif" font-size="10.00">ChangeOver::readAscii</text>
</a>
</g>
</g>
<!-- Node9&#45;&gt;Node10 -->
<g id="edge10" class="edge">
<title>Node9&#45;&gt;Node10</title>
<path fill="none" stroke="midnightblue" d="M599.4,-148.24C569.14,-150.84 532.64,-153.97 502.11,-156.59"/>
<polygon fill="midnightblue" stroke="midnightblue" points="599.74,-151.72 609.41,-147.38 599.14,-144.75 599.74,-151.72"/>
</g>
<!-- Node14 -->
<g id="node14" class="node">
<title>Node14</title>
<g id="a_node14"><a xlink:href="classChangeOver.html#a56998e927c0f7516b225c3690833a23f" target="_top" xlink:title="read class data to file with binary format">
<polygon fill="white" stroke="black" points="370,-114.5 370,-133.5 506,-133.5 506,-114.5 370,-114.5"/>
<text text-anchor="middle" x="438" y="-121.5" font-family="Helvetica,sans-Serif" font-size="10.00">ChangeOver::readBinary</text>
</a>
</g>
</g>
<!-- Node9&#45;&gt;Node14 -->
<g id="edge14" class="edge">
<title>Node9&#45;&gt;Node14</title>
<path fill="none" stroke="midnightblue" d="M599.43,-137.76C570.51,-135.28 535.89,-132.31 506.22,-129.77"/>
<polygon fill="midnightblue" stroke="midnightblue" points="599.14,-141.25 609.41,-138.62 599.74,-134.28 599.14,-141.25"/>
</g>
<!-- Node17 -->
<g id="node17" class="node">
<title>Node17</title>
<g id="a_node17"><a xlink:href="classChangeOver.html#ae376094ee332a91ba0e2c0956b772fd3" target="_top" xlink:title="update radius based on r_scale_next, reset r_scale_next to 1">
<polygon fill="white" stroke="black" points="352,-76.5 352,-95.5 524,-95.5 524,-76.5 352,-76.5"/>
<text text-anchor="middle" x="438" y="-83.5" font-family="Helvetica,sans-Serif" font-size="10.00">ChangeOver::updateWithRScale</text>
</a>
</g>
</g>
<!-- Node9&#45;&gt;Node17 -->
<g id="edge17" class="edge">
<title>Node9&#45;&gt;Node17</title>
<path fill="none" stroke="midnightblue" d="M618.23,-130.63C591.34,-122.91 555.74,-112.96 524,-105 510.95,-101.73 496.7,-98.43 483.66,-95.53"/>
<polygon fill="midnightblue" stroke="midnightblue" points="617.5,-134.06 628.08,-133.47 619.44,-127.33 617.5,-134.06"/>
</g>
<!-- Node11 -->
<g id="node11" class="node">
<title>Node11</title>
<g id="a_node11"><a xlink:href="classFPSoftWriteArtificial.html#ad58f4f4a5f291e6535e0501db231b6da" target="_top" xlink:title=" ">
<polygon fill="white" stroke="black" points="184.5,-191 184.5,-221 298.5,-221 298.5,-191 184.5,-191"/>
<text text-anchor="start" x="192.5" y="-209" font-family="Helvetica,sans-Serif" font-size="10.00">FPSoftWriteArtificial</text>
<text text-anchor="middle" x="241.5" y="-198" font-family="Helvetica,sans-Serif" font-size="10.00">::readAscii</text>
</a>
</g>
</g>
<!-- Node10&#45;&gt;Node11 -->
<g id="edge11" class="edge">
<title>Node10&#45;&gt;Node11</title>
<path fill="none" stroke="midnightblue" d="M384.16,-173.77C373.51,-176.16 362.39,-178.65 352,-181 334.69,-184.91 315.85,-189.2 298.76,-193.1"/>
<polygon fill="midnightblue" stroke="midnightblue" points="385.19,-177.13 394.19,-171.53 383.66,-170.3 385.19,-177.13"/>
</g>
<!-- Node12 -->
<g id="node12" class="node">
<title>Node12</title>
<g id="a_node12"><a xlink:href="classPtcl.html#a8194ae1343c9b9dacad1e2253a69ea7d" target="_top" xlink:title="read class data with ASCII format">
<polygon fill="white" stroke="black" points="198.5,-152.5 198.5,-171.5 284.5,-171.5 284.5,-152.5 198.5,-152.5"/>
<text text-anchor="middle" x="241.5" y="-159.5" font-family="Helvetica,sans-Serif" font-size="10.00">Ptcl::readAscii</text>
</a>
</g>
</g>
<!-- Node10&#45;&gt;Node12 -->
<g id="edge12" class="edge">
<title>Node10&#45;&gt;Node12</title>
<path fill="none" stroke="midnightblue" d="M363.77,-162C337.11,-162 307.87,-162 284.78,-162"/>
<polygon fill="midnightblue" stroke="midnightblue" points="363.85,-165.5 373.85,-162 363.85,-158.5 363.85,-165.5"/>
</g>
<!-- Node13 -->
<g id="node13" class="node">
<title>Node13</title>
<g id="a_node13"><a xlink:href="classFPSoft.html#a44ddce69cfafffbcd8327837cb0914d2" target="_top" xlink:title=" ">
<polygon fill="white" stroke="black" points="16.5,-152.5 16.5,-171.5 114.5,-171.5 114.5,-152.5 16.5,-152.5"/>
<text text-anchor="middle" x="65.5" y="-159.5" font-family="Helvetica,sans-Serif" font-size="10.00">FPSoft::readAscii</text>
</a>
</g>
</g>
<!-- Node12&#45;&gt;Node13 -->
<g id="edge13" class="edge">
<title>Node12&#45;&gt;Node13</title>
<path fill="none" stroke="midnightblue" d="M188.3,-162C164.93,-162 137.56,-162 114.69,-162"/>
<polygon fill="midnightblue" stroke="midnightblue" points="188.38,-165.5 198.38,-162 188.38,-158.5 188.38,-165.5"/>
</g>
<!-- Node15 -->
<g id="node15" class="node">
<title>Node15</title>
<g id="a_node15"><a xlink:href="classPtcl.html#a2fc333332020231cb337a68f79fdbcdc" target="_top" xlink:title="read class data with BINARY format">
<polygon fill="white" stroke="black" points="194.5,-114.5 194.5,-133.5 288.5,-133.5 288.5,-114.5 194.5,-114.5"/>
<text text-anchor="middle" x="241.5" y="-121.5" font-family="Helvetica,sans-Serif" font-size="10.00">Ptcl::readBinary</text>
</a>
</g>
</g>
<!-- Node14&#45;&gt;Node15 -->
<g id="edge15" class="edge">
<title>Node14&#45;&gt;Node15</title>
<path fill="none" stroke="midnightblue" d="M359.6,-124C335.55,-124 309.8,-124 288.6,-124"/>
<polygon fill="midnightblue" stroke="midnightblue" points="359.79,-127.5 369.79,-124 359.79,-120.5 359.79,-127.5"/>
</g>
<!-- Node16 -->
<g id="node16" class="node">
<title>Node16</title>
<g id="a_node16"><a xlink:href="classFPSoft.html#aaf462c3c8ba17980eb8381a568b92342" target="_top" xlink:title=" ">
<polygon fill="white" stroke="black" points="12,-114.5 12,-133.5 119,-133.5 119,-114.5 12,-114.5"/>
<text text-anchor="middle" x="65.5" y="-121.5" font-family="Helvetica,sans-Serif" font-size="10.00">FPSoft::readBinary</text>
</a>
</g>
</g>
<!-- Node15&#45;&gt;Node16 -->
<g id="edge16" class="edge">
<title>Node15&#45;&gt;Node16</title>
<path fill="none" stroke="midnightblue" d="M184.29,-124C163.34,-124 139.65,-124 119.04,-124"/>
<polygon fill="midnightblue" stroke="midnightblue" points="184.33,-127.5 194.33,-124 184.33,-120.5 184.33,-127.5"/>
</g>
<!-- Node19 -->
<g id="node19" class="node">
<title>Node19</title>
<g id="a_node19"><a xlink:href="classStability.html#af78b60bacc16c71e2c09f36cb4c39834" target="_top" xlink:title="Three&#45;body (B&#45;S) stability check.">
<polygon fill="white" stroke="black" points="374.5,-38.5 374.5,-57.5 501.5,-57.5 501.5,-38.5 374.5,-38.5"/>
<text text-anchor="middle" x="438" y="-45.5" font-family="Helvetica,sans-Serif" font-size="10.00">Stability::stable3check</text>
</a>
</g>
</g>
<!-- Node18&#45;&gt;Node19 -->
<g id="edge19" class="edge">
<title>Node18&#45;&gt;Node19</title>
<path fill="none" stroke="midnightblue" d="M590,-48C561.59,-48 529.09,-48 501.54,-48"/>
<polygon fill="midnightblue" stroke="midnightblue" points="590.27,-51.5 600.27,-48 590.27,-44.5 590.27,-51.5"/>
</g>
<!-- Node22 -->
<g id="node22" class="node">
<title>Node22</title>
<g id="a_node22"><a xlink:href="classStability.html#acb687089da1eb3788a3c320e32855381" target="_top" xlink:title="Four&#45;body (B&#45;B) stability check.">
<polygon fill="white" stroke="black" points="374.5,-0.5 374.5,-19.5 501.5,-19.5 501.5,-0.5 374.5,-0.5"/>
<text text-anchor="middle" x="438" y="-7.5" font-family="Helvetica,sans-Serif" font-size="10.00">Stability::stable4check</text>
</a>
</g>
</g>
<!-- Node18&#45;&gt;Node22 -->
<g id="edge22" class="edge">
<title>Node18&#45;&gt;Node22</title>
<path fill="none" stroke="midnightblue" d="M594.77,-36.72C562.91,-31.26 525.05,-24.76 494.63,-19.54"/>
<polygon fill="midnightblue" stroke="midnightblue" points="594.44,-40.22 604.89,-38.46 595.63,-33.32 594.44,-40.22"/>
</g>
<!-- Node20 -->
<g id="node20" class="node">
<title>Node20</title>
<g id="a_node20"><a xlink:href="classStability.html#a40355024253599fc1df4d7d1c719412a" target="_top" xlink:title="Stability check iteraction function for BinaryTree.">
<polygon fill="white" stroke="black" points="167,-19.5 167,-38.5 316,-38.5 316,-19.5 167,-19.5"/>
<text text-anchor="middle" x="241.5" y="-26.5" font-family="Helvetica,sans-Serif" font-size="10.00">Stability::stabilityCheckIter</text>
</a>
</g>
</g>
<!-- Node19&#45;&gt;Node20 -->
<g id="edge20" class="edge">
<title>Node19&#45;&gt;Node20</title>
<path fill="none" stroke="midnightblue" d="M364.22,-40.89C348.53,-39.36 331.92,-37.73 316.19,-36.2"/>
<polygon fill="midnightblue" stroke="midnightblue" points="364.1,-44.39 374.39,-41.88 364.78,-37.43 364.1,-44.39"/>
</g>
<!-- Node21 -->
<g id="node21" class="node">
<title>Node21</title>
<g id="a_node21"><a xlink:href="classStability.html#a5a905e57057b65f66e778ef3b8070878" target="_top" xlink:title="Check binary tree and collect stable subtree.">
<polygon fill="white" stroke="black" points="0,-19.5 0,-38.5 131,-38.5 131,-19.5 0,-19.5"/>
<text text-anchor="middle" x="65.5" y="-26.5" font-family="Helvetica,sans-Serif" font-size="10.00">Stability::findStableTree</text>
</a>
</g>
</g>
<!-- Node20&#45;&gt;Node21 -->
<g id="edge21" class="edge">
<title>Node20&#45;&gt;Node21</title>
<path fill="none" stroke="midnightblue" d="M156.88,-29C148.26,-29 139.6,-29 131.23,-29"/>
<polygon fill="midnightblue" stroke="midnightblue" points="156.96,-32.5 166.96,-29 156.96,-25.5 156.96,-32.5"/>
</g>
<!-- Node22&#45;&gt;Node20 -->
<g id="edge23" class="edge">
<title>Node22&#45;&gt;Node20</title>
<path fill="none" stroke="midnightblue" d="M364.22,-17.11C348.53,-18.64 331.92,-20.27 316.19,-21.8"/>
<polygon fill="midnightblue" stroke="midnightblue" points="364.78,-20.57 374.39,-16.12 364.1,-13.61 364.78,-20.57"/>
</g>
</g>
</svg>
