<?xml version="1.0" encoding="UTF-8" standalone="no"?>
<!DOCTYPE svg PUBLIC "-//W3C//DTD SVG 1.1//EN"
 "http://www.w3.org/Graphics/SVG/1.1/DTD/svg11.dtd">
<!-- Generated by graphviz version 2.43.0 (0)
 -->
<!-- Title: particle_base.hpp Pages: 1 -->
<svg width="924pt" height="420pt"
 viewBox="0.00 0.00 923.90 420.00" xmlns="http://www.w3.org/2000/svg" xmlns:xlink="http://www.w3.org/1999/xlink">
<g id="graph0" class="graph" transform="scale(1 1) rotate(0) translate(4 416)">
<title>particle_base.hpp</title>
<polygon fill="white" stroke="transparent" points="-4,4 -4,-416 919.9,-416 919.9,4 -4,4"/>
<!-- Node1 -->
<g id="node1" class="node">
<title>Node1</title>
<g id="a_node1"><a xlink:title=" ">
<polygon fill="#bfbfbf" stroke="black" points="318,-392.5 318,-411.5 421,-411.5 421,-392.5 318,-392.5"/>
<text text-anchor="middle" x="369.5" y="-399.5" font-family="Helvetica,sans-Serif" font-size="10.00">particle_base.hpp</text>
</a>
</g>
</g>
<!-- Node2 -->
<g id="node2" class="node">
<title>Node2</title>
<g id="a_node2"><a xlink:href="ptcl_8hpp.html" target="_top" xlink:title=" ">
<polygon fill="white" stroke="black" points="313.5,-336.5 313.5,-355.5 369.5,-355.5 369.5,-336.5 313.5,-336.5"/>
<text text-anchor="middle" x="341.5" y="-343.5" font-family="Helvetica,sans-Serif" font-size="10.00">ptcl.hpp</text>
</a>
</g>
</g>
<!-- Node1&#45;&gt;Node2 -->
<g id="edge1" class="edge">
<title>Node1&#45;&gt;Node2</title>
<path fill="none" stroke="midnightblue" d="M360.16,-382.98C355.41,-373.82 349.84,-363.09 346.04,-355.75"/>
<polygon fill="midnightblue" stroke="midnightblue" points="357.17,-384.82 364.88,-392.08 363.38,-381.59 357.17,-384.82"/>
</g>
<!-- Node18 -->
<g id="node18" class="node">
<title>Node18</title>
<g id="a_node18"><a xlink:href="status_8hpp.html" target="_top" xlink:title=" ">
<polygon fill="white" stroke="black" points="810.5,-168.5 810.5,-187.5 878.5,-187.5 878.5,-168.5 810.5,-168.5"/>
<text text-anchor="middle" x="844.5" y="-175.5" font-family="Helvetica,sans-Serif" font-size="10.00">status.hpp</text>
</a>
</g>
</g>
<!-- Node1&#45;&gt;Node18 -->
<g id="edge31" class="edge">
<title>Node1&#45;&gt;Node18</title>
<path fill="none" stroke="midnightblue" d="M397.1,-388.1C484.47,-347.26 753.51,-221.52 826.23,-187.54"/>
<polygon fill="midnightblue" stroke="midnightblue" points="395.41,-385.03 387.83,-392.43 398.37,-391.37 395.41,-385.03"/>
</g>
<!-- Node3 -->
<g id="node3" class="node">
<title>Node3</title>
<g id="a_node3"><a xlink:href="hard__ptcl_8hpp.html" target="_top" xlink:title=" ">
<polygon fill="white" stroke="black" points="165,-280.5 165,-299.5 248,-299.5 248,-280.5 165,-280.5"/>
<text text-anchor="middle" x="206.5" y="-287.5" font-family="Helvetica,sans-Serif" font-size="10.00">hard_ptcl.hpp</text>
</a>
</g>
</g>
<!-- Node2&#45;&gt;Node3 -->
<g id="edge2" class="edge">
<title>Node2&#45;&gt;Node3</title>
<path fill="none" stroke="midnightblue" d="M310.59,-332.64C285.26,-322.5 250.07,-308.43 227.79,-299.52"/>
<polygon fill="midnightblue" stroke="midnightblue" points="309.52,-335.98 320.11,-336.44 312.12,-329.48 309.52,-335.98"/>
</g>
<!-- Node12 -->
<g id="node12" class="node">
<title>Node12</title>
<g id="a_node12"><a xlink:href="cluster__list_8hpp.html" target="_top" xlink:title=" ">
<polygon fill="white" stroke="black" points="116,-112.5 116,-131.5 207,-131.5 207,-112.5 116,-112.5"/>
<text text-anchor="middle" x="161.5" y="-119.5" font-family="Helvetica,sans-Serif" font-size="10.00">cluster_list.hpp</text>
</a>
</g>
</g>
<!-- Node2&#45;&gt;Node12 -->
<g id="edge17" class="edge">
<title>Node2&#45;&gt;Node12</title>
<path fill="none" stroke="midnightblue" d="M330.55,-328.06C309.22,-295.57 259.83,-222.84 210.5,-168 198.3,-154.43 182.49,-140.47 172.18,-131.77"/>
<polygon fill="midnightblue" stroke="midnightblue" points="327.63,-329.99 336.02,-336.45 333.49,-326.16 327.63,-329.99"/>
</g>
<!-- Node13 -->
<g id="node13" class="node">
<title>Node13</title>
<g id="a_node13"><a xlink:href="soft__ptcl_8hpp.html" target="_top" xlink:title=" ">
<polygon fill="white" stroke="black" points="415,-168.5 415,-187.5 494,-187.5 494,-168.5 415,-168.5"/>
<text text-anchor="middle" x="454.5" y="-175.5" font-family="Helvetica,sans-Serif" font-size="10.00">soft_ptcl.hpp</text>
</a>
</g>
</g>
<!-- Node2&#45;&gt;Node13 -->
<g id="edge21" class="edge">
<title>Node2&#45;&gt;Node13</title>
<path fill="none" stroke="midnightblue" d="M346.13,-326.53C353.15,-301.33 368.37,-255.68 393.5,-224 405.85,-208.43 424.85,-195.57 438.36,-187.64"/>
<polygon fill="midnightblue" stroke="midnightblue" points="342.73,-325.7 343.55,-336.26 349.5,-327.5 342.73,-325.7"/>
</g>
<!-- Node4 -->
<g id="node4" class="node">
<title>Node4</title>
<g id="a_node4"><a xlink:href="ar__interaction_8hpp.html" target="_top" xlink:title=" ">
<polygon fill="white" stroke="black" points="96,-168.5 96,-187.5 201,-187.5 201,-168.5 96,-168.5"/>
<text text-anchor="middle" x="148.5" y="-175.5" font-family="Helvetica,sans-Serif" font-size="10.00">ar_interaction.hpp</text>
</a>
</g>
</g>
<!-- Node3&#45;&gt;Node4 -->
<g id="edge3" class="edge">
<title>Node3&#45;&gt;Node4</title>
<path fill="none" stroke="midnightblue" d="M203.22,-270.14C200.37,-256.7 195.42,-238.52 187.5,-224 179.78,-209.84 166.99,-196.23 158.17,-187.75"/>
<polygon fill="midnightblue" stroke="midnightblue" points="199.82,-270.97 205.15,-280.13 206.69,-269.65 199.82,-270.97"/>
</g>
<!-- Node5 -->
<g id="node5" class="node">
<title>Node5</title>
<g id="a_node5"><a xlink:href="hard_8hpp.html" target="_top" xlink:title=" ">
<polygon fill="white" stroke="black" points="0,-112.5 0,-131.5 59,-131.5 59,-112.5 0,-112.5"/>
<text text-anchor="middle" x="29.5" y="-119.5" font-family="Helvetica,sans-Serif" font-size="10.00">hard.hpp</text>
</a>
</g>
</g>
<!-- Node3&#45;&gt;Node5 -->
<g id="edge12" class="edge">
<title>Node3&#45;&gt;Node5</title>
<path fill="none" stroke="midnightblue" d="M155.01,-282.74C127.37,-276.92 94.56,-265.68 72.5,-244 39.9,-211.97 31.94,-153.65 30.06,-131.68"/>
<polygon fill="midnightblue" stroke="midnightblue" points="154.44,-286.2 164.92,-284.65 155.77,-279.32 154.44,-286.2"/>
</g>
<!-- Node10 -->
<g id="node10" class="node">
<title>Node10</title>
<g id="a_node10"><a xlink:href="ar__perturber_8hpp.html" target="_top" xlink:title=" ">
<polygon fill="white" stroke="black" points="81,-224.5 81,-243.5 178,-243.5 178,-224.5 81,-224.5"/>
<text text-anchor="middle" x="129.5" y="-231.5" font-family="Helvetica,sans-Serif" font-size="10.00">ar_perturber.hpp</text>
</a>
</g>
</g>
<!-- Node3&#45;&gt;Node10 -->
<g id="edge9" class="edge">
<title>Node3&#45;&gt;Node10</title>
<path fill="none" stroke="midnightblue" d="M185.6,-274.34C171.59,-264.52 153.62,-251.91 141.84,-243.65"/>
<polygon fill="midnightblue" stroke="midnightblue" points="183.93,-277.45 194.13,-280.32 187.95,-271.72 183.93,-277.45"/>
</g>
<!-- Node11 -->
<g id="node11" class="node">
<title>Node11</title>
<g id="a_node11"><a xlink:href="hard__assert_8hpp.html" target="_top" xlink:title=" ">
<polygon fill="white" stroke="black" points="225,-112.5 225,-131.5 320,-131.5 320,-112.5 225,-112.5"/>
<text text-anchor="middle" x="272.5" y="-119.5" font-family="Helvetica,sans-Serif" font-size="10.00">hard_assert.hpp</text>
</a>
</g>
</g>
<!-- Node3&#45;&gt;Node11 -->
<g id="edge13" class="edge">
<title>Node3&#45;&gt;Node11</title>
<path fill="none" stroke="midnightblue" d="M213.9,-270.39C228.13,-234.59 258.85,-157.34 269.09,-131.57"/>
<polygon fill="midnightblue" stroke="midnightblue" points="210.49,-269.49 210.05,-280.08 217,-272.08 210.49,-269.49"/>
</g>
<!-- Node4&#45;&gt;Node5 -->
<g id="edge4" class="edge">
<title>Node4&#45;&gt;Node5</title>
<path fill="none" stroke="midnightblue" d="M120.36,-164.23C98.1,-154.13 67.64,-140.31 48.27,-131.52"/>
<polygon fill="midnightblue" stroke="midnightblue" points="119.09,-167.5 129.64,-168.44 121.98,-161.12 119.09,-167.5"/>
</g>
<!-- Node6 -->
<g id="node6" class="node">
<title>Node6</title>
<g id="a_node6"><a xlink:href="hard__debug_8cxx.html" target="_top" xlink:title=" ">
<polygon fill="white" stroke="black" points="147.5,-56.5 147.5,-75.5 241.5,-75.5 241.5,-56.5 147.5,-56.5"/>
<text text-anchor="middle" x="194.5" y="-63.5" font-family="Helvetica,sans-Serif" font-size="10.00">hard_debug.cxx</text>
</a>
</g>
</g>
<!-- Node5&#45;&gt;Node6 -->
<g id="edge5" class="edge">
<title>Node5&#45;&gt;Node6</title>
<path fill="none" stroke="midnightblue" d="M65.24,-109.3C96.33,-99.13 140.65,-84.62 168.48,-75.52"/>
<polygon fill="midnightblue" stroke="midnightblue" points="64.06,-106.01 55.64,-112.44 66.24,-112.66 64.06,-106.01"/>
</g>
<!-- Node7 -->
<g id="node7" class="node">
<title>Node7</title>
<g id="a_node7"><a xlink:href="hard__test_8cxx.html" target="_top" xlink:title=" ">
<polygon fill="white" stroke="black" points="46,-56.5 46,-75.5 129,-75.5 129,-56.5 46,-56.5"/>
<text text-anchor="middle" x="87.5" y="-63.5" font-family="Helvetica,sans-Serif" font-size="10.00">hard_test.cxx</text>
</a>
</g>
</g>
<!-- Node5&#45;&gt;Node7 -->
<g id="edge6" class="edge">
<title>Node5&#45;&gt;Node7</title>
<path fill="none" stroke="midnightblue" d="M46.41,-105.25C56.7,-95.67 69.47,-83.79 78.01,-75.83"/>
<polygon fill="midnightblue" stroke="midnightblue" points="43.75,-102.95 38.82,-112.32 48.52,-108.07 43.75,-102.95"/>
</g>
<!-- Node8 -->
<g id="node8" class="node">
<title>Node8</title>
<g id="a_node8"><a xlink:href="petar_8hpp.html" target="_top" xlink:title=" ">
<polygon fill="white" stroke="black" points="259.5,-56.5 259.5,-75.5 321.5,-75.5 321.5,-56.5 259.5,-56.5"/>
<text text-anchor="middle" x="290.5" y="-63.5" font-family="Helvetica,sans-Serif" font-size="10.00">petar.hpp</text>
</a>
</g>
</g>
<!-- Node5&#45;&gt;Node8 -->
<g id="edge7" class="edge">
<title>Node5&#45;&gt;Node8</title>
<path fill="none" stroke="midnightblue" d="M69.27,-113.16C113.56,-104.36 187.23,-89.56 250.5,-76 253.28,-75.4 256.17,-74.77 259.07,-74.14"/>
<polygon fill="midnightblue" stroke="midnightblue" points="68.34,-109.77 59.21,-115.15 69.7,-116.64 68.34,-109.77"/>
</g>
<!-- Node9 -->
<g id="node9" class="node">
<title>Node9</title>
<g id="a_node9"><a xlink:href="main_8cc.html" target="_top" xlink:title=" ">
<polygon fill="white" stroke="black" points="263,-0.5 263,-19.5 318,-19.5 318,-0.5 263,-0.5"/>
<text text-anchor="middle" x="290.5" y="-7.5" font-family="Helvetica,sans-Serif" font-size="10.00">main.cc</text>
</a>
</g>
</g>
<!-- Node8&#45;&gt;Node9 -->
<g id="edge8" class="edge">
<title>Node8&#45;&gt;Node9</title>
<path fill="none" stroke="midnightblue" d="M290.5,-45.8C290.5,-36.91 290.5,-26.78 290.5,-19.75"/>
<polygon fill="midnightblue" stroke="midnightblue" points="287,-46.08 290.5,-56.08 294,-46.08 287,-46.08"/>
</g>
<!-- Node10&#45;&gt;Node4 -->
<g id="edge10" class="edge">
<title>Node10&#45;&gt;Node4</title>
<path fill="none" stroke="midnightblue" d="M136.05,-214.4C139.22,-205.36 142.89,-194.94 145.42,-187.75"/>
<polygon fill="midnightblue" stroke="midnightblue" points="132.65,-213.49 132.64,-224.08 139.26,-215.81 132.65,-213.49"/>
</g>
<!-- Node10&#45;&gt;Node5 -->
<g id="edge11" class="edge">
<title>Node10&#45;&gt;Node5</title>
<path fill="none" stroke="midnightblue" d="M113.96,-217.07C105.71,-208.53 95.46,-197.78 86.5,-188 68.26,-168.07 47.49,-144.03 36.76,-131.52"/>
<polygon fill="midnightblue" stroke="midnightblue" points="111.67,-219.74 121.15,-224.48 116.69,-214.86 111.67,-219.74"/>
</g>
<!-- Node11&#45;&gt;Node6 -->
<g id="edge14" class="edge">
<title>Node11&#45;&gt;Node6</title>
<path fill="none" stroke="midnightblue" d="M251.73,-106.62C237.48,-96.76 219.04,-83.99 207,-75.65"/>
<polygon fill="midnightblue" stroke="midnightblue" points="249.75,-109.51 259.97,-112.32 253.74,-103.75 249.75,-109.51"/>
</g>
<!-- Node11&#45;&gt;Node7 -->
<g id="edge15" class="edge">
<title>Node11&#45;&gt;Node7</title>
<path fill="none" stroke="midnightblue" d="M233.33,-109.57C198.43,-99.38 148.15,-84.7 116.68,-75.52"/>
<polygon fill="midnightblue" stroke="midnightblue" points="232.61,-113 243.19,-112.44 234.57,-106.28 232.61,-113"/>
</g>
<!-- Node11&#45;&gt;Node8 -->
<g id="edge16" class="edge">
<title>Node11&#45;&gt;Node8</title>
<path fill="none" stroke="midnightblue" d="M278.7,-102.4C281.71,-93.36 285.19,-82.94 287.58,-75.75"/>
<polygon fill="midnightblue" stroke="midnightblue" points="275.31,-101.49 275.47,-112.08 281.96,-103.7 275.31,-101.49"/>
</g>
<!-- Node12&#45;&gt;Node6 -->
<g id="edge18" class="edge">
<title>Node12&#45;&gt;Node6</title>
<path fill="none" stroke="midnightblue" d="M172.33,-103.27C177.97,-94.05 184.62,-83.17 189.15,-75.75"/>
<polygon fill="midnightblue" stroke="midnightblue" points="169.18,-101.73 166.95,-112.08 175.15,-105.38 169.18,-101.73"/>
</g>
<!-- Node12&#45;&gt;Node7 -->
<g id="edge19" class="edge">
<title>Node12&#45;&gt;Node7</title>
<path fill="none" stroke="midnightblue" d="M141.47,-106.38C128.09,-96.62 110.94,-84.11 99.61,-75.83"/>
<polygon fill="midnightblue" stroke="midnightblue" points="139.47,-109.26 149.61,-112.32 143.6,-103.6 139.47,-109.26"/>
</g>
<!-- Node12&#45;&gt;Node8 -->
<g id="edge20" class="edge">
<title>Node12&#45;&gt;Node8</title>
<path fill="none" stroke="midnightblue" d="M191.35,-108.5C215.54,-98.38 248.96,-84.39 270.16,-75.52"/>
<polygon fill="midnightblue" stroke="midnightblue" points="189.81,-105.35 181.94,-112.44 192.52,-111.81 189.81,-105.35"/>
</g>
<!-- Node13&#45;&gt;Node5 -->
<g id="edge24" class="edge">
<title>Node13&#45;&gt;Node5</title>
<path fill="none" stroke="midnightblue" d="M404.59,-172.46C331.62,-165.51 191.64,-151.03 73.5,-132 68.88,-131.26 64.01,-130.37 59.26,-129.44"/>
<polygon fill="midnightblue" stroke="midnightblue" points="404.57,-175.97 414.86,-173.43 405.23,-169 404.57,-175.97"/>
</g>
<!-- Node13&#45;&gt;Node6 -->
<g id="edge26" class="edge">
<title>Node13&#45;&gt;Node6</title>
<path fill="none" stroke="midnightblue" d="M504.18,-175.26C569.18,-171.81 677.74,-161.65 702.5,-132 708.2,-125.18 708.53,-118.53 702.5,-112 668.32,-74.99 300.52,-82 250.5,-76 247.57,-75.65 244.55,-75.26 241.52,-74.84"/>
<polygon fill="midnightblue" stroke="midnightblue" points="503.95,-171.76 494.14,-175.75 504.3,-178.75 503.95,-171.76"/>
</g>
<!-- Node13&#45;&gt;Node7 -->
<g id="edge27" class="edge">
<title>Node13&#45;&gt;Node7</title>
<path fill="none" stroke="midnightblue" d="M404.81,-176.97C319.81,-175.91 151.41,-169.03 107.5,-132 90.71,-117.84 87.76,-89.94 87.4,-75.75"/>
<polygon fill="midnightblue" stroke="midnightblue" points="404.96,-180.48 414.99,-177.08 405.03,-173.48 404.96,-180.48"/>
</g>
<!-- Node13&#45;&gt;Node8 -->
<g id="edge28" class="edge">
<title>Node13&#45;&gt;Node8</title>
<path fill="none" stroke="midnightblue" d="M504.28,-176.46C576.88,-174.51 706.36,-166.18 735.5,-132 741.27,-125.24 741.46,-118.59 735.5,-112 707.77,-81.33 418.12,-70.54 321.6,-67.79"/>
<polygon fill="midnightblue" stroke="midnightblue" points="503.92,-172.97 494,-176.71 504.08,-179.97 503.92,-172.97"/>
</g>
<!-- Node13&#45;&gt;Node11 -->
<g id="edge25" class="edge">
<title>Node13&#45;&gt;Node11</title>
<path fill="none" stroke="midnightblue" d="M415.97,-165.57C381.64,-155.38 332.17,-140.7 301.2,-131.52"/>
<polygon fill="midnightblue" stroke="midnightblue" points="415.08,-168.95 425.66,-168.44 417.07,-162.24 415.08,-168.95"/>
</g>
<!-- Node14 -->
<g id="node14" class="node">
<title>Node14</title>
<g id="a_node14"><a xlink:href="force__gpu__cuda_8hpp.html" target="_top" xlink:title=" ">
<polygon fill="white" stroke="black" points="338.5,-112.5 338.5,-131.5 452.5,-131.5 452.5,-112.5 338.5,-112.5"/>
<text text-anchor="middle" x="395.5" y="-119.5" font-family="Helvetica,sans-Serif" font-size="10.00">force_gpu_cuda.hpp</text>
</a>
</g>
</g>
<!-- Node13&#45;&gt;Node14 -->
<g id="edge22" class="edge">
<title>Node13&#45;&gt;Node14</title>
<path fill="none" stroke="midnightblue" d="M437.61,-161.54C427.09,-151.91 413.93,-139.87 405.15,-131.83"/>
<polygon fill="midnightblue" stroke="midnightblue" points="435.28,-164.15 445.02,-168.32 440.01,-158.99 435.28,-164.15"/>
</g>
<!-- Node15 -->
<g id="node15" class="node">
<title>Node15</title>
<g id="a_node15"><a xlink:href="format__transfer_8cxx.html" target="_top" xlink:title=" ">
<polygon fill="white" stroke="black" points="788,-112.5 788,-131.5 901,-131.5 901,-112.5 788,-112.5"/>
<text text-anchor="middle" x="844.5" y="-119.5" font-family="Helvetica,sans-Serif" font-size="10.00">format_transfer.cxx</text>
</a>
</g>
</g>
<!-- Node13&#45;&gt;Node15 -->
<g id="edge23" class="edge">
<title>Node13&#45;&gt;Node15</title>
<path fill="none" stroke="midnightblue" d="M504.3,-170.11C576.95,-160.05 711.64,-141.4 787.94,-130.83"/>
<polygon fill="midnightblue" stroke="midnightblue" points="503.47,-166.69 494.04,-171.53 504.43,-173.62 503.47,-166.69"/>
</g>
<!-- Node16 -->
<g id="node16" class="node">
<title>Node16</title>
<g id="a_node16"><a xlink:href="simd__test_8cxx.html" target="_top" xlink:title=" ">
<polygon fill="white" stroke="black" points="471,-112.5 471,-131.5 556,-131.5 556,-112.5 471,-112.5"/>
<text text-anchor="middle" x="513.5" y="-119.5" font-family="Helvetica,sans-Serif" font-size="10.00">simd_test.cxx</text>
</a>
</g>
</g>
<!-- Node13&#45;&gt;Node16 -->
<g id="edge29" class="edge">
<title>Node13&#45;&gt;Node16</title>
<path fill="none" stroke="midnightblue" d="M471.39,-161.54C481.91,-151.91 495.07,-139.87 503.85,-131.83"/>
<polygon fill="midnightblue" stroke="midnightblue" points="468.99,-158.99 463.98,-168.32 473.72,-164.15 468.99,-158.99"/>
</g>
<!-- Node17 -->
<g id="node17" class="node">
<title>Node17</title>
<g id="a_node17"><a xlink:href="tidal__tensor__test_8cxx.html" target="_top" xlink:title=" ">
<polygon fill="white" stroke="black" points="574,-112.5 574,-131.5 693,-131.5 693,-112.5 574,-112.5"/>
<text text-anchor="middle" x="633.5" y="-119.5" font-family="Helvetica,sans-Serif" font-size="10.00">tidal_tensor_test.cxx</text>
</a>
</g>
</g>
<!-- Node13&#45;&gt;Node17 -->
<g id="edge30" class="edge">
<title>Node13&#45;&gt;Node17</title>
<path fill="none" stroke="midnightblue" d="M492.83,-165.44C526.58,-155.26 574.95,-140.66 605.27,-131.52"/>
<polygon fill="midnightblue" stroke="midnightblue" points="491.43,-162.2 482.86,-168.44 493.45,-168.91 491.43,-162.2"/>
</g>
<!-- Node18&#45;&gt;Node8 -->
<g id="edge33" class="edge">
<title>Node18&#45;&gt;Node8</title>
<path fill="none" stroke="midnightblue" d="M873.8,-163.86C898.67,-150.96 927.79,-130.59 910.5,-112 870.12,-68.58 442.22,-66.55 321.85,-66.84"/>
<polygon fill="midnightblue" stroke="midnightblue" points="871.99,-160.84 864.58,-168.41 875.09,-167.12 871.99,-160.84"/>
</g>
<!-- Node18&#45;&gt;Node15 -->
<g id="edge32" class="edge">
<title>Node18&#45;&gt;Node15</title>
<path fill="none" stroke="midnightblue" d="M844.5,-157.8C844.5,-148.91 844.5,-138.78 844.5,-131.75"/>
<polygon fill="midnightblue" stroke="midnightblue" points="841,-158.08 844.5,-168.08 848,-158.08 841,-158.08"/>
</g>
</g>
</svg>
