<?xml version="1.0" encoding="UTF-8" standalone="no"?>
<!DOCTYPE svg PUBLIC "-//W3C//DTD SVG 1.1//EN"
 "http://www.w3.org/Graphics/SVG/1.1/DTD/svg11.dtd">
<!-- Generated by graphviz version 2.43.0 (0)
 -->
<!-- Title: phantomquad_for_p3t_x86.hpp Pages: 1 -->
<svg width="152pt" height="95pt"
 viewBox="0.00 0.00 152.00 95.00" xmlns="http://www.w3.org/2000/svg" xmlns:xlink="http://www.w3.org/1999/xlink">
<g id="graph0" class="graph" transform="scale(1 1) rotate(0) translate(4 91)">
<title>phantomquad_for_p3t_x86.hpp</title>
<polygon fill="white" stroke="transparent" points="-4,4 -4,-91 148,-91 148,4 -4,4"/>
<!-- Node1 -->
<g id="node1" class="node">
<title>Node1</title>
<g id="a_node1"><a xlink:title=" ">
<polygon fill="#bfbfbf" stroke="black" points="4,-56.5 4,-86.5 128,-86.5 128,-56.5 4,-56.5"/>
<text text-anchor="start" x="12" y="-74.5" font-family="Helvetica,sans-Serif" font-size="10.00">phantomquad_for_p3t</text>
<text text-anchor="middle" x="66" y="-63.5" font-family="Helvetica,sans-Serif" font-size="10.00">_x86.hpp</text>
</a>
</g>
</g>
<!-- Node2 -->
<g id="node2" class="node">
<title>Node2</title>
<g id="a_node2"><a xlink:title=" ">
<polygon fill="white" stroke="#bfbfbf" points="0,-0.5 0,-19.5 52,-19.5 52,-0.5 0,-0.5"/>
<text text-anchor="middle" x="26" y="-7.5" font-family="Helvetica,sans-Serif" font-size="10.00">cassert</text>
</a>
</g>
</g>
<!-- Node1&#45;&gt;Node2 -->
<g id="edge1" class="edge">
<title>Node1&#45;&gt;Node2</title>
<path fill="none" stroke="midnightblue" d="M56.52,-56.4C50.83,-47.93 43.55,-37.1 37.52,-28.14"/>
<polygon fill="midnightblue" stroke="midnightblue" points="40.3,-26 31.82,-19.66 34.49,-29.91 40.3,-26"/>
</g>
<!-- Node3 -->
<g id="node3" class="node">
<title>Node3</title>
<g id="a_node3"><a xlink:title=" ">
<polygon fill="white" stroke="#bfbfbf" points="70,-0.5 70,-19.5 144,-19.5 144,-0.5 70,-0.5"/>
<text text-anchor="middle" x="107" y="-7.5" font-family="Helvetica,sans-Serif" font-size="10.00">immintrin.h</text>
</a>
</g>
</g>
<!-- Node1&#45;&gt;Node3 -->
<g id="edge2" class="edge">
<title>Node1&#45;&gt;Node3</title>
<path fill="none" stroke="midnightblue" d="M75.72,-56.4C81.55,-47.93 89.02,-37.1 95.19,-28.14"/>
<polygon fill="midnightblue" stroke="midnightblue" points="98.24,-29.88 101.03,-19.66 92.48,-25.91 98.24,-29.88"/>
</g>
</g>
</svg>
