<?xml version="1.0" encoding="UTF-8" standalone="no"?>
<!DOCTYPE svg PUBLIC "-//W3C//DTD SVG 1.1//EN"
 "http://www.w3.org/Graphics/SVG/1.1/DTD/svg11.dtd">
<!-- Generated by graphviz version 2.43.0 (0)
 -->
<!-- Title: ptcl.hpp Pages: 1 -->
<svg width="920pt" height="364pt"
 viewBox="0.00 0.00 920.32 364.00" xmlns="http://www.w3.org/2000/svg" xmlns:xlink="http://www.w3.org/1999/xlink">
<g id="graph0" class="graph" transform="scale(1 1) rotate(0) translate(4 360)">
<title>ptcl.hpp</title>
<polygon fill="white" stroke="transparent" points="-4,4 -4,-360 916.32,-360 916.32,4 -4,4"/>
<!-- Node1 -->
<g id="node1" class="node">
<title>Node1</title>
<g id="a_node1"><a xlink:title=" ">
<polygon fill="#bfbfbf" stroke="black" points="538.47,-336.5 538.47,-355.5 594.47,-355.5 594.47,-336.5 538.47,-336.5"/>
<text text-anchor="middle" x="566.47" y="-343.5" font-family="Helvetica,sans-Serif" font-size="10.00">ptcl.hpp</text>
</a>
</g>
</g>
<!-- Node2 -->
<g id="node2" class="node">
<title>Node2</title>
<g id="a_node2"><a xlink:href="hard__ptcl_8hpp.html" target="_top" xlink:title=" ">
<polygon fill="white" stroke="black" points="738.97,-280.5 738.97,-299.5 821.97,-299.5 821.97,-280.5 738.97,-280.5"/>
<text text-anchor="middle" x="780.47" y="-287.5" font-family="Helvetica,sans-Serif" font-size="10.00">hard_ptcl.hpp</text>
</a>
</g>
</g>
<!-- Node1&#45;&gt;Node2 -->
<g id="edge1" class="edge">
<title>Node1&#45;&gt;Node2</title>
<path fill="none" stroke="midnightblue" d="M604.62,-335.37C644.97,-325.19 708.01,-309.28 746.63,-299.54"/>
<polygon fill="midnightblue" stroke="midnightblue" points="603.72,-331.99 594.88,-337.83 605.44,-338.78 603.72,-331.99"/>
</g>
<!-- Node11 -->
<g id="node11" class="node">
<title>Node11</title>
<g id="a_node11"><a xlink:href="cluster__list_8hpp.html" target="_top" xlink:title=" ">
<polygon fill="white" stroke="black" points="13.97,-112.5 13.97,-131.5 104.97,-131.5 104.97,-112.5 13.97,-112.5"/>
<text text-anchor="middle" x="59.47" y="-119.5" font-family="Helvetica,sans-Serif" font-size="10.00">cluster_list.hpp</text>
</a>
</g>
</g>
<!-- Node1&#45;&gt;Node11 -->
<g id="edge16" class="edge">
<title>Node1&#45;&gt;Node11</title>
<path fill="none" stroke="midnightblue" d="M537.57,-332.35C444.91,-291.78 156.74,-165.59 78.97,-131.54"/>
<polygon fill="midnightblue" stroke="midnightblue" points="536.34,-335.63 546.9,-336.43 539.15,-329.22 536.34,-335.63"/>
</g>
<!-- Node12 -->
<g id="node12" class="node">
<title>Node12</title>
<g id="a_node12"><a xlink:href="soft__ptcl_8hpp.html" target="_top" xlink:title=" ">
<polygon fill="white" stroke="black" points="526.97,-168.5 526.97,-187.5 605.97,-187.5 605.97,-168.5 526.97,-168.5"/>
<text text-anchor="middle" x="566.47" y="-175.5" font-family="Helvetica,sans-Serif" font-size="10.00">soft_ptcl.hpp</text>
</a>
</g>
</g>
<!-- Node1&#45;&gt;Node12 -->
<g id="edge20" class="edge">
<title>Node1&#45;&gt;Node12</title>
<path fill="none" stroke="midnightblue" d="M566.47,-325.93C566.47,-289.92 566.47,-213.23 566.47,-187.57"/>
<polygon fill="midnightblue" stroke="midnightblue" points="562.97,-326.08 566.47,-336.08 569.97,-326.08 562.97,-326.08"/>
</g>
<!-- Node3 -->
<g id="node3" class="node">
<title>Node3</title>
<g id="a_node3"><a xlink:href="ar__interaction_8hpp.html" target="_top" xlink:title=" ">
<polygon fill="white" stroke="black" points="794.97,-168.5 794.97,-187.5 899.97,-187.5 899.97,-168.5 794.97,-168.5"/>
<text text-anchor="middle" x="847.47" y="-175.5" font-family="Helvetica,sans-Serif" font-size="10.00">ar_interaction.hpp</text>
</a>
</g>
</g>
<!-- Node2&#45;&gt;Node3 -->
<g id="edge2" class="edge">
<title>Node2&#45;&gt;Node3</title>
<path fill="none" stroke="midnightblue" d="M806.31,-275.21C818.04,-267.59 830.94,-257.01 838.47,-244 848.85,-226.05 849.02,-200.77 848.25,-187.65"/>
<polygon fill="midnightblue" stroke="midnightblue" points="804.41,-272.27 797.68,-280.45 808.05,-278.25 804.41,-272.27"/>
</g>
<!-- Node4 -->
<g id="node4" class="node">
<title>Node4</title>
<g id="a_node4"><a xlink:href="hard_8hpp.html" target="_top" xlink:title=" ">
<polygon fill="white" stroke="black" points="817.97,-112.5 817.97,-131.5 876.97,-131.5 876.97,-112.5 817.97,-112.5"/>
<text text-anchor="middle" x="847.47" y="-119.5" font-family="Helvetica,sans-Serif" font-size="10.00">hard.hpp</text>
</a>
</g>
</g>
<!-- Node2&#45;&gt;Node4 -->
<g id="edge11" class="edge">
<title>Node2&#45;&gt;Node4</title>
<path fill="none" stroke="midnightblue" d="M811.42,-276.14C843.69,-260.71 891.96,-231.38 909.47,-188 912.79,-179.76 913.5,-175.92 909.47,-168 900.77,-150.94 882.24,-138.83 867.69,-131.51"/>
<polygon fill="midnightblue" stroke="midnightblue" points="809.6,-273.13 801.97,-280.48 812.52,-279.49 809.6,-273.13"/>
</g>
<!-- Node9 -->
<g id="node9" class="node">
<title>Node9</title>
<g id="a_node9"><a xlink:href="ar__perturber_8hpp.html" target="_top" xlink:title=" ">
<polygon fill="white" stroke="black" points="731.97,-224.5 731.97,-243.5 828.97,-243.5 828.97,-224.5 731.97,-224.5"/>
<text text-anchor="middle" x="780.47" y="-231.5" font-family="Helvetica,sans-Serif" font-size="10.00">ar_perturber.hpp</text>
</a>
</g>
</g>
<!-- Node2&#45;&gt;Node9 -->
<g id="edge8" class="edge">
<title>Node2&#45;&gt;Node9</title>
<path fill="none" stroke="midnightblue" d="M780.47,-269.8C780.47,-260.91 780.47,-250.78 780.47,-243.75"/>
<polygon fill="midnightblue" stroke="midnightblue" points="776.97,-270.08 780.47,-280.08 783.97,-270.08 776.97,-270.08"/>
</g>
<!-- Node10 -->
<g id="node10" class="node">
<title>Node10</title>
<g id="a_node10"><a xlink:href="hard__assert_8hpp.html" target="_top" xlink:title=" ">
<polygon fill="white" stroke="black" points="665.97,-112.5 665.97,-131.5 760.97,-131.5 760.97,-112.5 665.97,-112.5"/>
<text text-anchor="middle" x="713.47" y="-119.5" font-family="Helvetica,sans-Serif" font-size="10.00">hard_assert.hpp</text>
</a>
</g>
</g>
<!-- Node2&#45;&gt;Node10 -->
<g id="edge12" class="edge">
<title>Node2&#45;&gt;Node10</title>
<path fill="none" stroke="midnightblue" d="M754.17,-274.91C742.73,-267.33 730.38,-256.89 723.47,-244 703.24,-206.3 708.8,-152.3 711.97,-131.56"/>
<polygon fill="midnightblue" stroke="midnightblue" points="752.68,-278.1 763.03,-280.36 756.35,-272.13 752.68,-278.1"/>
</g>
<!-- Node3&#45;&gt;Node4 -->
<g id="edge3" class="edge">
<title>Node3&#45;&gt;Node4</title>
<path fill="none" stroke="midnightblue" d="M847.47,-157.8C847.47,-148.91 847.47,-138.78 847.47,-131.75"/>
<polygon fill="midnightblue" stroke="midnightblue" points="843.97,-158.08 847.47,-168.08 850.97,-158.08 843.97,-158.08"/>
</g>
<!-- Node5 -->
<g id="node5" class="node">
<title>Node5</title>
<g id="a_node5"><a xlink:href="hard__debug_8cxx.html" target="_top" xlink:title=" ">
<polygon fill="white" stroke="black" points="263.47,-56.5 263.47,-75.5 357.47,-75.5 357.47,-56.5 263.47,-56.5"/>
<text text-anchor="middle" x="310.47" y="-63.5" font-family="Helvetica,sans-Serif" font-size="10.00">hard_debug.cxx</text>
</a>
</g>
</g>
<!-- Node4&#45;&gt;Node5 -->
<g id="edge4" class="edge">
<title>Node4&#45;&gt;Node5</title>
<path fill="none" stroke="midnightblue" d="M807.71,-116.21C795.75,-114.81 782.58,-113.3 770.47,-112 619.68,-95.81 440.81,-79 357.51,-71.31"/>
<polygon fill="midnightblue" stroke="midnightblue" points="807.52,-119.71 817.86,-117.41 808.34,-112.76 807.52,-119.71"/>
</g>
<!-- Node6 -->
<g id="node6" class="node">
<title>Node6</title>
<g id="a_node6"><a xlink:href="hard__test_8cxx.html" target="_top" xlink:title=" ">
<polygon fill="white" stroke="black" points="610.97,-56.5 610.97,-75.5 693.97,-75.5 693.97,-56.5 610.97,-56.5"/>
<text text-anchor="middle" x="652.47" y="-63.5" font-family="Helvetica,sans-Serif" font-size="10.00">hard_test.cxx</text>
</a>
</g>
</g>
<!-- Node4&#45;&gt;Node6 -->
<g id="edge5" class="edge">
<title>Node4&#45;&gt;Node6</title>
<path fill="none" stroke="midnightblue" d="M807.96,-110.06C771.16,-99.87 717.05,-84.88 683.33,-75.55"/>
<polygon fill="midnightblue" stroke="midnightblue" points="807.28,-113.5 817.85,-112.8 809.15,-106.76 807.28,-113.5"/>
</g>
<!-- Node7 -->
<g id="node7" class="node">
<title>Node7</title>
<g id="a_node7"><a xlink:href="petar_8hpp.html" target="_top" xlink:title=" ">
<polygon fill="white" stroke="black" points="742.47,-56.5 742.47,-75.5 804.47,-75.5 804.47,-56.5 742.47,-56.5"/>
<text text-anchor="middle" x="773.47" y="-63.5" font-family="Helvetica,sans-Serif" font-size="10.00">petar.hpp</text>
</a>
</g>
</g>
<!-- Node4&#45;&gt;Node7 -->
<g id="edge6" class="edge">
<title>Node4&#45;&gt;Node7</title>
<path fill="none" stroke="midnightblue" d="M827.43,-106.38C814.06,-96.62 796.91,-84.11 785.57,-75.83"/>
<polygon fill="midnightblue" stroke="midnightblue" points="825.44,-109.26 835.58,-112.32 829.56,-103.6 825.44,-109.26"/>
</g>
<!-- Node8 -->
<g id="node8" class="node">
<title>Node8</title>
<g id="a_node8"><a xlink:href="main_8cc.html" target="_top" xlink:title=" ">
<polygon fill="white" stroke="black" points="745.97,-0.5 745.97,-19.5 800.97,-19.5 800.97,-0.5 745.97,-0.5"/>
<text text-anchor="middle" x="773.47" y="-7.5" font-family="Helvetica,sans-Serif" font-size="10.00">main.cc</text>
</a>
</g>
</g>
<!-- Node7&#45;&gt;Node8 -->
<g id="edge7" class="edge">
<title>Node7&#45;&gt;Node8</title>
<path fill="none" stroke="midnightblue" d="M773.47,-45.8C773.47,-36.91 773.47,-26.78 773.47,-19.75"/>
<polygon fill="midnightblue" stroke="midnightblue" points="769.97,-46.08 773.47,-56.08 776.97,-46.08 769.97,-46.08"/>
</g>
<!-- Node9&#45;&gt;Node3 -->
<g id="edge9" class="edge">
<title>Node9&#45;&gt;Node3</title>
<path fill="none" stroke="midnightblue" d="M799.3,-217.82C811.31,-208.15 826.44,-195.95 836.51,-187.83"/>
<polygon fill="midnightblue" stroke="midnightblue" points="796.82,-215.32 791.23,-224.32 801.21,-220.77 796.82,-215.32"/>
</g>
<!-- Node9&#45;&gt;Node4 -->
<g id="edge10" class="edge">
<title>Node9&#45;&gt;Node4</title>
<path fill="none" stroke="midnightblue" d="M778.28,-214.2C777.58,-200.53 778.55,-182.03 786.47,-168 795.91,-151.27 814.42,-138.98 828.59,-131.52"/>
<polygon fill="midnightblue" stroke="midnightblue" points="774.8,-214.68 779.14,-224.35 781.78,-214.09 774.8,-214.68"/>
</g>
<!-- Node10&#45;&gt;Node5 -->
<g id="edge13" class="edge">
<title>Node10&#45;&gt;Node5</title>
<path fill="none" stroke="midnightblue" d="M655.72,-113.26C575.46,-102.51 431.75,-83.25 357.59,-73.31"/>
<polygon fill="midnightblue" stroke="midnightblue" points="655.28,-116.73 665.66,-114.59 656.21,-109.8 655.28,-116.73"/>
</g>
<!-- Node10&#45;&gt;Node6 -->
<g id="edge14" class="edge">
<title>Node10&#45;&gt;Node6</title>
<path fill="none" stroke="midnightblue" d="M696,-105.54C685.12,-95.91 671.52,-83.87 662.45,-75.83"/>
<polygon fill="midnightblue" stroke="midnightblue" points="693.86,-108.32 703.67,-112.32 698.5,-103.07 693.86,-108.32"/>
</g>
<!-- Node10&#45;&gt;Node7 -->
<g id="edge15" class="edge">
<title>Node10&#45;&gt;Node7</title>
<path fill="none" stroke="midnightblue" d="M730.65,-105.54C741.35,-95.91 754.72,-83.87 763.65,-75.83"/>
<polygon fill="midnightblue" stroke="midnightblue" points="728.2,-103.03 723.11,-112.32 732.88,-108.24 728.2,-103.03"/>
</g>
<!-- Node11&#45;&gt;Node5 -->
<g id="edge17" class="edge">
<title>Node11&#45;&gt;Node5</title>
<path fill="none" stroke="midnightblue" d="M109.29,-110.28C156.72,-100.08 227.17,-84.92 270.88,-75.52"/>
<polygon fill="midnightblue" stroke="midnightblue" points="108.28,-106.92 99.24,-112.44 109.75,-113.76 108.28,-106.92"/>
</g>
<!-- Node11&#45;&gt;Node6 -->
<g id="edge18" class="edge">
<title>Node11&#45;&gt;Node6</title>
<path fill="none" stroke="midnightblue" d="M115.02,-111.89C305.74,-88.45 521.61,-74.52 610.76,-69.32"/>
<polygon fill="midnightblue" stroke="midnightblue" points="114.59,-108.42 105.09,-113.13 115.45,-115.37 114.59,-108.42"/>
</g>
<!-- Node11&#45;&gt;Node7 -->
<g id="edge19" class="edge">
<title>Node11&#45;&gt;Node7</title>
<path fill="none" stroke="midnightblue" d="M115.23,-111.91C375.8,-82.85 444.66,-100.19 702.47,-76 715.58,-74.77 730.01,-73.01 742.41,-71.38"/>
<polygon fill="midnightblue" stroke="midnightblue" points="114.63,-108.46 105.09,-113.05 115.41,-115.41 114.63,-108.46"/>
</g>
<!-- Node12&#45;&gt;Node4 -->
<g id="edge23" class="edge">
<title>Node12&#45;&gt;Node4</title>
<path fill="none" stroke="midnightblue" d="M616.46,-167.72C664.45,-158.76 738.96,-144.72 803.47,-132 808.06,-131.09 812.91,-130.12 817.66,-129.16"/>
<polygon fill="midnightblue" stroke="midnightblue" points="615.53,-164.33 606.34,-169.61 616.81,-171.21 615.53,-164.33"/>
</g>
<!-- Node12&#45;&gt;Node5 -->
<g id="edge25" class="edge">
<title>Node12&#45;&gt;Node5</title>
<path fill="none" stroke="midnightblue" d="M516.62,-176.78C385.54,-175.68 38.85,-169.24 4.47,-132 -1.56,-125.47 -1.34,-118.73 4.47,-112 37.33,-73.95 185.83,-67.49 263.22,-66.76"/>
<polygon fill="midnightblue" stroke="midnightblue" points="516.76,-180.28 526.79,-176.86 516.82,-173.28 516.76,-180.28"/>
</g>
<!-- Node12&#45;&gt;Node6 -->
<g id="edge26" class="edge">
<title>Node12&#45;&gt;Node6</title>
<path fill="none" stroke="midnightblue" d="M586.43,-162.17C596.53,-154.01 608.52,-143.27 617.47,-132 631.97,-113.73 643.54,-88.58 649.02,-75.57"/>
<polygon fill="midnightblue" stroke="midnightblue" points="584.22,-159.46 578.49,-168.37 588.53,-164.97 584.22,-159.46"/>
</g>
<!-- Node12&#45;&gt;Node7 -->
<g id="edge27" class="edge">
<title>Node12&#45;&gt;Node7</title>
<path fill="none" stroke="midnightblue" d="M616.46,-172.84C670.33,-167.22 750.99,-155.13 770.47,-132 783.86,-116.1 779.55,-89.48 776.07,-75.76"/>
<polygon fill="midnightblue" stroke="midnightblue" points="616,-169.37 606.4,-173.85 616.7,-176.33 616,-169.37"/>
</g>
<!-- Node12&#45;&gt;Node10 -->
<g id="edge24" class="edge">
<title>Node12&#45;&gt;Node10</title>
<path fill="none" stroke="midnightblue" d="M599.39,-164.91C627.03,-154.75 665.81,-140.51 690.28,-131.52"/>
<polygon fill="midnightblue" stroke="midnightblue" points="597.94,-161.71 589.76,-168.44 600.35,-168.28 597.94,-161.71"/>
</g>
<!-- Node13 -->
<g id="node13" class="node">
<title>Node13</title>
<g id="a_node13"><a xlink:href="force__gpu__cuda_8hpp.html" target="_top" xlink:title=" ">
<polygon fill="white" stroke="black" points="260.47,-112.5 260.47,-131.5 374.47,-131.5 374.47,-112.5 260.47,-112.5"/>
<text text-anchor="middle" x="317.47" y="-119.5" font-family="Helvetica,sans-Serif" font-size="10.00">force_gpu_cuda.hpp</text>
</a>
</g>
</g>
<!-- Node12&#45;&gt;Node13 -->
<g id="edge21" class="edge">
<title>Node12&#45;&gt;Node13</title>
<path fill="none" stroke="midnightblue" d="M517.04,-166.28C469.99,-156.08 400.1,-140.92 356.74,-131.52"/>
<polygon fill="midnightblue" stroke="midnightblue" points="516.5,-169.74 527.01,-168.44 517.98,-162.9 516.5,-169.74"/>
</g>
<!-- Node14 -->
<g id="node14" class="node">
<title>Node14</title>
<g id="a_node14"><a xlink:href="format__transfer_8cxx.html" target="_top" xlink:title=" ">
<polygon fill="white" stroke="black" points="392.97,-112.5 392.97,-131.5 505.97,-131.5 505.97,-112.5 392.97,-112.5"/>
<text text-anchor="middle" x="449.47" y="-119.5" font-family="Helvetica,sans-Serif" font-size="10.00">format_transfer.cxx</text>
</a>
</g>
</g>
<!-- Node12&#45;&gt;Node14 -->
<g id="edge22" class="edge">
<title>Node12&#45;&gt;Node14</title>
<path fill="none" stroke="midnightblue" d="M538.8,-164.23C516.92,-154.13 486.97,-140.31 467.92,-131.52"/>
<polygon fill="midnightblue" stroke="midnightblue" points="537.38,-167.43 547.93,-168.44 540.32,-161.08 537.38,-167.43"/>
</g>
<!-- Node15 -->
<g id="node15" class="node">
<title>Node15</title>
<g id="a_node15"><a xlink:href="simd__test_8cxx.html" target="_top" xlink:title=" ">
<polygon fill="white" stroke="black" points="523.97,-112.5 523.97,-131.5 608.97,-131.5 608.97,-112.5 523.97,-112.5"/>
<text text-anchor="middle" x="566.47" y="-119.5" font-family="Helvetica,sans-Serif" font-size="10.00">simd_test.cxx</text>
</a>
</g>
</g>
<!-- Node12&#45;&gt;Node15 -->
<g id="edge28" class="edge">
<title>Node12&#45;&gt;Node15</title>
<path fill="none" stroke="midnightblue" d="M566.47,-157.8C566.47,-148.91 566.47,-138.78 566.47,-131.75"/>
<polygon fill="midnightblue" stroke="midnightblue" points="562.97,-158.08 566.47,-168.08 569.97,-158.08 562.97,-158.08"/>
</g>
<!-- Node16 -->
<g id="node16" class="node">
<title>Node16</title>
<g id="a_node16"><a xlink:href="tidal__tensor__test_8cxx.html" target="_top" xlink:title=" ">
<polygon fill="white" stroke="black" points="122.97,-112.5 122.97,-131.5 241.97,-131.5 241.97,-112.5 122.97,-112.5"/>
<text text-anchor="middle" x="182.47" y="-119.5" font-family="Helvetica,sans-Serif" font-size="10.00">tidal_tensor_test.cxx</text>
</a>
</g>
</g>
<!-- Node12&#45;&gt;Node16 -->
<g id="edge29" class="edge">
<title>Node12&#45;&gt;Node16</title>
<path fill="none" stroke="midnightblue" d="M516.87,-170.03C446.48,-160.13 317.79,-142.03 242.24,-131.4"/>
<polygon fill="midnightblue" stroke="midnightblue" points="516.43,-173.5 526.82,-171.42 517.4,-166.57 516.43,-173.5"/>
</g>
</g>
</svg>
