<?xml version="1.0" encoding="UTF-8" standalone="no"?>
<!DOCTYPE svg PUBLIC "-//W3C//DTD SVG 1.1//EN"
 "http://www.w3.org/Graphics/SVG/1.1/DTD/svg11.dtd">
<!-- Generated by graphviz version 2.43.0 (0)
 -->
<!-- Title: soft_force.hpp Pages: 1 -->
<svg width="311pt" height="140pt"
 viewBox="0.00 0.00 310.50 140.00" xmlns="http://www.w3.org/2000/svg" xmlns:xlink="http://www.w3.org/1999/xlink">
<g id="graph0" class="graph" transform="scale(1 1) rotate(0) translate(4 136)">
<title>soft_force.hpp</title>
<polygon fill="white" stroke="transparent" points="-4,4 -4,-136 306.5,-136 306.5,4 -4,4"/>
<!-- Node1 -->
<g id="node1" class="node">
<title>Node1</title>
<g id="a_node1"><a xlink:title=" ">
<polygon fill="#bfbfbf" stroke="black" points="80,-112.5 80,-131.5 166,-131.5 166,-112.5 80,-112.5"/>
<text text-anchor="middle" x="123" y="-119.5" font-family="Helvetica,sans-Serif" font-size="10.00">soft_force.hpp</text>
</a>
</g>
</g>
<!-- Node2 -->
<g id="node2" class="node">
<title>Node2</title>
<g id="a_node2"><a xlink:href="petar_8hpp.html" target="_top" xlink:title=" ">
<polygon fill="white" stroke="black" points="0,-56.5 0,-75.5 62,-75.5 62,-56.5 0,-56.5"/>
<text text-anchor="middle" x="31" y="-63.5" font-family="Helvetica,sans-Serif" font-size="10.00">petar.hpp</text>
</a>
</g>
</g>
<!-- Node1&#45;&gt;Node2 -->
<g id="edge1" class="edge">
<title>Node1&#45;&gt;Node2</title>
<path fill="none" stroke="midnightblue" d="M99.45,-107.18C82.52,-97.24 60.22,-84.15 45.74,-75.65"/>
<polygon fill="midnightblue" stroke="midnightblue" points="97.82,-110.28 108.22,-112.32 101.37,-104.24 97.82,-110.28"/>
</g>
<!-- Node4 -->
<g id="node4" class="node">
<title>Node4</title>
<g id="a_node4"><a xlink:href="simd__test_8cxx.html" target="_top" xlink:title=" ">
<polygon fill="white" stroke="black" points="80.5,-56.5 80.5,-75.5 165.5,-75.5 165.5,-56.5 80.5,-56.5"/>
<text text-anchor="middle" x="123" y="-63.5" font-family="Helvetica,sans-Serif" font-size="10.00">simd_test.cxx</text>
</a>
</g>
</g>
<!-- Node1&#45;&gt;Node4 -->
<g id="edge3" class="edge">
<title>Node1&#45;&gt;Node4</title>
<path fill="none" stroke="midnightblue" d="M123,-101.8C123,-92.91 123,-82.78 123,-75.75"/>
<polygon fill="midnightblue" stroke="midnightblue" points="119.5,-102.08 123,-112.08 126.5,-102.08 119.5,-102.08"/>
</g>
<!-- Node5 -->
<g id="node5" class="node">
<title>Node5</title>
<g id="a_node5"><a xlink:href="tidal__tensor__test_8cxx.html" target="_top" xlink:title=" ">
<polygon fill="white" stroke="black" points="183.5,-56.5 183.5,-75.5 302.5,-75.5 302.5,-56.5 183.5,-56.5"/>
<text text-anchor="middle" x="243" y="-63.5" font-family="Helvetica,sans-Serif" font-size="10.00">tidal_tensor_test.cxx</text>
</a>
</g>
</g>
<!-- Node1&#45;&gt;Node5 -->
<g id="edge4" class="edge">
<title>Node1&#45;&gt;Node5</title>
<path fill="none" stroke="midnightblue" d="M151.37,-108.23C173.82,-98.13 204.54,-84.31 224.07,-75.52"/>
<polygon fill="midnightblue" stroke="midnightblue" points="149.7,-105.15 142.01,-112.44 152.57,-111.53 149.7,-105.15"/>
</g>
<!-- Node3 -->
<g id="node3" class="node">
<title>Node3</title>
<g id="a_node3"><a xlink:href="main_8cc.html" target="_top" xlink:title=" ">
<polygon fill="white" stroke="black" points="3.5,-0.5 3.5,-19.5 58.5,-19.5 58.5,-0.5 3.5,-0.5"/>
<text text-anchor="middle" x="31" y="-7.5" font-family="Helvetica,sans-Serif" font-size="10.00">main.cc</text>
</a>
</g>
</g>
<!-- Node2&#45;&gt;Node3 -->
<g id="edge2" class="edge">
<title>Node2&#45;&gt;Node3</title>
<path fill="none" stroke="midnightblue" d="M31,-45.8C31,-36.91 31,-26.78 31,-19.75"/>
<polygon fill="midnightblue" stroke="midnightblue" points="27.5,-46.08 31,-56.08 34.5,-46.08 27.5,-46.08"/>
</g>
</g>
</svg>
