<?xml version="1.0" encoding="UTF-8" standalone="no"?>
<!DOCTYPE svg PUBLIC "-//W3C//DTD SVG 1.1//EN"
 "http://www.w3.org/Graphics/SVG/1.1/DTD/svg11.dtd">
<!-- Generated by graphviz version 2.43.0 (0)
 -->
<!-- Title: soft_ptcl.hpp Pages: 1 -->
<svg width="722pt" height="252pt"
 viewBox="0.00 0.00 722.42 252.00" xmlns="http://www.w3.org/2000/svg" xmlns:xlink="http://www.w3.org/1999/xlink">
<g id="graph0" class="graph" transform="scale(1 1) rotate(0) translate(4 248)">
<title>soft_ptcl.hpp</title>
<polygon fill="white" stroke="transparent" points="-4,4 -4,-248 718.42,-248 718.42,4 -4,4"/>
<!-- Node1 -->
<g id="node1" class="node">
<title>Node1</title>
<g id="a_node1"><a xlink:title=" ">
<polygon fill="#bfbfbf" stroke="black" points="213,-224.5 213,-243.5 292,-243.5 292,-224.5 213,-224.5"/>
<text text-anchor="middle" x="252.5" y="-231.5" font-family="Helvetica,sans-Serif" font-size="10.00">soft_ptcl.hpp</text>
</a>
</g>
</g>
<!-- Node2 -->
<g id="node2" class="node">
<title>Node2</title>
<g id="a_node2"><a xlink:href="ptcl_8hpp.html" target="_top" xlink:title=" ">
<polygon fill="white" stroke="black" points="224.5,-168.5 224.5,-187.5 280.5,-187.5 280.5,-168.5 224.5,-168.5"/>
<text text-anchor="middle" x="252.5" y="-175.5" font-family="Helvetica,sans-Serif" font-size="10.00">ptcl.hpp</text>
</a>
</g>
</g>
<!-- Node1&#45;&gt;Node2 -->
<g id="edge1" class="edge">
<title>Node1&#45;&gt;Node2</title>
<path fill="none" stroke="midnightblue" d="M252.5,-224.08C252.5,-217.01 252.5,-206.86 252.5,-197.99"/>
<polygon fill="midnightblue" stroke="midnightblue" points="256,-197.75 252.5,-187.75 249,-197.75 256,-197.75"/>
</g>
<!-- Node3 -->
<g id="node3" class="node">
<title>Node3</title>
<g id="a_node3"><a xlink:title=" ">
<polygon fill="white" stroke="#bfbfbf" points="0,-112.5 0,-131.5 125,-131.5 125,-112.5 0,-112.5"/>
<text text-anchor="middle" x="62.5" y="-119.5" font-family="Helvetica,sans-Serif" font-size="10.00">particle_simulator.hpp</text>
</a>
</g>
</g>
<!-- Node2&#45;&gt;Node3 -->
<g id="edge2" class="edge">
<title>Node2&#45;&gt;Node3</title>
<path fill="none" stroke="midnightblue" d="M224.46,-169.03C192.2,-159.86 138.95,-144.73 102.38,-134.33"/>
<polygon fill="midnightblue" stroke="midnightblue" points="103.11,-130.9 92.53,-131.54 101.2,-137.64 103.11,-130.9"/>
</g>
<!-- Node4 -->
<g id="node4" class="node">
<title>Node4</title>
<g id="a_node4"><a xlink:href="particle__base_8hpp.html" target="_top" xlink:title=" ">
<polygon fill="white" stroke="black" points="143,-112.5 143,-131.5 246,-131.5 246,-112.5 143,-112.5"/>
<text text-anchor="middle" x="194.5" y="-119.5" font-family="Helvetica,sans-Serif" font-size="10.00">particle_base.hpp</text>
</a>
</g>
</g>
<!-- Node2&#45;&gt;Node4 -->
<g id="edge3" class="edge">
<title>Node2&#45;&gt;Node4</title>
<path fill="none" stroke="midnightblue" d="M243.18,-168.32C234.61,-160.34 221.69,-148.31 211.31,-138.65"/>
<polygon fill="midnightblue" stroke="midnightblue" points="213.69,-136.09 203.99,-131.83 208.92,-141.21 213.69,-136.09"/>
</g>
<!-- Node5 -->
<g id="node5" class="node">
<title>Node5</title>
<g id="a_node5"><a xlink:href="changeover_8hpp.html" target="_top" xlink:title=" ">
<polygon fill="white" stroke="black" points="264.5,-112.5 264.5,-131.5 358.5,-131.5 358.5,-112.5 264.5,-112.5"/>
<text text-anchor="middle" x="311.5" y="-119.5" font-family="Helvetica,sans-Serif" font-size="10.00">changeover.hpp</text>
</a>
</g>
</g>
<!-- Node2&#45;&gt;Node5 -->
<g id="edge4" class="edge">
<title>Node2&#45;&gt;Node5</title>
<path fill="none" stroke="midnightblue" d="M261.98,-168.32C270.7,-160.34 283.84,-148.31 294.4,-138.65"/>
<polygon fill="midnightblue" stroke="midnightblue" points="296.83,-141.17 301.85,-131.83 292.11,-136 296.83,-141.17"/>
</g>
<!-- Node9 -->
<g id="node9" class="node">
<title>Node9</title>
<g id="a_node9"><a xlink:href="artificial__particles_8hpp.html" target="_top" xlink:title=" ">
<polygon fill="white" stroke="black" points="517,-112.5 517,-131.5 642,-131.5 642,-112.5 517,-112.5"/>
<text text-anchor="middle" x="579.5" y="-119.5" font-family="Helvetica,sans-Serif" font-size="10.00">artificial_particles.hpp</text>
</a>
</g>
</g>
<!-- Node2&#45;&gt;Node9 -->
<g id="edge8" class="edge">
<title>Node2&#45;&gt;Node9</title>
<path fill="none" stroke="midnightblue" d="M280.66,-172.35C333.08,-163.69 446.73,-144.93 517.79,-133.19"/>
<polygon fill="midnightblue" stroke="midnightblue" points="518.65,-136.6 527.95,-131.51 517.51,-129.69 518.65,-136.6"/>
</g>
<!-- Node6 -->
<g id="node6" class="node">
<title>Node6</title>
<g id="a_node6"><a xlink:title=" ">
<polygon fill="white" stroke="#bfbfbf" points="373.5,-0.5 373.5,-19.5 433.5,-19.5 433.5,-0.5 373.5,-0.5"/>
<text text-anchor="middle" x="403.5" y="-7.5" font-family="Helvetica,sans-Serif" font-size="10.00">iostream</text>
</a>
</g>
</g>
<!-- Node5&#45;&gt;Node6 -->
<g id="edge5" class="edge">
<title>Node5&#45;&gt;Node6</title>
<path fill="none" stroke="midnightblue" d="M282.88,-112.46C251.22,-101.53 207.06,-81 226.5,-56 243.1,-34.65 316.18,-21.77 363.09,-15.55"/>
<polygon fill="midnightblue" stroke="midnightblue" points="363.77,-19 373.25,-14.26 362.89,-12.05 363.77,-19"/>
</g>
<!-- Node7 -->
<g id="node7" class="node">
<title>Node7</title>
<g id="a_node7"><a xlink:title=" ">
<polygon fill="white" stroke="#bfbfbf" points="235.5,-56.5 235.5,-75.5 291.5,-75.5 291.5,-56.5 235.5,-56.5"/>
<text text-anchor="middle" x="263.5" y="-63.5" font-family="Helvetica,sans-Serif" font-size="10.00">iomanip</text>
</a>
</g>
</g>
<!-- Node5&#45;&gt;Node7 -->
<g id="edge6" class="edge">
<title>Node5&#45;&gt;Node7</title>
<path fill="none" stroke="midnightblue" d="M303.57,-112.08C296.65,-104.3 286.43,-92.8 278.05,-83.37"/>
<polygon fill="midnightblue" stroke="midnightblue" points="280.54,-80.9 271.28,-75.75 275.31,-85.55 280.54,-80.9"/>
</g>
<!-- Node8 -->
<g id="node8" class="node">
<title>Node8</title>
<g id="a_node8"><a xlink:title=" ">
<polygon fill="white" stroke="#bfbfbf" points="309.5,-56.5 309.5,-75.5 407.5,-75.5 407.5,-56.5 309.5,-56.5"/>
<text text-anchor="middle" x="358.5" y="-63.5" font-family="Helvetica,sans-Serif" font-size="10.00">Common/Float.h</text>
</a>
</g>
</g>
<!-- Node5&#45;&gt;Node8 -->
<g id="edge7" class="edge">
<title>Node5&#45;&gt;Node8</title>
<path fill="none" stroke="midnightblue" d="M319.26,-112.08C326.04,-104.3 336.04,-92.8 344.26,-83.37"/>
<polygon fill="midnightblue" stroke="midnightblue" points="346.96,-85.59 350.88,-75.75 341.68,-81 346.96,-85.59"/>
</g>
<!-- Node10 -->
<g id="node10" class="node">
<title>Node10</title>
<g id="a_node10"><a xlink:title=" ">
<polygon fill="white" stroke="#bfbfbf" points="544.5,-0.5 544.5,-19.5 672.5,-19.5 672.5,-0.5 544.5,-0.5"/>
<text text-anchor="middle" x="608.5" y="-7.5" font-family="Helvetica,sans-Serif" font-size="10.00">Common/binary_tree.h</text>
</a>
</g>
</g>
<!-- Node9&#45;&gt;Node10 -->
<g id="edge9" class="edge">
<title>Node9&#45;&gt;Node10</title>
<path fill="none" stroke="midnightblue" d="M642.23,-114.91C667.4,-109.03 694.05,-97.69 709.5,-76 727.44,-50.8 690.67,-32.98 656.57,-22.45"/>
<polygon fill="midnightblue" stroke="midnightblue" points="657.19,-18.98 646.61,-19.54 655.23,-25.7 657.19,-18.98"/>
</g>
<!-- Node11 -->
<g id="node11" class="node">
<title>Node11</title>
<g id="a_node11"><a xlink:href="tidal__tensor_8hpp.html" target="_top" xlink:title=" ">
<polygon fill="white" stroke="black" points="605,-56.5 605,-75.5 700,-75.5 700,-56.5 605,-56.5"/>
<text text-anchor="middle" x="652.5" y="-63.5" font-family="Helvetica,sans-Serif" font-size="10.00">tidal_tensor.hpp</text>
</a>
</g>
</g>
<!-- Node9&#45;&gt;Node11 -->
<g id="edge10" class="edge">
<title>Node9&#45;&gt;Node11</title>
<path fill="none" stroke="midnightblue" d="M591.23,-112.32C602.34,-104.11 619.24,-91.6 632.48,-81.81"/>
<polygon fill="midnightblue" stroke="midnightblue" points="634.6,-84.59 640.56,-75.83 630.44,-78.97 634.6,-84.59"/>
</g>
<!-- Node12 -->
<g id="node12" class="node">
<title>Node12</title>
<g id="a_node12"><a xlink:href="pseudoparticle__multipole_8hpp.html" target="_top" xlink:title=" ">
<polygon fill="white" stroke="black" points="426,-56.5 426,-75.5 587,-75.5 587,-56.5 426,-56.5"/>
<text text-anchor="middle" x="506.5" y="-63.5" font-family="Helvetica,sans-Serif" font-size="10.00">pseudoparticle_multipole.hpp</text>
</a>
</g>
</g>
<!-- Node9&#45;&gt;Node12 -->
<g id="edge11" class="edge">
<title>Node9&#45;&gt;Node12</title>
<path fill="none" stroke="midnightblue" d="M567.77,-112.32C556.66,-104.11 539.76,-91.6 526.52,-81.81"/>
<polygon fill="midnightblue" stroke="midnightblue" points="528.56,-78.97 518.44,-75.83 524.4,-84.59 528.56,-78.97"/>
</g>
<!-- Node12&#45;&gt;Node6 -->
<g id="edge13" class="edge">
<title>Node12&#45;&gt;Node6</title>
<path fill="none" stroke="midnightblue" d="M489.95,-56.32C473.51,-47.7 448.07,-34.36 429.03,-24.39"/>
<polygon fill="midnightblue" stroke="midnightblue" points="430.49,-21.2 420.01,-19.65 427.24,-27.4 430.49,-21.2"/>
</g>
<!-- Node12&#45;&gt;Node10 -->
<g id="edge12" class="edge">
<title>Node12&#45;&gt;Node10</title>
<path fill="none" stroke="midnightblue" d="M522.89,-56.32C539.17,-47.7 564.37,-34.36 583.22,-24.39"/>
<polygon fill="midnightblue" stroke="midnightblue" points="584.95,-27.43 592.15,-19.65 581.68,-21.24 584.95,-27.43"/>
</g>
</g>
</svg>
