<?xml version="1.0" encoding="UTF-8" standalone="no"?>
<!DOCTYPE svg PUBLIC "-//W3C//DTD SVG 1.1//EN"
 "http://www.w3.org/Graphics/SVG/1.1/DTD/svg11.dtd">
<!-- Generated by graphviz version 2.43.0 (0)
 -->
<!-- Title: soft_ptcl.hpp Pages: 1 -->
<svg width="800pt" height="196pt"
 viewBox="0.00 0.00 799.50 196.00" xmlns="http://www.w3.org/2000/svg" xmlns:xlink="http://www.w3.org/1999/xlink">
<g id="graph0" class="graph" transform="scale(1 1) rotate(0) translate(4 192)">
<title>soft_ptcl.hpp</title>
<polygon fill="white" stroke="transparent" points="-4,4 -4,-192 795.5,-192 795.5,4 -4,4"/>
<!-- Node1 -->
<g id="node1" class="node">
<title>Node1</title>
<g id="a_node1"><a xlink:title=" ">
<polygon fill="#bfbfbf" stroke="black" points="387.5,-168.5 387.5,-187.5 466.5,-187.5 466.5,-168.5 387.5,-168.5"/>
<text text-anchor="middle" x="427" y="-175.5" font-family="Helvetica,sans-Serif" font-size="10.00">soft_ptcl.hpp</text>
</a>
</g>
</g>
<!-- Node2 -->
<g id="node2" class="node">
<title>Node2</title>
<g id="a_node2"><a xlink:href="force__gpu__cuda_8hpp.html" target="_top" xlink:title=" ">
<polygon fill="white" stroke="black" points="0,-112.5 0,-131.5 114,-131.5 114,-112.5 0,-112.5"/>
<text text-anchor="middle" x="57" y="-119.5" font-family="Helvetica,sans-Serif" font-size="10.00">force_gpu_cuda.hpp</text>
</a>
</g>
</g>
<!-- Node1&#45;&gt;Node2 -->
<g id="edge1" class="edge">
<title>Node1&#45;&gt;Node2</title>
<path fill="none" stroke="midnightblue" d="M377.32,-169.75C308.95,-159.77 186.15,-141.85 114.08,-131.33"/>
<polygon fill="midnightblue" stroke="midnightblue" points="377,-173.24 387.4,-171.22 378.01,-166.31 377,-173.24"/>
</g>
<!-- Node3 -->
<g id="node3" class="node">
<title>Node3</title>
<g id="a_node3"><a xlink:href="format__transfer_8cxx.html" target="_top" xlink:title=" ">
<polygon fill="white" stroke="black" points="132.5,-112.5 132.5,-131.5 245.5,-131.5 245.5,-112.5 132.5,-112.5"/>
<text text-anchor="middle" x="189" y="-119.5" font-family="Helvetica,sans-Serif" font-size="10.00">format_transfer.cxx</text>
</a>
</g>
</g>
<!-- Node1&#45;&gt;Node3 -->
<g id="edge2" class="edge">
<title>Node1&#45;&gt;Node3</title>
<path fill="none" stroke="midnightblue" d="M379.48,-166.22C334.5,-156.01 267.9,-140.9 226.54,-131.52"/>
<polygon fill="midnightblue" stroke="midnightblue" points="378.76,-169.64 389.29,-168.44 380.31,-162.82 378.76,-169.64"/>
</g>
<!-- Node4 -->
<g id="node4" class="node">
<title>Node4</title>
<g id="a_node4"><a xlink:href="hard_8hpp.html" target="_top" xlink:title=" ">
<polygon fill="white" stroke="black" points="302.5,-112.5 302.5,-131.5 361.5,-131.5 361.5,-112.5 302.5,-112.5"/>
<text text-anchor="middle" x="332" y="-119.5" font-family="Helvetica,sans-Serif" font-size="10.00">hard.hpp</text>
</a>
</g>
</g>
<!-- Node1&#45;&gt;Node4 -->
<g id="edge3" class="edge">
<title>Node1&#45;&gt;Node4</title>
<path fill="none" stroke="midnightblue" d="M402.68,-163.18C385.2,-153.24 362.17,-140.15 347.23,-131.65"/>
<polygon fill="midnightblue" stroke="midnightblue" points="401.31,-166.43 411.74,-168.32 404.77,-160.34 401.31,-166.43"/>
</g>
<!-- Node5 -->
<g id="node5" class="node">
<title>Node5</title>
<g id="a_node5"><a xlink:href="hard__debug_8cxx.html" target="_top" xlink:title=" ">
<polygon fill="white" stroke="black" points="380,-56.5 380,-75.5 474,-75.5 474,-56.5 380,-56.5"/>
<text text-anchor="middle" x="427" y="-63.5" font-family="Helvetica,sans-Serif" font-size="10.00">hard_debug.cxx</text>
</a>
</g>
</g>
<!-- Node1&#45;&gt;Node5 -->
<g id="edge12" class="edge">
<title>Node1&#45;&gt;Node5</title>
<path fill="none" stroke="midnightblue" d="M453.67,-163.22C465.25,-155.7 477.6,-145.2 484,-132 495.39,-108.5 464.96,-86.92 444.3,-75.5"/>
<polygon fill="midnightblue" stroke="midnightblue" points="451.84,-160.23 445.08,-168.39 455.45,-166.23 451.84,-160.23"/>
</g>
<!-- Node6 -->
<g id="node6" class="node">
<title>Node6</title>
<g id="a_node6"><a xlink:href="hard__test_8cxx.html" target="_top" xlink:title=" ">
<polygon fill="white" stroke="black" points="492.5,-56.5 492.5,-75.5 575.5,-75.5 575.5,-56.5 492.5,-56.5"/>
<text text-anchor="middle" x="534" y="-63.5" font-family="Helvetica,sans-Serif" font-size="10.00">hard_test.cxx</text>
</a>
</g>
</g>
<!-- Node1&#45;&gt;Node6 -->
<g id="edge13" class="edge">
<title>Node1&#45;&gt;Node6</title>
<path fill="none" stroke="midnightblue" d="M455.34,-163.75C469.71,-156 486.68,-145.15 499,-132 514.95,-114.98 525.91,-89.31 530.92,-75.89"/>
<polygon fill="midnightblue" stroke="midnightblue" points="453.63,-160.69 446.35,-168.39 456.84,-166.91 453.63,-160.69"/>
</g>
<!-- Node7 -->
<g id="node7" class="node">
<title>Node7</title>
<g id="a_node7"><a xlink:href="petar_8hpp.html" target="_top" xlink:title=" ">
<polygon fill="white" stroke="black" points="300,-56.5 300,-75.5 362,-75.5 362,-56.5 300,-56.5"/>
<text text-anchor="middle" x="331" y="-63.5" font-family="Helvetica,sans-Serif" font-size="10.00">petar.hpp</text>
</a>
</g>
</g>
<!-- Node1&#45;&gt;Node7 -->
<g id="edge14" class="edge">
<title>Node1&#45;&gt;Node7</title>
<path fill="none" stroke="midnightblue" d="M377.01,-174.15C347.39,-169.58 312.03,-158.47 293,-132 279.19,-112.79 303.9,-88.25 319.57,-75.52"/>
<polygon fill="midnightblue" stroke="midnightblue" points="376.84,-177.66 387.21,-175.51 377.76,-170.72 376.84,-177.66"/>
</g>
<!-- Node9 -->
<g id="node9" class="node">
<title>Node9</title>
<g id="a_node9"><a xlink:href="hard__assert_8hpp.html" target="_top" xlink:title=" ">
<polygon fill="white" stroke="black" points="379.5,-112.5 379.5,-131.5 474.5,-131.5 474.5,-112.5 379.5,-112.5"/>
<text text-anchor="middle" x="427" y="-119.5" font-family="Helvetica,sans-Serif" font-size="10.00">hard_assert.hpp</text>
</a>
</g>
</g>
<!-- Node1&#45;&gt;Node9 -->
<g id="edge8" class="edge">
<title>Node1&#45;&gt;Node9</title>
<path fill="none" stroke="midnightblue" d="M427,-157.8C427,-148.91 427,-138.78 427,-131.75"/>
<polygon fill="midnightblue" stroke="midnightblue" points="423.5,-158.08 427,-168.08 430.5,-158.08 423.5,-158.08"/>
</g>
<!-- Node10 -->
<g id="node10" class="node">
<title>Node10</title>
<g id="a_node10"><a xlink:href="simd__test_8cxx.html" target="_top" xlink:title=" ">
<polygon fill="white" stroke="black" points="569.5,-112.5 569.5,-131.5 654.5,-131.5 654.5,-112.5 569.5,-112.5"/>
<text text-anchor="middle" x="612" y="-119.5" font-family="Helvetica,sans-Serif" font-size="10.00">simd_test.cxx</text>
</a>
</g>
</g>
<!-- Node1&#45;&gt;Node10 -->
<g id="edge15" class="edge">
<title>Node1&#45;&gt;Node10</title>
<path fill="none" stroke="midnightblue" d="M466.17,-165.57C501.07,-155.38 551.35,-140.7 582.82,-131.52"/>
<polygon fill="midnightblue" stroke="midnightblue" points="464.93,-162.28 456.31,-168.44 466.89,-169 464.93,-162.28"/>
</g>
<!-- Node11 -->
<g id="node11" class="node">
<title>Node11</title>
<g id="a_node11"><a xlink:href="tidal__tensor__test_8cxx.html" target="_top" xlink:title=" ">
<polygon fill="white" stroke="black" points="672.5,-112.5 672.5,-131.5 791.5,-131.5 791.5,-112.5 672.5,-112.5"/>
<text text-anchor="middle" x="732" y="-119.5" font-family="Helvetica,sans-Serif" font-size="10.00">tidal_tensor_test.cxx</text>
</a>
</g>
</g>
<!-- Node1&#45;&gt;Node11 -->
<g id="edge16" class="edge">
<title>Node1&#45;&gt;Node11</title>
<path fill="none" stroke="midnightblue" d="M476.46,-168.24C533.71,-158.11 627.34,-141.53 683.97,-131.5"/>
<polygon fill="midnightblue" stroke="midnightblue" points="475.8,-164.81 466.56,-170 477.02,-171.7 475.8,-164.81"/>
</g>
<!-- Node4&#45;&gt;Node5 -->
<g id="edge4" class="edge">
<title>Node4&#45;&gt;Node5</title>
<path fill="none" stroke="midnightblue" d="M356.32,-107.18C373.8,-97.24 396.83,-84.15 411.77,-75.65"/>
<polygon fill="midnightblue" stroke="midnightblue" points="354.23,-104.34 347.26,-112.32 357.69,-110.43 354.23,-104.34"/>
</g>
<!-- Node4&#45;&gt;Node6 -->
<g id="edge5" class="edge">
<title>Node4&#45;&gt;Node6</title>
<path fill="none" stroke="midnightblue" d="M371.55,-110.43C409.7,-100.23 466.72,-84.99 502.07,-75.54"/>
<polygon fill="midnightblue" stroke="midnightblue" points="370.56,-107.07 361.81,-113.03 372.37,-113.83 370.56,-107.07"/>
</g>
<!-- Node4&#45;&gt;Node7 -->
<g id="edge6" class="edge">
<title>Node4&#45;&gt;Node7</title>
<path fill="none" stroke="midnightblue" d="M331.64,-101.8C331.48,-92.91 331.29,-82.78 331.16,-75.75"/>
<polygon fill="midnightblue" stroke="midnightblue" points="328.15,-102.15 331.83,-112.08 335.15,-102.02 328.15,-102.15"/>
</g>
<!-- Node8 -->
<g id="node8" class="node">
<title>Node8</title>
<g id="a_node8"><a xlink:href="main_8cc.html" target="_top" xlink:title=" ">
<polygon fill="white" stroke="black" points="303.5,-0.5 303.5,-19.5 358.5,-19.5 358.5,-0.5 303.5,-0.5"/>
<text text-anchor="middle" x="331" y="-7.5" font-family="Helvetica,sans-Serif" font-size="10.00">main.cc</text>
</a>
</g>
</g>
<!-- Node7&#45;&gt;Node8 -->
<g id="edge7" class="edge">
<title>Node7&#45;&gt;Node8</title>
<path fill="none" stroke="midnightblue" d="M331,-45.8C331,-36.91 331,-26.78 331,-19.75"/>
<polygon fill="midnightblue" stroke="midnightblue" points="327.5,-46.08 331,-56.08 334.5,-46.08 327.5,-46.08"/>
</g>
<!-- Node9&#45;&gt;Node5 -->
<g id="edge9" class="edge">
<title>Node9&#45;&gt;Node5</title>
<path fill="none" stroke="midnightblue" d="M427,-101.8C427,-92.91 427,-82.78 427,-75.75"/>
<polygon fill="midnightblue" stroke="midnightblue" points="423.5,-102.08 427,-112.08 430.5,-102.08 423.5,-102.08"/>
</g>
<!-- Node9&#45;&gt;Node6 -->
<g id="edge10" class="edge">
<title>Node9&#45;&gt;Node6</title>
<path fill="none" stroke="midnightblue" d="M453.3,-107.73C473.11,-97.73 499.71,-84.31 516.85,-75.65"/>
<polygon fill="midnightblue" stroke="midnightblue" points="451.54,-104.69 444.19,-112.32 454.7,-110.94 451.54,-104.69"/>
</g>
<!-- Node9&#45;&gt;Node7 -->
<g id="edge11" class="edge">
<title>Node9&#45;&gt;Node7</title>
<path fill="none" stroke="midnightblue" d="M402.43,-107.18C384.76,-97.24 361.49,-84.15 346.39,-75.65"/>
<polygon fill="midnightblue" stroke="midnightblue" points="401.14,-110.47 411.58,-112.32 404.58,-104.37 401.14,-110.47"/>
</g>
</g>
</svg>
