<?xml version="1.0" encoding="UTF-8" standalone="no"?>
<!DOCTYPE svg PUBLIC "-//W3C//DTD SVG 1.1//EN"
 "http://www.w3.org/Graphics/SVG/1.1/DTD/svg11.dtd">
<!-- Generated by graphviz version 2.43.0 (0)
 -->
<!-- Title: status.hpp Pages: 1 -->
<svg width="200pt" height="84pt"
 viewBox="0.00 0.00 199.50 84.00" xmlns="http://www.w3.org/2000/svg" xmlns:xlink="http://www.w3.org/1999/xlink">
<g id="graph0" class="graph" transform="scale(1 1) rotate(0) translate(4 80)">
<title>status.hpp</title>
<polygon fill="white" stroke="transparent" points="-4,4 -4,-80 195.5,-80 195.5,4 -4,4"/>
<!-- Node1 -->
<g id="node1" class="node">
<title>Node1</title>
<g id="a_node1"><a xlink:title=" ">
<polygon fill="#bfbfbf" stroke="black" points="69.5,-56.5 69.5,-75.5 137.5,-75.5 137.5,-56.5 69.5,-56.5"/>
<text text-anchor="middle" x="103.5" y="-63.5" font-family="Helvetica,sans-Serif" font-size="10.00">status.hpp</text>
</a>
</g>
</g>
<!-- Node2 -->
<g id="node2" class="node">
<title>Node2</title>
<g id="a_node2"><a xlink:href="particle__base_8hpp.html" target="_top" xlink:title=" ">
<polygon fill="white" stroke="black" points="0,-0.5 0,-19.5 103,-19.5 103,-0.5 0,-0.5"/>
<text text-anchor="middle" x="51.5" y="-7.5" font-family="Helvetica,sans-Serif" font-size="10.00">particle_base.hpp</text>
</a>
</g>
</g>
<!-- Node1&#45;&gt;Node2 -->
<g id="edge1" class="edge">
<title>Node1&#45;&gt;Node2</title>
<path fill="none" stroke="midnightblue" d="M94.91,-56.08C87.34,-48.22 76.12,-36.57 66.99,-27.08"/>
<polygon fill="midnightblue" stroke="midnightblue" points="69.38,-24.53 59.93,-19.75 64.34,-29.38 69.38,-24.53"/>
</g>
<!-- Node3 -->
<g id="node3" class="node">
<title>Node3</title>
<g id="a_node3"><a xlink:href="energy_8hpp.html" target="_top" xlink:title=" ">
<polygon fill="white" stroke="black" points="121.5,-0.5 121.5,-19.5 191.5,-19.5 191.5,-0.5 121.5,-0.5"/>
<text text-anchor="middle" x="156.5" y="-7.5" font-family="Helvetica,sans-Serif" font-size="10.00">energy.hpp</text>
</a>
</g>
</g>
<!-- Node1&#45;&gt;Node3 -->
<g id="edge2" class="edge">
<title>Node1&#45;&gt;Node3</title>
<path fill="none" stroke="midnightblue" d="M112.25,-56.08C119.97,-48.22 131.4,-36.57 140.72,-27.08"/>
<polygon fill="midnightblue" stroke="midnightblue" points="143.4,-29.34 147.91,-19.75 138.41,-24.44 143.4,-29.34"/>
</g>
</g>
</svg>
