<?xml version="1.0" encoding="UTF-8" standalone="no"?>
<!DOCTYPE svg PUBLIC "-//W3C//DTD SVG 1.1//EN"
 "http://www.w3.org/Graphics/SVG/1.1/DTD/svg11.dtd">
<!-- Generated by graphviz version 2.43.0 (0)
 -->
<!-- Title: IOParamsPrintHelp::getValueTypeShortName Pages: 1 -->
<svg width="380pt" height="88pt"
 viewBox="0.00 0.00 380.00 88.00" xmlns="http://www.w3.org/2000/svg" xmlns:xlink="http://www.w3.org/1999/xlink">
<g id="graph0" class="graph" transform="scale(1 1) rotate(0) translate(4 84)">
<title>IOParamsPrintHelp::getValueTypeShortName</title>
<polygon fill="white" stroke="transparent" points="-4,4 -4,-84 376,-84 376,4 -4,4"/>
<!-- Node1 -->
<g id="node1" class="node">
<title>Node1</title>
<g id="a_node1"><a xlink:title=" ">
<polygon fill="#bfbfbf" stroke="black" points="235,-24.5 235,-54.5 372,-54.5 372,-24.5 235,-24.5"/>
<text text-anchor="start" x="243" y="-42.5" font-family="Helvetica,sans-Serif" font-size="10.00">IOParamsPrintHelp::</text>
<text text-anchor="middle" x="303.5" y="-31.5" font-family="Helvetica,sans-Serif" font-size="10.00">getValueTypeShortName</text>
</a>
</g>
</g>
<!-- Node2 -->
<g id="node2" class="node">
<title>Node2</title>
<g id="a_node2"><a xlink:href="structIOParams.html#afd12f2e8cbe2fb8c58baafc8ede6b80d" target="_top" xlink:title=" ">
<polygon fill="white" stroke="black" points="77,-49.5 77,-79.5 199,-79.5 199,-49.5 77,-49.5"/>
<text text-anchor="start" x="85" y="-67.5" font-family="Helvetica,sans-Serif" font-size="10.00">IOParams&lt; PS::S64 &gt;</text>
<text text-anchor="middle" x="138" y="-56.5" font-family="Helvetica,sans-Serif" font-size="10.00">::printHelp</text>
</a>
</g>
</g>
<!-- Node1&#45;&gt;Node2 -->
<g id="edge1" class="edge">
<title>Node1&#45;&gt;Node2</title>
<path fill="none" stroke="midnightblue" d="M224.59,-51.41C216.04,-52.72 207.43,-54.04 199.14,-55.3"/>
<polygon fill="midnightblue" stroke="midnightblue" points="225.23,-54.86 234.58,-49.89 224.17,-47.94 225.23,-54.86"/>
</g>
<!-- Node3 -->
<g id="node3" class="node">
<title>Node3</title>
<g id="a_node3"><a xlink:href="classIOParamsContainer.html#a4e42d749bdaeba0cbf805d45f2401aa1" target="_top" xlink:title=" ">
<polygon fill="white" stroke="black" points="80,-0.5 80,-30.5 196,-30.5 196,-0.5 80,-0.5"/>
<text text-anchor="start" x="88" y="-18.5" font-family="Helvetica,sans-Serif" font-size="10.00">IOParamsContainer::</text>
<text text-anchor="middle" x="138" y="-7.5" font-family="Helvetica,sans-Serif" font-size="10.00">writeAscii</text>
</a>
</g>
</g>
<!-- Node1&#45;&gt;Node3 -->
<g id="edge2" class="edge">
<title>Node1&#45;&gt;Node3</title>
<path fill="none" stroke="midnightblue" d="M224.6,-28.07C214.98,-26.65 205.29,-25.23 196.06,-23.88"/>
<polygon fill="midnightblue" stroke="midnightblue" points="224.18,-31.54 234.58,-29.53 225.2,-24.62 224.18,-31.54"/>
</g>
<!-- Node4 -->
<g id="node4" class="node">
<title>Node4</title>
<g id="a_node4"><a xlink:href="io__test_8cxx.html#a3c04138a5bfe5d72780bb7e82a18e627" target="_top" xlink:title=" ">
<polygon fill="white" stroke="black" points="0,-6 0,-25 41,-25 41,-6 0,-6"/>
<text text-anchor="middle" x="20.5" y="-13" font-family="Helvetica,sans-Serif" font-size="10.00">main</text>
</a>
</g>
</g>
<!-- Node3&#45;&gt;Node4 -->
<g id="edge3" class="edge">
<title>Node3&#45;&gt;Node4</title>
<path fill="none" stroke="midnightblue" d="M69.81,-15.5C59.34,-15.5 49.29,-15.5 41.1,-15.5"/>
<polygon fill="midnightblue" stroke="midnightblue" points="69.93,-19 79.93,-15.5 69.93,-12 69.93,-19"/>
</g>
</g>
</svg>
