<?xml version="1.0" encoding="UTF-8" standalone="no"?>
<!DOCTYPE svg PUBLIC "-//W3C//DTD SVG 1.1//EN"
 "http://www.w3.org/Graphics/SVG/1.1/DTD/svg11.dtd">
<!-- Generated by graphviz version 2.43.0 (0)
 -->
<!-- Title: BinaryBase Pages: 1 -->
<svg width="310pt" height="95pt"
 viewBox="0.00 0.00 310.00 95.00" xmlns="http://www.w3.org/2000/svg" xmlns:xlink="http://www.w3.org/1999/xlink">
<g id="graph0" class="graph" transform="scale(1 1) rotate(0) translate(4 91)">
<title>BinaryBase</title>
<polygon fill="white" stroke="transparent" points="-4,4 -4,-91 306,-91 306,4 -4,4"/>
<!-- Node1 -->
<g id="node1" class="node">
<title>Node1</title>
<g id="a_node1"><a xlink:title=" ">
<polygon fill="#bfbfbf" stroke="black" points="110,-0.5 110,-19.5 182,-19.5 182,-0.5 110,-0.5"/>
<text text-anchor="middle" x="146" y="-7.5" font-family="Helvetica,sans-Serif" font-size="10.00">BinaryBase</text>
</a>
</g>
</g>
<!-- Node2 -->
<g id="node2" class="node">
<title>Node2</title>
<g id="a_node2"><a xlink:href="classBinaryEvent.html" target="_top" xlink:title="BSE based code event recorder class.">
<polygon fill="white" stroke="black" points="0,-67.5 0,-86.5 76,-86.5 76,-67.5 0,-67.5"/>
<text text-anchor="middle" x="38" y="-74.5" font-family="Helvetica,sans-Serif" font-size="10.00">BinaryEvent</text>
</a>
</g>
</g>
<!-- Node2&#45;&gt;Node1 -->
<g id="edge1" class="edge">
<title>Node2&#45;&gt;Node1</title>
<path fill="none" stroke="#9a32cd" stroke-dasharray="5,2" d="M55.63,-61.12C64.92,-53.67 76.71,-44.81 88,-38 99.7,-30.94 113.54,-24.43 124.77,-19.58"/>
<polygon fill="#9a32cd" stroke="#9a32cd" points="53.4,-58.42 47.89,-67.47 57.84,-63.84 53.4,-58.42"/>
<text text-anchor="middle" x="115" y="-41" font-family="Helvetica,sans-Serif" font-size="10.00"> bse_event</text>
</g>
<!-- Node3 -->
<g id="node3" class="node">
<title>Node3</title>
<g id="a_node3"><a xlink:href="structStarParameterOut.html" target="_top" xlink:title="SSE/BSE based code star parameter for output.">
<polygon fill="white" stroke="black" points="94,-67.5 94,-86.5 198,-86.5 198,-67.5 94,-67.5"/>
<text text-anchor="middle" x="146" y="-74.5" font-family="Helvetica,sans-Serif" font-size="10.00">StarParameterOut</text>
</a>
</g>
</g>
<!-- Node3&#45;&gt;Node1 -->
<g id="edge2" class="edge">
<title>Node3&#45;&gt;Node1</title>
<path fill="none" stroke="#9a32cd" stroke-dasharray="5,2" d="M146,-57.04C146,-44.67 146,-29.12 146,-19.63"/>
<polygon fill="#9a32cd" stroke="#9a32cd" points="142.5,-57.23 146,-67.23 149.5,-57.23 142.5,-57.23"/>
<text text-anchor="middle" x="155.5" y="-41" font-family="Helvetica,sans-Serif" font-size="10.00"> out</text>
</g>
<!-- Node4 -->
<g id="node4" class="node">
<title>Node4</title>
<g id="a_node4"><a xlink:href="structStarParameter.html" target="_top" xlink:title="SSE/BSE based code star parameter for saving.">
<polygon fill="white" stroke="black" points="216,-67.5 216,-86.5 302,-86.5 302,-67.5 216,-67.5"/>
<text text-anchor="middle" x="259" y="-74.5" font-family="Helvetica,sans-Serif" font-size="10.00">StarParameter</text>
</a>
</g>
</g>
<!-- Node4&#45;&gt;Node1 -->
<g id="edge3" class="edge">
<title>Node4&#45;&gt;Node1</title>
<path fill="none" stroke="#9a32cd" stroke-dasharray="5,2" d="M234.86,-62.12C212.47,-49.24 179.86,-30.48 161,-19.63"/>
<polygon fill="#9a32cd" stroke="#9a32cd" points="233.35,-65.28 243.76,-67.23 236.84,-59.21 233.35,-65.28"/>
<text text-anchor="middle" x="220" y="-41" font-family="Helvetica,sans-Serif" font-size="10.00"> star</text>
</g>
</g>
</svg>
