<?xml version="1.0" encoding="UTF-8" standalone="no"?>
<!DOCTYPE svg PUBLIC "-//W3C//DTD SVG 1.1//EN"
 "http://www.w3.org/Graphics/SVG/1.1/DTD/svg11.dtd">
<!-- Generated by graphviz version 2.43.0 (0)
 -->
<!-- Title: IOParams::print Pages: 1 -->
<svg width="347pt" height="180pt"
 viewBox="0.00 0.00 347.00 180.00" xmlns="http://www.w3.org/2000/svg" xmlns:xlink="http://www.w3.org/1999/xlink">
<g id="graph0" class="graph" transform="scale(1 1) rotate(0) translate(4 176)">
<title>IOParams::print</title>
<polygon fill="white" stroke="transparent" points="-4,4 -4,-176 343,-176 343,4 -4,4"/>
<!-- Node1 -->
<g id="node1" class="node">
<title>Node1</title>
<g id="a_node1"><a xlink:title=" ">
<polygon fill="#bfbfbf" stroke="black" points="247,-76.5 247,-95.5 339,-95.5 339,-76.5 247,-76.5"/>
<text text-anchor="middle" x="293" y="-83.5" font-family="Helvetica,sans-Serif" font-size="10.00">IOParams::print</text>
</a>
</g>
</g>
<!-- Node2 -->
<g id="node2" class="node">
<title>Node2</title>
<g id="a_node2"><a xlink:href="io__test_8cxx.html#a3c04138a5bfe5d72780bb7e82a18e627" target="_top" xlink:title=" ">
<polygon fill="white" stroke="black" points="123.5,-152.5 123.5,-171.5 164.5,-171.5 164.5,-152.5 123.5,-152.5"/>
<text text-anchor="middle" x="144" y="-159.5" font-family="Helvetica,sans-Serif" font-size="10.00">main</text>
</a>
</g>
</g>
<!-- Node1&#45;&gt;Node2 -->
<g id="edge1" class="edge">
<title>Node1&#45;&gt;Node2</title>
<path fill="none" stroke="midnightblue" d="M273.06,-102.09C257.33,-114.75 233.9,-132.03 211,-143 196.16,-150.11 178.14,-155.07 164.68,-158.14"/>
<polygon fill="midnightblue" stroke="midnightblue" points="275.45,-104.66 280.95,-95.6 271.01,-99.25 275.45,-104.66"/>
</g>
<!-- Node3 -->
<g id="node3" class="node">
<title>Node3</title>
<g id="a_node3"><a xlink:href="classIOParamsGalpy.html#a7525714c40a2cc23a672b9f2498dcc3d" target="_top" xlink:title="reading parameters from GNU option API">
<polygon fill="white" stroke="black" points="84.5,-114.5 84.5,-133.5 203.5,-133.5 203.5,-114.5 84.5,-114.5"/>
<text text-anchor="middle" x="144" y="-121.5" font-family="Helvetica,sans-Serif" font-size="10.00">IOParamsGalpy::read</text>
</a>
</g>
</g>
<!-- Node1&#45;&gt;Node3 -->
<g id="edge2" class="edge">
<title>Node1&#45;&gt;Node3</title>
<path fill="none" stroke="midnightblue" d="M245.15,-98.11C224.67,-103.4 201.01,-109.52 181.83,-114.48"/>
<polygon fill="midnightblue" stroke="midnightblue" points="246.1,-101.48 254.91,-95.59 244.35,-94.7 246.1,-101.48"/>
</g>
<!-- Node5 -->
<g id="node5" class="node">
<title>Node5</title>
<g id="a_node5"><a xlink:href="classIOParamsHardTest.html#afe7ac7f58a0cddd829cd187cc4628217" target="_top" xlink:title=" ">
<polygon fill="white" stroke="black" points="77,-76.5 77,-95.5 211,-95.5 211,-76.5 77,-76.5"/>
<text text-anchor="middle" x="144" y="-83.5" font-family="Helvetica,sans-Serif" font-size="10.00">IOParamsHardTest::read</text>
</a>
</g>
</g>
<!-- Node1&#45;&gt;Node5 -->
<g id="edge4" class="edge">
<title>Node1&#45;&gt;Node5</title>
<path fill="none" stroke="midnightblue" d="M236.46,-86C228.22,-86 219.66,-86 211.23,-86"/>
<polygon fill="midnightblue" stroke="midnightblue" points="236.7,-89.5 246.7,-86 236.7,-82.5 236.7,-89.5"/>
</g>
<!-- Node7 -->
<g id="node7" class="node">
<title>Node7</title>
<g id="a_node7"><a xlink:href="classIOParamsPeTar.html#aa428da858ec3e53058edeb77b9412075" target="_top" xlink:title="reading parameters from GNU option API">
<polygon fill="white" stroke="black" points="85.5,-38.5 85.5,-57.5 202.5,-57.5 202.5,-38.5 85.5,-38.5"/>
<text text-anchor="middle" x="144" y="-45.5" font-family="Helvetica,sans-Serif" font-size="10.00">IOParamsPeTar::read</text>
</a>
</g>
</g>
<!-- Node1&#45;&gt;Node7 -->
<g id="edge6" class="edge">
<title>Node1&#45;&gt;Node7</title>
<path fill="none" stroke="midnightblue" d="M245.15,-73.89C224.67,-68.6 201.01,-62.48 181.83,-57.52"/>
<polygon fill="midnightblue" stroke="midnightblue" points="244.35,-77.3 254.91,-76.41 246.1,-70.52 244.35,-77.3"/>
</g>
<!-- Node8 -->
<g id="node8" class="node">
<title>Node8</title>
<g id="a_node8"><a xlink:href="classIOParamsBSE.html#a2312b0c004f47cf752a9c9321acf36eb" target="_top" xlink:title="reading parameters from GNU option API">
<polygon fill="white" stroke="black" points="89,-0.5 89,-19.5 199,-19.5 199,-0.5 89,-0.5"/>
<text text-anchor="middle" x="144" y="-7.5" font-family="Helvetica,sans-Serif" font-size="10.00">IOParamsBSE::read</text>
</a>
</g>
</g>
<!-- Node1&#45;&gt;Node8 -->
<g id="edge7" class="edge">
<title>Node1&#45;&gt;Node8</title>
<path fill="none" stroke="midnightblue" d="M273.06,-69.91C257.33,-57.25 233.9,-39.97 211,-29 203.26,-25.29 194.65,-22.17 186.28,-19.59"/>
<polygon fill="midnightblue" stroke="midnightblue" points="271.01,-72.75 280.95,-76.4 275.45,-67.34 271.01,-72.75"/>
</g>
<!-- Node4 -->
<g id="node4" class="node">
<title>Node4</title>
<g id="a_node4"><a xlink:href="galpy__test_8cxx.html#a3c04138a5bfe5d72780bb7e82a18e627" target="_top" xlink:title=" ">
<polygon fill="white" stroke="black" points="0,-114.5 0,-133.5 41,-133.5 41,-114.5 0,-114.5"/>
<text text-anchor="middle" x="20.5" y="-121.5" font-family="Helvetica,sans-Serif" font-size="10.00">main</text>
</a>
</g>
</g>
<!-- Node3&#45;&gt;Node4 -->
<g id="edge3" class="edge">
<title>Node3&#45;&gt;Node4</title>
<path fill="none" stroke="midnightblue" d="M74.13,-124C61.99,-124 50.29,-124 41.01,-124"/>
<polygon fill="midnightblue" stroke="midnightblue" points="74.39,-127.5 84.39,-124 74.39,-120.5 74.39,-127.5"/>
</g>
<!-- Node6 -->
<g id="node6" class="node">
<title>Node6</title>
<g id="a_node6"><a xlink:href="hard__test_8cxx.html#a3c04138a5bfe5d72780bb7e82a18e627" target="_top" xlink:title=" ">
<polygon fill="white" stroke="black" points="0,-76.5 0,-95.5 41,-95.5 41,-76.5 0,-76.5"/>
<text text-anchor="middle" x="20.5" y="-83.5" font-family="Helvetica,sans-Serif" font-size="10.00">main</text>
</a>
</g>
</g>
<!-- Node5&#45;&gt;Node6 -->
<g id="edge5" class="edge">
<title>Node5&#45;&gt;Node6</title>
<path fill="none" stroke="midnightblue" d="M66.65,-86C57.34,-86 48.56,-86 41.25,-86"/>
<polygon fill="midnightblue" stroke="midnightblue" points="66.92,-89.5 76.92,-86 66.92,-82.5 66.92,-89.5"/>
</g>
<!-- Node9 -->
<g id="node9" class="node">
<title>Node9</title>
<g id="a_node9"><a xlink:href="bse__test_8cxx.html#a3c04138a5bfe5d72780bb7e82a18e627" target="_top" xlink:title=" ">
<polygon fill="white" stroke="black" points="0,-0.5 0,-19.5 41,-19.5 41,-0.5 0,-0.5"/>
<text text-anchor="middle" x="20.5" y="-7.5" font-family="Helvetica,sans-Serif" font-size="10.00">main</text>
</a>
</g>
</g>
<!-- Node8&#45;&gt;Node9 -->
<g id="edge8" class="edge">
<title>Node8&#45;&gt;Node9</title>
<path fill="none" stroke="midnightblue" d="M78.29,-10C64.75,-10 51.48,-10 41.18,-10"/>
<polygon fill="midnightblue" stroke="midnightblue" points="78.65,-13.5 88.65,-10 78.65,-6.5 78.65,-13.5"/>
</g>
</g>
</svg>
