<?xml version="1.0" encoding="UTF-8" standalone="no"?>
<!DOCTYPE svg PUBLIC "-//W3C//DTD SVG 1.1//EN"
 "http://www.w3.org/Graphics/SVG/1.1/DTD/svg11.dtd">
<!-- Generated by graphviz version 2.43.0 (0)
 -->
<!-- Title: StarParameter::printColumn Pages: 1 -->
<svg width="728pt" height="127pt"
 viewBox="0.00 0.00 728.00 127.00" xmlns="http://www.w3.org/2000/svg" xmlns:xlink="http://www.w3.org/1999/xlink">
<g id="graph0" class="graph" transform="scale(1 1) rotate(0) translate(4 123)">
<title>StarParameter::printColumn</title>
<polygon fill="white" stroke="transparent" points="-4,4 -4,-123 724,-123 724,4 -4,4"/>
<!-- Node1 -->
<g id="node1" class="node">
<title>Node1</title>
<g id="a_node1"><a xlink:title="print data of class members using column style">
<polygon fill="#bfbfbf" stroke="black" points="568,-50 568,-69 720,-69 720,-50 568,-50"/>
<text text-anchor="middle" x="644" y="-57" font-family="Helvetica,sans-Serif" font-size="10.00">StarParameter::printColumn</text>
</a>
</g>
</g>
<!-- Node2 -->
<g id="node2" class="node">
<title>Node2</title>
<g id="a_node2"><a xlink:href="classARInteraction.html#a01115b0f522974cd9e5f0ecd3ef57663" target="_top" xlink:title="(Necessary) modify one particle function">
<polygon fill="white" stroke="black" points="389.5,-88.5 389.5,-118.5 531.5,-118.5 531.5,-88.5 389.5,-88.5"/>
<text text-anchor="start" x="397.5" y="-106.5" font-family="Helvetica,sans-Serif" font-size="10.00">ARInteraction::modifyOne</text>
<text text-anchor="middle" x="460.5" y="-95.5" font-family="Helvetica,sans-Serif" font-size="10.00">Particle</text>
</a>
</g>
</g>
<!-- Node1&#45;&gt;Node2 -->
<g id="edge1" class="edge">
<title>Node1&#45;&gt;Node2</title>
<path fill="none" stroke="midnightblue" d="M593.69,-71.46C572.09,-76.69 546.52,-82.89 523.64,-88.43"/>
<polygon fill="midnightblue" stroke="midnightblue" points="594.72,-74.8 603.62,-69.05 593.07,-68 594.72,-74.8"/>
</g>
<!-- Node3 -->
<g id="node3" class="node">
<title>Node3</title>
<g id="a_node3"><a xlink:href="classParticleBase.html#a2ee6dff13f084250e566036a37ac4bd4" target="_top" xlink:title="print data of class members using column style">
<polygon fill="white" stroke="black" points="389,-50 389,-69 532,-69 532,-50 389,-50"/>
<text text-anchor="middle" x="460.5" y="-57" font-family="Helvetica,sans-Serif" font-size="10.00">ParticleBase::printColumn</text>
</a>
</g>
</g>
<!-- Node1&#45;&gt;Node3 -->
<g id="edge2" class="edge">
<title>Node1&#45;&gt;Node3</title>
<path fill="none" stroke="midnightblue" d="M557.84,-59.5C549.26,-59.5 540.61,-59.5 532.21,-59.5"/>
<polygon fill="midnightblue" stroke="midnightblue" points="557.87,-63 567.87,-59.5 557.87,-56 557.87,-63"/>
</g>
<!-- Node6 -->
<g id="node6" class="node">
<title>Node6</title>
<g id="a_node6"><a xlink:href="classParticleBase.html#accf33b8bed2326ee349439a7ae3e0768" target="_top" xlink:title="print data of class members with pos and vel offset using column style">
<polygon fill="white" stroke="black" points="389,-0.5 389,-30.5 532,-30.5 532,-0.5 389,-0.5"/>
<text text-anchor="start" x="397" y="-18.5" font-family="Helvetica,sans-Serif" font-size="10.00">ParticleBase::printColumn</text>
<text text-anchor="middle" x="460.5" y="-7.5" font-family="Helvetica,sans-Serif" font-size="10.00">WithOffset</text>
</a>
</g>
</g>
<!-- Node1&#45;&gt;Node6 -->
<g id="edge5" class="edge">
<title>Node1&#45;&gt;Node6</title>
<path fill="none" stroke="midnightblue" d="M593.69,-47.54C572.09,-42.31 546.52,-36.11 523.64,-30.57"/>
<polygon fill="midnightblue" stroke="midnightblue" points="593.07,-51 603.62,-49.95 594.72,-44.2 593.07,-51"/>
</g>
<!-- Node4 -->
<g id="node4" class="node">
<title>Node4</title>
<g id="a_node4"><a xlink:href="classPtcl.html#ad3edca90dcee7b42baee6d12cbd25e52" target="_top" xlink:title="print data of class members using column style">
<polygon fill="white" stroke="black" points="226.5,-50 226.5,-69 327.5,-69 327.5,-50 226.5,-50"/>
<text text-anchor="middle" x="277" y="-57" font-family="Helvetica,sans-Serif" font-size="10.00">Ptcl::printColumn</text>
</a>
</g>
</g>
<!-- Node3&#45;&gt;Node4 -->
<g id="edge3" class="edge">
<title>Node3&#45;&gt;Node4</title>
<path fill="none" stroke="midnightblue" d="M378.67,-59.5C361.32,-59.5 343.48,-59.5 327.73,-59.5"/>
<polygon fill="midnightblue" stroke="midnightblue" points="378.81,-63 388.81,-59.5 378.81,-56 378.81,-63"/>
</g>
<!-- Node5 -->
<g id="node5" class="node">
<title>Node5</title>
<g id="a_node5"><a xlink:href="classFPSoft.html#a392bb1a4cfb9611095863498bd6f6ff5" target="_top" xlink:title="print data of class members using column style">
<polygon fill="white" stroke="black" points="26,-50 26,-69 139,-69 139,-50 26,-50"/>
<text text-anchor="middle" x="82.5" y="-57" font-family="Helvetica,sans-Serif" font-size="10.00">FPSoft::printColumn</text>
</a>
</g>
</g>
<!-- Node4&#45;&gt;Node5 -->
<g id="edge4" class="edge">
<title>Node4&#45;&gt;Node5</title>
<path fill="none" stroke="midnightblue" d="M216.13,-59.5C191.51,-59.5 163.17,-59.5 139.02,-59.5"/>
<polygon fill="midnightblue" stroke="midnightblue" points="216.43,-63 226.43,-59.5 216.43,-56 216.43,-63"/>
</g>
<!-- Node7 -->
<g id="node7" class="node">
<title>Node7</title>
<g id="a_node7"><a xlink:href="classPtcl.html#ac152a9401ef2c14532f37f909f15264d" target="_top" xlink:title="print data of class members with pos and vel offset using column style">
<polygon fill="white" stroke="black" points="201,-6 201,-25 353,-25 353,-6 201,-6"/>
<text text-anchor="middle" x="277" y="-13" font-family="Helvetica,sans-Serif" font-size="10.00">Ptcl::printColumnWithOffset</text>
</a>
</g>
</g>
<!-- Node6&#45;&gt;Node7 -->
<g id="edge6" class="edge">
<title>Node6&#45;&gt;Node7</title>
<path fill="none" stroke="midnightblue" d="M378.61,-15.5C370.19,-15.5 361.66,-15.5 353.3,-15.5"/>
<polygon fill="midnightblue" stroke="midnightblue" points="378.81,-19 388.81,-15.5 378.81,-12 378.81,-19"/>
</g>
<!-- Node8 -->
<g id="node8" class="node">
<title>Node8</title>
<g id="a_node8"><a xlink:href="classFPSoft.html#a14150e7eefede550b3bc977271319cae" target="_top" xlink:title="print data of class members with pos and vel offset using column style">
<polygon fill="white" stroke="black" points="0,-6 0,-25 165,-25 165,-6 0,-6"/>
<text text-anchor="middle" x="82.5" y="-13" font-family="Helvetica,sans-Serif" font-size="10.00">FPSoft::printColumnWithOffset</text>
</a>
</g>
</g>
<!-- Node7&#45;&gt;Node8 -->
<g id="edge7" class="edge">
<title>Node7&#45;&gt;Node8</title>
<path fill="none" stroke="midnightblue" d="M190.51,-15.5C182.05,-15.5 173.48,-15.5 165.06,-15.5"/>
<polygon fill="midnightblue" stroke="midnightblue" points="190.75,-19 200.75,-15.5 190.75,-12 190.75,-19"/>
</g>
</g>
</svg>
