<?xml version="1.0" encoding="UTF-8" standalone="no"?>
<!DOCTYPE svg PUBLIC "-//W3C//DTD SVG 1.1//EN"
 "http://www.w3.org/Graphics/SVG/1.1/DTD/svg11.dtd">
<!-- Generated by graphviz version 2.43.0 (0)
 -->
<!-- Title: StarParameter::printTitleWithMeaning Pages: 1 -->
<svg width="844pt" height="104pt"
 viewBox="0.00 0.00 844.00 104.00" xmlns="http://www.w3.org/2000/svg" xmlns:xlink="http://www.w3.org/1999/xlink">
<g id="graph0" class="graph" transform="scale(1 1) rotate(0) translate(4 100)">
<title>StarParameter::printTitleWithMeaning</title>
<polygon fill="white" stroke="transparent" points="-4,4 -4,-100 840,-100 840,4 -4,4"/>
<!-- Node1 -->
<g id="node1" class="node">
<title>Node1</title>
<g id="a_node1"><a xlink:title="print column title with meaning (each line for one column)">
<polygon fill="#bfbfbf" stroke="black" points="699,-33 699,-63 836,-63 836,-33 699,-33"/>
<text text-anchor="start" x="707" y="-51" font-family="Helvetica,sans-Serif" font-size="10.00">StarParameter::printTitle</text>
<text text-anchor="middle" x="767.5" y="-40" font-family="Helvetica,sans-Serif" font-size="10.00">WithMeaning</text>
</a>
</g>
</g>
<!-- Node2 -->
<g id="node2" class="node">
<title>Node2</title>
<g id="a_node2"><a xlink:href="classParticleBase.html#acbad2a98ca348d62adb2b2f972ad7d5a" target="_top" xlink:title="print column title with meaning (each line for one column)">
<polygon fill="white" stroke="black" points="536,-33 536,-63 663,-63 663,-33 536,-33"/>
<text text-anchor="start" x="544" y="-51" font-family="Helvetica,sans-Serif" font-size="10.00">ParticleBase::printTitle</text>
<text text-anchor="middle" x="599.5" y="-40" font-family="Helvetica,sans-Serif" font-size="10.00">WithMeaning</text>
</a>
</g>
</g>
<!-- Node1&#45;&gt;Node2 -->
<g id="edge1" class="edge">
<title>Node1&#45;&gt;Node2</title>
<path fill="none" stroke="midnightblue" d="M688.9,-48C680.27,-48 671.55,-48 663.14,-48"/>
<polygon fill="midnightblue" stroke="midnightblue" points="688.98,-51.5 698.98,-48 688.98,-44.5 688.98,-51.5"/>
</g>
<!-- Node3 -->
<g id="node3" class="node">
<title>Node3</title>
<g id="a_node3"><a xlink:href="tidal__tensor__test_8cxx.html#a3c04138a5bfe5d72780bb7e82a18e627" target="_top" xlink:title=" ">
<polygon fill="white" stroke="black" points="405,-76.5 405,-95.5 446,-95.5 446,-76.5 405,-76.5"/>
<text text-anchor="middle" x="425.5" y="-83.5" font-family="Helvetica,sans-Serif" font-size="10.00">main</text>
</a>
</g>
</g>
<!-- Node2&#45;&gt;Node3 -->
<g id="edge2" class="edge">
<title>Node2&#45;&gt;Node3</title>
<path fill="none" stroke="midnightblue" d="M526.14,-63.99C497,-70.42 465.71,-77.34 446.13,-81.66"/>
<polygon fill="midnightblue" stroke="midnightblue" points="526.91,-67.4 535.92,-61.83 525.4,-60.57 526.91,-67.4"/>
</g>
<!-- Node4 -->
<g id="node4" class="node">
<title>Node4</title>
<g id="a_node4"><a xlink:href="classPtcl.html#acd6efea3772cb295b1064d53695eb276" target="_top" xlink:title="print column title with meaning (each line for one column)">
<polygon fill="white" stroke="black" points="351,-38.5 351,-57.5 500,-57.5 500,-38.5 351,-38.5"/>
<text text-anchor="middle" x="425.5" y="-45.5" font-family="Helvetica,sans-Serif" font-size="10.00">Ptcl::printTitleWithMeaning</text>
</a>
</g>
</g>
<!-- Node2&#45;&gt;Node4 -->
<g id="edge3" class="edge">
<title>Node2&#45;&gt;Node4</title>
<path fill="none" stroke="midnightblue" d="M525.71,-48C517.25,-48 508.61,-48 500.14,-48"/>
<polygon fill="midnightblue" stroke="midnightblue" points="525.92,-51.5 535.92,-48 525.92,-44.5 525.92,-51.5"/>
</g>
<!-- Node7 -->
<g id="node7" class="node">
<title>Node7</title>
<g id="a_node7"><a xlink:href="classIOParamsHardTest.html#afe7ac7f58a0cddd829cd187cc4628217" target="_top" xlink:title=" ">
<polygon fill="white" stroke="black" points="358.5,-0.5 358.5,-19.5 492.5,-19.5 492.5,-0.5 358.5,-0.5"/>
<text text-anchor="middle" x="425.5" y="-7.5" font-family="Helvetica,sans-Serif" font-size="10.00">IOParamsHardTest::read</text>
</a>
</g>
</g>
<!-- Node2&#45;&gt;Node7 -->
<g id="edge6" class="edge">
<title>Node2&#45;&gt;Node7</title>
<path fill="none" stroke="midnightblue" d="M526,-31.98C506.83,-27.75 486.74,-23.31 469.67,-19.54"/>
<polygon fill="midnightblue" stroke="midnightblue" points="525.4,-35.43 535.92,-34.17 526.91,-28.6 525.4,-35.43"/>
</g>
<!-- Node5 -->
<g id="node5" class="node">
<title>Node5</title>
<g id="a_node5"><a xlink:href="classFPSoft.html#aca3236af1ccb822b51a0cb4acb2ab678" target="_top" xlink:title="print column title with meaning (each line for one column)">
<polygon fill="white" stroke="black" points="153,-38.5 153,-57.5 315,-57.5 315,-38.5 153,-38.5"/>
<text text-anchor="middle" x="234" y="-45.5" font-family="Helvetica,sans-Serif" font-size="10.00">FPSoft::printTitleWithMeaning</text>
</a>
</g>
</g>
<!-- Node4&#45;&gt;Node5 -->
<g id="edge4" class="edge">
<title>Node4&#45;&gt;Node5</title>
<path fill="none" stroke="midnightblue" d="M340.95,-48C332.36,-48 323.64,-48 315.09,-48"/>
<polygon fill="midnightblue" stroke="midnightblue" points="340.96,-51.5 350.96,-48 340.96,-44.5 340.96,-51.5"/>
</g>
<!-- Node6 -->
<g id="node6" class="node">
<title>Node6</title>
<g id="a_node6"><a xlink:href="classIOParamsPeTar.html#aa428da858ec3e53058edeb77b9412075" target="_top" xlink:title="reading parameters from GNU option API">
<polygon fill="white" stroke="black" points="0,-38.5 0,-57.5 117,-57.5 117,-38.5 0,-38.5"/>
<text text-anchor="middle" x="58.5" y="-45.5" font-family="Helvetica,sans-Serif" font-size="10.00">IOParamsPeTar::read</text>
</a>
</g>
</g>
<!-- Node5&#45;&gt;Node6 -->
<g id="edge5" class="edge">
<title>Node5&#45;&gt;Node6</title>
<path fill="none" stroke="midnightblue" d="M142.64,-48C133.95,-48 125.3,-48 117.05,-48"/>
<polygon fill="midnightblue" stroke="midnightblue" points="142.85,-51.5 152.85,-48 142.85,-44.5 142.85,-51.5"/>
</g>
<!-- Node8 -->
<g id="node8" class="node">
<title>Node8</title>
<g id="a_node8"><a xlink:href="hard__test_8cxx.html#a3c04138a5bfe5d72780bb7e82a18e627" target="_top" xlink:title=" ">
<polygon fill="white" stroke="black" points="213.5,-0.5 213.5,-19.5 254.5,-19.5 254.5,-0.5 213.5,-0.5"/>
<text text-anchor="middle" x="234" y="-7.5" font-family="Helvetica,sans-Serif" font-size="10.00">main</text>
</a>
</g>
</g>
<!-- Node7&#45;&gt;Node8 -->
<g id="edge7" class="edge">
<title>Node7&#45;&gt;Node8</title>
<path fill="none" stroke="midnightblue" d="M348.07,-10C314.09,-10 276.84,-10 254.72,-10"/>
<polygon fill="midnightblue" stroke="midnightblue" points="348.49,-13.5 358.49,-10 348.49,-6.5 348.49,-13.5"/>
</g>
</g>
</svg>
