<?xml version="1.0" encoding="UTF-8" standalone="no"?>
<!DOCTYPE svg PUBLIC "-//W3C//DTD SVG 1.1//EN"
 "http://www.w3.org/Graphics/SVG/1.1/DTD/svg11.dtd">
<!-- Generated by graphviz version 2.43.0 (0)
 -->
<!-- Title: HardEnergy::clear Pages: 1 -->
<svg width="312pt" height="192pt"
 viewBox="0.00 0.00 312.00 192.00" xmlns="http://www.w3.org/2000/svg" xmlns:xlink="http://www.w3.org/1999/xlink">
<g id="graph0" class="graph" transform="scale(1 1) rotate(0) translate(4 188)">
<title>HardEnergy::clear</title>
<polygon fill="white" stroke="transparent" points="-4,4 -4,-188 308,-188 308,4 -4,4"/>
<!-- Node1 -->
<g id="node1" class="node">
<title>Node1</title>
<g id="a_node1"><a xlink:title=" ">
<polygon fill="#bfbfbf" stroke="black" points="201,-76.5 201,-95.5 304,-95.5 304,-76.5 201,-76.5"/>
<text text-anchor="middle" x="252.5" y="-83.5" font-family="Helvetica,sans-Serif" font-size="10.00">HardEnergy::clear</text>
</a>
</g>
</g>
<!-- Node2 -->
<g id="node2" class="node">
<title>Node2</title>
<g id="a_node2"><a xlink:href="classHardIntegrator.html#a27ea0d8f0df5478287c8179bf246458a" target="_top" xlink:title="clear function">
<polygon fill="white" stroke="black" points="23.5,-164.5 23.5,-183.5 141.5,-183.5 141.5,-164.5 23.5,-164.5"/>
<text text-anchor="middle" x="82.5" y="-171.5" font-family="Helvetica,sans-Serif" font-size="10.00">HardIntegrator::clear</text>
</a>
</g>
</g>
<!-- Node1&#45;&gt;Node2 -->
<g id="edge1" class="edge">
<title>Node1&#45;&gt;Node2</title>
<path fill="none" stroke="midnightblue" d="M235.22,-102.74C218.9,-118.55 192.34,-141.76 165,-155 157.02,-158.86 148.22,-161.97 139.44,-164.45"/>
<polygon fill="midnightblue" stroke="midnightblue" points="237.74,-105.17 242.37,-95.65 232.81,-100.21 237.74,-105.17"/>
</g>
<!-- Node3 -->
<g id="node3" class="node">
<title>Node3</title>
<g id="a_node3"><a xlink:href="classSystemHard.html#a2d86414801edb526081bb7441b6a0da4" target="_top" xlink:title="Finish interrupt integration.">
<polygon fill="white" stroke="black" points="6,-115 6,-145 159,-145 159,-115 6,-115"/>
<text text-anchor="start" x="14" y="-133" font-family="Helvetica,sans-Serif" font-size="10.00">SystemHard::finishIntegrate</text>
<text text-anchor="middle" x="82.5" y="-122" font-family="Helvetica,sans-Serif" font-size="10.00">InterruptClustersOMP</text>
</a>
</g>
</g>
<!-- Node1&#45;&gt;Node3 -->
<g id="edge2" class="edge">
<title>Node1&#45;&gt;Node3</title>
<path fill="none" stroke="midnightblue" d="M205.31,-98.1C185.44,-103.3 162,-109.44 141.02,-114.93"/>
<polygon fill="midnightblue" stroke="midnightblue" points="206.26,-101.47 215.05,-95.55 204.49,-94.7 206.26,-101.47"/>
</g>
<!-- Node4 -->
<g id="node4" class="node">
<title>Node4</title>
<g id="a_node4"><a xlink:href="structHardEnergy.html#a7c7ab34fd51fd22a434f16948b95d14b" target="_top" xlink:title=" ">
<polygon fill="white" stroke="black" points="14.5,-76.5 14.5,-95.5 150.5,-95.5 150.5,-76.5 14.5,-76.5"/>
<text text-anchor="middle" x="82.5" y="-83.5" font-family="Helvetica,sans-Serif" font-size="10.00">HardEnergy::HardEnergy</text>
</a>
</g>
</g>
<!-- Node1&#45;&gt;Node4 -->
<g id="edge3" class="edge">
<title>Node1&#45;&gt;Node4</title>
<path fill="none" stroke="midnightblue" d="M190.46,-86C177.52,-86 163.79,-86 150.64,-86"/>
<polygon fill="midnightblue" stroke="midnightblue" points="190.64,-89.5 200.64,-86 190.64,-82.5 190.64,-89.5"/>
</g>
<!-- Node5 -->
<g id="node5" class="node">
<title>Node5</title>
<g id="a_node5"><a xlink:href="classHardIntegrator.html#ad964f6459c5ae7f3d8268575f9ecb767" target="_top" xlink:title="indicator whether initialization is done">
<polygon fill="white" stroke="black" points="0,-38.5 0,-57.5 165,-57.5 165,-38.5 0,-38.5"/>
<text text-anchor="middle" x="82.5" y="-45.5" font-family="Helvetica,sans-Serif" font-size="10.00">HardIntegrator::HardIntegrator</text>
</a>
</g>
</g>
<!-- Node1&#45;&gt;Node5 -->
<g id="edge4" class="edge">
<title>Node1&#45;&gt;Node5</title>
<path fill="none" stroke="midnightblue" d="M199.22,-74.18C175.54,-68.82 147.91,-62.57 125.59,-57.52"/>
<polygon fill="midnightblue" stroke="midnightblue" points="198.58,-77.62 209.11,-76.41 200.13,-70.79 198.58,-77.62"/>
</g>
<!-- Node6 -->
<g id="node6" class="node">
<title>Node6</title>
<g id="a_node6"><a xlink:href="classSystemHard.html#afe8639a329f3910329a816e2fe03ea6b" target="_top" xlink:title=" ">
<polygon fill="white" stroke="black" points="11,-0.5 11,-19.5 154,-19.5 154,-0.5 11,-0.5"/>
<text text-anchor="middle" x="82.5" y="-7.5" font-family="Helvetica,sans-Serif" font-size="10.00">SystemHard::SystemHard</text>
</a>
</g>
</g>
<!-- Node1&#45;&gt;Node6 -->
<g id="edge5" class="edge">
<title>Node1&#45;&gt;Node6</title>
<path fill="none" stroke="midnightblue" d="M232,-70.22C215.18,-57.36 189.77,-39.64 165,-29 156.19,-25.21 146.51,-22.12 136.98,-19.61"/>
<polygon fill="midnightblue" stroke="midnightblue" points="229.92,-73.04 239.96,-76.44 234.23,-67.53 229.92,-73.04"/>
</g>
</g>
</svg>
