<?xml version="1.0" encoding="UTF-8" standalone="no"?>
<!DOCTYPE svg PUBLIC "-//W3C//DTD SVG 1.1//EN"
 "http://www.w3.org/Graphics/SVG/1.1/DTD/svg11.dtd">
<!-- Generated by graphviz version 2.43.0 (0)
 -->
<!-- Title: tidal_tensor.hpp Pages: 1 -->
<svg width="909pt" height="476pt"
 viewBox="0.00 0.00 909.00 476.00" xmlns="http://www.w3.org/2000/svg" xmlns:xlink="http://www.w3.org/1999/xlink">
<g id="graph0" class="graph" transform="scale(1 1) rotate(0) translate(4 472)">
<title>tidal_tensor.hpp</title>
<polygon fill="white" stroke="transparent" points="-4,4 -4,-472 905,-472 905,4 -4,4"/>
<!-- Node1 -->
<g id="node1" class="node">
<title>Node1</title>
<g id="a_node1"><a xlink:title=" ">
<polygon fill="#bfbfbf" stroke="black" points="134,-448.5 134,-467.5 229,-467.5 229,-448.5 134,-448.5"/>
<text text-anchor="middle" x="181.5" y="-455.5" font-family="Helvetica,sans-Serif" font-size="10.00">tidal_tensor.hpp</text>
</a>
</g>
</g>
<!-- Node2 -->
<g id="node2" class="node">
<title>Node2</title>
<g id="a_node2"><a xlink:href="artificial__particles_8hpp.html" target="_top" xlink:title=" ">
<polygon fill="white" stroke="black" points="119,-392.5 119,-411.5 244,-411.5 244,-392.5 119,-392.5"/>
<text text-anchor="middle" x="181.5" y="-399.5" font-family="Helvetica,sans-Serif" font-size="10.00">artificial_particles.hpp</text>
</a>
</g>
</g>
<!-- Node1&#45;&gt;Node2 -->
<g id="edge1" class="edge">
<title>Node1&#45;&gt;Node2</title>
<path fill="none" stroke="midnightblue" d="M181.5,-437.8C181.5,-428.91 181.5,-418.78 181.5,-411.75"/>
<polygon fill="midnightblue" stroke="midnightblue" points="178,-438.08 181.5,-448.08 185,-438.08 178,-438.08"/>
</g>
<!-- Node11 -->
<g id="node11" class="node">
<title>Node11</title>
<g id="a_node11"><a xlink:href="ar__perturber_8hpp.html" target="_top" xlink:title=" ">
<polygon fill="white" stroke="black" points="48,-224.5 48,-243.5 145,-243.5 145,-224.5 48,-224.5"/>
<text text-anchor="middle" x="96.5" y="-231.5" font-family="Helvetica,sans-Serif" font-size="10.00">ar_perturber.hpp</text>
</a>
</g>
</g>
<!-- Node1&#45;&gt;Node11 -->
<g id="edge33" class="edge">
<title>Node1&#45;&gt;Node11</title>
<path fill="none" stroke="midnightblue" d="M148.44,-444.14C134.33,-436.89 119.15,-426.35 110.5,-412 76.61,-355.77 89.42,-270.58 94.68,-243.54"/>
<polygon fill="midnightblue" stroke="midnightblue" points="146.94,-447.3 157.47,-448.43 149.95,-440.98 146.94,-447.3"/>
</g>
<!-- Node18 -->
<g id="node18" class="node">
<title>Node18</title>
<g id="a_node18"><a xlink:href="tidal__tensor__test_8cxx.html" target="_top" xlink:title=" ">
<polygon fill="white" stroke="black" points="782,-112.5 782,-131.5 901,-131.5 901,-112.5 782,-112.5"/>
<text text-anchor="middle" x="841.5" y="-119.5" font-family="Helvetica,sans-Serif" font-size="10.00">tidal_tensor_test.cxx</text>
</a>
</g>
</g>
<!-- Node1&#45;&gt;Node18 -->
<g id="edge34" class="edge">
<title>Node1&#45;&gt;Node18</title>
<path fill="none" stroke="midnightblue" d="M239.6,-455.58C365.76,-450.93 653.5,-431.09 653.5,-347 653.5,-347 653.5,-347 653.5,-233 653.5,-171.27 729.95,-143.54 785.35,-131.54"/>
<polygon fill="midnightblue" stroke="midnightblue" points="239.23,-452.09 229.36,-455.94 239.47,-459.09 239.23,-452.09"/>
</g>
<!-- Node3 -->
<g id="node3" class="node">
<title>Node3</title>
<g id="a_node3"><a xlink:href="ptcl_8hpp.html" target="_top" xlink:title=" ">
<polygon fill="white" stroke="black" points="227.5,-336.5 227.5,-355.5 283.5,-355.5 283.5,-336.5 227.5,-336.5"/>
<text text-anchor="middle" x="255.5" y="-343.5" font-family="Helvetica,sans-Serif" font-size="10.00">ptcl.hpp</text>
</a>
</g>
</g>
<!-- Node2&#45;&gt;Node3 -->
<g id="edge2" class="edge">
<title>Node2&#45;&gt;Node3</title>
<path fill="none" stroke="midnightblue" d="M201.53,-386.38C214.91,-376.62 232.06,-364.11 243.39,-355.83"/>
<polygon fill="midnightblue" stroke="midnightblue" points="199.4,-383.6 193.39,-392.32 203.53,-389.26 199.4,-383.6"/>
</g>
<!-- Node6 -->
<g id="node6" class="node">
<title>Node6</title>
<g id="a_node6"><a xlink:href="hard_8hpp.html" target="_top" xlink:title=" ">
<polygon fill="white" stroke="black" points="0,-112.5 0,-131.5 59,-131.5 59,-112.5 0,-112.5"/>
<text text-anchor="middle" x="29.5" y="-119.5" font-family="Helvetica,sans-Serif" font-size="10.00">hard.hpp</text>
</a>
</g>
</g>
<!-- Node2&#45;&gt;Node6 -->
<g id="edge32" class="edge">
<title>Node2&#45;&gt;Node6</title>
<path fill="none" stroke="midnightblue" d="M161.12,-386.15C128.51,-361.07 65.55,-306.84 38.5,-244 21.68,-204.92 25.8,-152.17 28.29,-131.66"/>
<polygon fill="midnightblue" stroke="midnightblue" points="159.36,-389.21 169.46,-392.44 163.58,-383.62 159.36,-389.21"/>
</g>
<!-- Node4 -->
<g id="node4" class="node">
<title>Node4</title>
<g id="a_node4"><a xlink:href="hard__ptcl_8hpp.html" target="_top" xlink:title=" ">
<polygon fill="white" stroke="black" points="176,-280.5 176,-299.5 259,-299.5 259,-280.5 176,-280.5"/>
<text text-anchor="middle" x="217.5" y="-287.5" font-family="Helvetica,sans-Serif" font-size="10.00">hard_ptcl.hpp</text>
</a>
</g>
</g>
<!-- Node3&#45;&gt;Node4 -->
<g id="edge3" class="edge">
<title>Node3&#45;&gt;Node4</title>
<path fill="none" stroke="midnightblue" d="M243.44,-327.86C236.86,-318.5 228.99,-307.33 223.66,-299.75"/>
<polygon fill="midnightblue" stroke="midnightblue" points="240.61,-329.92 249.23,-336.08 246.33,-325.89 240.61,-329.92"/>
</g>
<!-- Node13 -->
<g id="node13" class="node">
<title>Node13</title>
<g id="a_node13"><a xlink:href="cluster__list_8hpp.html" target="_top" xlink:title=" ">
<polygon fill="white" stroke="black" points="116,-112.5 116,-131.5 207,-131.5 207,-112.5 116,-112.5"/>
<text text-anchor="middle" x="161.5" y="-119.5" font-family="Helvetica,sans-Serif" font-size="10.00">cluster_list.hpp</text>
</a>
</g>
</g>
<!-- Node3&#45;&gt;Node13 -->
<g id="edge18" class="edge">
<title>Node3&#45;&gt;Node13</title>
<path fill="none" stroke="midnightblue" d="M263.25,-326.5C267.71,-313.48 271.84,-295.65 268.5,-280 257.14,-226.68 251.97,-211.02 218.5,-168 206.73,-152.87 188.84,-139.85 176.25,-131.76"/>
<polygon fill="midnightblue" stroke="midnightblue" points="259.86,-325.56 259.57,-336.15 266.4,-328.05 259.86,-325.56"/>
</g>
<!-- Node14 -->
<g id="node14" class="node">
<title>Node14</title>
<g id="a_node14"><a xlink:href="soft__ptcl_8hpp.html" target="_top" xlink:title=" ">
<polygon fill="white" stroke="black" points="358,-168.5 358,-187.5 437,-187.5 437,-168.5 358,-168.5"/>
<text text-anchor="middle" x="397.5" y="-175.5" font-family="Helvetica,sans-Serif" font-size="10.00">soft_ptcl.hpp</text>
</a>
</g>
</g>
<!-- Node3&#45;&gt;Node14 -->
<g id="edge22" class="edge">
<title>Node3&#45;&gt;Node14</title>
<path fill="none" stroke="midnightblue" d="M274.82,-329.98C285.02,-321.65 297.47,-310.8 307.5,-300 343.49,-261.25 378.72,-208.32 391.98,-187.71"/>
<polygon fill="midnightblue" stroke="midnightblue" points="272.5,-327.36 266.88,-336.34 276.88,-332.82 272.5,-327.36"/>
</g>
<!-- Node5 -->
<g id="node5" class="node">
<title>Node5</title>
<g id="a_node5"><a xlink:href="ar__interaction_8hpp.html" target="_top" xlink:title=" ">
<polygon fill="white" stroke="black" points="84,-168.5 84,-187.5 189,-187.5 189,-168.5 84,-168.5"/>
<text text-anchor="middle" x="136.5" y="-175.5" font-family="Helvetica,sans-Serif" font-size="10.00">ar_interaction.hpp</text>
</a>
</g>
</g>
<!-- Node4&#45;&gt;Node5 -->
<g id="edge4" class="edge">
<title>Node4&#45;&gt;Node5</title>
<path fill="none" stroke="midnightblue" d="M205.18,-272.27C187.67,-248.49 156.23,-205.79 142.83,-187.59"/>
<polygon fill="midnightblue" stroke="midnightblue" points="202.4,-274.39 211.14,-280.37 208.03,-270.24 202.4,-274.39"/>
</g>
<!-- Node4&#45;&gt;Node6 -->
<g id="edge13" class="edge">
<title>Node4&#45;&gt;Node6</title>
<path fill="none" stroke="midnightblue" d="M220.31,-270.23C223.12,-243.94 223.91,-196.22 198.5,-168 189.1,-157.57 105.03,-138.71 59.12,-129.06"/>
<polygon fill="midnightblue" stroke="midnightblue" points="216.81,-270 219.01,-280.36 223.76,-270.89 216.81,-270"/>
</g>
<!-- Node4&#45;&gt;Node11 -->
<g id="edge10" class="edge">
<title>Node4&#45;&gt;Node11</title>
<path fill="none" stroke="midnightblue" d="M189.19,-276.37C166.53,-266.26 135.37,-252.35 115.58,-243.52"/>
<polygon fill="midnightblue" stroke="midnightblue" points="187.77,-279.56 198.33,-280.44 190.62,-273.17 187.77,-279.56"/>
</g>
<!-- Node12 -->
<g id="node12" class="node">
<title>Node12</title>
<g id="a_node12"><a xlink:href="hard__assert_8hpp.html" target="_top" xlink:title=" ">
<polygon fill="white" stroke="black" points="225,-112.5 225,-131.5 320,-131.5 320,-112.5 225,-112.5"/>
<text text-anchor="middle" x="272.5" y="-119.5" font-family="Helvetica,sans-Serif" font-size="10.00">hard_assert.hpp</text>
</a>
</g>
</g>
<!-- Node4&#45;&gt;Node12 -->
<g id="edge14" class="edge">
<title>Node4&#45;&gt;Node12</title>
<path fill="none" stroke="midnightblue" d="M223.66,-270.39C235.53,-234.59 261.12,-157.34 269.66,-131.57"/>
<polygon fill="midnightblue" stroke="midnightblue" points="220.28,-269.48 220.46,-280.08 226.92,-271.68 220.28,-269.48"/>
</g>
<!-- Node5&#45;&gt;Node6 -->
<g id="edge5" class="edge">
<title>Node5&#45;&gt;Node6</title>
<path fill="none" stroke="midnightblue" d="M110.2,-163.73C90.39,-153.73 63.79,-140.31 46.65,-131.65"/>
<polygon fill="midnightblue" stroke="midnightblue" points="108.8,-166.94 119.31,-168.32 111.96,-160.69 108.8,-166.94"/>
</g>
<!-- Node7 -->
<g id="node7" class="node">
<title>Node7</title>
<g id="a_node7"><a xlink:href="hard__debug_8cxx.html" target="_top" xlink:title=" ">
<polygon fill="white" stroke="black" points="231.5,-56.5 231.5,-75.5 325.5,-75.5 325.5,-56.5 231.5,-56.5"/>
<text text-anchor="middle" x="278.5" y="-63.5" font-family="Helvetica,sans-Serif" font-size="10.00">hard_debug.cxx</text>
</a>
</g>
</g>
<!-- Node6&#45;&gt;Node7 -->
<g id="edge6" class="edge">
<title>Node6&#45;&gt;Node7</title>
<path fill="none" stroke="midnightblue" d="M69.07,-112.42C115.69,-102.31 192.66,-85.62 239.17,-75.53"/>
<polygon fill="midnightblue" stroke="midnightblue" points="68.07,-109.05 59.04,-114.59 69.56,-115.89 68.07,-109.05"/>
</g>
<!-- Node8 -->
<g id="node8" class="node">
<title>Node8</title>
<g id="a_node8"><a xlink:href="hard__test_8cxx.html" target="_top" xlink:title=" ">
<polygon fill="white" stroke="black" points="130,-56.5 130,-75.5 213,-75.5 213,-56.5 130,-56.5"/>
<text text-anchor="middle" x="171.5" y="-63.5" font-family="Helvetica,sans-Serif" font-size="10.00">hard_test.cxx</text>
</a>
</g>
</g>
<!-- Node6&#45;&gt;Node8 -->
<g id="edge7" class="edge">
<title>Node6&#45;&gt;Node8</title>
<path fill="none" stroke="midnightblue" d="M61.66,-108.77C88.33,-98.63 125.57,-84.47 149.1,-75.52"/>
<polygon fill="midnightblue" stroke="midnightblue" points="60.1,-105.62 52,-112.44 62.59,-112.16 60.1,-105.62"/>
</g>
<!-- Node9 -->
<g id="node9" class="node">
<title>Node9</title>
<g id="a_node9"><a xlink:href="petar_8hpp.html" target="_top" xlink:title=" ">
<polygon fill="white" stroke="black" points="49.5,-56.5 49.5,-75.5 111.5,-75.5 111.5,-56.5 49.5,-56.5"/>
<text text-anchor="middle" x="80.5" y="-63.5" font-family="Helvetica,sans-Serif" font-size="10.00">petar.hpp</text>
</a>
</g>
</g>
<!-- Node6&#45;&gt;Node9 -->
<g id="edge8" class="edge">
<title>Node6&#45;&gt;Node9</title>
<path fill="none" stroke="midnightblue" d="M44.88,-104.72C53.87,-95.2 64.86,-83.56 72.24,-75.75"/>
<polygon fill="midnightblue" stroke="midnightblue" points="42.24,-102.41 37.92,-112.08 47.33,-107.22 42.24,-102.41"/>
</g>
<!-- Node10 -->
<g id="node10" class="node">
<title>Node10</title>
<g id="a_node10"><a xlink:href="main_8cc.html" target="_top" xlink:title=" ">
<polygon fill="white" stroke="black" points="53,-0.5 53,-19.5 108,-19.5 108,-0.5 53,-0.5"/>
<text text-anchor="middle" x="80.5" y="-7.5" font-family="Helvetica,sans-Serif" font-size="10.00">main.cc</text>
</a>
</g>
</g>
<!-- Node9&#45;&gt;Node10 -->
<g id="edge9" class="edge">
<title>Node9&#45;&gt;Node10</title>
<path fill="none" stroke="midnightblue" d="M80.5,-45.8C80.5,-36.91 80.5,-26.78 80.5,-19.75"/>
<polygon fill="midnightblue" stroke="midnightblue" points="77,-46.08 80.5,-56.08 84,-46.08 77,-46.08"/>
</g>
<!-- Node11&#45;&gt;Node5 -->
<g id="edge11" class="edge">
<title>Node11&#45;&gt;Node5</title>
<path fill="none" stroke="midnightblue" d="M109.2,-215.86C116.13,-206.5 124.41,-195.33 130.02,-187.75"/>
<polygon fill="midnightblue" stroke="midnightblue" points="106.25,-213.96 103.11,-224.08 111.87,-218.13 106.25,-213.96"/>
</g>
<!-- Node11&#45;&gt;Node6 -->
<g id="edge12" class="edge">
<title>Node11&#45;&gt;Node6</title>
<path fill="none" stroke="midnightblue" d="M85.93,-215.64C71.37,-191.74 45.72,-149.63 34.73,-131.59"/>
<polygon fill="midnightblue" stroke="midnightblue" points="83.05,-217.65 91.24,-224.37 89.03,-214.01 83.05,-217.65"/>
</g>
<!-- Node12&#45;&gt;Node7 -->
<g id="edge15" class="edge">
<title>Node12&#45;&gt;Node7</title>
<path fill="none" stroke="midnightblue" d="M274.6,-102.1C275.6,-93.14 276.74,-82.86 277.53,-75.75"/>
<polygon fill="midnightblue" stroke="midnightblue" points="271.12,-101.76 273.49,-112.08 278.07,-102.53 271.12,-101.76"/>
</g>
<!-- Node12&#45;&gt;Node8 -->
<g id="edge16" class="edge">
<title>Node12&#45;&gt;Node8</title>
<path fill="none" stroke="midnightblue" d="M247.42,-107.59C228.74,-97.61 203.8,-84.27 187.69,-75.65"/>
<polygon fill="midnightblue" stroke="midnightblue" points="245.8,-110.7 256.27,-112.32 249.1,-104.52 245.8,-110.7"/>
</g>
<!-- Node12&#45;&gt;Node9 -->
<g id="edge17" class="edge">
<title>Node12&#45;&gt;Node9</title>
<path fill="none" stroke="midnightblue" d="M232.32,-109.7C196.08,-99.51 143.59,-84.74 110.78,-75.52"/>
<polygon fill="midnightblue" stroke="midnightblue" points="231.5,-113.11 242.08,-112.44 233.4,-106.37 231.5,-113.11"/>
</g>
<!-- Node13&#45;&gt;Node7 -->
<g id="edge19" class="edge">
<title>Node13&#45;&gt;Node7</title>
<path fill="none" stroke="midnightblue" d="M189.16,-108.23C211.05,-98.13 241,-84.31 260.05,-75.52"/>
<polygon fill="midnightblue" stroke="midnightblue" points="187.65,-105.08 180.04,-112.44 190.59,-111.43 187.65,-105.08"/>
</g>
<!-- Node13&#45;&gt;Node8 -->
<g id="edge20" class="edge">
<title>Node13&#45;&gt;Node8</title>
<path fill="none" stroke="midnightblue" d="M165,-102.1C166.66,-93.14 168.56,-82.86 169.88,-75.75"/>
<polygon fill="midnightblue" stroke="midnightblue" points="161.53,-101.61 163.15,-112.08 168.41,-102.89 161.53,-101.61"/>
</g>
<!-- Node13&#45;&gt;Node9 -->
<g id="edge21" class="edge">
<title>Node13&#45;&gt;Node9</title>
<path fill="none" stroke="midnightblue" d="M139.93,-106.62C125.14,-96.76 105.99,-83.99 93.48,-75.65"/>
<polygon fill="midnightblue" stroke="midnightblue" points="138.22,-109.69 148.49,-112.32 142.11,-103.86 138.22,-109.69"/>
</g>
<!-- Node14&#45;&gt;Node6 -->
<g id="edge25" class="edge">
<title>Node14&#45;&gt;Node6</title>
<path fill="none" stroke="midnightblue" d="M347.81,-171.1C284.09,-163.3 170.26,-148.6 73.5,-132 68.89,-131.21 64.02,-130.29 59.27,-129.36"/>
<polygon fill="midnightblue" stroke="midnightblue" points="347.62,-174.6 357.97,-172.33 348.47,-167.65 347.62,-174.6"/>
</g>
<!-- Node14&#45;&gt;Node7 -->
<g id="edge27" class="edge">
<title>Node14&#45;&gt;Node7</title>
<path fill="none" stroke="midnightblue" d="M447.46,-173.91C536.69,-167.88 715.89,-153.25 734.5,-132 740.35,-125.31 740.47,-118.59 734.5,-112 707.39,-82.08 436.54,-71.32 325.56,-68.14"/>
<polygon fill="midnightblue" stroke="midnightblue" points="447.05,-170.43 437.3,-174.59 447.51,-177.42 447.05,-170.43"/>
</g>
<!-- Node14&#45;&gt;Node8 -->
<g id="edge28" class="edge">
<title>Node14&#45;&gt;Node8</title>
<path fill="none" stroke="midnightblue" d="M384.47,-160.64C371.89,-145.89 351.53,-124.62 329.5,-112 309.08,-100.31 249.35,-84.99 209.46,-75.58"/>
<polygon fill="midnightblue" stroke="midnightblue" points="381.87,-162.99 390.94,-168.46 387.26,-158.53 381.87,-162.99"/>
</g>
<!-- Node14&#45;&gt;Node9 -->
<g id="edge29" class="edge">
<title>Node14&#45;&gt;Node9</title>
<path fill="none" stroke="midnightblue" d="M347.51,-175.14C274.35,-171.46 142.87,-160.93 106.5,-132 88.81,-117.93 83.1,-89.99 81.3,-75.77"/>
<polygon fill="midnightblue" stroke="midnightblue" points="347.7,-178.65 357.86,-175.63 348.04,-171.66 347.7,-178.65"/>
</g>
<!-- Node14&#45;&gt;Node12 -->
<g id="edge26" class="edge">
<title>Node14&#45;&gt;Node12</title>
<path fill="none" stroke="midnightblue" d="M368.26,-164.37C344.85,-154.26 312.66,-140.35 292.21,-131.52"/>
<polygon fill="midnightblue" stroke="midnightblue" points="367.13,-167.69 377.69,-168.44 369.9,-161.26 367.13,-167.69"/>
</g>
<!-- Node15 -->
<g id="node15" class="node">
<title>Node15</title>
<g id="a_node15"><a xlink:href="force__gpu__cuda_8hpp.html" target="_top" xlink:title=" ">
<polygon fill="white" stroke="black" points="376.5,-112.5 376.5,-131.5 490.5,-131.5 490.5,-112.5 376.5,-112.5"/>
<text text-anchor="middle" x="433.5" y="-119.5" font-family="Helvetica,sans-Serif" font-size="10.00">force_gpu_cuda.hpp</text>
</a>
</g>
</g>
<!-- Node14&#45;&gt;Node15 -->
<g id="edge23" class="edge">
<title>Node14&#45;&gt;Node15</title>
<path fill="none" stroke="midnightblue" d="M409.12,-159.57C415.32,-150.27 422.67,-139.25 427.67,-131.75"/>
<polygon fill="midnightblue" stroke="midnightblue" points="406.08,-157.82 403.44,-168.08 411.9,-161.7 406.08,-157.82"/>
</g>
<!-- Node16 -->
<g id="node16" class="node">
<title>Node16</title>
<g id="a_node16"><a xlink:href="format__transfer_8cxx.html" target="_top" xlink:title=" ">
<polygon fill="white" stroke="black" points="509,-112.5 509,-131.5 622,-131.5 622,-112.5 509,-112.5"/>
<text text-anchor="middle" x="565.5" y="-119.5" font-family="Helvetica,sans-Serif" font-size="10.00">format_transfer.cxx</text>
</a>
</g>
</g>
<!-- Node14&#45;&gt;Node16 -->
<g id="edge24" class="edge">
<title>Node14&#45;&gt;Node16</title>
<path fill="none" stroke="midnightblue" d="M433.89,-165.3C465.54,-155.13 510.67,-140.62 539,-131.52"/>
<polygon fill="midnightblue" stroke="midnightblue" points="432.57,-162.05 424.12,-168.44 434.71,-168.72 432.57,-162.05"/>
</g>
<!-- Node17 -->
<g id="node17" class="node">
<title>Node17</title>
<g id="a_node17"><a xlink:href="simd__test_8cxx.html" target="_top" xlink:title=" ">
<polygon fill="white" stroke="black" points="640,-112.5 640,-131.5 725,-131.5 725,-112.5 640,-112.5"/>
<text text-anchor="middle" x="682.5" y="-119.5" font-family="Helvetica,sans-Serif" font-size="10.00">simd_test.cxx</text>
</a>
</g>
</g>
<!-- Node14&#45;&gt;Node17 -->
<g id="edge30" class="edge">
<title>Node14&#45;&gt;Node17</title>
<path fill="none" stroke="midnightblue" d="M447.26,-167.57C501.82,-157.23 588.44,-140.82 639.96,-131.06"/>
<polygon fill="midnightblue" stroke="midnightblue" points="446.3,-164.19 437.13,-169.49 447.6,-171.07 446.3,-164.19"/>
</g>
<!-- Node14&#45;&gt;Node18 -->
<g id="edge31" class="edge">
<title>Node14&#45;&gt;Node18</title>
<path fill="none" stroke="midnightblue" d="M447.39,-170.93C529.67,-160.93 693.47,-141 781.78,-130.26"/>
<polygon fill="midnightblue" stroke="midnightblue" points="446.8,-167.48 437.29,-172.16 447.64,-174.43 446.8,-167.48"/>
</g>
</g>
</svg>
