<?xml version="1.0" encoding="UTF-8" standalone="no"?>
<!DOCTYPE svg PUBLIC "-//W3C//DTD SVG 1.1//EN"
 "http://www.w3.org/Graphics/SVG/1.1/DTD/svg11.dtd">
<!-- Generated by graphviz version 2.43.0 (0)
 -->
<!-- Title: two_body_tide.hpp Pages: 1 -->
<svg width="252pt" height="84pt"
 viewBox="0.00 0.00 252.00 84.00" xmlns="http://www.w3.org/2000/svg" xmlns:xlink="http://www.w3.org/1999/xlink">
<g id="graph0" class="graph" transform="scale(1 1) rotate(0) translate(4 80)">
<title>two_body_tide.hpp</title>
<polygon fill="white" stroke="transparent" points="-4,4 -4,-80 248,-80 248,4 -4,4"/>
<!-- Node1 -->
<g id="node1" class="node">
<title>Node1</title>
<g id="a_node1"><a xlink:title=" ">
<polygon fill="#bfbfbf" stroke="black" points="59.5,-56.5 59.5,-75.5 168.5,-75.5 168.5,-56.5 59.5,-56.5"/>
<text text-anchor="middle" x="114" y="-63.5" font-family="Helvetica,sans-Serif" font-size="10.00">two_body_tide.hpp</text>
</a>
</g>
</g>
<!-- Node2 -->
<g id="node2" class="node">
<title>Node2</title>
<g id="a_node2"><a xlink:title=" ">
<polygon fill="white" stroke="#bfbfbf" points="0,-0.5 0,-19.5 98,-19.5 98,-0.5 0,-0.5"/>
<text text-anchor="middle" x="49" y="-7.5" font-family="Helvetica,sans-Serif" font-size="10.00">Common/Float.h</text>
</a>
</g>
</g>
<!-- Node1&#45;&gt;Node2 -->
<g id="edge1" class="edge">
<title>Node1&#45;&gt;Node2</title>
<path fill="none" stroke="midnightblue" d="M103.56,-56.32C93.85,-48.26 79.18,-36.08 67.5,-26.37"/>
<polygon fill="midnightblue" stroke="midnightblue" points="69.56,-23.53 59.63,-19.83 65.09,-28.92 69.56,-23.53"/>
</g>
<!-- Node3 -->
<g id="node3" class="node">
<title>Node3</title>
<g id="a_node3"><a xlink:title=" ">
<polygon fill="white" stroke="#bfbfbf" points="116,-0.5 116,-19.5 244,-19.5 244,-0.5 116,-0.5"/>
<text text-anchor="middle" x="180" y="-7.5" font-family="Helvetica,sans-Serif" font-size="10.00">Common/binary_tree.h</text>
</a>
</g>
</g>
<!-- Node1&#45;&gt;Node3 -->
<g id="edge2" class="edge">
<title>Node1&#45;&gt;Node3</title>
<path fill="none" stroke="midnightblue" d="M124.6,-56.32C134.46,-48.26 149.35,-36.08 161.22,-26.37"/>
<polygon fill="midnightblue" stroke="midnightblue" points="163.68,-28.88 169.2,-19.83 159.25,-23.46 163.68,-28.88"/>
</g>
</g>
</svg>
